<svg width="14" height="14" viewBox="0 0 14 14" fill="none" xmlns="http://www.w3.org/2000/svg">
<g clip-path="url(#clip0_8_29595)">
<path d="M10.3293 4.20215C11.1356 4.20215 11.7897 3.54866 11.7897 2.74199V2.46992C11.7897 1.66355 11.1359 1.00977 10.3293 1.00977C9.52293 1.00977 8.86914 1.66355 8.86914 2.46992V2.74199C8.86914 3.54836 9.52293 4.20215 10.3293 4.20215Z" fill="#FF4D4F"/>
<path d="M9.91613 7.14082L8.74008 5.33203C7.96707 5.80672 7.42293 6.61691 7.31055 7.56H9.91613V7.14082Z" fill="#FF4D4F"/>
<path d="M9.50391 4.99944L10.3283 6.26737L11.1552 4.99589C10.6212 4.84768 10.0459 4.84659 9.50391 4.99944Z" fill="#FF4D4F"/>
<path d="M10.7363 7.55992H13.3397C13.2295 6.61684 12.687 5.80445 11.9151 5.32812L10.7363 7.14074V7.55992Z" fill="#FF4D4F"/>
<path d="M12.1854 13.6346C12.2083 13.8422 12.3839 13.9994 12.593 13.9994H13.5897C13.8161 13.9994 13.9999 13.8157 13.9999 13.5893V12.1934H12.0254L12.1854 13.6346Z" fill="#FF4D4F"/>
<path d="M0 13.5893C0 13.8157 0.18375 13.9994 0.410156 13.9994H1.40684C1.61602 13.9994 1.79156 13.8422 1.81453 13.6346L1.97449 12.1934H0V13.5893Z" fill="#FF4D4F"/>
<path d="M3.53906 1.64068C3.76558 1.64068 3.94922 1.45704 3.94922 1.23052V0.410156C3.94922 0.183641 3.76558 0 3.53906 0C3.31255 0 3.12891 0.183641 3.12891 0.410156V1.23052C3.12891 1.45707 3.31255 1.64068 3.53906 1.64068Z" fill="#FF4D4F"/>
<path d="M0.410156 3.83398H1.23052C1.45704 3.83398 1.64068 3.65034 1.64068 3.42383C1.64068 3.19731 1.45704 3.01367 1.23052 3.01367H0.410156C0.183641 3.01367 0 3.19731 0 3.42383C0 3.65034 0.183641 3.83398 0.410156 3.83398Z" fill="#FF4D4F"/>
<path d="M5.4375 3.42383C5.4375 3.65034 5.62114 3.83398 5.84766 3.83398H6.66802C6.89454 3.83398 7.07818 3.65034 7.07818 3.42383C7.07818 3.19731 6.89457 3.01367 6.66802 3.01367H5.84766C5.62114 3.01367 5.4375 3.19731 5.4375 3.42383Z" fill="#FF4D4F"/>
<path d="M1.20997 1.89353C1.37013 2.05371 1.62984 2.05374 1.79002 1.89353C1.9502 1.73335 1.9502 1.47367 1.79002 1.31349L1.20604 0.72951C1.04588 0.56933 0.786174 0.56933 0.625994 0.72951C0.465814 0.889689 0.465814 1.14937 0.625994 1.30955L1.20997 1.89353Z" fill="#FF4D4F"/>
<path d="M5.86815 1.89353L6.45213 1.30955C6.61231 1.14937 6.61231 0.889689 6.45213 0.72951C6.29198 0.56933 6.03226 0.56933 5.87208 0.72951L5.2881 1.31349C5.12792 1.47367 5.12792 1.73335 5.2881 1.89353C5.44826 2.05371 5.70797 2.05374 5.86815 1.89353Z" fill="#FF4D4F"/>
<path d="M3.53906 7.31641C3.76559 7.31641 3.94922 7.13277 3.94922 6.90625C3.94922 6.67973 3.76559 6.49609 3.53906 6.49609C3.31254 6.49609 3.12891 6.67973 3.12891 6.90625C3.12891 7.13277 3.31254 7.31641 3.53906 7.31641Z" fill="#FF4D4F"/>
<path d="M2.53518 3.98251C2.7617 3.98251 2.94534 3.79887 2.94534 3.57235C2.94534 3.23534 3.2223 2.97235 3.55169 2.97858C3.86125 2.98482 4.11628 3.23151 4.1323 3.54022C4.15008 3.88229 3.87896 4.16629 3.53922 4.16629C3.3127 4.16629 3.12906 4.34993 3.12906 4.57644V5.54116C3.12906 5.76767 3.3127 5.95131 3.53922 5.95131C3.76573 5.95131 3.94938 5.76767 3.94938 5.54116V4.92529C4.55526 4.74078 4.98636 4.16924 4.95152 3.49773C4.91332 2.76161 4.30569 2.17331 3.5682 2.15846C2.85109 2.14487 2.23746 2.66733 2.13862 3.3757C2.12959 3.44047 2.125 3.50665 2.125 3.57238C2.12503 3.79887 2.30867 3.98251 2.53518 3.98251Z" fill="#FF4D4F"/>
<path d="M13.5898 8.38086H0.410156C0.18375 8.38086 0 8.56434 0 8.79102V11.3742H14V8.79102C14 8.56434 13.8162 8.38086 13.5898 8.38086ZM11.9492 10.2875H2.05078C1.82438 10.2875 1.64062 10.1041 1.64062 9.87738C1.64062 9.65098 1.82438 9.46723 2.05078 9.46723H11.9492C12.1756 9.46723 12.3594 9.65098 12.3594 9.87738C12.3594 10.1041 12.1756 10.2875 11.9492 10.2875Z" fill="#FF4D4F"/>
</g>
<defs>
<clipPath id="clip0_8_29595">
<rect width="14" height="14" fill="white"/>
</clipPath>
</defs>
</svg>
