<svg width="24" height="24" viewBox="0 0 24 24" fill="none" xmlns="http://www.w3.org/2000/svg">
<g clip-path="url(#clip0_3060_42033)">
<path d="M8.74407 13.2415C8.74407 12.9408 8.50021 12.6973 8.19932 12.6973H6.29836C5.99781 12.6973 5.75391 12.9408 5.75391 13.2415V15.1422C5.75391 15.4432 5.99781 15.6869 6.29836 15.6869H8.19932C8.50021 15.6869 8.74407 15.4432 8.74407 15.1422V13.2415Z" fill="#37B4A4"/>
<path d="M13.4938 13.2415C13.4938 12.9408 13.2499 12.6973 12.9496 12.6973H11.0484C10.7478 12.6973 10.5039 12.9408 10.5039 13.2415V15.1422C10.5039 15.4432 10.7478 15.6869 11.0484 15.6869H12.9496C13.2499 15.6869 13.4938 15.4432 13.4938 15.1422V13.2415Z" fill="#37B4A4"/>
<path d="M18.246 13.2415C18.246 12.9408 18.0021 12.6973 17.7016 12.6973H15.8006C15.4997 12.6973 15.2559 12.9408 15.2559 13.2415V15.1422C15.2559 15.4432 15.4997 15.6869 15.8006 15.6869H17.7016C18.0021 15.6869 18.246 15.4432 18.246 15.1422V13.2415Z" fill="#37B4A4"/>
<path d="M8.74407 17.9918C8.74407 17.6906 8.50021 17.4473 8.19932 17.4473H6.29836C5.99781 17.4473 5.75391 17.6906 5.75391 17.9918V19.8921C5.75391 20.193 5.99781 20.4366 6.29836 20.4366H8.19932C8.50021 20.4366 8.74407 20.1929 8.74407 19.8921V17.9918Z" fill="#37B4A4"/>
<path d="M13.4938 17.9918C13.4938 17.6906 13.2499 17.4473 12.9496 17.4473H11.0484C10.7478 17.4473 10.5039 17.6906 10.5039 17.9918V19.8921C10.5039 20.193 10.7478 20.4366 11.0484 20.4366H12.9496C13.2499 20.4366 13.4938 20.1929 13.4938 19.8921V17.9918Z" fill="#37B4A4"/>
<path d="M18.246 17.9918C18.246 17.6906 18.0021 17.4473 17.7018 17.4473H15.8006C15.4997 17.4473 15.2559 17.6906 15.2559 17.9918V19.8921C15.2559 20.193 15.4997 20.4366 15.8006 20.4366H17.7018C18.0021 20.4366 18.246 20.1929 18.246 19.8921V17.9918Z" fill="#37B4A4"/>
<path d="M21.6447 2.67253V5.57573C21.6447 6.88794 20.5802 7.94538 19.2681 7.94538H17.769C16.4568 7.94538 15.3782 6.88794 15.3782 5.57573V2.66211H8.62097V5.57573C8.62097 6.88794 7.54239 7.94538 6.23047 7.94538H4.73099C3.41902 7.94538 2.35455 6.88794 2.35455 5.57573V2.67253C1.20787 2.7071 0.265625 3.65593 0.265625 4.82217V21.8363C0.265625 23.0244 1.22867 24.0003 2.41684 24.0003H21.5823C22.7687 24.0003 23.7336 23.0224 23.7336 21.8363V4.82217C23.7336 3.65593 22.7914 2.7071 21.6447 2.67253ZM20.9484 20.7768C20.9484 21.2902 20.532 21.7068 20.0184 21.7068H3.93987C3.4262 21.7068 3.00987 21.2902 3.00987 20.7768V11.9884C3.00987 11.4747 3.42615 11.0581 3.93987 11.0581H20.0183C20.532 11.0581 20.9483 11.4747 20.9483 11.9884L20.9484 20.7768Z" fill="#37B4A4"/>
<path d="M4.72521 6.38875H6.20813C6.65823 6.38875 7.02319 6.02434 7.02319 5.57423V0.814812C7.02319 0.364657 6.65823 0 6.20813 0H4.72521C4.27506 0 3.91016 0.364657 3.91016 0.814812V5.57423C3.91016 6.02434 4.27506 6.38875 4.72521 6.38875Z" fill="#37B4A4"/>
<path d="M17.7506 6.38875H19.2335C19.6833 6.38875 20.0482 6.02434 20.0482 5.57423V0.814812C20.0483 0.364657 19.6833 0 19.2335 0H17.7506C17.3005 0 16.9355 0.364657 16.9355 0.814812V5.57423C16.9355 6.02434 17.3005 6.38875 17.7506 6.38875Z" fill="#37B4A4"/>
</g>
<defs>
<clipPath id="clip0_3060_42033">
<rect width="24" height="24" fill="white"/>
</clipPath>
</defs>
</svg>
