<svg width="14" height="13" viewBox="0 0 14 13" fill="none" xmlns="http://www.w3.org/2000/svg">
<path d="M7.03233 3.06982C6.82463 3.06982 6.65625 3.2382 6.65625 3.4459V7.34771H9.00674C9.21444 7.34771 9.38282 7.17934 9.38282 6.97163C9.38282 6.76393 9.21444 6.59556 9.00674 6.59556H7.40841V3.4459C7.40841 3.2382 7.24003 3.06982 7.03233 3.06982Z" fill="#F78812"/>
<path d="M14.0008 6.50009C14.0008 2.9155 11.0805 0 7.49594 0C4.28076 0 1.60473 2.36469 1.08706 5.42032H0.911233C0.525836 5.42032 0.285336 5.83795 0.47878 6.17129L1.4173 7.7885C1.6086 8.11813 2.08357 8.12112 2.27901 7.79394L3.24502 6.17673C3.4441 5.84345 3.20398 5.42032 2.81577 5.42032H2.61755C3.11144 3.16385 5.11358 1.50431 7.49942 1.50431C10.2544 1.50431 12.4965 3.74541 12.4965 6.50042C12.4965 8.74047 10.989 10.6404 8.97035 11.2725C8.74731 11.3423 8.58441 11.5423 8.58441 11.776V12.318C8.58441 12.6275 8.86352 12.8638 9.16263 12.7842C11.9328 12.0469 14.0008 9.50923 14.0008 6.50009Z" fill="#F78812"/>
<path d="M1.14648 12.2299L1.62481 11.7214C1.93559 11.3832 2.14882 11.13 2.26456 10.9585C2.3803 10.7869 2.43817 10.5904 2.43817 10.367C2.43817 10.0352 2.32929 9.77431 2.11159 9.58321C1.89389 9.3923 1.59082 9.29688 1.20233 9.29688C0.836453 9.29688 0.542689 9.41083 0.320944 9.63817C0.0991519 9.8656 -0.00770128 10.1494 0.000431407 10.4763L0.00532042 10.4975H0.806555C0.806555 10.3094 0.841765 10.196 0.912186 10.0916C0.982606 9.98707 1.07931 9.93169 1.20238 9.93169C1.33993 9.93169 1.44311 9.97053 1.51189 10.0515C1.58071 10.1324 1.61508 10.24 1.61508 10.3761C1.61508 10.4716 1.58109 10.5836 1.51311 10.7131C1.44514 10.8427 1.34712 10.9897 1.20318 11.1549L0.0748478 12.3493V12.895H2.51936V12.2369H1.15377L1.14648 12.2299Z" fill="#F78812"/>
<path d="M4.77483 9.36924H3.97567V9.35547L2.54883 11.6392L2.5885 12.1428H3.97567V12.895H4.77483V12.1428H5.15091V11.5317H4.77483V9.36924ZM3.97567 11.5317H3.27325L3.88029 10.5217L3.95226 10.4155L3.97567 10.4141V11.5317Z" fill="#F78812"/>
<path d="M7.83096 12.8945V11.3727C7.83096 11.2596 7.83378 11.1558 7.82127 11.0596C7.78959 10.817 7.72382 10.627 7.61264 10.4913C7.45718 10.3019 7.24601 10.2073 6.97406 10.2073C6.83647 10.2073 6.72077 10.24 6.60663 10.3056C6.49249 10.3712 6.37365 10.4631 6.32664 10.5812V9.32178H5.48047V12.8945H6.32664V10.9721C6.32664 10.93 6.4051 10.8972 6.46344 10.8737C6.52164 10.8503 6.586 10.8385 6.6653 10.8385C6.78997 10.8385 6.88136 10.8766 6.94205 10.9526C7.00279 11.0287 7.03179 11.1671 7.03179 11.3679V12.8945H7.31761H7.83096Z" fill="#F78812"/>
</svg>
