<svg width="14" height="14" viewBox="0 0 14 14" fill="none" xmlns="http://www.w3.org/2000/svg">
<path d="M5.30113 11.4504C2.93506 10.9432 1.2174 8.81563 1.2174 6.3913C1.2174 3.53835 3.53835 1.2174 6.3913 1.2174C8.81569 1.2174 10.9432 2.93506 11.4501 5.30127C11.4839 5.45916 11.5791 5.59715 11.7147 5.68489C11.8502 5.77263 12.0151 5.80292 12.173 5.7691C12.3308 5.73529 12.4688 5.64014 12.5566 5.50458C12.6443 5.36902 12.6746 5.20416 12.6408 5.04627C12.0141 2.12228 9.38574 0 6.3913 0C2.86724 0 0 2.8671 0 6.3913C0 9.38574 2.12211 12.014 5.04613 12.6407C5.12429 12.6574 5.20498 12.6586 5.28359 12.6442C5.36221 12.6297 5.43721 12.5999 5.50432 12.5565C5.57142 12.5131 5.62932 12.4569 5.67469 12.3911C5.72007 12.3253 5.75205 12.2512 5.76879 12.173C5.78553 12.0949 5.78672 12.0142 5.77228 11.9356C5.75784 11.8569 5.72805 11.7819 5.68463 11.7148C5.6412 11.6477 5.58498 11.5898 5.51918 11.5445C5.45338 11.4991 5.37928 11.4671 5.30113 11.4504Z" fill="#FDCA64"/>
<path d="M5.7822 2.73931V5.7828H3.95611C3.79539 5.7839 3.64164 5.84851 3.52838 5.96255C3.41512 6.07658 3.35156 6.23078 3.35156 6.3915C3.35156 6.55222 3.41512 6.70641 3.52838 6.82045C3.64164 6.93448 3.79539 6.9991 3.95611 7.0002H6.39088C6.55232 7.00019 6.70714 6.93606 6.8213 6.8219C6.93545 6.70775 6.99959 6.55292 6.99959 6.39148V2.73931C6.99849 2.5786 6.93388 2.42484 6.81984 2.31158C6.70581 2.19833 6.55161 2.13477 6.39089 2.13477C6.23018 2.13477 6.07598 2.19833 5.96195 2.31158C5.84791 2.42484 5.7833 2.5786 5.7822 2.73931Z" fill="#FDCA64"/>
<path d="M10.0444 6.08594C7.86285 6.08594 6.08789 7.86066 6.08789 10.0424C6.08789 12.2242 7.86285 13.999 10.0444 13.999C12.2259 13.999 14.0009 12.2242 14.0009 10.0424C14.0009 7.86064 12.226 6.08594 10.0444 6.08594ZM10.0444 12.7816C9.50264 12.7816 8.97306 12.6209 8.52261 12.3199C8.07216 12.019 7.72108 11.5912 7.51377 11.0907C7.30645 10.5901 7.2522 10.0394 7.35789 9.50806C7.46358 8.97672 7.72446 8.48865 8.10753 8.10558C8.49061 7.72251 8.97867 7.46163 9.51001 7.35594C10.0414 7.25025 10.5921 7.30449 11.0926 7.51181C11.5931 7.71913 12.0209 8.07021 12.3219 8.52066C12.6229 8.97111 12.7835 9.50069 12.7835 10.0424C12.7827 10.7686 12.4939 11.4649 11.9803 11.9784C11.4668 12.4919 10.7706 12.7807 10.0444 12.7816Z" fill="#FDCA64"/>
<path d="M10.0442 7.91406C9.88282 7.91407 9.728 7.9782 9.61385 8.09235C9.4997 8.2065 9.43557 8.36132 9.43556 8.52275V10.0445C9.43501 10.1248 9.45035 10.2044 9.48069 10.2787C9.51104 10.353 9.55579 10.4206 9.61236 10.4776C9.66894 10.5346 9.73623 10.5798 9.81035 10.6106C9.88448 10.6415 9.96397 10.6574 10.0443 10.6574C10.1245 10.6574 10.204 10.6415 10.2782 10.6106C10.3523 10.5798 10.4196 10.5346 10.4762 10.4776C10.5327 10.4206 10.5775 10.353 10.6078 10.2787C10.6382 10.2044 10.6535 10.1248 10.653 10.0445V8.52275C10.653 8.36131 10.5888 8.20649 10.4747 8.09234C10.3605 7.97819 10.2057 7.91406 10.0442 7.91406Z" fill="#FDCA64"/>
<path d="M10.0442 12.1744C10.3804 12.1744 10.6529 11.9019 10.6529 11.5657C10.6529 11.2295 10.3804 10.957 10.0442 10.957C9.70806 10.957 9.43555 11.2295 9.43555 11.5657C9.43555 11.9019 9.70806 12.1744 10.0442 12.1744Z" fill="#FDCA64"/>
</svg>
