<svg width="14" height="14" viewBox="0 0 14 14" fill="none" xmlns="http://www.w3.org/2000/svg">
<g clip-path="url(#clip0_8_29636)">
<path d="M7.00039 0C6.46855 0 5.95504 0.110195 5.47406 0.327305C4.6852 0.68332 4.0418 1.30785 3.66227 2.08578C3.41316 2.59492 3.28711 3.14262 3.28711 3.71328C3.28711 4.74852 3.72406 5.74438 4.48586 6.44547C5.17273 7.0782 6.06578 7.42684 7.00039 7.42684C7.935 7.42684 8.82805 7.0782 9.51492 6.44547C10.2767 5.74438 10.7137 4.74852 10.7137 3.71328C10.7137 1.66578 9.04789 0 7.00039 0ZM7.41055 3.85492C7.41055 3.96375 7.36734 4.0682 7.29051 4.14504L6.34414 5.09113C6.26402 5.17125 6.1593 5.21145 6.0543 5.21145C5.9493 5.21145 5.8443 5.17125 5.76418 5.09113C5.60395 4.9309 5.60395 4.67141 5.76418 4.51117L6.59023 3.68512V1.99609C6.59023 1.76969 6.77398 1.58594 7.00039 1.58594C7.2268 1.58594 7.41055 1.76969 7.41055 1.99609V3.85492Z" fill="#1890FF"/>
<path d="M14 11.4023V12.1661C14 13.1772 13.1772 14 12.1661 14H1.83395C0.822773 14 0 13.1772 0 12.1661V11.4023C0 11.1759 0.18375 10.9922 0.410156 10.9922H4.78516C5.01156 10.9922 5.19531 11.1759 5.19531 11.4023V11.4507C5.19531 11.6504 5.35746 11.8125 5.55707 11.8125H8.44293C8.64254 11.8125 8.80469 11.6504 8.80469 11.4507V11.4023C8.80469 11.1759 8.98844 10.9922 9.21484 10.9922H13.5898C13.8162 10.9922 14 11.1759 14 11.4023Z" fill="#1890FF"/>
<path d="M12.8802 4.49219V10.172H9.21453C8.67969 10.172 8.22359 10.5149 8.05434 10.9923H5.94504C5.77578 10.5149 5.31969 10.172 4.78484 10.172H1.11914V4.49219C1.11914 4.26578 1.30289 4.08203 1.5293 4.08203H2.48141C2.5741 5.21133 3.09035 6.27691 3.92953 7.0491C4.76816 7.82184 5.85863 8.2473 6.99969 8.2473C8.14074 8.2473 9.23121 7.82184 10.0701 7.04883C10.909 6.27691 11.4253 5.21133 11.518 4.08203H12.4701C12.6965 4.08203 12.8802 4.26578 12.8802 4.49219Z" fill="#1890FF"/>
</g>
<defs>
<clipPath id="clip0_8_29636">
<rect width="14" height="14" fill="white"/>
</clipPath>
</defs>
</svg>
