<svg width="16" height="16" viewBox="0 0 16 16" fill="none" xmlns="http://www.w3.org/2000/svg">
<path d="M8 16C12.4183 16 16 12.4183 16 8C16 3.58172 12.4183 0 8 0C3.58172 0 0 3.58172 0 8C0 12.4183 3.58172 16 8 16Z" fill="#F0F0F0"/>
<path d="M2.34314 13.6575C-0.781047 10.5333 -0.781047 5.46797 2.34314 2.34375C2.34292 2.34409 6.95655 8.00062 6.95655 8.00062L2.34314 13.6575Z" fill="black"/>
<path d="M6.95609 7.99959L1.06059 4.01562C0.877812 4.33334 0.716625 4.66497 0.578125 5.00822L3.56278 7.99963L0.578219 10.9912C0.716594 11.3342 0.877625 11.6656 1.06028 11.9831L6.95609 7.99959Z" fill="#FFDA44"/>
<path d="M15.9341 6.95703H6.95809L2.34484 2.34375C1.84772 2.84088 1.41581 3.40309 1.06281 4.01656L5.03903 8.0005L1.0625 11.9839C1.4155 12.5976 1.84759 13.16 2.34484 13.6572L6.95809 9.04397H15.9341C15.9785 8.70241 16.0018 8.35416 16.0018 8.0005C16.0018 7.64684 15.9785 7.29859 15.9341 6.95703Z" fill="#6DA544"/>
<path d="M3.13281 14.3451C4.48184 15.3821 6.1705 15.999 8.0035 15.999C11.6997 15.999 14.8099 13.4921 15.7279 10.0859H7.39203L3.13281 14.3451Z" fill="#0052B4"/>
<path d="M15.7279 5.91303C14.8099 2.50691 11.6997 0 8.0035 0C6.1705 0 4.48184 0.616906 3.13281 1.65384L7.392 5.91303H15.7279Z" fill="#D80027"/>
</svg>
