<svg width="395" height="38" viewBox="0 0 395 38" fill="none" xmlns="http://www.w3.org/2000/svg">
<rect width="395" height="38" rx="5" fill="white"/>
<rect width="395" height="36" rx="2" fill="white"/>
<path d="M18 27C22.4183 27 26 23.4183 26 19C26 14.5817 22.4183 11 18 11C13.5817 11 10 14.5817 10 19C10 23.4183 13.5817 27 18 27Z" fill="#F0F0F0"/>
<path d="M10 19C10 14.5817 13.5817 11 18 11C22.4183 11 26 14.5817 26 19" fill="#A2001D"/>
<path d="M38.352 14.242V24H37.078V14.242H38.352ZM44.2613 16.188C45.1946 16.188 45.9506 16.4727 46.5293 17.042C47.108 17.602 47.3973 18.414 47.3973 19.478V24H46.1373V19.66C46.1373 18.8947 45.946 18.3113 45.5633 17.91C45.1806 17.4993 44.658 17.294 43.9953 17.294C43.3233 17.294 42.7866 17.504 42.3853 17.924C41.9933 18.344 41.7973 18.9553 41.7973 19.758V24H40.5233V16.328H41.7973V17.42C42.0493 17.028 42.39 16.7247 42.8193 16.51C43.258 16.2953 43.7386 16.188 44.2613 16.188ZM49.0024 20.136C49.0024 19.352 49.1611 18.666 49.4784 18.078C49.7957 17.4807 50.2297 17.0187 50.7804 16.692C51.3404 16.3653 51.9657 16.202 52.6564 16.202C53.2537 16.202 53.8091 16.342 54.3224 16.622C54.8357 16.8927 55.2277 17.252 55.4984 17.7V13.64H56.7864V24H55.4984V22.558C55.2464 23.0153 54.8731 23.3933 54.3784 23.692C53.8837 23.9813 53.3051 24.126 52.6424 24.126C51.9611 24.126 51.3404 23.958 50.7804 23.622C50.2297 23.286 49.7957 22.8147 49.4784 22.208C49.1611 21.6013 49.0024 20.9107 49.0024 20.136ZM55.4984 20.15C55.4984 19.5713 55.3817 19.0673 55.1484 18.638C54.9151 18.2087 54.5977 17.882 54.1964 17.658C53.8044 17.4247 53.3704 17.308 52.8944 17.308C52.4184 17.308 51.9844 17.42 51.5924 17.644C51.2004 17.868 50.8877 18.1947 50.6544 18.624C50.4211 19.0533 50.3044 19.5573 50.3044 20.136C50.3044 20.724 50.4211 21.2373 50.6544 21.676C50.8877 22.1053 51.2004 22.4367 51.5924 22.67C51.9844 22.894 52.4184 23.006 52.8944 23.006C53.3704 23.006 53.8044 22.894 54.1964 22.67C54.5977 22.4367 54.9151 22.1053 55.1484 21.676C55.3817 21.2373 55.4984 20.7287 55.4984 20.15ZM62.2853 24.126C61.5667 24.126 60.9133 23.9627 60.3253 23.636C59.7467 23.3093 59.2893 22.8473 58.9533 22.25C58.6267 21.6433 58.4633 20.9433 58.4633 20.15C58.4633 19.366 58.6313 18.6753 58.9673 18.078C59.3127 17.4713 59.7793 17.0093 60.3673 16.692C60.9553 16.3653 61.6133 16.202 62.3413 16.202C63.0693 16.202 63.7273 16.3653 64.3153 16.692C64.9033 17.0093 65.3653 17.4667 65.7013 18.064C66.0467 18.6613 66.2193 19.3567 66.2193 20.15C66.2193 20.9433 66.042 21.6433 65.6873 22.25C65.342 22.8473 64.8707 23.3093 64.2733 23.636C63.676 23.9627 63.0133 24.126 62.2853 24.126ZM62.2853 23.006C62.7427 23.006 63.172 22.8987 63.5733 22.684C63.9747 22.4693 64.2967 22.1473 64.5393 21.718C64.7913 21.2887 64.9173 20.766 64.9173 20.15C64.9173 19.534 64.796 19.0113 64.5533 18.582C64.3107 18.1527 63.9933 17.8353 63.6013 17.63C63.2093 17.4153 62.7847 17.308 62.3273 17.308C61.8607 17.308 61.4313 17.4153 61.0393 17.63C60.6567 17.8353 60.3487 18.1527 60.1153 18.582C59.882 19.0113 59.7653 19.534 59.7653 20.15C59.7653 20.7753 59.8773 21.3027 60.1013 21.732C60.3347 22.1613 60.6427 22.4833 61.0253 22.698C61.408 22.9033 61.828 23.006 62.2853 23.006ZM71.6324 16.188C72.5657 16.188 73.3217 16.4727 73.9004 17.042C74.4791 17.602 74.7684 18.414 74.7684 19.478V24H73.5084V19.66C73.5084 18.8947 73.3171 18.3113 72.9344 17.91C72.5517 17.4993 72.0291 17.294 71.3664 17.294C70.6944 17.294 70.1577 17.504 69.7564 17.924C69.3644 18.344 69.1684 18.9553 69.1684 19.758V24H67.8944V16.328H69.1684V17.42C69.4204 17.028 69.7611 16.7247 70.1904 16.51C70.6291 16.2953 71.1097 16.188 71.6324 16.188ZM83.8495 19.87C83.8495 20.1127 83.8355 20.3693 83.8075 20.64H77.6755C77.7222 21.396 77.9788 21.9887 78.4455 22.418C78.9215 22.838 79.4955 23.048 80.1675 23.048C80.7182 23.048 81.1755 22.922 81.5395 22.67C81.9128 22.4087 82.1742 22.0633 82.3235 21.634H83.6955C83.4902 22.3713 83.0795 22.9733 82.4635 23.44C81.8475 23.8973 81.0822 24.126 80.1675 24.126C79.4395 24.126 78.7862 23.9627 78.2075 23.636C77.6382 23.3093 77.1902 22.8473 76.8635 22.25C76.5368 21.6433 76.3735 20.9433 76.3735 20.15C76.3735 19.3567 76.5322 18.6613 76.8495 18.064C77.1668 17.4667 77.6102 17.0093 78.1795 16.692C78.7582 16.3653 79.4208 16.202 80.1675 16.202C80.8955 16.202 81.5395 16.3607 82.0995 16.678C82.6595 16.9953 83.0888 17.434 83.3875 17.994C83.6955 18.5447 83.8495 19.17 83.8495 19.87ZM82.5335 19.604C82.5335 19.1187 82.4262 18.7033 82.2115 18.358C81.9968 18.0033 81.7028 17.7373 81.3295 17.56C80.9655 17.3733 80.5595 17.28 80.1115 17.28C79.4675 17.28 78.9168 17.4853 78.4595 17.896C78.0115 18.3067 77.7548 18.876 77.6895 19.604H82.5335ZM88.2471 24.126C87.6591 24.126 87.1318 24.028 86.6651 23.832C86.1985 23.6267 85.8298 23.3467 85.5591 22.992C85.2885 22.628 85.1391 22.2127 85.1111 21.746H86.4271C86.4645 22.1287 86.6418 22.4413 86.9591 22.684C87.2858 22.9267 87.7105 23.048 88.2331 23.048C88.7185 23.048 89.1011 22.9407 89.3811 22.726C89.6611 22.5113 89.8011 22.2407 89.8011 21.914C89.8011 21.578 89.6518 21.3307 89.3531 21.172C89.0545 21.004 88.5925 20.8407 87.9671 20.682C87.3978 20.5327 86.9311 20.3833 86.5671 20.234C86.2125 20.0753 85.9045 19.8467 85.6431 19.548C85.3911 19.24 85.2651 18.8387 85.2651 18.344C85.2651 17.952 85.3818 17.5927 85.6151 17.266C85.8485 16.9393 86.1798 16.6827 86.6091 16.496C87.0385 16.3 87.5285 16.202 88.0791 16.202C88.9285 16.202 89.6145 16.4167 90.1371 16.846C90.6598 17.2753 90.9398 17.8633 90.9771 18.61H89.7031C89.6751 18.2087 89.5118 17.8867 89.2131 17.644C88.9238 17.4013 88.5318 17.28 88.0371 17.28C87.5798 17.28 87.2158 17.378 86.9451 17.574C86.6745 17.77 86.5391 18.0267 86.5391 18.344C86.5391 18.596 86.6185 18.806 86.7771 18.974C86.9451 19.1327 87.1505 19.2633 87.3931 19.366C87.6451 19.4593 87.9905 19.5667 88.4291 19.688C88.9798 19.8373 89.4278 19.9867 89.7731 20.136C90.1185 20.276 90.4125 20.4907 90.6551 20.78C90.9071 21.0693 91.0378 21.4473 91.0471 21.914C91.0471 22.334 90.9305 22.712 90.6971 23.048C90.4638 23.384 90.1325 23.65 89.7031 23.846C89.2831 24.0327 88.7978 24.126 88.2471 24.126ZM93.5036 15.082C93.2609 15.082 93.0556 14.998 92.8876 14.83C92.7196 14.662 92.6356 14.4567 92.6356 14.214C92.6356 13.9713 92.7196 13.766 92.8876 13.598C93.0556 13.43 93.2609 13.346 93.5036 13.346C93.7369 13.346 93.9329 13.43 94.0916 13.598C94.2596 13.766 94.3436 13.9713 94.3436 14.214C94.3436 14.4567 94.2596 14.662 94.0916 14.83C93.9329 14.998 93.7369 15.082 93.5036 15.082ZM94.1196 16.328V24H92.8456V16.328H94.1196ZM95.8149 20.136C95.8149 19.352 95.9736 18.666 96.2909 18.078C96.6082 17.4807 97.0422 17.0187 97.5929 16.692C98.1529 16.3653 98.7736 16.202 99.4549 16.202C100.127 16.202 100.71 16.3467 101.205 16.636C101.7 16.9253 102.068 17.2893 102.311 17.728V16.328H103.599V24H102.311V22.572C102.059 23.02 101.681 23.3933 101.177 23.692C100.682 23.9813 100.104 24.126 99.4409 24.126C98.7596 24.126 98.1436 23.958 97.5929 23.622C97.0422 23.286 96.6082 22.8147 96.2909 22.208C95.9736 21.6013 95.8149 20.9107 95.8149 20.136ZM102.311 20.15C102.311 19.5713 102.194 19.0673 101.961 18.638C101.728 18.2087 101.41 17.882 101.009 17.658C100.617 17.4247 100.183 17.308 99.7069 17.308C99.2309 17.308 98.7969 17.42 98.4049 17.644C98.0129 17.868 97.7002 18.1947 97.4669 18.624C97.2336 19.0533 97.1169 19.5573 97.1169 20.136C97.1169 20.724 97.2336 21.2373 97.4669 21.676C97.7002 22.1053 98.0129 22.4367 98.4049 22.67C98.7969 22.894 99.2309 23.006 99.7069 23.006C100.183 23.006 100.617 22.894 101.009 22.67C101.41 22.4367 101.728 22.1053 101.961 21.676C102.194 21.2373 102.311 20.7287 102.311 20.15Z" fill="#264653"/>
</svg>
