<svg width="516" height="514" viewBox="0 0 516 514" fill="none" xmlns="http://www.w3.org/2000/svg">
<path d="M182.478 194.331C182.523 196.68 182.108 199.015 181.255 201.205C180.176 203.497 178.365 205.364 176.106 206.512C175.324 206.977 174.357 207.515 173.22 208.114C172.021 208.722 170.876 209.43 169.796 210.23C168.723 211.049 167.79 212.036 167.032 213.153C166.268 214.295 165.871 215.643 165.895 217.017C165.88 217.968 166.076 218.909 166.47 219.774C166.863 220.639 167.444 221.406 168.169 222.019C168.869 222.583 169.676 223 170.542 223.242C171.44 223.523 172.376 223.668 173.318 223.67C174.386 223.684 175.446 223.484 176.436 223.083C177.345 222.71 178.197 222.212 178.968 221.604C179.722 221.009 180.403 220.328 180.998 219.573C181.548 218.89 182.058 218.175 182.527 217.433L189.314 222.105C188.66 223.674 187.751 225.125 186.624 226.398C185.516 227.642 184.226 228.71 182.796 229.565C181.346 230.428 179.781 231.083 178.149 231.51C176.469 231.956 174.738 232.183 173 232.182C171.015 232.179 169.042 231.887 167.142 231.314C165.249 230.76 163.485 229.833 161.957 228.587C160.379 227.276 159.103 225.641 158.214 223.793C157.201 221.608 156.707 219.217 156.771 216.81C156.746 215.317 156.944 213.829 157.358 212.395C157.73 211.156 158.295 209.983 159.034 208.921C159.764 207.876 160.627 206.931 161.602 206.109C162.662 205.213 163.786 204.395 164.965 203.663C166.009 203.027 167.048 202.428 168.084 201.865C169.091 201.315 170.045 200.672 170.933 199.945C171.771 199.258 172.482 198.43 173.037 197.499C173.61 196.486 173.894 195.336 173.856 194.172L182.478 194.331ZM182.319 176.158V186.92H173.66V176.158H182.319Z" fill="#EBEBEB"/>
<path d="M330.776 178.433C330.731 176.084 331.146 173.749 331.999 171.56C333.078 169.268 334.889 167.4 337.148 166.252C337.93 165.787 338.896 165.249 340.034 164.65C341.233 164.043 342.378 163.335 343.458 162.534C344.531 161.715 345.464 160.728 346.222 159.611C346.986 158.469 347.383 157.121 347.359 155.747C347.374 154.797 347.177 153.855 346.784 152.99C346.391 152.125 345.81 151.358 345.085 150.745C344.39 150.159 343.582 149.722 342.712 149.461C341.813 149.18 340.878 149.036 339.936 149.033C338.868 149.02 337.808 149.219 336.817 149.62C335.909 149.993 335.057 150.491 334.286 151.1C333.532 151.694 332.85 152.376 332.256 153.13C331.706 153.814 331.196 154.528 330.727 155.27L323.891 150.61C324.545 149.041 325.454 147.591 326.581 146.318C327.692 145.077 328.982 144.009 330.409 143.15C331.859 142.287 333.424 141.633 335.056 141.206C336.736 140.759 338.467 140.533 340.205 140.533C342.189 140.536 344.163 140.829 346.063 141.402C347.956 141.955 349.719 142.882 351.248 144.129C352.825 145.44 354.102 147.075 354.991 148.923C356.004 151.108 356.498 153.498 356.434 155.906C356.459 157.399 356.261 158.887 355.847 160.321C355.475 161.56 354.91 162.732 354.171 163.794C353.441 164.839 352.578 165.785 351.603 166.607C350.543 167.503 349.419 168.32 348.24 169.053C347.196 169.689 346.157 170.288 345.121 170.851C344.114 171.4 343.16 172.043 342.272 172.771C341.434 173.458 340.723 174.286 340.168 175.217C339.595 176.229 339.311 177.38 339.349 178.543L330.776 178.433ZM330.935 196.606V185.844H339.593V196.606H330.935Z" fill="#EBEBEB"/>
<path d="M263.564 60.6362C263.592 62.3687 263.276 64.0896 262.634 65.6993C261.841 67.3893 260.507 68.7664 258.843 69.6128C258.272 69.9552 257.563 70.3629 256.715 70.8357C255.857 71.2927 255.039 71.8204 254.269 72.4134C253.47 72.9824 252.771 73.6809 252.202 74.4802C251.632 75.3195 251.338 76.3153 251.359 77.3297C251.347 78.0654 251.506 78.7937 251.823 79.4577C252.121 80.0532 252.537 80.5817 253.046 81.0108C253.562 81.4355 254.156 81.7554 254.795 81.9525C255.456 82.1603 256.145 82.2675 256.837 82.2705C257.628 82.2786 258.413 82.1333 259.149 81.8424C259.815 81.561 260.441 81.1908 261.008 80.7418C261.565 80.3045 262.07 79.8038 262.512 79.2498C262.913 78.7459 263.285 78.2191 263.625 77.6721L268.639 81.1209C268.156 82.2803 267.482 83.3508 266.646 84.2884C265.83 85.1992 264.881 85.9825 263.833 86.612C262.765 87.2511 261.612 87.7369 260.409 88.0551C259.171 88.3786 257.897 88.543 256.617 88.5443C255.155 88.5404 253.701 88.3262 252.3 87.9084C250.903 87.4956 249.602 86.8098 248.472 85.8905C247.305 84.927 246.362 83.7209 245.708 82.3561C244.963 80.7445 244.598 78.9826 244.645 77.2074C244.63 76.1081 244.774 75.0124 245.073 73.9543C245.346 73.0443 245.758 72.182 246.296 71.3983C246.828 70.6246 247.466 69.929 248.191 69.3315C248.96 68.6756 249.778 68.0787 250.637 67.546C251.408 67.0812 252.178 66.641 252.936 66.2252C253.68 65.8181 254.384 65.3432 255.04 64.8065C255.665 64.3271 256.202 63.7438 256.63 63.0821C257.049 62.3368 257.256 61.4909 257.229 60.6362H263.564ZM263.441 47.1836V55.1206H257.058V47.2325L263.441 47.1836Z" fill="#EBEBEB"/>
<path d="M459.139 370.841L476.261 370.499L484.687 370.364C487.488 370.303 490.276 370.364 493.077 370.291L492.526 370.841L492.465 356.508L493.077 357.119L476.09 356.985C470.44 356.985 464.789 356.85 459.139 356.789L459.469 356.459C459.469 358.807 459.359 361.167 459.311 363.552L459.139 370.841ZM459.139 370.841L458.956 363.748C458.956 361.302 458.821 358.942 458.797 356.508V356.178H459.139C464.789 356.104 470.44 355.982 476.09 355.97L493.052 355.896H493.664V356.508L493.59 370.841V371.391H493.052C490.19 371.391 487.329 371.391 484.491 371.391L475.931 371.257L459.139 370.841Z" fill="#EBEBEB"/>
<path d="M478.053 388.905L495.175 388.574L503.601 388.428C506.402 388.428 509.19 388.428 511.991 388.428L511.44 388.966V374.645L512.052 375.244L495.089 375.171C489.439 375.171 483.789 375.036 478.139 374.975L478.469 374.645C478.469 376.981 478.359 379.341 478.31 381.738L478.053 388.905ZM478.053 388.905L477.87 381.811C477.87 379.427 477.735 377.005 477.711 374.584V374.253H478.053C483.703 374.192 489.354 374.058 495.004 374.058L511.966 373.984H512.578V374.608L512.517 388.929V389.479H511.978C509.117 389.479 506.255 389.479 503.418 389.406L494.857 389.271L478.053 388.905Z" fill="#EBEBEB"/>
<path d="M92.3581 199.663L109.48 199.321L117.906 199.186C120.706 199.186 123.495 199.186 126.295 199.125L125.745 199.663L125.684 185.33L126.295 185.942L109.333 185.868C103.683 185.868 98.0326 185.734 92.3825 185.673L92.7127 185.33C92.7127 187.678 92.6026 190.039 92.5537 192.423L92.3581 199.663ZM92.3581 199.663L92.1868 192.57C92.1257 190.185 92.0401 187.764 92.0156 185.33V185H92.3581C98.0082 184.939 103.658 184.804 109.308 184.804L126.271 184.719H126.882V185.33V199.663V200.214H126.344C123.483 200.214 120.621 200.214 117.784 200.14L109.223 200.006L92.3581 199.663Z" fill="#EBEBEB"/>
<path d="M111.58 217.738L128.702 217.395L137.128 217.261C139.929 217.2 142.717 217.261 145.517 217.187L144.967 217.738L144.906 203.404L145.517 204.016L128.555 203.943C122.905 203.943 117.255 203.808 111.592 203.735L111.935 203.404C111.935 205.753 111.825 208.113 111.776 210.498L111.58 217.738ZM111.58 217.738L111.409 210.644C111.409 208.198 111.274 205.838 111.25 203.404V203.074H111.58C117.243 203.013 122.893 202.879 128.543 202.866L145.505 202.793H146.117V203.404L146.043 217.738V218.288H145.505C142.644 218.288 139.782 218.288 136.944 218.215L128.384 218.08L111.58 217.738Z" fill="#EBEBEB"/>
<path d="M1.28333 388.905L18.4048 388.574L26.8311 388.428C29.6439 388.428 32.4323 388.428 35.2206 388.428L34.6825 388.966L34.6091 374.645L35.2206 375.244L18.2703 375.171C12.608 375.171 6.95789 375.036 1.30779 374.975L1.63799 374.645C1.63799 376.981 1.54015 379.341 1.479 381.738L1.28333 388.905ZM1.28333 388.905L1.11211 381.811C1.11211 379.427 0.977584 377.005 0.953125 374.584V374.253H1.28333C6.93343 374.192 12.5835 374.058 18.2459 374.058L35.1962 373.984H35.8199V374.608V388.929V389.479H35.2695C32.42 389.479 29.5583 389.479 26.7088 389.406L18.148 389.271L1.28333 388.905Z" fill="#EBEBEB"/>
<path d="M20.2052 49.8372L37.3267 49.4948L45.753 49.3603C48.5658 49.3603 51.3541 49.3603 54.1425 49.3603L53.6044 49.8984L53.531 35.5652L54.1425 36.1767L37.1922 36.1033C31.5421 36.1033 25.8798 35.9688 20.2297 35.8954L20.5599 35.5652C20.5599 37.9133 20.462 40.2736 20.4009 42.6584L20.2052 49.8372ZM20.2052 49.8372L20.034 42.744C20.034 40.2981 19.8995 37.9378 19.875 35.5041V35.1739H20.2052C25.8553 35.1739 31.5176 34.9782 37.1677 34.9782L54.118 34.8926H54.7417V35.5041V49.8372V50.3876H54.1914C51.3419 50.3876 48.4802 50.3875 45.6307 50.3142L37.0699 50.1796L20.2052 49.8372Z" fill="#EBEBEB"/>
<path d="M1.28333 67.9134L18.4048 67.571L26.8311 67.4364C29.6439 67.4364 32.4323 67.4364 35.2206 67.3631L34.6825 67.9134L34.6091 53.5802L35.2206 54.1917L18.2703 54.1183C12.608 54.1183 6.95789 53.9716 1.30779 53.9104L1.63799 53.5802C1.63799 55.9283 1.54015 58.2886 1.479 60.6734L1.28333 67.9134ZM1.28333 67.9134L1.11211 60.8202C1.11211 58.3743 0.977584 56.0139 0.953125 53.5802V53.25H1.28333C6.93343 53.1766 12.5835 53.0544 18.2459 53.0421L35.1962 52.9688H35.8199V53.5802V67.9134V68.4637H35.2695C32.42 68.4637 29.5583 68.4637 26.7088 68.4637L18.148 68.3292L1.28333 67.9134Z" fill="#EBEBEB"/>
<path d="M478.053 49.8372L495.175 49.4948L503.601 49.3603C506.402 49.3603 509.19 49.3603 511.991 49.3603L511.44 49.8984V35.5652L512.052 36.1767L495.089 36.1033C489.439 36.1033 483.789 35.9688 478.139 35.8954L478.469 35.5652C478.469 37.9133 478.359 40.2736 478.31 42.6584L478.053 49.8372ZM478.053 49.8372L477.87 42.744C477.87 40.2981 477.735 37.9378 477.711 35.5041V35.1739H478.053C483.703 35.1739 489.354 34.9782 495.004 34.9782L511.966 34.8926H512.578V35.5041L512.517 49.8372V50.3876H511.978C509.117 50.3876 506.255 50.3875 503.418 50.3142L494.857 50.1796L478.053 49.8372Z" fill="#EBEBEB"/>
<path d="M130.822 199.663L147.944 199.321L156.346 199.223C159.146 199.223 161.935 199.223 164.735 199.162L164.185 199.7V185.367L164.796 185.978L147.785 185.868C142.135 185.868 136.472 185.734 130.822 185.673L131.165 185.33C131.165 187.678 131.055 190.039 130.994 192.423L130.822 199.663ZM130.822 199.663L130.651 192.57C130.651 190.185 130.517 187.764 130.492 185.33V185H130.822C136.472 184.939 142.135 184.804 147.785 184.804L164.747 184.719H165.359V185.33L165.298 199.663V200.214H164.76C161.898 200.214 159.036 200.214 156.199 200.14L147.638 200.006L130.822 199.663Z" fill="#EBEBEB"/>
<path d="M115.216 476.346H17.7578V497.307H115.216V476.346Z" fill="#C7C7C7"/>
<path d="M53.679 476.346H44.5312V497.307H53.679V476.346Z" fill="#DBDBDB"/>
<path d="M37.5595 476.346H34.1719V497.307H37.5595V476.346Z" fill="#DBDBDB"/>
<path d="M104.304 476.346H95.1562V497.307H104.304V476.346Z" fill="#DBDBDB"/>
<path d="M125.221 461.695H13.9062V476.346H125.221V461.695Z" fill="#DBDBDB"/>
<path d="M60.3684 464.691H23.0312V473.485H60.3684V464.691Z" fill="#EBEBEB"/>
<path d="M104.636 442.273H16.6562V461.706H104.636V442.273Z" fill="#A6A6A6"/>
<path d="M96.8106 442.273H89.9375V461.706H96.8106V442.273Z" fill="#C7C7C7"/>
<path d="M85.4239 442.273H82.7578V461.706H85.4239V442.273Z" fill="#C7C7C7"/>
<path d="M172.627 483.007L115.172 417.676L98.9722 431.923L156.428 497.254L172.627 483.007Z" fill="#A6A6A6"/>
<path d="M166.519 476.069L161.164 469.98L144.964 484.227L150.319 490.316L166.519 476.069Z" fill="#C7C7C7"/>
<path d="M132.37 437.237L127.016 431.148L110.816 445.395L116.171 451.484L132.37 437.237Z" fill="#C7C7C7"/>
<path d="M138.083 443.735L136.008 441.375L119.808 455.622L121.884 457.982L138.083 443.735Z" fill="#C7C7C7"/>
<path d="M444.266 444.671C444.266 444.671 455.676 403.702 464.799 389.785C473.923 375.867 490.91 360.58 490.91 360.58C490.91 360.58 490.506 423.758 444.266 444.671Z" fill="#E76F51"/>
<path d="M445.087 443.974C448.924 437.558 452.399 430.931 455.494 424.125C456.796 416.801 458.69 409.595 461.156 402.577C461.156 402.442 461.389 402.577 461.364 402.65C459.848 409.12 458.087 415.54 456.472 421.985C461.083 412.018 465.461 401.916 470.94 392.487C472.212 387.934 473.989 383.537 476.236 379.377C476.297 379.267 476.492 379.377 476.443 379.45C475.057 382.637 473.864 385.904 472.872 389.234C475.461 385.03 478.364 381.028 481.555 377.261C481.751 377.029 482.155 377.261 481.959 377.53C474.621 386.898 469.546 397.55 464.727 408.349C469.911 402.721 474.696 396.738 479.048 390.445C479.048 390.372 479.195 390.445 479.146 390.506C474.616 397.564 469.485 404.217 463.81 410.392C460.3 418.292 456.839 426.29 452.657 433.75C461.022 426.681 467.467 417.521 473.839 408.692C473.853 408.672 473.871 408.654 473.892 408.641C473.913 408.628 473.937 408.62 473.961 408.616C473.986 408.612 474.011 408.613 474.035 408.618C474.059 408.624 474.081 408.634 474.101 408.649C474.122 408.663 474.139 408.682 474.152 408.703C474.165 408.724 474.173 408.747 474.177 408.771C474.181 408.796 474.18 408.821 474.175 408.845C474.169 408.869 474.159 408.892 474.144 408.912C467.773 418.598 461.181 427.721 452.009 434.9C450.148 438.201 448.106 441.398 445.894 444.476C445.816 444.552 445.714 444.6 445.605 444.612C445.496 444.624 445.387 444.599 445.294 444.541C445.201 444.484 445.13 444.396 445.092 444.294C445.055 444.191 445.053 444.078 445.087 443.974Z" fill="#264653"/>
<path d="M440.725 448.365C440.725 448.365 461.246 410.588 455.29 373.96C449.334 337.332 442.951 324.283 442.951 324.283C442.951 324.283 410.725 381.249 440.725 448.365Z" fill="#E76F51"/>
<path d="M432.307 388.966C434.038 399.37 436.686 409.602 440.22 419.54C440.281 406.087 440.538 392.635 440.892 379.182C438.587 371.026 437.289 362.619 437.028 354.148C437.028 353.903 437.382 353.916 437.407 354.148C438.056 361.408 439.258 368.607 441.002 375.684C441.312 364.604 441.671 353.52 442.079 342.432C442.079 342.393 442.094 342.356 442.122 342.328C442.149 342.301 442.186 342.285 442.225 342.285C442.264 342.285 442.302 342.301 442.329 342.328C442.357 342.356 442.372 342.393 442.372 342.432C442.372 359.749 442.372 377.079 442.262 394.408C444.755 387.709 446.73 380.827 448.169 373.825C448.169 373.752 448.291 373.825 448.291 373.825C447.68 381.921 445.209 389.724 442.176 397.245C442.091 408.325 441.969 419.393 441.724 430.461C445.197 418.696 448.903 407.286 449.906 394.848C449.906 394.813 449.92 394.778 449.945 394.753C449.97 394.728 450.004 394.714 450.04 394.714C450.076 394.714 450.11 394.728 450.135 394.753C450.16 394.778 450.175 394.813 450.175 394.848C449.893 408.558 446.359 422.487 441.834 435.39C441.792 435.514 441.716 435.624 441.614 435.707C441.504 439.756 441.394 443.804 441.259 447.852C441.259 447.972 441.212 448.087 441.127 448.171C441.042 448.256 440.927 448.304 440.807 448.304C440.687 448.304 440.572 448.256 440.487 448.171C440.402 448.087 440.354 447.972 440.354 447.852C440.199 439.568 440.13 431.288 440.146 423.013C435.682 412.171 432.954 400.694 432.062 389.002C432.111 388.892 432.283 388.868 432.307 388.966Z" fill="#264653"/>
<path d="M433.711 383.133C434.426 386.421 434.905 389.756 435.142 393.113C435.142 393.139 435.132 393.163 435.114 393.182C435.095 393.2 435.07 393.21 435.044 393.21C435.018 393.21 434.994 393.2 434.975 393.182C434.957 393.163 434.947 393.139 434.947 393.113C434.152 389.838 433.588 386.511 433.259 383.158C433.234 382.925 433.662 382.876 433.711 383.133Z" fill="#264653"/>
<path d="M445.713 355.507C445.713 355.397 445.909 355.434 445.909 355.507C445.873 357.837 445.528 360.153 444.881 362.392C444.87 362.43 444.844 362.461 444.81 362.479C444.776 362.498 444.735 362.501 444.698 362.49C444.661 362.479 444.629 362.453 444.611 362.419C444.593 362.384 444.589 362.344 444.6 362.307C445.04 360.069 445.322 357.794 445.713 355.507Z" fill="#264653"/>
<path d="M433.249 451.251C433.249 451.251 434.08 411.823 422.768 392.219C411.456 372.615 392.695 362.623 392.695 362.623C392.695 362.623 400.253 432.149 433.249 451.251Z" fill="#E76F51"/>
<path d="M412.633 417.534C417.182 424.423 422.304 430.915 427.945 436.943C425.686 428.871 423.073 420.942 420.106 413.156C413.771 407.591 407.472 401.831 403.583 394.224C403.522 394.102 403.693 393.992 403.767 394.114C407.949 400.853 413.55 406.246 419.433 411.432C414.9 399.703 409.643 388.266 403.693 377.189C403.659 377.132 403.649 377.064 403.665 377C403.681 376.935 403.722 376.88 403.779 376.846C403.836 376.812 403.904 376.802 403.968 376.818C404.032 376.834 404.087 376.875 404.121 376.932C407.739 382.734 411.033 388.732 413.991 394.897C412.939 390.678 412.083 386.336 410.994 382.178C411.001 382.16 411.014 382.143 411.03 382.132C411.047 382.121 411.066 382.114 411.086 382.114C411.106 382.114 411.126 382.121 411.142 382.132C411.158 382.143 411.171 382.16 411.178 382.178C413.397 387.547 414.958 393.164 415.825 398.908C419.787 407.655 423.114 416.675 425.78 425.899C425.499 419.98 425.12 414.098 424.557 408.203C424.557 408.093 424.741 408.068 424.753 408.203C426.017 414.745 426.595 421.402 426.477 428.064C428.108 433.942 429.473 439.882 430.574 445.883C430.574 446.042 430.366 446.115 430.33 445.944C429.718 443.437 429.045 440.942 428.361 438.459C428.32 438.469 428.278 438.469 428.238 438.459C422.123 432.344 416.412 425.447 412.621 417.669L412.633 417.534Z" fill="#264653"/>
<path d="M399.521 385.443C400.744 386.801 401.967 388.232 403.19 389.638C404.376 390.816 405.464 392.088 406.443 393.442C406.452 393.453 406.456 393.468 406.455 393.483C406.454 393.497 406.448 393.511 406.438 393.522C406.427 393.532 406.413 393.538 406.399 393.539C406.384 393.54 406.369 393.536 406.358 393.527C404.944 392.482 403.681 391.247 402.603 389.858C401.41 388.537 400.33 387.117 399.375 385.615C399.277 385.468 399.436 385.346 399.521 385.443Z" fill="#264653"/>
<path d="M466.853 446.445L465.422 459.091L461.129 497.308H423.645L419.353 459.091L417.922 446.445H466.84H466.853Z" fill="#3B4D60"/>
<path d="M466.853 446.445L465.422 459.091H419.353L417.922 446.445H466.84H466.853Z" fill="#264653"/>
<path d="M414.596 451.605H470.18V437.285H414.596V451.605Z" fill="#3B4D60"/>
<path d="M10.7891 497.627L72.2553 497.334L133.709 497.224L256.63 497.016L379.55 497.224L441.004 497.321L502.47 497.627L441.004 497.921L379.55 498.031L256.63 498.239L133.709 498.031L72.2553 497.921L10.7891 497.627Z" fill="#264653"/>
<path d="M180.471 80.5332V143.968H67.8116V158.876L12.8516 107.389L62.8831 60.7578L67.8116 65.6252V75.678H175.53L180.471 80.5332Z" fill="#E76F51"/>
<g opacity="0.1">
<path d="M180.471 80.5332V143.968H67.8116V158.876L12.8516 107.389L62.8831 60.7578L67.8116 65.6252V75.678H175.53L180.471 80.5332Z" fill="black"/>
</g>
<path d="M175.53 75.6777H62.8828V139.113H175.53V75.6777Z" fill="#E76F51"/>
<path d="M62.8831 154.009V60.7578L12.8516 107.389L62.8831 154.009Z" fill="#E76F51"/>
<path d="M450.377 158.876L445.436 154.009V143.968H337.718L332.789 139.101V75.678H445.436V60.7578L500.396 112.257L450.377 158.876Z" fill="#264653"/>
<path d="M332.79 139.102H445.438V75.6663L332.79 75.6663V139.102Z" fill="#3B4D60"/>
<path d="M445.438 60.7578V154.009L495.469 107.389L445.438 60.7578Z" fill="#3B4D60"/>
<path d="M294.067 399.788V399.959C294.067 399.959 294.067 400.032 294.067 400.081C294.067 400.13 294.067 400.277 294.006 400.412V400.632C293.967 400.789 293.939 400.948 293.92 401.109C293.92 401.219 293.92 401.329 293.859 401.451C293.798 401.573 293.774 401.965 293.712 402.258C293.651 402.552 293.529 403.249 293.431 403.836L292.881 406.82C292.82 407.138 292.758 407.48 292.697 407.835C292.636 408.19 292.526 408.789 292.428 409.29C292.33 409.792 292.233 410.415 292.123 411.015C292.049 411.431 291.964 411.859 291.89 412.299C291.658 413.607 291.413 415.002 291.132 416.494C291.126 416.53 291.126 416.567 291.132 416.604C290.838 418.267 290.52 420.052 290.178 421.924C290.092 422.413 289.995 422.902 289.897 423.391C289.799 423.88 289.701 424.418 289.615 424.932C289.615 425.25 289.505 425.58 289.432 425.91C288.967 428.511 288.466 431.267 287.928 434.178C287.744 435.156 287.573 436.147 287.39 437.149C287.035 439.106 286.668 441.112 286.289 443.179C286.191 443.656 286.106 444.133 286.032 444.622C285.478 447.614 284.911 450.728 284.332 453.965C284.259 454.295 284.21 454.626 284.149 454.956C283.868 456.472 283.586 458.001 283.317 459.566C283.281 459.686 283.256 459.809 283.244 459.933L282.84 462.159C282.302 465.143 281.748 468.196 281.177 471.319C281.03 472.09 280.883 472.872 280.749 473.667C280.468 475.245 280.174 476.835 279.881 478.437C279.514 480.43 279.147 482.436 278.78 484.478C278.413 486.521 278.046 488.563 277.667 490.593C277.471 491.633 277.288 492.672 277.092 493.712C276.872 494.935 276.64 496.158 276.42 497.466H170.719C183.756 443.301 194.75 399.629 194.75 399.629L294.067 399.788Z" fill="#264653"/>
<path d="M278.091 412.019C272.8 440.555 267.451 469.09 262.046 497.626H260.578C266.192 469.021 271.976 440.465 277.7 411.896C277.785 411.627 278.128 411.737 278.091 412.019Z" fill="#264653"/>
<path d="M294.055 399.787C294.055 399.787 294.055 399.848 294.055 399.958C294.055 400.068 294.055 400.032 294.055 400.081C294.055 400.13 294.055 400.276 293.994 400.411V400.631C293.955 400.788 293.926 400.947 293.908 401.108C293.908 401.218 293.908 401.328 293.847 401.45C293.786 401.573 293.749 401.964 293.7 402.257C293.651 402.551 293.517 403.248 293.419 403.835C293.247 404.703 293.076 405.694 292.868 406.819C292.807 407.137 292.746 407.48 292.685 407.834C292.624 408.189 292.514 408.788 292.416 409.29C292.318 409.791 292.22 410.415 292.11 411.014C292.037 411.43 291.951 411.858 291.878 412.298C291.633 413.607 291.389 415.001 291.12 416.493C291.114 416.529 291.114 416.566 291.12 416.603C290.814 418.266 290.496 420.027 290.153 421.898C290.056 422.387 289.97 422.889 289.884 423.39C289.799 423.892 289.689 424.418 289.603 424.931C289.53 425.249 289.481 425.579 289.42 425.91C288.943 428.502 288.441 431.266 287.915 434.177C287.732 435.155 287.561 436.146 287.377 437.149C287.01 439.105 286.643 441.111 286.277 443.178C286.179 443.655 286.093 444.132 286.02 444.621C285.457 447.63 284.891 450.744 284.32 453.964C284.247 454.295 284.198 454.625 284.136 454.955C283.855 456.472 283.574 458 283.305 459.566C283.269 459.685 283.244 459.808 283.231 459.933L282.828 462.158C282.273 465.142 281.719 468.196 281.165 471.318C281.018 472.089 280.871 472.872 280.737 473.666C280.443 475.244 280.162 476.834 279.868 478.436C279.501 480.429 279.134 482.435 278.768 484.477C278.401 486.52 278.022 488.562 277.655 490.592C277.459 491.632 277.276 492.671 277.08 493.711C276.86 494.934 276.627 496.157 276.395 497.465H223.355L219.111 454.026L218.965 452.485L218.793 450.821L217.962 442.322L217.24 434.984L213.828 399.787H294.055Z" fill="#264653"/>
<path d="M354.113 497.625H240.12C239.925 487.132 239.717 476.982 239.46 467.406C239.46 467.173 239.46 466.941 239.46 466.709C239.46 466.709 226.154 458.833 218.988 452.657C217.769 451.655 216.647 450.541 215.637 449.33C211.051 443.485 206.452 421.006 196.938 399.861H336.356C359.005 443.815 357.415 479.134 354.113 497.625Z" fill="#264653"/>
<path d="M212.307 447.778C219.095 450.554 225.198 454.822 231.214 458.944C237.464 463.212 243.2 468.153 249.217 472.739C249.449 472.922 249.217 473.301 248.972 473.13C242.637 469.082 235.996 465.523 229.722 461.353C223.608 457.305 217.297 453.367 212.002 448.267C211.794 448.072 212.026 447.656 212.307 447.778Z" fill="#264653"/>
<path d="M211.454 408.555C212.261 412.897 213.313 417.202 214.254 421.519C215.135 425.567 215.783 429.688 216.847 433.749C217.721 437.622 219.691 441.163 222.522 443.948C224.111 445.428 225.86 446.736 227.56 448.082C228.465 448.815 229.456 449.513 230.41 450.259C230.275 449.684 230.177 449.036 230.08 448.51C229.786 446.859 229.505 445.22 229.236 443.618C228.624 439.949 228.013 436.28 227.475 432.611C226.374 425.408 225.359 418.131 223.806 411.001C223.79 410.941 223.798 410.877 223.829 410.824C223.86 410.77 223.911 410.73 223.971 410.714C224.031 410.698 224.095 410.706 224.149 410.737C224.203 410.768 224.242 410.819 224.258 410.879C226.056 417.948 228.037 424.943 229.59 432.073C230.361 435.559 233.1 452.864 233.259 454.086C233.418 455.309 233.479 456.618 233.528 457.878C233.7 459.164 233.7 460.468 233.528 461.754C233.504 461.812 233.463 461.862 233.411 461.897C233.359 461.932 233.298 461.95 233.235 461.95C233.172 461.95 233.111 461.932 233.058 461.897C233.006 461.862 232.965 461.812 232.941 461.754C232.42 460.558 232.051 459.301 231.841 458.012C231.523 456.789 231.241 455.566 231.021 454.27C230.948 453.83 230.887 453.365 230.826 452.9C229.126 451.861 227.536 450.454 225.934 449.354C224.332 448.253 222.485 446.908 220.858 445.538C217.863 443.007 215.702 439.631 214.658 435.852C213.603 431.768 212.915 427.597 212.603 423.39C212.053 418.498 211.662 413.606 210.977 408.714C210.965 408.348 211.38 408.262 211.454 408.555Z" fill="#264653"/>
<path d="M328.696 443.814C326.874 442.86 319.83 444.548 307.001 442.346C304.485 442.024 302.096 441.055 300.067 439.534C296.728 436.806 294.196 432.416 292.179 428.661C289.757 424.437 287.899 419.915 286.651 415.209C286.59 414.928 286.174 415.062 286.223 415.331C286.7 417.985 286.969 420.639 287.666 423.268C288.358 425.736 289.246 428.144 290.32 430.471C292.252 434.825 294.527 439.497 298.428 442.444C302.525 445.526 308.212 446.113 313.201 446.456C316.075 446.651 327.327 446.346 328.843 444.743C328.9 444.675 328.942 444.595 328.966 444.509C328.99 444.423 328.995 444.333 328.981 444.245C328.967 444.157 328.935 444.073 328.886 443.999C328.836 443.924 328.772 443.861 328.696 443.814Z" fill="#264653"/>
<path d="M323.758 406.16C325.054 409.829 326.314 413.498 327.353 417.265C328.393 421.031 329.457 424.737 330.411 428.492C332.269 436.011 333.722 443.625 334.765 451.3C335.832 458.954 336.363 466.673 336.354 474.402L336.256 480.211C336.183 482.143 335.975 484.063 335.841 486.008L335.657 488.918C335.547 489.872 335.388 490.838 335.254 491.792C334.972 493.712 334.716 495.645 334.471 497.589C336.632 490.055 337.904 482.293 338.262 474.463C338.626 466.615 338.266 458.751 337.186 450.97C336.134 443.202 334.499 435.524 332.294 428.002C330.109 420.481 327.252 413.17 323.758 406.16Z" fill="#264653"/>
<path d="M202.586 229.246C154.891 270.338 120.746 305.914 120.758 322.485C120.758 359.615 140.166 368.114 143.676 367.026C180.805 355.469 205.974 286.053 222.521 244.081C238.945 202.451 216.271 217.481 202.586 229.246Z" fill="#E9C46A"/>
<path d="M134.812 287.787L192.818 320.673C192.818 320.673 218.096 269.027 227.061 237.988C236.025 206.949 223.465 207.634 195.472 231.396C167.478 255.159 134.812 287.787 134.812 287.787Z" fill="#E76F51"/>
<path d="M200.168 235.372C199.481 233.852 198.61 232.423 197.575 231.116L197.281 230.786C197.281 230.957 197.281 231.128 197.367 231.287C197.674 232.902 198.184 234.472 198.883 235.959C199.62 237.619 200.592 239.163 201.77 240.545C201.48 238.754 200.94 237.013 200.168 235.372ZM172.785 255.478C171.126 256.21 169.582 257.178 168.199 258.352C171.795 257.738 175.168 256.195 177.983 253.875C176.182 254.156 174.431 254.695 172.785 255.478ZM228.051 227.129C228.551 227.069 229.046 226.971 229.531 226.836C229.531 226.518 229.617 226.212 229.653 225.906C229.091 226.293 228.556 226.718 228.051 227.178V227.129ZM179.793 292.9C179.135 294.594 178.723 296.373 178.57 298.184C179.642 296.719 180.491 295.103 181.089 293.389C181.74 291.698 182.152 289.924 182.312 288.119C181.248 289.584 180.4 291.194 179.793 292.9ZM219.674 250.659C219.016 252.353 218.604 254.132 218.451 255.942C219.523 254.478 220.372 252.862 220.97 251.148C221.621 249.457 222.033 247.683 222.193 245.877C221.129 247.342 220.281 248.953 219.674 250.659ZM151.322 287.275C149.629 286.617 147.85 286.205 146.039 286.052C149.024 288.126 152.496 289.39 156.116 289.721C154.639 288.688 153.025 287.865 151.322 287.275ZM199.373 269.456C197.679 268.798 195.9 268.386 194.089 268.233C197.075 270.307 200.547 271.571 204.167 271.902C202.692 270.853 201.078 270.013 199.373 269.407V269.456ZM202.002 275.718C202.002 275.718 202.002 275.803 202.002 275.84H202.222C202.152 275.778 202.079 275.721 202.002 275.669V275.718Z" fill="white"/>
<path d="M147.026 279.02C169.345 294.71 191.053 305.032 195.394 307.637C195.59 307.759 195.774 307.417 195.553 307.295C191.163 304.971 167.425 289.574 147.21 278.653C146.977 278.531 146.818 278.873 147.026 279.02Z" fill="#264653"/>
<path opacity="0.1" d="M176.977 311.735L192.814 320.711C192.814 320.711 218.093 269.066 227.057 238.027C230.347 226.592 230.726 219.462 228.488 216.209L176.977 311.735Z" fill="black"/>
<path d="M184.25 423.219H349.228C349.228 423.219 324.023 265.799 263.217 211.964C255.708 205.311 238.758 206.828 227.751 212.319C223.801 214.288 209.627 234.112 205.579 252.872C201.531 271.633 183.81 422.657 184.25 423.219Z" fill="#E76F51"/>
<path d="M276.992 256.163C279.97 258.259 283.443 259.545 287.069 259.894C284.09 257.798 280.617 256.512 276.992 256.163ZM201.987 275.792H202.207C202.141 275.739 202.071 275.69 201.999 275.645C201.999 275.645 201.987 275.755 201.987 275.792ZM239.593 299.285C242.572 301.381 246.045 302.666 249.67 303.015C248.197 301.957 246.583 301.109 244.876 300.496C243.182 299.842 241.403 299.434 239.593 299.285ZM262.01 367.649C263.48 368.715 265.095 369.568 266.804 370.181C268.498 370.839 270.277 371.251 272.087 371.404C269.113 369.297 265.638 368.007 262.01 367.661V367.649ZM299.763 319.953C302.742 322.049 306.215 323.335 309.84 323.683C308.367 322.625 306.753 321.778 305.046 321.164C303.35 320.523 301.571 320.127 299.763 319.99V319.953ZM333.676 415.051C336.651 417.157 340.125 418.448 343.753 418.793C340.772 416.701 337.301 415.412 333.676 415.051ZM260.799 409.095C263.774 411.202 267.248 412.492 270.877 412.838C269.406 411.775 267.792 410.927 266.083 410.318C264.371 409.649 262.57 409.237 260.738 409.095H260.799ZM184.78 417.913C185.766 418.447 186.787 418.913 187.837 419.307C189.531 419.964 191.31 420.376 193.121 420.53C191.648 419.47 190.035 418.622 188.326 418.011C187.209 417.592 186.06 417.265 184.89 417.032C184.78 417.326 184.755 417.632 184.719 417.913H184.78ZM213.715 365.79C216.694 367.886 220.167 369.171 223.792 369.52C222.322 368.458 220.708 367.609 218.998 367.001C217.287 366.335 215.486 365.927 213.654 365.79H213.715ZM264.065 237.134C266.161 234.155 267.446 230.682 267.795 227.057C266.732 228.528 265.884 230.142 265.276 231.851C264.616 233.543 264.208 235.323 264.065 237.134ZM300.375 421.802C302.47 418.823 303.756 415.35 304.105 411.725C303.04 413.194 302.191 414.808 301.585 416.519C300.926 418.211 300.518 419.991 300.375 421.802ZM307.615 375.831C308.686 374.363 309.538 372.749 310.146 371.037C310.803 369.347 311.215 367.572 311.369 365.766C309.262 368.735 307.971 372.206 307.627 375.831H307.615ZM244.84 348.51C246.914 345.524 248.178 342.052 248.509 338.432C247.448 339.904 246.6 341.518 245.989 343.226C245.354 344.931 244.967 346.719 244.84 348.534V348.51ZM267.049 289.575C269.155 286.6 270.445 283.126 270.791 279.498C269.725 280.968 268.873 282.582 268.26 284.292C267.603 285.994 267.196 287.781 267.049 289.599V289.575ZM235.472 423.221H236.939C237.434 421.786 237.743 420.294 237.857 418.781C236.868 420.149 236.066 421.641 235.472 423.221ZM189.892 389.821C190.963 388.354 191.816 386.739 192.423 385.027C193.074 383.336 193.486 381.562 193.646 379.756C191.543 382.728 190.253 386.197 189.904 389.821H189.892ZM218.46 255.943C219.533 254.479 220.382 252.863 220.98 251.149C221.631 249.458 222.042 247.684 222.203 245.878C220.095 248.848 218.805 252.319 218.46 255.943ZM228.048 227.179C231.644 226.565 235.017 225.022 237.832 222.703C236.04 222.986 234.297 223.525 232.659 224.305C230.994 225.04 229.441 226.008 228.048 227.179ZM282.03 350.772C283.821 350.484 285.563 349.945 287.203 349.17C288.867 348.434 290.415 347.462 291.802 346.284C288.209 346.914 284.839 348.46 282.018 350.772H282.03ZM324.712 393.759C328.307 393.146 331.68 391.603 334.495 389.283C330.9 389.897 327.527 391.44 324.712 393.759ZM213.153 404.472C216.748 403.859 220.121 402.316 222.936 399.996C221.144 400.279 219.402 400.819 217.763 401.599C216.098 402.333 214.546 403.301 213.153 404.472ZM216.699 336.304C218.491 336.012 220.232 335.469 221.872 334.69C223.534 333.963 225.079 332.994 226.459 331.816C222.86 332.427 219.486 333.975 216.675 336.304H216.699ZM228.048 278.421C231.644 277.808 235.017 276.265 237.832 273.945C234.237 274.559 230.864 276.102 228.048 278.421ZM297.757 286.982C298.376 290.576 299.919 293.948 302.234 296.766C301.615 293.172 300.072 289.8 297.757 286.982ZM242.956 381.994C243.245 383.786 243.784 385.527 244.558 387.168C245.295 388.827 246.267 390.372 247.445 391.754C246.819 388.159 245.273 384.788 242.956 381.97V381.994ZM209.41 298.136C209.693 299.928 210.233 301.67 211.013 303.309C211.747 304.97 212.715 306.519 213.886 307.907C213.274 304.311 211.731 300.938 209.41 298.123V298.136ZM284.403 386.874C285.021 390.468 286.564 393.84 288.879 396.658C288.596 394.865 288.057 393.123 287.277 391.485C286.541 389.82 285.573 388.268 284.403 386.874ZM327.353 340.952C327.636 342.744 328.175 344.486 328.955 346.125C329.69 347.786 330.658 349.335 331.829 350.723C331.547 348.927 331.007 347.18 330.227 345.538C329.488 343.883 328.52 342.339 327.353 340.952ZM268.92 315.269C269.208 317.061 269.747 318.802 270.522 320.443C271.262 322.101 272.229 323.649 273.396 325.041C273.119 323.243 272.579 321.496 271.794 319.856C271.056 318.211 270.088 316.679 268.92 315.306V315.269ZM247.42 248.263C247.708 250.054 248.248 251.796 249.022 253.436C249.759 255.096 250.731 256.64 251.908 258.022C251.297 254.424 249.749 251.049 247.42 248.239V248.263Z" fill="white"/>
<path d="M284.454 225.013C335.158 262.374 371.86 295.272 373.083 311.843C375.846 348.874 357.184 358.817 353.588 357.998C315.677 349.278 285.371 281.917 265.706 241.351C246.175 201.03 269.938 214.312 284.454 225.013Z" fill="#E9C46A"/>
<path d="M356.451 278.262L301.099 315.403C301.099 315.403 272.005 265.812 260.741 235.544C249.478 205.275 262.05 204.97 291.756 226.579C321.462 248.189 356.451 278.262 356.451 278.262Z" fill="#E76F51"/>
<path d="M282.308 257.374C280.615 256.716 278.835 256.304 277.025 256.151C280.004 258.247 283.477 259.532 287.102 259.881C285.632 258.82 284.018 257.976 282.308 257.374ZM265.309 231.899C264.645 233.591 264.233 235.371 264.086 237.183C266.182 234.204 267.467 230.731 267.816 227.105C266.745 228.575 265.888 230.189 265.272 231.899H265.309ZM343.077 279.277C342.414 280.969 342.002 282.749 341.854 284.56C343.95 281.581 345.236 278.109 345.584 274.483C344.513 275.952 343.657 277.567 343.041 279.277H343.077ZM300.017 232.707C299.784 233.22 299.564 233.734 299.369 234.248C298.71 235.941 298.299 237.72 298.146 239.531C299.21 238.045 300.054 236.414 300.653 234.688C300.799 234.288 300.934 233.881 301.056 233.465L300.017 232.707ZM316.429 264.626C314.77 265.358 313.225 266.326 311.843 267.5C315.438 266.886 318.811 265.343 321.626 263.024C319.813 263.301 318.05 263.84 316.392 264.626H316.429ZM300.665 291.531C299.933 289.868 298.965 288.32 297.791 286.933C298.41 290.527 299.952 293.899 302.267 296.717C301.979 294.936 301.435 293.206 300.653 291.58L300.665 291.531Z" fill="white"/>
<path d="M343.605 270.46C322.545 287.777 301.669 299.713 297.548 302.636C297.352 302.77 297.144 302.44 297.352 302.306C301.559 299.652 324.098 282.506 343.397 270.105C343.617 269.958 343.813 270.288 343.605 270.46Z" fill="#264653"/>
<path d="M304.643 312.957C303.487 313.497 302.364 314.105 301.279 314.779C294.883 304.151 296.082 306.609 289.588 296.031C286.408 290.854 283.228 285.672 280.049 280.487C276.747 275.094 273.726 269.48 270.131 264.246C270.033 264.087 269.825 264.246 269.898 264.393C272.136 269.566 275.022 274.519 277.774 279.472C277.187 278.714 276.637 277.931 276.001 277.209C274.594 275.595 273.212 273.968 271.941 272.244C271.745 271.975 271.305 272.244 271.5 272.513C272.723 274.152 273.812 275.864 274.888 277.601C275.964 279.337 277.163 280.988 278.373 282.639C279.584 284.29 280.819 285.746 282.042 287.262L282.507 287.825C284.268 290.907 285.98 294.025 287.802 297.082C294.211 307.771 300.595 316.075 300.79 316.014C302.197 315.203 303.538 314.283 304.802 313.262C304.973 313.067 304.802 312.871 304.643 312.957Z" fill="#264653"/>
<path d="M347.764 354.402C341.172 338.993 335.461 317.885 359.077 255.819C362.342 247.258 429.165 253.973 426.156 263.328C422.353 275.105 405.048 320 403.36 323.119C389.198 349.462 352.228 364.859 347.764 354.402Z" fill="#E9C46A"/>
<path d="M343.56 341.806C343.095 336.78 342.998 331.766 343.022 326.752C343.022 324.306 343.12 321.75 343.23 319.255C343.34 316.76 343.67 314.363 344.013 311.831C344.746 306.94 345.651 301.95 346.642 297.021C347.633 292.093 348.684 287.176 349.981 282.346C348.111 287.044 346.554 291.861 345.321 296.764C344.098 301.656 343.01 306.548 342.239 311.624C341.814 314.14 341.548 316.68 341.444 319.23C341.334 321.762 341.371 324.306 341.444 326.837C341.63 331.887 342.339 336.903 343.56 341.806Z" fill="#264653"/>
<path d="M373.272 230.334C363.402 238.773 356.016 263.477 356.016 263.477L419.965 280.598C419.965 280.598 428.733 261.52 437.465 254.574C440.009 252.556 452.85 241.451 466.009 231.472C480.929 220.159 495.14 206.377 495.544 204.151C496.314 199.87 489.906 196.47 478.055 201.705C466.205 206.939 444.876 221.236 443.372 221.688C442.852 221.798 442.325 221.872 441.794 221.908C441.11 221.774 427.437 209.458 419.292 211.195C411.147 212.932 374.47 228.28 373.272 230.334Z" fill="#E9C46A"/>
<path d="M425.873 239.836C425.873 239.836 456.802 233.513 461.339 228.744C465.876 223.974 497.38 199.527 498.236 195.259C499.092 190.991 492.598 187.579 480.748 192.813C468.897 198.047 447.581 212.295 446.064 212.809C444.548 213.322 416.774 214.398 414.267 215.254C411.76 216.111 425.873 239.836 425.873 239.836Z" fill="#E9C46A"/>
<path d="M443.742 238.736C446.897 237.317 449.992 235.764 453.086 234.223C454.627 233.428 456.155 232.621 457.672 231.777C458.43 231.349 459.188 230.934 459.934 230.469C460.313 230.261 460.68 230.004 461.059 229.76C461.437 229.498 461.796 229.212 462.136 228.903C467.407 224.489 472.69 220.013 477.936 215.524C483.183 211.036 488.38 206.535 493.517 201.839C494.819 200.615 495.965 199.235 496.929 197.73C497.417 196.97 497.8 196.147 498.066 195.284C498.378 194.36 498.378 193.359 498.066 192.435C497.872 191.99 497.592 191.587 497.241 191.252C496.891 190.916 496.477 190.653 496.024 190.478C495.184 190.151 494.295 189.969 493.395 189.94C491.649 189.877 489.903 190.062 488.209 190.49C489.913 190.262 491.637 190.242 493.346 190.429C494.17 190.522 494.972 190.753 495.718 191.114C496.065 191.271 496.377 191.498 496.633 191.779C496.89 192.061 497.086 192.392 497.21 192.753C497.651 194.171 496.88 195.81 495.987 197.143C495.005 198.494 493.868 199.725 492.6 200.812C487.316 205.178 482.009 209.654 476.775 214.142C471.54 218.631 466.318 223.168 461.231 227.888C459.96 228.991 458.583 229.966 457.121 230.799C455.666 231.716 454.174 232.585 452.694 233.465L443.742 238.736Z" fill="#264653"/>
<path d="M419.783 236.131C419.783 236.131 453.646 229.062 458.171 224.305C462.696 219.547 494.2 195.076 495.068 190.82C495.937 186.564 489.418 183.127 477.58 188.374C465.742 193.621 444.401 207.844 442.884 208.369C441.368 208.895 414.671 212.711 412.139 213.579C409.607 214.448 419.783 236.131 419.783 236.131Z" fill="#E9C46A"/>
<path d="M437.516 237.196C441.295 235.276 445 233.209 448.718 231.081C450.552 230.017 452.387 228.941 454.185 227.816C455.09 227.265 455.995 226.69 456.887 226.079C457.783 225.468 458.637 224.798 459.443 224.073C465.868 218.57 472.268 213.022 478.644 207.429L488.146 198.978L490.507 196.838C491.329 196.122 492.105 195.354 492.83 194.539C493.574 193.693 494.207 192.756 494.714 191.75C495.3 190.676 495.523 189.44 495.35 188.228C495.223 187.568 494.899 186.963 494.42 186.492C493.969 186.064 493.431 185.739 492.843 185.538C491.761 185.19 490.628 185.028 489.492 185.061C487.332 185.12 485.187 185.424 483.096 185.966C478.947 187.007 475.012 188.761 471.465 191.151C475.149 189.084 479.142 187.627 483.291 186.834C485.326 186.405 487.4 186.192 489.479 186.198C490.469 186.205 491.449 186.382 492.378 186.724C492.779 186.842 493.14 187.068 493.422 187.376C493.704 187.684 493.897 188.063 493.98 188.473C494.051 189.381 493.833 190.289 493.356 191.065C492.88 191.946 492.301 192.767 491.632 193.511C490.287 194.967 488.574 196.312 487.009 197.718L477.433 206.071C471.074 211.672 464.714 217.274 458.465 223.009C457.725 223.735 456.937 224.409 456.105 225.027C455.273 225.639 454.405 226.25 453.536 226.837C451.788 228.06 450.014 229.173 448.229 230.31L437.516 237.196Z" fill="#264653"/>
<path d="M420.252 237.134C420.252 237.134 448.221 224.122 452.428 219.683C456.635 215.243 479.199 199.895 480.006 195.933C480.813 191.97 474.747 188.778 463.716 193.658C452.685 198.538 439.611 204.371 438.205 204.86C436.798 205.35 414.504 212.773 412.143 213.58C409.783 214.387 420.252 237.134 420.252 237.134Z" fill="#E9C46A"/>
<path d="M428.777 235.971C433.571 233.366 438.328 230.676 443.086 228.01C445.532 226.677 447.831 225.319 450.191 223.937L451.964 222.898C452.569 222.527 453.149 222.119 453.701 221.675C454.814 220.843 455.866 219.987 456.93 219.106C461.124 215.596 465.246 212.001 469.233 208.259C471.226 206.4 473.207 204.504 475.152 202.572C476.118 201.606 477.084 200.627 478.026 199.612C479.021 198.598 479.93 197.502 480.741 196.335C480.992 195.955 481.166 195.53 481.252 195.082C481.338 194.635 481.335 194.176 481.242 193.73C480.987 192.854 480.404 192.11 479.616 191.651C478.306 190.909 476.848 190.466 475.347 190.354C472.479 190.041 469.577 190.436 466.897 191.504C461.809 193.583 456.82 195.76 451.805 197.925C446.791 200.089 441.74 202.315 436.873 204.529C434.366 205.519 431.785 206.449 429.229 207.378C426.673 208.308 424.117 209.323 421.586 210.374C426.918 209.078 432.152 207.61 437.411 205.984L452.478 199.49C457.492 197.362 462.531 195.21 467.569 193.204C469.978 192.24 472.582 191.867 475.164 192.116C476.393 192.2 477.59 192.546 478.674 193.131C478.89 193.218 479.083 193.355 479.237 193.531C479.391 193.706 479.501 193.915 479.56 194.141C479.618 194.367 479.622 194.604 479.573 194.832C479.523 195.06 479.42 195.273 479.273 195.454C478.532 196.519 477.714 197.528 476.827 198.475C475.922 199.466 474.968 200.444 474.014 201.41C472.119 203.342 470.162 205.238 468.181 207.109C464.219 210.839 460.268 214.594 456.159 218.116C455.132 219.009 454.105 219.889 453.041 220.733C451.974 221.546 450.859 222.293 449.702 222.971L442.731 227.264L428.777 235.971Z" fill="#264653"/>
<path d="M146.198 364.149C153.536 349.119 160.396 328.341 140.083 265.089C137.27 256.345 70.1905 259.561 72.7098 269.052C75.8773 281.024 90.7853 326.763 92.2773 329.967C105.07 356.983 141.184 374.349 146.198 364.149Z" fill="#E9C46A"/>
<path d="M151.052 351.799C152.521 346.947 153.476 341.955 153.902 336.903C154.122 334.384 154.305 331.853 154.33 329.309C154.353 326.759 154.222 324.211 153.938 321.677C153.426 316.639 152.654 311.631 151.627 306.672C150.662 301.699 149.366 296.797 147.75 291.996C148.777 296.888 149.56 301.902 150.306 306.867C151.052 311.833 151.676 316.822 152.14 321.812C152.361 324.258 152.556 326.789 152.544 329.26C152.532 331.73 152.471 334.262 152.348 336.757C152.153 341.795 151.774 346.797 151.052 351.799Z" fill="#264653"/>
<path d="M130.846 237.928C138.917 248.14 141.669 270.153 141.669 270.153L75.372 278.298C75.372 278.298 70.4068 257.899 63.1424 249.412C61.0389 246.966 50.5458 233.599 39.5514 221.284C27.0649 207.317 15.7525 191.076 15.7892 188.814C15.8503 184.472 22.7845 182.357 33.4121 189.768C44.0397 197.179 62.2619 215.23 63.6316 216.025C64.1242 216.232 64.631 216.404 65.148 216.539C65.8574 216.539 81.6336 207.061 89.2894 210.326C96.9452 213.591 130.075 235.69 130.846 237.928Z" fill="#E9C46A"/>
<path d="M77.4033 237.194C77.4033 237.194 48.2601 225.074 44.7379 219.522C41.2158 213.97 14.9587 183.958 14.922 179.653C14.8853 175.348 21.9296 173.184 32.5572 180.595C43.1847 188.006 61.3947 206.057 62.7767 206.864C64.1586 207.671 91.2228 214.019 93.5342 215.364C95.8456 216.709 77.4033 237.194 77.4033 237.194Z" fill="#E9C46A"/>
<path d="M60.0233 232.694C57.1982 230.689 54.471 228.573 51.7193 226.469C50.3618 225.405 49.0166 224.305 47.6835 223.192C47.0231 222.629 46.3627 222.067 45.7146 221.48C45.3844 221.198 45.0664 220.868 44.7484 220.563C44.4319 220.233 44.1339 219.886 43.8556 219.523C39.5264 214.179 35.1971 208.773 30.9044 203.368C26.6118 197.962 22.3437 192.532 18.2223 186.943C17.2007 185.491 16.355 183.923 15.703 182.271C15.3667 181.421 15.1526 180.528 15.067 179.618C14.9437 178.648 15.1412 177.664 15.6296 176.817C15.9129 176.41 16.2757 176.065 16.696 175.802C17.1164 175.54 17.5857 175.365 18.0755 175.288C18.9618 175.136 19.8676 175.136 20.7538 175.288C22.4758 175.565 24.151 176.079 25.7313 176.817C24.1027 176.273 22.4155 175.924 20.7049 175.778C19.883 175.709 19.0554 175.783 18.259 175.998C17.8876 176.082 17.5379 176.243 17.2325 176.47C16.9271 176.698 16.6727 176.987 16.4857 177.318C15.7764 178.627 16.2166 180.388 16.8648 181.868C17.5293 183.377 18.3709 184.801 19.3719 186.112C23.7134 191.407 28.0672 196.825 32.3475 202.23C36.6279 207.636 40.9083 213.078 44.9808 218.691C46.0099 220.026 47.1693 221.255 48.4418 222.36C49.6647 223.583 50.9978 224.672 52.2819 225.821L60.0233 232.694Z" fill="#264653"/>
<path d="M84.0945 234.688C84.0945 234.688 52.1996 221.236 48.6285 215.732C45.0575 210.229 18.8493 180.156 18.8126 175.815C18.776 171.473 25.8202 169.345 36.4478 176.756C47.0754 184.168 65.2853 202.219 66.6673 203.013C68.0492 203.808 93.5725 212.675 95.8595 214.02C98.1464 215.365 84.0945 234.688 84.0945 234.688Z" fill="#E9C46A"/>
<path d="M66.4839 232.377C63.133 229.759 59.8921 227.032 56.7002 224.293C55.0981 222.899 53.5083 221.492 51.9551 220.049C51.1724 219.315 50.3897 218.582 49.6315 217.823C48.8697 217.055 48.1589 216.238 47.5035 215.377C42.2611 208.741 37.0431 202.067 31.8495 195.357L24.1326 185.256L22.2248 182.7C21.5535 181.841 20.9406 180.938 20.3904 179.997C19.819 179.027 19.3751 177.987 19.0696 176.903C18.6851 175.739 18.6851 174.483 19.0696 173.32C19.3179 172.701 19.7433 172.169 20.2925 171.791C20.8206 171.46 21.4122 171.243 22.0291 171.155C23.1517 171.02 24.2892 171.078 25.3923 171.326C27.5033 171.801 29.5544 172.51 31.5071 173.442C35.3794 175.265 38.9051 177.748 41.9268 180.78C38.7103 178.046 35.0715 175.853 31.1524 174.286C29.2372 173.472 27.2406 172.866 25.1966 172.476C24.2215 172.305 23.2243 172.305 22.2493 172.476C21.8322 172.516 21.434 172.669 21.0978 172.919C20.7615 173.169 20.5 173.507 20.3414 173.894C20.1048 174.769 20.1433 175.696 20.4515 176.548C20.7583 177.492 21.1684 178.398 21.6745 179.251C22.714 180.939 24.1204 182.59 25.4167 184.265L33.207 194.306C38.3802 201.02 43.5533 207.758 48.5919 214.558C49.1742 215.417 49.8158 216.234 50.512 217.004C51.2213 217.774 51.9551 218.533 52.7011 219.279C54.1809 220.771 55.7096 222.238 57.2383 223.706L66.4839 232.377Z" fill="#264653"/>
<path d="M83.4451 235.617C83.4451 235.617 58.4721 217.493 55.1946 212.381C51.917 207.269 32.7042 187.799 32.6798 183.751C32.6553 179.703 39.1982 177.722 49.092 184.632C58.9858 191.542 70.7384 199.76 71.9614 200.506C73.1844 201.252 93.7302 212.736 95.8826 214.044C98.035 215.353 83.4451 235.617 83.4451 235.617Z" fill="#E9C46A"/>
<path d="M75.2969 232.853C71.0777 229.367 66.9318 225.821 62.7738 222.286C60.6947 220.525 58.6279 218.744 56.5733 216.942L55.0324 215.572C54.53 215.108 54.0563 214.614 53.6138 214.093C52.6843 213.065 51.816 212.014 50.9477 210.95C47.4989 206.706 44.1358 202.389 40.9438 197.949C39.3417 195.736 37.7519 193.498 36.2232 191.235C35.4527 190.098 34.6945 188.948 33.9607 187.774C33.1772 186.588 32.498 185.336 31.9306 184.032C31.7547 183.612 31.6641 183.161 31.6641 182.705C31.6641 182.25 31.7547 181.799 31.9306 181.378C32.3362 180.582 33.0257 179.967 33.8629 179.654C35.2912 179.178 36.8063 179.019 38.3022 179.189C41.1762 179.438 43.9465 180.382 46.3738 181.941C50.9721 184.949 55.4482 188.056 59.9609 191.138C64.4737 194.219 68.9987 197.362 73.4136 200.469C75.6883 201.924 78.0486 203.318 80.3722 204.737C82.6959 206.156 85.0195 207.611 87.2942 209.127C82.3168 206.84 77.5105 204.407 72.6186 201.79L59.0682 192.532C54.5432 189.487 50.0182 186.417 45.4566 183.47C43.2702 182.085 40.7829 181.246 38.2044 181.024C36.9737 180.858 35.7218 180.963 34.5355 181.329C34.3071 181.375 34.0924 181.473 33.9086 181.616C33.7249 181.759 33.5772 181.943 33.4773 182.153C33.3775 182.364 33.3283 182.595 33.3336 182.827C33.339 183.06 33.3988 183.288 33.5082 183.494C34.0372 184.69 34.6587 185.843 35.3671 186.943C36.0764 188.092 36.8102 189.23 37.5684 190.355C39.0605 192.617 40.6259 194.855 42.2035 197.069C45.371 201.496 48.5384 205.935 51.8894 210.228C52.721 211.292 53.5648 212.356 54.4454 213.383C55.3342 214.369 56.2817 215.3 57.2826 216.172L63.2996 221.724L75.2969 232.853Z" fill="#264653"/>
<path d="M267.45 220.806C262.777 229.451 255.943 236.736 247.614 241.951C243.633 244.582 239.06 246.179 234.308 246.598C231.836 246.852 229.347 246.326 227.19 245.094C225.189 243.64 223.596 241.694 222.567 239.444C221.339 236.89 220.486 234.171 220.036 231.373C219.497 228.202 219.178 224.999 219.082 221.785C219.082 221.662 218.898 221.687 218.898 221.785C218.996 224.83 218.837 227.899 219.155 230.908C219.38 233.582 219.947 236.217 220.843 238.747C221.703 241.142 223.062 243.326 224.83 245.155C226.689 246.953 229.133 248.021 231.715 248.164C236.778 248.409 241.801 247.159 246.158 244.568C250.568 242.115 254.57 238.992 258.021 235.311C262.004 231.061 265.275 226.196 267.707 220.904C267.723 220.886 267.734 220.865 267.739 220.842C267.745 220.819 267.745 220.795 267.739 220.772C267.734 220.749 267.723 220.727 267.707 220.71C267.691 220.692 267.671 220.678 267.649 220.67C267.627 220.661 267.603 220.658 267.58 220.661C267.556 220.664 267.534 220.672 267.514 220.686C267.494 220.699 267.478 220.717 267.467 220.738C267.456 220.759 267.45 220.782 267.45 220.806Z" fill="#264653"/>
<path d="M230.128 239.847C239.545 242.477 256.446 228.608 263.368 217.088C263.833 216.293 262.94 207.744 262.341 197.288C262.011 190.941 261.778 183.836 262.035 177.403C262.096 176.082 221.078 185.633 221.078 185.633C221.078 185.633 224.527 199.343 224.001 210.618C223.958 211.51 223.827 212.395 223.61 213.26C223.61 213.382 223.61 213.529 223.536 213.7C222.509 218.714 221.029 237.304 230.128 239.847Z" fill="#E9C46A"/>
<path d="M227.694 214.079C226.304 214.068 224.918 213.941 223.549 213.7C223.563 213.552 223.587 213.405 223.622 213.26C223.834 212.394 223.961 211.509 224.001 210.618C224.515 199.355 221.078 185.633 221.078 185.633C221.078 185.633 254.379 177.879 260.935 177.305C259.381 184.728 251.64 214.52 227.694 214.079Z" fill="#264653"/>
<path d="M271.307 131.689C274.034 146.487 261.767 186.93 250.516 194.99C234.239 206.657 209.95 205.177 200.631 186.16C191.594 167.718 208.507 115.289 220.835 108.208C238.971 97.7885 267.234 109.822 271.307 131.689Z" fill="#E9C46A"/>
<path d="M233.989 150.181C233.989 150.083 234.16 150.389 234.123 150.487C233.132 153.165 232.472 156.394 234.612 158.106C234.686 158.106 234.612 158.289 234.539 158.241C231.702 156.834 232.631 152.566 233.989 150.181Z" fill="#264653"/>
<path d="M237.345 148.162C241.797 149.263 239.253 158.105 235.132 157.078C231.01 156.05 233.603 147.233 237.345 148.162Z" fill="#264653"/>
<path d="M217.494 144.837C217.494 144.727 217.249 144.91 217.212 145.02C216.515 147.784 215.243 150.829 212.516 151.025C212.43 151.025 212.394 151.172 212.516 151.184C215.573 151.624 217.212 147.564 217.494 144.837Z" fill="#264653"/>
<path d="M215.821 141.277C211.516 139.675 208.63 148.407 212.617 149.838C216.603 151.269 219.429 142.623 215.821 141.277Z" fill="#264653"/>
<path d="M241.27 148.898C240.086 148.472 238.927 147.982 237.797 147.43C236.499 147.083 235.351 146.318 234.531 145.253C234.34 144.869 234.282 144.432 234.366 144.012C234.45 143.591 234.672 143.21 234.996 142.929C236.439 141.792 238.249 142.098 239.888 142.734C241.545 143.315 242.928 144.492 243.765 146.036C243.939 146.4 244.003 146.807 243.949 147.208C243.895 147.608 243.724 147.983 243.459 148.288C243.194 148.592 242.845 148.812 242.456 148.92C242.067 149.029 241.654 149.021 241.27 148.898Z" fill="#264653"/>
<path d="M215.426 131.849C216.682 131.965 217.943 132.014 219.205 131.996C220.526 132.231 221.889 132.025 223.081 131.409C223.418 131.14 223.656 130.768 223.757 130.349C223.859 129.931 223.819 129.491 223.644 129.097C222.812 127.459 221.051 126.97 219.315 126.859C217.574 126.685 215.83 127.164 214.423 128.205C214.113 128.458 213.883 128.796 213.762 129.177C213.64 129.559 213.632 129.967 213.738 130.353C213.844 130.739 214.06 131.086 214.36 131.352C214.66 131.617 215.03 131.79 215.426 131.849Z" fill="#264653"/>
<path d="M223.038 178.161C222.253 178.773 221.28 179.093 220.286 179.066C219.292 178.738 218.376 178.209 217.595 177.513C217.522 177.452 217.4 177.513 217.436 177.611C217.67 178.247 218.071 178.81 218.595 179.24C219.12 179.67 219.75 179.952 220.42 180.057C221.015 180.076 221.601 179.921 222.108 179.61C222.615 179.299 223.019 178.846 223.27 178.308C223.356 178.222 223.16 178.1 223.038 178.161Z" fill="#264653"/>
<path d="M225.257 173.417C222.138 170.971 217.491 170.103 214.519 169.614C214.213 169.479 214.103 168.758 214.14 168.391C214.14 168.281 216.048 162.57 216.048 162.57C215.155 162.728 210.703 163.34 211.095 162.264C214.323 153.287 217.919 143.308 223.031 135.065C223.068 135.016 223.12 134.982 223.18 134.967C223.239 134.952 223.302 134.958 223.358 134.984C223.413 135.009 223.458 135.053 223.486 135.108C223.513 135.163 223.521 135.225 223.508 135.285C220.744 144.029 216.463 152.235 213.541 160.967C215.135 160.741 216.753 160.741 218.347 160.967C218.616 161.139 216.011 167.021 215.827 167.987C215.827 167.987 221.942 167.987 225.611 172.219C226.614 173.319 226.736 174.567 225.257 173.417Z" fill="#264653"/>
<path d="M211.378 116.745C223.094 130.944 247.419 121.539 247.419 121.539C247.748 125.083 249.213 128.425 251.595 131.07C253.977 133.714 257.149 135.518 260.639 136.214C260.639 136.214 256.42 161.75 262.938 163.572C272.881 166.361 285.624 133.548 284.402 126.027C283.179 118.506 275.242 114.397 275.242 114.397C275.242 114.397 276.098 109.077 271.304 102.632C266.02 95.4897 240.619 95.7588 240.619 95.7588C240.177 92.2558 238.92 88.9051 236.95 85.9751C236.481 85.2501 235.87 84.6278 235.154 84.1458C234.437 83.6639 233.631 83.3322 232.782 83.171C231.934 83.0098 231.062 83.0224 230.218 83.208C229.375 83.3936 228.578 83.7483 227.876 84.2507C228.598 86.4319 228.815 88.7485 228.512 91.0259C227.607 98.5961 221.7 96.8961 223.62 90.3533C224.254 87.8715 225.761 85.7009 227.864 84.2385C226.188 79.1142 221.822 76.3503 218.276 77.8179C211.794 80.4717 201.595 104.943 211.378 116.745Z" fill="#264653"/>
<path d="M264.237 128.803C264.258 128.765 264.287 128.732 264.322 128.706C264.356 128.679 264.395 128.66 264.437 128.648C264.479 128.637 264.523 128.634 264.566 128.639C264.61 128.645 264.651 128.659 264.689 128.681C264.727 128.702 264.76 128.731 264.786 128.766C264.813 128.8 264.833 128.84 264.844 128.882C264.855 128.924 264.858 128.968 264.853 129.011C264.847 129.054 264.833 129.096 264.811 129.133C262.328 133.761 260.403 138.667 259.076 143.748C257.963 148.823 257.009 162.092 264.591 162.716C264.657 162.73 264.717 162.766 264.759 162.818C264.802 162.87 264.825 162.936 264.825 163.003C264.825 163.071 264.802 163.136 264.759 163.189C264.717 163.241 264.657 163.277 264.591 163.291C259.222 164.208 257.706 157.176 257.363 152.553C256.703 144.188 260.115 135.921 264.237 128.803Z" fill="#264653"/>
<path d="M218.719 77.5859V77.6715C208.385 85.1194 202.625 98.2785 206.551 110.863C211.442 126.688 231.646 123.19 243.839 120.549C244.438 120.414 244.719 121.319 244.12 121.466C232.172 124.364 211.834 127.385 206.208 112.661C201.145 99.5382 207.382 84.9726 218.719 77.5859Z" fill="#264653"/>
<path d="M273.101 113.761C282.554 117.601 288.204 124.217 286.198 134.82C285.077 140.144 282.861 145.176 279.69 149.598C276.519 154.019 272.464 157.733 267.781 160.502C267.691 160.543 267.589 160.549 267.495 160.52C267.401 160.491 267.321 160.428 267.27 160.344C267.218 160.26 267.2 160.16 267.217 160.063C267.235 159.966 267.287 159.878 267.365 159.817C274.14 154.926 279.839 149.019 283.117 141.192C285.563 135.407 286.785 128.522 283.875 122.652C281.808 118.42 276.867 116.133 272.868 114.091C272.685 113.993 272.868 113.675 273.101 113.761Z" fill="#264653"/>
<path d="M237.063 97.0171C251.372 93.0547 277.495 92.9079 275.134 114.224C275.134 114.395 274.816 114.371 274.829 114.224C276.052 92.5288 251.348 95.3416 237.161 97.6286C236.807 97.7142 236.733 97.1027 237.063 97.0171Z" fill="#264653"/>
<path d="M260.518 164.135C260.518 164.135 271.623 152.065 277.224 156.198C282.825 160.332 273.225 178.713 265.765 180.401C264.824 180.675 263.837 180.757 262.864 180.643C261.89 180.53 260.949 180.222 260.097 179.739C259.244 179.255 258.497 178.606 257.899 177.829C257.302 177.052 256.866 176.163 256.617 175.215L260.518 164.135Z" fill="#E9C46A"/>
<path d="M274.337 161.395C274.363 161.395 274.388 161.405 274.406 161.424C274.424 161.442 274.435 161.467 274.435 161.493C274.435 161.519 274.424 161.544 274.406 161.562C274.388 161.58 274.363 161.591 274.337 161.591C269.09 162.936 265.849 167.204 263.33 171.741C265.067 170.103 267.219 169.357 269.445 171.46C269.567 171.57 269.445 171.754 269.274 171.705C268.435 171.31 267.495 171.185 266.583 171.344C265.67 171.504 264.829 171.942 264.174 172.597C263.091 173.714 262.131 174.944 261.312 176.266C261.019 176.682 260.248 176.34 260.481 175.851C260.496 175.811 260.517 175.774 260.542 175.74C261.312 169.344 267.439 161.126 274.337 161.395Z" fill="#264653"/>
<path d="M273.75 511.652C273.664 512.154 273.567 512.655 273.469 513.169C273.554 512.667 273.652 512.154 273.738 511.652H273.75Z" fill="#EBEBEB"/>
<path d="M311.144 90.7943C311.147 92.5606 310.625 94.2878 309.646 95.7576C308.666 97.2273 307.273 98.3735 305.642 99.0511C304.011 99.7287 302.215 99.9072 300.483 99.5641C298.75 99.2211 297.158 98.3717 295.908 97.1237C294.658 95.8756 293.807 94.2849 293.462 92.5528C293.116 90.8206 293.292 89.0249 293.967 87.3929C294.643 85.7609 295.787 84.3659 297.256 83.3843C298.724 82.4028 300.45 81.8789 302.217 81.8789C304.582 81.8789 306.851 82.8178 308.525 84.4894C310.199 86.161 311.141 88.4287 311.144 90.7943Z" fill="white"/>
<path d="M311.146 90.7946C311.148 92.6341 310.6 94.4321 309.573 95.9581C308.545 97.484 307.086 98.6684 305.381 99.3592C303.676 100.05 301.804 100.216 300.004 99.8356C298.204 99.4552 296.559 98.5459 295.279 97.2243C294 95.9027 293.144 94.229 292.822 92.4179C292.5 90.6068 292.727 88.7408 293.472 87.0591C294.218 85.3775 295.449 83.9569 297.007 82.9795C298.565 82.0021 300.38 81.5125 302.219 81.5734C304.61 81.6588 306.876 82.6667 308.54 84.3858C310.204 86.1049 311.138 88.4017 311.146 90.7946ZM311.146 90.7946C311.146 88.8092 310.46 86.8849 309.204 85.3467C307.949 83.8085 306.201 82.7507 304.256 82.3519C302.311 81.9531 300.288 82.2377 298.529 83.1578C296.77 84.0778 295.382 85.5769 294.6 87.4017C293.818 89.2266 293.689 91.2655 294.236 93.174C294.784 95.0825 295.973 96.7438 297.603 97.8771C299.233 99.0105 301.204 99.5465 303.184 99.3947C305.163 99.2429 307.03 98.4126 308.468 97.0439C309.313 96.2364 309.985 95.2666 310.445 94.1927C310.906 93.1188 311.144 91.963 311.146 90.7946Z" fill="#264653"/>
<path d="M378.626 42.7695C378.628 51.166 376.141 59.3747 371.479 66.358C366.817 73.3413 360.189 78.7856 352.434 82.0027C344.678 85.2198 336.142 86.0653 327.906 84.4322C319.67 82.7992 312.103 78.7609 306.161 72.828C300.22 66.8951 296.171 59.3338 294.526 51.0999C292.881 42.8661 293.714 34.3295 296.92 26.5691C300.126 18.8088 305.561 12.1731 312.537 7.50099C319.514 2.82886 327.719 0.330014 336.116 0.320341C341.695 0.313913 347.221 1.40706 352.377 3.5373C357.534 5.66754 362.22 8.79311 366.168 12.7354C370.116 16.6776 373.248 21.3592 375.386 26.5127C377.523 31.6661 378.624 37.1903 378.626 42.7695Z" fill="white"/>
<path d="M378.624 42.7685C378.637 54.0385 374.187 64.8552 366.247 72.8535C361.286 77.8861 355.156 81.6121 348.404 83.6988C341.653 85.7856 334.489 86.1683 327.554 84.8127C320.618 83.4571 314.126 80.4054 308.657 75.93C303.188 71.4545 298.912 65.6947 296.211 59.1644C293.51 52.6342 292.468 45.5368 293.177 38.5057C293.887 31.4746 296.326 24.7286 300.278 18.8697C304.229 13.0109 309.57 8.22156 315.823 4.9292C322.076 1.63683 329.047 -0.0561341 336.113 0.00141988C347.426 0.0773225 358.246 4.63841 366.198 12.6836C370.136 16.6398 373.256 21.3329 375.379 26.495C377.503 31.657 378.589 37.1868 378.575 42.7685H378.624ZM378.624 42.7685C378.622 37.2036 377.519 31.6941 375.378 26.5577C373.236 21.4213 370.099 16.7597 366.147 12.8418C362.195 8.92395 357.506 5.8273 352.352 3.73052C347.197 1.63374 341.678 0.578317 336.113 0.625135C329.212 0.686991 322.431 2.44288 316.367 5.73852C310.303 9.03416 305.141 13.7687 301.335 19.5261C297.529 25.2835 295.195 31.8875 294.539 38.758C293.882 45.6284 294.923 52.555 297.57 58.929C300.217 65.303 304.389 70.9294 309.719 75.3139C315.049 79.6983 321.374 82.7066 328.139 84.0744C334.904 85.4421 341.901 85.1275 348.516 83.1582C355.131 81.1889 361.161 77.6252 366.076 72.7801C374.046 64.8469 378.541 54.0748 378.575 42.8297L378.624 42.7685Z" fill="#264653"/>
<path d="M290.485 105.506C290.485 106.488 290.194 107.448 289.648 108.265C289.103 109.081 288.327 109.718 287.42 110.094C286.513 110.469 285.514 110.568 284.551 110.376C283.588 110.185 282.703 109.712 282.009 109.017C281.315 108.323 280.842 107.438 280.65 106.475C280.459 105.512 280.557 104.513 280.933 103.606C281.308 102.699 281.945 101.923 282.761 101.378C283.578 100.832 284.538 100.541 285.52 100.541C286.837 100.541 288.1 101.064 289.031 101.995C289.962 102.926 290.485 104.189 290.485 105.506Z" fill="white"/>
<path d="M290.488 105.507C290.485 106.852 289.97 108.145 289.047 109.124C288.125 110.103 286.865 110.694 285.523 110.778C284.815 110.813 284.107 110.707 283.44 110.468C282.772 110.229 282.159 109.86 281.634 109.384C280.986 108.79 280.497 108.043 280.21 107.212C279.924 106.381 279.849 105.491 279.993 104.624C280.138 103.756 280.496 102.939 281.036 102.245C281.576 101.551 282.281 101.003 283.086 100.651C283.891 100.298 284.772 100.152 285.648 100.226C286.524 100.299 287.368 100.591 288.103 101.073C288.838 101.555 289.441 102.213 289.858 102.988C290.274 103.762 290.491 104.628 290.488 105.507ZM290.488 105.507C290.49 104.868 290.36 104.237 290.107 103.65C289.854 103.064 289.483 102.536 289.017 102.099C288.552 101.662 288.001 101.326 287.4 101.11C286.799 100.895 286.16 100.806 285.523 100.847C284.613 100.905 283.74 101.227 283.011 101.774C282.282 102.322 281.729 103.071 281.421 103.928C281.112 104.786 281.061 105.715 281.274 106.602C281.487 107.488 281.955 108.293 282.62 108.917C283.284 109.54 284.117 109.956 285.015 110.112C285.913 110.269 286.838 110.159 287.674 109.797C288.51 109.434 289.223 108.835 289.723 108.073C290.223 107.31 290.489 106.419 290.488 105.507Z" fill="#264653"/>
<path d="M328.069 51.2445C328.04 49.2243 328.406 47.2179 329.145 45.3375C330.076 43.3628 331.638 41.7538 333.584 40.7637C334.257 40.3601 335.076 39.8954 336.03 39.3817C337.045 38.8522 338.01 38.2343 338.916 37.535C339.847 36.8351 340.653 35.9834 341.301 35.0157C341.958 34.032 342.299 32.8717 342.279 31.6892C342.289 30.8435 342.105 30.0069 341.741 29.2433C341.398 28.5433 340.913 27.9221 340.317 27.419C339.722 26.9159 339.028 26.5418 338.28 26.3204C337.509 26.0775 336.705 25.9538 335.896 25.9535C334.975 25.9429 334.06 26.1132 333.205 26.455C332.429 26.766 331.697 27.1771 331.028 27.6779C330.383 28.1949 329.796 28.7814 329.279 29.4268C328.808 30.0166 328.371 30.6331 327.971 31.2734L322.125 27.2499C322.686 25.907 323.467 24.667 324.436 23.581C325.395 22.5127 326.508 21.5936 327.738 20.8538C328.982 20.1102 330.324 19.5461 331.725 19.1783C333.174 18.7964 334.666 18.6032 336.165 18.6035C337.871 18.6038 339.568 18.8509 341.203 19.3373C342.833 19.8209 344.35 20.6232 345.667 21.6976C347.03 22.8258 348.131 24.2361 348.896 25.8312C350.24 28.9151 350.503 32.3629 349.642 35.615C349.319 36.681 348.828 37.6885 348.186 38.599C347.559 39.5082 346.815 40.3306 345.973 41.0449C345.061 41.8054 344.097 42.5002 343.087 43.124C342.194 43.6621 341.289 44.1757 340.396 44.6771C339.532 45.1475 338.714 45.696 337.95 46.3159C337.229 46.9 336.612 47.6032 336.128 48.395C335.642 49.2685 335.401 50.2574 335.431 51.2567L328.069 51.2445ZM328.203 66.8984V57.6528H335.663V66.9229L328.203 66.8984Z" fill="#E76F51"/>
</svg>
