<svg width="8" height="14" viewBox="0 0 8 14" fill="none" xmlns="http://www.w3.org/2000/svg">
<path d="M3.78333 0.499739C3.72778 0.499739 3.66944 0.51085 3.60833 0.533072C3.54722 0.555295 3.48889 0.594184 3.43333 0.649739L0.15 3.93307C0.0500003 4.03307 0 4.1553 0 4.29974C0 4.44418 0.0500003 4.56641 0.15 4.66641C0.25 4.76641 0.366667 4.81641 0.5 4.81641C0.633333 4.81641 0.75 4.76641 0.85 4.66641L3.78333 1.73307L6.71667 4.66641C6.81667 4.76641 6.93611 4.81641 7.075 4.81641C7.21389 4.81641 7.33333 4.76641 7.43333 4.66641C7.53333 4.56641 7.58333 4.44696 7.58333 4.30807C7.58333 4.16918 7.53333 4.04974 7.43333 3.94974L4.13333 0.649739C4.07778 0.594184 4.02222 0.555295 3.96667 0.533072C3.91111 0.51085 3.85 0.499739 3.78333 0.499739Z" fill="#A0ACBB"/>
<path d="M3.78333 13.1331C3.72778 13.1331 3.66944 13.122 3.60833 13.0997C3.54722 13.0775 3.48889 13.0386 3.43333 12.9831L0.15 9.69974C0.0500003 9.59974 0 9.47752 0 9.33307C0 9.18863 0.0500003 9.06641 0.15 8.96641C0.25 8.86641 0.366667 8.81641 0.5 8.81641C0.633333 8.81641 0.75 8.86641 0.85 8.96641L3.78333 11.8997L6.71667 8.96641C6.81667 8.86641 6.93611 8.81641 7.075 8.81641C7.21389 8.81641 7.33333 8.86641 7.43333 8.96641C7.53333 9.06641 7.58333 9.18585 7.58333 9.32474C7.58333 9.46363 7.53333 9.58307 7.43333 9.68307L4.13333 12.9831C4.07778 13.0386 4.02222 13.0775 3.96667 13.0997C3.91111 13.122 3.85 13.1331 3.78333 13.1331Z" fill="#A0ACBB"/>
</svg>
