<svg width="16" height="16" viewBox="0 0 16 16" fill="none" xmlns="http://www.w3.org/2000/svg">
<path d="M0 7.99765C0 8.97618 0.176024 9.91352 0.497574 10.7801L7.99968 11.4758L15.5018 10.7801C15.8233 9.91352 15.9994 8.97618 15.9994 7.99765C15.9994 7.01913 15.8233 6.08179 15.5018 5.21516L7.99968 4.51953L0.497574 5.21516C0.176024 6.08179 0 7.01913 0 7.99765H0Z" fill="#FFDA44"/>
<path d="M15.5042 5.2172C14.3739 2.17095 11.4417 0 8.00211 0C4.56253 0 1.6303 2.17095 0.5 5.2172H15.5042Z" fill="#D80027"/>
<path d="M0.5 10.7812C1.6303 13.8275 4.56253 15.9985 8.00211 15.9985C11.4417 15.9985 14.3739 13.8275 15.5042 10.7812H0.5Z" fill="#D80027"/>
</svg>
