<svg width="516" height="514" viewBox="0 0 516 514" fill="none" xmlns="http://www.w3.org/2000/svg">
<path d="M182.478 194.33C182.523 196.679 182.108 199.014 181.255 201.204C180.176 203.496 178.365 205.363 176.106 206.511C175.324 206.976 174.357 207.514 173.22 208.113C172.021 208.721 170.876 209.429 169.796 210.229C168.723 211.048 167.79 212.035 167.032 213.152C166.268 214.294 165.871 215.642 165.895 217.017C165.88 217.967 166.076 218.908 166.47 219.773C166.863 220.638 167.444 221.405 168.169 222.018C168.869 222.582 169.676 222.999 170.542 223.241C171.44 223.522 172.376 223.667 173.318 223.669C174.386 223.683 175.446 223.483 176.436 223.082C177.345 222.709 178.197 222.211 178.968 221.603C179.722 221.008 180.403 220.327 180.998 219.573C181.548 218.889 182.058 218.174 182.527 217.432L189.314 222.104C188.66 223.673 187.751 225.124 186.624 226.397C185.516 227.641 184.226 228.709 182.796 229.564C181.346 230.427 179.781 231.082 178.149 231.509C176.469 231.955 174.738 232.182 173 232.181C171.015 232.178 169.042 231.886 167.142 231.313C165.249 230.76 163.485 229.832 161.957 228.586C160.379 227.275 159.103 225.64 158.214 223.792C157.201 221.607 156.707 219.216 156.771 216.809C156.746 215.316 156.944 213.828 157.358 212.394C157.73 211.155 158.295 209.982 159.034 208.92C159.764 207.875 160.627 206.93 161.602 206.108C162.662 205.212 163.786 204.394 164.965 203.662C166.009 203.026 167.048 202.427 168.084 201.864C169.091 201.314 170.045 200.671 170.933 199.944C171.771 199.257 172.482 198.429 173.037 197.498C173.61 196.485 173.894 195.335 173.856 194.172L182.478 194.33ZM182.319 176.157V186.919H173.66V176.157H182.319Z" fill="#EBEBEB"/>
<path d="M330.776 178.432C330.731 176.083 331.146 173.748 331.999 171.559C333.078 169.267 334.889 167.399 337.148 166.251C337.93 165.786 338.896 165.248 340.034 164.649C341.233 164.042 342.378 163.334 343.458 162.533C344.531 161.714 345.464 160.727 346.222 159.61C346.986 158.468 347.383 157.12 347.359 155.746C347.374 154.796 347.177 153.854 346.784 152.989C346.391 152.124 345.81 151.357 345.085 150.744C344.39 150.158 343.582 149.721 342.712 149.46C341.813 149.179 340.878 149.035 339.936 149.032C338.868 149.019 337.808 149.218 336.817 149.619C335.909 149.992 335.057 150.49 334.286 151.099C333.532 151.693 332.85 152.375 332.256 153.129C331.706 153.813 331.196 154.527 330.727 155.269L323.891 150.609C324.545 149.04 325.454 147.59 326.581 146.317C327.692 145.076 328.982 144.008 330.409 143.149C331.859 142.286 333.424 141.632 335.056 141.205C336.736 140.758 338.467 140.532 340.205 140.532C342.189 140.535 344.163 140.828 346.063 141.401C347.956 141.954 349.719 142.881 351.248 144.128C352.825 145.439 354.102 147.074 354.991 148.922C356.004 151.107 356.498 153.497 356.434 155.905C356.459 157.398 356.261 158.886 355.847 160.32C355.475 161.559 354.91 162.731 354.171 163.793C353.441 164.838 352.578 165.784 351.603 166.606C350.543 167.502 349.419 168.319 348.24 169.052C347.196 169.688 346.157 170.287 345.121 170.85C344.114 171.399 343.16 172.042 342.272 172.77C341.434 173.457 340.723 174.285 340.168 175.216C339.595 176.228 339.311 177.379 339.349 178.542L330.776 178.432ZM330.935 196.605V185.843H339.593V196.605H330.935Z" fill="#EBEBEB"/>
<path d="M263.564 60.6362C263.592 62.3687 263.276 64.0896 262.634 65.6993C261.841 67.3893 260.507 68.7664 258.843 69.6128C258.272 69.9552 257.563 70.3629 256.715 70.8357C255.857 71.2927 255.039 71.8204 254.269 72.4134C253.47 72.9824 252.771 73.6809 252.202 74.4802C251.632 75.3195 251.338 76.3153 251.359 77.3297C251.347 78.0654 251.506 78.7937 251.823 79.4577C252.121 80.0532 252.537 80.5817 253.046 81.0108C253.562 81.4355 254.156 81.7554 254.795 81.9525C255.456 82.1603 256.145 82.2675 256.837 82.2705C257.628 82.2786 258.413 82.1333 259.149 81.8424C259.815 81.561 260.441 81.1908 261.008 80.7418C261.565 80.3045 262.07 79.8038 262.512 79.2498C262.913 78.7459 263.285 78.2191 263.625 77.6721L268.639 81.1209C268.156 82.2803 267.482 83.3508 266.646 84.2884C265.83 85.1992 264.881 85.9825 263.833 86.612C262.765 87.2511 261.612 87.7369 260.409 88.0551C259.171 88.3786 257.897 88.543 256.617 88.5443C255.155 88.5404 253.701 88.3262 252.3 87.9084C250.903 87.4956 249.602 86.8098 248.472 85.8905C247.305 84.927 246.362 83.7209 245.708 82.3561C244.963 80.7445 244.598 78.9826 244.645 77.2074C244.63 76.1081 244.774 75.0124 245.073 73.9543C245.346 73.0443 245.758 72.182 246.296 71.3983C246.828 70.6246 247.466 69.929 248.191 69.3315C248.96 68.6756 249.778 68.0787 250.637 67.546C251.408 67.0812 252.178 66.641 252.936 66.2252C253.68 65.8181 254.384 65.3432 255.04 64.8065C255.665 64.3271 256.202 63.7438 256.63 63.0821C257.049 62.3368 257.256 61.4909 257.229 60.6362H263.564ZM263.441 47.1836V55.1206H257.058V47.2325L263.441 47.1836Z" fill="#EBEBEB"/>
<path d="M459.139 370.841L476.261 370.499L484.687 370.364C487.488 370.303 490.276 370.364 493.077 370.291L492.526 370.841L492.465 356.508L493.077 357.119L476.09 356.985C470.44 356.985 464.789 356.85 459.139 356.789L459.469 356.459C459.469 358.807 459.359 361.167 459.311 363.552L459.139 370.841ZM459.139 370.841L458.956 363.748C458.956 361.302 458.821 358.942 458.797 356.508V356.178H459.139C464.789 356.104 470.44 355.982 476.09 355.97L493.052 355.896H493.664V356.508L493.59 370.841V371.391H493.052C490.19 371.391 487.329 371.391 484.491 371.391L475.931 371.257L459.139 370.841Z" fill="#EBEBEB"/>
<path d="M478.053 388.905L495.175 388.574L503.601 388.428C506.402 388.428 509.19 388.428 511.991 388.428L511.44 388.966V374.645L512.052 375.244L495.089 375.171C489.439 375.171 483.789 375.036 478.139 374.975L478.469 374.645C478.469 376.981 478.359 379.341 478.31 381.738L478.053 388.905ZM478.053 388.905L477.87 381.811C477.87 379.427 477.735 377.005 477.711 374.584V374.253H478.053C483.703 374.192 489.354 374.058 495.004 374.058L511.966 373.984H512.578V374.608L512.517 388.929V389.479H511.978C509.117 389.479 506.255 389.479 503.418 389.406L494.857 389.271L478.053 388.905Z" fill="#EBEBEB"/>
<path d="M92.3581 199.662L109.48 199.32L117.906 199.185C120.706 199.185 123.495 199.185 126.295 199.124L125.745 199.662L125.684 185.329L126.295 185.941L109.333 185.867C103.683 185.867 98.0326 185.733 92.3825 185.672L92.7127 185.329C92.7127 187.677 92.6026 190.038 92.5537 192.422L92.3581 199.662ZM92.3581 199.662L92.1868 192.569C92.1257 190.184 92.0401 187.763 92.0156 185.329V184.999H92.3581C98.0082 184.938 103.658 184.803 109.308 184.803L126.271 184.718H126.882V185.329V199.662V200.213H126.344C123.483 200.213 120.621 200.213 117.784 200.139L109.223 200.005L92.3581 199.662Z" fill="#EBEBEB"/>
<path d="M111.58 217.739L128.702 217.396L137.128 217.262C139.929 217.2 142.717 217.262 145.517 217.188L144.967 217.739L144.906 203.405L145.517 204.017L128.555 203.944C122.905 203.944 117.255 203.809 111.592 203.736L111.935 203.405C111.935 205.754 111.825 208.114 111.776 210.499L111.58 217.739ZM111.58 217.739L111.409 210.645C111.409 208.199 111.274 205.839 111.25 203.405V203.075H111.58C117.243 203.014 122.893 202.88 128.543 202.867L145.505 202.794H146.117V203.405L146.043 217.739V218.289H145.505C142.644 218.289 139.782 218.289 136.944 218.216L128.384 218.081L111.58 217.739Z" fill="#EBEBEB"/>
<path d="M1.28333 388.905L18.4048 388.574L26.8311 388.428C29.6439 388.428 32.4323 388.428 35.2206 388.428L34.6825 388.966L34.6091 374.645L35.2206 375.244L18.2703 375.171C12.608 375.171 6.95789 375.036 1.30779 374.975L1.63799 374.645C1.63799 376.981 1.54015 379.341 1.479 381.738L1.28333 388.905ZM1.28333 388.905L1.11211 381.811C1.11211 379.427 0.977584 377.005 0.953125 374.584V374.253H1.28333C6.93343 374.192 12.5835 374.058 18.2459 374.058L35.1962 373.984H35.8199V374.608V388.929V389.479H35.2695C32.42 389.479 29.5583 389.479 26.7088 389.406L18.148 389.271L1.28333 388.905Z" fill="#EBEBEB"/>
<path d="M20.2052 49.8372L37.3267 49.4948L45.753 49.3603C48.5658 49.3603 51.3541 49.3603 54.1425 49.3603L53.6044 49.8984L53.531 35.5652L54.1425 36.1767L37.1922 36.1033C31.5421 36.1033 25.8798 35.9688 20.2297 35.8954L20.5599 35.5652C20.5599 37.9133 20.462 40.2736 20.4009 42.6584L20.2052 49.8372ZM20.2052 49.8372L20.034 42.744C20.034 40.2981 19.8995 37.9378 19.875 35.5041V35.1739H20.2052C25.8553 35.1739 31.5176 34.9782 37.1677 34.9782L54.118 34.8926H54.7417V35.5041V49.8372V50.3876H54.1914C51.3419 50.3876 48.4802 50.3875 45.6307 50.3142L37.0699 50.1796L20.2052 49.8372Z" fill="#EBEBEB"/>
<path d="M1.28333 67.9124L18.4048 67.57L26.8311 67.4354C29.6439 67.4354 32.4323 67.4355 35.2206 67.3621L34.6825 67.9124L34.6091 53.5793L35.2206 54.1907L18.2703 54.1174C12.608 54.1174 6.95789 53.9706 1.30779 53.9095L1.63799 53.5793C1.63799 55.9274 1.54015 58.2877 1.479 60.6725L1.28333 67.9124ZM1.28333 67.9124L1.11211 60.8192C1.11211 58.3733 0.977584 56.013 0.953125 53.5793V53.2491H1.28333C6.93343 53.1757 12.5835 53.0534 18.2459 53.0411L35.1962 52.9678H35.8199V53.5793V67.9124V68.4627H35.2695C32.42 68.4627 29.5583 68.4627 26.7088 68.4627L18.148 68.3282L1.28333 67.9124Z" fill="#EBEBEB"/>
<path d="M478.053 49.8372L495.175 49.4948L503.601 49.3603C506.402 49.3603 509.19 49.3603 511.991 49.3603L511.44 49.8984V35.5652L512.052 36.1767L495.089 36.1033C489.439 36.1033 483.789 35.9688 478.139 35.8954L478.469 35.5652C478.469 37.9133 478.359 40.2736 478.31 42.6584L478.053 49.8372ZM478.053 49.8372L477.87 42.744C477.87 40.2981 477.735 37.9378 477.711 35.5041V35.1739H478.053C483.703 35.1739 489.354 34.9782 495.004 34.9782L511.966 34.8926H512.578V35.5041L512.517 49.8372V50.3876H511.978C509.117 50.3876 506.255 50.3875 503.418 50.3142L494.857 50.1796L478.053 49.8372Z" fill="#EBEBEB"/>
<path d="M130.822 199.662L147.944 199.32L156.346 199.222C159.146 199.222 161.935 199.222 164.735 199.161L164.185 199.699V185.366L164.796 185.977L147.785 185.867C142.135 185.867 136.472 185.733 130.822 185.672L131.165 185.329C131.165 187.677 131.055 190.038 130.994 192.422L130.822 199.662ZM130.822 199.662L130.651 192.569C130.651 190.184 130.517 187.763 130.492 185.329V184.999H130.822C136.472 184.938 142.135 184.803 147.785 184.803L164.747 184.718H165.359V185.329L165.298 199.662V200.213H164.76C161.898 200.213 159.036 200.213 156.199 200.139L147.638 200.005L130.822 199.662Z" fill="#EBEBEB"/>
<path d="M115.216 476.347H17.7578V497.308H115.216V476.347Z" fill="#C7C7C7"/>
<path d="M53.679 476.347H44.5312V497.308H53.679V476.347Z" fill="#DBDBDB"/>
<path d="M37.5595 476.347H34.1719V497.308H37.5595V476.347Z" fill="#DBDBDB"/>
<path d="M104.304 476.347H95.1562V497.308H104.304V476.347Z" fill="#DBDBDB"/>
<path d="M125.221 461.695H13.9062V476.346H125.221V461.695Z" fill="#DBDBDB"/>
<path d="M60.3684 464.691H23.0312V473.485H60.3684V464.691Z" fill="#EBEBEB"/>
<path d="M104.636 442.274H16.6562V461.707H104.636V442.274Z" fill="#A6A6A6"/>
<path d="M96.8106 442.274H89.9375V461.707H96.8106V442.274Z" fill="#C7C7C7"/>
<path d="M85.4239 442.274H82.7578V461.707H85.4239V442.274Z" fill="#C7C7C7"/>
<path d="M172.627 483.008L115.172 417.677L98.9722 431.924L156.428 497.255L172.627 483.008Z" fill="#A6A6A6"/>
<path d="M166.519 476.07L161.164 469.981L144.964 484.228L150.319 490.317L166.519 476.07Z" fill="#C7C7C7"/>
<path d="M132.37 437.236L127.016 431.147L110.816 445.394L116.171 451.483L132.37 437.236Z" fill="#C7C7C7"/>
<path d="M138.083 443.735L136.008 441.375L119.808 455.622L121.884 457.982L138.083 443.735Z" fill="#C7C7C7"/>
<path d="M444.266 444.672C444.266 444.672 455.676 403.703 464.799 389.785C473.923 375.868 490.91 360.581 490.91 360.581C490.91 360.581 490.506 423.759 444.266 444.672Z" fill="#E76F51"/>
<path d="M445.087 443.975C448.924 437.559 452.399 430.932 455.494 424.126C456.796 416.802 458.69 409.596 461.156 402.578C461.156 402.443 461.389 402.578 461.364 402.651C459.848 409.121 458.087 415.541 456.472 421.986C461.083 412.019 465.461 401.917 470.94 392.488C472.212 387.935 473.989 383.538 476.236 379.378C476.297 379.268 476.492 379.378 476.443 379.451C475.057 382.638 473.864 385.905 472.872 389.235C475.461 385.031 478.364 381.029 481.555 377.262C481.751 377.03 482.155 377.262 481.959 377.531C474.621 386.899 469.546 397.551 464.727 408.35C469.911 402.722 474.696 396.739 479.048 390.446C479.048 390.373 479.195 390.446 479.146 390.507C474.616 397.565 469.485 404.218 463.81 410.393C460.3 418.293 456.839 426.291 452.657 433.751C461.022 426.682 467.467 417.522 473.839 408.693C473.853 408.672 473.871 408.655 473.892 408.642C473.913 408.629 473.937 408.621 473.961 408.617C473.986 408.613 474.011 408.614 474.035 408.619C474.059 408.625 474.081 408.635 474.101 408.65C474.122 408.664 474.139 408.683 474.152 408.704C474.165 408.725 474.173 408.748 474.177 408.772C474.181 408.797 474.18 408.822 474.175 408.846C474.169 408.87 474.159 408.893 474.144 408.913C467.773 418.599 461.181 427.722 452.009 434.901C450.148 438.202 448.106 441.399 445.894 444.477C445.816 444.553 445.714 444.601 445.605 444.613C445.496 444.625 445.387 444.6 445.294 444.542C445.201 444.485 445.13 444.397 445.092 444.295C445.055 444.192 445.053 444.079 445.087 443.975Z" fill="#264653"/>
<path d="M440.725 448.365C440.725 448.365 461.246 410.588 455.29 373.96C449.334 337.332 442.951 324.283 442.951 324.283C442.951 324.283 410.725 381.249 440.725 448.365Z" fill="#E76F51"/>
<path d="M432.307 388.966C434.038 399.37 436.686 409.602 440.22 419.54C440.281 406.087 440.538 392.635 440.892 379.182C438.587 371.026 437.289 362.619 437.028 354.148C437.028 353.903 437.382 353.916 437.407 354.148C438.056 361.408 439.258 368.607 441.002 375.684C441.312 364.604 441.671 353.52 442.079 342.432C442.079 342.393 442.094 342.356 442.122 342.328C442.149 342.301 442.186 342.285 442.225 342.285C442.264 342.285 442.302 342.301 442.329 342.328C442.357 342.356 442.372 342.393 442.372 342.432C442.372 359.749 442.372 377.079 442.262 394.408C444.755 387.709 446.73 380.827 448.169 373.825C448.169 373.752 448.291 373.825 448.291 373.825C447.68 381.921 445.209 389.724 442.176 397.245C442.091 408.325 441.969 419.393 441.724 430.461C445.197 418.696 448.903 407.286 449.906 394.848C449.906 394.813 449.92 394.778 449.945 394.753C449.97 394.728 450.004 394.714 450.04 394.714C450.076 394.714 450.11 394.728 450.135 394.753C450.16 394.778 450.175 394.813 450.175 394.848C449.893 408.558 446.359 422.487 441.834 435.39C441.792 435.514 441.716 435.624 441.614 435.707C441.504 439.756 441.394 443.804 441.259 447.852C441.259 447.972 441.212 448.087 441.127 448.171C441.042 448.256 440.927 448.304 440.807 448.304C440.687 448.304 440.572 448.256 440.487 448.171C440.402 448.087 440.354 447.972 440.354 447.852C440.199 439.568 440.13 431.288 440.146 423.013C435.682 412.171 432.954 400.694 432.062 389.002C432.111 388.892 432.283 388.868 432.307 388.966Z" fill="#264653"/>
<path d="M433.711 383.132C434.426 386.42 434.905 389.755 435.142 393.112C435.142 393.138 435.132 393.162 435.114 393.181C435.095 393.199 435.07 393.209 435.044 393.209C435.018 393.209 434.994 393.199 434.975 393.181C434.957 393.162 434.947 393.138 434.947 393.112C434.152 389.837 433.588 386.51 433.259 383.157C433.234 382.924 433.662 382.875 433.711 383.132Z" fill="#264653"/>
<path d="M445.713 355.506C445.713 355.396 445.909 355.433 445.909 355.506C445.873 357.836 445.528 360.152 444.881 362.391C444.87 362.429 444.844 362.46 444.81 362.478C444.776 362.497 444.735 362.5 444.698 362.489C444.661 362.478 444.629 362.452 444.611 362.418C444.593 362.383 444.589 362.343 444.6 362.306C445.04 360.068 445.322 357.793 445.713 355.506Z" fill="#264653"/>
<path d="M433.249 451.251C433.249 451.251 434.08 411.823 422.768 392.219C411.456 372.615 392.695 362.623 392.695 362.623C392.695 362.623 400.253 432.149 433.249 451.251Z" fill="#E76F51"/>
<path d="M412.633 417.534C417.182 424.423 422.304 430.915 427.945 436.943C425.686 428.871 423.073 420.942 420.106 413.156C413.771 407.591 407.472 401.831 403.583 394.224C403.522 394.102 403.693 393.992 403.767 394.114C407.949 400.853 413.55 406.246 419.433 411.432C414.9 399.703 409.643 388.266 403.693 377.189C403.659 377.132 403.649 377.064 403.665 377C403.681 376.935 403.722 376.88 403.779 376.846C403.836 376.812 403.904 376.802 403.968 376.818C404.032 376.834 404.087 376.875 404.121 376.932C407.739 382.734 411.033 388.732 413.991 394.897C412.939 390.678 412.083 386.336 410.994 382.178C411.001 382.16 411.014 382.143 411.03 382.132C411.047 382.121 411.066 382.114 411.086 382.114C411.106 382.114 411.126 382.121 411.142 382.132C411.158 382.143 411.171 382.16 411.178 382.178C413.397 387.547 414.958 393.164 415.825 398.908C419.787 407.655 423.114 416.675 425.78 425.899C425.499 419.98 425.12 414.098 424.557 408.203C424.557 408.093 424.741 408.068 424.753 408.203C426.017 414.745 426.595 421.402 426.477 428.064C428.108 433.942 429.473 439.882 430.574 445.883C430.574 446.042 430.366 446.115 430.33 445.944C429.718 443.437 429.045 440.942 428.361 438.459C428.32 438.469 428.278 438.469 428.238 438.459C422.123 432.344 416.412 425.447 412.621 417.669L412.633 417.534Z" fill="#264653"/>
<path d="M399.521 385.443C400.744 386.801 401.967 388.232 403.19 389.638C404.376 390.816 405.464 392.088 406.443 393.442C406.452 393.453 406.456 393.468 406.455 393.483C406.454 393.497 406.448 393.511 406.438 393.522C406.427 393.532 406.413 393.538 406.399 393.539C406.384 393.54 406.369 393.536 406.358 393.527C404.944 392.482 403.681 391.247 402.603 389.858C401.41 388.537 400.33 387.117 399.375 385.615C399.277 385.468 399.436 385.346 399.521 385.443Z" fill="#264653"/>
<path d="M466.853 446.445L465.422 459.091L461.129 497.308H423.645L419.353 459.091L417.922 446.445H466.84H466.853Z" fill="#3B4D60"/>
<path d="M466.853 446.445L465.422 459.091H419.353L417.922 446.445H466.84H466.853Z" fill="#264653"/>
<path d="M414.596 451.606H470.18V437.286H414.596V451.606Z" fill="#3B4D60"/>
<path d="M10.7891 497.626L72.2553 497.333L133.709 497.223L256.63 497.015L379.55 497.223L441.004 497.32L502.47 497.626L441.004 497.92L379.55 498.03L256.63 498.238L133.709 498.03L72.2553 497.92L10.7891 497.626Z" fill="#264653"/>
<path d="M180.471 80.5341V143.969H67.8116V158.877L12.8516 107.39L62.8831 60.7588L67.8116 65.6262V75.679H175.53L180.471 80.5341Z" fill="#E76F51"/>
<g opacity="0.1">
<path d="M180.471 80.5341V143.969H67.8116V158.877L12.8516 107.39L62.8831 60.7588L67.8116 65.6262V75.679H175.53L180.471 80.5341Z" fill="black"/>
</g>
<path d="M175.53 75.6787H62.8828V139.114H175.53V75.6787Z" fill="#E76F51"/>
<path d="M62.8831 154.01V60.7588L12.8516 107.39L62.8831 154.01Z" fill="#E76F51"/>
<path d="M450.377 158.877L445.436 154.01V143.969H337.718L332.789 139.102V75.679H445.436V60.7588L500.396 112.258L450.377 158.877Z" fill="#264653"/>
<path d="M332.79 139.102H445.438V75.6663L332.79 75.6663V139.102Z" fill="#3B4D60"/>
<path d="M445.438 60.7588V154.01L495.469 107.39L445.438 60.7588Z" fill="#3B4D60"/>
<path d="M294.067 399.789V399.96C294.067 399.96 294.067 400.033 294.067 400.082C294.067 400.131 294.067 400.278 294.006 400.413V400.633C293.967 400.79 293.939 400.949 293.92 401.11C293.92 401.22 293.92 401.33 293.859 401.452C293.798 401.574 293.774 401.966 293.712 402.259C293.651 402.553 293.529 403.25 293.431 403.837L292.881 406.821C292.82 407.139 292.758 407.481 292.697 407.836C292.636 408.191 292.526 408.79 292.428 409.291C292.33 409.793 292.233 410.416 292.123 411.016C292.049 411.431 291.964 411.86 291.89 412.3C291.658 413.608 291.413 415.003 291.132 416.495C291.126 416.531 291.126 416.568 291.132 416.605C290.838 418.268 290.52 420.053 290.178 421.925C290.092 422.414 289.995 422.903 289.897 423.392C289.799 423.881 289.701 424.419 289.615 424.933C289.615 425.251 289.505 425.581 289.432 425.911C288.967 428.512 288.466 431.268 287.928 434.179C287.744 435.157 287.573 436.148 287.39 437.15C287.035 439.107 286.668 441.113 286.289 443.18C286.191 443.657 286.106 444.134 286.032 444.623C285.478 447.615 284.911 450.729 284.332 453.966C284.259 454.296 284.21 454.627 284.149 454.957C283.868 456.473 283.586 458.002 283.317 459.567C283.281 459.687 283.256 459.81 283.244 459.934L282.84 462.16C282.302 465.144 281.748 468.197 281.177 471.32C281.03 472.091 280.883 472.873 280.749 473.668C280.468 475.246 280.174 476.836 279.881 478.438C279.514 480.431 279.147 482.437 278.78 484.479C278.413 486.522 278.046 488.564 277.667 490.594C277.471 491.634 277.288 492.673 277.092 493.713C276.872 494.936 276.64 496.159 276.42 497.467H170.719C183.756 443.302 194.75 399.63 194.75 399.63L294.067 399.789Z" fill="#264653"/>
<path d="M278.091 412.019C272.8 440.555 267.451 469.09 262.046 497.626H260.578C266.192 469.021 271.976 440.465 277.7 411.896C277.785 411.627 278.128 411.737 278.091 412.019Z" fill="#264653"/>
<path d="M294.055 399.789C294.055 399.789 294.055 399.85 294.055 399.96C294.055 400.07 294.055 400.034 294.055 400.083C294.055 400.131 294.055 400.278 293.994 400.413V400.633C293.955 400.79 293.926 400.949 293.908 401.11C293.908 401.22 293.908 401.33 293.847 401.452C293.786 401.575 293.749 401.966 293.7 402.259C293.651 402.553 293.517 403.25 293.419 403.837C293.247 404.705 293.076 405.696 292.868 406.821C292.807 407.139 292.746 407.481 292.685 407.836C292.624 408.191 292.514 408.79 292.416 409.291C292.318 409.793 292.22 410.417 292.11 411.016C292.037 411.432 291.951 411.86 291.878 412.3C291.633 413.609 291.389 415.003 291.12 416.495C291.114 416.531 291.114 416.568 291.12 416.605C290.814 418.268 290.496 420.029 290.153 421.9C290.056 422.389 289.97 422.891 289.884 423.392C289.799 423.894 289.689 424.42 289.603 424.933C289.53 425.251 289.481 425.581 289.42 425.912C288.943 428.504 288.441 431.268 287.915 434.179C287.732 435.157 287.561 436.148 287.377 437.151C287.01 439.107 286.643 441.113 286.277 443.18C286.179 443.657 286.093 444.134 286.02 444.623C285.457 447.631 284.891 450.746 284.32 453.966C284.247 454.297 284.198 454.627 284.136 454.957C283.855 456.473 283.574 458.002 283.305 459.568C283.269 459.687 283.244 459.81 283.231 459.935L282.828 462.16C282.273 465.144 281.719 468.198 281.165 471.32C281.018 472.091 280.871 472.873 280.737 473.668C280.443 475.246 280.162 476.836 279.868 478.438C279.501 480.431 279.134 482.437 278.768 484.479C278.401 486.522 278.022 488.564 277.655 490.594C277.459 491.634 277.276 492.673 277.08 493.713C276.86 494.936 276.627 496.159 276.395 497.467H223.355L219.111 454.028L218.965 452.487L218.793 450.823L217.962 442.324L217.24 434.986L213.828 399.789H294.055Z" fill="#264653"/>
<path d="M354.113 497.626H240.12C239.925 487.133 239.717 476.983 239.46 467.407C239.46 467.174 239.46 466.942 239.46 466.71C239.46 466.71 226.154 458.834 218.988 452.658C217.769 451.656 216.647 450.542 215.637 449.331C211.051 443.486 206.452 421.007 196.938 399.862H336.356C359.005 443.816 357.415 479.135 354.113 497.626Z" fill="#264653"/>
<path d="M212.307 447.778C219.095 450.554 225.198 454.822 231.214 458.944C237.464 463.212 243.2 468.153 249.217 472.739C249.449 472.922 249.217 473.301 248.972 473.13C242.637 469.082 235.996 465.523 229.722 461.353C223.608 457.305 217.297 453.367 212.002 448.267C211.794 448.072 212.026 447.656 212.307 447.778Z" fill="#264653"/>
<path d="M211.454 408.557C212.261 412.899 213.313 417.204 214.254 421.521C215.135 425.569 215.783 429.69 216.847 433.751C217.721 437.624 219.691 441.165 222.522 443.95C224.111 445.43 225.86 446.738 227.56 448.084C228.465 448.817 229.456 449.515 230.41 450.261C230.275 449.686 230.177 449.038 230.08 448.512C229.786 446.861 229.505 445.222 229.236 443.62C228.624 439.951 228.013 436.282 227.475 432.613C226.374 425.41 225.359 418.133 223.806 411.003C223.79 410.943 223.798 410.879 223.829 410.825C223.86 410.772 223.911 410.732 223.971 410.716C224.031 410.7 224.095 410.708 224.149 410.739C224.203 410.77 224.242 410.821 224.258 410.881C226.056 417.95 228.037 424.945 229.59 432.075C230.361 435.561 233.1 452.865 233.259 454.088C233.418 455.311 233.479 456.62 233.528 457.88C233.7 459.166 233.7 460.47 233.528 461.756C233.504 461.814 233.463 461.864 233.411 461.899C233.359 461.934 233.298 461.952 233.235 461.952C233.172 461.952 233.111 461.934 233.058 461.899C233.006 461.864 232.965 461.814 232.941 461.756C232.42 460.56 232.051 459.302 231.841 458.014C231.523 456.791 231.241 455.568 231.021 454.272C230.948 453.832 230.887 453.367 230.826 452.902C229.126 451.863 227.536 450.456 225.934 449.356C224.332 448.255 222.485 446.91 220.858 445.54C217.863 443.009 215.702 439.633 214.658 435.854C213.603 431.77 212.915 427.599 212.603 423.392C212.053 418.5 211.662 413.608 210.977 408.716C210.965 408.35 211.38 408.264 211.454 408.557Z" fill="#264653"/>
<path d="M328.696 443.816C326.874 442.862 319.83 444.55 307.001 442.348C304.485 442.026 302.096 441.057 300.067 439.536C296.728 436.808 294.196 432.418 292.179 428.663C289.757 424.439 287.899 419.917 286.651 415.211C286.59 414.929 286.174 415.064 286.223 415.333C286.7 417.987 286.969 420.641 287.666 423.27C288.358 425.738 289.246 428.146 290.32 430.473C292.252 434.827 294.527 439.499 298.428 442.446C302.525 445.528 308.212 446.115 313.201 446.458C316.075 446.653 327.327 446.347 328.843 444.745C328.9 444.677 328.942 444.597 328.966 444.511C328.99 444.425 328.995 444.335 328.981 444.247C328.967 444.159 328.935 444.075 328.886 444.001C328.836 443.926 328.772 443.863 328.696 443.816Z" fill="#264653"/>
<path d="M323.758 406.16C325.054 409.829 326.314 413.498 327.353 417.265C328.393 421.031 329.457 424.737 330.411 428.492C332.269 436.011 333.722 443.625 334.765 451.3C335.832 458.954 336.363 466.673 336.354 474.402L336.256 480.211C336.183 482.143 335.975 484.063 335.841 486.008L335.657 488.918C335.547 489.872 335.388 490.838 335.254 491.792C334.972 493.712 334.716 495.645 334.471 497.589C336.632 490.055 337.904 482.293 338.262 474.463C338.626 466.615 338.266 458.751 337.186 450.97C336.134 443.202 334.499 435.524 332.294 428.002C330.109 420.481 327.252 413.17 323.758 406.16Z" fill="#264653"/>
<path d="M202.586 229.246C154.891 270.338 120.746 305.914 120.758 322.485C120.758 359.615 140.166 368.114 143.676 367.026C180.805 355.469 205.974 286.053 222.521 244.081C238.945 202.451 216.271 217.481 202.586 229.246Z" fill="#E9C46A"/>
<path d="M134.812 287.789L192.818 320.675C192.818 320.675 218.096 269.029 227.061 237.99C236.025 206.951 223.465 207.636 195.472 231.398C167.478 255.161 134.812 287.789 134.812 287.789Z" fill="#E76F51"/>
<path d="M200.168 235.374C199.481 233.854 198.61 232.425 197.575 231.118L197.281 230.788C197.281 230.959 197.281 231.13 197.367 231.289C197.674 232.904 198.184 234.474 198.883 235.961C199.62 237.62 200.592 239.165 201.77 240.547C201.48 238.756 200.94 237.015 200.168 235.374ZM172.785 255.48C171.126 256.212 169.582 257.18 168.199 258.353C171.795 257.74 175.168 256.197 177.983 253.877C176.182 254.158 174.431 254.697 172.785 255.48ZM228.051 227.131C228.551 227.071 229.046 226.973 229.531 226.838C229.531 226.52 229.617 226.214 229.653 225.908C229.091 226.295 228.556 226.72 228.051 227.18V227.131ZM179.793 292.902C179.135 294.596 178.723 296.375 178.57 298.185C179.642 296.721 180.491 295.105 181.089 293.391C181.74 291.7 182.152 289.926 182.312 288.12C181.248 289.586 180.4 291.196 179.793 292.902ZM219.674 250.661C219.016 252.355 218.604 254.134 218.451 255.944C219.523 254.48 220.372 252.864 220.97 251.15C221.621 249.459 222.033 247.685 222.193 245.879C221.129 247.344 220.281 248.955 219.674 250.661ZM151.322 287.277C149.629 286.619 147.85 286.207 146.039 286.054C149.024 288.128 152.496 289.392 156.116 289.723C154.639 288.69 153.025 287.867 151.322 287.277ZM199.373 269.458C197.679 268.8 195.9 268.388 194.089 268.235C197.075 270.309 200.547 271.573 204.167 271.904C202.692 270.855 201.078 270.015 199.373 269.409V269.458ZM202.002 275.72C202.002 275.72 202.002 275.805 202.002 275.842H202.222C202.152 275.78 202.079 275.723 202.002 275.671V275.72Z" fill="white"/>
<path d="M147.026 279.021C169.345 294.711 191.053 305.033 195.394 307.638C195.59 307.76 195.774 307.418 195.553 307.296C191.163 304.972 167.425 289.575 147.21 278.654C146.977 278.532 146.818 278.874 147.026 279.021Z" fill="#264653"/>
<path opacity="0.1" d="M176.977 311.736L192.814 320.712C192.814 320.712 218.093 269.067 227.057 238.028C230.347 226.593 230.726 219.463 228.488 216.21L176.977 311.736Z" fill="black"/>
<path d="M184.25 423.221H349.228C349.228 423.221 324.023 265.801 263.217 211.966C255.708 205.313 238.758 206.83 227.751 212.321C223.801 214.29 209.627 234.114 205.579 252.874C201.531 271.634 183.81 422.659 184.25 423.221Z" fill="#E76F51"/>
<path d="M276.992 256.163C279.97 258.259 283.443 259.545 287.069 259.894C284.09 257.798 280.617 256.512 276.992 256.163ZM201.987 275.792H202.207C202.141 275.739 202.071 275.69 201.999 275.645C201.999 275.645 201.987 275.755 201.987 275.792ZM239.593 299.285C242.572 301.381 246.045 302.666 249.67 303.015C248.197 301.957 246.583 301.109 244.876 300.496C243.182 299.842 241.403 299.434 239.593 299.285ZM262.01 367.649C263.48 368.715 265.095 369.568 266.804 370.181C268.498 370.839 270.277 371.251 272.087 371.404C269.113 369.297 265.638 368.007 262.01 367.661V367.649ZM299.763 319.953C302.742 322.049 306.215 323.335 309.84 323.683C308.367 322.625 306.753 321.778 305.046 321.164C303.35 320.523 301.571 320.127 299.763 319.99V319.953ZM333.676 415.051C336.651 417.157 340.125 418.448 343.753 418.793C340.772 416.701 337.301 415.412 333.676 415.051ZM260.799 409.095C263.774 411.202 267.248 412.492 270.877 412.838C269.406 411.775 267.792 410.927 266.083 410.318C264.371 409.649 262.57 409.237 260.738 409.095H260.799ZM184.78 417.913C185.766 418.447 186.787 418.913 187.837 419.307C189.531 419.964 191.31 420.376 193.121 420.53C191.648 419.47 190.035 418.622 188.326 418.011C187.209 417.592 186.06 417.265 184.89 417.032C184.78 417.326 184.755 417.632 184.719 417.913H184.78ZM213.715 365.79C216.694 367.886 220.167 369.171 223.792 369.52C222.322 368.458 220.708 367.609 218.998 367.001C217.287 366.335 215.486 365.927 213.654 365.79H213.715ZM264.065 237.134C266.161 234.155 267.446 230.682 267.795 227.057C266.732 228.528 265.884 230.142 265.276 231.851C264.616 233.543 264.208 235.323 264.065 237.134ZM300.375 421.802C302.47 418.823 303.756 415.35 304.105 411.725C303.04 413.194 302.191 414.808 301.585 416.519C300.926 418.211 300.518 419.991 300.375 421.802ZM307.615 375.831C308.686 374.363 309.538 372.749 310.146 371.037C310.803 369.347 311.215 367.572 311.369 365.766C309.262 368.735 307.971 372.206 307.627 375.831H307.615ZM244.84 348.51C246.914 345.524 248.178 342.052 248.509 338.432C247.448 339.904 246.6 341.518 245.989 343.226C245.354 344.931 244.967 346.719 244.84 348.534V348.51ZM267.049 289.575C269.155 286.6 270.445 283.126 270.791 279.498C269.725 280.968 268.873 282.582 268.26 284.292C267.603 285.994 267.196 287.781 267.049 289.599V289.575ZM235.472 423.221H236.939C237.434 421.786 237.743 420.294 237.857 418.781C236.868 420.149 236.066 421.641 235.472 423.221ZM189.892 389.821C190.963 388.354 191.816 386.739 192.423 385.027C193.074 383.336 193.486 381.562 193.646 379.756C191.543 382.728 190.253 386.197 189.904 389.821H189.892ZM218.46 255.943C219.533 254.479 220.382 252.863 220.98 251.149C221.631 249.458 222.042 247.684 222.203 245.878C220.095 248.848 218.805 252.319 218.46 255.943ZM228.048 227.179C231.644 226.565 235.017 225.022 237.832 222.703C236.04 222.986 234.297 223.525 232.659 224.305C230.994 225.04 229.441 226.008 228.048 227.179ZM282.03 350.772C283.821 350.484 285.563 349.945 287.203 349.17C288.867 348.434 290.415 347.462 291.802 346.284C288.209 346.914 284.839 348.46 282.018 350.772H282.03ZM324.712 393.759C328.307 393.146 331.68 391.603 334.495 389.283C330.9 389.897 327.527 391.44 324.712 393.759ZM213.153 404.472C216.748 403.859 220.121 402.316 222.936 399.996C221.144 400.279 219.402 400.819 217.763 401.599C216.098 402.333 214.546 403.301 213.153 404.472ZM216.699 336.304C218.491 336.012 220.232 335.469 221.872 334.69C223.534 333.963 225.079 332.994 226.459 331.816C222.86 332.427 219.486 333.975 216.675 336.304H216.699ZM228.048 278.421C231.644 277.808 235.017 276.265 237.832 273.945C234.237 274.559 230.864 276.102 228.048 278.421ZM297.757 286.982C298.376 290.576 299.919 293.948 302.234 296.766C301.615 293.172 300.072 289.8 297.757 286.982ZM242.956 381.994C243.245 383.786 243.784 385.527 244.558 387.168C245.295 388.827 246.267 390.372 247.445 391.754C246.819 388.159 245.273 384.788 242.956 381.97V381.994ZM209.41 298.136C209.693 299.928 210.233 301.67 211.013 303.309C211.747 304.97 212.715 306.519 213.886 307.907C213.274 304.311 211.731 300.938 209.41 298.123V298.136ZM284.403 386.874C285.021 390.468 286.564 393.84 288.879 396.658C288.596 394.865 288.057 393.123 287.277 391.485C286.541 389.82 285.573 388.268 284.403 386.874ZM327.353 340.952C327.636 342.744 328.175 344.486 328.955 346.125C329.69 347.786 330.658 349.335 331.829 350.723C331.547 348.927 331.007 347.18 330.227 345.538C329.488 343.883 328.52 342.339 327.353 340.952ZM268.92 315.269C269.208 317.061 269.747 318.802 270.522 320.443C271.262 322.101 272.229 323.649 273.396 325.041C273.119 323.243 272.579 321.496 271.794 319.856C271.056 318.211 270.088 316.679 268.92 315.306V315.269ZM247.42 248.263C247.708 250.054 248.248 251.796 249.022 253.436C249.759 255.096 250.731 256.64 251.908 258.022C251.297 254.424 249.749 251.049 247.42 248.239V248.263Z" fill="white"/>
<path d="M284.454 225.014C335.158 262.376 371.86 295.274 373.083 311.845C375.846 348.876 357.184 358.819 353.588 358C315.677 349.28 285.371 281.919 265.706 241.353C246.175 201.032 269.938 214.314 284.454 225.014Z" fill="#E9C46A"/>
<path d="M356.451 278.263L301.099 315.404C301.099 315.404 272.005 265.813 260.741 235.545C249.478 205.276 262.05 204.971 291.756 226.58C321.462 248.19 356.451 278.263 356.451 278.263Z" fill="#E76F51"/>
<path d="M282.308 257.375C280.615 256.717 278.835 256.305 277.025 256.152C280.004 258.248 283.477 259.533 287.102 259.882C285.632 258.821 284.018 257.977 282.308 257.375ZM265.309 231.9C264.645 233.592 264.233 235.372 264.086 237.184C266.182 234.205 267.467 230.732 267.816 227.106C266.745 228.576 265.888 230.19 265.272 231.9H265.309ZM343.077 279.278C342.414 280.97 342.002 282.75 341.854 284.561C343.95 281.582 345.236 278.11 345.584 274.484C344.513 275.953 343.657 277.568 343.041 279.278H343.077ZM300.017 232.708C299.784 233.221 299.564 233.735 299.369 234.249C298.71 235.942 298.299 237.721 298.146 239.532C299.21 238.046 300.054 236.415 300.653 234.689C300.799 234.289 300.934 233.882 301.056 233.466L300.017 232.708ZM316.429 264.627C314.77 265.359 313.225 266.327 311.843 267.501C315.438 266.887 318.811 265.344 321.626 263.025C319.813 263.302 318.05 263.841 316.392 264.627H316.429ZM300.665 291.532C299.933 289.869 298.965 288.321 297.791 286.934C298.41 290.528 299.952 293.9 302.267 296.718C301.979 294.937 301.435 293.207 300.653 291.581L300.665 291.532Z" fill="white"/>
<path d="M343.605 270.461C322.545 287.778 301.669 299.714 297.548 302.637C297.352 302.771 297.144 302.441 297.352 302.307C301.559 299.653 324.098 282.507 343.397 270.106C343.617 269.959 343.813 270.289 343.605 270.461Z" fill="#264653"/>
<path d="M304.643 312.959C303.487 313.499 302.364 314.107 301.279 314.781C294.883 304.153 296.082 306.611 289.588 296.033C286.408 290.855 283.228 285.674 280.049 280.489C276.747 275.096 273.726 269.482 270.131 264.248C270.033 264.089 269.825 264.248 269.898 264.395C272.136 269.568 275.022 274.521 277.774 279.474C277.187 278.715 276.637 277.933 276.001 277.211C274.594 275.597 273.212 273.97 271.941 272.246C271.745 271.977 271.305 272.246 271.5 272.515C272.723 274.154 273.812 275.866 274.888 277.603C275.964 279.339 277.163 280.99 278.373 282.641C279.584 284.292 280.819 285.748 282.042 287.264L282.507 287.827C284.268 290.908 285.98 294.027 287.802 297.084C294.211 307.773 300.595 316.077 300.79 316.016C302.197 315.205 303.538 314.285 304.802 313.264C304.973 313.069 304.802 312.873 304.643 312.959Z" fill="#264653"/>
<path d="M347.764 354.404C341.172 338.995 335.461 317.887 359.077 255.821C362.342 247.26 429.165 253.974 426.156 263.33C422.353 275.107 405.048 320.002 403.36 323.121C389.198 349.464 352.228 364.861 347.764 354.404Z" fill="#E9C46A"/>
<path d="M343.56 341.808C343.095 336.782 342.998 331.768 343.022 326.754C343.022 324.308 343.12 321.752 343.23 319.257C343.34 316.762 343.67 314.365 344.013 311.833C344.746 306.941 345.651 301.952 346.642 297.023C347.633 292.095 348.684 287.178 349.981 282.348C348.111 287.046 346.554 291.863 345.321 296.766C344.098 301.658 343.01 306.55 342.239 311.625C341.814 314.142 341.548 316.682 341.444 319.232C341.334 321.764 341.371 324.308 341.444 326.839C341.63 331.889 342.339 336.905 343.56 341.808Z" fill="#264653"/>
<path d="M373.272 230.334C363.402 238.773 356.016 263.477 356.016 263.477L419.965 280.598C419.965 280.598 428.733 261.52 437.465 254.574C440.009 252.556 452.85 241.451 466.009 231.472C480.929 220.159 495.14 206.377 495.544 204.151C496.314 199.87 489.906 196.47 478.055 201.705C466.205 206.939 444.876 221.236 443.372 221.688C442.852 221.798 442.325 221.872 441.794 221.908C441.11 221.774 427.437 209.458 419.292 211.195C411.147 212.932 374.47 228.28 373.272 230.334Z" fill="#E9C46A"/>
<path d="M425.873 239.837C425.873 239.837 456.802 233.514 461.339 228.745C465.876 223.975 497.38 199.528 498.236 195.26C499.092 190.992 492.598 187.58 480.748 192.814C468.897 198.048 447.581 212.296 446.064 212.81C444.548 213.323 416.774 214.399 414.267 215.255C411.76 216.112 425.873 239.837 425.873 239.837Z" fill="#E9C46A"/>
<path d="M443.742 238.737C446.897 237.318 449.992 235.765 453.086 234.224C454.627 233.429 456.155 232.622 457.672 231.778C458.43 231.35 459.188 230.935 459.934 230.47C460.313 230.262 460.68 230.005 461.059 229.761C461.437 229.499 461.796 229.213 462.136 228.904C467.407 224.49 472.69 220.014 477.936 215.525C483.183 211.037 488.38 206.536 493.517 201.84C494.819 200.616 495.965 199.236 496.929 197.731C497.417 196.971 497.8 196.148 498.066 195.285C498.378 194.361 498.378 193.36 498.066 192.436C497.872 191.991 497.592 191.588 497.241 191.253C496.891 190.917 496.477 190.654 496.024 190.479C495.184 190.152 494.295 189.97 493.395 189.941C491.649 189.878 489.903 190.063 488.209 190.491C489.913 190.263 491.637 190.243 493.346 190.43C494.17 190.523 494.972 190.754 495.718 191.115C496.065 191.272 496.377 191.499 496.633 191.78C496.89 192.062 497.086 192.393 497.21 192.754C497.651 194.172 496.88 195.811 495.987 197.144C495.005 198.495 493.868 199.726 492.6 200.813C487.316 205.179 482.009 209.655 476.775 214.143C471.54 218.632 466.318 223.169 461.231 227.889C459.96 228.992 458.583 229.967 457.121 230.8C455.666 231.717 454.174 232.586 452.694 233.466L443.742 238.737Z" fill="#264653"/>
<path d="M419.783 236.132C419.783 236.132 453.646 229.063 458.171 224.306C462.696 219.548 494.2 195.077 495.068 190.821C495.937 186.565 489.418 183.128 477.58 188.375C465.742 193.621 444.401 207.845 442.884 208.37C441.368 208.896 414.671 212.712 412.139 213.58C409.607 214.449 419.783 236.132 419.783 236.132Z" fill="#E9C46A"/>
<path d="M437.516 237.196C441.295 235.276 445 233.209 448.718 231.081C450.552 230.017 452.387 228.941 454.185 227.816C455.09 227.265 455.995 226.69 456.887 226.079C457.783 225.468 458.637 224.798 459.443 224.073C465.868 218.57 472.268 213.022 478.644 207.429L488.146 198.978L490.507 196.838C491.329 196.122 492.105 195.354 492.83 194.539C493.574 193.693 494.207 192.756 494.714 191.75C495.3 190.676 495.523 189.44 495.35 188.228C495.223 187.568 494.899 186.963 494.42 186.492C493.969 186.064 493.431 185.739 492.843 185.538C491.761 185.19 490.628 185.028 489.492 185.061C487.332 185.12 485.187 185.424 483.096 185.966C478.947 187.007 475.012 188.761 471.465 191.151C475.149 189.084 479.142 187.627 483.291 186.834C485.326 186.405 487.4 186.192 489.479 186.198C490.469 186.205 491.449 186.382 492.378 186.724C492.779 186.842 493.14 187.068 493.422 187.376C493.704 187.684 493.897 188.063 493.98 188.473C494.051 189.381 493.833 190.289 493.356 191.065C492.88 191.946 492.301 192.767 491.632 193.511C490.287 194.967 488.574 196.312 487.009 197.718L477.433 206.071C471.074 211.672 464.714 217.274 458.465 223.009C457.725 223.735 456.937 224.409 456.105 225.027C455.273 225.639 454.405 226.25 453.536 226.837C451.788 228.06 450.014 229.173 448.229 230.31L437.516 237.196Z" fill="#264653"/>
<path d="M420.252 237.134C420.252 237.134 448.221 224.122 452.428 219.683C456.635 215.243 479.199 199.895 480.006 195.933C480.813 191.97 474.747 188.778 463.716 193.658C452.685 198.538 439.611 204.371 438.205 204.86C436.798 205.35 414.504 212.773 412.143 213.58C409.783 214.387 420.252 237.134 420.252 237.134Z" fill="#E9C46A"/>
<path d="M428.777 235.973C433.571 233.368 438.328 230.678 443.086 228.011C445.532 226.678 447.831 225.321 450.191 223.939L451.964 222.9C452.569 222.529 453.149 222.121 453.701 221.677C454.814 220.845 455.866 219.989 456.93 219.108C461.124 215.598 465.246 212.003 469.233 208.261C471.226 206.402 473.207 204.506 475.152 202.574C476.118 201.608 477.084 200.629 478.026 199.614C479.021 198.6 479.93 197.504 480.741 196.337C480.992 195.957 481.166 195.531 481.252 195.084C481.338 194.637 481.335 194.178 481.242 193.732C480.987 192.856 480.404 192.112 479.616 191.653C478.306 190.911 476.848 190.468 475.347 190.356C472.479 190.043 469.577 190.438 466.897 191.506C461.809 193.585 456.82 195.762 451.805 197.927C446.791 200.091 441.74 202.317 436.873 204.531C434.366 205.521 431.785 206.451 429.229 207.38C426.673 208.31 424.117 209.325 421.586 210.376C426.918 209.08 432.152 207.612 437.411 205.986L452.478 199.492C457.492 197.364 462.531 195.212 467.569 193.206C469.978 192.242 472.582 191.869 475.164 192.117C476.393 192.202 477.59 192.548 478.674 193.133C478.89 193.22 479.083 193.357 479.237 193.533C479.391 193.708 479.501 193.917 479.56 194.143C479.618 194.369 479.622 194.606 479.573 194.834C479.523 195.062 479.42 195.275 479.273 195.456C478.532 196.521 477.714 197.53 476.827 198.477C475.922 199.467 474.968 200.446 474.014 201.412C472.119 203.344 470.162 205.24 468.181 207.111C464.219 210.841 460.268 214.596 456.159 218.118C455.132 219.01 454.105 219.891 453.041 220.735C451.974 221.548 450.859 222.295 449.702 222.973L442.731 227.265L428.777 235.973Z" fill="#264653"/>
<path d="M146.198 364.151C153.536 349.121 160.396 328.343 140.083 265.091C137.27 256.347 70.1905 259.563 72.7098 269.054C75.8773 281.026 90.7853 326.765 92.2773 329.969C105.07 356.985 141.184 374.351 146.198 364.151Z" fill="#E9C46A"/>
<path d="M151.052 351.8C152.521 346.948 153.476 341.956 153.902 336.904C154.122 334.385 154.305 331.854 154.33 329.31C154.353 326.76 154.222 324.212 153.938 321.678C153.426 316.64 152.654 311.632 151.627 306.673C150.662 301.7 149.366 296.798 147.75 291.997C148.777 296.889 149.56 301.903 150.306 306.868C151.052 311.834 151.676 316.823 152.14 321.813C152.361 324.259 152.556 326.79 152.544 329.261C152.532 331.731 152.471 334.263 152.348 336.758C152.153 341.796 151.774 346.798 151.052 351.8Z" fill="#264653"/>
<path d="M130.846 237.929C138.917 248.141 141.669 270.154 141.669 270.154L75.372 278.299C75.372 278.299 70.4068 257.9 63.1424 249.413C61.0389 246.967 50.5458 233.6 39.5514 221.285C27.0649 207.318 15.7525 191.077 15.7892 188.815C15.8503 184.473 22.7845 182.358 33.4121 189.769C44.0397 197.18 62.2619 215.231 63.6316 216.026C64.1242 216.233 64.631 216.405 65.148 216.54C65.8574 216.54 81.6336 207.062 89.2894 210.327C96.9452 213.592 130.075 235.691 130.846 237.929Z" fill="#E9C46A"/>
<path d="M77.4033 237.196C77.4033 237.196 48.2601 225.076 44.7379 219.524C41.2158 213.972 14.9587 183.96 14.922 179.655C14.8853 175.35 21.9296 173.186 32.5572 180.597C43.1847 188.008 61.3947 206.059 62.7767 206.866C64.1586 207.673 91.2228 214.021 93.5342 215.366C95.8456 216.711 77.4033 237.196 77.4033 237.196Z" fill="#E9C46A"/>
<path d="M60.0233 232.695C57.1982 230.69 54.471 228.574 51.7193 226.47C50.3618 225.406 49.0166 224.306 47.6835 223.193C47.0231 222.63 46.3627 222.068 45.7146 221.481C45.3844 221.199 45.0664 220.869 44.7484 220.564C44.4319 220.234 44.1339 219.887 43.8556 219.524C39.5264 214.18 35.1971 208.774 30.9044 203.369C26.6118 197.963 22.3437 192.533 18.2223 186.944C17.2007 185.492 16.355 183.924 15.703 182.272C15.3667 181.422 15.1526 180.529 15.067 179.619C14.9437 178.649 15.1412 177.665 15.6296 176.818C15.9129 176.411 16.2757 176.066 16.696 175.803C17.1164 175.54 17.5857 175.366 18.0755 175.289C18.9618 175.137 19.8676 175.137 20.7538 175.289C22.4758 175.566 24.151 176.08 25.7313 176.818C24.1027 176.274 22.4155 175.925 20.7049 175.779C19.883 175.71 19.0554 175.784 18.259 175.999C17.8876 176.083 17.5379 176.244 17.2325 176.471C16.9271 176.699 16.6727 176.988 16.4857 177.319C15.7764 178.628 16.2166 180.389 16.8648 181.869C17.5293 183.378 18.3709 184.802 19.3719 186.113C23.7134 191.408 28.0672 196.826 32.3475 202.231C36.6279 207.637 40.9083 213.079 44.9808 218.692C46.0099 220.027 47.1693 221.256 48.4418 222.361C49.6647 223.584 50.9978 224.673 52.2819 225.822L60.0233 232.695Z" fill="#264653"/>
<path d="M84.0945 234.688C84.0945 234.688 52.1996 221.236 48.6285 215.732C45.0575 210.229 18.8493 180.156 18.8126 175.815C18.776 171.473 25.8202 169.345 36.4478 176.756C47.0754 184.168 65.2853 202.219 66.6673 203.013C68.0492 203.808 93.5725 212.675 95.8595 214.02C98.1464 215.365 84.0945 234.688 84.0945 234.688Z" fill="#E9C46A"/>
<path d="M66.4839 232.378C63.133 229.76 59.8921 227.033 56.7002 224.294C55.0981 222.9 53.5083 221.493 51.9551 220.05C51.1724 219.316 50.3897 218.583 49.6315 217.824C48.8697 217.056 48.1589 216.239 47.5035 215.378C42.2611 208.742 37.0431 202.068 31.8495 195.358L24.1326 185.257L22.2248 182.701C21.5535 181.842 20.9406 180.939 20.3904 179.998C19.819 179.028 19.3751 177.988 19.0696 176.904C18.6851 175.74 18.6851 174.484 19.0696 173.321C19.3179 172.702 19.7433 172.17 20.2925 171.792C20.8206 171.461 21.4122 171.244 22.0291 171.156C23.1517 171.021 24.2892 171.079 25.3923 171.327C27.5033 171.801 29.5544 172.511 31.5071 173.443C35.3794 175.266 38.9051 177.749 41.9268 180.781C38.7103 178.047 35.0715 175.854 31.1524 174.287C29.2372 173.473 27.2406 172.867 25.1966 172.477C24.2215 172.306 23.2243 172.306 22.2493 172.477C21.8322 172.517 21.434 172.67 21.0978 172.92C20.7615 173.17 20.5 173.508 20.3414 173.895C20.1048 174.77 20.1433 175.697 20.4515 176.549C20.7583 177.492 21.1684 178.399 21.6745 179.252C22.714 180.94 24.1204 182.591 25.4167 184.266L33.207 194.307C38.3802 201.021 43.5533 207.759 48.5919 214.559C49.1742 215.418 49.8158 216.235 50.512 217.005C51.2213 217.775 51.9551 218.534 52.7011 219.28C54.1809 220.772 55.7096 222.239 57.2383 223.707L66.4839 232.378Z" fill="#264653"/>
<path d="M83.4451 235.618C83.4451 235.618 58.4721 217.494 55.1946 212.382C51.917 207.27 32.7042 187.8 32.6798 183.752C32.6553 179.704 39.1982 177.723 49.092 184.633C58.9858 191.543 70.7384 199.761 71.9614 200.507C73.1844 201.253 93.7302 212.737 95.8826 214.045C98.035 215.354 83.4451 235.618 83.4451 235.618Z" fill="#E9C46A"/>
<path d="M75.2969 232.854C71.0777 229.368 66.9318 225.822 62.7738 222.287C60.6947 220.526 58.6279 218.745 56.5733 216.943L55.0324 215.573C54.53 215.109 54.0563 214.615 53.6138 214.094C52.6843 213.066 51.816 212.015 50.9477 210.951C47.4989 206.707 44.1358 202.39 40.9438 197.95C39.3417 195.737 37.7519 193.499 36.2232 191.236C35.4527 190.099 34.6945 188.949 33.9607 187.775C33.1772 186.589 32.498 185.337 31.9306 184.033C31.7547 183.613 31.6641 183.162 31.6641 182.706C31.6641 182.251 31.7547 181.8 31.9306 181.379C32.3362 180.583 33.0257 179.968 33.8629 179.655C35.2912 179.179 36.8063 179.02 38.3022 179.19C41.1762 179.439 43.9465 180.383 46.3738 181.942C50.9721 184.95 55.4482 188.057 59.9609 191.139C64.4737 194.22 68.9987 197.363 73.4136 200.47C75.6883 201.925 78.0486 203.319 80.3722 204.738C82.6959 206.157 85.0195 207.612 87.2942 209.128C82.3168 206.841 77.5105 204.408 72.6186 201.791L59.0682 192.533C54.5432 189.488 50.0182 186.418 45.4566 183.471C43.2702 182.086 40.7829 181.247 38.2044 181.025C36.9737 180.859 35.7218 180.964 34.5355 181.33C34.3071 181.376 34.0924 181.474 33.9086 181.617C33.7249 181.76 33.5772 181.944 33.4773 182.154C33.3775 182.365 33.3283 182.595 33.3336 182.828C33.339 183.061 33.3988 183.289 33.5082 183.495C34.0372 184.691 34.6587 185.844 35.3671 186.944C36.0764 188.093 36.8102 189.231 37.5684 190.356C39.0605 192.618 40.6259 194.856 42.2035 197.07C45.371 201.497 48.5384 205.936 51.8894 210.229C52.721 211.293 53.5648 212.357 54.4454 213.384C55.3342 214.37 56.2817 215.301 57.2826 216.173L63.2996 221.725L75.2969 232.854Z" fill="#264653"/>
<path d="M267.45 220.808C262.777 229.453 255.943 236.738 247.614 241.953C243.633 244.584 239.06 246.181 234.308 246.6C231.836 246.854 229.347 246.328 227.19 245.096C225.189 243.642 223.596 241.696 222.567 239.446C221.339 236.892 220.486 234.173 220.036 231.375C219.497 228.204 219.178 225.001 219.082 221.786C219.082 221.664 218.898 221.689 218.898 221.786C218.996 224.832 218.837 227.901 219.155 230.91C219.38 233.584 219.947 236.219 220.843 238.749C221.703 241.143 223.062 243.328 224.83 245.157C226.689 246.955 229.133 248.023 231.715 248.166C236.778 248.411 241.801 247.161 246.158 244.57C250.568 242.117 254.57 238.994 258.021 235.312C262.004 231.063 265.275 226.198 267.707 220.906C267.723 220.888 267.734 220.867 267.739 220.844C267.745 220.821 267.745 220.797 267.739 220.774C267.734 220.751 267.723 220.729 267.707 220.712C267.691 220.694 267.671 220.68 267.649 220.672C267.627 220.663 267.603 220.66 267.58 220.663C267.556 220.666 267.534 220.674 267.514 220.688C267.494 220.701 267.478 220.719 267.467 220.74C267.456 220.761 267.45 220.784 267.45 220.808Z" fill="#264653"/>
<path d="M230.128 239.849C239.545 242.479 256.446 228.61 263.368 217.09C263.833 216.295 262.94 207.746 262.341 197.29C262.011 190.943 261.778 183.837 262.035 177.405C262.096 176.084 221.078 185.635 221.078 185.635C221.078 185.635 224.527 199.345 224.001 210.62C223.958 211.512 223.827 212.396 223.61 213.262C223.61 213.384 223.61 213.531 223.536 213.702C222.509 218.716 221.029 237.306 230.128 239.849Z" fill="#E9C46A"/>
<path d="M227.694 214.081C226.304 214.07 224.918 213.943 223.549 213.702C223.563 213.554 223.587 213.407 223.622 213.262C223.834 212.396 223.961 211.511 224.001 210.62C224.515 199.357 221.078 185.635 221.078 185.635C221.078 185.635 254.379 177.881 260.935 177.307C259.381 184.73 251.64 214.521 227.694 214.081Z" fill="#264653"/>
<path d="M271.307 131.69C274.034 146.488 261.767 186.931 250.516 194.991C234.239 206.658 209.95 205.178 200.631 186.161C191.594 167.719 208.507 115.29 220.835 108.209C238.971 97.7895 267.234 109.823 271.307 131.69Z" fill="#E9C46A"/>
<path d="M233.989 150.182C233.989 150.084 234.16 150.39 234.123 150.488C233.132 153.166 232.472 156.395 234.612 158.107C234.686 158.107 234.612 158.29 234.539 158.242C231.702 156.835 232.631 152.567 233.989 150.182Z" fill="#264653"/>
<path d="M237.345 148.164C241.797 149.265 239.253 158.107 235.132 157.08C231.01 156.052 233.603 147.235 237.345 148.164Z" fill="#264653"/>
<path d="M217.494 144.838C217.494 144.728 217.249 144.911 217.212 145.021C216.515 147.785 215.243 150.83 212.516 151.026C212.43 151.026 212.394 151.173 212.516 151.185C215.573 151.625 217.212 147.565 217.494 144.838Z" fill="#264653"/>
<path d="M215.821 141.278C211.516 139.676 208.63 148.408 212.617 149.839C216.603 151.27 219.429 142.624 215.821 141.278Z" fill="#264653"/>
<path d="M241.27 148.898C240.086 148.472 238.927 147.982 237.797 147.43C236.499 147.083 235.351 146.318 234.531 145.253C234.34 144.869 234.282 144.432 234.366 144.012C234.45 143.591 234.672 143.21 234.996 142.929C236.439 141.792 238.249 142.098 239.888 142.734C241.545 143.315 242.928 144.492 243.765 146.036C243.939 146.4 244.003 146.807 243.949 147.208C243.895 147.608 243.724 147.983 243.459 148.288C243.194 148.592 242.845 148.812 242.456 148.92C242.067 149.029 241.654 149.021 241.27 148.898Z" fill="#264653"/>
<path d="M215.426 131.849C216.682 131.965 217.943 132.014 219.205 131.996C220.526 132.231 221.889 132.025 223.081 131.409C223.418 131.14 223.656 130.768 223.757 130.349C223.859 129.931 223.819 129.491 223.644 129.097C222.812 127.459 221.051 126.97 219.315 126.859C217.574 126.685 215.83 127.164 214.423 128.205C214.113 128.458 213.883 128.796 213.762 129.177C213.64 129.559 213.632 129.967 213.738 130.353C213.844 130.739 214.06 131.086 214.36 131.352C214.66 131.617 215.03 131.79 215.426 131.849Z" fill="#264653"/>
<path d="M223.038 178.163C222.253 178.775 221.28 179.095 220.286 179.068C219.292 178.74 218.376 178.211 217.595 177.515C217.522 177.454 217.4 177.515 217.436 177.613C217.67 178.249 218.071 178.812 218.595 179.242C219.12 179.672 219.75 179.954 220.42 180.058C221.015 180.078 221.601 179.923 222.108 179.612C222.615 179.301 223.019 178.848 223.27 178.31C223.356 178.224 223.16 178.102 223.038 178.163Z" fill="#264653"/>
<path d="M225.257 173.418C222.138 170.972 217.491 170.104 214.519 169.615C214.213 169.48 214.103 168.759 214.14 168.392C214.14 168.282 216.048 162.57 216.048 162.57C215.155 162.729 210.703 163.341 211.095 162.265C214.323 153.288 217.919 143.309 223.031 135.066C223.068 135.017 223.12 134.983 223.18 134.968C223.239 134.953 223.302 134.959 223.358 134.985C223.413 135.01 223.458 135.054 223.486 135.109C223.513 135.164 223.521 135.226 223.508 135.286C220.744 144.03 216.463 152.236 213.541 160.968C215.135 160.742 216.753 160.742 218.347 160.968C218.616 161.14 216.011 167.022 215.827 167.988C215.827 167.988 221.942 167.988 225.611 172.22C226.614 173.32 226.736 174.568 225.257 173.418Z" fill="#264653"/>
<path d="M211.378 116.746C223.094 130.944 247.419 121.54 247.419 121.54C247.748 125.084 249.213 128.426 251.595 131.071C253.977 133.715 257.149 135.519 260.639 136.215C260.639 136.215 256.42 161.751 262.938 163.573C272.881 166.362 285.624 133.549 284.402 126.028C283.179 118.507 275.242 114.398 275.242 114.398C275.242 114.398 276.098 109.078 271.304 102.633C266.02 95.4907 240.619 95.7598 240.619 95.7598C240.177 92.2568 238.92 88.9061 236.95 85.976C236.481 85.2511 235.87 84.6288 235.154 84.1468C234.437 83.6648 233.631 83.3332 232.782 83.172C231.934 83.0108 231.062 83.0234 230.218 83.209C229.375 83.3945 228.578 83.7492 227.876 84.2517C228.598 86.4329 228.815 88.7494 228.512 91.0269C227.607 98.597 221.7 96.8971 223.62 90.3543C224.254 87.8725 225.761 85.7019 227.864 84.2394C226.188 79.1152 221.822 76.3513 218.276 77.8189C211.794 80.4727 201.595 104.944 211.378 116.746Z" fill="#264653"/>
<path d="M264.237 128.804C264.258 128.766 264.287 128.733 264.322 128.707C264.356 128.68 264.395 128.661 264.437 128.649C264.479 128.638 264.523 128.635 264.566 128.64C264.61 128.646 264.651 128.66 264.689 128.682C264.727 128.703 264.76 128.732 264.786 128.767C264.813 128.801 264.833 128.841 264.844 128.883C264.855 128.925 264.858 128.969 264.853 129.012C264.847 129.055 264.833 129.097 264.811 129.134C262.328 133.762 260.403 138.668 259.076 143.749C257.963 148.824 257.009 162.093 264.591 162.717C264.657 162.731 264.717 162.767 264.759 162.819C264.802 162.871 264.825 162.937 264.825 163.004C264.825 163.072 264.802 163.137 264.759 163.19C264.717 163.242 264.657 163.278 264.591 163.292C259.222 164.209 257.706 157.177 257.363 152.554C256.703 144.189 260.115 135.922 264.237 128.804Z" fill="#264653"/>
<path d="M218.719 77.5869V77.6725C208.385 85.1204 202.625 98.2795 206.551 110.864C211.442 126.689 231.646 123.191 243.839 120.55C244.438 120.415 244.719 121.32 244.12 121.467C232.172 124.365 211.834 127.386 206.208 112.662C201.145 99.5391 207.382 84.9736 218.719 77.5869Z" fill="#264653"/>
<path d="M273.101 113.762C282.554 117.602 288.204 124.218 286.198 134.821C285.077 140.145 282.861 145.177 279.69 149.599C276.519 154.02 272.464 157.734 267.781 160.503C267.691 160.544 267.589 160.55 267.495 160.521C267.401 160.492 267.321 160.429 267.27 160.345C267.218 160.261 267.2 160.161 267.217 160.064C267.235 159.967 267.287 159.879 267.365 159.818C274.14 154.927 279.839 149.02 283.117 141.193C285.563 135.408 286.785 128.523 283.875 122.653C281.808 118.421 276.867 116.134 272.868 114.092C272.685 113.994 272.868 113.676 273.101 113.762Z" fill="#264653"/>
<path d="M237.063 97.019C251.372 93.0566 277.495 92.9099 275.134 114.226C275.134 114.397 274.816 114.373 274.829 114.226C276.052 92.5308 251.348 95.3436 237.161 97.6305C236.807 97.7161 236.733 97.1046 237.063 97.019Z" fill="#264653"/>
<path d="M260.518 164.135C260.518 164.135 271.623 152.065 277.224 156.198C282.825 160.332 273.225 178.713 265.765 180.401C264.824 180.675 263.837 180.757 262.864 180.643C261.89 180.53 260.949 180.222 260.097 179.739C259.244 179.255 258.497 178.606 257.899 177.829C257.302 177.052 256.866 176.163 256.617 175.215L260.518 164.135Z" fill="#E9C46A"/>
<path d="M274.337 161.396C274.363 161.396 274.388 161.406 274.406 161.425C274.424 161.443 274.435 161.468 274.435 161.494C274.435 161.52 274.424 161.545 274.406 161.563C274.388 161.581 274.363 161.592 274.337 161.592C269.09 162.937 265.849 167.205 263.33 171.742C265.067 170.104 267.219 169.358 269.445 171.461C269.567 171.571 269.445 171.755 269.274 171.706C268.435 171.311 267.495 171.186 266.583 171.345C265.67 171.505 264.829 171.943 264.174 172.598C263.091 173.715 262.131 174.945 261.312 176.267C261.019 176.683 260.248 176.341 260.481 175.852C260.496 175.812 260.517 175.775 260.542 175.741C261.312 169.345 267.439 161.127 274.337 161.396Z" fill="#264653"/>
<path d="M273.75 511.653C273.664 512.155 273.567 512.656 273.469 513.17C273.554 512.668 273.652 512.155 273.738 511.653H273.75Z" fill="#EBEBEB"/>
<path d="M311.144 90.7943C311.147 92.5606 310.625 94.2878 309.646 95.7576C308.666 97.2273 307.273 98.3735 305.642 99.0511C304.011 99.7287 302.215 99.9072 300.483 99.5641C298.75 99.2211 297.158 98.3717 295.908 97.1237C294.658 95.8756 293.807 94.2849 293.462 92.5528C293.116 90.8206 293.292 89.0249 293.967 87.3929C294.643 85.7609 295.787 84.3659 297.256 83.3843C298.724 82.4028 300.45 81.8789 302.217 81.8789C304.582 81.8789 306.851 82.8178 308.525 84.4894C310.199 86.161 311.141 88.4287 311.144 90.7943Z" fill="white"/>
<path d="M311.146 90.7946C311.148 92.6341 310.6 94.4321 309.573 95.9581C308.545 97.484 307.086 98.6684 305.381 99.3592C303.676 100.05 301.804 100.216 300.004 99.8356C298.204 99.4552 296.559 98.5459 295.279 97.2243C294 95.9027 293.144 94.229 292.822 92.4179C292.5 90.6068 292.727 88.7408 293.472 87.0591C294.218 85.3775 295.449 83.9569 297.007 82.9795C298.565 82.0021 300.38 81.5125 302.219 81.5734C304.61 81.6588 306.876 82.6667 308.54 84.3858C310.204 86.1049 311.138 88.4017 311.146 90.7946ZM311.146 90.7946C311.146 88.8092 310.46 86.8849 309.204 85.3467C307.949 83.8085 306.201 82.7507 304.256 82.3519C302.311 81.9531 300.288 82.2377 298.529 83.1578C296.77 84.0778 295.382 85.5769 294.6 87.4017C293.818 89.2266 293.689 91.2655 294.236 93.174C294.784 95.0825 295.973 96.7438 297.603 97.8771C299.233 99.0105 301.204 99.5465 303.184 99.3947C305.163 99.2429 307.03 98.4126 308.468 97.0439C309.313 96.2364 309.985 95.2666 310.445 94.1927C310.906 93.1188 311.144 91.963 311.146 90.7946Z" fill="#264653"/>
<path d="M378.626 42.7685C378.628 51.165 376.141 59.3737 371.479 66.357C366.817 73.3403 360.189 78.7846 352.434 82.0017C344.678 85.2188 336.142 86.0643 327.906 84.4312C319.67 82.7982 312.103 78.76 306.161 72.827C300.22 66.8941 296.171 59.3328 294.526 51.099C292.881 42.8652 293.714 34.3285 296.92 26.5682C300.126 18.8078 305.561 12.1721 312.537 7.50001C319.514 2.82788 327.719 0.329038 336.116 0.319364C341.695 0.312936 347.221 1.40608 352.377 3.53632C357.534 5.66657 362.22 8.79213 366.168 12.7344C370.116 16.6766 373.248 21.3583 375.386 26.5117C377.523 31.6651 378.624 37.1893 378.626 42.7685Z" fill="white"/>
<path d="M378.624 42.7685C378.637 54.0385 374.187 64.8552 366.247 72.8535C361.286 77.8861 355.156 81.6121 348.404 83.6988C341.653 85.7856 334.489 86.1683 327.554 84.8127C320.618 83.4571 314.126 80.4054 308.657 75.93C303.188 71.4545 298.912 65.6947 296.211 59.1644C293.51 52.6342 292.468 45.5368 293.177 38.5057C293.887 31.4746 296.326 24.7286 300.278 18.8697C304.229 13.0109 309.57 8.22156 315.823 4.9292C322.076 1.63683 329.047 -0.0561341 336.113 0.00141988C347.426 0.0773225 358.246 4.63841 366.198 12.6836C370.136 16.6398 373.256 21.3329 375.379 26.495C377.503 31.657 378.589 37.1868 378.575 42.7685H378.624ZM378.624 42.7685C378.622 37.2036 377.519 31.6941 375.378 26.5577C373.236 21.4213 370.099 16.7597 366.147 12.8418C362.195 8.92395 357.506 5.8273 352.352 3.73052C347.197 1.63374 341.678 0.578317 336.113 0.625135C329.212 0.686991 322.431 2.44288 316.367 5.73852C310.303 9.03416 305.141 13.7687 301.335 19.5261C297.529 25.2835 295.195 31.8875 294.539 38.758C293.882 45.6284 294.923 52.555 297.57 58.929C300.217 65.303 304.389 70.9294 309.719 75.3139C315.049 79.6983 321.374 82.7066 328.139 84.0744C334.904 85.4421 341.901 85.1275 348.516 83.1582C355.131 81.1889 361.161 77.6252 366.076 72.7801C374.046 64.8469 378.541 54.0748 378.575 42.8297L378.624 42.7685Z" fill="#264653"/>
<path d="M290.485 105.506C290.485 106.488 290.194 107.448 289.648 108.265C289.103 109.081 288.327 109.718 287.42 110.094C286.513 110.469 285.514 110.568 284.551 110.376C283.588 110.185 282.703 109.712 282.009 109.017C281.315 108.323 280.842 107.438 280.65 106.475C280.459 105.512 280.557 104.513 280.933 103.606C281.308 102.699 281.945 101.923 282.761 101.378C283.578 100.832 284.538 100.541 285.52 100.541C286.837 100.541 288.1 101.064 289.031 101.995C289.962 102.926 290.485 104.189 290.485 105.506Z" fill="white"/>
<path d="M290.488 105.507C290.485 106.852 289.97 108.145 289.047 109.124C288.125 110.103 286.865 110.694 285.523 110.778C284.815 110.813 284.107 110.707 283.44 110.468C282.772 110.229 282.159 109.86 281.634 109.384C280.986 108.79 280.497 108.043 280.21 107.212C279.924 106.381 279.849 105.491 279.993 104.624C280.138 103.756 280.496 102.939 281.036 102.245C281.576 101.551 282.281 101.003 283.086 100.651C283.891 100.298 284.772 100.152 285.648 100.226C286.524 100.299 287.368 100.591 288.103 101.073C288.838 101.555 289.441 102.213 289.858 102.988C290.274 103.762 290.491 104.628 290.488 105.507ZM290.488 105.507C290.49 104.868 290.36 104.237 290.107 103.65C289.854 103.064 289.483 102.536 289.017 102.099C288.552 101.662 288.001 101.326 287.4 101.11C286.799 100.895 286.16 100.806 285.523 100.847C284.613 100.905 283.74 101.227 283.011 101.774C282.282 102.322 281.729 103.071 281.421 103.928C281.112 104.786 281.061 105.715 281.274 106.602C281.487 107.488 281.955 108.293 282.62 108.917C283.284 109.54 284.117 109.956 285.015 110.112C285.913 110.269 286.838 110.159 287.674 109.797C288.51 109.434 289.223 108.835 289.723 108.073C290.223 107.31 290.489 106.419 290.488 105.507Z" fill="#264653"/>
<path d="M328.069 51.2435C328.04 49.2233 328.406 47.2169 329.145 45.3366C330.076 43.3618 331.638 41.7528 333.584 40.7627C334.257 40.3591 335.076 39.8944 336.03 39.3807C337.045 38.8512 338.01 38.2333 338.916 37.534C339.847 36.8341 340.653 35.9824 341.301 35.0147C341.958 34.031 342.299 32.8707 342.279 31.6883C342.289 30.8426 342.105 30.0059 341.741 29.2423C341.398 28.5423 340.913 27.9211 340.317 27.418C339.722 26.9149 339.028 26.5408 338.28 26.3195C337.509 26.0765 336.705 25.9528 335.896 25.9526C334.975 25.9419 334.06 26.1122 333.205 26.454C332.429 26.765 331.697 27.1761 331.028 27.6769C330.383 28.1939 329.796 28.7804 329.279 29.4258C328.808 30.0156 328.371 30.6322 327.971 31.2725L322.125 27.2489C322.686 25.906 323.467 24.6661 324.436 23.58C325.395 22.5118 326.508 21.5926 327.738 20.8528C328.982 20.1092 330.324 19.5452 331.725 19.1773C333.174 18.7954 334.666 18.6022 336.165 18.6025C337.871 18.6028 339.568 18.8499 341.203 19.3363C342.833 19.8199 344.35 20.6222 345.667 21.6966C347.03 22.8248 348.131 24.2351 348.896 25.8303C350.24 28.9141 350.503 32.3619 349.642 35.614C349.319 36.6801 348.828 37.6875 348.186 38.598C347.559 39.5072 346.815 40.3296 345.973 41.044C345.061 41.8045 344.097 42.4992 343.087 43.123C342.194 43.6611 341.289 44.1747 340.396 44.6762C339.532 45.1465 338.714 45.695 337.95 46.3149C337.229 46.8991 336.612 47.6022 336.128 48.394C335.642 49.2675 335.401 50.2564 335.431 51.2557L328.069 51.2435ZM328.203 66.8975V57.6518H335.663V66.9219L328.203 66.8975Z" fill="#E76F51"/>
</svg>
