<svg width="36" height="36" viewBox="0 0 36 36" fill="none" xmlns="http://www.w3.org/2000/svg">
<path d="M16.9324 4.5C12.646 4.5 9.14927 8.00866 9.14927 12.2951C9.14927 14.9154 10.4604 17.237 12.4558 18.6491C7.80167 20.514 4.5 25.0646 4.5 30.3742C4.50712 30.6951 4.63959 31.0004 4.86905 31.2248C5.0985 31.4492 5.4067 31.575 5.72766 31.575C6.04861 31.575 6.35681 31.4492 6.58627 31.2248C6.81572 31.0004 6.94819 30.6951 6.95531 30.3742C6.95531 24.7392 11.4988 20.1981 17.1338 20.1981C19.1009 20.1981 20.9267 20.7589 22.4809 21.7207C22.6185 21.8062 22.7716 21.8636 22.9314 21.8898C23.0913 21.916 23.2547 21.9104 23.4124 21.8734C23.5701 21.8363 23.719 21.7685 23.8504 21.6739C23.9819 21.5792 24.0934 21.4597 24.1785 21.3219C24.2637 21.184 24.3208 21.0308 24.3466 20.8709C24.3724 20.7109 24.3665 20.5474 24.3291 20.3898C24.2916 20.2322 24.2235 20.0835 24.1285 19.9523C24.0336 19.8211 23.9137 19.7099 23.7757 19.6251C23.0754 19.1917 22.3152 18.8524 21.5313 18.5605C23.4623 17.1411 24.7276 14.8631 24.7276 12.2951C24.7276 8.00866 21.2189 4.5 16.9324 4.5V4.5ZM16.9324 6.95762C19.8919 6.95762 22.2723 9.3356 22.2723 12.2951C22.2723 15.2546 19.8919 17.623 16.9324 17.623C13.9729 17.623 11.6046 15.2546 11.6046 12.2951C11.6046 9.3356 13.9729 6.95762 16.9324 6.95762V6.95762ZM29.3577 21.692C29.1581 21.6977 28.963 21.752 28.7892 21.8502C28.6154 21.9483 28.4681 22.0875 28.3602 22.2554L24.1281 28.5976L21.4738 26.8208C21.3392 26.7303 21.1881 26.6672 21.0291 26.6353C20.8701 26.6033 20.7063 26.603 20.5472 26.6344C20.3881 26.6659 20.2367 26.7285 20.1018 26.8185C19.9669 26.9085 19.8511 27.0243 19.761 27.1592C19.671 27.2941 19.6084 27.4453 19.5769 27.6044C19.5454 27.7635 19.5457 27.9274 19.5776 28.0864C19.6095 28.2454 19.6725 28.3965 19.7629 28.5312C19.8534 28.6658 19.9695 28.7812 20.1047 28.8709L23.7948 31.3262C23.9293 31.4154 24.08 31.4772 24.2383 31.5082C24.3966 31.5391 24.5595 31.5384 24.7176 31.5063C24.8757 31.4743 25.0259 31.4114 25.1597 31.3212C25.2935 31.2311 25.4082 31.1155 25.4973 30.981L30.4103 23.6127C30.5384 23.4255 30.6122 23.2064 30.6234 22.9799C30.6346 22.7533 30.5828 22.528 30.4738 22.3291C30.3648 22.1301 30.2027 21.9653 30.0057 21.8529C29.8087 21.7404 29.5844 21.6847 29.3577 21.692V21.692Z" fill="#2A9D8F"/>
</svg>
