<svg width="136" height="136" viewBox="0 0 136 136" fill="none" xmlns="http://www.w3.org/2000/svg">
<g filter="url(#filter0_d_8_219950)">
<circle cx="62" cy="58" r="33" fill="#F4F9FF"/>
</g>
<path d="M60.9324 44.5C56.646 44.5 53.1493 48.0087 53.1493 52.2951C53.1493 54.9154 54.4604 57.237 56.4558 58.6491C51.8017 60.514 48.5 65.0646 48.5 70.3742C48.5071 70.6951 48.6396 71.0004 48.869 71.2248C49.0985 71.4492 49.4067 71.575 49.7277 71.575C50.0486 71.575 50.3568 71.4492 50.5863 71.2248C50.8157 71.0004 50.9482 70.6951 50.9553 70.3742C50.9553 64.7392 55.4988 60.1981 61.1338 60.1981C63.1009 60.1981 64.9267 60.7589 66.4809 61.7207C66.6185 61.8062 66.7716 61.8636 66.9314 61.8898C67.0913 61.916 67.2547 61.9104 67.4124 61.8734C67.5701 61.8363 67.719 61.7685 67.8504 61.6739C67.9819 61.5792 68.0934 61.4597 68.1785 61.3218C68.2637 61.184 68.3208 61.0308 68.3466 60.8709C68.3724 60.7109 68.3665 60.5474 68.3291 60.3898C68.2916 60.2322 68.2235 60.0835 68.1285 59.9523C68.0336 59.8211 67.9137 59.7099 67.7757 59.6251C67.0754 59.1917 66.3152 58.8524 65.5313 58.5605C67.4623 57.1411 68.7276 54.8631 68.7276 52.2951C68.7276 48.0087 65.2189 44.5 60.9324 44.5ZM60.9324 46.9576C63.8919 46.9576 66.2723 49.3356 66.2723 52.2951C66.2723 55.2546 63.8919 57.623 60.9324 57.623C57.9729 57.623 55.6046 55.2546 55.6046 52.2951C55.6046 49.3356 57.9729 46.9576 60.9324 46.9576ZM73.3577 61.692C73.1581 61.6978 72.963 61.752 72.7892 61.8502C72.6154 61.9483 72.4681 62.0875 72.3602 62.2554L68.1281 68.5976L65.4738 66.8208C65.3392 66.7303 65.1881 66.6672 65.0291 66.6353C64.8701 66.6033 64.7063 66.603 64.5472 66.6344C64.3881 66.6658 64.2367 66.7285 64.1018 66.8185C63.9669 66.9085 63.8511 67.0243 63.761 67.1592C63.671 67.2941 63.6084 67.4453 63.5769 67.6044C63.5454 67.7635 63.5457 67.9274 63.5776 68.0864C63.6095 68.2454 63.6725 68.3965 63.7629 68.5312C63.8534 68.6658 63.9695 68.7812 64.1047 68.8709L67.7948 71.3262C67.9293 71.4154 68.08 71.4772 68.2383 71.5082C68.3966 71.5391 68.5595 71.5384 68.7176 71.5063C68.8757 71.4743 69.0259 71.4114 69.1597 71.3212C69.2935 71.2311 69.4082 71.1155 69.4973 70.981L74.4103 63.6127C74.5384 63.4255 74.6122 63.2064 74.6234 62.9799C74.6346 62.7533 74.5828 62.528 74.4738 62.3291C74.3648 62.1301 74.2027 61.9653 74.0057 61.8529C73.8087 61.7404 73.5844 61.6847 73.3577 61.692Z" fill="#2A9D8F"/>
<defs>
<filter id="filter0_d_8_219950" x="0" y="0" width="136" height="136" filterUnits="userSpaceOnUse" color-interpolation-filters="sRGB">
<feFlood flood-opacity="0" result="BackgroundImageFix"/>
<feColorMatrix in="SourceAlpha" type="matrix" values="0 0 0 0 0 0 0 0 0 0 0 0 0 0 0 0 0 0 127 0" result="hardAlpha"/>
<feOffset dx="6" dy="10"/>
<feGaussianBlur stdDeviation="17.5"/>
<feComposite in2="hardAlpha" operator="out"/>
<feColorMatrix type="matrix" values="0 0 0 0 0 0 0 0 0 0 0 0 0 0 0 0 0 0 0.01 0"/>
<feBlend mode="normal" in2="BackgroundImageFix" result="effect1_dropShadow_8_219950"/>
<feBlend mode="normal" in="SourceGraphic" in2="effect1_dropShadow_8_219950" result="shape"/>
</filter>
</defs>
</svg>
