<svg width="497" height="521" viewBox="0 0 497 521" fill="none" xmlns="http://www.w3.org/2000/svg">
<path d="M471.393 133.117C456.605 140.981 445.273 154.51 437.124 169.403C428.974 184.296 423.72 200.658 418.524 216.879L413.945 300.582C431.114 270.549 444.941 235.239 448.673 200.67L437.227 199.623C444.907 198.448 451.351 192.712 455.449 185.941C459.546 179.171 461.652 171.378 463.713 163.69L449.817 165.783C460.823 158.139 468.547 146.444 471.393 133.117Z" fill="#E0E0E0"/>
<path d="M411.429 320.189C411.429 320.189 374.092 274.347 374.527 230.551H389.602C389.602 230.551 373.222 219.502 374.527 213.307C375.832 207.112 376.244 183.674 376.244 183.674L389.979 187.201C389.979 187.201 379.678 181.899 378.35 173.495C377.022 165.091 381.36 126.172 381.36 126.172C381.36 126.172 398.163 144.309 403.337 162.881C408.511 181.453 422.074 203.128 418.091 259.725C414.108 316.322 411.429 320.189 411.429 320.189Z" fill="#EBEBEB"/>
<path d="M430.359 324.526C430.359 324.526 470.797 296.868 479.783 261.57L467.661 258.184C467.661 258.184 483.182 252.977 483.468 247.711C483.754 242.445 488.39 223.497 488.39 223.497L476.555 223.25C476.555 223.25 485.998 221.299 488.825 214.834C491.652 208.369 496.494 176.115 496.494 176.115C496.494 176.115 479.107 186.918 470.992 200.658C462.877 214.399 447.344 228.869 438.485 275.24C429.626 321.611 430.359 324.526 430.359 324.526Z" fill="#EBEBEB"/>
<path d="M391.609 166.172C391.667 166.328 391.709 166.489 391.735 166.654L392.056 168.064C392.33 169.334 392.731 171.167 393.2 173.507C393.67 175.846 394.345 178.773 394.963 182.146C395.581 185.52 396.394 189.351 397.149 193.607C398.74 202.117 400.423 212.284 402.163 223.592C403.902 234.9 405.516 247.383 407.016 260.501C408.515 273.619 409.614 286.172 410.45 297.586C411.285 308.999 411.892 319.296 412.235 327.947C412.453 332.273 412.544 336.175 412.659 339.631C412.773 343.087 412.83 346.025 412.853 348.447C412.876 350.868 412.91 352.714 412.922 354.018V355.476C412.922 355.793 412.922 355.97 412.922 355.97C412.903 355.806 412.903 355.64 412.922 355.476C412.922 355.112 412.922 354.641 412.865 354.018C412.865 352.714 412.762 350.845 412.682 348.447C412.601 346.049 412.521 343.075 412.373 339.643C412.224 336.211 412.109 332.285 411.869 327.971C411.48 319.32 410.816 309.034 409.957 297.633C409.099 286.231 407.897 273.689 406.432 260.571C404.967 247.453 403.284 234.994 401.625 223.674C399.965 212.355 398.282 202.199 396.749 193.689C396.016 189.422 395.272 185.59 394.643 182.205C394.013 178.82 393.498 175.928 392.983 173.554C392.468 171.179 392.17 169.369 391.918 168.088C391.804 167.488 391.724 167.018 391.655 166.666C391.625 166.503 391.61 166.338 391.609 166.172Z" fill="#E0E0E0"/>
<path d="M406.243 348.27C406.243 348.27 372.088 308.493 361.478 284.443L369.49 280.917C363.676 281.904 357.735 279.342 353.237 275.451C348.738 271.561 345.431 266.483 342.226 261.417L352.767 259.595C343.079 256.754 334.828 250.191 329.727 241.27C342.168 243.374 353.431 250.391 362.714 259.16C370.223 266.212 376.587 274.511 382.699 282.927C385.687 287.034 388.289 291.422 390.471 296.033C396.171 308.211 406.324 333.659 406.243 348.27Z" fill="#EBEBEB"/>
<path d="M480.309 199.271C480.27 199.414 480.216 199.552 480.148 199.683C480.011 199.965 479.839 200.353 479.622 200.858C479.13 201.893 478.42 203.374 477.527 205.266C476.634 207.159 475.501 209.51 474.231 212.248C472.96 214.987 471.495 218.067 469.95 221.522C466.791 228.411 463.174 236.674 459.271 245.913C455.368 255.152 451.258 265.39 447.207 276.216C443.155 287.041 439.469 297.456 436.276 306.977C433.082 316.498 430.369 325.114 428.195 332.39C427.05 336.01 426.134 339.325 425.276 342.216C424.417 345.108 423.708 347.612 423.136 349.657C422.563 351.702 422.105 353.254 421.796 354.359L421.43 355.534C421.391 355.675 421.341 355.812 421.281 355.945C421.297 355.798 421.328 355.652 421.373 355.511C421.441 355.205 421.545 354.794 421.682 354.276C421.968 353.16 422.38 351.573 422.918 349.575C423.456 347.576 424.131 345.014 424.955 342.111C425.78 339.207 426.684 335.881 427.783 332.249C429.912 324.961 432.613 316.321 435.795 306.777C438.977 297.232 442.662 286.794 446.691 275.98C450.72 265.166 454.921 254.917 458.813 245.678C462.705 236.439 466.413 228.199 469.618 221.334C471.186 217.879 472.685 214.799 473.979 212.084C475.272 209.368 476.417 207.041 477.413 205.149L479.599 200.788C479.851 200.318 480.045 199.926 480.183 199.612C480.219 199.496 480.261 199.383 480.309 199.271Z" fill="#E0E0E0"/>
<path d="M409.137 365.325C409.069 365.082 409.02 364.835 408.988 364.585C408.908 364.044 408.793 363.339 408.667 362.481C408.541 361.623 408.37 360.435 408.141 359.142C407.912 357.849 407.694 356.357 407.351 354.735C406.744 351.479 405.863 347.623 404.753 343.392C403.643 339.16 402.177 334.576 400.449 329.839C398.721 325.102 396.798 320.694 394.944 316.744C393.089 312.795 391.235 309.327 389.598 306.471C388.808 305.025 388.019 303.768 387.309 302.639C386.599 301.511 386.05 300.547 385.546 299.771L384.402 297.973C384.257 297.769 384.138 297.548 384.047 297.314C384.218 297.495 384.371 297.692 384.505 297.902L385.707 299.642C386.233 300.394 386.851 301.334 387.549 302.451C388.248 303.568 389.06 304.802 389.839 306.248C391.533 309.092 393.398 312.56 395.321 316.498C397.244 320.435 399.133 324.878 400.895 329.627C402.658 334.376 404.032 339.031 405.165 343.251C406.298 347.47 407.088 351.373 407.649 354.652C407.969 356.286 408.152 357.779 408.347 359.084C408.541 360.388 408.69 361.517 408.782 362.445C408.873 363.374 408.942 364.021 408.988 364.573C409.068 364.816 409.118 365.069 409.137 365.325Z" fill="#E0E0E0"/>
<path d="M454.211 355.969H379.445V371.626H454.211V355.969Z" fill="#E0E0E0"/>
<path d="M386.578 371.613L394.659 424.273H439.837L447.38 371.613H386.578Z" fill="#E0E0E0"/>
<path d="M449.635 371.615C449.635 371.791 435.488 371.921 418.044 371.921C400.6 371.921 386.453 371.791 386.453 371.615C386.453 371.438 400.6 371.309 418.044 371.309C435.488 371.309 449.635 371.45 449.635 371.615Z" fill="#EBEBEB"/>
<path d="M332.334 70.3734C331.327 74.3039 329.636 78.0152 327.344 81.3285L332.254 86.0302L353.2 105.448L352.708 105.684C352.708 105.684 370.839 92.6832 375.852 88.4399C379.984 84.9136 391.041 77.7199 391.945 70.7143C392.097 69.4693 391.864 68.207 391.281 67.1044C390.698 66.0018 389.794 65.1144 388.695 64.5667C387.942 64.1728 387.097 64.0004 386.255 64.0689C385.412 64.1374 384.605 64.4439 383.922 64.9546C383.922 64.9546 388.798 59.0775 384.94 55.222C381.083 51.3666 378.073 54.3875 378.073 54.3875C378.073 54.3875 382.846 46.9234 378.416 42.7859C377.499 42.0633 376.39 41.6428 375.236 41.5799C374.081 41.5169 372.936 41.8144 371.949 42.4333L373.746 40.4585L383.006 30.2205C384.11 29.0331 384.726 27.4544 384.726 25.8126C384.726 24.1708 384.11 22.5921 383.006 21.4047C382.438 20.8146 381.761 20.3474 381.014 20.0307C380.268 19.714 379.467 19.5542 378.659 19.5607C377.851 19.5673 377.053 19.7401 376.311 20.069C375.57 20.3978 374.9 20.876 374.341 21.4752L348.29 49.4741L349.618 34.1935C349.95 30.2322 344.742 27.3642 342.43 28.8217C342.43 28.8217 338.87 30.244 337.851 36.4385C337.176 41.1168 332.334 70.3734 332.334 70.3734Z" fill="#F5F5F5"/>
<path d="M332.334 70.3734C332.334 70.3734 332.334 70.1148 332.426 69.6094C332.517 69.1039 332.609 68.3517 332.758 67.3878C333.067 65.4131 333.513 62.545 334.097 58.8424L336.271 45.3013C336.699 42.6605 337.153 39.8355 337.634 36.8264C337.835 35.2488 338.287 33.716 338.973 32.2892C339.686 30.7321 340.87 29.4538 342.349 28.6454C343.275 28.1753 344.343 28.0952 345.325 28.4221C346.295 28.7351 347.188 29.256 347.946 29.9501C348.765 30.6556 349.372 31.5848 349.698 32.6301C349.778 32.9005 349.801 33.1826 349.858 33.4529C349.915 33.7233 349.858 34.0289 349.858 34.2992L349.721 35.9096C349.354 40.2352 348.973 44.7645 348.576 49.4976L348.095 49.2743L371.823 23.8143C372.361 23.2501 372.887 22.6389 373.425 22.0982C373.949 21.4834 374.532 20.9242 375.165 20.4291C376.546 19.4676 378.236 19.0927 379.881 19.3829C380.713 19.5303 381.508 19.8484 382.218 20.3182C382.928 20.7881 383.538 21.4001 384.013 22.1177C384.487 22.8352 384.816 23.6436 384.979 24.4946C385.142 25.3455 385.137 26.2216 384.963 27.0703C384.796 27.9311 384.474 28.7523 384.013 29.4917C383.527 30.1748 382.984 30.8121 382.388 31.3959L379.023 35.0985L372.155 42.6096L371.754 42.0806C373.105 41.2727 374.7 41.0088 376.23 41.3401C376.871 41.4849 377.486 41.735 378.05 42.0806C378.345 42.2458 378.609 42.4649 378.828 42.7271C379.063 42.9662 379.278 43.2258 379.469 43.5029C380.227 44.6017 380.627 45.918 380.614 47.2643C380.486 49.8466 379.696 52.3485 378.324 54.5168L377.821 54.0936C378.446 53.5256 379.207 53.1391 380.026 52.9738C380.844 52.8085 381.691 52.8705 382.479 53.1532C383.249 53.4491 383.958 53.8874 384.574 54.4462C384.884 54.6976 385.168 54.9812 385.421 55.2925L385.821 55.7627L386.131 56.3034C386.479 57.0295 386.68 57.8207 386.721 58.6289C386.762 59.4372 386.643 60.2456 386.371 61.0052C385.876 62.4959 385.128 63.8848 384.162 65.1074L383.738 64.6255C384.41 64.1309 385.191 63.8178 386.012 63.7151C386.832 63.6124 387.664 63.7234 388.431 64.0378C389.553 64.4954 390.518 65.2825 391.206 66.3008C391.894 67.319 392.275 68.523 392.3 69.7622C392.282 70.5592 392.159 71.3501 391.934 72.113C391.422 73.5767 390.696 74.952 389.782 76.1918C386.108 81.0229 381.335 84.4199 377.042 87.7699C372.75 91.1199 368.504 94.4111 364.452 97.4085L352.834 105.813L352.594 105.39L353.086 105.155L353.029 105.566L332.151 86.1595H332.368L332.254 86.2771L332.139 86.1713L327.252 81.4695L327.172 81.3872L327.241 81.2932C328.942 78.8508 330.327 76.1916 331.361 73.3825C331.716 72.4304 331.945 71.6781 332.094 71.1727C332.242 70.6673 332.334 70.4204 332.334 70.4204C332.124 71.4434 331.841 72.4491 331.487 73.4295C330.501 76.2815 329.142 78.9824 327.447 81.4578V81.2815C328.866 82.6332 330.445 84.126 332.368 85.9832H332.151L332.254 85.8657L332.38 85.9714L353.372 105.319L353.647 105.566L353.315 105.719L352.822 105.954L352.525 105.448L364.108 96.997C368.137 93.9879 372.407 90.873 376.642 87.3467C380.877 83.8204 385.684 80.5762 389.232 75.8509C390.105 74.6692 390.796 73.3571 391.281 71.9602C391.485 71.2574 391.601 70.5305 391.625 69.7974C391.602 69.0651 391.447 68.3436 391.167 67.6699C390.585 66.2969 389.499 65.2154 388.145 64.6608C387.472 64.388 386.743 64.2935 386.025 64.3859C385.307 64.4784 384.623 64.7548 384.036 65.1897L382.285 66.518L383.681 64.7313C384.593 63.5767 385.295 62.2627 385.753 60.8524C386.009 60.17 386.124 59.4402 386.091 58.7097C386.057 57.9791 385.876 57.2637 385.558 56.609C384.801 55.3337 383.648 54.3568 382.285 53.835C381.611 53.5914 380.887 53.5349 380.186 53.6712C379.484 53.8074 378.83 54.1315 378.29 54.6108L376.71 56.0801L377.798 54.2111C379.102 52.1526 379.853 49.776 379.973 47.3231C380.04 46.1172 379.69 44.9257 378.984 43.9597C378.278 42.9936 377.262 42.3155 376.115 42.0454C374.744 41.7531 373.315 41.9961 372.109 42.7271L370.289 43.7615L371.708 42.2099L378.576 34.6989C379.713 33.4608 380.835 32.2266 381.941 30.9963C382.493 30.4223 382.991 29.7966 383.429 29.1273C383.844 28.4591 384.135 27.7179 384.288 26.941C384.443 26.1735 384.447 25.3818 384.299 24.6127C384.152 23.8436 383.856 23.1126 383.429 22.4626C382.999 21.827 382.451 21.2849 381.817 20.8674C381.183 20.4498 380.474 20.1651 379.732 20.0294C378.253 19.7605 376.73 20.0936 375.486 20.958C374.887 21.4303 374.335 21.9618 373.837 22.5449L372.235 24.261L348.484 49.6622L347.946 50.2029L348.027 49.4036C348.439 44.7019 348.839 40.1412 349.228 35.8273C349.418 34.802 349.418 33.7494 349.228 32.7241C348.932 31.7722 348.38 30.9251 347.637 30.2792C346.924 29.6291 346.08 29.1476 345.165 28.8687C344.308 28.5731 343.374 28.6279 342.555 29.0215C341.18 29.7856 340.078 30.9795 339.408 32.4303C338.734 33.8105 338.29 35.2962 338.091 36.8264C337.588 39.8238 337.107 42.7036 336.672 45.3013C335.779 50.5673 335.012 55.1045 334.383 58.8189C333.753 62.5332 333.238 65.3778 332.918 67.3408C332.746 68.3046 332.62 69.0334 332.517 69.5506C332.414 70.0678 332.334 70.3734 332.334 70.3734Z" fill="#E0E0E0"/>
<path d="M320.525 81.5252L320.76 81.2676C321.641 80.2997 322.86 79.7309 324.149 79.6863C325.439 79.6417 326.693 80.1249 327.635 81.0297L353.439 105.801C354.379 106.704 354.932 107.953 354.975 109.274C355.019 110.595 354.549 111.879 353.67 112.845L353.436 113.103C352.555 114.071 351.335 114.639 350.046 114.684C348.756 114.729 347.503 114.245 346.56 113.341L320.765 88.5775C319.824 87.6748 319.272 86.4256 319.228 85.1045C319.185 83.7835 319.654 82.4989 320.533 81.5332L320.525 81.5252Z" fill="#F5F5F5"/>
<path d="M346.547 113.312C346.547 113.312 346.822 113.547 347.406 113.888C348.133 114.313 348.956 114.536 349.792 114.536C350.629 114.536 351.451 114.313 352.179 113.888C352.88 113.435 353.484 112.839 353.953 112.137C354.51 111.286 354.786 110.274 354.741 109.249C354.696 108.225 354.331 107.243 353.701 106.448L327.375 81.258C326.772 80.6798 326.029 80.2796 325.223 80.0996C324.417 79.9196 323.579 79.9665 322.797 80.2353C322.054 80.5161 321.384 80.9669 320.837 81.5535C320.289 82.14 319.879 82.847 319.638 83.6206C319.427 84.3748 319.404 85.171 319.57 85.9368C319.736 86.7026 320.086 87.4136 320.588 88.005C321.675 89.1216 322.877 90.2265 323.964 91.2844L335.742 102.698L343.64 110.421L345.769 112.548C346.027 112.785 346.264 113.045 346.479 113.324C346.195 113.118 345.927 112.89 345.677 112.642L343.468 110.609L335.456 103.039L323.587 91.7428C322.442 90.6614 321.297 89.6271 320.153 88.4281C319.569 87.7631 319.159 86.9579 318.959 86.0868C318.759 85.2157 318.776 84.3068 319.008 83.4443C319.281 82.5657 319.745 81.7627 320.366 81.0965C320.987 80.4304 321.748 79.9187 322.591 79.6006C323.475 79.3079 324.42 79.2626 325.327 79.4692C326.234 79.6758 327.072 80.1268 327.753 80.776C338.054 90.6615 347.326 99.583 353.976 106.165C354.652 107.04 355.036 108.114 355.071 109.23C355.106 110.345 354.79 111.443 354.17 112.36C353.665 113.1 353.009 113.717 352.247 114.17C351.6 114.537 350.88 114.75 350.141 114.793C349.126 114.855 348.117 114.588 347.257 114.029C346.986 113.829 346.747 113.587 346.547 113.312Z" fill="#E0E0E0"/>
<path d="M362.273 52.5527C363.693 50.5145 365.282 48.607 367.024 46.8518C368.608 44.9485 370.355 43.194 372.243 41.6094C370.827 43.6472 369.242 45.5547 367.504 47.3102C365.918 49.2155 364.167 50.9701 362.273 52.5527Z" fill="#E0E0E0"/>
<path d="M372.141 60.6527C372.873 59.3444 373.791 58.1558 374.865 57.1264C375.784 55.965 376.859 54.9438 378.058 54.0938C377.331 55.4051 376.412 56.5943 375.334 57.6201C374.422 58.7879 373.346 59.8099 372.141 60.6527Z" fill="#E0E0E0"/>
<path d="M378.016 71.43C378.748 70.122 379.666 68.9335 380.74 67.9037C381.652 66.7351 382.733 65.7164 383.945 64.8828C383.211 66.1899 382.293 67.3782 381.221 68.4091C380.305 69.5751 379.225 70.5934 378.016 71.43Z" fill="#E0E0E0"/>
<path d="M376.963 14.7982C375.798 12.4914 374.833 10.0843 374.078 7.6045C373.11 5.20412 372.344 2.72265 371.789 0.1875C372.95 2.49575 373.915 4.90256 374.673 7.38117C375.642 9.78155 376.408 12.263 376.963 14.7982Z" fill="#E0E0E0"/>
<path d="M383.773 16.5031C385.318 13.5752 387.05 10.7558 388.959 8.0635C390.689 5.24754 392.601 2.55369 394.682 0C393.132 2.9278 391.397 5.74717 389.485 8.43964C387.761 11.2568 385.852 13.9508 383.773 16.5031Z" fill="#E0E0E0"/>
<path d="M388.727 22.4867C391.219 21.6127 393.776 20.9444 396.373 20.4885C398.923 19.8216 401.522 19.3695 404.144 19.1367C401.66 20.0276 399.106 20.7 396.51 21.1467C393.956 21.814 391.353 22.2622 388.727 22.4867Z" fill="#E0E0E0"/>
<path d="M60.5658 271.654L23.8125 424.261H33.4844L71.1419 271.654H60.5658Z" fill="#F5F5F5"/>
<path d="M129.799 271.654L164.182 424.261H154.511L119.211 271.654H129.799Z" fill="#F5F5F5"/>
<path d="M101.063 422.017H89.7998L88.1172 246.865H99.3801L101.063 422.017Z" fill="#F5F5F5"/>
<path d="M173.21 144.002H14.3047V248.545H173.21V144.002Z" fill="#EBEBEB"/>
<path d="M133.678 270.057H53.9219V280.154H133.678V270.057Z" fill="#F5F5F5"/>
<path d="M24.8579 234.911C24.956 235.545 24.9943 236.186 24.9724 236.827H24.7549C24.5947 231.714 24.4688 214.776 24.4688 194.7C24.4688 182.593 24.5603 171.626 24.5832 163.562C24.5832 159.66 24.6748 156.51 24.7091 154.159C24.7091 153.113 24.7091 152.266 24.7778 151.585C24.7775 151.285 24.8044 150.986 24.8579 150.691C24.9261 150.984 24.9531 151.285 24.938 151.585C24.938 152.266 24.938 153.113 25.0182 154.159C25.0182 156.51 25.0868 159.695 25.1441 163.562C25.1441 171.626 25.2127 182.593 25.2585 194.7C25.2585 214.776 25.1326 231.714 24.9724 236.827H24.7549C24.742 236.187 24.7764 235.547 24.8579 234.911Z" fill="#F5F5F5"/>
<path d="M36.6944 234.911C36.7759 235.547 36.8103 236.187 36.7974 236.827H36.6143C36.454 231.714 36.3281 214.776 36.3281 194.7C36.3281 182.593 36.4197 171.626 36.4426 163.562C36.4998 159.66 36.5456 156.51 36.5685 154.159C36.5685 153.113 36.5685 152.266 36.6486 151.585C36.6335 151.285 36.6605 150.984 36.7287 150.691C36.7811 150.986 36.8041 151.285 36.7974 151.585C36.7974 152.266 36.7974 153.113 36.8775 154.159C36.8775 156.51 36.9462 159.695 37.0034 163.562C37.0034 171.626 37.0721 182.593 37.1179 194.7C37.1179 214.776 36.992 231.714 36.8318 236.827H36.6143C36.581 236.188 36.6078 235.546 36.6944 234.911Z" fill="#F5F5F5"/>
<path d="M48.5142 234.911C48.5957 235.547 48.6301 236.187 48.6172 236.827H48.3997C48.2395 231.714 48.125 214.776 48.125 194.7C48.125 182.593 48.2051 171.626 48.2395 163.562C48.2395 159.66 48.331 156.51 48.3654 154.159C48.3654 153.113 48.3654 152.266 48.434 151.585C48.4263 151.285 48.4532 150.985 48.5142 150.691C48.5752 150.985 48.6021 151.285 48.5943 151.585C48.5943 152.266 48.5943 153.113 48.663 154.159C48.663 156.51 48.7431 159.695 48.7889 163.562C48.7889 171.626 48.8575 182.593 48.9033 194.7C48.9033 214.776 48.7889 231.714 48.6172 236.827H48.3997C48.3854 236.187 48.4237 235.546 48.5142 234.911Z" fill="#F5F5F5"/>
<path d="M60.3423 234.911C60.4328 235.546 60.4711 236.187 60.4568 236.827H60.2393C60.0676 231.714 59.9531 214.776 59.9531 194.7C59.9531 182.593 60.0332 171.626 60.0676 163.562C60.0676 159.66 60.1592 156.51 60.1935 154.159C60.1935 153.113 60.2507 152.266 60.2622 151.585C60.2544 151.285 60.2813 150.985 60.3423 150.691C60.4033 150.985 60.4302 151.285 60.4224 151.585C60.4224 152.266 60.4224 153.113 60.4911 154.159C60.4911 156.51 60.5712 159.695 60.617 163.562C60.617 171.626 60.6857 182.593 60.7315 194.7C60.7315 214.776 60.617 231.714 60.4568 236.827H60.2393C60.2264 236.187 60.2608 235.547 60.3423 234.911Z" fill="#F5F5F5"/>
<path d="M72.1673 234.911C72.2654 235.545 72.3037 236.186 72.2818 236.827H72.0987C71.9384 231.714 71.8125 214.776 71.8125 194.7C71.8125 182.593 71.9041 171.626 71.927 163.562C71.9842 159.66 72.0185 156.51 72.0529 154.159C72.0529 153.113 72.0529 152.266 72.1215 151.585C72.1213 151.285 72.1481 150.986 72.2017 150.691C72.2699 150.984 72.2969 151.285 72.2818 151.585C72.2818 152.266 72.2818 153.113 72.3619 154.159C72.3619 156.51 72.4306 159.695 72.4878 163.562C72.4878 171.626 72.5565 182.593 72.6023 194.7C72.6023 214.776 72.4764 231.714 72.3161 236.827H72.0987C72.0743 236.188 72.0973 235.547 72.1673 234.911Z" fill="#F5F5F5"/>
<path d="M84.0022 234.911C84.0837 235.547 84.1181 236.187 84.1052 236.827H83.8877C83.7275 231.714 83.6016 214.776 83.6016 194.7C83.6016 182.593 83.6931 171.626 83.716 163.562C83.716 159.66 83.819 156.51 83.8419 154.159C83.8419 153.113 83.8419 152.266 83.9221 151.585C83.907 151.285 83.9339 150.984 84.0022 150.691C84.0546 150.986 84.0776 151.285 84.0708 151.585C84.0708 152.266 84.0708 153.113 84.151 154.159C84.151 156.51 84.2196 159.695 84.2769 163.562C84.2769 171.626 84.3456 182.593 84.3913 194.7C84.3913 214.776 84.2654 231.714 84.1052 236.827H83.8877C83.8658 236.186 83.9041 235.545 84.0022 234.911Z" fill="#F5F5F5"/>
<path d="M95.8267 234.911C95.9082 235.547 95.9426 236.187 95.9297 236.827H95.7122C95.552 231.714 95.4375 214.776 95.4375 194.7C95.4375 182.593 95.5176 171.626 95.552 163.562C95.552 159.66 95.6435 156.51 95.6779 154.159C95.6779 153.113 95.6779 152.266 95.7465 151.585C95.7388 151.285 95.7657 150.985 95.8267 150.691C95.8877 150.985 95.9146 151.285 95.9068 151.585C95.9068 152.266 95.9068 153.113 95.9755 154.159C95.9755 156.51 96.0556 159.695 96.1014 163.562C96.1014 171.626 96.17 182.593 96.2158 194.7C96.2158 214.776 96.1014 231.714 95.9297 236.827H95.7122C95.6979 236.187 95.7362 235.546 95.8267 234.911Z" fill="#F5F5F5"/>
<path d="M107.644 234.911C107.734 235.546 107.773 236.187 107.758 236.827H107.575C107.404 231.714 107.289 214.776 107.289 194.7C107.289 182.593 107.369 171.626 107.404 163.562C107.404 159.66 107.495 156.51 107.529 154.159C107.529 153.113 107.529 152.266 107.598 151.585C107.59 151.285 107.617 150.985 107.678 150.691C107.739 150.985 107.766 151.285 107.758 151.585C107.758 152.266 107.758 153.113 107.827 154.159C107.827 156.51 107.907 159.695 107.953 163.562C107.953 171.626 108.022 182.593 108.067 194.7C108.067 214.776 107.953 231.714 107.793 236.827H107.575C107.551 236.188 107.574 235.547 107.644 234.911Z" fill="#F5F5F5"/>
<path d="M119.467 234.911C119.565 235.545 119.604 236.186 119.582 236.827H119.364C119.204 231.714 119.078 214.776 119.078 194.7C119.078 182.593 119.17 171.626 119.193 163.562C119.193 159.66 119.284 156.51 119.318 154.159C119.318 153.113 119.376 152.266 119.387 151.585C119.387 151.285 119.414 150.986 119.467 150.691C119.536 150.984 119.563 151.285 119.547 151.585C119.547 152.266 119.547 153.113 119.628 154.159C119.628 156.51 119.696 159.695 119.753 163.562C119.753 171.626 119.822 182.593 119.868 194.7C119.868 214.776 119.742 231.714 119.582 236.827H119.364C119.351 236.187 119.386 235.547 119.467 234.911Z" fill="#F5F5F5"/>
<path d="M131.307 234.911C131.388 235.547 131.423 236.187 131.41 236.827H131.192C131.032 231.714 130.906 214.776 130.906 194.7C130.906 182.593 130.998 171.626 131.021 163.562C131.078 159.66 131.124 156.51 131.147 154.159C131.147 153.113 131.147 152.266 131.227 151.585C131.212 151.285 131.239 150.984 131.307 150.691C131.36 150.986 131.387 151.285 131.387 151.585C131.387 152.266 131.387 153.113 131.456 154.159C131.456 156.51 131.524 159.695 131.582 163.562C131.582 171.626 131.65 182.593 131.696 194.7C131.696 214.776 131.57 231.714 131.41 236.827H131.192C131.17 236.186 131.209 235.545 131.307 234.911Z" fill="#F5F5F5"/>
<path d="M143.132 234.911C143.214 235.547 143.248 236.187 143.235 236.827H143.064C142.904 231.714 142.789 214.776 142.789 194.7C142.789 182.593 142.869 171.626 142.904 163.562C142.904 159.66 142.995 156.51 143.029 154.159C143.029 153.113 143.029 152.266 143.098 151.585C143.09 151.285 143.117 150.985 143.178 150.691C143.239 150.985 143.266 151.285 143.258 151.585C143.258 152.266 143.258 153.113 143.327 154.159C143.327 156.51 143.407 159.695 143.453 163.562C143.453 171.626 143.522 182.593 143.567 194.7C143.567 214.776 143.453 231.714 143.281 236.827H143.064C143.034 236.188 143.057 235.547 143.132 234.911Z" fill="#F5F5F5"/>
<path d="M154.952 234.911C155.042 235.546 155.08 236.187 155.066 236.827H154.849C154.677 231.714 154.562 214.776 154.562 194.7C154.562 182.593 154.643 171.626 154.677 163.562C154.677 159.66 154.769 156.51 154.803 154.159C154.803 153.113 154.86 152.266 154.872 151.585C154.864 151.285 154.891 150.985 154.952 150.691C155.013 150.985 155.04 151.285 155.032 151.585C155.032 152.266 155.032 153.113 155.1 154.159C155.1 156.51 155.181 159.695 155.226 163.562C155.226 171.626 155.295 182.593 155.341 194.7C155.341 214.776 155.226 231.714 155.066 236.827H154.849C154.836 236.187 154.87 235.547 154.952 234.911Z" fill="#F5F5F5"/>
<path d="M166.78 234.911C166.878 235.545 166.916 236.186 166.894 236.827H166.677C166.517 231.714 166.391 214.776 166.391 194.7C166.391 182.593 166.482 171.626 166.505 163.562C166.562 159.66 166.597 156.51 166.631 154.159C166.631 153.113 166.631 152.266 166.7 151.585C166.699 151.285 166.726 150.986 166.78 150.691C166.848 150.984 166.875 151.285 166.86 151.585C166.86 152.266 166.86 153.113 166.94 154.159C166.94 156.51 167.009 159.695 167.066 163.562C167.066 171.626 167.135 182.593 167.18 194.7C167.18 214.776 167.054 231.714 166.894 236.827H166.677C166.664 236.187 166.698 235.547 166.78 234.911Z" fill="#F5F5F5"/>
<path d="M286.929 69.3278L278.012 151.832C276.49 165.866 271.465 186.155 249.981 182.687C231.552 178.22 228.783 159.437 230.213 146.342C230.889 140.136 231.438 134.952 231.472 134.318C231.472 134.318 211.236 130.004 212.014 109.046C212.392 98.9253 214.807 78.1201 217.211 59.3366C218.458 49.606 223.229 40.7148 230.572 34.433C237.915 28.1511 247.292 24.9394 256.837 25.437L258.806 25.531C279.958 27.8701 289.813 47.6762 286.929 69.3278Z" fill="#E9C46A"/>
<path d="M231.472 134.317C240.892 134.776 250.243 132.451 258.416 127.617C258.416 127.617 251.193 142.58 230.945 139.642L231.472 134.317Z" fill="#E9C46A"/>
<path d="M250.654 72.22C251.009 72.6902 253.573 71.0446 256.961 71.3972C260.349 71.7499 262.684 73.7481 263.085 73.3602C263.291 73.1721 262.959 72.3611 261.94 71.4207C260.578 70.213 258.88 69.4768 257.087 69.3167C255.318 69.1365 253.539 69.5488 252.016 70.4921C250.952 71.2562 250.528 72.0085 250.654 72.22Z" fill="#3B4D60"/>
<path d="M249.934 79.4121C249.893 80.1497 250.132 80.875 250.602 81.4344C251.072 81.9939 251.736 82.3435 252.452 82.4095C252.802 82.4553 253.157 82.429 253.496 82.3321C253.835 82.2352 254.152 82.0696 254.428 81.8452C254.705 81.6207 254.934 81.3418 255.104 81.0249C255.274 80.7081 255.38 80.3595 255.417 79.9998C255.458 79.2635 255.218 78.5396 254.748 77.982C254.278 77.4245 253.614 77.0773 252.899 77.0142C252.55 76.9683 252.196 76.9943 251.858 77.0904C251.519 77.1866 251.203 77.3511 250.927 77.5744C250.651 77.7976 250.421 78.0751 250.25 78.3907C250.08 78.7062 249.973 79.0535 249.934 79.4121Z" fill="#3B4D60"/>
<path d="M239.313 95.3172C239.313 95.1292 237.413 94.6825 234.277 94.1418C233.476 94.0125 232.732 93.8127 232.617 93.2485C232.601 92.4155 232.829 91.5968 233.27 90.8976L235.948 84.7618C239.668 76.0166 242.404 68.8111 242.06 68.6701C241.717 68.529 238.42 75.4759 234.701 84.2211C233.792 86.3682 232.934 88.4253 232.125 90.3922C231.568 91.3574 231.365 92.4956 231.553 93.6011C231.653 93.8982 231.819 94.1675 232.037 94.3878C232.256 94.6081 232.521 94.7733 232.812 94.8706C233.248 95.021 233.703 95.1081 234.163 95.1292C237.322 95.376 239.29 95.4935 239.313 95.3172Z" fill="#3B4D60"/>
<path d="M253.712 59.3369C253.952 60.148 256.722 59.9129 259.95 60.5124C263.178 61.1118 265.753 62.1697 266.211 61.4762C266.428 61.1353 266.005 60.3008 264.986 59.5367C263.64 58.5049 262.068 57.827 260.408 57.562C258.76 57.2585 257.064 57.3838 255.475 57.9264C254.25 58.3613 253.62 58.949 253.712 59.3369Z" fill="#3B4D60"/>
<path d="M221.905 59.3372C222.191 60.0072 224.915 59.6428 228.12 59.9484C231.325 60.254 233.946 61.0181 234.358 60.3951C234.541 60.1012 234.083 59.4783 233.03 58.8318C231.619 58.0361 230.058 57.5592 228.452 57.433C226.812 57.2755 225.158 57.4758 223.599 58.0207C222.374 58.4321 221.79 59.0081 221.905 59.3372Z" fill="#3B4D60"/>
<path d="M284.5 84.7504C284.855 84.6093 298.728 81.2241 297.583 95.5174C296.438 109.811 282.703 105.673 282.703 105.262C282.703 104.85 284.5 84.7504 284.5 84.7504Z" fill="#E9C46A"/>
<path d="M287.382 100.206C287.45 100.206 287.611 100.406 288.011 100.63C288.567 100.933 289.216 101.001 289.82 100.818C291.33 100.395 292.761 98.1024 293.036 95.5282C293.171 94.3067 293.038 93.0697 292.647 91.9079C292.552 91.4499 292.351 91.0223 292.06 90.662C291.768 90.3016 291.396 90.0192 290.976 89.8391C290.702 89.7414 290.405 89.7442 290.133 89.8471C289.862 89.95 289.633 90.1467 289.488 90.4033C289.27 90.7795 289.339 91.0733 289.259 91.0968C289.179 91.1203 288.984 90.8265 289.144 90.2505C289.247 89.9023 289.465 89.6025 289.762 89.4042C290.165 89.137 290.655 89.0441 291.124 89.1456C291.687 89.3113 292.198 89.6218 292.611 90.0477C293.024 90.4735 293.324 91.0005 293.482 91.5788C293.983 92.8647 294.164 94.2583 294.009 95.634C293.688 98.5138 292.04 101.088 289.98 101.511C289.596 101.591 289.199 101.582 288.819 101.484C288.439 101.387 288.085 101.203 287.782 100.947C287.382 100.559 287.336 100.23 287.382 100.206Z" fill="#E9C46A"/>
<path d="M241.393 105.579C241.29 105.203 244.106 104.709 246.327 102.335C247.257 101.29 248.05 100.124 248.685 98.8676C249.211 97.8802 249.6 97.269 249.749 97.3395C249.898 97.41 249.749 98.1035 249.406 99.1967C248.933 100.662 248.152 102.003 247.116 103.123C246.063 104.258 244.724 105.071 243.248 105.474C242.137 105.767 241.416 105.709 241.393 105.579Z" fill="#3B4D60"/>
<path d="M220.892 67.7181C221.247 68.1883 223.811 66.5426 227.199 66.8953C230.587 67.2479 232.922 69.2462 233.323 68.8465C233.529 68.6702 233.197 67.8591 232.178 66.9188C230.819 65.7062 229.119 64.9693 227.325 64.8148C225.555 64.6346 223.777 65.0469 222.254 65.9902C221.155 66.7542 220.732 67.5065 220.892 67.7181Z" fill="#3B4D60"/>
<path d="M220.661 75.6991C220.619 76.4367 220.859 77.162 221.329 77.7214C221.799 78.2808 222.462 78.6305 223.179 78.6964C223.524 78.7426 223.875 78.7184 224.21 78.6251C224.546 78.5319 224.861 78.3714 225.137 78.153C225.412 77.9346 225.643 77.6625 225.815 77.3524C225.988 77.0422 226.1 76.7001 226.144 76.3456C226.191 75.6096 225.955 74.884 225.486 74.3255C225.017 73.7669 224.353 73.4201 223.637 73.36C223.292 73.3104 222.94 73.3319 222.603 73.423C222.266 73.5141 221.95 73.673 221.673 73.8906C221.396 74.1083 221.164 74.3802 220.99 74.6906C220.816 75.0011 220.705 75.3439 220.661 75.6991Z" fill="#3B4D60"/>
<path d="M295.503 71.961C294.484 75.9457 292.069 85.0318 288.635 84.2208C281.767 82.6222 282.168 93.9299 278.849 92.6016C275.529 91.2734 274.751 82.2813 275.129 78.6962C276.273 67.4943 280.463 59.4543 275.85 46.6656C274.419 44.1279 272.374 42.0124 269.914 40.5237C267.453 39.0349 264.661 38.2233 261.806 38.1672C258.929 38.1691 256.1 38.9261 253.588 40.3661C251.076 41.8061 248.964 43.8815 247.452 46.3952C246.743 42.481 244.751 36.6038 241.306 34.7937C239.581 33.8699 237.63 33.4887 235.696 33.6978C233.762 33.9069 231.931 34.6969 230.432 35.9691C229.001 37.3181 228.097 39.1548 227.886 41.1375C227.676 43.1202 228.174 45.1139 229.287 46.7478C228.504 47.0069 227.66 47.0018 226.88 46.7332C226.099 46.4646 225.423 45.9467 224.949 45.255C224.902 46.175 225.039 47.0951 225.353 47.9584C225.666 48.8217 226.148 49.6098 226.769 50.2742C225.357 49.9509 224.106 49.1164 223.244 47.9233L224.388 52.7661C218.665 53.0599 212.839 47.4649 211.122 42.3987C208.524 34.7114 210.218 26.8595 214.27 19.8774C218.322 12.8953 225.716 7.8644 233.728 7.74685C241.741 7.62931 248.368 11.3319 251.584 18.7607C256.643 14.9053 267.025 13.3654 272.805 15.9044C275.696 17.2116 278.212 19.2566 280.116 21.8449C282.019 24.4332 283.246 27.4786 283.679 30.6914C287.227 29.0575 291.554 30.1624 294.633 32.6073L295.377 33.2421C297.437 35.1662 298.988 37.5957 299.885 40.3032C300.782 43.0106 300.995 45.9075 300.505 48.7226C300.138 50.9794 299.429 53.3303 299.028 55.1522C297.678 60.5475 295.503 71.961 295.503 71.961Z" fill="#3B4D60"/>
<path d="M223.962 44.9489C223.962 44.9489 223.779 44.8431 223.493 44.5845C223.07 44.2112 222.687 43.7936 222.348 43.3385C221.04 41.6429 220.212 39.6092 219.956 37.4614C219.725 35.8765 219.828 34.2593 220.256 32.7184C220.684 31.1776 221.429 29.7487 222.44 28.528C223.679 27.0243 225.257 25.8532 227.036 25.116C228.814 24.3787 230.741 24.0974 232.65 24.2965C234.614 24.5491 236.497 25.2565 238.155 26.3652C239.703 27.3654 241.089 28.6066 242.265 30.0443C244.261 32.4377 245.732 35.2438 246.58 38.2724C247.151 40.3161 247.424 42.4351 247.392 44.561C247.392 45.3133 247.324 45.8892 247.267 46.2771C247.255 46.4766 247.221 46.6739 247.164 46.8649C247.288 44.0036 246.956 41.1408 246.179 38.3899C245.297 35.4279 243.819 32.6889 241.841 30.35C239.512 27.4152 236.219 25.4549 232.581 24.8372C230.768 24.6558 228.939 24.9241 227.248 25.6195C225.557 26.315 224.053 27.4173 222.864 28.8336C221.889 29.9926 221.165 31.3498 220.737 32.8163C220.309 34.2829 220.187 35.8257 220.38 37.3438C220.584 39.4369 221.318 41.4387 222.509 43.1505C223.367 44.3847 223.997 44.9019 223.962 44.9489Z" fill="#455A64"/>
<path d="M221.458 51.2023C221.292 51.0006 221.15 50.7797 221.034 50.544C220.771 50.0974 220.393 49.3686 219.89 48.5693C218.536 46.1404 217.416 43.5815 216.547 40.929C215.963 39.0754 215.62 37.1505 215.529 35.2046C215.416 32.9537 215.763 30.7036 216.547 28.5986C217.462 26.2656 219.026 24.2619 221.046 22.839C223.203 21.3206 225.708 20.405 228.314 20.1825C230.908 19.9773 233.514 20.342 235.96 21.2521C238.231 22.0932 240.365 23.2821 242.289 24.7785C245.647 27.215 248.126 30.7237 249.34 34.7579C250.096 37.4938 250.02 40.4014 249.123 43.0918C248.871 43.809 248.548 44.4982 248.161 45.1488C248.027 45.3772 247.874 45.5935 247.703 45.7953C248.159 44.9006 248.542 43.9688 248.848 43.0095C249.632 40.3579 249.632 37.527 248.848 34.8755C247.609 30.9653 245.162 27.577 241.877 25.2251C238.037 22.1725 233.269 20.6114 228.417 20.8172C225.911 21.0385 223.503 21.9168 221.423 23.3679C219.495 24.7219 217.995 26.6261 217.108 28.8455C216.337 30.8726 215.982 33.0417 216.067 35.2163C216.138 37.1225 216.45 39.0111 216.994 40.8349C217.823 43.4753 218.876 46.0358 220.141 48.487L221.137 50.5205C221.264 50.7374 221.371 50.9656 221.458 51.2023Z" fill="#455A64"/>
<path d="M290.542 63.1325C290.473 63.0385 291.766 62.0629 293.357 60.0176C295.449 57.3764 296.86 54.237 297.46 50.8888C298.06 47.5405 297.83 44.091 296.791 40.858C296.001 38.3661 295.132 36.979 295.235 36.932C295.338 36.885 295.509 37.2259 295.887 37.8724C296.407 38.777 296.844 39.7293 297.192 40.7169C298.37 44.0039 298.667 47.5556 298.05 51.0006C297.434 54.4455 295.928 57.6572 293.689 60.2997C293.022 61.0942 292.286 61.8259 291.492 62.486C291.207 62.7474 290.887 62.9652 290.542 63.1325Z" fill="#455A64"/>
<path d="M278.266 63.015C278.266 62.9562 278.929 62.6858 279.983 61.91C281.449 60.8249 282.594 59.344 283.29 57.6314L283.817 56.2915L283.725 57.7372C283.6 59.6885 283.451 61.9335 283.302 64.3785L282.856 64.1199C284.752 62.7185 286.36 60.9462 287.588 58.9049C288.815 56.8635 289.638 54.5933 290.009 52.2244C290.319 50.0595 290.257 47.8555 289.826 45.7125C289.367 43.7442 288.683 41.8385 287.789 40.0352C287.889 40.1377 287.978 40.2521 288.052 40.376C288.276 40.7091 288.482 41.0544 288.67 41.4104C289.368 42.736 289.892 44.1511 290.227 45.6185C291.032 49.1422 290.79 52.8328 289.534 56.2143C288.277 59.5958 286.062 62.5131 283.176 64.59L282.684 64.9427V64.3314L283.222 57.702L283.668 57.8078C282.912 59.5784 281.666 61.0824 280.086 62.1334C279.658 62.4153 279.206 62.6554 278.735 62.8504C278.585 62.9242 278.428 62.9795 278.266 63.015Z" fill="#455A64"/>
<path d="M273.866 33.947C273.051 32.4408 271.958 31.1115 270.65 30.0328C269.207 28.9231 267.528 28.1818 265.751 27.87C263.565 27.5054 261.324 27.7657 259.272 28.6223C257.214 29.4684 255.381 30.8062 253.927 32.5247C252.744 33.9234 251.793 35.5117 251.111 37.2264C250.533 38.8533 250.078 40.5234 249.749 42.2221C249.704 41.751 249.727 41.2756 249.818 40.8115C249.978 39.5352 250.278 38.2813 250.711 37.0736C251.363 35.2681 252.312 33.5905 253.515 32.1133C255.009 30.3039 256.911 28.8958 259.055 28.011C261.209 27.1164 263.565 26.8598 265.854 27.2705C267.709 27.6365 269.447 28.4684 270.913 29.6919C271.896 30.5092 272.719 31.5103 273.339 32.6422C273.503 32.9501 273.649 33.2681 273.774 33.5944C273.825 33.7053 273.856 33.8247 273.866 33.947Z" fill="#455A64"/>
<path d="M270.475 23.4626C269.257 22.8691 267.984 22.4043 266.675 22.0756C263.538 21.4694 260.294 22.0232 257.518 23.6389C254.764 25.35 252.544 27.8337 251.119 30.7974C249.975 33.0542 249.666 34.6175 249.563 34.5823C249.558 34.2066 249.616 33.8328 249.734 33.4773C249.987 32.4889 250.324 31.5252 250.742 30.5975C252.107 27.5041 254.359 24.9123 257.197 23.1688C260.108 21.4548 263.543 20.9341 266.812 21.7112C267.79 21.9612 268.727 22.3572 269.593 22.8867C269.912 23.0347 270.209 23.2286 270.475 23.4626Z" fill="#455A64"/>
<path d="M187.995 349.035L315.894 350.822C315.894 350.822 351.663 335.447 361.495 335.036C371.327 334.624 390.831 335.906 399.851 350.822C409.179 366.244 410.484 393.443 381.743 413.202C353.746 432.456 225.745 450.24 208.198 448.607L175.874 404.011C175.874 404.011 175.542 367.466 175.874 365.727C176.206 363.987 181.597 348.33 181.597 348.33L187.995 349.035Z" fill="#3B4D60"/>
<path d="M264.573 410.723L330.857 436.006L300.651 520.838C292.936 517.382 292.719 467.543 292.719 467.543L249.602 453.132L264.573 410.723Z" fill="#E76F51"/>
<g opacity="0.6">
<path d="M298.475 439.967C299.007 439.242 299.782 438.743 300.65 438.568C301.518 438.392 302.418 438.551 303.179 439.015C303.907 439.53 304.413 440.314 304.592 441.203C304.771 442.092 304.609 443.018 304.141 443.787C303.145 445.292 300.512 445.927 299.15 444.775C297.788 443.623 297.376 440.896 298.692 439.685" fill="white"/>
</g>
<path d="M330.853 436.006L324.158 433.396L297.648 515.912C297.648 515.912 297.9 520.297 300.647 520.837L330.853 436.006Z" fill="#3B4D60"/>
<path d="M291.857 468.753C292.269 468.895 293.185 466.896 295.211 465.345C297.237 463.793 299.32 463.346 299.297 462.9C299.274 462.453 296.722 462.206 294.307 464.075C291.891 465.944 291.399 468.659 291.857 468.753Z" fill="#3B4D60"/>
<path d="M292.228 479.002C292.582 479.237 293.899 477.709 296.108 476.945C298.317 476.181 300.263 476.44 300.4 476.028C300.537 475.617 298.34 474.489 295.616 475.488C292.892 476.487 291.861 478.85 292.228 479.002Z" fill="#3B4D60"/>
<path d="M300.784 487.948C301.013 487.607 299.193 486.267 296.607 486.502C294.02 486.737 292.452 488.348 292.726 488.653C293.001 488.959 294.604 488.195 296.732 488.03C298.861 487.866 300.601 488.348 300.784 487.948Z" fill="#3B4D60"/>
<path d="M282.337 464.356C282.761 464.356 282.887 462.205 283.871 459.924C284.855 457.644 286.229 456.081 285.966 455.74C285.702 455.399 283.676 456.61 282.532 459.266C281.387 461.923 281.948 464.438 282.337 464.356Z" fill="#3B4D60"/>
<path d="M273.251 458.656C273.423 458.714 274.247 457.175 274.75 454.401C275.024 452.767 275.109 451.106 275.002 449.452C274.931 448.473 274.801 447.5 274.613 446.537C274.518 445.965 274.34 445.41 274.086 444.891C273.9 444.511 273.594 444.206 273.219 444.024C272.843 443.843 272.419 443.797 272.015 443.892C271.659 443.993 271.332 444.179 271.06 444.434C270.787 444.69 270.577 445.007 270.447 445.362C270.254 445.899 270.135 446.46 270.092 447.031C269.982 448.018 269.963 449.014 270.035 450.004C270.16 451.679 270.546 453.322 271.179 454.871C272.255 457.504 273.468 458.738 273.652 458.632C273.835 458.526 272.919 457.057 272.175 454.506C271.738 453.021 271.492 451.484 271.442 449.934C271.415 449.027 271.461 448.118 271.58 447.219C271.671 446.231 271.935 445.467 272.404 445.385C272.587 445.385 272.644 445.385 272.839 445.655C273.011 446.03 273.138 446.425 273.217 446.831C273.416 447.722 273.565 448.625 273.663 449.534C273.827 451.096 273.85 452.67 273.732 454.236C273.549 456.904 273.033 458.573 273.251 458.656Z" fill="#3B4D60"/>
<path d="M274.023 458.328C274.137 458.21 272.981 456.847 270.417 455.707C268.919 455.039 267.32 454.642 265.69 454.531C264.719 454.481 263.745 454.528 262.783 454.672C262.156 454.696 261.547 454.886 261.013 455.224C260.479 455.562 260.04 456.036 259.738 456.6C259.61 456.979 259.59 457.387 259.682 457.777C259.773 458.166 259.971 458.521 260.253 458.798C260.658 459.2 261.116 459.541 261.615 459.809C262.488 460.303 263.43 460.656 264.408 460.855C266.036 461.21 267.725 461.137 269.318 460.644C272.054 459.797 273.153 458.293 273.027 458.163C272.901 458.034 271.585 459.092 269.078 459.598C267.629 459.88 266.138 459.84 264.706 459.48C263.881 459.264 263.088 458.935 262.348 458.504C261.512 458.034 260.928 457.435 261.134 457.129C261.34 456.823 262.199 456.236 263.023 456.153C263.885 456.004 264.758 455.933 265.633 455.942C267.135 455.975 268.625 456.22 270.062 456.671C272.523 457.529 273.874 458.54 274.023 458.328Z" fill="#3B4D60"/>
<path d="M209.903 400.236L145.805 430.798L182.432 512.937C189.849 508.87 186.255 459.161 186.255 459.161L228.136 441.318L209.903 400.236Z" fill="#E76F51"/>
<g opacity="0.6">
<path d="M178.347 432.127C177.762 431.446 176.952 431.011 176.074 430.904C175.195 430.798 174.309 431.028 173.586 431.551C172.899 432.125 172.455 432.949 172.346 433.852C172.238 434.754 172.472 435.665 173.002 436.394C174.146 437.804 176.768 438.227 178.038 436.97C179.309 435.712 179.515 432.961 178.107 431.868" fill="white"/>
</g>
<path d="M145.773 430.787L152.24 427.707L184.988 507.778C184.988 507.778 185.068 512.162 182.378 512.926L145.773 430.787Z" fill="#3B4D60"/>
<path d="M187.207 460.291C186.807 460.467 185.731 458.54 183.602 457.153C181.473 455.766 179.355 455.495 179.344 455.049C179.332 454.602 181.862 454.144 184.414 455.871C186.967 457.599 187.596 460.209 187.207 460.291Z" fill="#3B4D60"/>
<path d="M187.575 470.541C187.231 470.811 185.8 469.365 183.534 468.801C181.268 468.237 179.356 468.636 179.196 468.237C179.036 467.837 181.13 466.532 183.923 467.308C186.716 468.084 187.941 470.353 187.575 470.541Z" fill="#3B4D60"/>
<path d="M179.687 480.154C179.446 479.825 181.14 478.344 183.739 478.367C186.337 478.391 188.031 479.872 187.779 480.201C187.527 480.53 185.868 479.896 183.739 479.907C181.61 479.919 179.927 480.53 179.687 480.154Z" fill="#3B4D60"/>
<path d="M196.306 455.142C195.871 455.142 195.596 453.038 194.428 450.852C193.261 448.666 191.784 447.208 192.036 446.844C192.288 446.479 194.417 447.525 195.756 450.135C197.095 452.744 196.695 455.189 196.306 455.142Z" fill="#3B4D60"/>
<path d="M204.926 448.677C204.766 448.759 203.782 447.278 203.118 444.551C202.708 442.946 202.492 441.296 202.477 439.638C202.473 438.659 202.531 437.682 202.648 436.711C202.689 436.129 202.82 435.557 203.038 435.018C203.193 434.621 203.473 434.289 203.835 434.076C204.196 433.862 204.617 433.78 205.029 433.843C205.393 433.908 205.736 434.063 206.029 434.294C206.322 434.526 206.557 434.826 206.712 435.171C206.944 435.729 207.095 436.319 207.158 436.922C207.341 437.899 207.437 438.89 207.444 439.884C207.45 441.555 207.203 443.217 206.712 444.809C205.842 447.525 204.674 448.865 204.537 448.759C204.4 448.653 205.132 447.137 205.682 444.527C206.002 443.015 206.129 441.466 206.059 439.92C206.02 439.01 205.905 438.106 205.716 437.216C205.556 436.252 205.235 435.5 204.754 435.453C204.571 435.453 204.514 435.453 204.342 435.759C204.203 436.137 204.111 436.532 204.068 436.934C203.934 437.841 203.854 438.756 203.827 439.673C203.776 441.246 203.872 442.82 204.113 444.375C204.56 447.031 205.144 448.677 204.926 448.677Z" fill="#3B4D60"/>
<path d="M204.135 448.466C204.009 448.348 205.051 446.891 207.512 445.563C209.836 444.331 212.446 443.781 215.055 443.976C215.682 443.947 216.306 444.086 216.865 444.379C217.425 444.671 217.901 445.107 218.248 445.645C218.402 446.015 218.45 446.423 218.387 446.82C218.325 447.218 218.153 447.589 217.893 447.89C217.519 448.322 217.087 448.698 216.611 449.007C215.779 449.567 214.868 449.995 213.91 450.276C212.314 450.754 210.627 450.819 209 450.464C206.207 449.829 204.994 448.384 205.108 448.278C205.223 448.172 206.619 449.101 209.16 449.453C210.626 449.621 212.11 449.461 213.509 448.983C214.323 448.705 215.094 448.309 215.799 447.808C216.588 447.279 217.138 446.632 216.943 446.35C216.697 446.075 216.396 445.859 216.059 445.717C215.723 445.574 215.361 445.51 214.997 445.527C214.122 445.439 213.24 445.439 212.365 445.527C210.872 445.673 209.408 446.037 208.015 446.609C205.554 447.502 204.284 448.677 204.135 448.466Z" fill="#3B4D60"/>
<path d="M181.634 348.341C181.634 348.341 126.395 327.184 106.09 329.887C94.7239 331.427 76.9482 340.337 75.5861 355.3C74.224 370.263 77.7952 390.281 97.4481 400.025C117.101 409.77 195.552 445.926 214.198 451.486C232.844 457.046 279.269 470.093 279.269 470.093L296.919 418.374C296.919 418.374 200.6 384.122 195.518 380.29C190.436 376.458 177.559 371.251 177.559 371.251L181.634 348.341Z" fill="#3B4D60"/>
<path d="M373.665 355.359L373.276 355.265L372.131 354.912C371.158 354.618 369.716 354.183 367.839 353.737C362.544 352.356 357.055 351.939 351.62 352.503C347.872 352.832 344.167 353.557 340.563 354.665C338.563 355.288 336.615 356.074 334.737 357.016L328.728 360.037C320.464 364.092 311.227 368.265 301.406 372.226C281.719 380.325 262.821 384.169 249.349 387.319C242.596 388.847 237.125 390.117 233.325 391.033L228.987 392.091L227.842 392.35L227.453 392.42C227.567 392.356 227.691 392.313 227.819 392.291L228.964 391.974C229.948 391.703 231.391 391.28 233.279 390.798C237.022 389.811 242.436 388.447 249.224 386.896C262.684 383.64 281.524 379.737 301.143 371.615C310.964 367.63 320.189 363.505 328.453 359.473L334.474 356.487C336.381 355.541 338.36 354.755 340.391 354.136C344.028 353.029 347.769 352.324 351.551 352.032C357.051 351.492 362.6 351.978 367.931 353.466C369.808 353.96 371.239 354.43 372.211 354.771L373.299 355.183L373.665 355.359Z" fill="#455A64"/>
<path d="M370.754 347.884C370.754 347.99 369.072 347.672 366.371 347.378C359.319 346.58 352.187 346.957 345.253 348.495C342.586 349.071 340.96 349.553 340.938 349.459C341.299 349.257 341.683 349.103 342.082 349.001C342.803 348.742 343.868 348.413 345.195 348.072C348.665 347.179 352.211 346.635 355.783 346.45C359.35 346.266 362.926 346.431 366.462 346.944C367.824 347.155 368.912 347.367 369.656 347.543C370.033 347.616 370.401 347.731 370.754 347.884Z" fill="#455A64"/>
<path d="M158.402 363.341C158.344 363.423 156.811 362.166 154.167 360.532C147.26 356.121 139.497 353.312 131.423 352.304C128.333 351.904 126.398 351.869 126.398 351.763C126.848 351.68 127.305 351.652 127.761 351.681C128.642 351.681 129.912 351.681 131.469 351.869C139.648 352.668 147.51 355.522 154.361 360.179C155.399 360.872 156.4 361.621 157.36 362.424C157.745 362.681 158.095 362.989 158.402 363.341Z" fill="#455A64"/>
<path d="M186.122 440.448L186.557 440.613L187.805 441.154C188.949 441.624 190.529 442.4 192.692 443.258C196.996 445.009 203.349 447.407 211.51 450.169C227.82 455.635 251.273 462.617 279.339 469.87L279.03 470.046L296.107 421.371L296.268 421.759L275.115 412.837L158.102 363.34C153.341 358.168 148.945 353.607 144.848 349.916C141.365 346.762 137.649 343.889 133.734 341.324C131.27 339.732 128.726 338.276 126.111 336.963L124.062 335.976L123.375 335.623L124.085 335.929L126.156 336.857C128.8 338.127 131.368 339.556 133.848 341.136C137.799 343.674 141.546 346.532 145.054 349.681C149.197 353.349 153.604 357.909 158.388 363.058H158.32L275.344 412.238L296.497 421.16L296.748 421.265L296.657 421.547L279.488 470.199L279.408 470.434L279.167 470.375C251.102 463.064 227.66 456.011 211.361 450.393C203.211 447.595 196.87 445.138 192.578 443.34C190.426 442.47 188.824 441.659 187.725 441.165L186.489 440.59L186.122 440.448Z" fill="#455A64"/>
<path d="M322.648 167.547C322.648 167.547 338.558 176.95 341.785 188.011C343.743 194.723 358.577 280.6 360.923 297.527C363.27 314.453 358.313 327.007 351.286 332.625C344.258 338.244 322.934 345.72 322.934 345.72L293.002 355.699L284.406 333.225L312.907 291.168L310.171 262.757L322.648 167.547Z" fill="#E76F51"/>
<path d="M291.392 152.714L279.442 145.662C279.442 145.662 268.557 158.732 253.712 157.134C238.866 155.535 230.053 143.91 230.053 143.91L185.779 153.161C182.815 153.772 177.401 155.7 172.216 163.305C166.435 171.78 139.022 209.382 139.022 209.382H119.884C117.292 209.382 114.75 210.109 112.531 211.484C110.312 212.86 108.501 214.832 107.294 217.187C104.02 223.593 100.094 232.15 100.426 235.7C101.078 241.706 99.9452 258.174 107.786 263.311C110.27 264.945 119.152 269.835 126.099 269.506C136.275 269.012 148.099 263.57 154.909 258.68C160.632 254.531 174.081 240.214 179.244 234.63V234.748L182.563 353.996L298.626 350.611L322.663 167.572C322.663 167.572 292.559 152.714 291.392 152.714Z" fill="#E76F51"/>
<path d="M178.819 184.674C178.98 184.674 179.289 199.449 179.495 217.68C179.701 235.911 179.747 250.698 179.575 250.698C179.403 250.698 179.106 235.923 178.9 217.692C178.693 199.461 178.659 184.674 178.819 184.674Z" fill="#3B4D60"/>
<path d="M336.703 281.071C336.703 281.071 335.718 281.236 333.967 281.577C331.493 282.083 329.082 282.871 326.779 283.928C323.37 285.507 320.157 287.5 317.21 289.864C313.598 292.766 310.225 295.971 307.126 299.443C303.807 303.122 300.785 306.755 297.969 310.022C295.469 312.9 292.829 315.646 290.06 318.25C288.186 320.012 286.202 321.646 284.119 323.14C283.387 323.669 282.78 324.022 282.38 324.316C282.185 324.459 281.973 324.578 281.75 324.668C281.922 324.497 282.109 324.343 282.311 324.21C282.689 323.916 283.272 323.528 283.982 322.964C286.007 321.413 287.941 319.741 289.774 317.956C292.12 315.723 294.741 312.879 297.557 309.623C300.373 306.367 303.394 302.723 306.714 299.044C309.839 295.552 313.247 292.34 316.901 289.44C319.894 287.074 323.162 285.1 326.63 283.563C328.973 282.532 331.429 281.798 333.944 281.377C334.837 281.201 335.535 281.201 336.004 281.142C336.233 281.089 336.468 281.065 336.703 281.071Z" fill="#3B4D60"/>
<path d="M339.336 272.996C339.336 273.102 337.573 273.361 334.758 274.172C327.521 276.228 320.955 280.243 315.746 285.797C313.754 287.924 312.689 289.405 312.609 289.323C312.787 288.932 313.009 288.565 313.273 288.23C313.935 287.269 314.658 286.354 315.437 285.491C320.549 279.687 327.24 275.592 334.643 273.737C335.756 273.456 336.883 273.24 338.02 273.09C338.452 272.996 338.895 272.965 339.336 272.996Z" fill="#3B4D60"/>
<g opacity="0.3">
<path d="M123.312 252.061C129.459 253.778 136.83 244.703 142.416 239.026C145.312 236.064 148.334 232.913 149.41 228.858C150.165 225.45 149.824 221.882 148.437 218.691C147.407 215.812 146.035 213.076 144.35 210.545C144.865 215.446 146.044 222.946 144.442 229.105C143.103 234.242 139.932 238.32 136.567 242.199C133.019 246.302 128.807 250.604 123.312 252.061Z" fill="black"/>
</g>
<path d="M149.584 246.867C149.47 246.867 150.18 244.786 150.729 241.366C151.063 239.365 151.25 237.342 151.29 235.312C151.331 232.831 151.17 230.35 150.809 227.895C150.414 225.444 149.825 223.031 149.046 220.678C148.394 218.76 147.606 216.894 146.689 215.095C145.12 212.015 143.827 210.299 143.919 210.229C144.279 210.58 144.598 210.975 144.869 211.404C145.23 211.868 145.562 212.355 145.864 212.862C146.231 213.449 146.666 214.107 147.066 214.883C148.042 216.677 148.877 218.548 149.562 220.478C150.385 222.854 150.997 225.301 151.393 227.79C151.765 230.282 151.915 232.804 151.839 235.324C151.778 237.382 151.544 239.431 151.141 241.448C151.004 242.318 150.786 243.07 150.615 243.799C150.476 244.376 150.308 244.945 150.111 245.503C149.978 245.974 149.802 246.431 149.584 246.867Z" fill="#3B4D60"/>
<path d="M234.907 148.518C234.987 148.67 233.625 149.481 232.206 150.798C230.786 152.114 229.825 153.396 229.688 153.29C230.186 152.165 230.908 151.16 231.807 150.338C232.705 149.516 233.761 148.896 234.907 148.518Z" fill="#3B4D60"/>
<path d="M246.981 155.723C247.107 155.852 245.94 157.133 245.001 159.037C244.062 160.942 243.708 162.658 243.536 162.564C243.454 161.206 243.781 159.856 244.474 158.697C245 157.469 245.874 156.433 246.981 155.723Z" fill="#3B4D60"/>
<path d="M267.66 163.199C267.107 162.071 266.662 160.89 266.332 159.673C265.827 158.515 265.443 157.306 265.188 156.064C265.997 157.061 266.59 158.223 266.927 159.473C267.433 160.646 267.683 161.917 267.66 163.199Z" fill="#3B4D60"/>
<path d="M280.973 156.733C280.79 156.733 280.344 154.7 279.028 152.502C277.711 150.303 276.155 148.916 276.281 148.775C277.672 149.555 278.808 150.741 279.543 152.184C280.447 153.522 280.945 155.105 280.973 156.733Z" fill="#3B4D60"/>
<path d="M319.185 195.359C319.356 195.359 317.388 211.674 314.801 231.739C312.214 251.804 309.982 268.06 309.822 268.037C309.661 268.013 311.619 251.733 314.206 231.657C316.792 211.58 319.024 195.336 319.185 195.359Z" fill="#3B4D60"/>
<path d="M145.255 221.734C145.301 222.294 145.301 222.856 145.255 223.415C145.224 224.075 145.144 224.731 145.015 225.378C144.946 225.766 144.889 226.166 144.809 226.554C144.729 226.942 144.603 227.423 144.477 227.894C143.912 230.098 143.146 232.243 142.188 234.3C140.985 236.803 139.555 239.183 137.918 241.411C136.234 243.622 134.314 245.633 132.195 247.406C130.451 248.841 128.526 250.027 126.472 250.932C126.026 251.109 125.614 251.308 125.213 251.461L124.069 251.79L123.061 252.072C122.752 252.143 122.455 252.155 122.191 252.202C121.65 252.29 121.103 252.333 120.555 252.331C122.517 251.932 124.434 251.33 126.278 250.533C128.253 249.599 130.107 248.414 131.795 247.006C133.836 245.251 135.692 243.281 137.335 241.129C138.948 238.938 140.366 236.601 141.57 234.147C142.538 232.129 143.334 230.029 143.95 227.87C144.488 225.849 144.924 223.801 145.255 221.734Z" fill="#3B4D60"/>
<g opacity="0.3">
<path d="M315.448 358.05C320.37 355.606 321.491 349.058 321.995 343.463C323.46 327.093 324.929 310.712 326.402 294.318C327.1 286.619 327.432 277.862 322.144 272.314C317.313 267.283 309.633 266.989 302.754 267.013C260.289 267.13 222.78 268.412 180.281 268.529L182.445 344.827L315.448 358.05Z" fill="black"/>
</g>
<path d="M162.008 280.355L166.529 368.842C166.623 370.494 167.33 372.047 168.506 373.18C169.681 374.313 171.235 374.939 172.847 374.931L310.108 375.177C311.723 375.183 313.279 374.552 314.454 373.415C315.63 372.278 316.336 370.721 316.426 369.065L321.657 282.083C321.84 278.462 319.368 273.655 315.774 273.584H168.452C167.587 273.561 166.726 273.721 165.924 274.055C165.121 274.388 164.395 274.889 163.79 275.524C163.185 276.16 162.714 276.917 162.408 277.749C162.101 278.58 161.965 279.467 162.008 280.355Z" fill="#E0E0E0"/>
<path d="M162.007 280.355C162.007 280.355 162.007 280.237 162.007 280.025C161.977 279.697 161.977 279.366 162.007 279.038C162.194 277.747 162.761 276.545 163.632 275.594C164.271 274.892 165.053 274.342 165.922 273.984C166.984 273.592 168.115 273.431 169.241 273.514H177.585L230.763 273.42L309.638 273.337H315.247C316.241 273.283 317.227 273.541 318.074 274.078C318.909 274.624 319.623 275.345 320.169 276.194C321.291 277.876 321.894 279.867 321.897 281.906C321.782 283.869 321.668 285.856 321.554 287.854C321.073 295.816 320.584 303.938 320.088 312.221C319.104 328.783 318.074 345.92 317.009 363.481L316.815 366.773C316.723 367.866 316.746 368.924 316.552 370.076C316.331 371.201 315.835 372.251 315.11 373.125C314.385 373.999 313.455 374.669 312.408 375.071C311.378 375.447 310.282 375.595 309.192 375.506H299.749H275.105L228.52 375.4L186.364 375.295H176.635H174.311C173.522 375.295 172.743 375.295 171.919 375.212C170.313 374.98 168.848 374.142 167.81 372.861C166.797 371.612 166.253 370.032 166.276 368.407C166.196 366.867 166.128 365.35 166.047 363.846C165.899 360.825 165.75 357.886 165.601 355.007C164.456 331.98 163.552 313.349 162.911 300.466C162.614 294.037 162.373 289.041 162.213 285.632C162.144 283.94 162.087 282.658 162.041 281.777C161.996 280.895 162.041 280.46 162.041 280.46C162.041 280.46 162.041 280.907 162.144 281.777C162.247 282.647 162.27 283.94 162.362 285.621C162.556 289.029 162.831 294.025 163.186 300.455C163.861 313.384 164.846 331.968 166.059 354.983C166.208 357.863 166.368 360.802 166.528 363.822C166.597 365.327 166.677 366.843 166.757 368.383C166.734 369.907 167.246 371.388 168.199 372.556C169.167 373.741 170.53 374.512 172.022 374.719C172.783 374.789 173.548 374.812 174.311 374.789H186.41H228.566L275.151 374.86H299.795H309.238C310.257 374.943 311.283 374.807 312.248 374.46C313.199 374.095 314.045 373.487 314.703 372.693C315.362 371.899 315.813 370.946 316.014 369.923C316.185 368.924 316.185 367.772 316.265 366.702L316.46 363.411C317.525 345.85 318.555 328.712 319.562 312.162C320.058 303.871 320.546 295.745 321.027 287.783C321.153 285.797 321.267 283.822 321.382 281.847C321.374 279.934 320.808 278.067 319.757 276.487C319.304 275.683 318.651 275.017 317.864 274.558C317.077 274.099 316.186 273.864 315.281 273.878H309.684H230.809L177.631 273.796H169.287C168.182 273.707 167.071 273.855 166.025 274.231C165.012 274.632 164.118 275.297 163.432 276.16C162.745 277.024 162.29 278.056 162.11 279.156C162.056 279.553 162.022 279.953 162.007 280.355Z" fill="#3B4D60"/>
<path d="M242.847 331.814C247.31 331.814 250.927 328.099 250.927 323.515C250.927 318.932 247.31 315.217 242.847 315.217C238.384 315.217 234.766 318.932 234.766 323.515C234.766 328.099 238.384 331.814 242.847 331.814Z" fill="white"/>
<path d="M250.932 323.517C250.875 323.517 250.932 322.776 250.566 321.519C250.092 319.744 249.052 318.184 247.613 317.087C246.637 316.33 245.499 315.822 244.294 315.606C242.919 315.36 241.506 315.49 240.196 315.982C238.744 316.521 237.484 317.496 236.579 318.78C235.656 320.076 235.133 321.627 235.077 323.232C235.021 324.837 235.436 326.422 236.266 327.783C237.097 329.143 238.306 330.217 239.737 330.865C241.168 331.512 242.755 331.704 244.294 331.416C245.499 331.2 246.637 330.692 247.613 329.935C249.05 328.841 250.09 327.286 250.566 325.515C250.898 324.257 250.875 323.505 250.932 323.517C250.962 323.692 250.962 323.871 250.932 324.046C250.939 324.561 250.881 325.074 250.761 325.574C250.344 327.44 249.313 329.1 247.842 330.276C246.742 331.156 245.443 331.736 244.066 331.962C242.689 332.188 241.279 332.053 239.967 331.569C238.742 331.119 237.636 330.381 236.738 329.414C235.84 328.446 235.176 327.277 234.797 325.998C234.419 324.719 234.338 323.368 234.56 322.051C234.781 320.734 235.301 319.489 236.075 318.416C237.051 317.044 238.407 316.007 239.967 315.442C241.372 314.925 242.886 314.808 244.351 315.101C245.605 315.36 246.781 315.92 247.785 316.735C249.261 317.905 250.293 319.568 250.703 321.436C250.825 321.932 250.882 322.442 250.875 322.953C250.926 323.136 250.946 323.327 250.932 323.517Z" fill="#3B4D60"/>
<path d="M166.63 290.145C166.791 290.145 167.477 305.014 168.141 323.362C168.805 341.711 169.217 356.592 169.057 356.592C168.897 356.592 168.244 341.711 167.546 323.374C166.848 305.037 166.47 290.156 166.63 290.145Z" fill="#3B4D60"/>
<path d="M125.379 174.694C124.566 173.989 128.092 160.095 128.092 160.095C128.092 160.095 118.774 144.497 118.534 139.466C118.294 134.435 122.208 124.115 122.208 124.115L148.912 117.062C148.912 117.062 157.496 133.425 159.213 139.208C160.93 144.991 156.272 164.621 156.272 164.621L151.693 174.694C151.693 174.694 138.095 185.767 125.379 174.694Z" fill="#E9C46A"/>
<path d="M118.577 142.475C117.532 140.496 116.592 138.459 115.762 136.375C114.079 132.261 111.996 128.217 115.762 125.913C116.349 125.516 117.013 125.253 117.708 125.142C118.403 125.03 119.113 125.073 119.791 125.267C119.791 125.267 119.218 121.741 121.233 120.495C121.819 120.119 122.483 119.891 123.172 119.829C123.86 119.768 124.553 119.875 125.193 120.142C125.193 120.142 124.552 115.252 127.482 113.183C128.573 112.444 129.842 112.031 131.148 111.992C132.455 111.952 133.746 112.288 134.876 112.96C134.876 112.96 132.587 91.5554 132.381 90.427C131.649 86.2659 133.148 82.5751 137.177 83.6095C138.654 83.9856 139.466 85.5842 141.206 92.5545C142.946 99.5249 145.727 111.42 145.727 111.42C145.727 111.42 150.42 119.789 152.595 124.35C154.77 128.911 159.199 139.231 159.566 141.982C160.504 149.034 156.464 158.438 156.464 158.438L128.077 160.13L118.577 142.475Z" fill="#E9C46A"/>
<path d="M120.35 126.184C121.159 127.175 121.894 128.228 122.548 129.334L124.837 132.86C125.301 133.555 125.71 134.286 126.062 135.046C126.461 135.914 126.577 136.891 126.394 137.832C126.307 138.324 126.096 138.783 125.78 139.163C125.464 139.543 125.056 139.83 124.597 139.995C123.739 140.215 122.833 140.098 122.056 139.666C121.387 139.337 120.751 138.943 120.156 138.49C119.606 138.079 119.091 137.679 118.633 137.315C117.706 136.574 116.997 135.94 116.516 135.481C116.035 135.023 115.783 134.764 115.806 134.729C115.829 134.694 116.951 135.587 118.885 136.962C119.966 137.798 121.115 138.538 122.319 139.172C122.976 139.527 123.738 139.624 124.459 139.443C124.82 139.308 125.138 139.077 125.382 138.773C125.626 138.469 125.785 138.104 125.844 137.715C125.99 136.92 125.89 136.098 125.558 135.364C125.229 134.63 124.847 133.923 124.414 133.248L122.273 129.722C121.537 128.6 120.894 127.416 120.35 126.184Z" fill="#E9C46A"/>
<path d="M143.63 128.734C143.385 127.202 143.487 125.634 143.927 124.15C144.184 122.618 144.792 121.172 145.701 119.93C145.862 120.012 145.072 121.881 144.557 124.291C144.042 126.7 143.813 128.734 143.63 128.734Z" fill="#E9C46A"/>
<path d="M154.899 134.988C152.279 132.383 148.978 130.615 145.399 129.898C141.835 129.193 138.188 129.05 134.582 129.475C131.698 129.745 128.39 130.509 127.085 133.166C125.78 135.822 127.36 139.419 129.912 140.982C132.465 142.546 135.635 142.616 138.623 142.346C141.61 142.076 144.586 141.5 147.539 141.97" fill="#E9C46A"/>
<path d="M147.538 141.97C147.538 141.97 146.737 141.887 145.249 141.97C143.215 142.06 141.186 142.257 139.171 142.557C137.756 142.743 136.327 142.806 134.902 142.745C133.24 142.687 131.609 142.267 130.117 141.511C128.453 140.611 127.184 139.094 126.569 137.268C126.242 136.293 126.171 135.247 126.363 134.235C126.607 133.192 127.154 132.249 127.931 131.532C129.508 130.28 131.404 129.524 133.391 129.357C135.18 129.141 136.98 129.031 138.782 129.028C141.847 128.971 144.9 129.444 147.813 130.427C149.772 131.103 151.604 132.121 153.227 133.436C153.67 133.796 154.087 134.189 154.474 134.611C154.62 134.746 154.747 134.901 154.852 135.07C154.852 135.07 154.257 134.517 153.089 133.648C151.44 132.43 149.613 131.489 147.675 130.862C144.801 129.953 141.8 129.532 138.793 129.616C137.014 129.636 135.237 129.758 133.471 129.98C131.602 130.134 129.817 130.84 128.332 132.014C127.648 132.634 127.165 133.455 126.947 134.365C126.768 135.269 126.827 136.207 127.118 137.08C127.681 138.769 128.847 140.176 130.38 141.018C131.807 141.74 133.369 142.141 134.959 142.193C136.356 142.272 137.757 142.237 139.148 142.087C141.182 141.815 143.232 141.677 145.283 141.676C145.839 141.701 146.393 141.756 146.943 141.84C147.146 141.853 147.347 141.896 147.538 141.97Z" fill="#E9C46A"/>
<path d="M120.555 126.524C123.542 131.226 126.175 136.304 128.693 141.241C129.294 142.752 130.283 144.069 131.554 145.049C132.63 145.731 135.297 144.497 136.499 144.074L128.292 124.914" fill="#E9C46A"/>
<path d="M128.292 124.914C128.579 125.364 128.824 125.84 129.025 126.336L130.833 130.356C132.356 133.765 134.439 138.584 136.762 143.956L136.9 144.25L136.591 144.368C135.709 144.685 134.759 145.096 133.729 145.367C133.317 145.472 132.895 145.535 132.47 145.555C132.247 145.566 132.023 145.542 131.806 145.484C131.58 145.427 131.369 145.319 131.188 145.167C130.527 144.678 129.964 144.063 129.528 143.357C128.693 141.993 128.098 140.63 127.422 139.372C126.14 136.821 124.961 134.541 123.931 132.637C122.901 130.732 122.054 129.216 121.447 128.17C121.113 127.643 120.815 127.093 120.555 126.524C120.966 126.995 121.331 127.507 121.642 128.052C122.306 129.052 123.233 130.544 124.298 132.425C125.362 134.306 126.587 136.563 127.915 139.102C128.59 140.359 129.219 141.746 130.021 143.028C130.419 143.665 130.927 144.223 131.52 144.673C131.836 144.842 132.184 144.937 132.54 144.954C132.896 144.97 133.251 144.906 133.58 144.767C134.553 144.52 135.48 144.121 136.396 143.792L136.19 144.238C133.901 138.819 131.863 134.012 130.467 130.556L128.819 126.466C128.599 125.965 128.423 125.446 128.292 124.914Z" fill="#E9C46A"/>
<path d="M126.086 119.212C128.719 126.006 131.355 132.797 133.995 139.583C134.476 141.059 135.196 142.442 136.124 143.673C136.593 144.285 137.203 144.767 137.898 145.076C138.593 145.386 139.352 145.514 140.107 145.448C142.168 145.143 143.541 142.897 143.621 140.746C143.558 138.6 143.051 136.493 142.133 134.564C139.768 128.368 137.874 121.994 136.468 115.498" fill="#E9C46A"/>
<path d="M136.469 115.512C136.548 115.714 136.614 115.922 136.663 116.135C136.789 116.605 136.938 117.204 137.132 117.933C137.545 119.496 138.14 121.753 138.975 124.516C139.811 127.278 140.887 130.534 142.249 134.084C143.093 135.944 143.652 137.926 143.909 139.961C143.984 141.078 143.775 142.196 143.302 143.205C142.818 144.259 141.975 145.096 140.933 145.556C140.391 145.759 139.812 145.84 139.237 145.791C138.662 145.742 138.104 145.566 137.602 145.274C136.662 144.736 135.874 143.959 135.313 143.017C134.367 141.243 133.566 139.391 132.92 137.481C131.57 133.954 130.356 130.734 129.315 128.018C128.273 125.303 127.529 123.199 126.934 121.612L126.304 119.861C126.223 119.657 126.165 119.444 126.133 119.226C126.249 119.411 126.345 119.608 126.419 119.814L127.152 121.518C127.781 123.093 128.651 125.244 129.704 127.854C130.757 130.463 131.993 133.731 133.435 137.257C134.08 139.123 134.872 140.932 135.805 142.664C136.324 143.525 137.054 144.23 137.922 144.71C138.351 144.957 138.826 145.107 139.315 145.15C139.805 145.192 140.298 145.126 140.761 144.956C141.674 144.547 142.408 143.806 142.821 142.876C143.252 141.963 143.441 140.949 143.371 139.937C143.117 137.982 142.58 136.076 141.78 134.283C140.44 130.757 139.399 127.407 138.62 124.633C137.842 121.859 137.293 119.555 136.949 117.98C136.789 117.181 136.663 116.57 136.595 116.146C136.521 115.943 136.478 115.729 136.469 115.512Z" fill="#E9C46A"/>
<path d="M126.719 166.972C126.719 166.972 108.612 221.818 107.891 224.498C107.17 227.178 111.473 246.772 119.337 251.415C127.2 256.058 142.458 236.734 144.358 229.635C146.258 222.535 144.358 210.545 144.358 210.545L156.571 163.305" fill="#E9C46A"/>
<path d="M144.355 158.449C143.777 158.524 143.19 158.447 142.649 158.225C141.313 157.798 140.085 157.071 139.055 156.098C138.012 155.123 137.198 153.917 136.675 152.572C136.408 152.038 136.281 151.443 136.308 150.844C137.063 152.623 138.13 154.245 139.456 155.628C140.903 156.874 142.565 157.831 144.355 158.449Z" fill="#E9C46A"/>
<path d="M469.642 424.251C469.642 424.428 368.791 424.569 244.407 424.569C120.023 424.569 19.1484 424.428 19.1484 424.251C19.1484 424.075 119.988 423.945 244.407 423.945C368.826 423.945 469.642 424.087 469.642 424.251Z" fill="#3B4D60"/>
<path d="M174.444 30.9473H45.9847C42.6406 30.9473 39.9297 33.7312 39.9297 37.1653V73.7449C39.9297 77.1791 42.6406 79.963 45.9847 79.963H174.444C177.788 79.963 180.499 77.1791 180.499 73.7449V37.1653C180.499 33.7312 177.788 30.9473 174.444 30.9473Z" fill="#E76F51"/>
<path d="M64.8358 64.6339C64.0999 64.6395 63.4376 64.5165 62.8491 64.265C62.2712 64.0027 61.8153 63.6435 61.4813 63.1873C61.1473 62.7205 60.9728 62.1832 60.9577 61.5753L62.5097 61.5635C62.5668 62.0857 62.7833 62.5268 63.1592 62.8866C63.5457 63.2357 64.1017 63.4074 64.827 63.4019C65.5203 63.3967 66.063 63.2219 66.4552 62.8775C66.858 62.5225 67.0575 62.0729 67.0535 61.529C67.0505 61.1023 66.9306 60.7565 66.6941 60.4917C66.4575 60.2268 66.1627 60.0264 65.8097 59.8904C65.4567 59.7544 64.981 59.6087 64.3825 59.4532C63.6452 59.2668 63.0518 59.0793 62.6024 58.8907C62.1637 58.702 61.7829 58.4062 61.46 58.0034C61.1477 57.5897 60.989 57.0362 60.984 56.3429C60.9796 55.7349 61.1304 55.1951 61.4364 54.7234C61.7423 54.2518 62.1717 53.8858 62.7245 53.6256C63.288 53.3653 63.9324 53.2324 64.6577 53.2269C65.703 53.219 66.5582 53.4738 67.2232 53.9915C67.899 54.509 68.2826 55.1994 68.3742 56.0628L66.7742 56.0749C66.7178 55.6487 66.4911 55.2771 66.0942 54.9601C65.6971 54.6324 65.1733 54.471 64.5227 54.476C63.9147 54.4806 63.4198 54.6444 63.0382 54.9673C62.6564 55.2795 62.4676 55.7183 62.4716 56.2836C62.4745 56.6889 62.5889 57.0188 62.8148 57.273C63.0513 57.5273 63.3353 57.7224 63.667 57.8586C64.0093 57.984 64.485 58.1297 65.0942 58.2958C65.8316 58.4928 66.4251 58.691 66.8745 58.8902C67.3239 59.0788 67.7101 59.3799 68.0331 59.7935C68.356 60.1964 68.52 60.7498 68.525 61.4538C68.529 61.9978 68.3886 62.5108 68.1041 62.993C67.8196 63.4752 67.3957 63.8678 66.8326 64.1707C66.2694 64.4737 65.6038 64.6281 64.8358 64.6339ZM78.6553 59.6968C78.6573 59.9741 78.6434 60.2675 78.6136 60.5771L71.6058 60.6303C71.6654 61.4939 71.9636 62.169 72.5004 62.6556C73.0479 63.1315 73.7056 63.3665 74.4735 63.3606C75.1029 63.3559 75.6245 63.2079 76.0384 62.9167C76.4629 62.6148 76.7587 62.2179 76.9258 61.726L78.4938 61.714C78.2652 62.5585 77.8008 63.25 77.1007 63.7887C76.4005 64.3167 75.5277 64.5847 74.4824 64.5926C73.6504 64.5989 72.9025 64.4179 72.2385 64.0496C71.5851 63.6813 71.0693 63.1572 70.6911 62.4774C70.3128 61.7869 70.1203 60.9883 70.1138 60.0817C70.1073 59.175 70.2829 58.379 70.6406 57.6936C70.9984 57.0082 71.5012 56.4817 72.1493 56.1141C72.8079 55.7357 73.5639 55.5433 74.4172 55.5368C75.2492 55.5305 75.9864 55.7063 76.629 56.0641C77.2716 56.4218 77.7659 56.9194 78.1118 57.5568C78.4684 58.1835 78.6495 58.8968 78.6553 59.6968ZM77.1491 59.4042C77.1451 58.8495 77.019 58.3758 76.7709 57.983C76.5226 57.5796 76.1844 57.2781 75.7563 57.0787C75.3388 56.8685 74.874 56.7654 74.3621 56.7693C73.6261 56.7749 72.9985 57.0143 72.4792 57.4876C71.9706 57.9608 71.6819 58.6137 71.6133 59.4463L77.1491 59.4042ZM81.9817 52.5513L82.067 64.391L80.6111 64.402L80.5258 52.5623L81.9817 52.5513ZM92.5142 59.5915C92.5162 59.8688 92.5023 60.1622 92.4726 60.4718L85.4648 60.525C85.5243 61.3886 85.8225 62.0637 86.3594 62.5503C86.9068 63.0262 87.5645 63.2612 88.3325 63.2553C88.9618 63.2506 89.4835 63.1026 89.8974 62.8114C90.3219 62.5095 90.6177 62.1126 90.7848 61.6207L92.3528 61.6087C92.1242 62.4532 91.6598 63.1447 90.9597 63.6834C90.2595 64.2114 89.3867 64.4794 88.3414 64.4873C87.5094 64.4936 86.7614 64.3126 86.0974 63.9443C85.4441 63.576 84.9283 63.0519 84.5501 62.3721C84.1717 61.6816 83.9793 60.883 83.9728 59.9764C83.9663 59.0697 84.1419 58.2737 84.4996 57.5883C84.8573 56.9029 85.3602 56.3764 86.0083 56.0088C86.6669 55.6304 87.4228 55.438 88.2762 55.4315C89.1081 55.4252 89.8454 55.601 90.488 55.9588C91.1306 56.3165 91.6249 56.8141 91.9708 57.4515C92.3273 58.0782 92.5085 58.7915 92.5142 59.5915ZM91.0081 59.2989C91.0041 58.7442 90.878 58.2705 90.6298 57.8777C90.3816 57.4743 90.0434 57.1728 89.6153 56.9734C89.1978 56.7632 88.733 56.6601 88.221 56.664C87.4851 56.6696 86.8574 56.909 86.3382 57.3823C85.8296 57.8555 85.5409 58.5084 85.4722 59.341L91.0081 59.2989ZM93.8944 59.901C93.8878 58.9943 94.0635 58.2037 94.4213 57.5289C94.779 56.8435 95.2766 56.3117 95.9138 55.9335C96.5618 55.5553 97.3018 55.363 98.1337 55.3566C99.211 55.3485 100.098 55.6031 100.795 56.1204C101.503 56.6377 101.972 57.3595 102.203 58.2858L100.635 58.2977C100.482 57.7655 100.185 57.3464 99.7459 57.0404C99.317 56.7344 98.7826 56.5837 98.1426 56.5886C97.3106 56.5949 96.6407 56.888 96.1329 57.4679C95.625 58.0371 95.3748 58.8444 95.3823 59.8897C95.3899 60.9457 95.6518 61.7597 96.1679 62.3318C96.6841 62.9039 97.3581 63.1868 98.1901 63.1804C98.8301 63.1756 99.3623 63.0222 99.7868 62.7203C100.211 62.4184 100.502 61.9895 100.658 61.4336L102.226 61.4217C101.997 62.3195 101.533 63.043 100.833 63.5924C100.133 64.131 99.255 64.4044 98.199 64.4124C97.367 64.4187 96.6244 64.2377 95.971 63.8693C95.3283 63.5009 94.8232 62.9767 94.4557 62.2968C94.0881 61.6169 93.901 60.8183 93.8944 59.901ZM105.91 56.6416L105.947 61.8095C105.95 62.2361 106.043 62.5394 106.226 62.7194C106.408 62.8887 106.724 62.9716 107.172 62.9682L108.244 62.9601L108.252 64.192L106.94 64.202C106.13 64.2081 105.52 64.0261 105.112 63.6559C104.704 63.2856 104.497 62.6738 104.491 61.8205L104.454 56.6527L103.318 56.6613L103.309 55.4613L104.445 55.4527L104.429 53.2447L105.885 53.2337L105.901 55.4416L108.189 55.4242L108.198 56.6242L105.91 56.6416ZM121.065 52.9423L121.074 54.1263L118.034 54.1494L118.106 64.1172L116.65 64.1282L116.578 54.1605L113.522 54.1837L113.514 52.9997L121.065 52.9423ZM130.904 59.2998C130.906 59.5771 130.892 59.8706 130.862 60.1801L123.854 60.2334C123.914 61.0969 124.212 61.772 124.749 62.2586C125.296 62.7345 125.954 62.9695 126.722 62.9637C127.351 62.9589 127.873 62.8109 128.287 62.5198C128.711 62.2179 129.007 61.8209 129.174 61.329L130.742 61.3171C130.514 62.1615 130.049 62.853 129.349 63.3917C128.649 63.9197 127.776 64.1877 126.731 64.1956C125.899 64.2019 125.151 64.021 124.487 63.6527C123.834 63.2843 123.318 62.7602 122.94 62.0804C122.561 61.3899 122.369 60.5913 122.362 59.6847C122.356 58.778 122.531 57.982 122.889 57.2966C123.247 56.6112 123.75 56.0847 124.398 55.7171C125.056 55.3388 125.812 55.1463 126.666 55.1399C127.498 55.1335 128.235 55.3093 128.878 55.6671C129.52 56.0249 130.014 56.5225 130.36 57.1598C130.717 57.7865 130.898 58.4998 130.904 59.2998ZM129.398 59.0072C129.394 58.4526 129.268 57.9788 129.019 57.586C128.771 57.1826 128.433 56.8812 128.005 56.6817C127.587 56.4716 127.123 56.3684 126.611 56.3723C125.875 56.3779 125.247 56.6173 124.728 57.0906C124.219 57.5639 123.93 58.2167 123.862 59.0493L129.398 59.0072ZM132.284 59.5933C132.277 58.6973 132.453 57.912 132.811 57.2372C133.169 56.5518 133.661 56.0201 134.287 55.642C134.925 55.2638 135.633 55.0717 136.411 55.0658C137.179 55.06 137.847 55.2202 138.415 55.5466C138.982 55.873 139.407 56.2858 139.688 56.785L139.676 55.185L141.148 55.1738L141.211 63.9416L139.739 63.9528L139.728 62.3208C139.443 62.835 139.014 63.2649 138.441 63.6106C137.878 63.9456 137.218 64.1159 136.461 64.1217C135.682 64.1276 134.977 63.941 134.344 63.5618C133.712 63.1826 133.212 62.6477 132.845 61.9571C132.477 61.2666 132.29 60.4786 132.284 59.5933ZM139.708 59.5529C139.703 58.8916 139.565 58.3166 139.295 57.828C139.025 57.3394 138.66 56.9688 138.199 56.7163C137.749 56.453 137.252 56.3235 136.708 56.3276C136.164 56.3317 135.669 56.4635 135.223 56.7229C134.777 56.9823 134.422 57.3583 134.159 57.851C133.896 58.3437 133.767 58.9207 133.772 59.582C133.777 60.254 133.914 60.8396 134.184 61.3389C134.455 61.8275 134.815 62.2035 135.265 62.4667C135.714 62.7193 136.211 62.8436 136.755 62.8394C137.299 62.8353 137.794 62.7035 138.24 62.4441C138.697 62.174 139.057 61.7926 139.32 61.2999C139.583 60.7965 139.712 60.2142 139.708 59.5529ZM154.151 54.915C154.834 54.9098 155.443 55.0492 155.978 55.3332C156.514 55.6064 156.938 56.0246 157.251 56.5875C157.565 57.1505 157.724 57.8373 157.73 58.6479L157.767 63.8158L156.327 63.8268L156.292 58.8669C156.285 57.9922 156.062 57.3272 155.621 56.8719C155.191 56.4058 154.608 56.1756 153.872 56.1812C153.115 56.1869 152.514 56.4368 152.07 56.9309C151.625 57.4143 151.406 58.1146 151.413 59.032L151.448 63.8638L150.008 63.8748L149.972 58.9149C149.966 58.0403 149.742 57.3753 149.301 56.9199C148.871 56.4539 148.288 56.2236 147.552 56.2292C146.795 56.235 146.194 56.4849 145.75 56.9789C145.305 57.4623 145.086 58.1627 145.093 59.08L145.128 63.9118L143.672 63.9229L143.609 55.1551L145.065 55.1441L145.074 56.408C145.358 55.9472 145.74 55.5923 146.218 55.3433C146.707 55.0943 147.245 54.9675 147.831 54.963C148.567 54.9575 149.219 55.1178 149.787 55.4442C150.355 55.7706 150.779 56.2527 151.061 56.8906C151.302 56.27 151.704 55.787 152.267 55.4414C152.83 55.0957 153.458 54.9203 154.151 54.915ZM68.2555 77.3443L68.264 78.5283L65.2241 78.5513L65.2959 88.5191L63.84 88.5302L63.7682 78.5624L60.7123 78.5856L60.7037 77.4017L68.2555 77.3443ZM78.0938 83.7017C78.0958 83.979 78.0819 84.2725 78.0522 84.5821L71.0444 84.6353C71.1039 85.4989 71.4021 86.174 71.939 86.6606C72.4864 87.1364 73.1441 87.3714 73.9121 87.3656C74.5414 87.3608 75.063 87.2128 75.4769 86.9217C75.9014 86.6198 76.1973 86.2229 76.3644 85.7309L77.9323 85.719C77.7038 86.5634 77.2394 87.255 76.5393 87.7936C75.839 88.3216 74.9663 88.5896 73.921 88.5976C73.089 88.6039 72.341 88.4229 71.677 88.0546C71.0237 87.6862 70.5079 87.1621 70.1296 86.4823C69.7513 85.7918 69.5589 84.9933 69.5524 84.0866C69.5458 83.18 69.7214 82.384 70.0792 81.6986C70.4369 81.0131 70.9398 80.4866 71.5878 80.119C72.2465 79.7407 73.0024 79.5483 73.8557 79.5418C74.6877 79.5355 75.425 79.7112 76.0676 80.069C76.7102 80.4268 77.2044 80.9244 77.5504 81.5618C77.9069 82.1884 78.088 82.9017 78.0938 83.7017ZM76.5877 83.4092C76.5837 82.8545 76.4576 82.3808 76.2094 81.988C75.9612 81.5845 75.623 81.2831 75.1949 81.0837C74.7774 80.8735 74.3126 80.7704 73.8006 80.7743C73.0646 80.7798 72.437 81.0193 71.9177 81.4926C71.4091 81.9658 71.1205 82.6187 71.0518 83.4512L76.5877 83.4092ZM79.4738 83.9952C79.4674 83.0993 79.6431 82.3139 80.0009 81.6392C80.3586 80.9538 80.8508 80.422 81.4774 80.0439C82.1147 79.6657 82.8227 79.4737 83.6013 79.4678C84.3693 79.4619 85.0371 79.6222 85.6048 79.9485C86.1725 80.2749 86.5969 80.6877 86.8778 81.1869L86.8663 79.5869L88.3382 79.5758L88.4014 88.3435L86.9294 88.3547L86.9177 86.7228C86.6334 87.2369 86.2045 87.6669 85.6309 88.0126C85.068 88.3475 84.4079 88.5179 83.6506 88.5236C82.8719 88.5296 82.1666 88.3429 81.5345 87.9637C80.9024 87.5845 80.4025 87.0496 80.0349 86.359C79.6672 85.6685 79.4802 84.8806 79.4738 83.9952ZM86.8977 83.9548C86.893 83.2935 86.7555 82.7185 86.4853 82.2299C86.2151 81.7413 85.8498 81.3707 85.3893 81.1182C84.9394 80.855 84.4424 80.7254 83.8984 80.7295C83.3544 80.7337 82.8594 80.8654 82.4132 81.1248C81.9671 81.3842 81.6125 81.7603 81.3493 82.2529C81.0862 82.7456 80.957 83.3226 80.9618 83.9839C80.9666 84.6559 81.1042 85.2416 81.3745 85.7409C81.6447 86.2295 82.0047 86.6054 82.4546 86.8687C82.9044 87.1213 83.4014 87.2455 83.9453 87.2414C84.4893 87.2372 84.9844 87.1055 85.4305 86.8461C85.8873 86.5759 86.2472 86.1945 86.5103 85.7018C86.7734 85.1985 86.9025 84.6162 86.8977 83.9548ZM101.341 79.317C102.024 79.3118 102.633 79.4512 103.168 79.7351C103.704 80.0084 104.128 80.4265 104.441 80.9895C104.755 81.5524 104.914 82.2392 104.92 83.0499L104.957 88.2177L103.517 88.2287L103.482 83.2688C103.475 82.3942 103.252 81.7292 102.811 81.2739C102.381 80.8078 101.798 80.5775 101.062 80.5831C100.305 80.5889 99.7041 80.8388 99.2597 81.3328C98.8151 81.8162 98.5962 82.5166 98.6028 83.4339L98.6376 88.2658L97.1976 88.2767L97.1619 83.3168C97.1556 82.4422 96.9321 81.7772 96.4915 81.3219C96.0615 80.8558 95.4785 80.6255 94.7425 80.6311C93.9852 80.6369 93.3843 80.8868 92.9398 81.3809C92.4953 81.8642 92.2764 82.5646 92.283 83.4819L92.3178 88.3138L90.8618 88.3248L90.7987 79.5571L92.2546 79.546L92.2637 80.81C92.5484 80.3491 92.9299 79.9942 93.4081 79.7453C93.897 79.4962 94.4347 79.3694 95.0214 79.365C95.7574 79.3594 96.4092 79.5198 96.9769 79.8461C97.5446 80.1725 97.9694 80.6546 98.2514 81.2925C98.4922 80.672 98.8941 80.1889 99.4569 79.8433C100.02 79.4977 100.648 79.3222 101.341 79.317Z" fill="white"/>
<path d="M181.428 80.0944H57.8905C56.1893 80.0758 54.5637 79.3695 53.366 78.1286C52.1683 76.8877 51.4951 75.2121 51.4922 73.4649V37.5435C51.4952 35.7862 52.1763 34.1018 53.3863 32.8592C54.5963 31.6166 56.2366 30.9172 57.9478 30.9141H181.428C183.139 30.9172 184.779 31.6166 185.989 32.8592C187.199 34.1018 187.88 35.7862 187.883 37.5435V73.4649C187.88 75.2222 187.199 76.9066 185.989 78.1492C184.779 79.3918 183.139 80.0912 181.428 80.0944ZM57.8905 32.0895C56.4929 32.108 55.1584 32.6904 54.1753 33.7109C53.1923 34.7314 52.6397 36.1081 52.6368 37.5435V73.4649C52.6368 74.9114 53.1963 76.2986 54.1923 77.3215C55.1883 78.3443 56.5392 78.9189 57.9478 78.9189H181.428C182.836 78.9189 184.187 78.3443 185.183 77.3215C186.179 76.2986 186.739 74.9114 186.739 73.4649V37.5435C186.736 36.098 186.175 34.7125 185.18 33.6904C184.185 32.6682 182.835 32.0926 181.428 32.0895H57.8905Z" fill="#E76F51"/>
<path d="M182.678 79.0138C181.727 78.1209 180.916 77.0821 180.274 75.9342C179.466 74.9026 178.817 73.7488 178.352 72.5137C179.305 73.4079 180.119 74.4464 180.767 75.5933C181.575 76.6234 182.22 77.7777 182.678 79.0138Z" fill="#E76F51"/>
<path d="M187.315 41.13C185.897 39.6506 184.628 38.0281 183.527 36.2872C182.267 34.666 181.16 32.9265 180.219 31.0918C181.637 32.5712 182.906 34.1937 184.007 35.9346C185.271 37.5523 186.379 39.2922 187.315 41.13Z" fill="#E76F51"/>
<path d="M186.825 72.5373C186.653 72.6666 184.936 70.1864 183.059 66.8717C182.109 65.2496 181.273 63.7685 180.69 62.6871C180.326 62.1246 180.027 61.5212 179.797 60.8887C179.969 60.7711 181.685 63.3101 183.563 66.5543C184.513 68.1764 185.348 69.6575 185.943 70.7389C186.307 71.2996 186.603 71.9035 186.825 72.5373Z" fill="#E76F51"/>
<path d="M187.351 62.2643C187.18 62.3936 185.348 59.6548 183.322 56.1638C182.304 54.4124 181.399 52.8255 180.758 51.6618C180.374 51.0551 180.052 50.4091 179.797 49.7341C179.969 49.6166 181.8 52.3553 183.837 55.8464C184.856 57.586 185.749 59.1846 186.39 60.3366C186.777 60.9415 187.1 61.5878 187.351 62.2643Z" fill="#E76F51"/>
<path d="M187.335 52.1199C187.163 52.2492 185.32 49.487 183.283 45.9842C182.253 44.2328 181.348 42.6224 180.707 41.4587C180.315 40.8505 179.989 40.2002 179.734 39.5193C179.906 39.4017 181.749 42.1522 183.786 45.6668C184.816 47.4182 185.721 49.0168 186.362 50.1922C186.757 50.7941 187.084 51.4409 187.335 52.1199Z" fill="#E76F51"/>
<path d="M36.4893 38.6836C34.0274 38.342 31.5967 37.7956 29.221 37.0497C26.794 36.5001 24.4134 35.7533 22.1016 34.8164C24.5634 35.158 26.9941 35.7044 29.3698 36.4503C31.7974 36.9977 34.1782 37.7445 36.4893 38.6836Z" fill="#3B4D60"/>
<path d="M37.8712 29.8567C35.1839 26.9804 32.6432 23.9634 30.2595 20.8176C27.72 17.8137 25.3359 14.6749 23.1172 11.4141C25.8014 14.2973 28.3418 17.3181 30.7288 20.4649C33.2617 23.4703 35.6455 26.6049 37.8712 29.8567Z" fill="#3B4D60"/>
<path d="M48.4813 25.6026C47.6558 23.6314 47.127 21.5426 46.9132 19.408C46.4994 17.3038 46.4144 15.1454 46.6614 13.0137C46.8331 13.0137 46.9933 15.8582 47.497 19.3258C48.0006 22.7933 48.653 25.5203 48.4813 25.6026Z" fill="#3B4D60"/>
</svg>
