<svg width="36" height="36" viewBox="0 0 36 36" fill="none" xmlns="http://www.w3.org/2000/svg">
<circle cx="18" cy="18" r="18" fill="#E9C46A"/>
<g clip-path="url(#clip0_8_218971)">
<path d="M24.5731 26.3892H11.2431V20.3301H10.0312V26.3892C10.0312 26.7106 10.1589 27.0188 10.3862 27.2461C10.6134 27.4733 10.9217 27.601 11.2431 27.601H24.5731C24.8945 27.601 25.2027 27.4733 25.43 27.2461C25.6572 27.0188 25.7849 26.7106 25.7849 26.3892V20.3301H24.5731V26.3892Z" fill="white"/>
<path d="M15.4844 21.5415C15.4844 21.7022 15.5482 21.8563 15.6618 21.9699C15.7755 22.0835 15.9296 22.1474 16.0903 22.1474H19.7257C19.8864 22.1474 20.0406 22.0835 20.1542 21.9699C20.2678 21.8563 20.3316 21.7022 20.3316 21.5415C20.3316 21.3808 20.2678 21.2266 20.1542 21.113C20.0406 20.9994 19.8864 20.9355 19.7257 20.9355H16.0903C15.9296 20.9355 15.7755 20.9994 15.6618 21.113C15.5482 21.2266 15.4844 21.3808 15.4844 21.5415Z" fill="white"/>
<path d="M15.481 17.9069H10.6337V15.4833H13.0573C12.7951 15.1635 12.6498 14.7638 12.6453 14.3503C12.6453 14.3503 12.6453 14.2957 12.6453 14.2715H10.3307C10.0897 14.2715 9.85852 14.3672 9.68807 14.5377C9.51763 14.7081 9.42188 14.9393 9.42188 15.1803V19.1188H16.6928L15.481 17.9069Z" fill="white"/>
<path d="M25.4792 14.2715H23.1525V14.3503C23.1515 14.7623 23.0105 15.1619 22.7526 15.4833H25.1763V17.9069H20.329L19.1172 19.1188H26.3881V15.1803C26.3881 14.9393 26.2923 14.7081 26.1219 14.5377C25.9515 14.3672 25.7203 14.2715 25.4792 14.2715Z" fill="white"/>
<path d="M17.9067 18.6205L21.7724 14.7729C21.8425 14.7218 21.9009 14.6562 21.9434 14.5806C21.986 14.505 22.0118 14.4211 22.0192 14.3347C22.0266 14.2482 22.0153 14.1612 21.9861 14.0795C21.9569 13.9978 21.9105 13.9233 21.85 13.861C21.7895 13.7988 21.7164 13.7503 21.6355 13.7188C21.5547 13.6873 21.468 13.6735 21.3814 13.6784C21.2947 13.6833 21.2102 13.7067 21.1334 13.7471C21.0566 13.7875 20.9894 13.8439 20.9363 13.9125L18.5126 16.3059V8.81685C18.5126 8.65615 18.4488 8.50203 18.3352 8.3884C18.2215 8.27477 18.0674 8.21094 17.9067 8.21094C17.746 8.21094 17.5919 8.27477 17.4783 8.3884C17.3646 8.50203 17.3008 8.65615 17.3008 8.81685V16.3301L14.8772 13.9368C14.7631 13.8235 14.6086 13.7602 14.4479 13.7607C14.2871 13.7613 14.1331 13.8257 14.0198 13.9398C13.9065 14.0539 13.8432 14.2083 13.8438 14.3691C13.8443 14.5299 13.9087 14.6839 14.0228 14.7972L17.9067 18.6205Z" fill="white"/>
</g>
<defs>
<clipPath id="clip0_8_218971">
<rect width="21.8127" height="21.8127" fill="white" transform="translate(7 7)"/>
</clipPath>
</defs>
</svg>
