<svg width="136" height="136" viewBox="0 0 136 136" fill="none" xmlns="http://www.w3.org/2000/svg">
<g filter="url(#filter0_d_8_219963)">
<circle cx="62" cy="58" r="33" fill="#F4F9FF"/>
</g>
<g clip-path="url(#clip0_8_219963)">
<path d="M73 72H51V62H49V72C49 72.5304 49.2107 73.0391 49.5858 73.4142C49.9609 73.7893 50.4696 74 51 74H73C73.5304 74 74.0391 73.7893 74.4142 73.4142C74.7893 73.0391 75 72.5304 75 72V62H73V72Z" fill="#E9C46A"/>
<path d="M58 64C58 64.2652 58.1054 64.5196 58.2929 64.7071C58.4804 64.8946 58.7348 65 59 65H65C65.2652 65 65.5196 64.8946 65.7071 64.7071C65.8946 64.5196 66 64.2652 66 64C66 63.7348 65.8946 63.4804 65.7071 63.2929C65.5196 63.1054 65.2652 63 65 63H59C58.7348 63 58.4804 63.1054 58.2929 63.2929C58.1054 63.4804 58 63.7348 58 64Z" fill="#E9C46A"/>
<path d="M58 58H50V54H54C53.5672 53.4722 53.3273 52.8125 53.32 52.13C53.32 52.13 53.32 52.04 53.32 52H49.5C49.1022 52 48.7206 52.158 48.4393 52.4393C48.158 52.7206 48 53.1022 48 53.5V60H60L58 58Z" fill="#E9C46A"/>
<path d="M74.5 52H70.66V52.13C70.6583 52.8101 70.4256 53.4695 70 54H74V58H66L64 60H76V53.5C76 53.1022 75.842 52.7206 75.5607 52.4393C75.2794 52.158 74.8978 52 74.5 52Z" fill="#E9C46A"/>
<path d="M62.0024 59.18L68.3824 52.83C68.4982 52.7456 68.5944 52.6374 68.6647 52.5126C68.735 52.3878 68.7776 52.2494 68.7897 52.1067C68.8019 51.964 68.7832 51.8204 68.7351 51.6855C68.6869 51.5506 68.6103 51.4277 68.5105 51.325C68.4107 51.2223 68.29 51.1422 68.1565 51.0902C68.0231 51.0382 67.8801 51.0155 67.7371 51.0235C67.5941 51.0316 67.4545 51.0703 67.3278 51.1369C67.201 51.2036 67.0901 51.2967 67.0024 51.41L63.0024 55.36V43C63.0024 42.7348 62.8971 42.4804 62.7095 42.2929C62.522 42.1054 62.2677 42 62.0024 42C61.7372 42 61.4829 42.1054 61.2953 42.2929C61.1078 42.4804 61.0024 42.7348 61.0024 43V55.4L57.0024 51.45C56.8141 51.263 56.5593 51.1585 56.2939 51.1594C56.0285 51.1604 55.7744 51.2667 55.5874 51.455C55.4005 51.6433 55.2959 51.8982 55.2969 52.1635C55.2978 52.4289 55.4041 52.683 55.5924 52.87L62.0024 59.18Z" fill="#E9C46A"/>
</g>
<defs>
<filter id="filter0_d_8_219963" x="0" y="0" width="136" height="136" filterUnits="userSpaceOnUse" color-interpolation-filters="sRGB">
<feFlood flood-opacity="0" result="BackgroundImageFix"/>
<feColorMatrix in="SourceAlpha" type="matrix" values="0 0 0 0 0 0 0 0 0 0 0 0 0 0 0 0 0 0 127 0" result="hardAlpha"/>
<feOffset dx="6" dy="10"/>
<feGaussianBlur stdDeviation="17.5"/>
<feComposite in2="hardAlpha" operator="out"/>
<feColorMatrix type="matrix" values="0 0 0 0 0 0 0 0 0 0 0 0 0 0 0 0 0 0 0.01 0"/>
<feBlend mode="normal" in2="BackgroundImageFix" result="effect1_dropShadow_8_219963"/>
<feBlend mode="normal" in="SourceGraphic" in2="effect1_dropShadow_8_219963" result="shape"/>
</filter>
<clipPath id="clip0_8_219963">
<rect width="36" height="36" fill="white" transform="translate(44 40)"/>
</clipPath>
</defs>
</svg>
