<svg width="20" height="20" viewBox="0 0 20 20" fill="none" xmlns="http://www.w3.org/2000/svg">
<g clip-path="url(#clip0_8_221057)">
<path d="M16.1146 17.7782H3.89236V12.2227H2.78125V17.7782C2.78125 18.0729 2.89831 18.3555 3.10669 18.5639C3.31506 18.7723 3.59768 18.8893 3.89236 18.8893H16.1146C16.4093 18.8893 16.6919 18.7723 16.9003 18.5639C17.1086 18.3555 17.2257 18.0729 17.2257 17.7782V12.2227H16.1146V17.7782Z" fill="#E9C46A"/>
<path d="M7.78125 13.3329C7.78125 13.4802 7.83978 13.6215 7.94397 13.7257C8.04816 13.8299 8.18946 13.8885 8.33681 13.8885H11.6701C11.8175 13.8885 11.9588 13.8299 12.063 13.7257C12.1672 13.6215 12.2257 13.4802 12.2257 13.3329C12.2257 13.1856 12.1672 13.0442 12.063 12.9401C11.9588 12.8359 11.8175 12.7773 11.6701 12.7773H8.33681C8.18946 12.7773 8.04816 12.8359 7.94397 12.9401C7.83978 13.0442 7.78125 13.1856 7.78125 13.3329Z" fill="#E9C46A"/>
<path d="M7.7743 9.99935H3.32986V7.77713H5.55208C5.31164 7.48389 5.17838 7.11743 5.1743 6.73824C5.1743 6.73824 5.1743 6.68824 5.1743 6.66602H3.05208C2.83107 6.66602 2.61911 6.75381 2.46283 6.91009C2.30655 7.06637 2.21875 7.27834 2.21875 7.49935V11.1105H8.88542L7.7743 9.99935Z" fill="#E9C46A"/>
<path d="M16.9427 6.66602H14.8094V6.73824C14.8084 7.11609 14.6792 7.48241 14.4427 7.77713H16.6649V9.99935H12.2205L11.1094 11.1105H17.776V7.49935C17.776 7.27834 17.6882 7.06637 17.532 6.91009C17.3757 6.75381 17.1637 6.66602 16.9427 6.66602Z" fill="#E9C46A"/>
<path d="M9.99875 10.6558L13.5432 7.12799C13.6075 7.08113 13.661 7.02099 13.7 6.95167C13.739 6.88234 13.7627 6.80544 13.7695 6.72616C13.7762 6.64689 13.7659 6.56709 13.7391 6.49216C13.7123 6.41724 13.6698 6.34894 13.6143 6.29188C13.5589 6.23483 13.4918 6.19034 13.4177 6.16145C13.3436 6.13255 13.2641 6.11992 13.1847 6.12439C13.1052 6.12887 13.0277 6.15036 12.9573 6.1874C12.8868 6.22444 12.8252 6.27618 12.7765 6.33911L10.5543 8.53355V1.66688C10.5543 1.51954 10.4958 1.37823 10.3916 1.27405C10.2874 1.16986 10.1461 1.11133 9.99875 1.11133C9.85141 1.11133 9.7101 1.16986 9.60591 1.27405C9.50173 1.37823 9.44319 1.51954 9.44319 1.66688V8.55577L7.22097 6.36133C7.11636 6.25745 6.97477 6.19939 6.82734 6.19991C6.67992 6.20043 6.53874 6.25949 6.43486 6.36411C6.33098 6.46872 6.27292 6.61031 6.27344 6.75774C6.27396 6.90516 6.33303 7.04634 6.43764 7.15022L9.99875 10.6558Z" fill="#E9C46A"/>
</g>
<defs>
<clipPath id="clip0_8_221057">
<rect width="20" height="20" fill="white"/>
</clipPath>
</defs>
</svg>
