<svg width="659" height="492" viewBox="0 0 659 492" fill="none" xmlns="http://www.w3.org/2000/svg">
<path d="M659 431.514H0V431.843H659V431.514Z" fill="#A0ACBB"/>
<path d="M592.965 452.721H549.312V453.05H592.965V452.721Z" fill="#A0ACBB"/>
<path d="M360.106 448.594H343.117V448.923H360.106V448.594Z" fill="#A0ACBB"/>
<path d="M460.864 449.992H425.094V450.322H460.864V449.992Z" fill="#A0ACBB"/>
<path d="M548 440.488H474.047V440.818H548V440.488Z" fill="#A0ACBB"/>
<path d="M104.107 455.738H69.1406V456.068H104.107V455.738Z" fill="#A0ACBB"/>
<path d="M146.15 455.738H115.836V456.068H146.15V455.738Z" fill="#A0ACBB"/>
<path d="M252.804 448.436H172.656V448.765H252.804V448.436Z" fill="#A0ACBB"/>
<path d="M312.365 372.73H57.872C55.8783 372.727 53.9675 371.932 52.559 370.522C51.1505 369.111 50.3594 367.198 50.3594 365.205V7.45988C50.3767 5.47764 51.1755 3.5823 52.5821 2.18553C53.9887 0.788768 55.8897 0.00339568 57.872 0H312.365C314.361 0 316.275 0.792893 317.686 2.20425C319.098 3.61561 319.89 5.52982 319.89 7.52578V365.205C319.89 367.201 319.098 369.115 317.686 370.526C316.275 371.938 314.361 372.73 312.365 372.73ZM57.872 0.263601C55.9657 0.267092 54.1387 1.02681 52.792 2.37599C51.4452 3.72518 50.6889 5.55359 50.6889 7.45988V365.205C50.6889 367.111 51.4452 368.939 52.792 370.289C54.1387 371.638 55.9657 372.397 57.872 372.401H312.365C314.272 372.397 316.1 371.638 317.449 370.289C318.798 368.941 319.557 367.112 319.561 365.205V7.45988C319.557 5.55238 318.798 3.724 317.449 2.37519C316.1 1.02638 314.272 0.267085 312.365 0.263601H57.872Z" fill="#A0ACBB"/>
<path d="M597.461 372.73H342.955C340.961 372.727 339.048 371.933 337.638 370.522C336.227 369.112 335.433 367.2 335.43 365.205V7.45988C335.45 5.47644 336.252 3.58111 337.661 2.18471C339.07 0.788307 340.972 0.00335865 342.955 0H597.461C599.441 0.00685953 601.339 0.793764 602.743 2.19016C604.146 3.58655 604.943 5.47992 604.961 7.45988V365.205C604.961 367.196 604.171 369.106 602.766 370.517C601.36 371.927 599.453 372.723 597.461 372.73ZM342.955 0.263601C341.048 0.267085 339.22 1.02638 337.871 2.37519C336.522 3.724 335.763 5.55238 335.759 7.45988V365.205C335.763 367.112 336.522 368.941 337.871 370.289C339.22 371.638 341.048 372.397 342.955 372.401H597.461C599.369 372.397 601.197 371.638 602.546 370.289C603.895 368.941 604.654 367.112 604.658 365.205V7.45988C604.654 5.55238 603.895 3.724 602.546 2.37519C601.197 1.02638 599.369 0.267085 597.461 0.263601H342.955Z" fill="#A0ACBB"/>
<path d="M349.135 318.152C346.499 310.574 325.687 320.881 317.239 333.441C311.611 341.797 308.171 350.733 306.576 362.727C306.761 349.046 306.985 334.337 307.196 320.459C308.909 317.006 312.811 309.032 315.605 302.705C324.976 281.617 347.237 273.709 354.921 260.45C365.003 243 364.938 216.838 356.371 207.388C348.911 199.19 324.225 254.677 321.444 260.872C313.856 277.463 309.077 295.198 307.301 313.355C307.512 300.32 307.71 288.313 307.868 279.087C308.395 248.97 309.041 239.283 309.344 236.304C310.372 234.855 311.585 233.154 312.297 232.245C318.267 224.561 331.526 215.401 338.143 204.224C347.817 187.894 346.261 168.362 339.461 161.086C332.37 153.481 319.822 171.459 313.166 189.265C306.511 207.071 309.357 224.126 307.486 238.927C307.104 241.827 306.695 252.845 306.326 268.134C304.296 251.686 300.276 240.667 292.817 230.4C283.591 217.773 275.683 202.392 268.183 204.383C260.684 206.373 264.69 226.709 270.674 240.997C275.946 253.728 302.306 266.408 306.128 276.648C305.667 297.367 305.258 323.622 304.969 348.058C302.899 335.431 304.323 334.377 295.835 315.042C290.8 303.549 270.121 289.38 267.656 297.275C265.191 305.17 268.974 320.09 276.737 330.542C283.037 338.977 297.008 338.964 300.237 344.196C301.001 345.422 303.492 350.101 304.916 352.789C304.573 382.629 304.428 408.976 304.599 417.951L305.917 418.044C305.917 415.724 306.023 400.54 306.287 380.454C309.687 369.765 332.528 363.531 339.579 352.407C347 340.822 352.311 327.247 349.135 318.152Z" fill="#E6E6E6"/>
<path d="M327.671 431.513H283.834C282.671 431.515 281.544 431.115 280.643 430.379C279.742 429.644 279.123 428.62 278.892 427.48L275.781 412.139H335.724L332.6 427.48C332.372 428.619 331.756 429.643 330.857 430.378C329.958 431.114 328.832 431.515 327.671 431.513Z" fill="#F0F0F0"/>
<path d="M336.973 418.083H274.527C273.799 418.083 273.097 417.814 272.557 417.327C272.016 416.84 271.676 416.17 271.601 415.447L270.283 404.099C270.238 403.688 270.281 403.272 270.408 402.878C270.534 402.484 270.742 402.121 271.018 401.813C271.294 401.505 271.632 401.258 272.009 401.089C272.386 400.92 272.795 400.831 273.209 400.83H338.212C338.625 400.831 339.034 400.919 339.41 401.089C339.787 401.258 340.124 401.505 340.399 401.814C340.674 402.122 340.88 402.485 341.006 402.879C341.131 403.273 341.171 403.688 341.125 404.099L339.807 415.447C339.737 416.156 339.41 416.815 338.888 417.3C338.367 417.785 337.686 418.064 336.973 418.083Z" fill="#F0F0F0"/>
<path d="M528.217 426.018H570.195V246.888H528.217V426.018Z" fill="#F0F0F0"/>
<path d="M349.863 431.514H567.359V426.018H349.863V431.514Z" fill="#F0F0F0"/>
<path d="M528.198 246.889H347.039V426.018H528.198V246.889Z" fill="#F5F5F5"/>
<path d="M511.703 317.492H363.547V355.424H511.703V317.492Z" fill="#F0F0F0"/>
<path d="M511.703 366.312H363.547V404.245H511.703V366.312Z" fill="#F0F0F0"/>
<path d="M420.999 324.031H454.253C456.516 324.031 458.352 322.199 458.352 319.939C458.352 317.679 456.516 315.846 454.253 315.846H420.999C418.736 315.846 416.9 317.679 416.9 319.939C416.9 322.199 418.736 324.031 420.999 324.031Z" fill="#F5F5F5"/>
<path d="M511.703 268.676H363.547V306.608H511.703V268.676Z" fill="#F0F0F0"/>
<path d="M420.997 275.212H454.251C455.334 275.209 456.373 274.778 457.141 274.012C457.908 273.247 458.343 272.21 458.35 271.126C458.346 270.04 457.913 269 457.145 268.232C456.377 267.464 455.337 267.031 454.251 267.027H420.997C419.911 267.031 418.871 267.464 418.103 268.232C417.335 269 416.902 270.04 416.898 271.126C416.905 272.21 417.34 273.247 418.107 274.012C418.875 274.778 419.914 275.209 420.997 275.212Z" fill="#F5F5F5"/>
<path d="M420.997 372.849H454.251C455.335 372.849 456.376 372.419 457.144 371.653C457.913 370.887 458.346 369.848 458.35 368.763C458.346 367.677 457.913 366.636 457.145 365.868C456.377 365.101 455.337 364.668 454.251 364.664H420.997C419.911 364.668 418.871 365.101 418.103 365.868C417.335 366.636 416.902 367.677 416.898 368.763C416.902 369.848 417.335 370.887 418.104 371.653C418.872 372.419 419.913 372.849 420.997 372.849Z" fill="#F5F5F5"/>
<path d="M343.314 246.889L528.203 246.889V241.775L343.314 241.775V246.889Z" fill="#F0F0F0"/>
<path d="M574.175 241.787H528.203V246.901H574.175V241.787Z" fill="#E6E6E6"/>
<path d="M194.288 431.514H235.766L235.766 163.261H194.288L194.288 431.514Z" fill="#E0E0E0"/>
<path d="M88.5859 431.513H227.464L242.054 101.328H103.176L88.5859 431.513Z" fill="#E6E6E6"/>
<path d="M68.3281 431.513H221.954L236.531 101.328H82.9184L68.3281 431.513Z" fill="#F0F0F0"/>
<path d="M206.912 415.329L219.196 117.527H97.9532L85.6562 415.329H206.912Z" fill="white"/>
<path d="M154.812 415.329L196.026 117.527H183.097L141.883 415.329H154.812Z" fill="#FAFAFA"/>
<path d="M136.402 415.329L177.616 117.527H155.565L114.352 415.329H136.402Z" fill="#FAFAFA"/>
<path d="M386.79 191.27L554.875 191.27V34.0321L386.79 34.0321V191.27Z" fill="#E6E6E6"/>
<path d="M381.564 191.27L552.43 191.27V34.0321L381.564 34.0321V191.27Z" fill="#F5F5F5"/>
<path d="M386.79 197.699L554.875 197.699V191.267L386.79 191.267V197.699Z" fill="#E6E6E6"/>
<path d="M376.892 197.699L536.344 197.699V191.267L376.892 191.267V197.699Z" fill="#F5F5F5"/>
<path d="M545.125 181.514V43.7695L388.863 43.7695V181.514H545.125Z" fill="#FAFAFA"/>
<path d="M389.914 181.527V43.7832H388.873V181.527H389.914Z" fill="#E6E6E6"/>
<path d="M519.215 181.514L492.196 43.7695H456.781L483.8 181.514H519.215Z" fill="white"/>
<path d="M478.069 181.514L451.05 43.7695H435.062L462.081 181.514H478.069Z" fill="white"/>
<path d="M539.906 174.056V28.6282C539.906 28.1842 539.546 27.8242 539.102 27.8242H539.036C538.592 27.8242 538.232 28.1842 538.232 28.6282V174.056C538.232 174.5 538.592 174.86 539.036 174.86H539.102C539.546 174.86 539.906 174.5 539.906 174.056Z" fill="#A0ACBB"/>
<path opacity="0.5" d="M377.738 51.875L557.711 51.875V27.8083L377.738 27.8083V51.875Z" fill="#E6E6E6"/>
<path d="M377.738 30.8008L557.711 30.8008V27.8089L377.738 27.8089V30.8008Z" fill="#E0E0E0"/>
<path d="M378.044 29.127L557.424 29.127C558.057 29.127 558.57 28.6136 558.57 27.9803V27.6508C558.57 27.0175 558.057 26.5041 557.424 26.5041L378.044 26.5041C377.411 26.5041 376.897 27.0175 376.897 27.6508V27.9803C376.897 28.6136 377.411 29.127 378.044 29.127Z" fill="#A0ACBB"/>
<path d="M377.515 52.5099H557.936C558.019 52.5099 558.101 52.4935 558.177 52.4615C558.253 52.4296 558.321 52.3828 558.379 52.3238C558.437 52.2649 558.482 52.1951 558.513 52.1184C558.543 52.0417 558.558 51.9597 558.556 51.8773C558.556 51.713 558.491 51.5554 558.374 51.4392C558.258 51.3231 558.101 51.2578 557.936 51.2578H377.515C377.35 51.2578 377.191 51.3226 377.073 51.4384C376.954 51.5542 376.886 51.7118 376.883 51.8773C376.883 52.0451 376.949 52.206 377.068 52.3246C377.187 52.4433 377.348 52.5099 377.515 52.5099Z" fill="white"/>
<path d="M329.5 491.035C470.635 491.035 585.047 484.355 585.047 476.115C585.047 467.875 470.635 461.195 329.5 461.195C188.365 461.195 73.9531 467.875 73.9531 476.115C73.9531 484.355 188.365 491.035 329.5 491.035Z" fill="#F5F5F5"/>
<path d="M85.4603 286.113L84.125 286.27L86.4978 306.56L87.8331 306.404L85.4603 286.113Z" fill="#E76F51"/>
<path d="M88.7181 313.951L87.3828 314.107L88.5799 324.344L89.9152 324.188L88.7181 313.951Z" fill="#E76F51"/>
<path d="M177.391 244.74L175.81 240.298C174.722 237.245 172.63 234.652 169.877 232.942C167.123 231.233 163.871 230.508 160.653 230.887L97.6656 238.255C93.8923 238.698 90.4493 240.621 88.0938 243.602C85.7384 246.582 84.6633 250.377 85.1051 254.15L103.03 407.433C103.179 408.715 103.579 409.956 104.207 411.083C104.836 412.21 105.68 413.202 106.693 414.003C107.705 414.804 108.865 415.397 110.107 415.749C111.349 416.1 112.648 416.204 113.93 416.053L339.308 389.693C340.592 389.548 341.835 389.15 342.965 388.523C344.096 387.895 345.091 387.051 345.894 386.039C346.698 385.026 347.293 383.865 347.646 382.621C348 381.378 348.104 380.077 347.954 378.793L332.401 246.282C332.101 243.695 330.785 241.334 328.743 239.717C326.702 238.101 324.101 237.361 321.515 237.662L190.637 252.977C187.823 253.303 184.982 252.666 182.577 251.17C180.171 249.674 178.344 247.407 177.391 244.74Z" fill="#E76F51"/>
<path d="M183.685 178.083L112.477 192.273L132.027 290.381L203.235 276.191L183.685 178.083Z" fill="#E76F51"/>
<path opacity="0.7" d="M183.685 178.083L112.477 192.273L132.027 290.381L203.235 276.191L183.685 178.083Z" fill="white"/>
<g opacity="0.4">
<path d="M174.179 201.653L130.316 210.405C129.294 210.603 128.235 210.391 127.369 209.813C126.503 209.236 125.9 208.34 125.69 207.321C125.491 206.299 125.704 205.24 126.281 204.374C126.859 203.508 127.754 202.905 128.774 202.695L172.663 193.983C173.685 193.784 174.744 193.997 175.61 194.574C176.476 195.152 177.079 196.047 177.289 197.067C177.476 198.086 177.254 199.138 176.672 199.996C176.09 200.854 175.195 201.449 174.179 201.653Z" fill="#E76F51"/>
<path d="M177.405 217.904L133.542 226.695C132.523 226.889 131.467 226.675 130.604 226.098C129.741 225.521 129.139 224.628 128.929 223.611C128.735 222.591 128.949 221.536 129.526 220.672C130.103 219.809 130.997 219.208 132.014 218.998L175.877 210.259C176.896 210.065 177.952 210.279 178.815 210.856C179.678 211.433 180.28 212.327 180.49 213.344C180.669 214.355 180.447 215.397 179.872 216.249C179.296 217.1 178.411 217.694 177.405 217.904Z" fill="#E76F51"/>
<path d="M180.64 234.128L136.777 242.866C135.757 243.061 134.702 242.846 133.838 242.269C132.975 241.692 132.374 240.799 132.164 239.782C131.969 238.762 132.184 237.707 132.761 236.844C133.338 235.981 134.231 235.379 135.248 235.169L179.111 226.418C180.131 226.223 181.186 226.438 182.049 227.015C182.912 227.592 183.514 228.485 183.724 229.502C183.922 230.524 183.71 231.582 183.132 232.449C182.555 233.315 181.659 233.918 180.64 234.128Z" fill="#E76F51"/>
<path d="M183.882 250.419L140.019 259.158C138.997 259.356 137.938 259.144 137.072 258.566C136.206 257.989 135.603 257.093 135.393 256.074C135.194 255.052 135.407 253.993 135.984 253.127C136.562 252.261 137.457 251.657 138.477 251.448L182.34 242.709C183.362 242.511 184.421 242.723 185.287 243.301C186.153 243.878 186.756 244.774 186.966 245.793C187.164 246.815 186.952 247.874 186.374 248.74C185.797 249.606 184.901 250.21 183.882 250.419Z" fill="#E76F51"/>
<path d="M175.117 268.964L143.248 275.317C142.228 275.511 141.173 275.297 140.31 274.72C139.446 274.143 138.845 273.249 138.635 272.233C138.437 271.211 138.649 270.152 139.227 269.286C139.804 268.42 140.7 267.816 141.719 267.606L173.588 261.254C174.608 261.059 175.664 261.274 176.527 261.851C177.39 262.428 177.991 263.321 178.201 264.338C178.4 265.36 178.187 266.418 177.61 267.284C177.032 268.151 176.137 268.754 175.117 268.964Z" fill="#E76F51"/>
</g>
<path d="M285.142 159.176L213.203 169.018L226.762 268.131L298.701 258.289L285.142 159.176Z" fill="#E76F51"/>
<path opacity="0.7" d="M285.142 159.176L213.203 169.018L226.762 268.131L298.701 258.289L285.142 159.176Z" fill="white"/>
<g opacity="0.4">
<path d="M274.226 182.147L229.915 188.21C228.883 188.345 227.84 188.068 227.011 187.439C226.182 186.81 225.634 185.879 225.487 184.849C225.351 183.817 225.628 182.774 226.257 181.944C226.887 181.115 227.817 180.568 228.848 180.421L273.159 174.358C274.191 174.222 275.234 174.499 276.063 175.129C276.892 175.758 277.44 176.688 277.587 177.719C277.723 178.751 277.446 179.794 276.817 180.623C276.187 181.452 275.257 182 274.226 182.147Z" fill="#E76F51"/>
<path d="M276.467 198.531L232.156 204.594C231.124 204.729 230.08 204.452 229.251 203.823C228.422 203.194 227.875 202.263 227.727 201.233C227.596 200.203 227.874 199.163 228.503 198.336C229.132 197.51 230.06 196.965 231.088 196.817L275.399 190.755C276.429 190.619 277.471 190.894 278.3 191.521C279.129 192.147 279.677 193.074 279.828 194.102C279.963 195.134 279.686 196.178 279.057 197.007C278.428 197.836 277.497 198.383 276.467 198.531Z" fill="#E76F51"/>
<path d="M246.604 219.313L234.4 220.987C233.368 221.123 232.324 220.846 231.495 220.217C230.666 219.587 230.118 218.657 229.971 217.626C229.836 216.595 230.113 215.551 230.742 214.722C231.371 213.893 232.302 213.345 233.332 213.198L245.55 211.524C246.58 211.392 247.62 211.671 248.446 212.3C249.272 212.929 249.818 213.857 249.965 214.885C250.101 215.917 249.824 216.961 249.194 217.79C248.565 218.619 247.635 219.166 246.604 219.313Z" fill="#E76F51"/>
<path d="M270.284 216.072L258.066 217.746C257.036 217.877 255.996 217.599 255.17 216.97C254.344 216.341 253.798 215.412 253.651 214.385C253.515 213.353 253.792 212.309 254.422 211.48C255.051 210.651 255.981 210.104 257.012 209.956L269.216 208.296C270.246 208.16 271.288 208.435 272.117 209.062C272.946 209.688 273.494 210.615 273.645 211.643C273.78 212.675 273.503 213.719 272.874 214.548C272.245 215.377 271.314 215.925 270.284 216.072Z" fill="#E76F51"/>
<path d="M280.951 231.307L236.64 237.37C235.608 237.506 234.565 237.229 233.735 236.599C232.906 235.97 232.359 235.04 232.212 234.009C232.08 232.979 232.359 231.939 232.987 231.113C233.616 230.287 234.545 229.741 235.573 229.594L279.884 223.518C280.916 223.383 281.959 223.66 282.788 224.289C283.617 224.918 284.165 225.849 284.312 226.879C284.448 227.911 284.171 228.954 283.541 229.784C282.912 230.613 281.982 231.16 280.951 231.307Z" fill="#E76F51"/>
<path d="M271.091 249.351L238.879 253.753C237.851 253.885 236.812 253.608 235.987 252.982C235.161 252.356 234.614 251.431 234.464 250.406C234.328 249.376 234.603 248.334 235.23 247.505C235.856 246.677 236.783 246.128 237.811 245.977L270.023 241.575C271.051 241.443 272.09 241.72 272.915 242.346C273.741 242.972 274.288 243.898 274.438 244.923C274.574 245.953 274.299 246.995 273.672 247.823C273.046 248.652 272.119 249.201 271.091 249.351Z" fill="#E76F51"/>
</g>
<path d="M217.264 173.636L144.93 179.939L153.614 279.598L225.948 273.295L217.264 173.636Z" fill="#E76F51"/>
<path opacity="0.8" d="M217.264 173.636L144.93 179.939L153.614 279.598L225.948 273.295L217.264 173.636Z" fill="white"/>
<g opacity="0.4">
<path d="M205.229 196.066L160.668 199.941C159.631 200.025 158.603 199.698 157.806 199.029C157.009 198.36 156.508 197.405 156.41 196.369C156.33 195.335 156.659 194.31 157.327 193.516C157.995 192.722 158.949 192.222 159.982 192.125L204.544 188.171C205.581 188.087 206.609 188.415 207.406 189.083C208.202 189.752 208.704 190.707 208.801 191.743C208.852 192.262 208.8 192.785 208.647 193.284C208.495 193.782 208.246 194.245 207.914 194.647C207.582 195.049 207.174 195.381 206.713 195.625C206.252 195.868 205.748 196.018 205.229 196.066Z" fill="#E76F51"/>
<path d="M206.668 212.541L162.106 216.495C161.069 216.579 160.041 216.252 159.244 215.583C158.447 214.915 157.946 213.959 157.849 212.923C157.765 211.887 158.092 210.858 158.761 210.062C159.429 209.265 160.385 208.763 161.421 208.666L205.982 204.712C207.019 204.628 208.047 204.956 208.844 205.624C209.641 206.293 210.142 207.248 210.239 208.284C210.324 209.321 209.996 210.349 209.328 211.146C208.659 211.943 207.703 212.444 206.668 212.541Z" fill="#E76F51"/>
<path d="M208.105 229.016L163.544 232.97C162.507 233.054 161.479 232.726 160.682 232.058C159.885 231.389 159.384 230.434 159.286 229.398C159.202 228.361 159.53 227.333 160.198 226.536C160.867 225.739 161.823 225.238 162.858 225.141L207.42 221.187C208.457 221.103 209.485 221.43 210.282 222.099C211.079 222.767 211.58 223.723 211.677 224.759C211.761 225.795 211.434 226.824 210.765 227.62C210.096 228.417 209.141 228.919 208.105 229.016Z" fill="#E76F51"/>
<path d="M209.566 245.491L165.005 249.445C163.968 249.53 162.94 249.202 162.143 248.533C161.346 247.865 160.845 246.909 160.747 245.874C160.663 244.837 160.991 243.809 161.659 243.012C162.328 242.215 163.284 241.714 164.319 241.616L208.881 237.742C209.918 237.657 210.946 237.985 211.743 238.653C212.539 239.322 213.041 240.278 213.138 241.313C213.201 242.337 212.863 243.345 212.197 244.124C211.53 244.904 210.587 245.394 209.566 245.491Z" fill="#E76F51"/>
<path d="M198.795 263.033L166.411 265.854C165.368 265.949 164.33 265.627 163.524 264.957C162.718 264.287 162.212 263.325 162.115 262.282C162.03 261.245 162.358 260.217 163.026 259.42C163.695 258.623 164.651 258.122 165.686 258.025L198.07 255.204C199.106 255.12 200.135 255.448 200.931 256.116C201.728 256.785 202.23 257.741 202.327 258.776C202.412 259.807 202.089 260.83 201.429 261.625C200.769 262.421 199.823 262.927 198.795 263.033Z" fill="#E76F51"/>
</g>
<path d="M305.407 168.795L232.883 172.291L237.7 272.211L310.224 268.715L305.407 168.795Z" fill="#E76F51"/>
<path opacity="0.8" d="M305.407 168.795L232.883 172.291L237.7 272.211L310.224 268.715L305.407 168.795Z" fill="white"/>
<g opacity="0.4">
<path d="M292.517 190.717L247.85 192.878C246.812 192.921 245.799 192.554 245.029 191.856C244.26 191.158 243.796 190.185 243.738 189.148C243.695 188.11 244.062 187.097 244.76 186.327C245.458 185.558 246.43 185.094 247.468 185.036L292.148 182.875C293.186 182.831 294.199 183.198 294.969 183.896C295.738 184.594 296.202 185.567 296.26 186.604C296.303 187.645 295.934 188.66 295.234 189.43C294.533 190.2 293.557 190.662 292.517 190.717Z" fill="#E76F51"/>
<path d="M293.319 207.243L248.639 209.392C247.601 209.435 246.588 209.068 245.818 208.37C245.049 207.672 244.585 206.699 244.527 205.662C244.484 204.622 244.853 203.606 245.553 202.837C246.254 202.067 247.23 201.604 248.27 201.55L292.937 199.388C293.977 199.345 294.992 199.714 295.762 200.415C296.532 201.116 296.995 202.092 297.049 203.131C297.092 204.169 296.725 205.183 296.027 205.952C295.329 206.722 294.356 207.185 293.319 207.243Z" fill="#E76F51"/>
<path d="M261.754 225.38L249.444 225.973C248.406 226.016 247.392 225.649 246.623 224.951C245.853 224.253 245.39 223.281 245.332 222.243C245.288 221.205 245.655 220.192 246.353 219.423C247.051 218.653 248.024 218.189 249.061 218.131L261.372 217.525C262.412 217.482 263.427 217.851 264.197 218.551C264.967 219.252 265.429 220.228 265.484 221.268C265.527 222.306 265.16 223.319 264.462 224.089C263.764 224.858 262.791 225.322 261.754 225.38Z" fill="#E76F51"/>
<path d="M285.621 224.168L273.311 224.761C272.273 224.804 271.26 224.437 270.49 223.739C269.721 223.041 269.257 222.068 269.199 221.031C269.156 219.993 269.523 218.98 270.221 218.21C270.919 217.441 271.891 216.977 272.929 216.919L285.239 216.326C286.277 216.283 287.29 216.65 288.06 217.348C288.829 218.046 289.293 219.018 289.351 220.056C289.394 221.094 289.027 222.107 288.329 222.876C287.631 223.646 286.658 224.11 285.621 224.168Z" fill="#E76F51"/>
<path d="M294.913 240.286L250.233 242.435C249.195 242.478 248.181 242.111 247.412 241.413C246.642 240.715 246.179 239.742 246.121 238.705C246.078 237.665 246.446 236.649 247.147 235.88C247.848 235.11 248.824 234.647 249.864 234.593L294.531 232.431C295.571 232.388 296.586 232.757 297.356 233.458C298.126 234.158 298.588 235.135 298.643 236.174C298.686 237.212 298.319 238.226 297.621 238.995C296.923 239.765 295.95 240.228 294.913 240.286Z" fill="#E76F51"/>
<path d="M283.5 257.394L251.037 258.963C249.999 259.006 248.986 258.639 248.217 257.941C247.447 257.243 246.983 256.27 246.925 255.233C246.882 254.195 247.249 253.182 247.947 252.412C248.645 251.643 249.618 251.179 250.655 251.121L283.118 249.552C284.156 249.509 285.169 249.876 285.938 250.574C286.708 251.272 287.172 252.245 287.23 253.282C287.273 254.32 286.906 255.333 286.208 256.103C285.51 256.872 284.537 257.336 283.5 257.394Z" fill="#E76F51"/>
</g>
<path d="M197.506 247.573L196.346 243.237C195.534 240.236 193.647 237.638 191.045 235.937C188.442 234.236 185.305 233.551 182.23 234.011L119.243 241.378C115.422 241.847 111.903 243.693 109.345 246.571C106.788 249.448 105.368 253.16 105.352 257.01L108.923 407.064C108.945 408.3 109.23 409.517 109.761 410.634C110.292 411.75 111.056 412.74 112.001 413.536C112.946 414.333 114.051 414.918 115.241 415.252C116.431 415.586 117.679 415.661 118.901 415.473L344.279 389.113C346.895 388.796 349.307 387.535 351.061 385.567C352.815 383.6 353.792 381.06 353.808 378.424L350.724 248.707C350.7 247.47 350.413 246.253 349.881 245.136C349.348 244.02 348.583 243.031 347.637 242.234C346.691 241.438 345.586 240.853 344.395 240.519C343.204 240.185 341.956 240.11 340.733 240.298L209.869 255.6C207.183 256.01 204.439 255.419 202.16 253.939C199.881 252.459 198.225 250.194 197.506 247.573Z" fill="#E76F51"/>
<path opacity="0.3" d="M197.506 247.573L196.346 243.237C195.534 240.236 193.647 237.638 191.045 235.937C188.442 234.236 185.305 233.551 182.23 234.011L119.243 241.378C115.422 241.847 111.903 243.693 109.345 246.571C106.788 249.448 105.368 253.16 105.352 257.01L108.923 407.064C108.945 408.3 109.23 409.517 109.761 410.634C110.292 411.75 111.056 412.74 112.001 413.536C112.946 414.333 114.051 414.918 115.241 415.252C116.431 415.586 117.679 415.661 118.901 415.473L344.279 389.113C346.895 388.796 349.307 387.535 351.061 385.567C352.815 383.6 353.792 381.06 353.808 378.424L350.724 248.707C350.7 247.47 350.413 246.253 349.881 245.136C349.348 244.02 348.583 243.031 347.637 242.234C346.691 241.438 345.586 240.853 344.395 240.519C343.204 240.185 341.956 240.11 340.733 240.298L209.869 255.6C207.183 256.01 204.439 255.419 202.16 253.939C199.881 252.459 198.225 250.194 197.506 247.573Z" fill="black"/>
<path d="M417.809 175.438C416.834 180.328 415.793 185.152 414.62 189.936C413.447 194.721 412.3 199.558 411.022 204.342L409.071 211.499L408.821 212.422C408.702 212.817 408.57 213.212 408.412 213.621C408.075 214.518 407.632 215.372 407.094 216.165C406.44 217.15 405.604 218 404.629 218.669C403.556 219.397 402.32 219.849 401.031 219.987C399.079 220.129 397.128 219.713 395.403 218.787C394.094 218.074 392.865 217.222 391.739 216.244C389.702 214.463 387.899 212.43 386.375 210.194L390.131 206.925C391.925 208.32 393.819 209.58 395.799 210.695C396.659 211.183 397.569 211.576 398.514 211.868C399.318 212.132 400.03 212.092 400.03 211.96C400.03 211.828 399.898 211.96 399.832 211.96C399.766 211.96 399.832 211.96 399.832 211.736C399.832 211.512 399.99 211.275 400.082 210.932L400.385 209.469L401.914 202.273L405.012 187.88C406.013 183.083 407.094 178.272 408.135 173.527L417.809 175.438Z" fill="#FFC3BD"/>
<path d="M413.432 160.372C402.19 168.979 402.651 185.203 402.651 185.203L422.751 190.014C422.751 190.014 428.932 173.697 426.428 167.727C423.818 161.506 419.772 155.522 413.432 160.372Z" fill="#264653"/>
<path d="M391.129 207.122L383.735 199.729L379.781 211.301C379.781 211.301 386.029 214.661 391.999 211.485L391.129 207.122Z" fill="#FFC3BD"/>
<path d="M373.498 198.582L372.141 207.729L379.745 211.301L383.739 199.729L373.498 198.582Z" fill="#FFC3BD"/>
<path d="M478.594 466.386L467.285 467.493L455.516 440.566L466.824 439.459L478.594 466.386Z" fill="#FFC3BD"/>
<path d="M551.452 426.582L542.951 434.556L524.617 414.404L533.118 406.43L551.452 426.582Z" fill="#FFC3BD"/>
<path d="M539.065 430.735L545.444 419.243C545.552 419.041 545.729 418.886 545.942 418.806C546.156 418.726 546.391 418.726 546.604 418.808L556.423 422.551C556.666 422.653 556.884 422.805 557.064 422.997C557.244 423.189 557.381 423.417 557.467 423.666C557.553 423.914 557.585 424.178 557.562 424.44C557.539 424.703 557.461 424.957 557.333 425.187C555.039 429.141 553.735 430.96 550.927 436.021C549.201 439.131 545.84 446.262 543.454 450.519C541.069 454.776 536.693 452.693 537.299 450.69C540.027 441.701 539.513 436.706 538.749 432.752C538.618 432.063 538.73 431.351 539.065 430.735Z" fill="#264653"/>
<path d="M465.787 464.001H479.679C479.929 464.001 480.171 464.084 480.369 464.236C480.567 464.389 480.709 464.603 480.773 464.844L483.791 475.823C483.865 476.082 483.878 476.355 483.827 476.62C483.777 476.885 483.665 477.134 483.501 477.348C483.337 477.562 483.126 477.735 482.883 477.852C482.64 477.969 482.374 478.028 482.104 478.024C477.201 478.024 474.881 478.024 468.779 478.024H450.116C445.029 478.024 443.974 472.897 446.07 472.423C455.494 470.34 460.911 467.467 463.823 464.725C464.364 464.245 465.065 463.987 465.787 464.001Z" fill="#264653"/>
<path opacity="0.2" d="M455.531 440.58L461.594 454.458H473.39L466.84 439.473L455.531 440.58Z" fill="black"/>
<path opacity="0.2" d="M533.118 406.443L524.617 414.417L534.08 424.803L542.582 416.816L533.118 406.443Z" fill="black"/>
<path d="M416.835 158.712C416.835 158.712 411.748 160.939 428.803 228.421L476.172 224.322C473.72 205.119 472.666 193.23 478.452 152.86C471.704 152.062 464.907 151.758 458.115 151.951C450.91 152.058 443.722 152.68 436.605 153.809C429.937 155.107 423.338 156.744 416.835 158.712Z" fill="#264653"/>
<path d="M458.11 151.568C458.11 151.568 460.746 151.568 463.962 151.568C465.873 154.507 459.679 167.384 449.464 175.806C447.909 171.124 445.051 166.982 441.227 163.865L458.11 151.568Z" fill="white"/>
<path d="M436.605 153.639C436.605 153.639 435.405 153.81 432.545 154.469C430.634 157.408 427.405 169.969 433.033 176.374C434.45 171.517 437.292 167.196 441.191 163.972L436.605 153.639Z" fill="white"/>
<path d="M453.882 127.91C453.131 134.948 452.867 147.68 458.113 151.95C458.113 151.95 452.511 157.671 441.19 163.971C432.952 158.277 436.603 153.809 436.603 153.809C444.155 151.305 443.457 145.598 441.651 140.326L453.882 127.91Z" fill="#FFC3BD"/>
<path d="M440.992 164.011C440.992 164.011 447.938 156.446 451.536 157.896C455.134 159.345 452.353 161.942 452.037 164.38C451.721 166.818 453.434 173.303 448.623 171.616C443.813 169.929 440.992 164.011 440.992 164.011Z" fill="#E76F51"/>
<path d="M440.717 163.851C440.717 163.851 437.435 158.052 433.89 158.83C430.344 159.607 432.453 161.637 432.769 163.825C433.178 166.619 430.226 171.996 434.496 170.415C438.766 168.833 440.717 163.851 440.717 163.851Z" fill="#E76F51"/>
<g opacity="0.2">
<path d="M438.897 162.601C438.849 163.77 439.075 164.934 439.556 166.001C439.992 165.32 440.375 164.606 440.703 163.866C440.216 163.04 439.656 162.259 439.029 161.533C438.92 161.878 438.875 162.24 438.897 162.601Z" fill="black"/>
<path d="M443.525 161.559C442.036 162.877 441.008 164.01 441.008 164.01C441.391 164.801 441.831 165.563 442.326 166.29C443.122 165.492 443.592 164.425 443.644 163.298C443.77 162.719 443.729 162.115 443.525 161.559Z" fill="black"/>
</g>
<path d="M440.912 166.383C439.924 166.383 439.318 165.315 439.252 162.771C439.186 160.228 441.136 161.638 441.136 161.638C441.136 161.638 443.772 160.32 443.298 163.365C442.955 165.776 441.927 166.383 440.912 166.383Z" fill="#E76F51"/>
<path opacity="0.2" d="M448.9 132.984L441.664 140.326C442.098 141.548 442.428 142.804 442.653 144.082C445.565 143.41 449.783 140.378 449.822 137.268C449.775 135.796 449.463 134.345 448.9 132.984Z" fill="black"/>
<path d="M442.696 104.122C442.696 104.122 434.788 115.074 433.47 119.938C428.092 123.075 427.012 107.641 429.859 98.125C438.742 103.7 442.696 104.122 442.696 104.122Z" fill="#264653"/>
<path d="M460.075 116.918C457.136 128.16 456.121 132.984 449.241 137.689C438.869 144.78 425.702 138.717 425.214 126.816C424.779 116.114 429.656 99.5201 441.689 97.1872C444.341 96.6489 447.086 96.8 449.663 97.6259C452.24 98.4518 454.562 99.9251 456.406 101.905C458.251 103.884 459.557 106.304 460.199 108.933C460.842 111.561 460.799 114.31 460.075 116.918Z" fill="#FFC3BD"/>
<path d="M466.191 112.423C466.191 112.423 460.537 121.583 459.772 125.603C455.673 128.384 453.947 116.18 455.673 108.469C457.558 101.603 466.191 112.423 466.191 112.423Z" fill="#264653"/>
<path d="M463.938 106.058C462.304 107.297 460.577 102.724 462.198 99.2177C459.075 99.4154 455.318 97.557 456.122 94.5388C449.967 96.6081 447.687 90.3476 448.399 86.0113C449.256 80.7393 453.842 79.619 456.544 81.0029C456.544 78.6437 462.502 73.7276 464.769 77.5761C468.973 76.0868 475.747 76.5481 475.603 81.7147C478.383 81.7937 486.595 84.9438 483.511 92.2587C487.135 92.4695 489.099 97.0693 487.082 100.549C487.877 100.97 488.558 101.575 489.069 102.315C489.58 103.055 489.905 103.906 490.018 104.798C490.13 105.69 490.026 106.596 489.715 107.439C489.404 108.282 488.894 109.038 488.229 109.643C489.903 113.123 484.828 118.302 482.127 117.683C480.071 120.833 476.921 123.205 474.864 120.517C470.91 123.429 466.363 119.726 467.378 116.879C462.897 116.194 458.324 108.72 463.938 106.058Z" fill="#264653"/>
<path d="M470.631 94.9865C473.583 99.9159 473.333 105.531 470.091 107.442C466.848 109.353 461.8 106.98 458.848 102.051C455.896 97.1217 456.133 91.507 459.388 89.5959C462.644 87.6848 467.679 90.0704 470.631 94.9865Z" fill="#E76F51"/>
<path d="M443.218 102.803C443.047 104.213 439.159 103.844 438.038 101.353C436.43 103.04 432.648 103.91 431.356 102.078C429.168 106.19 424.766 105.109 423.633 103.146C422.499 101.182 421.748 97.5308 424.028 96.8059C422.71 95.6725 423.106 90.3346 426.559 91.0067C428.008 88.1599 431.976 84.9308 434.875 87.4481C436.457 86.1301 442.783 83.3887 445.34 88.4103C445.901 88.027 446.541 87.7759 447.213 87.6757C447.885 87.5756 448.571 87.629 449.219 87.8319C449.867 88.0349 450.461 88.3821 450.956 88.8475C451.45 89.313 451.833 89.8845 452.075 90.5191C456.174 89.4515 457.953 92.562 457.94 94.249C460.853 95.0398 461.051 100.075 459.258 101.155C459.957 103.699 459.588 106.427 456.912 106.19C456.398 109.617 451.812 110.144 450.731 108.286C447.752 110.197 441.676 106.875 443.218 102.803Z" fill="#264653"/>
<path d="M436.258 93.076C439.592 88.463 451.757 86.486 462.288 93.4582C471.778 99.6924 471.158 114.177 463.606 113.4C456.054 112.622 448.594 103.778 448.594 103.778L436.258 93.076Z" fill="#264653"/>
<path d="M460.995 127.066C459.945 129.048 458.154 130.536 456.013 131.205C453.153 132.062 451.677 129.531 452.415 126.803C453.087 124.351 455.367 120.951 458.254 121.294C458.883 121.377 459.482 121.617 459.995 121.991C460.509 122.365 460.92 122.862 461.193 123.435C461.465 124.009 461.59 124.642 461.555 125.276C461.521 125.91 461.328 126.526 460.995 127.066Z" fill="#FFC3BD"/>
<path d="M428.798 228.421C428.798 228.421 412.771 299.329 423.526 349.321C430.696 382.798 456.476 450.425 456.476 450.425L476.694 449.911C476.694 449.911 457.122 378.937 453.076 351.061C446.156 303.323 463.488 225.469 463.488 225.469L428.798 228.421Z" fill="#E76F51"/>
<path opacity="0.2" d="M447.277 242.748L457.346 258.683C454.302 277.576 452.37 296.632 451.56 315.752C437.392 290.315 444.166 256.205 447.277 242.748Z" fill="black"/>
<path d="M453.63 451.479L478.593 450.833L477.157 443.176L451.68 444.375L453.63 451.479Z" fill="#264653"/>
<path d="M439.156 227.67C439.156 227.67 448.554 302.861 468.943 343.917C485.405 377.078 529.334 424.315 529.334 424.315L540.563 412.743C540.563 412.743 510.895 361.447 498.664 339.423C468.653 285.385 493.181 244.197 476.166 224.361L439.156 227.67Z" fill="#E76F51"/>
<path d="M528.202 425.832L542.7 411.703L537.889 405.152L522.508 420.494L528.202 425.832Z" fill="#264653"/>
<path d="M476.648 221.488L479.152 225.547C479.35 225.851 478.981 226.22 478.44 226.272L428.752 230.569C428.33 230.569 427.961 230.424 427.908 230.16L427.117 225.956C427.051 225.666 427.407 225.389 427.869 225.35L475.844 221.198C475.991 221.17 476.144 221.183 476.285 221.234C476.426 221.285 476.552 221.372 476.648 221.488Z" fill="#E76F51"/>
<path opacity="0.5" d="M476.648 221.488L479.152 225.547C479.35 225.851 478.981 226.22 478.44 226.272L428.752 230.569C428.33 230.569 427.961 230.424 427.908 230.16L427.117 225.956C427.051 225.666 427.407 225.389 427.869 225.35L475.844 221.198C475.991 221.17 476.144 221.183 476.285 221.234C476.426 221.285 476.552 221.372 476.648 221.488Z" fill="white"/>
<path d="M470.66 227.408L471.978 227.302C472.229 227.302 472.413 227.131 472.387 226.973L471.306 221.516C471.306 221.345 471.042 221.239 470.779 221.266L469.461 221.371C469.197 221.371 469.013 221.543 469.052 221.701L470.133 227.157C470.173 227.315 470.41 227.434 470.66 227.408Z" fill="#E76F51"/>
<path d="M432.402 230.714L433.72 230.608C433.971 230.608 434.155 230.437 434.129 230.279L433.048 224.822C433.001 224.728 432.923 224.652 432.828 224.606C432.732 224.561 432.624 224.549 432.521 224.572L431.203 224.677C430.939 224.677 430.755 224.849 430.794 225.007L431.875 230.463C431.915 230.648 432.152 230.74 432.402 230.714Z" fill="#E76F51"/>
<path d="M451.535 229.067L452.853 228.948C453.116 228.948 453.301 228.777 453.261 228.619L452.181 223.162C452.181 223.004 451.917 222.886 451.667 222.912L450.349 223.03C450.098 223.03 449.914 223.202 449.94 223.36L451.021 228.817C451.047 228.975 451.271 229.08 451.535 229.067Z" fill="#E76F51"/>
<path d="M441.042 116.537C440.858 117.459 440.225 118.118 439.619 118C439.012 117.881 438.67 117.024 438.841 116.102C439.012 115.179 439.671 114.52 440.278 114.639C440.884 114.757 441.227 115.601 441.042 116.537Z" fill="#264653"/>
<path d="M430.552 114.466C430.735 113.537 430.391 112.688 429.784 112.568C429.177 112.449 428.536 113.105 428.354 114.034C428.171 114.962 428.516 115.812 429.123 115.931C429.73 116.05 430.37 115.394 430.552 114.466Z" fill="#264653"/>
<path d="M430.062 112.686L427.953 111.605C427.953 111.605 428.757 113.569 430.062 112.686Z" fill="#264653"/>
<path d="M434.166 116.787C432.931 118.742 431.432 120.516 429.711 122.059C430.111 122.499 430.602 122.846 431.152 123.074C431.701 123.301 432.293 123.405 432.887 123.377L434.166 116.787Z" fill="#ED847E"/>
<path d="M437.173 127.726C439.12 127.746 441.003 127.031 442.445 125.722C442.473 125.702 442.496 125.675 442.513 125.644C442.529 125.613 442.539 125.579 442.541 125.545C442.542 125.51 442.537 125.475 442.523 125.443C442.51 125.41 442.49 125.381 442.465 125.358C442.439 125.334 442.408 125.316 442.375 125.306C442.342 125.295 442.307 125.292 442.272 125.297C442.238 125.302 442.205 125.314 442.175 125.333C442.146 125.352 442.121 125.377 442.103 125.406C441.216 126.188 440.156 126.75 439.011 127.045C437.866 127.341 436.667 127.362 435.513 127.106C435.483 127.101 435.453 127.101 435.424 127.107C435.394 127.113 435.366 127.126 435.342 127.143C435.317 127.16 435.296 127.182 435.28 127.207C435.265 127.233 435.254 127.261 435.249 127.291C435.241 127.32 435.24 127.351 435.245 127.382C435.251 127.412 435.263 127.44 435.28 127.465C435.298 127.49 435.321 127.511 435.347 127.527C435.374 127.542 435.403 127.552 435.434 127.554C436.006 127.674 436.589 127.732 437.173 127.726Z" fill="#264653"/>
<path d="M447.328 112.938C447.411 112.937 447.493 112.914 447.565 112.872C447.67 112.809 447.745 112.707 447.775 112.589C447.805 112.47 447.786 112.345 447.723 112.24C447.287 111.499 446.68 110.873 445.954 110.415C445.227 109.956 444.401 109.678 443.545 109.604C443.484 109.602 443.424 109.612 443.367 109.634C443.311 109.655 443.259 109.688 443.215 109.729C443.171 109.771 443.135 109.821 443.111 109.876C443.086 109.932 443.072 109.991 443.071 110.052C443.069 110.112 443.079 110.173 443.101 110.229C443.122 110.286 443.155 110.338 443.196 110.382C443.238 110.426 443.288 110.461 443.343 110.486C443.398 110.511 443.458 110.525 443.519 110.526C444.226 110.604 444.904 110.849 445.498 111.241C446.091 111.633 446.583 112.16 446.932 112.78C446.981 112.836 447.042 112.88 447.111 112.908C447.179 112.935 447.254 112.946 447.328 112.938Z" fill="#264653"/>
<path d="M427.668 109.222C427.742 109.239 427.819 109.239 427.892 109.222C428.505 108.86 429.194 108.647 429.904 108.601C430.614 108.556 431.324 108.678 431.978 108.959C432.085 109.003 432.205 109.006 432.314 108.966C432.423 108.927 432.513 108.847 432.566 108.744C432.619 108.642 432.631 108.522 432.601 108.411C432.57 108.299 432.498 108.203 432.4 108.141C431.611 107.784 430.747 107.622 429.882 107.67C429.016 107.719 428.176 107.975 427.431 108.418C427.328 108.479 427.252 108.578 427.22 108.693C427.188 108.809 427.202 108.932 427.26 109.038C427.305 109.103 427.366 109.154 427.438 109.187C427.51 109.219 427.59 109.231 427.668 109.222Z" fill="#264653"/>
<path d="M480.47 163.641C481.366 164.511 481.985 165.196 482.684 165.973C483.382 166.751 484.002 167.516 484.634 168.293C485.887 169.862 487.086 171.47 488.206 173.117C490.434 176.439 492.408 179.924 494.111 183.542C495.81 187.178 497.182 190.958 498.21 194.838C498.724 196.775 499.185 198.792 499.528 200.729C500.182 203.528 499.861 206.467 498.618 209.059C497.895 210.42 496.894 211.615 495.679 212.565C494.626 213.375 493.469 214.04 492.239 214.542C490.124 215.358 487.906 215.881 485.649 216.097C481.644 216.482 477.609 216.429 473.616 215.939C465.971 215.05 458.425 213.448 451.078 211.155L452.291 206.37C455.876 206.963 459.566 207.517 463.204 207.899C466.841 208.281 470.505 208.624 474.104 208.703C477.589 208.829 481.079 208.634 484.529 208.123C486.015 207.881 487.46 207.438 488.826 206.805C489.662 206.488 490.353 205.873 490.763 205.079C490.874 204.775 490.927 204.453 490.921 204.13C490.94 203.893 490.94 203.655 490.921 203.418C490.921 203.154 490.829 202.917 490.71 202.429C490.341 200.729 489.854 199.055 489.327 197.395C488.254 194.084 486.932 190.858 485.373 187.747C483.806 184.617 482.008 181.608 479.995 178.745C479.007 177.295 477.965 175.885 476.885 174.527C476.344 173.842 475.777 173.209 475.224 172.537C474.67 171.865 474.038 171.219 473.603 170.745L480.47 163.641Z" fill="#FFC3BD"/>
<path d="M455.304 207.097L446.078 202.207L445.656 214.425C445.656 214.425 452.246 214.847 456.016 211.789L455.304 207.097Z" fill="#FFC3BD"/>
<path d="M439.121 272.825L446.739 190.042L430.462 177.573L380.774 173L372.141 266.657L439.121 272.825Z" fill="#E76F51"/>
<path opacity="0.8" d="M439.121 272.825L446.739 190.042L430.462 177.573L380.774 173L372.141 266.657L439.121 272.825Z" fill="white"/>
<path d="M446.738 190.043L430.461 177.574L434.731 192.494L446.738 190.043Z" fill="#E76F51"/>
<path d="M377.969 281.128C389.179 281.128 398.266 272.04 398.266 260.83C398.266 249.621 389.179 240.533 377.969 240.533C366.759 240.533 357.672 249.621 357.672 260.83C357.672 272.04 366.759 281.128 377.969 281.128Z" fill="#E76F51"/>
<path d="M387.993 273.517C395.007 267.976 396.201 257.798 390.66 250.784C385.118 243.77 374.94 242.576 367.926 248.117C360.912 253.658 359.719 263.836 365.26 270.85C370.801 277.864 380.979 279.058 387.993 273.517Z" fill="white"/>
<path d="M387.968 259.408L380.825 258.578L381.655 251.434L376.541 250.828L375.711 257.972L368.567 257.128L367.961 262.255L375.105 263.099L374.261 270.229L379.388 270.835L380.218 263.692L387.362 264.535L387.968 259.408Z" fill="#E76F51"/>
<path opacity="0.4" d="M434.588 207.202C434.522 207.926 434.314 208.631 433.975 209.275C433.636 209.918 433.174 210.489 432.615 210.954C432.055 211.42 431.41 211.77 430.715 211.985C430.02 212.201 429.289 212.277 428.565 212.21L392.32 208.876C390.858 208.739 389.51 208.028 388.571 206.899C387.633 205.77 387.18 204.315 387.312 202.852C387.378 202.128 387.586 201.423 387.925 200.779C388.263 200.136 388.726 199.565 389.285 199.1C389.844 198.634 390.49 198.284 391.185 198.069C391.88 197.853 392.61 197.777 393.335 197.844L429.58 201.178C430.304 201.245 431.009 201.453 431.653 201.792C432.297 202.13 432.867 202.592 433.333 203.152C433.798 203.711 434.148 204.357 434.364 205.052C434.579 205.747 434.655 206.477 434.588 207.202Z" fill="#E76F51"/>
<path opacity="0.4" d="M422.239 222.161C422.173 222.885 421.964 223.59 421.626 224.234C421.287 224.878 420.825 225.449 420.265 225.914C419.706 226.379 419.06 226.729 418.365 226.945C417.671 227.16 416.94 227.236 416.216 227.169L390.884 224.837C390.159 224.77 389.455 224.562 388.811 224.223C388.167 223.885 387.596 223.422 387.131 222.863C386.666 222.304 386.315 221.658 386.1 220.963C385.884 220.268 385.808 219.538 385.875 218.813C385.941 218.089 386.15 217.384 386.488 216.74C386.827 216.096 387.289 215.526 387.849 215.06C388.408 214.595 389.054 214.245 389.749 214.03C390.443 213.814 391.174 213.738 391.898 213.805L417.23 216.151C418.69 216.288 420.036 216.997 420.974 218.123C421.912 219.249 422.367 220.701 422.239 222.161Z" fill="#E76F51"/>
<path d="M440.438 202.932L441.821 212.066L445.644 214.425L446.065 202.207L440.438 202.932Z" fill="#FFC3BD"/>
<path d="M478.436 152.888C484.249 153.916 492.394 170.575 492.394 170.575L477.751 183.755C477.751 183.755 466.1 171.05 466.719 163.484C467.26 157.092 471.055 151.57 478.436 152.888Z" fill="#264653"/>
<path d="M536.798 436.917C536.95 436.914 537.1 436.892 537.246 436.851C538.643 436.377 539.553 433.806 539.974 432.317C539.983 432.274 539.981 432.23 539.967 432.188C539.953 432.146 539.928 432.109 539.895 432.08C539.86 432.051 539.816 432.035 539.77 432.035C539.725 432.035 539.68 432.051 539.645 432.08C539.223 432.291 535.506 434.281 535.388 435.744C535.371 435.903 535.398 436.065 535.468 436.209C535.538 436.354 535.647 436.476 535.783 436.561C536.071 436.793 536.429 436.918 536.798 436.917ZM539.434 432.726C538.788 434.782 537.958 436.139 537.167 436.403C536.988 436.458 536.797 436.465 536.615 436.424C536.432 436.382 536.263 436.293 536.126 436.166C536.055 436.125 535.997 436.065 535.96 435.993C535.922 435.92 535.907 435.838 535.915 435.757C535.915 434.861 538.09 433.451 539.368 432.726H539.434Z" fill="#E76F51"/>
<path d="M536.215 433.305C537.481 433.299 538.729 433.006 539.866 432.448C539.898 432.426 539.925 432.397 539.943 432.363C539.962 432.328 539.971 432.29 539.971 432.25C539.973 432.21 539.962 432.169 539.941 432.134C539.92 432.099 539.889 432.071 539.853 432.053C539.734 431.987 536.795 430.366 535.213 430.932C535.014 430.991 534.832 431.095 534.681 431.237C534.529 431.379 534.414 431.555 534.343 431.75C534.245 431.934 534.212 432.147 534.25 432.353C534.288 432.559 534.396 432.746 534.554 432.883C535.045 433.205 535.63 433.353 536.215 433.305ZM539.233 432.25C537.981 432.791 535.543 433.12 534.857 432.54C534.739 432.435 534.62 432.277 534.778 431.921C534.825 431.79 534.902 431.672 535.003 431.576C535.104 431.48 535.225 431.408 535.358 431.367C536.426 430.985 538.403 431.842 539.233 432.303V432.25Z" fill="#E76F51"/>
<path d="M459.628 466.242C460.902 466.211 462.17 466.048 463.411 465.754C463.454 465.739 463.492 465.71 463.518 465.672C463.545 465.635 463.559 465.589 463.559 465.543C463.559 465.497 463.545 465.452 463.518 465.414C463.492 465.377 463.454 465.348 463.411 465.332C462.844 465.056 457.796 462.696 456.531 463.593C456.414 463.668 456.322 463.775 456.264 463.901C456.205 464.027 456.184 464.167 456.201 464.304C456.204 464.562 456.268 464.816 456.387 465.045C456.506 465.274 456.677 465.472 456.887 465.622C457.711 466.116 458.672 466.333 459.628 466.242ZM462.62 465.451C461.131 465.728 458.363 466.097 457.216 465.24C457.069 465.125 456.948 464.979 456.862 464.813C456.776 464.647 456.726 464.465 456.715 464.278C456.704 464.22 456.71 464.16 456.734 464.106C456.757 464.052 456.797 464.006 456.847 463.975C457.546 463.487 460.524 464.528 462.62 465.451Z" fill="#E76F51"/>
<path d="M463.357 465.768C463.409 465.783 463.464 465.783 463.515 465.768C463.548 465.739 463.572 465.701 463.584 465.659C463.595 465.617 463.594 465.572 463.581 465.53C463.581 465.319 462.395 460.351 459.627 460.667C458.942 460.759 458.744 461.089 458.718 461.365C458.546 462.683 461.723 465.174 463.238 465.807L463.357 465.768ZM459.904 461.062C461.657 461.062 462.672 463.962 463.014 465.122C461.367 464.252 459.06 462.183 459.205 461.379C459.205 461.313 459.205 461.128 459.719 461.075L459.904 461.062Z" fill="#E76F51"/>
<path d="M440.533 114.743L438.438 113.662C438.438 113.662 439.241 115.626 440.533 114.743Z" fill="#264653"/>
</svg>
