<svg width="24" height="24" viewBox="0 0 24 24" fill="none" xmlns="http://www.w3.org/2000/svg">
<path d="M14.9984 16C15.2151 16 15.3943 15.9292 15.5359 15.7875C15.6776 15.6458 15.7484 15.4667 15.7484 15.25V13.75H17.2484C17.4651 13.75 17.6443 13.6792 17.7859 13.5375C17.9276 13.3958 17.9984 13.2167 17.9984 13C17.9984 12.7833 17.9276 12.6042 17.7859 12.4625C17.6443 12.3208 17.4651 12.25 17.2484 12.25H15.7484V10.75C15.7484 10.5333 15.6776 10.3542 15.5359 10.2125C15.3943 10.0708 15.2151 10 14.9984 10C14.7818 10 14.6026 10.0708 14.4609 10.2125C14.3193 10.3542 14.2484 10.5333 14.2484 10.75V12.25H12.7484C12.5318 12.25 12.3526 12.3208 12.2109 12.4625C12.0693 12.6042 11.9984 12.7833 11.9984 13C11.9984 13.2167 12.0693 13.3958 12.2109 13.5375C12.3526 13.6792 12.5318 13.75 12.7484 13.75H14.2484V15.25C14.2484 15.4667 14.3193 15.6458 14.4609 15.7875C14.6026 15.9292 14.7818 16 14.9984 16ZM3.52344 20C3.12344 20 2.77344 19.8458 2.47344 19.5375C2.17344 19.2292 2.02344 18.8833 2.02344 18.5V5.5C2.02344 5.11667 2.17344 4.77083 2.47344 4.4625C2.77344 4.15417 3.12344 4 3.52344 4H9.89844C10.0984 4 10.2943 4.04167 10.4859 4.125C10.6776 4.20833 10.8401 4.31667 10.9734 4.45L12.0234 5.5H20.5234C20.9068 5.5 21.2526 5.65417 21.5609 5.9625C21.8693 6.27083 22.0234 6.61667 22.0234 7V18.5C22.0234 18.8833 21.8693 19.2292 21.5609 19.5375C21.2526 19.8458 20.9068 20 20.5234 20H3.52344ZM3.52344 5.5V18.5H20.5234V7H11.3984L9.89844 5.5H3.52344ZM3.52344 5.5V18.5V5.5Z" fill="#3B4D60"/>
</svg>
