<svg width="24" height="24" viewBox="0 0 24 24" fill="none" xmlns="http://www.w3.org/2000/svg">
<path d="M11.2948 3C8.435 3 6.09572 5.34096 6.09572 8.20074C6.09572 9.94937 6.97293 11.4979 8.30652 12.44C5.20217 13.6845 3.00027 16.7207 3.00027 20.2626C2.97549 21.3792 4.66316 21.3792 4.63838 20.2626C4.63838 16.5031 7.66965 13.4734 11.4292 13.4734C12.7415 13.4734 13.9597 13.8474 14.9965 14.4891C15.9286 15.0608 16.7861 13.6627 15.854 13.091C15.3871 12.8022 14.8813 12.577 14.3598 12.3823C15.6472 11.4354 16.4891 9.91461 16.4891 8.20074C16.4891 5.34096 14.1546 3 11.2948 3ZM11.2948 4.63974C13.2693 4.63974 14.851 6.22625 14.851 8.20074C14.851 10.1752 13.2693 11.7552 11.2948 11.7552C9.3203 11.7552 7.73382 10.1752 7.73382 8.20074C7.73382 6.22625 9.3203 4.63974 11.2948 4.63974ZM16.3195 18.5764V20.2146C16.3432 21.2826 17.9339 21.2826 17.9576 20.2146V18.5764H19.5973C20.6904 18.5764 20.6904 16.9368 19.5973 16.9368H17.9576V15.2987C17.9629 14.8394 17.5898 14.4655 17.1305 14.47C16.6776 14.473 16.3142 14.8457 16.3195 15.2987V16.9368H14.6422C13.5099 16.9891 13.5882 18.6287 14.6814 18.5764H16.3195Z" fill="#3B4D60"/>
</svg>
