<svg width="18" height="18" viewBox="0 0 18 18" fill="none" xmlns="http://www.w3.org/2000/svg">
<path d="M10.4238 11.7998C9.98362 11.4927 9.51321 11.2424 9.02124 11.0513C9.67569 10.4564 10.1098 9.62314 10.1854 8.69028C11.1778 7.72323 12.4788 7.19308 13.8734 7.19308C14.9621 7.19308 16.0075 7.52092 16.8967 8.14104C17.2153 8.36326 17.6534 8.28525 17.8757 7.96661C18.0977 7.6481 18.0197 7.20983 17.7012 6.98775C17.261 6.68064 16.7905 6.43053 16.2985 6.23921C17.0207 5.58283 17.4747 4.63638 17.4747 3.58596C17.4747 1.60859 15.8661 0 13.8888 0C11.9115 0 10.303 1.60859 10.303 3.58596C10.303 4.63213 10.7533 5.57514 11.4705 6.23124C11.3723 6.26901 11.2747 6.30898 11.178 6.35156C10.7379 6.54522 10.3242 6.78337 9.93953 7.06301C9.40897 5.7449 8.11723 4.81205 6.61151 4.81205C4.63428 4.81205 3.02554 6.42064 3.02554 8.39788C3.02554 9.44115 3.47343 10.3816 4.1868 11.0374C2.27948 11.752 0.732966 13.2868 0.103373 15.2443C-0.105393 15.8934 0.00517059 16.5818 0.40677 17.1329C0.808369 17.684 1.42972 18 2.11151 18H8.22875C8.61703 18 8.93183 17.6852 8.93183 17.2968C8.93183 16.9085 8.61703 16.5937 8.22875 16.5937H2.11151C1.8842 16.5937 1.67708 16.4884 1.54317 16.3046C1.40926 16.1208 1.37245 15.8913 1.44195 15.6749C2.13692 13.5141 4.25644 12.0051 6.59612 12.0051C7.68473 12.0051 8.7302 12.333 9.61938 12.9531C9.93789 13.1753 10.3762 13.0972 10.5984 12.7787C10.8205 12.4602 10.7425 12.0219 10.4238 11.7998ZM13.8888 1.40628C15.0907 1.40628 16.0685 2.38405 16.0685 3.58596C16.0685 4.78774 15.0907 5.76564 13.8888 5.76564C12.687 5.76564 11.7091 4.78774 11.7091 3.58596C11.7091 2.38405 12.687 1.40628 13.8888 1.40628ZM6.61151 6.2182C7.81342 6.2182 8.79119 7.1961 8.79119 8.39788C8.79119 9.59979 7.81342 10.5776 6.61151 10.5776C5.40959 10.5776 4.43183 9.59979 4.43183 8.39788C4.43183 7.1961 5.40959 6.2182 6.61151 6.2182ZM18.0021 14.6602C18.0021 15.0484 17.6874 15.3632 17.2989 15.3632H15.3654V17.2968C15.3654 17.6852 15.0506 18 14.6623 18C14.2739 18 13.9591 17.6852 13.9591 17.2968V15.3632H12.0255C11.6373 15.3632 11.3225 15.0484 11.3225 14.6602C11.3225 14.2717 11.6373 13.9569 12.0255 13.9569H13.9591V12.0234C13.9591 11.6351 14.2739 11.3203 14.6623 11.3203C15.0506 11.3203 15.3654 11.6351 15.3654 12.0234V13.9569H17.2989C17.6874 13.9569 18.0021 14.2717 18.0021 14.6602Z" fill="#3B4D60"/>
</svg>
