<svg width="16" height="19" viewBox="0 0 16 19" fill="none" xmlns="http://www.w3.org/2000/svg">
<path d="M2.525 19C2.125 19 1.775 18.85 1.475 18.55C1.175 18.25 1.025 17.9 1.025 17.5V3.25H0.75C0.533333 3.25 0.354167 3.17917 0.2125 3.0375C0.0708334 2.89583 0 2.71667 0 2.5C0 2.28333 0.0708334 2.10417 0.2125 1.9625C0.354167 1.82083 0.533333 1.75 0.75 1.75H4.7C4.7 1.53333 4.77083 1.35417 4.9125 1.2125C5.05417 1.07083 5.23333 1 5.45 1H10.55C10.7667 1 10.9458 1.07083 11.0875 1.2125C11.2292 1.35417 11.3 1.53333 11.3 1.75H15.25C15.4667 1.75 15.6458 1.82083 15.7875 1.9625C15.9292 2.10417 16 2.28333 16 2.5C16 2.71667 15.9292 2.89583 15.7875 3.0375C15.6458 3.17917 15.4667 3.25 15.25 3.25H14.975V17.5C14.975 17.9 14.825 18.25 14.525 18.55C14.225 18.85 13.875 19 13.475 19H2.525ZM2.525 3.25V17.5H13.475V3.25H2.525ZM5.175 14.6C5.175 14.8167 5.24583 14.9958 5.3875 15.1375C5.52917 15.2792 5.70833 15.35 5.925 15.35C6.14167 15.35 6.32083 15.2792 6.4625 15.1375C6.60417 14.9958 6.675 14.8167 6.675 14.6V6.125C6.675 5.90833 6.60417 5.72917 6.4625 5.5875C6.32083 5.44583 6.14167 5.375 5.925 5.375C5.70833 5.375 5.52917 5.44583 5.3875 5.5875C5.24583 5.72917 5.175 5.90833 5.175 6.125V14.6ZM9.325 14.6C9.325 14.8167 9.39583 14.9958 9.5375 15.1375C9.67917 15.2792 9.85833 15.35 10.075 15.35C10.2917 15.35 10.4708 15.2792 10.6125 15.1375C10.7542 14.9958 10.825 14.8167 10.825 14.6V6.125C10.825 5.90833 10.7542 5.72917 10.6125 5.5875C10.4708 5.44583 10.2917 5.375 10.075 5.375C9.85833 5.375 9.67917 5.44583 9.5375 5.5875C9.39583 5.72917 9.325 5.90833 9.325 6.125V14.6ZM2.525 3.25V17.5V3.25Z" fill="#FF4D4F"/>
<path d="M4.25 1.75C4.25 0.921573 4.92157 0.25 5.75 0.25H10.25C11.0784 0.25 11.75 0.921573 11.75 1.75H4.25Z" fill="#FF4D4F"/>
</svg>
