<svg width="36" height="36" viewBox="0 0 36 36" fill="none" xmlns="http://www.w3.org/2000/svg">
<circle cx="18" cy="18" r="18" fill="#FF4D4F" fill-opacity="0.8"/>
<path d="M12.525 27C12.125 27 11.775 26.85 11.475 26.55C11.175 26.25 11.025 25.9 11.025 25.5V11.25H10.75C10.5333 11.25 10.3542 11.1792 10.2125 11.0375C10.0708 10.8958 10 10.7167 10 10.5C10 10.2833 10.0708 10.1042 10.2125 9.9625C10.3542 9.82083 10.5333 9.75 10.75 9.75H14.7C14.7 9.53333 14.7708 9.35417 14.9125 9.2125C15.0542 9.07083 15.2333 9 15.45 9H20.55C20.7667 9 20.9458 9.07083 21.0875 9.2125C21.2292 9.35417 21.3 9.53333 21.3 9.75H25.25C25.4667 9.75 25.6458 9.82083 25.7875 9.9625C25.9292 10.1042 26 10.2833 26 10.5C26 10.7167 25.9292 10.8958 25.7875 11.0375C25.6458 11.1792 25.4667 11.25 25.25 11.25H24.975V25.5C24.975 25.9 24.825 26.25 24.525 26.55C24.225 26.85 23.875 27 23.475 27H12.525ZM12.525 11.25V25.5H23.475V11.25H12.525ZM15.175 22.6C15.175 22.8167 15.2458 22.9958 15.3875 23.1375C15.5292 23.2792 15.7083 23.35 15.925 23.35C16.1417 23.35 16.3208 23.2792 16.4625 23.1375C16.6042 22.9958 16.675 22.8167 16.675 22.6V14.125C16.675 13.9083 16.6042 13.7292 16.4625 13.5875C16.3208 13.4458 16.1417 13.375 15.925 13.375C15.7083 13.375 15.5292 13.4458 15.3875 13.5875C15.2458 13.7292 15.175 13.9083 15.175 14.125V22.6ZM19.325 22.6C19.325 22.8167 19.3958 22.9958 19.5375 23.1375C19.6792 23.2792 19.8583 23.35 20.075 23.35C20.2917 23.35 20.4708 23.2792 20.6125 23.1375C20.7542 22.9958 20.825 22.8167 20.825 22.6V14.125C20.825 13.9083 20.7542 13.7292 20.6125 13.5875C20.4708 13.4458 20.2917 13.375 20.075 13.375C19.8583 13.375 19.6792 13.4458 19.5375 13.5875C19.3958 13.7292 19.325 13.9083 19.325 14.125V22.6ZM12.525 11.25V25.5V11.25Z" fill="white"/>
<path d="M14.25 9.75C14.25 8.92157 14.9216 8.25 15.75 8.25H20.25C21.0784 8.25 21.75 8.92157 21.75 9.75H14.25Z" fill="white"/>
</svg>
