<svg width="136" height="136" viewBox="0 0 136 136" fill="none" xmlns="http://www.w3.org/2000/svg">
<g filter="url(#filter0_d_8_66462)">
<circle cx="62" cy="58" r="33" fill="#F4F9FF"/>
</g>
<path fill-rule="evenodd" clip-rule="evenodd" d="M55.689 47.3687C55.689 44.8942 57.8001 43 60.2622 43H63.7378C66.1999 43 68.311 44.8942 68.311 47.3687V47.9067H75.9024C76.5086 47.9067 77 48.3981 77 49.0043C77 49.6105 76.5086 50.1019 75.9024 50.1019H73.5244V68.6313C73.5244 71.1058 71.4133 73 68.9512 73H55.0488C52.5867 73 50.4756 71.1058 50.4756 68.6313V50.1019H48.0976C47.4914 50.1019 47 49.6105 47 49.0043C47 48.3981 47.4914 47.9067 48.0976 47.9067H55.689V47.3687ZM52.6707 50.1019V68.6313C52.6707 69.77 53.6718 70.8049 55.0488 70.8049H68.9512C70.3282 70.8049 71.3293 69.77 71.3293 68.6313V50.1019H52.6707ZM66.1159 47.9067H57.8841V47.3687C57.8841 46.23 58.8852 45.1951 60.2622 45.1951H63.7378C65.1148 45.1951 66.1159 46.23 66.1159 47.3687V47.9067ZM58.5244 54.4491C59.1306 54.4491 59.622 54.9405 59.622 55.5466V65.3601C59.622 65.9663 59.1306 66.4577 58.5244 66.4577C57.9182 66.4577 57.4268 65.9663 57.4268 65.3601V55.5466C57.4268 54.9405 57.9182 54.4491 58.5244 54.4491ZM65.4756 54.4491C66.0818 54.4491 66.5732 54.9405 66.5732 55.5466V65.3601C66.5732 65.9663 66.0818 66.4577 65.4756 66.4577C64.8694 66.4577 64.378 65.9663 64.378 65.3601V55.5466C64.378 54.9405 64.8694 54.4491 65.4756 54.4491Z" fill="#FF5F68"/>
<defs>
<filter id="filter0_d_8_66462" x="0" y="0" width="136" height="136" filterUnits="userSpaceOnUse" color-interpolation-filters="sRGB">
<feFlood flood-opacity="0" result="BackgroundImageFix"/>
<feColorMatrix in="SourceAlpha" type="matrix" values="0 0 0 0 0 0 0 0 0 0 0 0 0 0 0 0 0 0 127 0" result="hardAlpha"/>
<feOffset dx="6" dy="10"/>
<feGaussianBlur stdDeviation="17.5"/>
<feComposite in2="hardAlpha" operator="out"/>
<feColorMatrix type="matrix" values="0 0 0 0 0 0 0 0 0 0 0 0 0 0 0 0 0 0 0.01 0"/>
<feBlend mode="normal" in2="BackgroundImageFix" result="effect1_dropShadow_8_66462"/>
<feBlend mode="normal" in="SourceGraphic" in2="effect1_dropShadow_8_66462" result="shape"/>
</filter>
</defs>
</svg>
