<svg width="106" height="106" viewBox="0 0 106 106" fill="none" xmlns="http://www.w3.org/2000/svg">
<g filter="url(#filter0_d_8_219261)">
<circle cx="47" cy="43" r="18" fill="#F4F9FF"/>
</g>
<path d="M46.4141 35.6357C44.0761 35.6357 42.1688 37.5496 42.1688 39.8876C42.1688 41.3169 42.8839 42.5832 43.9723 43.3535C41.4337 44.3706 39.6328 46.8528 39.6328 49.749C39.6367 49.924 39.709 50.0905 39.8341 50.2129C39.9593 50.3353 40.1274 50.4039 40.3024 50.4039C40.4775 50.4039 40.6456 50.3353 40.7708 50.2129C40.8959 50.0905 40.9682 49.924 40.9721 49.749C40.9721 46.6753 43.4503 44.1983 46.524 44.1983C47.5969 44.1983 48.5929 44.5042 49.4406 45.0289C49.5156 45.0755 49.5991 45.1068 49.6863 45.1211C49.7735 45.1354 49.8627 45.1323 49.9487 45.1121C50.0347 45.0919 50.1159 45.0549 50.1876 45.0033C50.2593 44.9517 50.3201 44.8865 50.3665 44.8113C50.413 44.7361 50.4441 44.6525 50.4582 44.5653C50.4723 44.4781 50.4691 44.3889 50.4487 44.3029C50.4283 44.217 50.3911 44.1358 50.3393 44.0643C50.2875 43.9927 50.2221 43.932 50.1468 43.8858C49.7648 43.6494 49.3502 43.4643 48.9226 43.3051C49.9759 42.5309 50.666 41.2883 50.666 39.8876C50.666 37.5496 48.7522 35.6357 46.4141 35.6357ZM46.4141 36.9763C48.0284 36.9763 49.3268 38.2733 49.3268 39.8876C49.3268 41.5019 48.0284 42.7937 46.4141 42.7937C44.7999 42.7937 43.508 41.5019 43.508 39.8876C43.508 38.2733 44.7999 36.9763 46.4141 36.9763ZM53.1915 45.0132C53.0827 45.0163 52.9763 45.0459 52.8815 45.0995C52.7866 45.153 52.7063 45.2289 52.6475 45.3205L50.3391 48.7799L48.8912 47.8107C48.8178 47.7613 48.7354 47.727 48.6487 47.7095C48.5619 47.6921 48.4726 47.6919 48.3858 47.7091C48.299 47.7262 48.2165 47.7604 48.1429 47.8095C48.0693 47.8586 48.0061 47.9217 47.957 47.9953C47.9079 48.0689 47.8738 48.1513 47.8566 48.2381C47.8394 48.3249 47.8395 48.4143 47.8569 48.501C47.8744 48.5878 47.9087 48.6702 47.9581 48.7436C48.0074 48.8171 48.0707 48.88 48.1445 48.9289L50.1573 50.2682C50.2306 50.3169 50.3128 50.3506 50.3991 50.3675C50.4855 50.3843 50.5743 50.384 50.6606 50.3665C50.7468 50.349 50.8288 50.3147 50.9017 50.2655C50.9747 50.2163 51.0373 50.1533 51.0859 50.0799L53.7657 46.0608C53.8356 45.9587 53.8758 45.8392 53.8819 45.7157C53.888 45.5921 53.8598 45.4692 53.8003 45.3607C53.7409 45.2522 53.6525 45.1623 53.545 45.1009C53.4376 45.0396 53.3152 45.0092 53.1915 45.0132Z" fill="#2A9D8F"/>
<defs>
<filter id="filter0_d_8_219261" x="0" y="0" width="106" height="106" filterUnits="userSpaceOnUse" color-interpolation-filters="sRGB">
<feFlood flood-opacity="0" result="BackgroundImageFix"/>
<feColorMatrix in="SourceAlpha" type="matrix" values="0 0 0 0 0 0 0 0 0 0 0 0 0 0 0 0 0 0 127 0" result="hardAlpha"/>
<feOffset dx="6" dy="10"/>
<feGaussianBlur stdDeviation="17.5"/>
<feComposite in2="hardAlpha" operator="out"/>
<feColorMatrix type="matrix" values="0 0 0 0 0 0 0 0 0 0 0 0 0 0 0 0 0 0 0.01 0"/>
<feBlend mode="normal" in2="BackgroundImageFix" result="effect1_dropShadow_8_219261"/>
<feBlend mode="normal" in="SourceGraphic" in2="effect1_dropShadow_8_219261" result="shape"/>
</filter>
</defs>
</svg>
