<svg width="27" height="28" viewBox="0 0 27 28" fill="none" xmlns="http://www.w3.org/2000/svg">
<path d="M12.9324 0.5C8.64597 0.5 5.14927 4.00866 5.14927 8.2951C5.14927 10.9154 6.46042 13.237 8.45579 14.6491C3.80167 16.514 0.5 21.0646 0.5 26.3742C0.507122 26.6951 0.639591 27.0004 0.869046 27.2248C1.0985 27.4492 1.4067 27.575 1.72766 27.575C2.04861 27.575 2.35681 27.4492 2.58627 27.2248C2.81572 27.0004 2.94819 26.6951 2.95531 26.3742C2.95531 20.7392 7.49881 16.1981 13.1338 16.1981C15.1009 16.1981 16.9267 16.7589 18.4809 17.7207C18.6185 17.8062 18.7716 17.8636 18.9314 17.8898C19.0913 17.916 19.2547 17.9104 19.4124 17.8734C19.5701 17.8363 19.719 17.7685 19.8504 17.6739C19.9819 17.5792 20.0934 17.4597 20.1785 17.3218C20.2637 17.184 20.3208 17.0308 20.3466 16.8709C20.3724 16.7109 20.3665 16.5474 20.3291 16.3898C20.2916 16.2322 20.2235 16.0835 20.1285 15.9523C20.0336 15.8211 19.9137 15.7099 19.7757 15.6251C19.0754 15.1917 18.3152 14.8524 17.5313 14.5605C19.4623 13.1411 20.7276 10.8631 20.7276 8.2951C20.7276 4.00866 17.2189 0.5 12.9324 0.5ZM12.9324 2.95762C15.8919 2.95762 18.2723 5.3356 18.2723 8.2951C18.2723 11.2546 15.8919 13.623 12.9324 13.623C9.97292 13.623 7.60459 11.2546 7.60459 8.2951C7.60459 5.3356 9.97292 2.95762 12.9324 2.95762ZM25.3577 17.692C25.1581 17.6978 24.963 17.752 24.7892 17.8502C24.6154 17.9483 24.4681 18.0875 24.3602 18.2554L20.1281 24.5976L17.4738 22.8208C17.3392 22.7303 17.1881 22.6672 17.0291 22.6353C16.8701 22.6033 16.7063 22.603 16.5472 22.6344C16.3881 22.6658 16.2367 22.7285 16.1018 22.8185C15.9669 22.9085 15.8511 23.0243 15.761 23.1592C15.671 23.2941 15.6084 23.4453 15.5769 23.6044C15.5454 23.7635 15.5457 23.9274 15.5776 24.0864C15.6095 24.2454 15.6725 24.3965 15.7629 24.5312C15.8534 24.6658 15.9695 24.7812 16.1047 24.8709L19.7948 27.3262C19.9293 27.4154 20.08 27.4772 20.2383 27.5082C20.3966 27.5391 20.5595 27.5384 20.7176 27.5063C20.8757 27.4743 21.0259 27.4114 21.1597 27.3212C21.2935 27.2311 21.4082 27.1155 21.4973 26.981L26.4103 19.6127C26.5384 19.4255 26.6122 19.2064 26.6234 18.9799C26.6346 18.7533 26.5828 18.528 26.4738 18.3291C26.3648 18.1301 26.2027 17.9653 26.0057 17.8529C25.8087 17.7404 25.5844 17.6847 25.3577 17.692Z" fill="#2A9D8F"/>
</svg>
