<svg width="24" height="24" viewBox="0 0 24 24" fill="none" xmlns="http://www.w3.org/2000/svg">
<path d="M18.364 5.63602C16.6641 3.93618 14.404 3 12 3C9.59602 3 7.33593 3.93618 5.63602 5.63602C3.93618 7.33593 3 9.59602 3 12C3 14.404 3.93618 16.6641 5.63602 18.364C7.33593 20.0638 9.59602 21 12 21C14.404 21 16.6641 20.0638 18.364 18.364C20.0638 16.6641 21 14.404 21 12C21 9.59602 20.0638 7.33593 18.364 5.63602ZM12.5273 8.81073C13.496 8.78176 14.4364 8.67313 15.3178 8.49267C15.5372 9.41735 15.6676 10.425 15.7004 11.4727H12.5273V8.81073ZM12.5273 7.75548V4.14342C13.256 4.3866 13.9628 5.12259 14.5239 6.24478C14.7142 6.62538 14.8832 7.03798 15.0297 7.47669C14.2408 7.63307 13.398 7.72809 12.5273 7.75548ZM11.4727 4.14342V7.75548C10.602 7.72809 9.75921 7.63303 8.97034 7.47666C9.11687 7.03794 9.28583 6.62535 9.47613 6.24475C10.0372 5.12259 10.744 4.3866 11.4727 4.14342ZM11.4727 8.81073V11.4727H8.29956C8.33243 10.425 8.46282 9.41735 8.68223 8.49267C9.56357 8.67313 10.504 8.78176 11.4727 8.81073ZM7.24445 11.4727H4.07234C4.1688 9.99093 4.67084 8.58794 5.5251 7.39277C6.15443 7.73354 6.87425 8.01901 7.65841 8.24285C7.41907 9.24938 7.27802 10.3418 7.24445 11.4727ZM7.24445 12.5273C7.27802 13.6582 7.41907 14.7506 7.65838 15.7571C6.87422 15.981 6.15439 16.2665 5.52506 16.6072C4.67084 15.4121 4.1688 14.0091 4.07234 12.5273H7.24445ZM8.29956 12.5273H11.4727V15.1893C10.504 15.2182 9.56357 15.3269 8.68223 15.5073C8.46282 14.5826 8.33239 13.575 8.29956 12.5273ZM11.4727 16.2445V19.8566C10.744 19.6134 10.0372 18.8774 9.47613 17.7552C9.28583 17.3746 9.11687 16.962 8.97034 16.5233C9.75921 16.3669 10.602 16.2719 11.4727 16.2445ZM12.5273 19.8566V16.2445C13.398 16.2719 14.2408 16.367 15.0297 16.5233C14.8831 16.9621 14.7142 17.3747 14.5239 17.7553C13.9628 18.8774 13.256 19.6134 12.5273 19.8566ZM12.5273 15.1893V12.5273H15.7004C15.6676 13.575 15.5372 14.5826 15.3178 15.5073C14.4364 15.3269 13.496 15.2182 12.5273 15.1893ZM16.7556 12.5273H19.9277C19.8312 14.0091 19.3292 15.4121 18.4749 16.6072C17.8456 16.2665 17.1257 15.981 16.3416 15.7571C16.5809 14.7506 16.722 13.6582 16.7556 12.5273ZM16.7556 11.4727C16.722 10.3418 16.5809 9.24938 16.3416 8.24285C17.1258 8.01901 17.8456 7.73354 18.4749 7.39277C19.3292 8.58794 19.8312 9.99093 19.9277 11.4727H16.7556ZM17.7913 6.56101C17.2732 6.82447 16.6898 7.04863 16.0576 7.22944C15.8889 6.71046 15.6917 6.22218 15.4672 5.77309C15.2286 5.29584 14.9657 4.87646 14.6834 4.51713C15.7744 4.90754 16.7745 5.53814 17.6181 6.38186C17.6771 6.44071 17.7345 6.50061 17.7913 6.56101ZM9.31656 4.51713C9.03422 4.87646 8.77139 5.29588 8.53278 5.77309C8.30824 6.22218 8.11109 6.71046 7.94237 7.22944C7.31016 7.04863 6.72681 6.82447 6.20864 6.56101C6.26545 6.50061 6.3229 6.44071 6.38179 6.38186C7.2255 5.53811 8.22555 4.90754 9.31656 4.51713ZM6.20868 17.439C6.72681 17.1755 7.31019 16.9514 7.94241 16.7706C8.11112 17.2895 8.30828 17.7778 8.53282 18.2269C8.77143 18.7042 9.03425 19.1235 9.31659 19.4829C8.22555 19.0925 7.22553 18.4619 6.38186 17.6181C6.32293 17.5593 6.26545 17.4994 6.20868 17.439ZM14.6834 19.4829C14.9658 19.1235 15.2286 18.7041 15.4672 18.2269C15.6918 17.7778 15.8889 17.2895 16.0576 16.7706C16.6898 16.9514 17.2732 17.1755 17.7914 17.439C17.7345 17.4994 17.6771 17.5593 17.6182 17.6181C16.7745 18.4619 15.7744 19.0925 14.6834 19.4829Z" fill="#3B4D60"/>
</svg>
