<svg width="24" height="24" viewBox="0 0 24 24" fill="none" xmlns="http://www.w3.org/2000/svg">
<path d="M11.9996 13.0516L6.74961 18.3016C6.59961 18.4516 6.42461 18.5266 6.22461 18.5266C6.02461 18.5266 5.84961 18.4516 5.69961 18.3016C5.54961 18.1516 5.47461 17.9766 5.47461 17.7766C5.47461 17.5766 5.54961 17.4016 5.69961 17.2516L10.9496 12.0016L5.69961 6.75156C5.54961 6.60156 5.47461 6.42656 5.47461 6.22656C5.47461 6.02656 5.54961 5.85156 5.69961 5.70156C5.84961 5.55156 6.02461 5.47656 6.22461 5.47656C6.42461 5.47656 6.59961 5.55156 6.74961 5.70156L11.9996 10.9516L17.2496 5.70156C17.3996 5.55156 17.5746 5.47656 17.7746 5.47656C17.9746 5.47656 18.1496 5.55156 18.2996 5.70156C18.4496 5.85156 18.5246 6.02656 18.5246 6.22656C18.5246 6.42656 18.4496 6.60156 18.2996 6.75156L13.0496 12.0016L18.2996 17.2516C18.4496 17.4016 18.5246 17.5766 18.5246 17.7766C18.5246 17.9766 18.4496 18.1516 18.2996 18.3016C18.1496 18.4516 17.9746 18.5266 17.7746 18.5266C17.5746 18.5266 17.3996 18.4516 17.2496 18.3016L11.9996 13.0516Z" fill="#3B4D60"/>
</svg>
