<svg width="16" height="16" viewBox="0 0 16 16" fill="none" xmlns="http://www.w3.org/2000/svg">
<path d="M7.01536 9.51536L5.38203 7.88203C5.28203 7.78203 5.15981 7.73203 5.01536 7.73203C4.87092 7.73203 4.7487 7.78203 4.6487 7.88203C4.53759 7.99314 4.48203 8.1237 4.48203 8.2737C4.48203 8.4237 4.53203 8.5487 4.63203 8.6487L6.66536 10.682C6.75425 10.7709 6.87092 10.8154 7.01536 10.8154C7.15981 10.8154 7.27648 10.7709 7.36536 10.682L11.3654 6.68203C11.4654 6.58203 11.5154 6.45981 11.5154 6.31536C11.5154 6.17092 11.4598 6.04314 11.3487 5.93203C11.2487 5.83203 11.1237 5.78203 10.9737 5.78203C10.8237 5.78203 10.6931 5.83759 10.582 5.9487L7.01536 9.51536ZM7.9987 14.6654C7.05425 14.6654 6.17648 14.4959 5.36536 14.157C4.55425 13.8181 3.8487 13.3487 3.2487 12.7487C2.6487 12.1487 2.17925 11.4431 1.84036 10.632C1.50148 9.82092 1.33203 8.94314 1.33203 7.9987C1.33203 7.06536 1.50148 6.19314 1.84036 5.38203C2.17925 4.57092 2.6487 3.86536 3.2487 3.26536C3.8487 2.66536 4.55425 2.19314 5.36536 1.8487C6.17648 1.50425 7.05425 1.33203 7.9987 1.33203C8.93203 1.33203 9.80425 1.50425 10.6154 1.8487C11.4265 2.19314 12.132 2.66536 12.732 3.26536C13.332 3.86536 13.8043 4.57092 14.1487 5.38203C14.4931 6.19314 14.6654 7.06536 14.6654 7.9987C14.6654 8.94314 14.4931 9.82092 14.1487 10.632C13.8043 11.4431 13.332 12.1487 12.732 12.7487C12.132 13.3487 11.4265 13.8181 10.6154 14.157C9.80425 14.4959 8.93203 14.6654 7.9987 14.6654Z" fill="#52C41A"/>
</svg>
