<svg width="24" height="24" viewBox="0 0 24 24" fill="none" xmlns="http://www.w3.org/2000/svg">
<path d="M5.07692 11.3077H9.23077C10.3758 11.3077 11.3077 10.3758 11.3077 9.23077V5.07692C11.3077 3.93185 10.3758 3 9.23077 3H5.07692C3.93185 3 3 3.93185 3 5.07692V9.23077C3 10.3758 3.93185 11.3077 5.07692 11.3077ZM4.38462 5.07692C4.38462 4.69546 4.69477 4.38462 5.07692 4.38462H9.23077C9.61292 4.38462 9.92308 4.69546 9.92308 5.07692V9.23077C9.92308 9.61223 9.61292 9.92308 9.23077 9.92308H5.07692C4.69477 9.92308 4.38462 9.61223 4.38462 9.23077V5.07692Z" fill="#3B4D60"/>
<path d="M14.7683 20.9991H18.9222C20.0673 20.9991 20.9991 20.0673 20.9991 18.9222V14.7683C20.9991 13.6233 20.0673 12.6914 18.9222 12.6914H14.7683C13.6233 12.6914 12.6914 13.6233 12.6914 14.7683V18.9222C12.6914 20.0673 13.6233 20.9991 14.7683 20.9991ZM14.076 14.7683C14.076 14.3869 14.3862 14.076 14.7683 14.076H18.9222C19.3043 14.076 19.6145 14.3869 19.6145 14.7683V18.9222C19.6145 19.3036 19.3043 19.6145 18.9222 19.6145H14.7683C14.3862 19.6145 14.076 19.3036 14.076 18.9222V14.7683Z" fill="#3B4D60"/>
<path d="M5.07692 20.9991H9.23077C10.3758 20.9991 11.3077 20.0673 11.3077 18.9222V14.7683C11.3077 13.6233 10.3758 12.6914 9.23077 12.6914H5.07692C3.93185 12.6914 3 13.6233 3 14.7683V18.9222C3 20.0673 3.93185 20.9991 5.07692 20.9991ZM4.38462 14.7683C4.38462 14.3869 4.69477 14.076 5.07692 14.076H9.23077C9.61292 14.076 9.92308 14.3869 9.92308 14.7683V18.9222C9.92308 19.3036 9.61292 19.6145 9.23077 19.6145H5.07692C4.69477 19.6145 4.38462 19.3036 4.38462 18.9222V14.7683Z" fill="#3B4D60"/>
<path d="M12.6914 7.15385C12.6914 6.77169 13.0009 6.46154 13.3837 6.46154H16.1529V3.69231C16.1529 3.31015 16.4624 3 16.8453 3C17.2281 3 17.5376 3.31015 17.5376 3.69231V6.46154H20.3068C20.6896 6.46154 20.9991 6.77169 20.9991 7.15385C20.9991 7.536 20.6896 7.84615 20.3068 7.84615H17.5376V10.6154C17.5376 10.9975 17.2281 11.3077 16.8453 11.3077C16.4624 11.3077 16.1529 10.9975 16.1529 10.6154V7.84615H13.3837C13.0009 7.84615 12.6914 7.536 12.6914 7.15385Z" fill="#3B4D60"/>
</svg>
