<svg width="24" height="24" viewBox="0 0 24 24" fill="none" xmlns="http://www.w3.org/2000/svg">
<path d="M22.3969 18.6871L13.5057 3.94177C13.1554 3.36087 12.5164 3 11.838 3C11.1597 3 10.5207 3.36087 10.1704 3.94181L1.27923 18.6871C0.917209 19.2875 0.906498 20.0398 1.25124 20.6503C1.59607 21.2608 2.24576 21.64 2.94685 21.64H20.7292C21.4303 21.64 22.0801 21.2608 22.4249 20.6502C22.7696 20.0397 22.7589 19.2875 22.3969 18.6871ZM21.196 19.9563C21.1011 20.1243 20.9223 20.2288 20.7292 20.2288H2.94685C2.75384 20.2288 2.57497 20.1244 2.48009 19.9563C2.38518 19.7883 2.38814 19.5811 2.48776 19.4159L11.379 4.67054C11.4754 4.51064 11.6513 4.41128 11.8381 4.41128C12.0248 4.41128 12.2007 4.51064 12.2971 4.67054L21.1883 19.4159C21.288 19.5812 21.291 19.7883 21.196 19.9563Z" fill="#3B4D60"/>
<path d="M11.8464 8.80566C11.3096 8.80566 10.8906 9.09372 10.8906 9.60438C10.8906 11.1624 11.0739 13.4013 11.0739 14.9594C11.0739 15.3653 11.4275 15.5355 11.8464 15.5355C12.1607 15.5355 12.6058 15.3653 12.6058 14.9594C12.6058 13.4014 12.7891 11.1625 12.7891 9.60438C12.7891 9.09376 12.3571 8.80566 11.8464 8.80566Z" fill="#3B4D60"/>
<path d="M11.8598 16.4395C11.2837 16.4395 10.8516 16.8977 10.8516 17.4476C10.8516 17.9845 11.2836 18.4558 11.8598 18.4558C12.3966 18.4558 12.8549 17.9845 12.8549 17.4476C12.8549 16.8977 12.3965 16.4395 11.8598 16.4395Z" fill="#3B4D60"/>
</svg>
