<svg width="12" height="12" viewBox="0 0 12 12" fill="none" xmlns="http://www.w3.org/2000/svg">
<g clip-path="url(#clip0_1863_1391)">
<path d="M11.8302 7.17958C11.6937 7.09535 11.5174 7.11082 11.3992 7.21885C10.5385 7.99961 9.425 8.42982 8.26457 8.42982C5.68891 8.42982 3.59336 6.33427 3.59336 3.75861C3.59336 2.59809 4.02357 1.48471 4.80433 0.623933C4.91199 0.505281 4.9282 0.329499 4.8436 0.192994C4.75901 0.056855 4.59339 -0.00631648 4.44041 0.0368965C1.82575 0.777284 0 3.19428 0 5.9145C0 9.28291 2.74027 12.0231 6.10859 12.0231C8.82881 12.0231 11.2459 10.1973 11.9863 7.58277C12.0301 7.42832 11.9663 7.26408 11.8302 7.17958Z" fill="#264653"/>
<path d="M5.95062 4.76523L6.80188 5.19049L7.22714 6.04184C7.28784 6.16361 7.41245 6.24042 7.54859 6.24042C7.68482 6.24042 7.80896 6.16361 7.87003 6.04184L8.29575 5.19049L9.14664 4.76523C9.26841 4.70417 9.34522 4.57993 9.34522 4.44379C9.34522 4.30765 9.26841 4.18341 9.14664 4.12235L8.29575 3.69699L7.87003 2.84573C7.7479 2.6022 7.34864 2.6022 7.22714 2.84573L6.80188 3.69699L5.95062 4.12235C5.82886 4.18305 5.75195 4.30765 5.75195 4.44379C5.75195 4.57993 5.82886 4.70453 5.95062 4.76523Z" fill="#264653"/>
<path d="M9.70203 1.9617H10.0614V2.32105C10.0614 2.51963 10.2221 2.68039 10.4207 2.68039C10.6193 2.68039 10.7801 2.51963 10.7801 2.32105V1.9617H11.1394C11.338 1.9617 11.4988 1.80103 11.4988 1.60236C11.4988 1.40378 11.338 1.2431 11.1394 1.2431H10.7801V0.883759C10.7801 0.685089 10.6193 0.524414 10.4207 0.524414C10.2221 0.524414 10.0614 0.685089 10.0614 0.883759V1.2431H9.70203C9.50345 1.2431 9.34277 1.40378 9.34277 1.60236C9.34277 1.80103 9.50345 1.9617 9.70203 1.9617Z" fill="#264653"/>
</g>
<defs>
<clipPath id="clip0_1863_1391">
<rect width="12" height="12" fill="white"/>
</clipPath>
</defs>
</svg>
