<svg width="12" height="12" viewBox="0 0 12 12" fill="none" xmlns="http://www.w3.org/2000/svg">
<path d="M3.2625 10.5C3.0625 10.5 2.8875 10.425 2.7375 10.275C2.5875 10.125 2.5125 9.95 2.5125 9.75V2.625H2.375C2.26667 2.625 2.17708 2.58958 2.10625 2.51875C2.03542 2.44792 2 2.35833 2 2.25C2 2.14167 2.03542 2.05208 2.10625 1.98125C2.17708 1.91042 2.26667 1.875 2.375 1.875H4.35C4.35 1.76667 4.38542 1.67708 4.45625 1.60625C4.52708 1.53542 4.61667 1.5 4.725 1.5H7.275C7.38333 1.5 7.47292 1.53542 7.54375 1.60625C7.61458 1.67708 7.65 1.76667 7.65 1.875H9.625C9.73333 1.875 9.82292 1.91042 9.89375 1.98125C9.96458 2.05208 10 2.14167 10 2.25C10 2.35833 9.96458 2.44792 9.89375 2.51875C9.82292 2.58958 9.73333 2.625 9.625 2.625H9.4875V9.75C9.4875 9.95 9.4125 10.125 9.2625 10.275C9.1125 10.425 8.9375 10.5 8.7375 10.5H3.2625ZM3.2625 2.625V9.75H8.7375V2.625H3.2625ZM4.5875 8.3C4.5875 8.40833 4.62292 8.49792 4.69375 8.56875C4.76458 8.63958 4.85417 8.675 4.9625 8.675C5.07083 8.675 5.16042 8.63958 5.23125 8.56875C5.30208 8.49792 5.3375 8.40833 5.3375 8.3V4.0625C5.3375 3.95417 5.30208 3.86458 5.23125 3.79375C5.16042 3.72292 5.07083 3.6875 4.9625 3.6875C4.85417 3.6875 4.76458 3.72292 4.69375 3.79375C4.62292 3.86458 4.5875 3.95417 4.5875 4.0625V8.3ZM6.6625 8.3C6.6625 8.40833 6.69792 8.49792 6.76875 8.56875C6.83958 8.63958 6.92917 8.675 7.0375 8.675C7.14583 8.675 7.23542 8.63958 7.30625 8.56875C7.37708 8.49792 7.4125 8.40833 7.4125 8.3V4.0625C7.4125 3.95417 7.37708 3.86458 7.30625 3.79375C7.23542 3.72292 7.14583 3.6875 7.0375 3.6875C6.92917 3.6875 6.83958 3.72292 6.76875 3.79375C6.69792 3.86458 6.6625 3.95417 6.6625 4.0625V8.3ZM3.2625 2.625V9.75V2.625Z" fill="white"/>
<path d="M4.125 1.875C4.125 1.46079 4.46079 1.125 4.875 1.125H7.125C7.53921 1.125 7.875 1.46079 7.875 1.875H4.125Z" fill="white"/>
</svg>
