<svg width="32" height="28" viewBox="0 0 32 28" fill="none" xmlns="http://www.w3.org/2000/svg">
<path fill-rule="evenodd" clip-rule="evenodd" d="M16 0C16.7069 0 17.28 0.545045 17.28 1.21739V14.3835L20.1887 11.4494C20.6736 10.9602 21.4837 10.9376 21.9981 11.3988C22.5124 11.8601 22.5363 12.6305 22.0513 13.1197L16.9313 18.2844C16.6895 18.5284 16.3525 18.6667 16 18.6667C15.6475 18.6667 15.3105 18.5284 15.0687 18.2844L9.94869 13.1197C9.46373 12.6305 9.48756 11.8601 10.0019 11.3988C10.5163 10.9376 11.3264 10.9602 11.8113 11.4494L14.72 14.3835V1.21739C14.72 0.545045 15.2931 0 16 0Z" fill="#E76F51"/>
<path fill-rule="evenodd" clip-rule="evenodd" d="M1.23077 15.5556C1.9105 15.5556 2.46154 16.1127 2.46154 16.8V22.9265C2.46154 24.3838 3.5928 25.5111 4.92308 25.5111H27.0769C28.4072 25.5111 29.5385 24.3838 29.5385 22.9265V16.8C29.5385 16.1127 30.0895 15.5556 30.7692 15.5556C31.449 15.5556 32 16.1127 32 16.8V22.9265C32 25.6986 29.825 28 27.0769 28H4.92308C2.17495 28 0 25.6986 0 22.9265V16.8C0 16.1127 0.551034 15.5556 1.23077 15.5556Z" fill="#E76F51"/>
</svg>
