<svg width="24" height="24" viewBox="0 0 24 24" fill="none" xmlns="http://www.w3.org/2000/svg">
<path d="M11.9992 15.0768C11.8992 15.0768 11.8075 15.0601 11.7242 15.0268C11.6408 14.9934 11.5575 14.9351 11.4742 14.8518L6.52417 9.90177C6.39084 9.76843 6.32834 9.58927 6.33667 9.36427C6.34501 9.13927 6.41584 8.9601 6.54917 8.82677C6.71584 8.6601 6.89501 8.58927 7.08667 8.61427C7.27834 8.63927 7.44917 8.71843 7.59917 8.85177L11.9992 13.2518L16.3992 8.85177C16.5325 8.71843 16.7117 8.64343 16.9367 8.62677C17.1617 8.6101 17.3408 8.6851 17.4742 8.85177C17.6408 8.9851 17.7117 9.1601 17.6867 9.37677C17.6617 9.59343 17.5825 9.77677 17.4492 9.92677L12.5242 14.8518C12.4408 14.9351 12.3575 14.9934 12.2742 15.0268C12.1908 15.0601 12.0992 15.0768 11.9992 15.0768Z" fill="#3B4D60"/>
</svg>
