<svg width="12" height="10" viewBox="0 0 12 10" fill="none" xmlns="http://www.w3.org/2000/svg">
<path fill-rule="evenodd" clip-rule="evenodd" d="M6 0C6.2651 0 6.48 0.194659 6.48 0.434783V5.13697L7.57076 4.08909C7.75262 3.91437 8.0564 3.90628 8.24928 4.07101C8.44217 4.23574 8.4511 4.51091 8.26924 4.68562L6.34924 6.53015C6.25855 6.61728 6.1322 6.66667 6 6.66667C5.8678 6.66667 5.74145 6.61728 5.65076 6.53015L3.73076 4.68562C3.5489 4.51091 3.55783 4.23574 3.75071 4.07101C3.9436 3.90628 4.24738 3.91437 4.42924 4.08909L5.52 5.13697V0.434783C5.52 0.194659 5.7349 0 6 0Z" fill="white"/>
<path fill-rule="evenodd" clip-rule="evenodd" d="M0.461538 5.55556C0.716439 5.55556 0.923077 5.75454 0.923077 6V8.18804C0.923077 8.7085 1.3473 9.11111 1.84615 9.11111H10.1538C10.6527 9.11111 11.0769 8.7085 11.0769 8.18804V6C11.0769 5.75454 11.2836 5.55556 11.5385 5.55556C11.7934 5.55556 12 5.75454 12 6V8.18804C12 9.17807 11.1844 10 10.1538 10H1.84615C0.815606 10 0 9.17807 0 8.18804V6C0 5.75454 0.206638 5.55556 0.461538 5.55556Z" fill="white"/>
</svg>
