<svg width="12" height="8" viewBox="0 0 12 8" fill="none" xmlns="http://www.w3.org/2000/svg">
<path d="M5.99991 7.07506C5.89991 7.07506 5.80824 7.05839 5.72491 7.02506C5.64157 6.99172 5.55824 6.93339 5.47491 6.85006L0.524905 1.90006C0.391572 1.76672 0.329072 1.58756 0.337405 1.36256C0.345739 1.13756 0.416572 0.95839 0.549905 0.825057C0.716572 0.65839 0.895739 0.587557 1.08741 0.612557C1.27907 0.637557 1.44991 0.716724 1.59991 0.850058L5.99991 5.25006L10.3999 0.850058C10.5332 0.716724 10.7124 0.641724 10.9374 0.625057C11.1624 0.60839 11.3416 0.683391 11.4749 0.850058C11.6416 0.983391 11.7124 1.15839 11.6874 1.37506C11.6624 1.59172 11.5832 1.77506 11.4499 1.92506L6.5249 6.85006C6.44157 6.93339 6.35824 6.99172 6.2749 7.02506C6.19157 7.05839 6.09991 7.07506 5.99991 7.07506Z" fill="#3B4D60"/>
</svg>
