<svg width="13" height="13" viewBox="0 0 13 13" fill="none" xmlns="http://www.w3.org/2000/svg">
<path d="M1 12H1.73333L9.11667 4.61662L8.38333 3.88329L1 11.2666V12ZM11.2333 3.89995L9.1 1.76662L9.8 1.06662C9.98889 0.877731 10.225 0.786064 10.5083 0.79162C10.7917 0.797175 11.0278 0.894398 11.2167 1.08329L11.9333 1.79995C12.1222 1.98884 12.2167 2.22218 12.2167 2.49995C12.2167 2.77773 12.1222 3.01106 11.9333 3.19995L11.2333 3.89995ZM0.5 13C0.355556 13 0.236111 12.9527 0.141667 12.8583C0.0472223 12.7638 0 12.6444 0 12.5V11.0666C0 11 0.0111111 10.9388 0.0333333 10.8833C0.0555555 10.8277 0.0944444 10.7722 0.15 10.7166L8.4 2.46662L10.5333 4.59995L2.28333 12.85C2.22778 12.9055 2.17222 12.9444 2.11667 12.9666C2.06111 12.9888 2 13 1.93333 13H0.5ZM8.75 4.24995L8.38333 3.88329L9.11667 4.61662L8.75 4.24995Z" fill="#3B4D60"/>
</svg>
