<svg width="24" height="24" viewBox="0 0 24 24" fill="none" xmlns="http://www.w3.org/2000/svg">
<path d="M20.52 8.37294C20.52 9.53272 20.0593 10.645 19.2392 11.4651C18.4191 12.2852 17.3068 12.7459 16.1471 12.7459C14.9873 12.7459 13.875 12.2852 13.0549 11.4651C12.2348 10.645 11.7741 9.53272 11.7741 8.37294C11.7741 7.21316 12.2348 6.10089 13.0549 5.2808C13.875 4.46072 14.9873 4 16.1471 4C17.3068 4 18.4191 4.46072 19.2392 5.2808C20.0593 6.10089 20.52 7.21316 20.52 8.37294ZM16.6329 6.42941C16.6329 6.30055 16.5818 6.17696 16.4906 6.08584C16.3995 5.99472 16.2759 5.94353 16.1471 5.94353C16.0182 5.94353 15.8946 5.99472 15.8035 6.08584C15.7124 6.17696 15.6612 6.30055 15.6612 6.42941V7.88706H14.2035C14.0747 7.88706 13.9511 7.93825 13.86 8.02937C13.7688 8.12049 13.7176 8.24408 13.7176 8.37294C13.7176 8.5018 13.7688 8.62539 13.86 8.71651C13.9511 8.80763 14.0747 8.85882 14.2035 8.85882H15.6612V10.3165C15.6612 10.4453 15.7124 10.5689 15.8035 10.66C15.8946 10.7512 16.0182 10.8024 16.1471 10.8024C16.2759 10.8024 16.3995 10.7512 16.4906 10.66C16.5818 10.5689 16.6329 10.4453 16.6329 10.3165V8.85882H18.0906C18.2195 8.85882 18.343 8.80763 18.4342 8.71651C18.5253 8.62539 18.5765 8.5018 18.5765 8.37294C18.5765 8.24408 18.5253 8.12049 18.4342 8.02937C18.343 7.93825 18.2195 7.88706 18.0906 7.88706H16.6329V6.42941ZM18.5765 17.1188V13.1346C18.9226 12.9577 19.2485 12.7436 19.5482 12.4961V17.1188C19.5482 17.7631 19.2923 18.3811 18.8367 18.8367C18.3811 19.2923 17.7631 19.5482 17.1188 19.5482H6.42941C5.78509 19.5482 5.16716 19.2923 4.71156 18.8367C4.25596 18.3811 4 17.7631 4 17.1188V9.34471C4 8.70039 4.25596 8.08246 4.71156 7.62685C5.16716 7.17125 5.78509 6.91529 6.42941 6.91529H11.0035C10.9136 7.23294 10.8534 7.55826 10.8237 7.88706H6.42941C6.04282 7.88706 5.67206 8.04063 5.3987 8.31399C5.12534 8.58736 4.97176 8.95811 4.97176 9.34471V9.63818L11.7741 13.6399L13.1744 12.8158C13.4903 13.0267 13.8294 13.2055 14.188 13.3474L12.0209 14.6224C11.959 14.6587 11.8897 14.6809 11.8181 14.6873C11.7465 14.6937 11.6744 14.6841 11.607 14.6593L11.5273 14.6224L4.97176 10.7664V17.1188C4.97176 17.5054 5.12534 17.8762 5.3987 18.1495C5.67206 18.4229 6.04282 18.5765 6.42941 18.5765H17.1188C17.5054 18.5765 17.8762 18.4229 18.1495 18.1495C18.4229 17.8762 18.5765 17.5054 18.5765 17.1188Z" fill="#E76F51"/>
<rect x="0.5" y="0.5" width="23" height="23" rx="1.5" stroke="#E76F51" stroke-linejoin="round" stroke-dasharray="2 2"/>
</svg>
