<svg width="16" height="16" viewBox="0 0 16 16" fill="none" xmlns="http://www.w3.org/2000/svg">
<path d="M7.99844 8.69844L4.49844 12.1984C4.39844 12.2984 4.28177 12.3484 4.14844 12.3484C4.0151 12.3484 3.89844 12.2984 3.79844 12.1984C3.69844 12.0984 3.64844 11.9818 3.64844 11.8484C3.64844 11.7151 3.69844 11.5984 3.79844 11.4984L7.29844 7.99844L3.79844 4.49844C3.69844 4.39844 3.64844 4.28177 3.64844 4.14844C3.64844 4.0151 3.69844 3.89844 3.79844 3.79844C3.89844 3.69844 4.0151 3.64844 4.14844 3.64844C4.28177 3.64844 4.39844 3.69844 4.49844 3.79844L7.99844 7.29844L11.4984 3.79844C11.5984 3.69844 11.7151 3.64844 11.8484 3.64844C11.9818 3.64844 12.0984 3.69844 12.1984 3.79844C12.2984 3.89844 12.3484 4.0151 12.3484 4.14844C12.3484 4.28177 12.2984 4.39844 12.1984 4.49844L8.69844 7.99844L12.1984 11.4984C12.2984 11.5984 12.3484 11.7151 12.3484 11.8484C12.3484 11.9818 12.2984 12.0984 12.1984 12.1984C12.0984 12.2984 11.9818 12.3484 11.8484 12.3484C11.7151 12.3484 11.5984 12.2984 11.4984 12.1984L7.99844 8.69844Z" fill="#52C41A"/>
</svg>
