<svg width="25" height="14" viewBox="0 0 25 14" fill="none" xmlns="http://www.w3.org/2000/svg">
<path d="M21.5882 1.49793C21.9855 1.49793 22.3665 1.65574 22.6474 1.93666C22.9283 2.21758 23.0861 2.59858 23.0861 2.99585V10.4855C23.0861 10.8828 22.9283 11.2638 22.6474 11.5447C22.3665 11.8256 21.9855 11.9834 21.5882 11.9834H3.61304C3.21577 11.9834 2.83476 11.8256 2.55385 11.5447C2.27293 11.2638 2.11512 10.8828 2.11512 10.4855V2.99585C2.11512 2.59858 2.27293 2.21758 2.55385 1.93666C2.83476 1.65574 3.21577 1.49793 3.61304 1.49793H21.5882ZM3.61304 0C2.81849 0 2.05649 0.315634 1.49465 0.877465C0.932822 1.4393 0.617188 2.2013 0.617188 2.99585L0.617188 10.4855C0.617188 11.28 0.932822 12.042 1.49465 12.6039C2.05649 13.1657 2.81849 13.4813 3.61304 13.4813H21.5882C22.3827 13.4813 23.1447 13.1657 23.7066 12.6039C24.2684 12.042 24.584 11.28 24.584 10.4855V2.99585C24.584 2.2013 24.2684 1.4393 23.7066 0.877465C23.1447 0.315634 22.3827 0 21.5882 0H3.61304Z" fill="#FE5C36"/>
<path d="M20.0866 9.36131C20.0866 9.26199 20.126 9.16674 20.1963 9.09651C20.2665 9.02628 20.3617 8.98683 20.4611 8.98683H21.21C21.3094 8.98683 21.4046 9.02628 21.4748 9.09651C21.5451 9.16674 21.5845 9.26199 21.5845 9.36131V10.1103C21.5845 10.2096 21.5451 10.3048 21.4748 10.3751C21.4046 10.4453 21.3094 10.4848 21.21 10.4848H20.4611C20.3617 10.4848 20.2665 10.4453 20.1963 10.3751C20.126 10.3048 20.0866 10.2096 20.0866 10.1103V9.36131ZM20.0866 6.36545C20.0866 6.26613 20.126 6.17088 20.1963 6.10065C20.2665 6.03043 20.3617 5.99097 20.4611 5.99097H21.21C21.3094 5.99097 21.4046 6.03043 21.4748 6.10065C21.5451 6.17088 21.5845 6.26613 21.5845 6.36545V7.11442C21.5845 7.21374 21.5451 7.30899 21.4748 7.37922C21.4046 7.44944 21.3094 7.4889 21.21 7.4889H20.4611C20.3617 7.4889 20.2665 7.44944 20.1963 7.37922C20.126 7.30899 20.0866 7.21374 20.0866 7.11442V6.36545ZM12.5969 6.36545C12.5969 6.26613 12.6364 6.17088 12.7066 6.10065C12.7769 6.03043 12.8721 5.99097 12.9714 5.99097H13.7204C13.8197 5.99097 13.915 6.03043 13.9852 6.10065C14.0554 6.17088 14.0949 6.26613 14.0949 6.36545V7.11442C14.0949 7.21374 14.0554 7.30899 13.9852 7.37922C13.915 7.44944 13.8197 7.4889 13.7204 7.4889H12.9714C12.8721 7.4889 12.7769 7.44944 12.7066 7.37922C12.6364 7.30899 12.5969 7.21374 12.5969 7.11442V6.36545ZM15.5928 6.36545C15.5928 6.26613 15.6323 6.17088 15.7025 6.10065C15.7727 6.03043 15.868 5.99097 15.9673 5.99097H18.2142C18.3135 5.99097 18.4087 6.03043 18.479 6.10065C18.5492 6.17088 18.5887 6.26613 18.5887 6.36545V7.11442C18.5887 7.21374 18.5492 7.30899 18.479 7.37922C18.4087 7.44944 18.3135 7.4889 18.2142 7.4889H15.9673C15.868 7.4889 15.7727 7.44944 15.7025 7.37922C15.6323 7.30899 15.5928 7.21374 15.5928 7.11442V6.36545ZM17.0907 9.36131C17.0907 9.26199 17.1302 9.16674 17.2004 9.09651C17.2706 9.02628 17.3659 8.98683 17.4652 8.98683H18.2142C18.3135 8.98683 18.4087 9.02628 18.479 9.09651C18.5492 9.16674 18.5887 9.26199 18.5887 9.36131V10.1103C18.5887 10.2096 18.5492 10.3048 18.479 10.3751C18.4087 10.4453 18.3135 10.4848 18.2142 10.4848H17.4652C17.3659 10.4848 17.2706 10.4453 17.2004 10.3751C17.1302 10.3048 17.0907 10.2096 17.0907 10.1103V9.36131ZM9.60109 6.36545C9.60109 6.26613 9.64054 6.17088 9.71077 6.10065C9.781 6.03043 9.87625 5.99097 9.97557 5.99097H10.7245C10.8239 5.99097 10.9191 6.03043 10.9893 6.10065C11.0596 6.17088 11.099 6.26613 11.099 6.36545V7.11442C11.099 7.21374 11.0596 7.30899 10.9893 7.37922C10.9191 7.44944 10.8239 7.4889 10.7245 7.4889H9.97557C9.87625 7.4889 9.781 7.44944 9.71077 7.37922C9.64054 7.30899 9.60109 7.21374 9.60109 7.11442V6.36545ZM6.60523 6.36545C6.60523 6.26613 6.64469 6.17088 6.71491 6.10065C6.78514 6.03043 6.88039 5.99097 6.97971 5.99097H7.72868C7.828 5.99097 7.92325 6.03043 7.99348 6.10065C8.06371 6.17088 8.10316 6.26613 8.10316 6.36545V7.11442C8.10316 7.21374 8.06371 7.30899 7.99348 7.37922C7.92325 7.44944 7.828 7.4889 7.72868 7.4889H6.97971C6.88039 7.4889 6.78514 7.44944 6.71491 7.37922C6.64469 7.30899 6.60523 7.21374 6.60523 7.11442V6.36545ZM3.60938 6.36545C3.60937 6.26613 3.64883 6.17088 3.71906 6.10065C3.78929 6.03043 3.88454 5.99097 3.98386 5.99097H4.73282C4.83214 5.99097 4.92739 6.03043 4.99762 6.10065C5.06785 6.17088 5.1073 6.26613 5.1073 6.36545V7.11442C5.1073 7.21374 5.06785 7.30899 4.99762 7.37922C4.92739 7.44944 4.83214 7.4889 4.73282 7.4889H3.98386C3.88454 7.4889 3.78929 7.44944 3.71906 7.37922C3.64883 7.30899 3.60937 7.21374 3.60938 7.11442V6.36545ZM20.0866 3.3696C20.0866 3.27028 20.126 3.17503 20.1963 3.1048C20.2665 3.03457 20.3617 2.99512 20.4611 2.99512H21.21C21.3094 2.99512 21.4046 3.03457 21.4748 3.1048C21.5451 3.17503 21.5845 3.27028 21.5845 3.3696V4.11856C21.5845 4.21788 21.5451 4.31313 21.4748 4.38336C21.4046 4.45359 21.3094 4.49304 21.21 4.49304H20.4611C20.3617 4.49304 20.2665 4.45359 20.1963 4.38336C20.126 4.31313 20.0866 4.21788 20.0866 4.11856V3.3696ZM17.0907 3.3696C17.0907 3.27028 17.1302 3.17503 17.2004 3.1048C17.2706 3.03457 17.3659 2.99512 17.4652 2.99512H18.2142C18.3135 2.99512 18.4087 3.03457 18.479 3.1048C18.5492 3.17503 18.5887 3.27028 18.5887 3.3696V4.11856C18.5887 4.21788 18.5492 4.31313 18.479 4.38336C18.4087 4.45359 18.3135 4.49304 18.2142 4.49304H17.4652C17.3659 4.49304 17.2706 4.45359 17.2004 4.38336C17.1302 4.31313 17.0907 4.21788 17.0907 4.11856V3.3696ZM14.0949 3.3696C14.0949 3.27028 14.1343 3.17503 14.2046 3.1048C14.2748 3.03457 14.37 2.99512 14.4694 2.99512H15.2183C15.3176 2.99512 15.4129 3.03457 15.4831 3.1048C15.5533 3.17503 15.5928 3.27028 15.5928 3.3696V4.11856C15.5928 4.21788 15.5533 4.31313 15.4831 4.38336C15.4129 4.45359 15.3176 4.49304 15.2183 4.49304H14.4694C14.37 4.49304 14.2748 4.45359 14.2046 4.38336C14.1343 4.31313 14.0949 4.21788 14.0949 4.11856V3.3696ZM11.099 3.3696C11.099 3.27028 11.1385 3.17503 11.2087 3.1048C11.2789 3.03457 11.3742 2.99512 11.4735 2.99512H12.2225C12.3218 2.99512 12.417 3.03457 12.4873 3.1048C12.5575 3.17503 12.5969 3.27028 12.5969 3.3696V4.11856C12.5969 4.21788 12.5575 4.31313 12.4873 4.38336C12.417 4.45359 12.3218 4.49304 12.2225 4.49304H11.4735C11.3742 4.49304 11.2789 4.45359 11.2087 4.38336C11.1385 4.31313 11.099 4.21788 11.099 4.11856V3.3696ZM8.10316 3.3696C8.10316 3.27028 8.14261 3.17503 8.21284 3.1048C8.28307 3.03457 8.37832 2.99512 8.47764 2.99512H9.22661C9.32592 2.99512 9.42118 3.03457 9.49141 3.1048C9.56163 3.17503 9.60109 3.27028 9.60109 3.3696V4.11856C9.60109 4.21788 9.56163 4.31313 9.49141 4.38336C9.42118 4.45359 9.32592 4.49304 9.22661 4.49304H8.47764C8.37832 4.49304 8.28307 4.45359 8.21284 4.38336C8.14261 4.31313 8.10316 4.21788 8.10316 4.11856V3.3696ZM3.60938 3.3696C3.60937 3.27028 3.64883 3.17503 3.71906 3.1048C3.78929 3.03457 3.88454 2.99512 3.98386 2.99512H6.23075C6.33007 2.99512 6.42532 3.03457 6.49555 3.1048C6.56578 3.17503 6.60523 3.27028 6.60523 3.3696V4.11856C6.60523 4.21788 6.56578 4.31313 6.49555 4.38336C6.42532 4.45359 6.33007 4.49304 6.23075 4.49304H3.98386C3.88454 4.49304 3.78929 4.45359 3.71906 4.38336C3.64883 4.31313 3.60937 4.21788 3.60938 4.11856V3.3696ZM3.60938 9.36131C3.60937 9.26199 3.64883 9.16674 3.71906 9.09651C3.78929 9.02628 3.88454 8.98683 3.98386 8.98683H4.73282C4.83214 8.98683 4.92739 9.02628 4.99762 9.09651C5.06785 9.16674 5.1073 9.26199 5.1073 9.36131V10.1103C5.1073 10.2096 5.06785 10.3048 4.99762 10.3751C4.92739 10.4453 4.83214 10.4848 4.73282 10.4848H3.98386C3.88454 10.4848 3.78929 10.4453 3.71906 10.3751C3.64883 10.3048 3.60937 10.2096 3.60938 10.1103V9.36131ZM6.60523 9.36131C6.60523 9.26199 6.64469 9.16674 6.71491 9.09651C6.78514 9.02628 6.88039 8.98683 6.97971 8.98683H15.2183C15.3176 8.98683 15.4129 9.02628 15.4831 9.09651C15.5533 9.16674 15.5928 9.26199 15.5928 9.36131V10.1103C15.5928 10.2096 15.5533 10.3048 15.4831 10.3751C15.4129 10.4453 15.3176 10.4848 15.2183 10.4848H6.97971C6.88039 10.4848 6.78514 10.4453 6.71491 10.3751C6.64469 10.3048 6.60523 10.2096 6.60523 10.1103V9.36131Z" fill="#FE5C36"/>
</svg>
