<svg width="12" height="12" viewBox="0 0 12 12" fill="none" xmlns="http://www.w3.org/2000/svg">
<g clip-path="url(#clip0_1863_804)">
<path d="M5.68443 9.4498C7.48953 9.4498 8.95285 7.90518 8.95285 5.9998C8.95285 4.09442 7.48953 2.5498 5.68443 2.5498C3.87934 2.5498 2.41602 4.09442 2.41602 5.9998C2.41602 7.90518 3.87934 9.4498 5.68443 9.4498Z" fill="#E76F51"/>
<path d="M7.23331 2.95508C7.37543 3.43507 7.47489 3.94507 7.48909 4.47009C7.57435 6.55509 6.23857 8.40008 4.50488 9.2101C4.87435 9.36012 5.27225 9.45011 5.68435 9.45011C7.48909 9.45011 8.95277 7.90512 8.95277 6.00011C8.95277 4.68006 8.25646 3.54006 7.23331 2.95508Z" fill="#E76F51"/>
<path d="M5.68433 0C5.41432 0 5.20117 0.224993 5.20117 0.51V1.35001C5.20117 1.63501 5.41432 1.86001 5.68433 1.86001C5.95434 1.86001 6.16749 1.63501 6.16749 1.35001V0.51C6.16749 0.224993 5.95434 0 5.68433 0Z" fill="#E76F51"/>
<path d="M5.68433 10.1401C5.41432 10.1401 5.20117 10.3651 5.20117 10.6501V11.4901C5.20117 11.7752 5.41432 12.0001 5.68433 12.0001C5.95434 12.0001 6.16749 11.7752 6.16749 11.4901V10.6501C6.16749 10.3651 5.95434 10.1401 5.68433 10.1401Z" fill="#E76F51"/>
<path d="M11.3686 6.00023C11.3686 5.71523 11.1554 5.49023 10.8854 5.49023H10.0896C9.8196 5.49023 9.60645 5.71523 9.60645 6.00023C9.60645 6.28524 9.8196 6.51023 10.0896 6.51023H10.8854C11.1554 6.51023 11.3686 6.28524 11.3686 6.00023Z" fill="#E76F51"/>
<path d="M1.76211 6.00023C1.76211 5.71523 1.54896 5.49023 1.27895 5.49023H0.483158C0.213151 5.49023 0 5.71523 0 6.00023C0 6.28524 0.213151 6.51023 0.483158 6.51023H1.27895C1.54894 6.51023 1.76211 6.28524 1.76211 6.00023Z" fill="#E76F51"/>
<path d="M9.70549 1.75514C9.52075 1.56013 9.20813 1.56013 9.02338 1.75514L8.45497 2.35514C8.27022 2.55015 8.27022 2.88013 8.45497 3.07514C8.63971 3.27015 8.95233 3.27015 9.13707 3.07514L9.70549 2.47515C9.89024 2.28016 9.89024 1.95015 9.70549 1.75514Z" fill="#E76F51"/>
<path d="M2.9135 8.92507C2.72875 8.73006 2.41614 8.73006 2.23139 8.92507L1.66297 9.52506C1.47823 9.72007 1.47823 10.0501 1.66297 10.2451C1.84772 10.4401 2.16033 10.4401 2.34508 10.2451L2.9135 9.64507C3.09825 9.45006 3.09825 9.13507 2.9135 8.92507Z" fill="#E76F51"/>
<path d="M9.70549 10.2451C9.89024 10.0501 9.89024 9.72007 9.70549 9.52506L9.13707 8.92507C8.95233 8.73006 8.63971 8.73006 8.45497 8.92507C8.27022 9.12008 8.27022 9.45006 8.45497 9.64507L9.02338 10.2451C9.20813 10.4401 9.52075 10.4401 9.70549 10.2451Z" fill="#E76F51"/>
<path d="M2.9135 3.07514C3.09825 2.88013 3.09825 2.55015 2.9135 2.35514L2.34508 1.75514C2.16033 1.56013 1.84772 1.56013 1.66297 1.75514C1.47823 1.95015 1.47823 2.28014 1.66297 2.47515L2.23139 3.07514C2.41614 3.27015 2.71455 3.27015 2.9135 3.07514Z" fill="#E76F51"/>
</g>
<defs>
<clipPath id="clip0_1863_804">
<rect width="11.3684" height="12" fill="white"/>
</clipPath>
</defs>
</svg>
