<svg width="28" height="28" viewBox="0 0 28 28" fill="none" xmlns="http://www.w3.org/2000/svg">
<path d="M6.00033 16.668H22.0003V14.668H6.00033V16.668ZM6.00033 12.3346H22.0003V10.3346H6.00033V12.3346ZM6.00033 8.0013H22.0003V6.0013H6.00033V8.0013ZM27.3337 27.3346L22.0003 22.0013H2.66699C2.15588 22.0013 1.69477 21.7957 1.28366 21.3846C0.872548 20.9735 0.666992 20.5124 0.666992 20.0013V2.66797C0.666992 2.15686 0.872548 1.69575 1.28366 1.28464C1.69477 0.873524 2.15588 0.667969 2.66699 0.667969H25.3337C25.867 0.667969 26.3337 0.873524 26.7337 1.28464C27.1337 1.69575 27.3337 2.15686 27.3337 2.66797V27.3346ZM2.66699 2.66797V20.0013H22.8337L25.3337 22.5013V2.66797H2.66699ZM2.66699 2.66797V22.5013V2.66797Z" fill="#264653"/>
</svg>
