<svg width="30" height="30" viewBox="0 0 30 30" fill="none" xmlns="http://www.w3.org/2000/svg">
<path fill-rule="evenodd" clip-rule="evenodd" d="M8.68902 4.36872C8.68902 1.89421 10.8001 0 13.2622 0H16.7378C19.1999 0 21.311 1.89421 21.311 4.36872V4.90674H28.9024C29.5086 4.90674 30 5.39814 30 6.0043C30 6.61047 29.5086 7.10187 28.9024 7.10187H26.5244V25.6313C26.5244 28.1058 24.4133 30 21.9512 30H8.04878C5.58672 30 3.47561 28.1058 3.47561 25.6313V7.10187H1.09756C0.491395 7.10187 0 6.61047 0 6.0043C0 5.39814 0.491395 4.90674 1.09756 4.90674H8.68902V4.36872ZM5.67073 7.10187V25.6313C5.67073 26.77 6.67179 27.8049 8.04878 27.8049H21.9512C23.3282 27.8049 24.3293 26.77 24.3293 25.6313V7.10187H5.67073ZM19.1159 4.90674H10.8841V4.36872C10.8841 3.23001 11.8852 2.19512 13.2622 2.19512H16.7378C18.1148 2.19512 19.1159 3.23001 19.1159 4.36872V4.90674ZM11.5244 11.4491C12.1306 11.4491 12.622 11.9405 12.622 12.5466V22.3601C12.622 22.9663 12.1306 23.4577 11.5244 23.4577C10.9182 23.4577 10.4268 22.9663 10.4268 22.3601V12.5466C10.4268 11.9405 10.9182 11.4491 11.5244 11.4491ZM18.4756 11.4491C19.0818 11.4491 19.5732 11.9405 19.5732 12.5466V22.3601C19.5732 22.9663 19.0818 23.4577 18.4756 23.4577C17.8694 23.4577 17.378 22.9663 17.378 22.3601V12.5466C17.378 11.9405 17.8694 11.4491 18.4756 11.4491Z" fill="#FF5F68"/>
</svg>
