<svg width="15" height="23" viewBox="0 0 15 23" fill="none" xmlns="http://www.w3.org/2000/svg">
<path d="M7.4924 8.93977C7.31001 8.93977 7.13509 8.86731 7.00611 8.73834C6.87714 8.60937 6.80469 8.43444 6.80469 8.25205V5.50119C6.80469 5.3188 6.87714 5.14388 7.00611 5.0149C7.13509 4.88593 7.31001 4.81348 7.4924 4.81348C7.6748 4.81348 7.84972 4.88593 7.97869 5.0149C8.10766 5.14388 8.18012 5.3188 8.18012 5.50119V8.25205C8.18012 8.43444 8.10766 8.60937 7.97869 8.73834C7.84972 8.86731 7.6748 8.93977 7.4924 8.93977Z" fill="#FE5C36"/>
<path d="M7.49434 22.0069C5.67041 22.0069 3.92118 21.2823 2.63146 19.9926C1.34174 18.7029 0.617188 16.9537 0.617188 15.1297V6.87715C0.617188 5.05322 1.34174 3.30399 2.63146 2.01427C3.92118 0.724555 5.67041 0 7.49434 0C9.31828 0 11.0675 0.724555 12.3572 2.01427C13.6469 3.30399 14.3715 5.05322 14.3715 6.87715V15.1297C14.3715 16.0328 14.1936 16.9271 13.848 17.7615C13.5024 18.5959 12.9958 19.354 12.3572 19.9926C11.7186 20.6312 10.9605 21.1378 10.1261 21.4834C9.29174 21.829 8.39746 22.0069 7.49434 22.0069ZM7.49434 1.37543C6.0352 1.37543 4.63581 1.95507 3.60404 2.98685C2.57226 4.01862 1.99262 5.418 1.99262 6.87715V15.1297C1.99262 16.5889 2.57226 17.9883 3.60404 19.02C4.63581 20.0518 6.0352 20.6314 7.49434 20.6314C8.95349 20.6314 10.3529 20.0518 11.3847 19.02C12.4164 17.9883 12.9961 16.5889 12.9961 15.1297V6.87715C12.9961 5.418 12.4164 4.01862 11.3847 2.98685C10.3529 1.95507 8.95349 1.37543 7.49434 1.37543Z" fill="#FE5C36"/>
</svg>
