<svg width="18" height="18" viewBox="0 0 18 18" fill="none" xmlns="http://www.w3.org/2000/svg">
<path d="M17.3966 0.162316C17.474 0.239835 17.5269 0.338386 17.5487 0.445725C17.5706 0.553065 17.5605 0.664463 17.5196 0.766082L11.0134 17.0309C10.9561 17.1741 10.8603 17.2988 10.7367 17.3911C10.6131 17.4834 10.4664 17.5399 10.3128 17.5542C10.1592 17.5685 10.0046 17.5402 9.86603 17.4723C9.72748 17.4045 9.61033 17.2997 9.52748 17.1695L5.97421 11.5847L0.389377 8.0314C0.258917 7.94864 0.153855 7.83146 0.0857837 7.69276C0.0177128 7.55407 -0.0107205 7.39927 0.00362137 7.24545C0.0179632 7.09162 0.0745226 6.94474 0.167059 6.82103C0.259594 6.69731 0.38451 6.60156 0.52802 6.54435L16.7928 0.0404447C16.8944 -0.000463486 17.0058 -0.0106154 17.1132 0.0112501C17.2205 0.0331156 17.319 0.0860348 17.3966 0.163434V0.162316ZM7.09006 11.2582L10.1771 16.1085L15.469 2.87926L7.09006 11.2582ZM14.6785 2.08878L1.44932 7.38068L6.30069 10.4666L14.6796 2.08878H14.6785Z" fill="#2A9D8F"/>
</svg>
