<svg width="36" height="36" viewBox="0 0 36 36" fill="none" xmlns="http://www.w3.org/2000/svg">
<circle cx="18" cy="18" r="18" fill="#FAAD14"/>
<path d="M20.6673 18.429C20.6673 17.2765 19.7244 16.3337 18.572 16.3337C17.4195 16.3337 16.4766 17.2765 16.4766 18.429C16.4766 19.5814 17.4195 20.5243 18.572 20.5243C19.7244 20.5243 20.6673 19.5814 20.6673 18.429ZM18.572 9C16.0713 9 13.673 9.99341 11.9047 11.7617C10.1364 13.53 9.14299 15.9283 9.14299 18.429H6L10.1907 22.6196L14.3813 18.429H11.2383C11.2383 14.3745 14.5175 11.0953 18.572 11.0953C22.6264 11.0953 25.9056 14.3745 25.9056 18.429C25.907 19.7761 25.5372 21.0975 24.8366 22.248C24.136 23.3986 23.1318 24.3338 21.9344 24.9509C20.737 25.568 19.3927 25.8432 18.0491 25.7461C16.7055 25.649 15.4147 25.1835 14.3185 24.4007L12.8308 25.9093C14.0195 26.8215 15.4085 27.4373 16.8827 27.7056C18.3569 27.9739 19.8738 27.887 21.3077 27.4521C22.7416 27.0172 24.0512 26.2468 25.1279 25.2049C26.2047 24.1629 27.0177 22.8793 27.4994 21.4604C27.9811 20.0416 28.1178 18.5284 27.898 17.0462C27.6783 15.564 27.1085 14.1555 26.2358 12.9375C25.3631 11.7194 24.2127 10.7269 22.8799 10.0422C21.5472 9.3574 20.0704 9.00015 18.572 9Z" fill="white"/>
</svg>
