<svg width="18" height="19" viewBox="0 0 18 19" fill="none" xmlns="http://www.w3.org/2000/svg">
<path d="M16.35 18.2625L10.325 12.2375C9.825 12.6708 9.24167 13.0083 8.575 13.25C7.90833 13.4917 7.2 13.6125 6.45 13.6125C4.65 13.6125 3.125 12.9875 1.875 11.7375C0.625 10.4875 0 8.97917 0 7.2125C0 5.44583 0.625 3.9375 1.875 2.6875C3.125 1.4375 4.64167 0.8125 6.425 0.8125C8.19167 0.8125 9.69583 1.4375 10.9375 2.6875C12.1792 3.9375 12.8 5.44583 12.8 7.2125C12.8 7.92917 12.6833 8.62083 12.45 9.2875C12.2167 9.95417 11.8667 10.5792 11.4 11.1625L17.475 17.1875C17.625 17.3208 17.7 17.4917 17.7 17.7C17.7 17.9083 17.6167 18.0958 17.45 18.2625C17.3 18.4125 17.1167 18.4875 16.9 18.4875C16.6833 18.4875 16.5 18.4125 16.35 18.2625ZM6.425 12.1125C7.775 12.1125 8.925 11.6333 9.875 10.675C10.825 9.71667 11.3 8.5625 11.3 7.2125C11.3 5.8625 10.825 4.70833 9.875 3.75C8.925 2.79167 7.775 2.3125 6.425 2.3125C5.05833 2.3125 3.89583 2.79167 2.9375 3.75C1.97917 4.70833 1.5 5.8625 1.5 7.2125C1.5 8.5625 1.97917 9.71667 2.9375 10.675C3.89583 11.6333 5.05833 12.1125 6.425 12.1125Z" fill="#98A2B3"/>
</svg>
