<svg width="24" height="24" viewBox="0 0 24 24" fill="none" xmlns="http://www.w3.org/2000/svg">
<path d="M19.35 21.2625L13.325 15.2375C12.825 15.6708 12.2417 16.0083 11.575 16.25C10.9083 16.4917 10.2 16.6125 9.45 16.6125C7.65 16.6125 6.125 15.9875 4.875 14.7375C3.625 13.4875 3 11.9792 3 10.2125C3 8.44583 3.625 6.9375 4.875 5.6875C6.125 4.4375 7.64167 3.8125 9.425 3.8125C11.1917 3.8125 12.6958 4.4375 13.9375 5.6875C15.1792 6.9375 15.8 8.44583 15.8 10.2125C15.8 10.9292 15.6833 11.6208 15.45 12.2875C15.2167 12.9542 14.8667 13.5792 14.4 14.1625L20.475 20.1875C20.625 20.3208 20.7 20.4917 20.7 20.7C20.7 20.9083 20.6167 21.0958 20.45 21.2625C20.3 21.4125 20.1167 21.4875 19.9 21.4875C19.6833 21.4875 19.5 21.4125 19.35 21.2625ZM9.425 15.1125C10.775 15.1125 11.925 14.6333 12.875 13.675C13.825 12.7167 14.3 11.5625 14.3 10.2125C14.3 8.8625 13.825 7.70833 12.875 6.75C11.925 5.79167 10.775 5.3125 9.425 5.3125C8.05833 5.3125 6.89583 5.79167 5.9375 6.75C4.97917 7.70833 4.5 8.8625 4.5 10.2125C4.5 11.5625 4.97917 12.7167 5.9375 13.675C6.89583 14.6333 8.05833 15.1125 9.425 15.1125Z" fill="#98A2B3"/>
</svg>
