<svg width="497" height="508" viewBox="0 0 497 508" fill="none" xmlns="http://www.w3.org/2000/svg">
<path d="M471.393 129.627C456.605 137.284 445.273 150.459 437.124 164.961C428.974 179.463 423.72 195.396 418.524 211.192L413.945 292.699C431.114 263.454 444.941 229.07 448.673 195.407L437.227 194.389C444.907 193.244 451.351 187.658 455.449 181.066C459.546 174.473 461.652 166.884 463.713 159.398L449.817 161.436C460.823 153.992 468.547 142.605 471.393 129.627Z" fill="#E0E0E0"/>
<path d="M411.429 311.792C411.429 311.792 374.092 267.152 374.527 224.504H389.602C389.602 224.504 373.222 213.745 374.527 207.713C375.832 201.681 376.244 178.857 376.244 178.857L389.979 182.291C389.979 182.291 379.678 177.129 378.35 168.945C377.022 160.761 381.36 122.863 381.36 122.863C381.36 122.863 398.163 140.525 403.337 158.609C408.511 176.694 422.074 197.801 418.091 252.913C414.108 308.026 411.429 311.792 411.429 311.792Z" fill="#EBEBEB"/>
<path d="M430.359 316.014C430.359 316.014 470.797 289.081 479.783 254.709L467.661 251.412C467.661 251.412 483.182 246.342 483.468 241.214C483.754 236.086 488.39 217.635 488.39 217.635L476.555 217.395C476.555 217.395 485.998 215.495 488.825 209.199C491.652 202.904 496.494 171.496 496.494 171.496C496.494 171.496 479.107 182.015 470.992 195.395C462.877 208.776 447.344 222.866 438.485 268.021C429.626 313.175 430.359 316.014 430.359 316.014Z" fill="#EBEBEB"/>
<path d="M391.609 161.812C391.667 161.964 391.709 162.122 391.735 162.282L392.056 163.655C392.33 164.891 392.731 166.677 393.2 168.955C393.67 171.233 394.345 174.083 394.963 177.368C395.581 180.653 396.394 184.384 397.149 188.528C398.74 196.815 400.423 206.715 402.163 217.726C403.902 228.738 405.516 240.893 407.016 253.667C408.515 266.441 409.614 278.665 410.45 289.779C411.285 300.894 411.892 310.92 412.235 319.345C412.453 323.557 412.544 327.357 412.659 330.722C412.773 334.087 412.83 336.949 412.853 339.307C412.876 341.664 412.91 343.461 412.922 344.732V346.151C412.922 346.46 412.922 346.632 412.922 346.632C412.903 346.472 412.903 346.311 412.922 346.151C412.922 345.796 412.922 345.339 412.865 344.732C412.865 343.461 412.762 341.642 412.682 339.307C412.601 336.972 412.521 334.076 412.373 330.733C412.224 327.391 412.109 323.568 411.869 319.367C411.48 310.943 410.816 300.928 409.957 289.825C409.099 278.723 407.897 266.51 406.432 253.736C404.967 240.962 403.284 228.829 401.625 217.807C399.965 206.784 398.282 196.895 396.749 188.608C396.016 184.453 395.272 180.721 394.643 177.425C394.013 174.128 393.498 171.313 392.983 169.001C392.468 166.689 392.17 164.926 391.918 163.678C391.804 163.094 391.724 162.637 391.655 162.293C391.625 162.135 391.61 161.974 391.609 161.812Z" fill="#E0E0E0"/>
<path d="M406.243 339.135C406.243 339.135 372.088 300.401 361.478 276.983L369.49 273.549C363.676 274.51 357.735 272.015 353.237 268.227C348.738 264.438 345.431 259.493 342.226 254.56L352.767 252.786C343.079 250.019 334.828 243.629 329.727 234.941C342.168 236.99 353.431 243.824 362.714 252.362C370.223 259.23 376.587 267.311 382.699 275.506C385.687 279.505 388.289 283.778 390.471 288.269C396.171 300.127 406.324 324.907 406.243 339.135Z" fill="#EBEBEB"/>
<path d="M480.309 194.045C480.27 194.184 480.216 194.318 480.148 194.446C480.011 194.72 479.839 195.098 479.622 195.59C479.13 196.597 478.42 198.04 477.527 199.882C476.634 201.725 475.501 204.014 474.231 206.681C472.96 209.348 471.495 212.347 469.95 215.712C466.791 222.42 463.174 230.466 459.271 239.463C455.368 248.459 451.258 258.429 447.207 268.971C443.155 279.513 439.469 289.654 436.276 298.925C433.082 308.196 430.369 316.586 428.195 323.672C427.05 327.197 426.134 330.425 425.276 333.24C424.417 336.056 423.708 338.494 423.136 340.486C422.563 342.477 422.105 343.988 421.796 345.064L421.43 346.209C421.391 346.346 421.341 346.48 421.281 346.609C421.297 346.465 421.328 346.324 421.373 346.186C421.441 345.888 421.545 345.488 421.682 344.984C421.968 343.897 422.38 342.351 422.918 340.406C423.456 338.46 424.131 335.965 424.955 333.137C425.78 330.31 426.684 327.071 427.783 323.534C429.912 316.438 432.613 308.025 435.795 298.731C438.977 289.436 442.662 279.272 446.691 268.742C450.72 258.211 454.921 248.231 458.813 239.234C462.705 230.237 466.413 222.214 469.618 215.529C471.186 212.164 472.685 209.165 473.979 206.521C475.272 203.877 476.417 201.611 477.413 199.768L479.599 195.521C479.851 195.064 480.045 194.682 480.183 194.377C480.219 194.264 480.261 194.153 480.309 194.045Z" fill="#E0E0E0"/>
<path d="M409.137 355.743C409.069 355.506 409.02 355.265 408.988 355.021C408.908 354.495 408.793 353.808 408.667 352.973C408.541 352.137 408.37 350.981 408.141 349.722C407.912 348.463 407.694 347.009 407.351 345.43C406.744 342.259 405.863 338.505 404.753 334.384C403.643 330.264 402.177 325.8 400.449 321.187C398.721 316.574 396.798 312.282 394.944 308.436C393.089 304.59 391.235 301.213 389.598 298.432C388.808 297.024 388.019 295.8 387.309 294.701C386.599 293.602 386.05 292.663 385.546 291.908L384.402 290.157C384.257 289.959 384.138 289.743 384.047 289.516C384.218 289.691 384.371 289.883 384.505 290.088L385.707 291.782C386.233 292.514 386.851 293.43 387.549 294.518C388.248 295.605 389.06 296.807 389.839 298.215C391.533 300.985 393.398 304.361 395.321 308.196C397.244 312.03 399.133 316.357 400.895 320.981C402.658 325.605 404.032 330.138 405.165 334.247C406.298 338.356 407.088 342.156 407.649 345.349C407.969 346.94 408.152 348.394 408.347 349.665C408.541 350.935 408.69 352.034 408.782 352.938C408.873 353.842 408.942 354.472 408.988 355.01C409.068 355.247 409.118 355.493 409.137 355.743Z" fill="#E0E0E0"/>
<path d="M454.211 346.633H379.445V361.879H454.211V346.633Z" fill="#E0E0E0"/>
<path d="M386.578 361.867L394.659 413.146H439.837L447.38 361.867H386.578Z" fill="#E0E0E0"/>
<path d="M449.635 361.868C449.635 362.04 435.488 362.166 418.044 362.166C400.6 362.166 386.453 362.04 386.453 361.868C386.453 361.696 400.6 361.57 418.044 361.57C435.488 361.57 449.635 361.708 449.635 361.868Z" fill="#EBEBEB"/>
<path d="M332.334 68.5269C331.327 72.3544 329.636 75.9683 327.344 79.1947L332.254 83.7731L353.2 102.682L352.708 102.911C352.708 102.911 370.839 90.2515 375.852 86.1195C379.984 82.6857 391.041 75.6807 391.945 68.8589C392.097 67.6465 391.864 66.4173 391.281 65.3437C390.698 64.27 389.794 63.4059 388.695 62.8726C387.942 62.4889 387.097 62.3211 386.255 62.3878C385.412 62.4545 384.605 62.753 383.922 63.2503C383.922 63.2503 388.798 57.5273 384.94 53.773C381.083 50.0187 378.073 52.9603 378.073 52.9603C378.073 52.9603 382.846 45.6921 378.416 41.663C377.499 40.9594 376.39 40.5499 375.236 40.4886C374.081 40.4273 372.936 40.7171 371.949 41.3197L373.746 39.3967L383.006 29.4272C384.11 28.2709 384.726 26.7337 384.726 25.1349C384.726 23.5362 384.11 21.9989 383.006 20.8427C382.438 20.268 381.761 19.8131 381.014 19.5047C380.268 19.1963 379.467 19.0407 378.659 19.0471C377.851 19.0535 377.053 19.2217 376.311 19.542C375.57 19.8622 374.9 20.3278 374.341 20.9113L348.29 48.1758L349.618 33.296C349.95 29.4386 344.742 26.6458 342.43 28.0651C342.43 28.0651 338.87 29.4501 337.851 35.4822C337.176 40.0377 332.334 68.5269 332.334 68.5269Z" fill="#F5F5F5"/>
<path d="M332.334 68.5276C332.334 68.5276 332.334 68.2758 332.426 67.7836C332.517 67.2914 332.609 66.5589 332.758 65.6203C333.067 63.6973 333.513 60.9045 334.097 57.299L336.271 44.1131C336.699 41.5416 337.153 38.7907 337.634 35.8605C337.835 34.3243 338.287 32.8317 338.973 31.4423C339.686 29.9261 340.87 28.6813 342.349 27.8941C343.275 27.4363 344.343 27.3583 345.325 27.6766C346.295 27.9815 347.188 28.4886 347.946 29.1646C348.765 29.8515 349.372 30.7564 349.698 31.7743C349.778 32.0375 349.801 32.3122 349.858 32.5755C349.915 32.8388 349.858 33.1364 349.858 33.3996L349.721 34.9677C349.354 39.1799 348.973 43.5904 348.576 48.1994L348.095 47.9819L371.823 23.1897C372.361 22.6403 372.887 22.0451 373.425 21.5186C373.949 20.9199 374.532 20.3754 375.165 19.8933C376.546 18.957 378.236 18.5919 379.881 18.8746C380.713 19.018 381.508 19.3278 382.218 19.7853C382.928 20.2429 383.538 20.8388 384.013 21.5376C384.487 22.2363 384.816 23.0235 384.979 23.8521C385.142 24.6808 385.137 25.5338 384.963 26.3603C384.796 27.1985 384.474 27.9982 384.013 28.7182C383.527 29.3834 382.984 30.004 382.388 30.5724L379.023 34.178L372.155 41.492L371.754 40.9769C373.105 40.1902 374.7 39.9332 376.23 40.2558C376.871 40.3968 377.486 40.6403 378.05 40.9769C378.345 41.1377 378.609 41.3511 378.828 41.6064C379.063 41.8393 379.278 42.092 379.469 42.3619C380.227 43.4319 380.627 44.7137 380.614 46.0246C380.486 48.5392 379.696 50.9754 378.324 53.0868L377.821 52.6748C378.446 52.1217 379.207 51.7453 380.026 51.5844C380.844 51.4234 381.691 51.4837 382.479 51.7591C383.249 52.0472 383.958 52.4739 384.574 53.0182C384.884 53.2629 385.168 53.5391 385.421 53.8423L385.821 54.3001L386.131 54.8266C386.479 55.5337 386.68 56.3041 386.721 57.0912C386.762 57.8782 386.643 58.6655 386.371 59.4051C385.876 60.8567 385.128 62.2091 384.162 63.3997L383.738 62.9304C384.41 62.4488 385.191 62.144 386.012 62.0439C386.832 61.9439 387.664 62.052 388.431 62.3581C389.553 62.8037 390.518 63.5702 391.206 64.5617C391.894 65.5533 392.275 66.7257 392.3 67.9324C392.282 68.7085 392.159 69.4787 391.934 70.2216C391.422 71.6469 390.696 72.9861 389.782 74.1934C386.108 78.8977 381.335 82.2056 377.042 85.4677C372.75 88.7299 368.504 91.9348 364.452 94.8535L352.834 103.037L352.594 102.625L353.086 102.396L353.029 102.797L332.151 83.8996H332.368L332.254 84.0141L332.139 83.9111L327.252 79.3326L327.172 79.2525L327.241 79.161C328.942 76.7826 330.327 74.1932 331.361 71.4578C331.716 70.5306 331.945 69.7981 332.094 69.3059C332.242 68.8137 332.334 68.5734 332.334 68.5734C332.124 69.5695 331.841 70.5489 331.487 71.5035C330.501 74.2807 329.142 76.9107 327.447 79.3212V79.1495C328.866 80.4658 330.445 81.9195 332.368 83.7279H332.151L332.254 83.6135L332.38 83.7165L353.372 102.557L353.647 102.797L353.315 102.946L352.822 103.175L352.525 102.683L364.108 94.4529C368.137 91.5227 372.407 88.4895 376.642 85.0557C380.877 81.6219 385.684 78.4627 389.232 73.8614C390.105 72.7107 390.796 71.433 391.281 70.0728C391.485 69.3884 391.601 68.6805 391.625 67.9667C391.602 67.2536 391.447 66.551 391.167 65.895C390.585 64.558 389.499 63.5049 388.145 62.9648C387.472 62.6992 386.743 62.6072 386.025 62.6972C385.307 62.7872 384.623 63.0563 384.036 63.4799L382.285 64.7733L383.681 63.0335C384.593 61.9092 385.295 60.6296 385.753 59.2563C386.009 58.5918 386.124 57.8812 386.091 57.1698C386.057 56.4583 385.876 55.7617 385.558 55.1242C384.801 53.8824 383.648 52.9311 382.285 52.423C381.611 52.1858 380.887 52.1308 380.186 52.2634C379.484 52.3961 378.83 52.7117 378.29 53.1784L376.71 54.6092L377.798 52.7892C379.102 50.7847 379.853 48.4705 379.973 46.0819C380.04 44.9076 379.69 43.7474 378.984 42.8067C378.278 41.866 377.262 41.2056 376.115 40.9426C374.744 40.6579 373.315 40.8946 372.109 41.6064L370.289 42.6137L371.708 41.1028L378.576 33.7888C379.713 32.5831 380.835 31.3813 381.941 30.1833C382.493 29.6244 382.991 29.0151 383.429 28.3634C383.844 27.7127 384.135 26.9909 384.288 26.2344C384.443 25.487 384.447 24.7161 384.299 23.9672C384.152 23.2182 383.856 22.5064 383.429 21.8734C382.999 21.2546 382.451 20.7267 381.817 20.3201C381.183 19.9135 380.474 19.6362 379.732 19.5041C378.253 19.2423 376.73 19.5666 375.486 20.4083C374.887 20.8683 374.335 21.3858 373.837 21.9536L372.235 23.6247L348.484 48.3596L347.946 48.8861L348.027 48.1078C348.439 43.5294 348.839 39.0883 349.228 34.8876C349.418 33.8892 349.418 32.8642 349.228 31.8658C348.932 30.9389 348.38 30.114 347.637 29.4851C346.924 28.852 346.08 28.3831 345.165 28.1115C344.308 27.8237 343.374 27.877 342.555 28.2603C341.18 29.0044 340.078 30.167 339.408 31.5797C338.734 32.9237 338.29 34.3704 338.091 35.8605C337.588 38.7793 337.107 41.5836 336.672 44.1131C335.779 49.241 335.012 53.6591 334.383 57.2761C333.753 60.8931 333.238 63.663 332.918 65.5745C332.746 66.5131 332.62 67.2227 332.517 67.7263C332.414 68.23 332.334 68.5276 332.334 68.5276Z" fill="#E0E0E0"/>
<path d="M320.525 79.3883L320.76 79.1374C321.641 78.1949 322.86 77.6411 324.149 77.5976C325.439 77.5542 326.693 78.0247 327.635 78.9057L353.439 103.027C354.379 103.906 354.932 105.123 354.975 106.409C355.019 107.695 354.549 108.946 353.67 109.887L353.436 110.138C352.555 111.08 351.335 111.634 350.046 111.677C348.756 111.721 347.503 111.25 346.56 110.369L320.765 86.2556C319.824 85.3766 319.272 84.1601 319.228 82.8737C319.185 81.5873 319.654 80.3364 320.533 79.3961L320.525 79.3883Z" fill="#F5F5F5"/>
<path d="M346.547 110.339C346.547 110.339 346.822 110.568 347.406 110.9C348.133 111.313 348.956 111.531 349.792 111.531C350.629 111.531 351.451 111.313 352.179 110.9C352.88 110.458 353.484 109.878 353.953 109.194C354.51 108.366 354.786 107.38 354.741 106.383C354.696 105.386 354.331 104.429 353.701 103.655L327.375 79.1257C326.772 78.5627 326.029 78.173 325.223 77.9977C324.417 77.8224 323.579 77.8681 322.797 78.1299C322.054 78.4033 321.384 78.8423 320.837 79.4134C320.289 79.9846 319.879 80.673 319.638 81.4263C319.427 82.1607 319.404 82.9361 319.57 83.6818C319.736 84.4275 320.086 85.1198 320.588 85.6957C321.675 86.7831 322.877 87.859 323.964 88.8891L335.742 100.003L343.64 107.523L345.769 109.595C346.027 109.826 346.264 110.079 346.479 110.351C346.195 110.15 345.927 109.928 345.677 109.687L343.468 107.706L335.456 100.335L323.587 89.3355C322.442 88.2825 321.297 87.2753 320.153 86.1078C319.569 85.4602 319.159 84.6761 318.959 83.8278C318.759 82.9796 318.776 82.0946 319.008 81.2546C319.281 80.3991 319.745 79.6172 320.366 78.9685C320.987 78.3198 321.748 77.8216 322.591 77.5118C323.475 77.2268 324.42 77.1826 325.327 77.3838C326.234 77.585 327.072 78.0242 327.753 78.6564C338.054 88.2825 347.326 96.9701 353.976 103.38C354.652 104.231 355.036 105.277 355.071 106.364C355.106 107.45 354.79 108.519 354.17 109.412C353.665 110.132 353.009 110.734 352.247 111.175C351.6 111.532 350.88 111.74 350.141 111.781C349.126 111.842 348.117 111.582 347.257 111.037C346.986 110.842 346.747 110.607 346.547 110.339Z" fill="#E0E0E0"/>
<path d="M362.273 51.1758C363.693 49.1911 365.282 47.3336 367.024 45.6245C368.608 43.771 370.355 42.0626 372.243 40.5195C370.827 42.5039 369.242 44.3614 367.504 46.0709C365.918 47.9262 364.167 49.6348 362.273 51.1758Z" fill="#E0E0E0"/>
<path d="M372.141 59.0607C372.873 57.7868 373.791 56.6294 374.865 55.6269C375.784 54.496 376.859 53.5016 378.058 52.6738C377.331 53.9507 376.412 55.1088 375.334 56.1076C374.422 57.2448 373.346 58.2401 372.141 59.0607Z" fill="#E0E0E0"/>
<path d="M378.016 69.559C378.748 68.2854 379.666 67.128 380.74 66.1252C381.652 64.9873 382.733 63.9953 383.945 63.1836C383.211 64.4564 382.293 65.6136 381.221 66.6174C380.305 67.7528 379.225 68.7444 378.016 69.559Z" fill="#E0E0E0"/>
<path d="M376.963 14.411C375.798 12.1648 374.833 9.82083 374.078 7.40605C373.11 5.06863 372.344 2.65225 371.789 0.183594C372.95 2.4313 373.915 4.77498 374.673 7.18858C375.642 9.526 376.408 11.9424 376.963 14.411Z" fill="#E0E0E0"/>
<path d="M383.773 16.0703C385.318 13.2191 387.05 10.4736 388.959 7.852C390.689 5.1099 392.601 2.48671 394.682 0C393.132 2.85101 391.397 5.59643 389.485 8.21827C387.761 10.9616 385.852 13.5849 383.773 16.0703Z" fill="#E0E0E0"/>
<path d="M388.727 21.8949C391.219 21.0438 393.776 20.3931 396.373 19.9491C398.923 19.2997 401.522 18.8595 404.144 18.6328C401.66 19.5004 399.106 20.1551 396.51 20.5901C393.956 21.2399 391.353 21.6763 388.727 21.8949Z" fill="#E0E0E0"/>
<path d="M60.5658 264.531L23.8125 413.135H33.4844L71.1419 264.531H60.5658Z" fill="#F5F5F5"/>
<path d="M129.791 264.531L164.175 413.135H154.503L119.203 264.531H129.791Z" fill="#F5F5F5"/>
<path d="M101.07 410.948H89.8076L88.125 240.391H99.3879L101.07 410.948Z" fill="#F5F5F5"/>
<path d="M173.21 140.227H14.3047V242.028H173.21V140.227Z" fill="#EBEBEB"/>
<path d="M133.678 262.973H53.9219V272.805H133.678V262.973Z" fill="#F5F5F5"/>
<path d="M24.8579 228.749C24.956 229.366 24.9943 229.991 24.9724 230.615H24.7549C24.5947 225.636 24.4688 209.142 24.4688 189.592C24.4688 177.803 24.5603 167.124 24.5832 159.272C24.5832 155.472 24.6748 152.404 24.7091 150.115C24.7091 149.096 24.7091 148.272 24.7778 147.608C24.7775 147.316 24.8044 147.025 24.8579 146.738C24.9261 147.023 24.9531 147.316 24.938 147.608C24.938 148.272 24.938 149.096 25.0182 150.115C25.0182 152.404 25.0868 155.506 25.1441 159.272C25.1441 167.124 25.2127 177.803 25.2585 189.592C25.2585 209.142 25.1326 225.636 24.9724 230.615H24.7549C24.742 229.991 24.7764 229.368 24.8579 228.749Z" fill="#F5F5F5"/>
<path d="M36.6944 228.749C36.7759 229.368 36.8103 229.991 36.7974 230.615H36.6143C36.454 225.636 36.3281 209.142 36.3281 189.592C36.3281 177.803 36.4197 167.124 36.4426 159.272C36.4998 155.472 36.5456 152.404 36.5685 150.115C36.5685 149.096 36.5685 148.272 36.6486 147.608C36.6335 147.316 36.6605 147.023 36.7287 146.738C36.7811 147.025 36.8041 147.317 36.7974 147.608C36.7974 148.272 36.7974 149.096 36.8775 150.115C36.8775 152.404 36.9462 155.506 37.0034 159.272C37.0034 167.124 37.0721 177.803 37.1179 189.592C37.1179 209.142 36.992 225.636 36.8318 230.615H36.6143C36.581 229.992 36.6078 229.367 36.6944 228.749Z" fill="#F5F5F5"/>
<path d="M48.5142 228.749C48.5957 229.368 48.6301 229.991 48.6172 230.615H48.3997C48.2395 225.636 48.125 209.142 48.125 189.592C48.125 177.803 48.2051 167.124 48.2395 159.272C48.2395 155.472 48.331 152.404 48.3654 150.115C48.3654 149.096 48.3654 148.272 48.434 147.608C48.4263 147.316 48.4532 147.024 48.5142 146.738C48.5752 147.024 48.6021 147.316 48.5943 147.608C48.5943 148.272 48.5943 149.096 48.663 150.115C48.663 152.404 48.7431 155.506 48.7889 159.272C48.7889 167.124 48.8575 177.803 48.9033 189.592C48.9033 209.142 48.7889 225.636 48.6172 230.615H48.3997C48.3854 229.991 48.4237 229.367 48.5142 228.749Z" fill="#F5F5F5"/>
<path d="M60.3423 228.749C60.4328 229.367 60.4711 229.991 60.4568 230.615H60.2393C60.0676 225.636 59.9531 209.142 59.9531 189.592C59.9531 177.803 60.0332 167.124 60.0676 159.272C60.0676 155.472 60.1592 152.404 60.1935 150.115C60.1935 149.096 60.2507 148.272 60.2622 147.608C60.2544 147.316 60.2813 147.024 60.3423 146.738C60.4033 147.024 60.4302 147.316 60.4224 147.608C60.4224 148.272 60.4224 149.096 60.4911 150.115C60.4911 152.404 60.5712 155.506 60.617 159.272C60.617 167.124 60.6857 177.803 60.7315 189.592C60.7315 209.142 60.617 225.636 60.4568 230.615H60.2393C60.2264 229.991 60.2608 229.368 60.3423 228.749Z" fill="#F5F5F5"/>
<path d="M72.1673 228.749C72.2654 229.366 72.3037 229.991 72.2818 230.615H72.0987C71.9384 225.636 71.8125 209.142 71.8125 189.592C71.8125 177.803 71.9041 167.124 71.927 159.272C71.9842 155.472 72.0185 152.404 72.0529 150.115C72.0529 149.096 72.0529 148.272 72.1215 147.608C72.1213 147.316 72.1481 147.025 72.2017 146.738C72.2699 147.023 72.2969 147.316 72.2818 147.608C72.2818 148.272 72.2818 149.096 72.3619 150.115C72.3619 152.404 72.4306 155.506 72.4878 159.272C72.4878 167.124 72.5565 177.803 72.6023 189.592C72.6023 209.142 72.4764 225.636 72.3161 230.615H72.0987C72.0743 229.992 72.0973 229.369 72.1673 228.749Z" fill="#F5F5F5"/>
<path d="M84.0022 228.749C84.0837 229.368 84.1181 229.991 84.1052 230.615H83.8877C83.7275 225.636 83.6016 209.142 83.6016 189.592C83.6016 177.803 83.6931 167.124 83.716 159.272C83.716 155.472 83.819 152.404 83.8419 150.115C83.8419 149.096 83.8419 148.272 83.9221 147.608C83.907 147.316 83.9339 147.023 84.0022 146.738C84.0546 147.025 84.0776 147.317 84.0708 147.608C84.0708 148.272 84.0708 149.096 84.151 150.115C84.151 152.404 84.2196 155.506 84.2769 159.272C84.2769 167.124 84.3456 177.803 84.3913 189.592C84.3913 209.142 84.2654 225.636 84.1052 230.615H83.8877C83.8658 229.991 83.9041 229.366 84.0022 228.749Z" fill="#F5F5F5"/>
<path d="M95.8267 228.749C95.9082 229.368 95.9426 229.991 95.9297 230.615H95.7122C95.552 225.636 95.4375 209.142 95.4375 189.592C95.4375 177.803 95.5176 167.124 95.552 159.272C95.552 155.472 95.6435 152.404 95.6779 150.115C95.6779 149.096 95.6779 148.272 95.7465 147.608C95.7388 147.316 95.7657 147.024 95.8267 146.738C95.8877 147.024 95.9146 147.316 95.9068 147.608C95.9068 148.272 95.9068 149.096 95.9755 150.115C95.9755 152.404 96.0556 155.506 96.1014 159.272C96.1014 167.124 96.17 177.803 96.2158 189.592C96.2158 209.142 96.1014 225.636 95.9297 230.615H95.7122C95.6979 229.991 95.7362 229.367 95.8267 228.749Z" fill="#F5F5F5"/>
<path d="M107.652 228.749C107.742 229.367 107.78 229.991 107.766 230.615H107.583C107.411 225.636 107.297 209.142 107.297 189.592C107.297 177.803 107.377 167.124 107.411 159.272C107.411 155.472 107.503 152.404 107.537 150.115C107.537 149.096 107.537 148.272 107.606 147.608C107.598 147.316 107.625 147.024 107.686 146.738C107.747 147.024 107.774 147.316 107.766 147.608C107.766 148.272 107.766 149.096 107.835 150.115C107.835 152.404 107.915 155.506 107.961 159.272C107.961 167.124 108.029 177.803 108.075 189.592C108.075 209.142 107.961 225.636 107.801 230.615H107.583C107.559 229.992 107.582 229.369 107.652 228.749Z" fill="#F5F5F5"/>
<path d="M119.467 228.749C119.565 229.366 119.604 229.991 119.582 230.615H119.364C119.204 225.636 119.078 209.142 119.078 189.592C119.078 177.803 119.17 167.124 119.193 159.272C119.193 155.472 119.284 152.404 119.318 150.115C119.318 149.096 119.376 148.272 119.387 147.608C119.387 147.316 119.414 147.025 119.467 146.738C119.536 147.023 119.563 147.316 119.547 147.608C119.547 148.272 119.547 149.096 119.628 150.115C119.628 152.404 119.696 155.506 119.753 159.272C119.753 167.124 119.822 177.803 119.868 189.592C119.868 209.142 119.742 225.636 119.582 230.615H119.364C119.351 229.991 119.386 229.368 119.467 228.749Z" fill="#F5F5F5"/>
<path d="M131.307 228.749C131.388 229.368 131.423 229.991 131.41 230.615H131.192C131.032 225.636 130.906 209.142 130.906 189.592C130.906 177.803 130.998 167.124 131.021 159.272C131.078 155.472 131.124 152.404 131.147 150.115C131.147 149.096 131.147 148.272 131.227 147.608C131.212 147.316 131.239 147.023 131.307 146.738C131.36 147.025 131.387 147.316 131.387 147.608C131.387 148.272 131.387 149.096 131.456 150.115C131.456 152.404 131.524 155.506 131.582 159.272C131.582 167.124 131.65 177.803 131.696 189.592C131.696 209.142 131.57 225.636 131.41 230.615H131.192C131.17 229.991 131.209 229.366 131.307 228.749Z" fill="#F5F5F5"/>
<path d="M143.132 228.749C143.214 229.368 143.248 229.991 143.235 230.615H143.064C142.904 225.636 142.789 209.142 142.789 189.592C142.789 177.803 142.869 167.124 142.904 159.272C142.904 155.472 142.995 152.404 143.029 150.115C143.029 149.096 143.029 148.272 143.098 147.608C143.09 147.316 143.117 147.024 143.178 146.738C143.239 147.024 143.266 147.316 143.258 147.608C143.258 148.272 143.258 149.096 143.327 150.115C143.327 152.404 143.407 155.506 143.453 159.272C143.453 167.124 143.522 177.803 143.567 189.592C143.567 209.142 143.453 225.636 143.281 230.615H143.064C143.034 229.992 143.057 229.368 143.132 228.749Z" fill="#F5F5F5"/>
<path d="M154.952 228.749C155.042 229.367 155.08 229.991 155.066 230.615H154.849C154.677 225.636 154.562 209.142 154.562 189.592C154.562 177.803 154.643 167.124 154.677 159.272C154.677 155.472 154.769 152.404 154.803 150.115C154.803 149.096 154.86 148.272 154.872 147.608C154.864 147.316 154.891 147.024 154.952 146.738C155.013 147.024 155.04 147.316 155.032 147.608C155.032 148.272 155.032 149.096 155.1 150.115C155.1 152.404 155.181 155.506 155.226 159.272C155.226 167.124 155.295 177.803 155.341 189.592C155.341 209.142 155.226 225.636 155.066 230.615H154.849C154.836 229.991 154.87 229.368 154.952 228.749Z" fill="#F5F5F5"/>
<path d="M166.78 228.749C166.878 229.366 166.916 229.991 166.894 230.615H166.677C166.517 225.636 166.391 209.142 166.391 189.592C166.391 177.803 166.482 167.124 166.505 159.272C166.562 155.472 166.597 152.404 166.631 150.115C166.631 149.096 166.631 148.272 166.7 147.608C166.699 147.316 166.726 147.025 166.78 146.738C166.848 147.023 166.875 147.316 166.86 147.608C166.86 148.272 166.86 149.096 166.94 150.115C166.94 152.404 167.009 155.506 167.066 159.272C167.066 167.124 167.135 177.803 167.18 189.592C167.18 209.142 167.054 225.636 166.894 230.615H166.677C166.664 229.991 166.698 229.368 166.78 228.749Z" fill="#F5F5F5"/>
<path d="M286.929 67.5073L278.012 147.847C276.49 161.514 271.465 181.27 249.981 177.893C231.552 173.544 228.783 155.253 230.213 142.502C230.889 136.458 231.438 131.411 231.472 130.793C231.472 130.793 211.236 126.592 212.014 106.184C212.392 96.3285 214.807 76.0689 217.211 57.7781C218.458 48.3028 223.229 39.6448 230.572 33.5277C237.915 27.4107 247.292 24.2831 256.837 24.7677L258.806 24.8593C279.958 27.137 289.813 46.4236 286.929 67.5073Z" fill="#E9C46A"/>
<path d="M231.472 130.794C240.892 131.24 250.243 128.976 258.416 124.27C258.416 124.27 251.193 138.84 230.945 135.979L231.472 130.794Z" fill="#E9C46A"/>
<path d="M250.654 70.3244C251.009 70.7823 253.573 69.1798 256.961 69.5232C260.349 69.8666 262.684 71.8124 263.085 71.4347C263.291 71.2516 262.959 70.4618 261.94 69.5461C260.578 68.3701 258.88 67.6532 257.087 67.4973C255.318 67.3218 253.539 67.7233 252.016 68.6419C250.952 69.3859 250.528 70.1184 250.654 70.3244Z" fill="#3B4D60"/>
<path d="M249.934 77.3291C249.893 78.0474 250.132 78.7536 250.602 79.2984C251.072 79.8431 251.736 80.1837 252.452 80.2479C252.802 80.2925 253.157 80.2668 253.496 80.1725C253.835 80.0781 254.152 79.9169 254.428 79.6983C254.705 79.4798 254.934 79.2082 255.104 78.8996C255.274 78.5911 255.38 78.2517 255.417 77.9014C255.458 77.1844 255.218 76.4794 254.748 75.9365C254.278 75.3936 253.614 75.0555 252.899 74.9941C252.55 74.9494 252.196 74.9747 251.858 75.0683C251.519 75.162 251.203 75.3222 250.927 75.5396C250.651 75.757 250.421 76.0272 250.25 76.3345C250.08 76.6417 249.973 76.9799 249.934 77.3291Z" fill="#3B4D60"/>
<path d="M239.313 92.8135C239.313 92.6304 237.413 92.1955 234.277 91.6689C233.476 91.543 232.732 91.3485 232.617 90.799C232.601 89.988 232.829 89.1907 233.27 88.5098L235.948 82.535C239.668 74.0191 242.404 67.0027 242.06 66.8653C241.717 66.728 238.42 73.4926 234.701 82.0085C233.792 84.0993 232.934 86.1023 232.125 88.0177C231.568 88.9576 231.365 90.0659 231.553 91.1424C231.653 91.4318 231.819 91.694 232.037 91.9085C232.256 92.123 232.521 92.2839 232.812 92.3786C233.248 92.5251 233.703 92.6099 234.163 92.6304C237.322 92.8708 239.29 92.9852 239.313 92.8135Z" fill="#3B4D60"/>
<path d="M253.712 57.7783C253.952 58.5681 256.722 58.3392 259.95 58.9229C263.178 59.5067 265.753 60.5368 266.211 59.8615C266.428 59.5296 266.005 58.7169 264.986 57.9729C263.64 56.9682 262.068 56.308 260.408 56.05C258.76 55.7544 257.064 55.8764 255.475 56.4048C254.25 56.8283 253.62 57.4006 253.712 57.7783Z" fill="#3B4D60"/>
<path d="M221.905 57.7781C222.191 58.4305 224.915 58.0757 228.12 58.3733C231.325 58.6709 233.946 59.4149 234.358 58.8082C234.541 58.5221 234.083 57.9154 233.03 57.2859C231.619 56.5111 230.058 56.0467 228.452 55.9238C226.812 55.7704 225.158 55.9655 223.599 56.4961C222.374 56.8967 221.79 57.4576 221.905 57.7781Z" fill="#3B4D60"/>
<path d="M284.5 82.5257C284.855 82.3884 298.728 79.0919 297.583 93.0103C296.438 106.929 282.703 102.9 282.703 102.499C282.703 102.098 284.5 82.5257 284.5 82.5257Z" fill="#E9C46A"/>
<path d="M287.382 97.5754C287.45 97.5754 287.611 97.77 288.011 97.9875C288.567 98.2829 289.216 98.3487 289.82 98.1706C291.33 97.7586 292.761 95.5266 293.036 93.0199C293.171 91.8305 293.038 90.6258 292.647 89.4945C292.552 89.0485 292.351 88.6322 292.06 88.2813C291.768 87.9304 291.396 87.6554 290.976 87.48C290.702 87.3848 290.405 87.3876 290.133 87.4878C289.862 87.588 289.633 87.7795 289.488 88.0294C289.27 88.3957 289.339 88.6819 289.259 88.7048C289.179 88.7276 288.984 88.4415 289.144 87.8806C289.247 87.5416 289.465 87.2496 289.762 87.0565C290.165 86.7963 290.655 86.7058 291.124 86.8047C291.687 86.9661 292.198 87.2684 292.611 87.6831C293.024 88.0978 293.324 88.611 293.482 89.174C293.983 90.4263 294.164 91.7833 294.009 93.1229C293.688 95.9272 292.04 98.4339 289.98 98.846C289.596 98.9237 289.199 98.9148 288.819 98.8197C288.439 98.7247 288.085 98.5459 287.782 98.2965C287.382 97.9188 287.336 97.5983 287.382 97.5754Z" fill="#E9C46A"/>
<path d="M241.393 102.806C241.29 102.44 244.106 101.959 246.327 99.6473C247.257 98.6298 248.05 97.4946 248.685 96.2707C249.211 95.3092 249.6 94.714 249.749 94.7827C249.898 94.8514 249.749 95.5267 249.406 96.5912C248.933 98.0185 248.152 99.3239 247.116 100.414C246.063 101.52 244.724 102.312 243.248 102.703C242.137 102.99 241.416 102.932 241.393 102.806Z" fill="#3B4D60"/>
<path d="M220.892 65.9397C221.247 66.3975 223.811 64.7951 227.199 65.1384C230.587 65.4818 232.922 67.4277 233.323 67.0385C233.529 66.8668 233.197 66.077 232.178 65.1613C230.819 63.9806 229.119 63.263 227.325 63.1125C225.555 62.937 223.777 63.3385 222.254 64.2571C221.155 65.0011 220.732 65.7336 220.892 65.9397Z" fill="#3B4D60"/>
<path d="M220.669 73.7113C220.627 74.4295 220.867 75.1358 221.337 75.6805C221.807 76.2253 222.47 76.5658 223.187 76.63C223.532 76.675 223.882 76.6514 224.218 76.5605C224.554 76.4697 224.869 76.3135 225.144 76.1008C225.42 75.8882 225.65 75.6232 225.823 75.3212C225.996 75.0192 226.108 74.686 226.151 74.3408C226.199 73.6242 225.963 72.9176 225.494 72.3737C225.025 71.8297 224.36 71.492 223.645 71.4335C223.299 71.3853 222.948 71.4061 222.611 71.4948C222.274 71.5836 221.957 71.7384 221.68 71.9503C221.404 72.1622 221.172 72.427 220.998 72.7293C220.824 73.0316 220.712 73.3654 220.669 73.7113Z" fill="#3B4D60"/>
<path d="M295.495 70.0715C294.476 73.9517 292.061 82.7995 288.627 82.0098C281.76 80.4531 282.16 91.4642 278.841 90.1708C275.522 88.8774 274.743 80.1212 275.121 76.6301C276.266 65.722 280.455 57.8929 275.842 45.4396C274.411 42.9685 272.366 40.9085 269.906 39.4588C267.446 38.0091 264.653 37.2187 261.798 37.1641C258.921 37.166 256.092 37.9031 253.58 39.3054C251.068 40.7076 248.956 42.7285 247.444 45.1763C246.735 41.3648 244.743 35.6418 241.298 33.8791C239.574 32.9796 237.622 32.6084 235.688 32.812C233.754 33.0156 231.923 33.7849 230.424 35.0237C228.994 36.3373 228.089 38.1258 227.878 40.0565C227.668 41.9872 228.166 43.9286 229.28 45.5197C228.496 45.772 227.652 45.767 226.872 45.5055C226.091 45.2439 225.415 44.7395 224.941 44.0661C224.894 44.9619 225.032 45.8578 225.345 46.6985C225.658 47.5391 226.14 48.3066 226.761 48.9535C225.349 48.6388 224.098 47.8262 223.236 46.6643L224.381 51.3801C218.658 51.6663 212.832 46.2179 211.115 41.2847C208.516 33.799 210.21 26.153 214.262 19.354C218.314 12.5551 225.708 7.65616 233.721 7.5417C241.733 7.42724 248.36 11.0328 251.576 18.2667C256.636 14.5124 267.017 13.0129 272.797 15.4853C275.688 16.7582 278.205 18.7496 280.108 21.27C282.011 23.7904 283.238 26.7559 283.671 29.8844C287.219 28.2934 291.546 29.3693 294.625 31.7501L295.369 32.3682C297.429 34.2419 298.98 36.6077 299.877 39.2441C300.774 41.8805 300.987 44.7014 300.497 47.4427C300.131 49.6403 299.421 51.9295 299.02 53.7037C297.67 58.9574 295.495 70.0715 295.495 70.0715Z" fill="#3B4D60"/>
<path d="M223.962 43.7688C223.962 43.7688 223.779 43.6658 223.493 43.414C223.07 43.0505 222.687 42.6439 222.348 42.2007C221.04 40.5496 220.212 38.5692 219.956 36.4777C219.725 34.9345 219.828 33.3597 220.256 31.8592C220.684 30.3587 221.429 28.9674 222.44 27.7787C223.679 26.3144 225.257 25.1741 227.036 24.4561C228.814 23.7382 230.741 23.4643 232.65 23.6581C234.614 23.9041 236.497 24.5929 238.155 25.6726C239.703 26.6465 241.089 27.8552 242.265 29.2552C244.261 31.5858 245.732 34.3183 246.58 37.2675C247.151 39.2576 247.424 41.321 247.392 43.3911C247.392 44.1237 247.324 44.6845 247.267 45.0622C247.255 45.2565 247.221 45.4486 247.164 45.6346C247.288 42.8484 246.956 40.0606 246.179 37.3819C245.297 34.4976 243.819 31.8304 241.841 29.5528C239.512 26.6951 236.219 24.7862 232.581 24.1846C230.768 24.008 228.939 24.2693 227.248 24.9465C225.557 25.6237 224.053 26.6971 222.864 28.0763C221.889 29.2049 221.165 30.5264 220.737 31.9545C220.309 33.3826 220.187 34.8849 220.38 36.3632C220.584 38.4014 221.318 40.3507 222.509 42.0176C223.367 43.2194 223.997 43.7231 223.962 43.7688Z" fill="#455A64"/>
<path d="M221.458 49.8579C221.292 49.6615 221.15 49.4464 221.034 49.2169C220.771 48.782 220.393 48.0723 219.89 47.294C218.536 44.9288 217.416 42.437 216.547 39.854C215.963 38.0491 215.62 36.1747 215.529 34.2798C215.416 32.088 215.763 29.8969 216.547 27.8471C217.462 25.5753 219.026 23.6242 221.046 22.2386C223.203 20.76 225.708 19.8684 228.314 19.6517C230.908 19.452 233.514 19.807 235.96 20.6933C238.231 21.5123 240.365 22.67 242.289 24.1272C245.647 26.4998 248.126 29.9165 249.34 33.8449C250.096 36.509 250.02 39.3403 249.123 41.9601C248.871 42.6585 248.548 43.3296 248.161 43.9632C248.027 44.1856 247.874 44.3962 247.703 44.5927C248.159 43.7215 248.542 42.8142 248.848 41.88C249.632 39.298 249.632 36.5414 248.848 33.9593C247.609 30.1517 245.162 26.8523 241.877 24.5621C238.037 21.5896 233.269 20.0694 228.417 20.2698C225.911 20.4853 223.503 21.3406 221.423 22.7536C219.495 24.0721 217.995 25.9263 217.108 28.0875C216.337 30.0614 215.982 32.1736 216.067 34.2913C216.138 36.1474 216.45 37.9864 216.994 39.7625C217.823 42.3335 218.876 44.8269 220.141 47.2139L221.137 49.194C221.264 49.4052 221.371 49.6274 221.458 49.8579Z" fill="#455A64"/>
<path d="M290.542 61.4745C290.473 61.3829 291.766 60.4329 293.357 58.4413C295.449 55.8693 296.86 52.8123 297.46 49.5519C298.06 46.2914 297.83 42.9324 296.791 39.7842C296.001 37.3576 295.132 36.007 295.235 35.9612C295.338 35.9154 295.509 36.2474 295.887 36.8769C296.407 37.7578 296.844 38.6851 297.192 39.6468C298.37 42.8476 298.667 46.3061 298.05 49.6608C297.434 53.0154 295.928 56.1428 293.689 58.716C293.022 59.4896 292.286 60.2021 291.492 60.8449C291.207 61.0995 290.887 61.3115 290.542 61.4745Z" fill="#455A64"/>
<path d="M278.266 61.3614C278.266 61.3042 278.929 61.0409 279.983 60.2855C281.449 59.2288 282.594 57.7867 283.29 56.1191L283.817 54.8143L283.725 56.2221C283.6 58.1222 283.451 60.3084 283.302 62.6892L282.856 62.4373C284.752 61.0727 286.36 59.347 287.588 57.3592C288.815 55.3714 289.638 53.1606 290.009 50.8539C290.319 48.7458 290.257 46.5996 289.826 44.5128C289.367 42.5961 288.683 40.7404 287.789 38.9844C287.889 39.0843 287.978 39.1957 288.052 39.3163C288.276 39.6406 288.482 39.9769 288.67 40.3236C289.368 41.6144 289.892 42.9924 290.227 44.4213C291.032 47.8526 290.79 51.4464 289.534 54.7392C288.277 58.032 286.062 60.8727 283.176 62.8952L282.684 63.2386V62.6434L283.222 56.1878L283.668 56.2908C282.912 58.015 281.666 59.4795 280.086 60.503C279.658 60.7775 279.206 61.0113 278.735 61.2012C278.585 61.2731 278.428 61.3269 278.266 61.3614Z" fill="#455A64"/>
<path d="M273.866 33.054C273.051 31.5873 271.958 30.2929 270.65 29.2424C269.207 28.1619 267.528 27.44 265.751 27.1364C263.565 26.7813 261.324 27.0348 259.272 27.8689C257.214 28.6929 255.381 29.9956 253.927 31.669C252.744 33.031 251.793 34.5777 251.111 36.2474C250.533 37.8316 250.078 39.4579 249.749 41.112C249.704 40.6533 249.727 40.1904 249.818 39.7385C249.978 38.4956 250.278 37.2747 250.711 36.0986C251.363 34.3405 252.312 32.7068 253.515 31.2684C255.009 29.5064 256.911 28.1353 259.055 27.2737C261.209 26.4026 263.565 26.1527 265.854 26.5526C267.709 26.9091 269.447 27.7191 270.913 28.9105C271.896 29.7064 272.719 30.6812 273.339 31.7835C273.503 32.0833 273.649 32.3929 273.774 32.7106C273.825 32.8186 273.856 32.9349 273.866 33.054Z" fill="#455A64"/>
<path d="M270.475 22.845C269.257 22.267 267.984 21.8144 266.675 21.4943C263.538 20.904 260.294 21.4433 257.518 23.0167C254.764 24.6828 252.544 27.1014 251.119 29.9873C249.975 32.1849 249.666 33.7073 249.563 33.6729C249.558 33.3071 249.616 32.9432 249.734 32.597C249.987 31.6345 250.324 30.6961 250.742 29.7927C252.107 26.7804 254.359 24.2566 257.197 22.5588C260.108 20.8898 263.543 20.3828 266.812 21.1395C267.79 21.3829 268.727 21.7685 269.593 22.2841C269.912 22.4283 270.209 22.6171 270.475 22.845Z" fill="#455A64"/>
<path d="M187.995 339.879L315.894 341.619C315.894 341.619 351.663 326.648 361.495 326.247C371.327 325.847 390.831 327.094 399.851 341.619C409.179 356.636 410.484 383.123 381.743 402.363C353.746 421.112 225.745 438.43 208.198 436.839L175.874 393.413C175.874 393.413 175.542 357.827 175.874 356.133C176.206 354.439 181.597 339.193 181.597 339.193L187.995 339.879Z" fill="#3B4D60"/>
<path d="M264.573 399.947L330.857 424.568L300.651 507.174C292.936 503.809 292.719 455.278 292.719 455.278L249.602 441.245L264.573 399.947Z" fill="#E76F51"/>
<g opacity="0.6">
<path d="M298.475 428.425C299.007 427.718 299.782 427.233 300.65 427.062C301.518 426.891 302.418 427.046 303.179 427.498C303.907 428 304.413 428.763 304.592 429.628C304.771 430.494 304.609 431.395 304.141 432.145C303.145 433.61 300.512 434.228 299.15 433.106C297.788 431.984 297.376 429.329 298.692 428.15" fill="white"/>
</g>
<path d="M330.853 424.568L324.158 422.027L297.648 502.379C297.648 502.379 297.9 506.648 300.647 507.175L330.853 424.568Z" fill="#3B4D60"/>
<path d="M291.857 456.455C292.269 456.592 293.185 454.646 295.211 453.136C297.237 451.625 299.32 451.19 299.297 450.755C299.274 450.32 296.722 450.079 294.307 451.899C291.891 453.719 291.399 456.363 291.857 456.455Z" fill="#3B4D60"/>
<path d="M292.228 466.437C292.582 466.666 293.899 465.178 296.108 464.434C298.317 463.69 300.263 463.941 300.4 463.541C300.537 463.14 298.34 462.041 295.616 463.014C292.892 463.987 291.861 466.288 292.228 466.437Z" fill="#3B4D60"/>
<path d="M300.792 475.148C301.021 474.816 299.201 473.511 296.614 473.74C294.028 473.969 292.459 475.537 292.734 475.834C293.009 476.132 294.611 475.388 296.74 475.228C298.869 475.067 300.609 475.537 300.792 475.148Z" fill="#3B4D60"/>
<path d="M282.337 452.175C282.761 452.175 282.887 450.081 283.871 447.86C284.855 445.64 286.229 444.117 285.966 443.785C285.702 443.453 283.676 444.632 282.532 447.219C281.387 449.806 281.948 452.255 282.337 452.175Z" fill="#3B4D60"/>
<path d="M273.251 446.623C273.423 446.68 274.247 445.18 274.75 442.479C275.024 440.888 275.109 439.271 275.002 437.66C274.931 436.707 274.801 435.759 274.613 434.822C274.518 434.265 274.34 433.725 274.086 433.219C273.9 432.849 273.594 432.551 273.219 432.375C272.843 432.199 272.419 432.153 272.015 432.246C271.659 432.345 271.332 432.526 271.06 432.774C270.787 433.023 270.577 433.332 270.447 433.677C270.254 434.2 270.135 434.747 270.092 435.303C269.982 436.264 269.963 437.233 270.035 438.198C270.16 439.829 270.546 441.429 271.179 442.937C272.255 445.501 273.468 446.703 273.652 446.6C273.835 446.497 272.919 445.066 272.175 442.582C271.738 441.136 271.492 439.639 271.442 438.13C271.415 437.246 271.461 436.362 271.58 435.486C271.671 434.524 271.935 433.78 272.404 433.7C272.587 433.7 272.644 433.7 272.839 433.963C273.011 434.328 273.138 434.712 273.217 435.108C273.416 435.976 273.565 436.855 273.663 437.741C273.827 439.261 273.85 440.794 273.732 442.319C273.549 444.917 273.033 446.543 273.251 446.623Z" fill="#3B4D60"/>
<path d="M274.023 446.302C274.137 446.188 272.981 444.86 270.417 443.75C268.919 443.1 267.32 442.713 265.69 442.605C264.719 442.556 263.745 442.602 262.783 442.742C262.156 442.766 261.547 442.951 261.013 443.28C260.479 443.609 260.04 444.07 259.738 444.62C259.61 444.988 259.59 445.386 259.682 445.765C259.773 446.145 259.971 446.49 260.253 446.76C260.658 447.152 261.116 447.483 261.615 447.744C262.488 448.225 263.43 448.569 264.408 448.763C266.036 449.108 267.725 449.037 269.318 448.557C272.054 447.733 273.153 446.268 273.027 446.142C272.901 446.016 271.585 447.046 269.078 447.538C267.629 447.814 266.138 447.775 264.706 447.424C263.881 447.213 263.088 446.894 262.348 446.474C261.512 446.016 260.928 445.432 261.134 445.135C261.34 444.837 262.199 444.265 263.023 444.185C263.885 444.039 264.758 443.97 265.633 443.979C267.135 444.011 268.625 444.25 270.062 444.688C272.523 445.524 273.874 446.508 274.023 446.302Z" fill="#3B4D60"/>
<path d="M209.91 389.738L145.812 419.498L182.44 499.483C189.857 495.523 186.263 447.117 186.263 447.117L228.144 429.742L209.91 389.738Z" fill="#E76F51"/>
<g opacity="0.6">
<path d="M178.347 420.789C177.762 420.126 176.952 419.702 176.074 419.599C175.195 419.495 174.309 419.72 173.586 420.228C172.899 420.788 172.455 421.59 172.346 422.469C172.238 423.348 172.472 424.235 173.002 424.944C174.146 426.318 176.768 426.73 178.038 425.505C179.309 424.28 179.515 421.602 178.107 420.538" fill="white"/>
</g>
<path d="M145.773 419.485L152.24 416.486L184.988 494.457C184.988 494.457 185.068 498.726 182.378 499.47L145.773 419.485Z" fill="#3B4D60"/>
<path d="M187.207 448.215C186.807 448.387 185.731 446.51 183.602 445.159C181.473 443.808 179.355 443.545 179.344 443.11C179.332 442.675 181.862 442.229 184.414 443.911C186.967 445.594 187.596 448.135 187.207 448.215Z" fill="#3B4D60"/>
<path d="M187.575 458.196C187.231 458.459 185.8 457.051 183.534 456.502C181.268 455.952 179.356 456.341 179.196 455.952C179.036 455.563 181.13 454.292 183.923 455.048C186.716 455.803 187.941 458.012 187.575 458.196Z" fill="#3B4D60"/>
<path d="M179.687 467.558C179.446 467.238 181.14 465.796 183.739 465.819C186.337 465.842 188.031 467.284 187.779 467.604C187.527 467.925 185.868 467.307 183.739 467.318C181.61 467.33 179.927 467.925 179.687 467.558Z" fill="#3B4D60"/>
<path d="M196.306 443.2C195.871 443.2 195.596 441.151 194.428 439.022C193.261 436.893 191.784 435.474 192.036 435.119C192.288 434.764 194.417 435.783 195.756 438.324C197.095 440.865 196.695 443.246 196.306 443.2Z" fill="#3B4D60"/>
<path d="M204.926 436.906C204.766 436.986 203.782 435.544 203.118 432.889C202.708 431.326 202.492 429.719 202.477 428.104C202.473 427.151 202.531 426.2 202.648 425.254C202.689 424.687 202.82 424.131 203.038 423.606C203.193 423.219 203.473 422.896 203.835 422.688C204.196 422.48 204.617 422.4 205.029 422.461C205.393 422.525 205.736 422.676 206.029 422.901C206.322 423.126 206.557 423.419 206.712 423.755C206.944 424.298 207.095 424.873 207.158 425.46C207.341 426.411 207.437 427.376 207.444 428.344C207.45 429.971 207.203 431.589 206.712 433.14C205.842 435.784 204.674 437.089 204.537 436.986C204.4 436.883 205.132 435.407 205.682 432.866C206.002 431.393 206.129 429.885 206.059 428.379C206.02 427.493 205.905 426.612 205.716 425.746C205.556 424.808 205.235 424.075 204.754 424.029C204.571 424.029 204.514 424.029 204.342 424.327C204.203 424.695 204.111 425.08 204.068 425.472C203.934 426.355 203.854 427.245 203.827 428.138C203.776 429.67 203.872 431.203 204.113 432.717C204.56 435.304 205.144 436.906 204.926 436.906Z" fill="#3B4D60"/>
<path d="M204.135 436.701C204.009 436.586 205.051 435.167 207.512 433.873C209.836 432.674 212.446 432.139 215.055 432.328C215.682 432.301 216.306 432.436 216.865 432.721C217.425 433.006 217.901 433.43 218.248 433.954C218.402 434.314 218.45 434.711 218.387 435.098C218.325 435.485 218.153 435.846 217.893 436.14C217.519 436.56 217.087 436.927 216.611 437.227C215.779 437.773 214.868 438.19 213.91 438.463C212.314 438.929 210.627 438.992 209 438.646C206.207 438.028 204.994 436.621 205.108 436.517C205.223 436.414 206.619 437.319 209.16 437.662C210.626 437.825 212.11 437.669 213.509 437.204C214.323 436.934 215.094 436.548 215.799 436.06C216.588 435.545 217.138 434.915 216.943 434.64C216.697 434.372 216.396 434.162 216.059 434.023C215.723 433.885 215.361 433.822 214.997 433.839C214.122 433.753 213.24 433.753 212.365 433.839C210.872 433.981 209.408 434.336 208.015 434.892C205.554 435.762 204.284 436.907 204.135 436.701Z" fill="#3B4D60"/>
<path d="M181.634 339.203C181.634 339.203 126.395 318.6 106.09 321.232C94.7239 322.732 76.9482 331.408 75.5861 345.979C74.224 360.55 77.7952 380.042 97.4481 389.531C117.101 399.02 195.552 434.228 214.198 439.642C232.844 445.056 279.269 457.761 279.269 457.761L296.919 407.398C296.919 407.398 200.6 374.045 195.518 370.313C190.436 366.582 177.559 361.511 177.559 361.511L181.634 339.203Z" fill="#3B4D60"/>
<path d="M373.665 346.036L373.276 345.944L372.131 345.601C371.158 345.314 369.716 344.891 367.839 344.456C362.544 343.112 357.055 342.705 351.62 343.254C347.872 343.575 344.167 344.281 340.563 345.36C338.563 345.966 336.615 346.732 334.737 347.649L328.728 350.591C320.464 354.54 311.227 358.603 301.406 362.461C281.719 370.347 262.821 374.09 249.349 377.157C242.596 378.645 237.125 379.882 233.325 380.774L228.987 381.804L227.842 382.056L227.453 382.125C227.567 382.063 227.691 382.02 227.819 381.999L228.964 381.69C229.948 381.427 231.391 381.015 233.279 380.545C237.022 379.584 242.436 378.256 249.224 376.745C262.684 373.575 281.524 369.775 301.143 361.865C310.964 357.985 320.189 353.968 328.453 350.042L334.474 347.134C336.381 346.213 338.36 345.447 340.391 344.845C344.028 343.767 347.769 343.08 351.551 342.796C357.051 342.27 362.6 342.743 367.931 344.193C369.808 344.673 371.239 345.131 372.211 345.463L373.299 345.864L373.665 346.036Z" fill="#455A64"/>
<path d="M370.754 338.757C370.754 338.86 369.072 338.55 366.371 338.264C359.319 337.487 352.187 337.854 345.253 339.352C342.586 339.913 340.96 340.382 340.938 340.29C341.299 340.094 341.683 339.944 342.082 339.844C342.803 339.592 343.868 339.272 345.195 338.94C348.665 338.07 352.211 337.541 355.783 337.36C359.35 337.181 362.926 337.342 366.462 337.841C367.824 338.047 368.912 338.253 369.656 338.425C370.033 338.496 370.401 338.607 370.754 338.757Z" fill="#455A64"/>
<path d="M158.394 353.806C158.337 353.887 156.803 352.662 154.159 351.071C147.252 346.775 139.49 344.041 131.415 343.059C128.325 342.669 126.391 342.635 126.391 342.532C126.84 342.451 127.297 342.424 127.753 342.452C128.634 342.452 129.905 342.452 131.461 342.635C139.64 343.413 147.502 346.192 154.353 350.727C155.391 351.402 156.392 352.132 157.352 352.914C157.737 353.164 158.088 353.464 158.394 353.806Z" fill="#455A64"/>
<path d="M186.122 428.894L186.557 429.055L187.805 429.581C188.949 430.039 190.529 430.794 192.692 431.63C196.996 433.335 203.349 435.67 211.51 438.36C227.82 443.683 251.273 450.482 279.339 457.544L279.03 457.715L296.107 410.317L296.268 410.695L275.115 402.008L158.102 353.808C153.341 348.772 148.945 344.331 144.848 340.737C141.365 337.665 137.649 334.867 133.734 332.37C131.27 330.819 128.726 329.402 126.111 328.123L124.062 327.162L123.375 326.818L124.085 327.116L126.156 328.02C128.8 329.257 131.368 330.648 133.848 332.187C137.799 334.658 141.546 337.441 145.054 340.508C149.197 344.079 153.604 348.52 158.388 353.533H158.32L275.344 401.424L296.497 410.111L296.748 410.214L296.657 410.489L279.488 457.864L279.408 458.093L279.167 458.036C251.102 450.916 227.66 444.049 211.361 438.578C203.211 435.853 196.87 433.461 192.578 431.71C190.426 430.863 188.824 430.073 187.725 429.592L186.489 429.032L186.122 428.894Z" fill="#455A64"/>
<path d="M322.648 163.15C322.648 163.15 338.558 172.307 341.785 183.078C343.743 189.614 358.577 273.239 360.923 289.721C363.27 306.203 358.313 318.428 351.286 323.899C344.258 329.37 322.934 336.65 322.934 336.65L293.002 346.367L284.406 324.483L312.907 283.529L310.171 255.863L322.648 163.15Z" fill="#E76F51"/>
<path d="M291.392 148.706L279.442 141.838C279.442 141.838 268.557 154.566 253.712 153.01C238.866 151.453 230.053 140.133 230.053 140.133L185.779 149.141C182.815 149.736 177.401 151.613 172.216 159.019C166.435 167.271 139.022 203.887 139.022 203.887H119.884C117.292 203.887 114.75 204.595 112.531 205.934C110.312 207.274 108.501 209.194 107.294 211.488C104.02 217.726 100.094 226.058 100.426 229.515C101.078 235.364 99.9452 251.4 107.786 256.402C110.27 257.993 119.152 262.754 126.099 262.434C136.275 261.953 148.099 256.654 154.909 251.892C160.632 247.852 174.081 233.91 179.244 228.473V228.588L182.563 344.708L298.626 341.412L322.663 163.174C322.663 163.174 292.559 148.706 291.392 148.706Z" fill="#E76F51"/>
<path d="M178.819 179.828C178.98 179.828 179.289 194.216 179.495 211.969C179.701 229.721 179.747 244.121 179.575 244.121C179.403 244.121 179.106 229.733 178.9 211.98C178.693 194.227 178.659 179.828 178.819 179.828Z" fill="#3B4D60"/>
<path d="M336.703 273.696C336.703 273.696 335.718 273.856 333.967 274.188C331.493 274.681 329.082 275.449 326.779 276.478C323.37 278.016 320.157 279.956 317.21 282.258C313.598 285.085 310.225 288.205 307.126 291.586C303.807 295.169 300.785 298.706 297.969 301.888C295.469 304.69 292.829 307.364 290.06 309.9C288.186 311.616 286.202 313.207 284.119 314.662C283.387 315.177 282.78 315.52 282.38 315.806C282.185 315.946 281.973 316.061 281.75 316.15C281.922 315.983 282.109 315.833 282.311 315.703C282.689 315.417 283.272 315.039 283.982 314.49C286.007 312.98 287.941 311.352 289.774 309.614C292.12 307.439 294.741 304.669 297.557 301.499C300.373 298.328 303.394 294.78 306.714 291.197C309.839 287.798 313.247 284.669 316.901 281.846C319.894 279.542 323.162 277.62 326.63 276.123C328.973 275.119 331.429 274.404 333.944 273.994C334.837 273.822 335.535 273.822 336.004 273.765C336.233 273.713 336.468 273.69 336.703 273.696Z" fill="#3B4D60"/>
<path d="M339.336 265.834C339.336 265.937 337.573 266.189 334.758 266.978C327.521 268.981 320.955 272.891 315.746 278.299C313.754 280.37 312.689 281.812 312.609 281.732C312.787 281.352 313.009 280.994 313.273 280.668C313.935 279.732 314.658 278.842 315.437 278.001C320.549 272.349 327.24 268.362 334.643 266.555C335.756 266.281 336.883 266.071 338.02 265.925C338.452 265.834 338.895 265.803 339.336 265.834Z" fill="#3B4D60"/>
<g opacity="0.3">
<path d="M123.312 245.449C129.459 247.12 136.83 238.284 142.416 232.755C145.312 229.871 148.334 226.803 149.41 222.854C150.165 219.536 149.824 216.062 148.437 212.954C147.407 210.151 146.035 207.487 144.35 205.021C144.865 209.794 146.044 217.097 144.442 223.095C143.103 228.097 139.932 232.069 136.567 235.846C133.019 239.84 128.807 244.03 123.312 245.449Z" fill="black"/>
</g>
<path d="M149.584 240.388C149.47 240.388 150.18 238.362 150.729 235.032C151.063 233.083 151.25 231.113 151.29 229.137C151.331 226.72 151.17 224.304 150.809 221.914C150.414 219.528 149.825 217.177 149.046 214.886C148.394 213.019 147.606 211.202 146.689 209.45C145.12 206.451 143.827 204.78 143.919 204.711C144.279 205.054 144.598 205.438 144.869 205.856C145.23 206.308 145.562 206.782 145.864 207.275C146.231 207.847 146.666 208.488 147.066 209.244C148.042 210.99 148.877 212.812 149.562 214.692C150.385 217.005 150.997 219.388 151.393 221.811C151.765 224.238 151.915 226.694 151.839 229.148C151.778 231.152 151.544 233.148 151.141 235.112C151.004 235.959 150.786 236.691 150.615 237.401C150.476 237.962 150.308 238.516 150.111 239.061C149.978 239.519 149.802 239.963 149.584 240.388Z" fill="#3B4D60"/>
<path d="M234.907 144.621C234.987 144.77 233.625 145.56 232.206 146.842C230.786 148.124 229.825 149.371 229.688 149.268C230.186 148.173 230.908 147.194 231.807 146.394C232.705 145.593 233.761 144.99 234.907 144.621Z" fill="#3B4D60"/>
<path d="M246.981 151.637C247.107 151.763 245.94 153.01 245.001 154.864C244.062 156.719 243.708 158.39 243.536 158.298C243.454 156.976 243.781 155.661 244.474 154.533C245 153.337 245.874 152.328 246.981 151.637Z" fill="#3B4D60"/>
<path d="M267.66 158.917C267.107 157.818 266.662 156.668 266.332 155.483C265.827 154.355 265.443 153.177 265.188 151.969C265.997 152.939 266.59 154.071 266.927 155.288C267.433 156.43 267.683 157.668 267.66 158.917Z" fill="#3B4D60"/>
<path d="M280.973 152.62C280.79 152.62 280.344 150.64 279.028 148.499C277.711 146.359 276.155 145.008 276.281 144.871C277.672 145.63 278.808 146.786 279.543 148.19C280.447 149.493 280.945 151.034 280.973 152.62Z" fill="#3B4D60"/>
<path d="M319.185 190.232C319.356 190.232 317.388 206.12 314.801 225.658C312.214 245.196 309.982 261.026 309.822 261.003C309.661 260.981 311.619 245.128 314.206 225.578C316.792 206.028 319.024 190.21 319.185 190.232Z" fill="#3B4D60"/>
<path d="M145.263 215.918C145.308 216.463 145.308 217.01 145.263 217.555C145.232 218.197 145.152 218.836 145.023 219.466C144.954 219.844 144.897 220.233 144.817 220.611C144.737 220.989 144.611 221.458 144.485 221.916C143.92 224.063 143.154 226.151 142.196 228.154C140.993 230.591 139.563 232.909 137.926 235.079C136.242 237.231 134.322 239.189 132.203 240.916C130.459 242.313 128.534 243.468 126.48 244.35C126.034 244.522 125.622 244.716 125.221 244.865L124.076 245.186L123.069 245.46C122.76 245.529 122.463 245.54 122.199 245.586C121.658 245.672 121.111 245.714 120.562 245.712C122.525 245.324 124.442 244.737 126.286 243.961C128.261 243.052 130.115 241.898 131.803 240.527C133.844 238.818 135.7 236.899 137.342 234.804C138.956 232.67 140.374 230.394 141.577 228.005C142.545 226.04 143.342 223.995 143.958 221.893C144.496 219.925 144.932 217.931 145.263 215.918Z" fill="#3B4D60"/>
<g opacity="0.3">
<path d="M315.448 348.657C320.37 346.276 321.491 339.9 321.995 334.452C323.46 318.512 324.929 302.56 326.402 286.596C327.1 279.099 327.432 270.572 322.144 265.169C317.313 260.27 309.633 259.984 302.754 260.007C260.289 260.121 222.78 261.369 180.281 261.483L182.445 335.78L315.448 348.657Z" fill="black"/>
</g>
<path d="M162.008 272.999L166.529 359.165C166.623 360.775 167.33 362.287 168.506 363.39C169.681 364.493 171.235 365.103 172.847 365.094L310.108 365.335C311.723 365.34 313.279 364.726 314.454 363.619C315.63 362.511 316.336 360.995 316.426 359.383L321.657 274.682C321.84 271.157 319.368 266.475 315.774 266.407H168.452C167.587 266.383 166.726 266.539 165.924 266.864C165.121 267.189 164.395 267.677 163.79 268.296C163.185 268.915 162.714 269.652 162.408 270.461C162.101 271.271 161.965 272.135 162.008 272.999Z" fill="#E0E0E0"/>
<path d="M162.007 272.998C162.007 272.998 162.007 272.884 162.007 272.678C161.977 272.358 161.977 272.036 162.007 271.717C162.194 270.459 162.761 269.289 163.632 268.363C164.271 267.679 165.053 267.143 165.922 266.795C166.984 266.413 168.115 266.257 169.241 266.337H177.585L230.763 266.245L309.638 266.165H315.247C316.241 266.112 317.227 266.364 318.074 266.886C318.909 267.418 319.623 268.12 320.169 268.947C321.291 270.585 321.894 272.523 321.897 274.509C321.782 276.421 321.668 278.355 321.554 280.301C321.073 288.054 320.584 295.963 320.088 304.029C319.104 320.156 318.074 336.845 317.009 353.945L316.815 357.15C316.723 358.214 316.746 359.245 316.552 360.366C316.331 361.462 315.835 362.484 315.11 363.335C314.385 364.186 313.455 364.839 312.408 365.231C311.378 365.596 310.282 365.741 309.192 365.654H299.749H275.105L228.52 365.551L186.364 365.448H176.635H174.311C173.522 365.448 172.743 365.448 171.919 365.368C170.313 365.142 168.848 364.326 167.81 363.079C166.797 361.863 166.253 360.324 166.276 358.741C166.196 357.241 166.128 355.765 166.047 354.3C165.899 351.358 165.75 348.497 165.601 345.692C164.456 323.27 163.552 305.128 162.911 292.583C162.614 286.322 162.373 281.457 162.213 278.138C162.144 276.49 162.087 275.242 162.041 274.383C161.996 273.525 162.041 273.102 162.041 273.102C162.041 273.102 162.041 273.536 162.144 274.383C162.247 275.23 162.27 276.49 162.362 278.126C162.556 281.446 162.831 286.31 163.186 292.571C163.861 305.162 164.846 323.258 166.059 345.67C166.208 348.474 166.368 351.335 166.528 354.277C166.597 355.742 166.677 357.219 166.757 358.718C166.734 360.202 167.246 361.644 168.199 362.781C169.167 363.935 170.53 364.686 172.022 364.887C172.783 364.956 173.548 364.978 174.311 364.956H186.41H228.566L275.151 365.025H299.795H309.238C310.257 365.106 311.283 364.974 312.248 364.636C313.199 364.28 314.045 363.688 314.703 362.915C315.362 362.142 315.813 361.213 316.014 360.217C316.185 359.245 316.185 358.123 316.265 357.081L316.46 353.876C317.525 336.776 318.555 320.088 319.562 303.971C320.058 295.898 320.546 287.985 321.027 280.232C321.153 278.298 321.267 276.375 321.382 274.452C321.374 272.589 320.808 270.771 319.757 269.233C319.304 268.449 318.651 267.801 317.864 267.354C317.077 266.907 316.186 266.679 315.281 266.692H309.684H230.809L177.631 266.612H169.287C168.182 266.526 167.071 266.67 166.025 267.035C165.012 267.426 164.118 268.073 163.432 268.914C162.745 269.755 162.29 270.76 162.11 271.831C162.056 272.218 162.022 272.608 162.007 272.998Z" fill="#3B4D60"/>
<path d="M242.847 323.109C247.31 323.109 250.927 319.491 250.927 315.028C250.927 310.565 247.31 306.947 242.847 306.947C238.384 306.947 234.766 310.565 234.766 315.028C234.766 319.491 238.384 323.109 242.847 323.109Z" fill="white"/>
<path d="M250.924 315.028C250.867 315.028 250.924 314.307 250.558 313.083C250.084 311.354 249.044 309.835 247.605 308.767C246.629 308.03 245.491 307.536 244.286 307.325C242.911 307.085 241.498 307.212 240.188 307.691C238.736 308.216 237.476 309.165 236.571 310.416C235.648 311.678 235.125 313.188 235.069 314.751C235.014 316.314 235.428 317.857 236.259 319.182C237.089 320.507 238.298 321.553 239.729 322.183C241.16 322.814 242.747 323.001 244.286 322.72C245.491 322.51 246.629 322.015 247.605 321.278C249.042 320.213 250.082 318.698 250.558 316.974C250.89 315.749 250.867 315.017 250.924 315.028C250.955 315.199 250.955 315.373 250.924 315.543C250.931 316.045 250.873 316.545 250.753 317.031C250.336 318.848 249.305 320.465 247.834 321.61C246.734 322.467 245.435 323.032 244.059 323.252C242.682 323.472 241.271 323.34 239.959 322.869C238.734 322.431 237.628 321.713 236.73 320.771C235.833 319.829 235.168 318.689 234.79 317.444C234.411 316.199 234.33 314.883 234.552 313.601C234.774 312.319 235.293 311.106 236.067 310.061C237.043 308.725 238.399 307.715 239.959 307.165C241.364 306.662 242.878 306.548 244.343 306.833C245.597 307.085 246.774 307.63 247.777 308.424C249.253 309.564 250.285 311.183 250.696 313.002C250.817 313.485 250.874 313.981 250.867 314.479C250.918 314.657 250.938 314.843 250.924 315.028Z" fill="#3B4D60"/>
<path d="M166.63 282.533C166.791 282.533 167.477 297.012 168.141 314.88C168.805 332.747 169.217 347.238 169.057 347.238C168.897 347.238 168.244 332.747 167.546 314.891C166.848 297.035 166.47 282.545 166.63 282.533Z" fill="#3B4D60"/>
<path d="M125.379 170.11C124.566 169.423 128.092 155.894 128.092 155.894C128.092 155.894 118.774 140.705 118.534 135.806C118.294 130.908 122.208 120.858 122.208 120.858L148.912 113.99C148.912 113.99 157.496 129.923 159.213 135.555C160.93 141.186 156.272 160.301 156.272 160.301L151.693 170.11C151.693 170.11 138.095 180.892 125.379 170.11Z" fill="#E9C46A"/>
<path d="M118.577 138.735C117.532 136.808 116.592 134.824 115.762 132.795C114.079 128.789 111.996 124.851 115.762 122.608C116.349 122.221 117.013 121.965 117.708 121.856C118.403 121.748 119.113 121.789 119.791 121.978C119.791 121.978 119.218 118.544 121.233 117.331C121.819 116.965 122.483 116.743 123.172 116.683C123.86 116.624 124.553 116.728 125.193 116.988C125.193 116.988 124.552 112.226 127.482 110.212C128.573 109.492 129.842 109.09 131.148 109.051C132.455 109.013 133.746 109.339 134.876 109.994C134.876 109.994 132.587 89.151 132.381 88.0522C131.649 84.0002 133.148 80.4062 137.177 81.4134C138.654 81.7797 139.466 83.3364 141.206 90.1239C142.946 96.9114 145.727 108.495 145.727 108.495C145.727 108.495 150.42 116.644 152.595 121.085C154.77 125.527 159.199 135.576 159.566 138.255C160.504 145.122 156.464 154.279 156.464 154.279L128.077 155.927L118.577 138.735Z" fill="#E9C46A"/>
<path d="M120.35 122.871C121.159 123.836 121.894 124.862 122.548 125.939L124.837 129.372C125.301 130.049 125.71 130.761 126.062 131.501C126.461 132.347 126.577 133.298 126.394 134.214C126.307 134.693 126.096 135.14 125.78 135.51C125.464 135.88 125.056 136.16 124.597 136.32C123.739 136.535 122.833 136.42 122.056 136C121.387 135.679 120.751 135.296 120.156 134.855C119.606 134.455 119.091 134.065 118.633 133.711C117.706 132.989 116.997 132.371 116.516 131.925C116.035 131.479 115.783 131.227 115.806 131.192C115.829 131.158 116.951 132.028 118.885 133.367C119.966 134.181 121.115 134.901 122.319 135.519C122.976 135.865 123.738 135.959 124.459 135.782C124.82 135.652 125.138 135.426 125.382 135.13C125.626 134.834 125.785 134.478 125.844 134.1C125.99 133.325 125.89 132.525 125.558 131.81C125.229 131.096 124.847 130.407 124.414 129.75L122.273 126.316C121.537 125.224 120.894 124.071 120.35 122.871Z" fill="#E9C46A"/>
<path d="M143.63 125.356C143.385 123.865 143.487 122.338 143.927 120.892C144.184 119.401 144.792 117.993 145.701 116.783C145.862 116.863 145.072 118.683 144.557 121.03C144.042 123.376 143.813 125.356 143.63 125.356Z" fill="#E9C46A"/>
<path d="M154.891 131.444C152.271 128.908 148.971 127.186 145.391 126.488C141.827 125.802 138.18 125.663 134.574 126.076C131.69 126.339 128.382 127.083 127.077 129.67C125.772 132.257 127.352 135.759 129.904 137.282C132.457 138.804 135.627 138.873 138.615 138.609C141.602 138.346 144.578 137.785 147.531 138.243" fill="#E9C46A"/>
<path d="M147.538 138.243C147.538 138.243 146.737 138.163 145.249 138.243C143.215 138.332 141.186 138.523 139.171 138.816C137.756 138.996 136.327 139.058 134.902 138.999C133.24 138.942 131.609 138.532 130.117 137.797C128.453 136.92 127.184 135.443 126.569 133.665C126.242 132.716 126.171 131.697 126.363 130.712C126.607 129.696 127.154 128.778 127.931 128.079C129.508 126.86 131.404 126.125 133.391 125.962C135.18 125.751 136.98 125.644 138.782 125.641C141.847 125.585 144.9 126.046 147.813 127.003C149.772 127.662 151.604 128.653 153.227 129.934C153.67 130.284 154.087 130.667 154.474 131.078C154.62 131.21 154.747 131.36 154.852 131.525C154.852 131.525 154.257 130.987 153.089 130.14C151.44 128.954 149.613 128.038 147.675 127.427C144.801 126.542 141.8 126.132 138.793 126.214C137.014 126.233 135.237 126.352 133.471 126.568C131.602 126.718 129.817 127.406 128.332 128.549C127.648 129.153 127.165 129.952 126.947 130.838C126.768 131.719 126.827 132.631 127.118 133.482C127.681 135.127 128.847 136.497 130.38 137.316C131.807 138.02 133.369 138.41 134.959 138.461C136.356 138.538 137.757 138.503 139.148 138.358C141.182 138.092 143.232 137.959 145.283 137.957C145.839 137.982 146.393 138.036 146.943 138.117C147.146 138.13 147.347 138.172 147.538 138.243Z" fill="#E9C46A"/>
<path d="M120.562 123.205C123.55 127.783 126.183 132.728 128.701 137.535C129.302 139.007 130.291 140.289 131.562 141.244C132.638 141.908 135.305 140.706 136.507 140.294L128.3 121.637" fill="#E9C46A"/>
<path d="M128.3 121.637C128.587 122.074 128.832 122.538 129.033 123.022L130.841 126.936C132.363 130.256 134.447 134.948 136.77 140.179L136.907 140.465L136.598 140.58C135.717 140.889 134.767 141.29 133.737 141.553C133.324 141.655 132.903 141.717 132.478 141.736C132.254 141.747 132.031 141.724 131.814 141.667C131.588 141.612 131.376 141.506 131.196 141.358C130.535 140.882 129.972 140.284 129.536 139.596C128.701 138.268 128.105 136.94 127.43 135.715C126.148 133.232 124.969 131.011 123.939 129.157C122.909 127.303 122.062 125.826 121.455 124.807C121.121 124.294 120.823 123.759 120.562 123.205C120.974 123.663 121.338 124.162 121.65 124.693C122.314 125.666 123.241 127.119 124.305 128.951C125.37 130.782 126.595 132.98 127.922 135.452C128.598 136.677 129.227 138.027 130.028 139.275C130.426 139.896 130.935 140.439 131.528 140.878C131.844 141.042 132.192 141.135 132.548 141.151C132.904 141.167 133.259 141.105 133.588 140.969C134.561 140.729 135.488 140.34 136.404 140.019L136.198 140.454C133.909 135.177 131.871 130.496 130.475 127.131L128.827 123.148C128.607 122.66 128.431 122.155 128.3 121.637Z" fill="#E9C46A"/>
<path d="M126.086 116.084C128.719 122.7 131.355 129.312 133.995 135.92C134.476 137.358 135.196 138.704 136.124 139.903C136.593 140.498 137.203 140.968 137.898 141.269C138.593 141.571 139.352 141.695 140.107 141.631C142.168 141.334 143.541 139.148 143.621 137.053C143.558 134.963 143.051 132.911 142.133 131.032C139.768 124.999 137.874 118.792 136.468 112.467" fill="#E9C46A"/>
<path d="M136.469 112.48C136.548 112.678 136.614 112.88 136.663 113.087C136.789 113.545 136.938 114.129 137.132 114.838C137.545 116.361 138.14 118.558 138.975 121.248C139.811 123.938 140.887 127.109 142.249 130.565C143.093 132.376 143.652 134.307 143.909 136.288C143.984 137.376 143.775 138.465 143.302 139.447C142.818 140.474 141.975 141.288 140.933 141.737C140.391 141.935 139.812 142.013 139.237 141.965C138.662 141.918 138.104 141.746 137.602 141.462C136.662 140.939 135.874 140.182 135.313 139.264C134.367 137.537 133.566 135.734 132.92 133.873C131.57 130.439 130.356 127.303 129.315 124.659C128.273 122.015 127.529 119.966 126.934 118.421L126.304 116.716C126.223 116.517 126.165 116.31 126.133 116.097C126.249 116.277 126.345 116.469 126.419 116.67L127.152 118.329C127.781 119.863 128.651 121.958 129.704 124.499C130.757 127.04 131.993 130.222 133.435 133.656C134.08 135.473 134.872 137.234 135.805 138.921C136.324 139.759 137.054 140.446 137.922 140.912C138.351 141.153 138.826 141.299 139.315 141.341C139.805 141.382 140.298 141.318 140.761 141.153C141.674 140.755 142.408 140.033 142.821 139.127C143.252 138.238 143.441 137.251 143.371 136.265C143.117 134.361 142.58 132.506 141.78 130.76C140.44 127.326 139.399 124.064 138.62 121.363C137.842 118.661 137.293 116.418 136.949 114.884C136.789 114.106 136.663 113.511 136.595 113.099C136.521 112.9 136.478 112.692 136.469 112.48Z" fill="#E9C46A"/>
<path d="M126.719 162.591C126.719 162.591 108.612 215.998 107.891 218.608C107.17 221.217 111.473 240.298 119.337 244.819C127.2 249.34 142.458 230.523 144.358 223.61C146.258 216.696 144.358 205.021 144.358 205.021L156.571 159.02" fill="#E9C46A"/>
<path d="M144.355 154.292C143.777 154.366 143.19 154.291 142.649 154.075C141.313 153.659 140.085 152.951 139.055 152.003C138.012 151.053 137.198 149.879 136.675 148.569C136.408 148.05 136.281 147.47 136.308 146.887C137.063 148.619 138.13 150.199 139.456 151.545C140.903 152.759 142.565 153.69 144.355 154.292Z" fill="#E9C46A"/>
<path d="M469.642 413.122C469.642 413.294 368.791 413.431 244.407 413.431C120.023 413.431 19.1484 413.294 19.1484 413.122C19.1484 412.95 119.988 412.824 244.407 412.824C368.826 412.824 469.642 412.962 469.642 413.122Z" fill="#3B4D60"/>
<path d="M174.514 30.1367H46.055C42.7109 30.1367 40 32.8476 40 36.1917V71.8118C40 75.1559 42.7109 77.8668 46.055 77.8668H174.514C177.858 77.8668 180.569 75.1559 180.569 71.8118V36.1917C180.569 32.8476 177.858 30.1367 174.514 30.1367Z" fill="#E76F51"/>
<path d="M60.9019 63.4122C60.1659 63.4176 59.5036 63.2945 58.9151 63.0429C58.3371 62.7805 57.8811 62.4212 57.5471 61.9649C57.2129 61.4981 57.0383 60.9607 57.0231 60.3528L58.5751 60.3413C58.6323 60.8636 58.8489 61.3046 59.2249 61.6645C59.6115 62.0137 60.1674 62.1856 60.8928 62.1802C61.5861 62.1751 62.1288 62.0004 62.5209 61.6561C62.9236 61.3012 63.123 60.8517 63.119 60.3077C63.1158 59.881 62.9959 59.5352 62.7593 59.2703C62.5226 59.0054 62.2278 58.8049 61.8748 58.6688C61.5218 58.5328 61.046 58.387 60.4475 58.2314C59.7101 58.0448 59.1167 57.8572 58.6673 57.6685C58.2286 57.4798 57.8477 57.1839 57.5247 56.781C57.2123 56.3673 57.0535 55.8138 57.0484 55.1204C57.0439 54.5125 57.1946 53.9727 57.5005 53.5011C57.8063 53.0295 58.2356 52.6636 58.7884 52.4035C59.3518 52.1433 59.9962 52.0106 60.7215 52.0052C61.7668 51.9975 62.622 52.2525 63.2872 52.7702C63.9631 53.2879 64.3468 53.9784 64.4386 54.8418L62.8386 54.8536C62.7821 54.4273 62.5554 54.0557 62.1583 53.7386C61.7612 53.4109 61.2374 53.2494 60.5867 53.2542C59.9787 53.2587 59.4839 53.4224 59.1023 53.7452C58.7206 54.0574 58.5318 54.4961 58.536 55.0614C58.539 55.4668 58.6535 55.7966 58.8794 56.0509C59.1159 56.3052 59.4 56.5004 59.7317 56.6366C60.074 56.7621 60.5497 56.9079 61.159 57.0741C61.8965 57.2713 62.4899 57.4696 62.9394 57.6689C63.3888 57.8576 63.7751 58.1588 64.0982 58.5724C64.4211 58.9753 64.5852 59.5288 64.5904 60.2328C64.5945 60.7768 64.4543 61.2898 64.1698 61.7719C63.8854 62.2541 63.4616 62.6465 62.8985 62.9494C62.3354 63.2522 61.6698 63.4065 60.9019 63.4122ZM74.7204 58.4778C74.7224 58.7551 74.7086 59.0486 74.6789 59.3581L67.6711 59.41C67.7308 60.2736 68.0291 60.9487 68.5661 61.4354C69.1136 61.9114 69.7714 62.1465 70.5394 62.1408C71.1687 62.1362 71.6903 61.9883 72.1041 61.6972C72.5286 61.3954 72.8243 60.9986 72.9913 60.5066L74.5593 60.495C74.3309 61.3394 73.8666 62.0309 73.1666 62.5694C72.4665 63.0973 71.5938 63.3651 70.5485 63.3728C69.7165 63.379 68.9685 63.1978 68.3044 62.8294C67.651 62.4609 67.1351 61.9367 66.7567 61.2568C66.3783 60.5662 66.1857 59.7676 66.179 58.861C66.1723 57.9544 66.3477 57.1584 66.7053 56.473C67.0629 55.7877 67.5657 55.2613 68.2137 54.8938C68.8722 54.5156 69.6282 54.3234 70.4815 54.317C71.3134 54.3109 72.0508 54.4868 72.6934 54.8447C73.3361 55.2026 73.8305 55.7003 74.1765 56.3378C74.5332 56.9645 74.7144 57.6778 74.7204 58.4778ZM73.2142 58.1849C73.2101 57.6303 73.0839 57.1565 72.8356 56.7637C72.5873 56.3602 72.2491 56.0587 71.8209 55.8592C71.4033 55.6489 70.9386 55.5457 70.4266 55.5495C69.6906 55.5549 69.063 55.7942 68.5438 56.2674C68.0353 56.7405 67.7468 57.3934 67.6783 58.2259L73.2142 58.1849ZM78.0455 51.333L78.1331 63.1727L76.6771 63.1834L76.5895 51.3438L78.0455 51.333ZM88.5794 58.3753C88.5814 58.6526 88.5676 58.946 88.5379 59.2556L81.5301 59.3074C81.5898 60.171 81.8881 60.8462 82.4251 61.3329C82.9726 61.8088 83.6304 62.044 84.3983 62.0383C85.0277 62.0336 85.5493 61.8858 85.9631 61.5947C86.3876 61.2929 86.6833 60.896 86.8503 60.4041L88.4183 60.3925C88.1899 61.2369 87.7256 61.9283 87.0256 62.4669C86.3255 62.9947 85.4528 63.2625 84.4075 63.2703C83.5755 63.2764 82.8275 63.0953 82.1634 62.7268C81.51 62.3583 80.9941 61.8341 80.6157 61.1543C80.2373 60.4637 80.0447 59.6651 80.038 58.7585C80.0313 57.8518 80.2067 57.0558 80.5643 56.3705C80.9219 55.6852 81.4247 55.1588 82.0727 54.7913C82.7312 54.4131 83.4872 54.2208 84.3405 54.2145C85.1724 54.2084 85.9098 54.3842 86.5524 54.7422C87.1951 55.1001 87.6895 55.5978 88.0355 56.2352C88.3922 56.8619 88.5734 57.5753 88.5794 58.3753ZM87.0732 58.0824C87.0691 57.5277 86.9429 57.054 86.6946 56.6612C86.4463 56.2576 86.1081 55.9561 85.6799 55.7566C85.2623 55.5464 84.7976 55.4432 84.2856 55.4469C83.5496 55.4524 82.922 55.6917 82.4028 56.1649C81.8943 56.638 81.6058 57.2908 81.5373 58.1234L87.0732 58.0824ZM89.9596 58.6851C89.9529 57.7784 90.1283 56.9878 90.486 56.3131C90.8436 55.6278 91.3411 55.0961 91.9783 54.718C92.6262 54.3399 93.3661 54.1477 94.1981 54.1416C95.2754 54.1336 96.1626 54.3884 96.8598 54.9059C97.5676 55.4233 98.037 56.1452 98.2679 57.0715L96.6999 57.0831C96.5466 56.5509 96.2502 56.1318 95.8106 55.8257C95.3816 55.5195 94.8472 55.3688 94.2072 55.3735C93.3752 55.3797 92.7054 55.6727 92.1976 56.2524C91.6898 56.8215 91.4398 57.6287 91.4475 58.674C91.4553 59.73 91.7174 60.5441 92.2336 61.1163C92.7499 61.6885 93.424 61.9715 94.256 61.9654C94.8959 61.9606 95.4282 61.8073 95.8526 61.5055C96.277 61.2037 96.5672 60.7749 96.7231 60.2191L98.2911 60.2075C98.063 61.1052 97.599 61.8286 96.8991 62.3778C96.199 62.9163 95.321 63.1895 94.2651 63.1973C93.4331 63.2035 92.6904 63.0223 92.037 62.6538C91.3942 62.2852 90.889 61.7609 90.5213 61.081C90.1536 60.401 89.9664 59.6024 89.9596 58.6851ZM101.975 55.4281L102.013 60.5959C102.016 61.0226 102.109 61.3259 102.292 61.5059C102.474 61.6752 102.789 61.7582 103.237 61.7549L104.309 61.747L104.318 62.9789L103.007 62.9886C102.196 62.9946 101.587 62.8125 101.178 62.4422C100.77 62.0718 100.563 61.46 100.557 60.6067L100.519 55.4388L99.3826 55.4473L99.3737 54.2473L100.51 54.2389L100.493 52.0309L101.949 52.0202L101.966 54.2281L104.254 54.2112L104.262 55.4111L101.975 55.4281ZM117.746 54.9914C117.752 55.9194 117.438 56.695 116.803 57.3184C116.178 57.9311 115.215 58.2422 113.914 58.2518L111.77 58.2677L111.804 62.9236L110.348 62.9343L110.266 51.7826L113.865 51.756C115.124 51.7467 116.081 52.0436 116.736 52.6468C117.402 53.2499 117.738 54.0314 117.746 54.9914ZM113.905 57.0519C114.715 57.0459 115.311 56.8654 115.693 56.5106C116.074 56.1558 116.262 55.653 116.258 55.0024C116.247 53.6264 115.453 52.9443 113.874 52.956L111.73 52.9718L111.761 57.0677L113.905 57.0519ZM121.015 55.5112C121.267 55.008 121.627 54.616 122.094 54.3352C122.572 54.0543 123.153 53.9113 123.835 53.9063L123.846 55.4103L123.462 55.4131C121.83 55.4252 121.021 56.3165 121.034 58.0871L121.069 62.855L119.613 62.8658L119.549 54.098L121.005 54.0872L121.015 55.5112ZM129.407 62.9373C128.586 62.9434 127.838 62.7623 127.163 62.3939C126.499 62.0255 125.972 61.5014 125.583 60.8216C125.205 60.131 125.012 59.3324 125.005 58.4258C124.999 57.5298 125.185 56.7391 125.564 56.0536C125.953 55.3573 126.483 54.8254 127.152 54.4578C127.821 54.0795 128.572 53.8873 129.404 53.8811C130.236 53.8749 130.989 54.056 131.664 54.4244C132.339 54.7821 132.871 55.3008 133.26 55.9806C133.659 56.6604 133.863 57.4535 133.869 58.3602C133.876 59.2668 133.679 60.0683 133.279 60.7646C132.889 61.4502 132.355 61.9822 131.675 62.3605C130.995 62.7389 130.239 62.9312 129.407 62.9373ZM129.398 61.6574C129.92 61.6535 130.41 61.5272 130.867 61.2785C131.324 61.0298 131.689 60.659 131.963 60.1663C132.247 59.6736 132.386 59.0752 132.381 58.3712C132.376 57.6672 132.233 57.0709 131.952 56.5823C131.671 56.0937 131.306 55.7337 130.856 55.5024C130.406 55.2604 129.92 55.1413 129.397 55.1452C128.864 55.1491 128.374 55.2754 127.928 55.5241C127.493 55.762 127.143 56.1272 126.88 56.6198C126.617 57.1125 126.488 57.7108 126.493 58.4148C126.499 59.1294 126.631 59.7311 126.891 60.2199C127.161 60.7085 127.516 61.0739 127.955 61.316C128.394 61.5474 128.875 61.6612 129.398 61.6574ZM136.525 52.5484C136.247 52.5504 136.012 52.4562 135.819 52.2656C135.636 52.0749 135.543 51.841 135.541 51.5636C135.539 51.2863 135.628 51.051 135.808 50.8576C135.999 50.6642 136.233 50.5665 136.51 50.5644C136.787 50.5624 137.017 50.6567 137.2 50.8473C137.394 51.0379 137.491 51.2719 137.493 51.5492C137.495 51.8265 137.401 52.0619 137.211 52.2553C137.031 52.4486 136.802 52.5463 136.525 52.5484ZM137.334 64.6387C137.34 65.4174 137.147 65.9895 136.755 66.3551C136.363 66.7206 135.788 66.9062 135.031 66.9118L134.183 66.9181L134.174 65.6861L134.782 65.6816C135.187 65.6786 135.469 65.5965 135.628 65.4354C135.797 65.2741 135.881 65.0015 135.878 64.6175L135.799 53.9778L137.255 53.967L137.334 64.6387ZM147.75 57.9375C147.752 58.2148 147.738 58.5083 147.708 58.8178L140.7 58.8697C140.76 59.7332 141.058 60.4084 141.595 60.8951C142.143 61.3711 142.801 61.6062 143.569 61.6005C144.198 61.5959 144.72 61.448 145.133 61.1569C145.558 60.8551 145.854 60.4582 146.021 59.9663L147.589 59.9547C147.36 60.7991 146.896 61.4906 146.196 62.0291C145.496 62.5569 144.623 62.8247 143.578 62.8325C142.746 62.8386 141.998 62.6575 141.334 62.2891C140.68 61.9206 140.164 61.3964 139.786 60.7165C139.408 60.0259 139.215 59.2273 139.208 58.3207C139.202 57.414 139.377 56.6181 139.735 55.9327C140.092 55.2474 140.595 54.721 141.243 54.3535C141.901 53.9753 142.657 53.783 143.511 53.7767C144.343 53.7706 145.08 53.9465 145.723 54.3044C146.365 54.6623 146.86 55.16 147.206 55.7974C147.562 56.4242 147.744 57.1375 147.75 57.9375ZM146.243 57.6446C146.239 57.09 146.113 56.6162 145.865 56.2234C145.617 55.8199 145.278 55.5184 144.85 55.3189C144.433 55.1086 143.968 55.0054 143.456 55.0092C142.72 55.0146 142.092 55.2539 141.573 55.7271C141.065 56.2002 140.776 56.853 140.708 57.6856L146.243 57.6446ZM149.13 58.2473C149.123 57.3406 149.299 56.55 149.656 55.8753C150.014 55.19 150.511 54.6583 151.149 54.2802C151.796 53.9021 152.536 53.71 153.368 53.7038C154.446 53.6958 155.333 53.9506 156.03 54.4681C156.738 54.9856 157.207 55.7074 157.438 56.6338L155.87 56.6454C155.717 56.1132 155.42 55.694 154.981 55.3879C154.552 55.0817 154.017 54.931 153.377 54.9358C152.545 54.9419 151.876 55.2349 151.368 55.8147C150.86 56.3838 150.61 57.191 150.618 58.2363C150.626 59.2922 150.888 60.1063 151.404 60.6785C151.92 61.2507 152.594 61.5337 153.426 61.5276C154.066 61.5228 154.598 61.3696 155.023 61.0678C155.447 60.7659 155.737 60.3371 155.893 59.7813L157.461 59.7697C157.233 60.6674 156.769 61.3908 156.069 61.94C155.369 62.4786 154.491 62.7517 153.435 62.7595C152.603 62.7657 151.861 62.5845 151.207 62.216C150.564 61.8474 150.059 61.3232 149.692 60.6432C149.324 59.9632 149.137 59.1646 149.13 58.2473ZM161.145 54.9903L161.183 60.1582C161.186 60.5848 161.279 60.8881 161.462 61.0681C161.644 61.2374 161.96 61.3204 162.408 61.3171L163.48 61.3092L163.489 62.5412L162.177 62.5509C161.366 62.5569 160.757 62.3747 160.349 62.0044C159.941 61.6341 159.733 61.0222 159.727 60.1689L159.689 55.0011L158.553 55.0095L158.544 53.8095L159.68 53.8011L159.664 51.5932L161.12 51.5824L161.136 53.7903L163.424 53.7734L163.433 54.9734L161.145 54.9903Z" fill="white"/>
<path d="M181.428 77.9919H57.8905C56.1893 77.9738 54.5637 77.2861 53.366 76.0777C52.1683 74.8693 51.4951 73.2376 51.4922 71.5363V36.5571C51.4952 34.846 52.1763 33.2057 53.3863 31.9957C54.5963 30.7857 56.2366 30.1046 57.9478 30.1016H181.428C183.139 30.1046 184.779 30.7857 185.989 31.9957C187.199 33.2057 187.88 34.846 187.883 36.5571V71.5363C187.88 73.2475 187.199 74.8877 185.989 76.0977C184.779 77.3077 183.139 77.9888 181.428 77.9919ZM57.8905 31.2462C56.4929 31.2642 55.1584 31.8313 54.1753 32.8251C53.1923 33.8188 52.6397 35.1594 52.6368 36.5571V71.5363C52.6368 72.9449 53.1963 74.2957 54.1923 75.2917C55.1883 76.2877 56.5392 76.8473 57.9478 76.8473H181.428C182.836 76.8473 184.187 76.2877 185.183 75.2917C186.179 74.2957 186.739 72.9449 186.739 71.5363V36.5571C186.736 35.1495 186.175 33.8004 185.18 32.8051C184.185 31.8097 182.835 31.2492 181.428 31.2462H57.8905Z" fill="#E76F51"/>
<path d="M182.678 76.939C181.727 76.0696 180.916 75.0579 180.274 73.9402C179.466 72.9357 178.817 71.8121 178.352 70.6094C179.305 71.4801 180.119 72.4914 180.767 73.6082C181.575 74.6113 182.22 75.7353 182.678 76.939Z" fill="#E76F51"/>
<path d="M187.315 40.0484C185.897 38.6077 184.628 37.0278 183.527 35.3326C182.267 33.7539 181.16 32.06 180.219 30.2734C181.637 31.7141 182.906 33.294 184.007 34.9892C185.271 36.5644 186.379 38.2588 187.315 40.0484Z" fill="#E76F51"/>
<path d="M186.825 70.632C186.653 70.7579 184.936 68.3428 183.059 65.115C182.109 63.5355 181.273 62.0933 180.69 61.0402C180.326 60.4925 180.027 59.9049 179.797 59.289C179.969 59.1745 181.685 61.6469 183.563 64.806C184.513 66.3855 185.348 67.8277 185.943 68.8808C186.307 69.4268 186.603 70.0148 186.825 70.632Z" fill="#E76F51"/>
<path d="M187.351 60.6289C187.18 60.7548 185.348 58.0879 183.322 54.6884C182.304 52.9829 181.399 51.4377 180.758 50.3045C180.374 49.7137 180.052 49.0846 179.797 48.4274C179.969 48.3129 181.8 50.9799 183.837 54.3793C184.856 56.0734 185.749 57.63 186.39 58.7517C186.777 59.3408 187.1 59.9702 187.351 60.6289Z" fill="#E76F51"/>
<path d="M187.335 50.7503C187.163 50.8762 185.32 48.1864 183.283 44.7754C182.253 43.07 181.348 41.5019 180.707 40.3687C180.315 39.7764 179.989 39.1431 179.734 38.4801C179.906 38.3656 181.749 41.044 183.786 44.4664C184.816 46.1718 185.721 47.7285 186.362 48.8731C186.757 49.4592 187.084 50.0891 187.335 50.7503Z" fill="#E76F51"/>
<path d="M36.4893 37.6681C34.0274 37.3355 31.5967 36.8034 29.221 36.0771C26.794 35.5418 24.4134 34.8146 22.1016 33.9023C24.5634 34.235 26.9941 34.767 29.3698 35.4933C31.7974 36.0264 34.1782 36.7537 36.4893 37.6681Z" fill="#3B4D60"/>
<path d="M37.8712 29.0721C35.1839 26.2714 32.6432 23.3334 30.2595 20.2701C27.72 17.3451 25.3359 14.2886 23.1172 11.1133C25.8014 13.9209 28.3418 16.8625 30.7288 19.9267C33.2617 22.8533 35.6455 25.9056 37.8712 29.0721Z" fill="#3B4D60"/>
<path d="M48.4891 24.9286C47.6636 23.0091 47.1348 20.9752 46.921 18.8966C46.5072 16.8475 46.4222 14.7457 46.6692 12.6699C46.8409 12.6699 47.0012 15.4399 47.5048 18.8165C48.0084 22.193 48.6608 24.8485 48.4891 24.9286Z" fill="#3B4D60"/>
</svg>
