<svg width="12" height="8" viewBox="0 0 12 8" fill="none" xmlns="http://www.w3.org/2000/svg">
<path d="M5.99917 7.07677C5.89917 7.07677 5.80751 7.0601 5.72417 7.02677C5.64084 6.99343 5.55751 6.9351 5.47417 6.85177L0.524173 1.90177C0.390839 1.76843 0.328339 1.58927 0.336673 1.36427C0.345006 1.13927 0.41584 0.960099 0.549173 0.826766C0.71584 0.660099 0.895006 0.589266 1.08667 0.614266C1.27834 0.639266 1.44917 0.718433 1.59917 0.851767L5.99917 5.25177L10.3992 0.851767C10.5325 0.718433 10.7117 0.643433 10.9367 0.626766C11.1617 0.610099 11.3408 0.6851 11.4742 0.851767C11.6408 0.9851 11.7117 1.1601 11.6867 1.37677C11.6617 1.59343 11.5825 1.77677 11.4492 1.92677L6.52417 6.85177C6.44084 6.9351 6.35751 6.99343 6.27417 7.02677C6.19084 7.0601 6.09917 7.07677 5.99917 7.07677Z" fill="#3B4D60"/>
</svg>
