<svg width="24" height="24" viewBox="0 0 24 24" fill="none" xmlns="http://www.w3.org/2000/svg">
<path d="M22.1492 9.65625H16.1492C16.0461 9.65625 15.9617 9.74062 15.9617 9.84375V10.9688C15.9617 11.0719 16.0461 11.1562 16.1492 11.1562H22.1492C22.2524 11.1562 22.3367 11.0719 22.3367 10.9688V9.84375C22.3367 9.74062 22.2524 9.65625 22.1492 9.65625ZM19.0086 12.8438H16.1492C16.0461 12.8438 15.9617 12.9281 15.9617 13.0312V14.1562C15.9617 14.2594 16.0461 14.3438 16.1492 14.3438H19.0086C19.1117 14.3438 19.1961 14.2594 19.1961 14.1562V13.0312C19.1961 12.9281 19.1117 12.8438 19.0086 12.8438ZM11.1875 7.55859H10.1727C10.0274 7.55859 9.91016 7.67578 9.91016 7.82109V13.6336C9.91016 13.718 9.95 13.7953 10.018 13.8445L13.5078 16.3898C13.625 16.4742 13.7891 16.4508 13.8735 16.3336L14.4758 15.5109V15.5086C14.5602 15.3914 14.5344 15.2273 14.4172 15.143L11.4477 12.9961V7.82109C11.45 7.67578 11.3305 7.55859 11.1875 7.55859Z" fill="#264653"/>
<path d="M18.8625 15.7929H17.5078C17.3766 15.7929 17.2524 15.8609 17.182 15.9734C16.8844 16.4445 16.5375 16.8804 16.1391 17.2788C15.4524 17.9656 14.6531 18.5046 13.7649 18.8796C12.8438 19.2687 11.8664 19.4656 10.8586 19.4656C9.84845 19.4656 8.87111 19.2687 7.95236 18.8796C7.06408 18.5046 6.26486 17.9656 5.57814 17.2788C4.89142 16.5921 4.35236 15.7929 3.97736 14.9046C3.5883 13.9859 3.39142 13.0085 3.39142 11.9984C3.39142 10.9882 3.5883 10.0132 3.97736 9.09212C4.35236 8.20384 4.89142 7.40462 5.57814 6.7179C6.26486 6.03118 7.06408 5.49212 7.95236 5.11712C8.87111 4.72806 9.8508 4.53118 10.8586 4.53118C11.8688 4.53118 12.8461 4.72806 13.7649 5.11712C14.6531 5.49212 15.4524 6.03118 16.1391 6.7179C16.5375 7.11634 16.8844 7.55228 17.182 8.02337C17.2524 8.13587 17.3766 8.20384 17.5078 8.20384H18.8625C19.0242 8.20384 19.1274 8.03509 19.0547 7.89212C17.5266 4.85228 14.4281 2.8765 10.9688 2.83665C5.90392 2.77337 1.69689 6.91947 1.68752 11.9796C1.67814 17.0492 5.78673 21.1624 10.8563 21.1624C14.3602 21.1624 17.5102 19.1796 19.0547 16.1046C19.1274 15.9617 19.0219 15.7929 18.8625 15.7929Z" fill="#264653"/>
</svg>
