<svg width="16" height="16" viewBox="0 0 16 16" fill="none" xmlns="http://www.w3.org/2000/svg">
<path d="M7.63635 0C3.41815 0 0 3.41819 0 7.63635C0 11.8545 3.41815 15.2727 7.63635 15.2727C7.81819 15.2727 7.99635 15.2654 8.17454 15.2509C7.58516 14.4036 7.27035 13.3957 7.27274 12.3636C7.27298 11.0135 7.80942 9.71877 8.7641 8.7641C9.71877 7.80942 11.0135 7.27298 12.3636 7.27274C13.3957 7.27037 14.4036 7.58518 15.2509 8.17454C15.2654 7.99635 15.2727 7.81819 15.2727 7.63635C15.2727 3.41819 11.8546 0 7.63635 0ZM8.36365 7.63635C8.36364 7.82924 8.28701 8.01422 8.15062 8.15062C8.01422 8.28701 7.82924 8.36364 7.63635 8.36365H4.36363C4.17161 8.36233 3.9879 8.28513 3.85258 8.14888C3.71726 8.01263 3.64131 7.8284 3.64131 7.63637C3.64131 7.44434 3.71726 7.26011 3.85258 7.12386C3.9879 6.98761 4.17161 6.91041 4.36363 6.90909H6.90909V2.90911C6.90843 2.81318 6.92676 2.71807 6.96302 2.62926C6.99927 2.54045 7.05274 2.45968 7.12034 2.39162C7.18794 2.32355 7.26833 2.26954 7.3569 2.23268C7.44546 2.19581 7.54044 2.17684 7.63637 2.17684C7.7323 2.17684 7.82728 2.19581 7.91584 2.23268C8.00441 2.26954 8.0848 2.32355 8.1524 2.39162C8.22 2.45968 8.27347 2.54045 8.30972 2.62926C8.34598 2.71807 8.3643 2.81318 8.36365 2.90911V7.63635Z" fill="white"/>
</svg>
