<svg width="34" height="27" viewBox="0 0 34 27" fill="none" xmlns="http://www.w3.org/2000/svg">
<path d="M2.83203 26.8337C2.16536 26.8337 1.58203 26.5837 1.08203 26.0837C0.582031 25.5837 0.332031 25.0003 0.332031 24.3337V2.66699C0.332031 2.00033 0.582031 1.41699 1.08203 0.916992C1.58203 0.416992 2.16536 0.166992 2.83203 0.166992H31.1654C31.832 0.166992 32.4154 0.416992 32.9154 0.916992C33.4154 1.41699 33.6654 2.00033 33.6654 2.66699V24.3337C33.6654 25.0003 33.4154 25.5837 32.9154 26.0837C32.4154 26.5837 31.832 26.8337 31.1654 26.8337H2.83203ZM2.83203 24.3337H22.0404V17.542H2.83203V24.3337ZM24.5404 24.3337H31.1654V8.25033H24.5404V24.3337ZM2.83203 15.042H22.0404V8.25033H2.83203V15.042Z" fill="#BCC2C5"/>
</svg>
