<svg width="16" height="16" viewBox="0 0 16 16" fill="none" xmlns="http://www.w3.org/2000/svg">
<g clip-path="url(#clip0_3957_21533)">
<path d="M0.666667 3.16635H2.49067C2.63376 3.69284 2.94612 4.15761 3.37955 4.48897C3.81299 4.82033 4.34341 4.99986 4.889 4.99986C5.43459 4.99986 5.96501 4.82033 6.39845 4.48897C6.83188 4.15761 7.14424 3.69284 7.28733 3.16635H15.3333C15.5101 3.16635 15.6797 3.09611 15.8047 2.97109C15.9298 2.84606 16 2.6765 16 2.49968C16 2.32287 15.9298 2.1533 15.8047 2.02828C15.6797 1.90326 15.5101 1.83302 15.3333 1.83302H7.28733C7.14424 1.30653 6.83188 0.841755 6.39845 0.510397C5.96501 0.179039 5.43459 -0.000488281 4.889 -0.000488281C4.34341 -0.000488281 3.81299 0.179039 3.37955 0.510397C2.94612 0.841755 2.63376 1.30653 2.49067 1.83302H0.666667C0.489856 1.83302 0.320286 1.90326 0.195262 2.02828C0.0702379 2.1533 0 2.32287 0 2.49968C0 2.6765 0.0702379 2.84606 0.195262 2.97109C0.320286 3.09611 0.489856 3.16635 0.666667 3.16635ZM4.88867 1.33302C5.11941 1.33302 5.34497 1.40144 5.53683 1.52964C5.72869 1.65783 5.87822 1.84004 5.96653 2.05322C6.05483 2.2664 6.07793 2.50098 6.03292 2.72729C5.9879 2.9536 5.87679 3.16148 5.71362 3.32464C5.55046 3.4878 5.34258 3.59892 5.11627 3.64393C4.88996 3.68895 4.65538 3.66585 4.4422 3.57754C4.22902 3.48924 4.04681 3.33971 3.91862 3.14785C3.79042 2.95599 3.722 2.73043 3.722 2.49968C3.72235 2.19037 3.84538 1.89383 4.0641 1.67512C4.28281 1.4564 4.57936 1.33337 4.88867 1.33302Z" fill="#3B4D60"/>
<path d="M15.3333 7.33318H13.5093C13.3665 6.80657 13.0542 6.34163 12.6208 6.01013C12.1874 5.67864 11.657 5.49902 11.1113 5.49902C10.5657 5.49902 10.0352 5.67864 9.60182 6.01013C9.16842 6.34163 8.85619 6.80657 8.71333 7.33318H0.666667C0.489856 7.33318 0.320286 7.40342 0.195262 7.52844C0.0702379 7.65347 0 7.82304 0 7.99985C0 8.17666 0.0702379 8.34623 0.195262 8.47125C0.320286 8.59627 0.489856 8.66651 0.666667 8.66651H8.71333C8.85619 9.19312 9.16842 9.65807 9.60182 9.98956C10.0352 10.3211 10.5657 10.5007 11.1113 10.5007C11.657 10.5007 12.1874 10.3211 12.6208 9.98956C13.0542 9.65807 13.3665 9.19312 13.5093 8.66651H15.3333C15.5101 8.66651 15.6797 8.59627 15.8047 8.47125C15.9298 8.34623 16 8.17666 16 7.99985C16 7.82304 15.9298 7.65347 15.8047 7.52844C15.6797 7.40342 15.5101 7.33318 15.3333 7.33318ZM11.1113 9.16651C10.8806 9.16651 10.655 9.09809 10.4632 8.96989C10.2713 8.8417 10.1218 8.65949 10.0335 8.44631C9.94517 8.23313 9.92207 7.99855 9.96708 7.77224C10.0121 7.54593 10.1232 7.33805 10.2864 7.17489C10.4495 7.01173 10.6574 6.90061 10.8837 6.8556C11.11 6.81058 11.3446 6.83368 11.5578 6.92199C11.771 7.01029 11.9532 7.15982 12.0814 7.35168C12.2096 7.54354 12.278 7.7691 12.278 7.99985C12.2776 8.30916 12.1546 8.6057 11.9359 8.82441C11.7172 9.04313 11.4206 9.16616 11.1113 9.16651Z" fill="#1E1E1E"/>
<path d="M15.3333 12.8335H7.28733C7.14424 12.307 6.83188 11.8422 6.39845 11.5109C5.96501 11.1795 5.43459 11 4.889 11C4.34341 11 3.81299 11.1795 3.37955 11.5109C2.94612 11.8422 2.63376 12.307 2.49067 12.8335H0.666667C0.489856 12.8335 0.320286 12.9037 0.195262 13.0288C0.0702379 13.1538 0 13.3234 0 13.5002C0 13.677 0.0702379 13.8466 0.195262 13.9716C0.320286 14.0966 0.489856 14.1668 0.666667 14.1668H2.49067C2.63376 14.6933 2.94612 15.1581 3.37955 15.4895C3.81299 15.8208 4.34341 16.0003 4.889 16.0003C5.43459 16.0003 5.96501 15.8208 6.39845 15.4895C6.83188 15.1581 7.14424 14.6933 7.28733 14.1668H15.3333C15.5101 14.1668 15.6797 14.0966 15.8047 13.9716C15.9298 13.8466 16 13.677 16 13.5002C16 13.3234 15.9298 13.1538 15.8047 13.0288C15.6797 12.9037 15.5101 12.8335 15.3333 12.8335ZM4.88867 14.6668C4.65792 14.6668 4.43236 14.5984 4.2405 14.4702C4.04864 14.342 3.89911 14.1598 3.81081 13.9466C3.72251 13.7335 3.6994 13.4989 3.74442 13.2726C3.78943 13.0463 3.90055 12.8384 4.06371 12.6752C4.22687 12.5121 4.43475 12.4009 4.66106 12.3559C4.88737 12.3109 5.12195 12.334 5.33513 12.4223C5.54831 12.5106 5.73052 12.6602 5.85871 12.852C5.98691 13.0439 6.05533 13.2694 6.05533 13.5002C6.0548 13.8094 5.93172 14.1059 5.71304 14.3245C5.49436 14.5432 5.19792 14.6663 4.88867 14.6668Z" fill="#1E1E1E"/>
</g>
<defs>
<clipPath id="clip0_3957_21533">
<rect width="16" height="16" fill="white"/>
</clipPath>
</defs>
</svg>
