<svg width="19" height="19" viewBox="0 0 19 19" fill="none" xmlns="http://www.w3.org/2000/svg">
<path d="M15.505 0.851567C16.4722 0.851567 17.2475 1.63025 17.2475 2.59751C17.2475 3.56477 16.4722 4.34002 15.505 4.34002C14.5377 4.34002 13.7617 3.56477 13.7617 2.59751C13.7617 2.53709 13.7647 2.47715 13.7706 2.41829C13.8593 1.53573 14.5982 0.851562 15.505 0.851562L15.505 0.851567Z" fill="white"/>
<path d="M9.5756 0.156254C10.9281 0.156254 12.0164 1.24728 12.0164 2.59976C12.0164 3.95223 10.9282 5.04059 9.5756 5.04059C8.22312 5.04059 7.13477 3.95235 7.13477 2.59976C7.13477 2.51521 7.13944 2.43128 7.14769 2.34907C7.27225 1.11478 8.30772 0.15625 9.57561 0.15625L9.5756 0.156254Z" fill="white"/>
<path d="M3.64561 0.851567C4.61287 0.851567 5.38888 1.63025 5.38888 2.59751C5.38888 3.56477 4.61283 4.34002 3.64561 4.34002C2.67839 4.34002 1.90234 3.56477 1.90234 2.59751C1.90234 2.53709 1.9053 2.47715 1.91122 2.41829C1.99997 1.53573 2.73881 0.851562 3.64564 0.851562L3.64561 0.851567Z" fill="white"/>
<path d="M9.57633 12.0156C9.46002 12.0156 9.34558 12.0222 9.23238 12.0332C9.18629 12.0377 9.14161 12.0462 9.09614 12.0524C9.02934 12.0616 8.96254 12.0701 8.89714 12.0831C8.8386 12.0946 8.78161 12.1102 8.72416 12.1246C8.67542 12.1368 8.62622 12.1478 8.57842 12.162C8.51442 12.1812 8.45214 12.2042 8.3897 12.2268C8.34875 12.2416 8.30733 12.2548 8.26701 12.271C8.20971 12.2942 8.15396 12.3205 8.09806 12.3467C8.05369 12.3675 8.00869 12.3875 7.96525 12.41C7.91122 12.4382 7.8589 12.4691 7.80658 12.4999C7.76625 12.5237 7.72593 12.5475 7.68669 12.5728C7.63344 12.6072 7.58174 12.6433 7.53067 12.6805C7.49532 12.706 7.45998 12.7319 7.42572 12.7588C7.37387 12.7995 7.32327 12.842 7.27391 12.8854C7.24308 12.9125 7.21303 12.9399 7.18329 12.9679C7.13487 13.0136 7.08784 13.0606 7.04222 13.1088C7.01341 13.1394 6.98539 13.1708 6.95783 13.2023C6.91345 13.2526 6.87032 13.304 6.82906 13.3569C6.80632 13.3859 6.78468 13.4157 6.76288 13.4455C6.71944 13.5048 6.67662 13.5651 6.63691 13.6274C6.61978 13.6541 6.60359 13.6817 6.58724 13.7091C6.54831 13.7737 6.51079 13.8393 6.47607 13.9067C6.46003 13.9378 6.4457 13.9702 6.43045 14.002C6.3993 14.0675 6.36847 14.1332 6.34122 14.201C6.32721 14.236 6.31538 14.2723 6.30245 14.3078C6.27723 14.3771 6.25247 14.4464 6.23161 14.5177C6.22336 14.5456 6.21728 14.574 6.20981 14.6021C6.18801 14.6841 6.16715 14.7665 6.15126 14.8507C6.14908 14.8618 6.14768 14.8732 6.14581 14.8842C6.12775 14.984 6.1128 15.0852 6.10346 15.188C6.09412 15.2923 6.08789 15.3979 6.08789 15.5047C6.08789 17.4352 7.64589 18.9933 9.57634 18.9933C11.5068 18.9933 13.0656 17.4352 13.0656 15.5047C13.0656 15.3956 13.0589 15.2878 13.0492 15.1811C13.0403 15.0857 13.026 14.9915 13.0097 14.8985C13.0069 14.8822 13.0053 14.8655 13.0022 14.8495C12.9844 14.7559 12.9617 14.664 12.9368 14.5736C12.9324 14.5577 12.929 14.5415 12.9245 14.5258C12.9005 14.4431 12.8719 14.3626 12.8421 14.2827C12.8329 14.2581 12.8245 14.2334 12.8149 14.2091C12.7853 14.1349 12.7518 14.0632 12.7174 13.9917C12.704 13.9638 12.6914 13.9355 12.6772 13.9079C12.6444 13.8442 12.6089 13.7827 12.5723 13.7214C12.552 13.6871 12.5324 13.6526 12.5109 13.6191C12.4745 13.5624 12.4354 13.5073 12.3959 13.453C12.3722 13.4204 12.3485 13.3879 12.3236 13.3563C12.2806 13.3011 12.2358 13.2471 12.1896 13.1948C12.1656 13.1679 12.1413 13.1412 12.1165 13.1151C12.0693 13.0648 12.0209 13.0159 11.9708 12.9686C11.9396 12.9391 11.9077 12.9103 11.8755 12.8821C11.8271 12.8396 11.7776 12.7984 11.727 12.7588C11.6944 12.7333 11.6609 12.7088 11.6275 12.6845C11.573 12.6448 11.518 12.6059 11.4613 12.5693C11.4266 12.5472 11.3911 12.5263 11.3556 12.5053C11.2989 12.4717 11.2419 12.4384 11.1834 12.408C11.1434 12.3873 11.1023 12.3686 11.0613 12.3493C11.0035 12.3221 10.9459 12.2951 10.8863 12.271C10.8444 12.254 10.801 12.24 10.7583 12.2247C10.6982 12.2031 10.6384 12.181 10.5771 12.1628C10.5268 12.1477 10.4751 12.136 10.4239 12.1232C10.3681 12.1094 10.3128 12.0943 10.2562 12.083C10.1908 12.0701 10.124 12.0616 10.0573 12.0524C10.0119 12.0461 9.96701 12.0377 9.92107 12.0332C9.80772 12.0222 9.69265 12.0156 9.57634 12.0156L9.57633 12.0156ZM11.1881 13.88C11.2854 13.8765 11.3797 13.9138 11.4484 13.983C11.5836 14.1189 11.5836 14.3388 11.4484 14.4747L9.47342 16.4495C9.42017 16.5023 9.3515 16.5364 9.27723 16.547C9.26758 16.5485 9.25777 16.5496 9.24796 16.5504C9.14893 16.5562 9.05208 16.5196 8.9817 16.4495L7.74865 15.2159C7.6831 15.1505 7.64619 15.0617 7.64619 14.9689C7.64619 14.8763 7.6831 14.7875 7.74865 14.722C7.81078 14.6591 7.89455 14.622 7.98299 14.6184C8.07937 14.6159 8.17264 14.6535 8.24052 14.722L9.22755 15.7092L10.9537 13.983C11.016 13.9202 11.0998 13.8835 11.1881 13.8801L11.1881 13.88Z" fill="white"/>
<path d="M9.57657 7.04688C10.4176 7.04688 11.2563 7.18997 11.9541 7.4584C12.0663 7.50184 12.1753 7.54824 12.2797 7.59807C12.31 7.61255 12.3387 7.62812 12.3683 7.64306C12.4578 7.68837 12.544 7.73602 12.6264 7.78616C12.6549 7.80344 12.6832 7.82088 12.7108 7.83863C12.8073 7.90122 12.8994 7.96584 12.9839 8.03482C12.9886 8.03856 12.9937 8.04198 12.9982 8.04572C13.0952 8.12575 13.1846 8.2103 13.2639 8.29843C13.343 8.3864 13.413 8.47765 13.4744 8.57294C13.4767 8.57667 13.4787 8.58072 13.4812 8.58446C13.5337 8.66729 13.5772 8.75402 13.6155 8.8434C13.6254 8.86707 13.6351 8.89089 13.6441 8.91487C13.6731 8.99163 13.6953 9.07182 13.7136 9.15403C13.7196 9.1819 13.7277 9.20869 13.7327 9.23718C13.7515 9.34524 13.7634 9.45672 13.7634 9.57506V14.8068H13.6762C13.3836 13.0767 12.0416 11.7017 10.322 11.3884C10.3094 11.3861 10.2964 11.3851 10.2838 11.383C10.1795 11.3649 10.0747 11.3481 9.96775 11.338C9.83929 11.3253 9.70881 11.3182 9.57677 11.3182C9.44396 11.3182 9.31347 11.3252 9.18439 11.338C9.07742 11.3479 8.97279 11.3649 8.86831 11.383C8.8557 11.3853 8.84277 11.3867 8.83016 11.389C7.10463 11.702 5.74673 13.0745 5.454 14.8068H5.39062V9.57505C5.39062 9.45687 5.40184 9.34523 5.42068 9.23716C5.42566 9.20774 5.43407 9.18002 5.44045 9.15137C5.45882 9.06978 5.48109 8.9899 5.5099 8.91361C5.51815 8.89134 5.52733 8.86939 5.53652 8.84759C5.57638 8.75401 5.62138 8.66308 5.67681 8.57651C5.73863 8.47997 5.80994 8.38764 5.88998 8.29857C5.96923 8.21044 6.05814 8.12589 6.15498 8.04586C6.1595 8.04212 6.16464 8.0387 6.16931 8.03496C6.25246 7.96708 6.34292 7.90323 6.43775 7.84157C6.46936 7.82118 6.50174 7.8014 6.53444 7.78163C6.60685 7.73772 6.68268 7.69646 6.76053 7.65629C6.80288 7.63449 6.84461 7.6116 6.88867 7.59089C6.96886 7.5529 7.05356 7.51818 7.13874 7.48392C7.8483 7.1996 8.71044 7.04701 9.57662 7.04701L9.57657 7.04688Z" fill="white"/>
<path d="M15.5064 6.17188C16.4181 6.17188 17.3273 6.36479 17.9752 6.71825C18.6231 7.07154 18.995 7.53539 18.995 8.17799V13.4097H14.4581V9.57311C14.4581 9.4487 14.4469 9.3285 14.4302 9.21001C14.4273 9.18852 14.4243 9.16719 14.4207 9.14601C14.4009 9.02767 14.3742 8.91229 14.339 8.80065C14.3388 8.80018 14.3391 8.79972 14.339 8.79925C14.3387 8.79832 14.3387 8.79738 14.3383 8.7966C14.2236 8.43428 14.0313 8.10869 13.7811 7.83062C13.7576 7.80461 13.728 7.78422 13.7028 7.75977C13.4628 7.50862 13.1805 7.29001 12.8649 7.11188C12.8197 7.08634 12.771 7.06454 12.7246 7.04041C13.3607 6.52409 14.381 6.17188 15.5066 6.17188L15.5064 6.17188Z" fill="white"/>
<path d="M3.6466 6.17188C4.77267 6.17188 5.79239 6.52393 6.4286 7.0404C6.3822 7.06454 6.33347 7.08649 6.28831 7.11187C5.97052 7.29109 5.6851 7.51112 5.44363 7.76443C5.42043 7.78717 5.39318 7.80632 5.37138 7.83045C5.12443 8.1048 4.93431 8.42557 4.81831 8.78213C4.81551 8.79085 4.81224 8.79925 4.80943 8.80797C4.77518 8.91728 4.74918 9.03017 4.72971 9.14586C4.72613 9.1675 4.72333 9.18946 4.72022 9.21125C4.70356 9.32943 4.69157 9.44917 4.69157 9.57311V13.4097H0.158203V8.17799C0.158203 7.53539 0.527381 7.07153 1.17529 6.71809C1.82303 6.36479 2.735 6.17188 3.64666 6.17188L3.6466 6.17188Z" fill="white"/>
</svg>
