<svg width="21" height="21" viewBox="0 0 21 21" fill="none" xmlns="http://www.w3.org/2000/svg">
<g clip-path="url(#clip0_0_241)">
<path d="M20.0926 10.2285H0.851714C0.521025 10.2285 0.25293 10.4966 0.25293 10.8273C0.25293 11.158 0.521025 11.4261 0.851714 11.4261H7.5385C7.74428 12.4358 8.46015 13.2618 9.40403 13.6235L6.09675 17.893H5.68191C4.6898 17.893 3.88555 18.6972 3.88555 19.6893V20.0885C3.88555 20.4192 4.15365 20.6873 4.48434 20.6873H16.46C16.7907 20.6873 17.0588 20.4192 17.0588 20.0885V19.6893C17.0588 18.6972 16.2546 17.893 15.2625 17.893H14.8476L11.5403 13.6235C12.4842 13.2618 13.2001 12.4358 13.4059 11.4261H20.0926C20.4233 11.4261 20.6914 11.158 20.6914 10.8273C20.6914 10.4966 20.4233 10.2285 20.0926 10.2285ZM13.3328 17.893H7.61159L10.4722 14.2002L13.3328 17.893Z" fill="white"/>
<path d="M9.4738 8.83172C9.4738 7.38993 8.74201 6.11588 7.63038 5.36133C7.00022 5.90666 6.17913 6.23699 5.28231 6.23699C4.38549 6.23699 3.5644 5.90666 2.93424 5.36133C1.82261 6.11588 1.09082 7.38993 1.09082 8.83172V9.03132H9.4738V8.83172Z" fill="white"/>
<path d="M12.8669 9.03065H18.4555C19.2272 9.03065 19.8527 8.40512 19.8527 7.63349V6.23633H11.4697V7.63349C11.4697 8.40512 12.0953 9.03065 12.8669 9.03065Z" fill="white"/>
<path d="M5.28271 5.03832C6.60551 5.03832 7.67785 3.96598 7.67785 2.64318C7.67785 1.32039 6.60551 0.248047 5.28271 0.248047C3.95991 0.248047 2.88757 1.32039 2.88757 2.64318C2.88757 3.96598 3.95991 5.03832 5.28271 5.03832Z" fill="white"/>
<path d="M19.8527 4.04035C19.8527 3.26995 19.2259 2.64318 18.4555 2.64318H17.8568V1.64521C17.8568 0.874814 17.23 0.248047 16.4596 0.248047H14.8628C14.0924 0.248047 13.4657 0.874814 13.4657 1.64521V2.64318H12.8669C12.0965 2.64318 11.4697 3.26995 11.4697 4.04035V5.03832H19.8527V4.04035ZM16.6592 2.64318H14.6632V1.64521C14.6632 1.53515 14.7528 1.44562 14.8628 1.44562H16.4596C16.5697 1.44562 16.6592 1.53515 16.6592 1.64521V2.64318Z" fill="white"/>
</g>
<defs>
<clipPath id="clip0_0_241">
<rect width="20.4385" height="20.4385" fill="white" transform="translate(0.251953 0.25)"/>
</clipPath>
</defs>
</svg>
