<svg width="497" height="508" viewBox="0 0 497 508" fill="none" xmlns="http://www.w3.org/2000/svg">
<path d="M471.393 129.627C456.605 137.284 445.273 150.459 437.124 164.961C428.974 179.463 423.72 195.396 418.524 211.192L413.945 292.699C431.114 263.454 444.941 229.07 448.673 195.407L437.227 194.389C444.907 193.244 451.351 187.658 455.449 181.066C459.546 174.473 461.652 166.884 463.713 159.398L449.817 161.436C460.823 153.992 468.547 142.605 471.393 129.627Z" fill="#E0E0E0"/>
<path d="M411.425 311.792C411.425 311.792 374.088 267.152 374.523 224.504H389.598C389.598 224.504 373.218 213.745 374.523 207.713C375.828 201.681 376.24 178.857 376.24 178.857L389.975 182.291C389.975 182.291 379.674 177.129 378.346 168.945C377.018 160.761 381.357 122.863 381.357 122.863C381.357 122.863 398.159 140.525 403.333 158.609C408.507 176.694 422.07 197.801 418.087 252.913C414.104 308.026 411.425 311.792 411.425 311.792Z" fill="#EBEBEB"/>
<path d="M430.359 316.014C430.359 316.014 470.797 289.081 479.783 254.709L467.661 251.412C467.661 251.412 483.182 246.342 483.468 241.214C483.754 236.086 488.39 217.635 488.39 217.635L476.555 217.395C476.555 217.395 485.998 215.495 488.825 209.199C491.652 202.904 496.494 171.496 496.494 171.496C496.494 171.496 479.107 182.015 470.992 195.395C462.877 208.776 447.344 222.866 438.485 268.021C429.626 313.175 430.359 316.014 430.359 316.014Z" fill="#EBEBEB"/>
<path d="M391.613 161.812C391.671 161.964 391.713 162.122 391.739 162.282L392.06 163.655C392.334 164.891 392.735 166.677 393.204 168.955C393.674 171.233 394.349 174.083 394.967 177.368C395.585 180.653 396.398 184.384 397.153 188.528C398.744 196.815 400.427 206.715 402.167 217.726C403.906 228.738 405.52 240.893 407.02 253.667C408.519 266.441 409.618 278.665 410.453 289.779C411.289 300.894 411.896 310.92 412.239 319.345C412.457 323.557 412.548 327.357 412.663 330.722C412.777 334.087 412.834 336.949 412.857 339.307C412.88 341.664 412.914 343.461 412.926 344.732V346.151C412.926 346.46 412.926 346.632 412.926 346.632C412.907 346.472 412.907 346.311 412.926 346.151C412.926 345.796 412.926 345.339 412.869 344.732C412.869 343.461 412.766 341.642 412.685 339.307C412.605 336.972 412.525 334.076 412.376 330.733C412.228 327.391 412.113 323.568 411.873 319.367C411.484 310.943 410.82 300.928 409.961 289.825C409.103 278.723 407.901 266.51 406.436 253.736C404.971 240.962 403.288 228.829 401.629 217.807C399.969 206.784 398.286 196.895 396.753 188.608C396.02 184.453 395.276 180.721 394.646 177.425C394.017 174.128 393.502 171.313 392.987 169.001C392.472 166.689 392.174 164.926 391.922 163.678C391.808 163.094 391.728 162.637 391.659 162.293C391.629 162.135 391.614 161.974 391.613 161.812Z" fill="#E0E0E0"/>
<path d="M406.243 339.135C406.243 339.135 372.088 300.401 361.478 276.983L369.49 273.549C363.676 274.51 357.735 272.015 353.237 268.227C348.738 264.438 345.431 259.493 342.226 254.56L352.767 252.786C343.079 250.019 334.828 243.629 329.727 234.941C342.168 236.99 353.431 243.824 362.714 252.362C370.223 259.23 376.587 267.311 382.699 275.506C385.687 279.505 388.289 283.778 390.471 288.269C396.171 300.127 406.324 324.907 406.243 339.135Z" fill="#EBEBEB"/>
<path d="M480.309 194.045C480.27 194.184 480.216 194.318 480.148 194.446C480.011 194.72 479.839 195.098 479.622 195.59C479.13 196.597 478.42 198.04 477.527 199.882C476.634 201.725 475.501 204.014 474.231 206.681C472.96 209.348 471.495 212.347 469.95 215.712C466.791 222.42 463.174 230.466 459.271 239.463C455.368 248.459 451.258 258.429 447.207 268.971C443.155 279.513 439.469 289.654 436.276 298.925C433.082 308.196 430.369 316.586 428.195 323.672C427.05 327.197 426.134 330.425 425.276 333.24C424.417 336.056 423.708 338.494 423.136 340.486C422.563 342.477 422.105 343.988 421.796 345.064L421.43 346.209C421.391 346.346 421.341 346.48 421.281 346.609C421.297 346.465 421.328 346.324 421.373 346.186C421.441 345.888 421.545 345.488 421.682 344.984C421.968 343.897 422.38 342.351 422.918 340.406C423.456 338.46 424.131 335.965 424.955 333.137C425.78 330.31 426.684 327.071 427.783 323.534C429.912 316.438 432.613 308.025 435.795 298.731C438.977 289.436 442.662 279.272 446.691 268.742C450.72 258.211 454.921 248.231 458.813 239.234C462.705 230.237 466.413 222.214 469.618 215.529C471.186 212.164 472.685 209.165 473.979 206.521C475.272 203.877 476.417 201.611 477.413 199.768L479.599 195.521C479.851 195.064 480.045 194.682 480.183 194.377C480.219 194.264 480.261 194.153 480.309 194.045Z" fill="#E0E0E0"/>
<path d="M409.137 355.743C409.069 355.506 409.02 355.265 408.988 355.021C408.908 354.495 408.793 353.808 408.667 352.973C408.541 352.137 408.37 350.981 408.141 349.722C407.912 348.463 407.694 347.009 407.351 345.43C406.744 342.259 405.863 338.505 404.753 334.384C403.643 330.264 402.177 325.8 400.449 321.187C398.721 316.574 396.798 312.282 394.944 308.436C393.089 304.59 391.235 301.213 389.598 298.432C388.808 297.024 388.019 295.8 387.309 294.701C386.599 293.602 386.05 292.663 385.546 291.908L384.402 290.157C384.257 289.959 384.138 289.743 384.047 289.516C384.218 289.691 384.371 289.883 384.505 290.088L385.707 291.782C386.233 292.514 386.851 293.43 387.549 294.518C388.248 295.605 389.06 296.807 389.839 298.215C391.533 300.985 393.398 304.361 395.321 308.196C397.244 312.03 399.133 316.357 400.895 320.981C402.658 325.605 404.032 330.138 405.165 334.247C406.298 338.356 407.088 342.156 407.649 345.349C407.969 346.94 408.152 348.394 408.347 349.665C408.541 350.935 408.69 352.034 408.782 352.938C408.873 353.842 408.942 354.472 408.988 355.01C409.068 355.247 409.118 355.493 409.137 355.743Z" fill="#E0E0E0"/>
<path d="M454.211 346.633H379.445V361.879H454.211V346.633Z" fill="#E0E0E0"/>
<path d="M386.578 361.867L394.659 413.146H439.837L447.38 361.867H386.578Z" fill="#E0E0E0"/>
<path d="M449.635 361.868C449.635 362.04 435.488 362.166 418.044 362.166C400.6 362.166 386.453 362.04 386.453 361.868C386.453 361.696 400.6 361.57 418.044 361.57C435.488 361.57 449.635 361.708 449.635 361.868Z" fill="#EBEBEB"/>
<path d="M332.334 68.5269C331.327 72.3544 329.636 75.9683 327.344 79.1947L332.254 83.7731L353.2 102.682L352.708 102.911C352.708 102.911 370.839 90.2515 375.852 86.1195C379.984 82.6857 391.041 75.6807 391.945 68.8589C392.097 67.6465 391.864 66.4173 391.281 65.3437C390.698 64.27 389.794 63.4059 388.695 62.8726C387.942 62.4889 387.097 62.3211 386.255 62.3878C385.412 62.4545 384.605 62.753 383.922 63.2503C383.922 63.2503 388.798 57.5273 384.94 53.773C381.083 50.0187 378.073 52.9603 378.073 52.9603C378.073 52.9603 382.846 45.6921 378.416 41.663C377.499 40.9594 376.39 40.5499 375.236 40.4886C374.081 40.4273 372.936 40.7171 371.949 41.3197L373.746 39.3967L383.006 29.4272C384.11 28.2709 384.726 26.7337 384.726 25.1349C384.726 23.5362 384.11 21.9989 383.006 20.8427C382.438 20.268 381.761 19.8131 381.014 19.5047C380.268 19.1963 379.467 19.0407 378.659 19.0471C377.851 19.0535 377.053 19.2217 376.311 19.542C375.57 19.8622 374.9 20.3278 374.341 20.9113L348.29 48.1758L349.618 33.296C349.95 29.4386 344.742 26.6458 342.43 28.0651C342.43 28.0651 338.87 29.4501 337.851 35.4822C337.176 40.0377 332.334 68.5269 332.334 68.5269Z" fill="#F5F5F5"/>
<path d="M332.334 68.5276C332.334 68.5276 332.334 68.2758 332.426 67.7836C332.517 67.2914 332.609 66.5589 332.758 65.6203C333.067 63.6973 333.513 60.9045 334.097 57.299L336.271 44.1131C336.699 41.5416 337.153 38.7907 337.634 35.8605C337.835 34.3243 338.287 32.8317 338.973 31.4423C339.686 29.9261 340.87 28.6813 342.349 27.8941C343.275 27.4363 344.343 27.3583 345.325 27.6766C346.295 27.9815 347.188 28.4886 347.946 29.1646C348.765 29.8515 349.372 30.7564 349.698 31.7743C349.778 32.0375 349.801 32.3122 349.858 32.5755C349.915 32.8388 349.858 33.1364 349.858 33.3996L349.721 34.9677C349.354 39.1799 348.973 43.5904 348.576 48.1994L348.095 47.9819L371.823 23.1897C372.361 22.6403 372.887 22.0451 373.425 21.5186C373.949 20.9199 374.532 20.3754 375.165 19.8933C376.546 18.957 378.236 18.5919 379.881 18.8746C380.713 19.018 381.508 19.3278 382.218 19.7853C382.928 20.2429 383.538 20.8388 384.013 21.5376C384.487 22.2363 384.816 23.0235 384.979 23.8521C385.142 24.6808 385.137 25.5338 384.963 26.3603C384.796 27.1985 384.474 27.9982 384.013 28.7182C383.527 29.3834 382.984 30.004 382.388 30.5724L379.023 34.178L372.155 41.492L371.754 40.9769C373.105 40.1902 374.7 39.9332 376.23 40.2558C376.871 40.3968 377.486 40.6403 378.05 40.9769C378.345 41.1377 378.609 41.3511 378.828 41.6064C379.063 41.8393 379.278 42.092 379.469 42.3619C380.227 43.4319 380.627 44.7137 380.614 46.0246C380.486 48.5392 379.696 50.9754 378.324 53.0868L377.821 52.6748C378.446 52.1217 379.207 51.7453 380.026 51.5844C380.844 51.4234 381.691 51.4837 382.479 51.7591C383.249 52.0472 383.958 52.4739 384.574 53.0182C384.884 53.2629 385.168 53.5391 385.421 53.8423L385.821 54.3001L386.131 54.8266C386.479 55.5337 386.68 56.3041 386.721 57.0912C386.762 57.8782 386.643 58.6655 386.371 59.4051C385.876 60.8567 385.128 62.2091 384.162 63.3997L383.738 62.9304C384.41 62.4488 385.191 62.144 386.012 62.0439C386.832 61.9439 387.664 62.052 388.431 62.3581C389.553 62.8037 390.518 63.5702 391.206 64.5617C391.894 65.5533 392.275 66.7257 392.3 67.9324C392.282 68.7085 392.159 69.4787 391.934 70.2216C391.422 71.6469 390.696 72.9861 389.782 74.1934C386.108 78.8977 381.335 82.2056 377.042 85.4677C372.75 88.7299 368.504 91.9348 364.452 94.8535L352.834 103.037L352.594 102.625L353.086 102.396L353.029 102.797L332.151 83.8996H332.368L332.254 84.0141L332.139 83.9111L327.252 79.3326L327.172 79.2525L327.241 79.161C328.942 76.7826 330.327 74.1932 331.361 71.4578C331.716 70.5306 331.945 69.7981 332.094 69.3059C332.242 68.8137 332.334 68.5734 332.334 68.5734C332.124 69.5695 331.841 70.5489 331.487 71.5035C330.501 74.2807 329.142 76.9107 327.447 79.3212V79.1495C328.866 80.4658 330.445 81.9195 332.368 83.7279H332.151L332.254 83.6135L332.38 83.7165L353.372 102.557L353.647 102.797L353.315 102.946L352.822 103.175L352.525 102.683L364.108 94.4529C368.137 91.5227 372.407 88.4895 376.642 85.0557C380.877 81.6219 385.684 78.4627 389.232 73.8614C390.105 72.7107 390.796 71.433 391.281 70.0728C391.485 69.3884 391.601 68.6805 391.625 67.9667C391.602 67.2536 391.447 66.551 391.167 65.895C390.585 64.558 389.499 63.5049 388.145 62.9648C387.472 62.6992 386.743 62.6072 386.025 62.6972C385.307 62.7872 384.623 63.0563 384.036 63.4799L382.285 64.7733L383.681 63.0335C384.593 61.9092 385.295 60.6296 385.753 59.2563C386.009 58.5918 386.124 57.8812 386.091 57.1698C386.057 56.4583 385.876 55.7617 385.558 55.1242C384.801 53.8824 383.648 52.9311 382.285 52.423C381.611 52.1858 380.887 52.1308 380.186 52.2634C379.484 52.3961 378.83 52.7117 378.29 53.1784L376.71 54.6092L377.798 52.7892C379.102 50.7847 379.853 48.4705 379.973 46.0819C380.04 44.9076 379.69 43.7474 378.984 42.8067C378.278 41.866 377.262 41.2056 376.115 40.9426C374.744 40.6579 373.315 40.8946 372.109 41.6064L370.289 42.6137L371.708 41.1028L378.576 33.7888C379.713 32.5831 380.835 31.3813 381.941 30.1833C382.493 29.6244 382.991 29.0151 383.429 28.3634C383.844 27.7127 384.135 26.9909 384.288 26.2344C384.443 25.487 384.447 24.7161 384.299 23.9672C384.152 23.2182 383.856 22.5064 383.429 21.8734C382.999 21.2546 382.451 20.7267 381.817 20.3201C381.183 19.9135 380.474 19.6362 379.732 19.5041C378.253 19.2423 376.73 19.5666 375.486 20.4083C374.887 20.8683 374.335 21.3858 373.837 21.9536L372.235 23.6247L348.484 48.3596L347.946 48.8861L348.027 48.1078C348.439 43.5294 348.839 39.0883 349.228 34.8876C349.418 33.8892 349.418 32.8642 349.228 31.8658C348.932 30.9389 348.38 30.114 347.637 29.4851C346.924 28.852 346.08 28.3831 345.165 28.1115C344.308 27.8237 343.374 27.877 342.555 28.2603C341.18 29.0044 340.078 30.167 339.408 31.5797C338.734 32.9237 338.29 34.3704 338.091 35.8605C337.588 38.7793 337.107 41.5836 336.672 44.1131C335.779 49.241 335.012 53.6591 334.383 57.2761C333.753 60.8931 333.238 63.663 332.918 65.5745C332.746 66.5131 332.62 67.2227 332.517 67.7263C332.414 68.23 332.334 68.5276 332.334 68.5276Z" fill="#E0E0E0"/>
<path d="M320.525 79.3883L320.76 79.1374C321.641 78.1949 322.86 77.6411 324.149 77.5976C325.439 77.5542 326.693 78.0247 327.635 78.9057L353.439 103.027C354.379 103.906 354.932 105.123 354.975 106.409C355.019 107.695 354.549 108.946 353.67 109.887L353.436 110.138C352.555 111.08 351.335 111.634 350.046 111.677C348.756 111.721 347.503 111.25 346.56 110.369L320.765 86.2556C319.824 85.3766 319.272 84.1601 319.228 82.8737C319.185 81.5873 319.654 80.3364 320.533 79.3961L320.525 79.3883Z" fill="#F5F5F5"/>
<path d="M346.547 110.339C346.547 110.339 346.822 110.568 347.406 110.9C348.133 111.313 348.956 111.531 349.792 111.531C350.629 111.531 351.451 111.313 352.179 110.9C352.88 110.458 353.484 109.878 353.953 109.194C354.51 108.366 354.786 107.38 354.741 106.383C354.696 105.386 354.331 104.429 353.701 103.655L327.375 79.1257C326.772 78.5627 326.029 78.173 325.223 77.9977C324.417 77.8224 323.579 77.8681 322.797 78.1299C322.054 78.4033 321.384 78.8423 320.837 79.4134C320.289 79.9846 319.879 80.673 319.638 81.4263C319.427 82.1607 319.404 82.9361 319.57 83.6818C319.736 84.4275 320.086 85.1198 320.588 85.6957C321.675 86.7831 322.877 87.859 323.964 88.8891L335.742 100.003L343.64 107.523L345.769 109.595C346.027 109.826 346.264 110.079 346.479 110.351C346.195 110.15 345.927 109.928 345.677 109.687L343.468 107.706L335.456 100.335L323.587 89.3355C322.442 88.2825 321.297 87.2753 320.153 86.1078C319.569 85.4602 319.159 84.6761 318.959 83.8278C318.759 82.9796 318.776 82.0946 319.008 81.2546C319.281 80.3991 319.745 79.6172 320.366 78.9685C320.987 78.3198 321.748 77.8216 322.591 77.5118C323.475 77.2268 324.42 77.1826 325.327 77.3838C326.234 77.585 327.072 78.0242 327.753 78.6564C338.054 88.2825 347.326 96.9701 353.976 103.38C354.652 104.231 355.036 105.277 355.071 106.364C355.106 107.45 354.79 108.519 354.17 109.412C353.665 110.132 353.009 110.734 352.247 111.175C351.6 111.532 350.88 111.74 350.141 111.781C349.126 111.842 348.117 111.582 347.257 111.037C346.986 110.842 346.747 110.607 346.547 110.339Z" fill="#E0E0E0"/>
<path d="M362.273 51.1758C363.693 49.1911 365.282 47.3336 367.024 45.6245C368.608 43.771 370.355 42.0626 372.243 40.5195C370.827 42.5039 369.242 44.3614 367.504 46.0709C365.918 47.9262 364.167 49.6348 362.273 51.1758Z" fill="#E0E0E0"/>
<path d="M372.145 59.0607C372.876 57.7868 373.795 56.6294 374.869 55.6269C375.788 54.496 376.863 53.5016 378.062 52.6738C377.335 53.9507 376.416 55.1088 375.338 56.1076C374.426 57.2448 373.349 58.2401 372.145 59.0607Z" fill="#E0E0E0"/>
<path d="M378.016 69.559C378.748 68.2854 379.666 67.128 380.74 66.1252C381.652 64.9873 382.733 63.9953 383.945 63.1836C383.211 64.4564 382.293 65.6136 381.221 66.6174C380.305 67.7528 379.225 68.7444 378.016 69.559Z" fill="#E0E0E0"/>
<path d="M376.963 14.411C375.798 12.1648 374.833 9.82083 374.078 7.40605C373.11 5.06863 372.344 2.65225 371.789 0.183594C372.95 2.4313 373.915 4.77498 374.673 7.18858C375.642 9.526 376.408 11.9424 376.963 14.411Z" fill="#E0E0E0"/>
<path d="M383.773 16.0703C385.318 13.2191 387.05 10.4736 388.959 7.852C390.689 5.1099 392.601 2.48671 394.682 0C393.132 2.85101 391.397 5.59643 389.485 8.21827C387.761 10.9616 385.852 13.5849 383.773 16.0703Z" fill="#E0E0E0"/>
<path d="M388.727 21.8949C391.219 21.0438 393.776 20.3931 396.373 19.9491C398.923 19.2997 401.522 18.8595 404.144 18.6328C401.66 19.5004 399.106 20.1551 396.51 20.5901C393.956 21.2399 391.353 21.6763 388.727 21.8949Z" fill="#E0E0E0"/>
<path d="M60.5697 264.531L23.8164 413.135H33.4883L71.1459 264.531H60.5697Z" fill="#F5F5F5"/>
<path d="M129.795 264.531L164.179 413.135H154.507L119.207 264.531H129.795Z" fill="#F5F5F5"/>
<path d="M101.067 410.948H89.8037L88.1211 240.391H99.384L101.067 410.948Z" fill="#F5F5F5"/>
<path d="M173.21 140.227H14.3047V242.028H173.21V140.227Z" fill="#EBEBEB"/>
<path d="M133.678 262.973H53.9219V272.805H133.678V262.973Z" fill="#F5F5F5"/>
<path d="M24.8579 228.749C24.956 229.366 24.9943 229.991 24.9724 230.615H24.7549C24.5947 225.636 24.4688 209.142 24.4688 189.592C24.4688 177.803 24.5603 167.124 24.5832 159.272C24.5832 155.472 24.6748 152.404 24.7091 150.115C24.7091 149.096 24.7091 148.272 24.7778 147.608C24.7775 147.316 24.8044 147.025 24.8579 146.738C24.9261 147.023 24.9531 147.316 24.938 147.608C24.938 148.272 24.938 149.096 25.0182 150.115C25.0182 152.404 25.0868 155.506 25.1441 159.272C25.1441 167.124 25.2127 177.803 25.2585 189.592C25.2585 209.142 25.1326 225.636 24.9724 230.615H24.7549C24.742 229.991 24.7764 229.368 24.8579 228.749Z" fill="#F5F5F5"/>
<path d="M36.6944 228.749C36.7759 229.368 36.8103 229.991 36.7974 230.615H36.6143C36.454 225.636 36.3281 209.142 36.3281 189.592C36.3281 177.803 36.4197 167.124 36.4426 159.272C36.4998 155.472 36.5456 152.404 36.5685 150.115C36.5685 149.096 36.5685 148.272 36.6486 147.608C36.6335 147.316 36.6605 147.023 36.7287 146.738C36.7811 147.025 36.8041 147.317 36.7974 147.608C36.7974 148.272 36.7974 149.096 36.8775 150.115C36.8775 152.404 36.9462 155.506 37.0034 159.272C37.0034 167.124 37.0721 177.803 37.1179 189.592C37.1179 209.142 36.992 225.636 36.8318 230.615H36.6143C36.581 229.992 36.6078 229.367 36.6944 228.749Z" fill="#F5F5F5"/>
<path d="M48.5142 228.749C48.5957 229.368 48.6301 229.991 48.6172 230.615H48.3997C48.2395 225.636 48.125 209.142 48.125 189.592C48.125 177.803 48.2051 167.124 48.2395 159.272C48.2395 155.472 48.331 152.404 48.3654 150.115C48.3654 149.096 48.3654 148.272 48.434 147.608C48.4263 147.316 48.4532 147.024 48.5142 146.738C48.5752 147.024 48.6021 147.316 48.5943 147.608C48.5943 148.272 48.5943 149.096 48.663 150.115C48.663 152.404 48.7431 155.506 48.7889 159.272C48.7889 167.124 48.8575 177.803 48.9033 189.592C48.9033 209.142 48.7889 225.636 48.6172 230.615H48.3997C48.3854 229.991 48.4237 229.367 48.5142 228.749Z" fill="#F5F5F5"/>
<path d="M60.3423 228.749C60.4328 229.367 60.4711 229.991 60.4568 230.615H60.2393C60.0676 225.636 59.9531 209.142 59.9531 189.592C59.9531 177.803 60.0332 167.124 60.0676 159.272C60.0676 155.472 60.1592 152.404 60.1935 150.115C60.1935 149.096 60.2507 148.272 60.2622 147.608C60.2544 147.316 60.2813 147.024 60.3423 146.738C60.4033 147.024 60.4302 147.316 60.4224 147.608C60.4224 148.272 60.4224 149.096 60.4911 150.115C60.4911 152.404 60.5712 155.506 60.617 159.272C60.617 167.124 60.6857 177.803 60.7315 189.592C60.7315 209.142 60.617 225.636 60.4568 230.615H60.2393C60.2264 229.991 60.2608 229.368 60.3423 228.749Z" fill="#F5F5F5"/>
<path d="M72.1673 228.749C72.2654 229.366 72.3037 229.991 72.2818 230.615H72.0987C71.9384 225.636 71.8125 209.142 71.8125 189.592C71.8125 177.803 71.9041 167.124 71.927 159.272C71.9842 155.472 72.0185 152.404 72.0529 150.115C72.0529 149.096 72.0529 148.272 72.1215 147.608C72.1213 147.316 72.1481 147.025 72.2017 146.738C72.2699 147.023 72.2969 147.316 72.2818 147.608C72.2818 148.272 72.2818 149.096 72.3619 150.115C72.3619 152.404 72.4306 155.506 72.4878 159.272C72.4878 167.124 72.5565 177.803 72.6023 189.592C72.6023 209.142 72.4764 225.636 72.3161 230.615H72.0987C72.0743 229.992 72.0973 229.369 72.1673 228.749Z" fill="#F5F5F5"/>
<path d="M84.0022 228.749C84.0837 229.368 84.1181 229.991 84.1052 230.615H83.8877C83.7275 225.636 83.6016 209.142 83.6016 189.592C83.6016 177.803 83.6931 167.124 83.716 159.272C83.716 155.472 83.819 152.404 83.8419 150.115C83.8419 149.096 83.8419 148.272 83.9221 147.608C83.907 147.316 83.9339 147.023 84.0022 146.738C84.0546 147.025 84.0776 147.317 84.0708 147.608C84.0708 148.272 84.0708 149.096 84.151 150.115C84.151 152.404 84.2196 155.506 84.2769 159.272C84.2769 167.124 84.3456 177.803 84.3913 189.592C84.3913 209.142 84.2654 225.636 84.1052 230.615H83.8877C83.8658 229.991 83.9041 229.366 84.0022 228.749Z" fill="#F5F5F5"/>
<path d="M95.8228 228.749C95.9043 229.368 95.9387 229.991 95.9258 230.615H95.7083C95.5481 225.636 95.4336 209.142 95.4336 189.592C95.4336 177.803 95.5137 167.124 95.5481 159.272C95.5481 155.472 95.6396 152.404 95.674 150.115C95.674 149.096 95.674 148.272 95.7426 147.608C95.7349 147.316 95.7618 147.024 95.8228 146.738C95.8838 147.024 95.9107 147.316 95.9029 147.608C95.9029 148.272 95.9029 149.096 95.9716 150.115C95.9716 152.404 96.0517 155.506 96.0975 159.272C96.0975 167.124 96.1661 177.803 96.2119 189.592C96.2119 209.142 96.0975 225.636 95.9258 230.615H95.7083C95.694 229.991 95.7323 229.367 95.8228 228.749Z" fill="#F5F5F5"/>
<path d="M107.648 228.749C107.738 229.367 107.777 229.991 107.762 230.615H107.579C107.407 225.636 107.293 209.142 107.293 189.592C107.293 177.803 107.373 167.124 107.407 159.272C107.407 155.472 107.499 152.404 107.533 150.115C107.533 149.096 107.533 148.272 107.602 147.608C107.594 147.316 107.621 147.024 107.682 146.738C107.743 147.024 107.77 147.316 107.762 147.608C107.762 148.272 107.762 149.096 107.831 150.115C107.831 152.404 107.911 155.506 107.957 159.272C107.957 167.124 108.026 177.803 108.071 189.592C108.071 209.142 107.957 225.636 107.797 230.615H107.579C107.555 229.992 107.578 229.369 107.648 228.749Z" fill="#F5F5F5"/>
<path d="M119.471 228.749C119.569 229.366 119.608 229.991 119.586 230.615H119.368C119.208 225.636 119.082 209.142 119.082 189.592C119.082 177.803 119.174 167.124 119.196 159.272C119.196 155.472 119.288 152.404 119.322 150.115C119.322 149.096 119.38 148.272 119.391 147.608C119.391 147.316 119.418 147.025 119.471 146.738C119.539 147.023 119.566 147.316 119.551 147.608C119.551 148.272 119.551 149.096 119.631 150.115C119.631 152.404 119.7 155.506 119.757 159.272C119.757 167.124 119.826 177.803 119.872 189.592C119.872 209.142 119.746 225.636 119.586 230.615H119.368C119.355 229.991 119.39 229.368 119.471 228.749Z" fill="#F5F5F5"/>
<path d="M131.307 228.749C131.388 229.368 131.423 229.991 131.41 230.615H131.192C131.032 225.636 130.906 209.142 130.906 189.592C130.906 177.803 130.998 167.124 131.021 159.272C131.078 155.472 131.124 152.404 131.147 150.115C131.147 149.096 131.147 148.272 131.227 147.608C131.212 147.316 131.239 147.023 131.307 146.738C131.36 147.025 131.387 147.316 131.387 147.608C131.387 148.272 131.387 149.096 131.456 150.115C131.456 152.404 131.524 155.506 131.582 159.272C131.582 167.124 131.65 177.803 131.696 189.592C131.696 209.142 131.57 225.636 131.41 230.615H131.192C131.17 229.991 131.209 229.366 131.307 228.749Z" fill="#F5F5F5"/>
<path d="M143.132 228.749C143.214 229.368 143.248 229.991 143.235 230.615H143.064C142.904 225.636 142.789 209.142 142.789 189.592C142.789 177.803 142.869 167.124 142.904 159.272C142.904 155.472 142.995 152.404 143.029 150.115C143.029 149.096 143.029 148.272 143.098 147.608C143.09 147.316 143.117 147.024 143.178 146.738C143.239 147.024 143.266 147.316 143.258 147.608C143.258 148.272 143.258 149.096 143.327 150.115C143.327 152.404 143.407 155.506 143.453 159.272C143.453 167.124 143.522 177.803 143.567 189.592C143.567 209.142 143.453 225.636 143.281 230.615H143.064C143.034 229.992 143.057 229.368 143.132 228.749Z" fill="#F5F5F5"/>
<path d="M154.952 228.749C155.042 229.367 155.08 229.991 155.066 230.615H154.849C154.677 225.636 154.562 209.142 154.562 189.592C154.562 177.803 154.643 167.124 154.677 159.272C154.677 155.472 154.769 152.404 154.803 150.115C154.803 149.096 154.86 148.272 154.872 147.608C154.864 147.316 154.891 147.024 154.952 146.738C155.013 147.024 155.04 147.316 155.032 147.608C155.032 148.272 155.032 149.096 155.1 150.115C155.1 152.404 155.181 155.506 155.226 159.272C155.226 167.124 155.295 177.803 155.341 189.592C155.341 209.142 155.226 225.636 155.066 230.615H154.849C154.836 229.991 154.87 229.368 154.952 228.749Z" fill="#F5F5F5"/>
<path d="M166.776 228.749C166.874 229.366 166.912 229.991 166.89 230.615H166.673C166.513 225.636 166.387 209.142 166.387 189.592C166.387 177.803 166.478 167.124 166.501 159.272C166.558 155.472 166.593 152.404 166.627 150.115C166.627 149.096 166.627 148.272 166.696 147.608C166.695 147.316 166.722 147.025 166.776 146.738C166.844 147.023 166.871 147.316 166.856 147.608C166.856 148.272 166.856 149.096 166.936 150.115C166.936 152.404 167.005 155.506 167.062 159.272C167.062 167.124 167.131 177.803 167.176 189.592C167.176 209.142 167.051 225.636 166.89 230.615H166.673C166.66 229.991 166.694 229.368 166.776 228.749Z" fill="#F5F5F5"/>
<path d="M286.929 67.5073L278.012 147.847C276.49 161.514 271.465 181.27 249.981 177.893C231.552 173.544 228.783 155.253 230.213 142.502C230.889 136.458 231.438 131.411 231.472 130.793C231.472 130.793 211.236 126.592 212.014 106.184C212.392 96.3285 214.807 76.0689 217.211 57.7781C218.458 48.3028 223.229 39.6448 230.572 33.5277C237.915 27.4107 247.292 24.2831 256.837 24.7677L258.806 24.8593C279.958 27.137 289.813 46.4236 286.929 67.5073Z" fill="#E9C46A"/>
<path d="M231.472 130.794C240.892 131.24 250.243 128.976 258.416 124.27C258.416 124.27 251.193 138.84 230.945 135.979L231.472 130.794Z" fill="#E9C46A"/>
<path d="M250.658 70.3244C251.013 70.7823 253.577 69.1798 256.965 69.5232C260.353 69.8666 262.688 71.8124 263.089 71.4347C263.295 71.2516 262.963 70.4618 261.944 69.5461C260.582 68.3701 258.884 67.6532 257.091 67.4973C255.321 67.3218 253.543 67.7233 252.02 68.6419C250.956 69.3859 250.532 70.1184 250.658 70.3244Z" fill="#3B4D60"/>
<path d="M249.938 77.3291C249.897 78.0474 250.136 78.7536 250.606 79.2984C251.076 79.8431 251.74 80.1837 252.456 80.2479C252.806 80.2925 253.16 80.2668 253.5 80.1725C253.839 80.0781 254.156 79.9169 254.432 79.6983C254.708 79.4798 254.938 79.2082 255.108 78.8996C255.278 78.5911 255.384 78.2517 255.421 77.9014C255.462 77.1844 255.222 76.4794 254.752 75.9365C254.282 75.3936 253.618 75.0555 252.903 74.9941C252.554 74.9494 252.2 74.9747 251.862 75.0683C251.523 75.162 251.207 75.3222 250.931 75.5396C250.655 75.757 250.425 76.0272 250.254 76.3345C250.084 76.6417 249.976 76.9799 249.938 77.3291Z" fill="#3B4D60"/>
<path d="M239.313 92.8135C239.313 92.6304 237.413 92.1955 234.277 91.6689C233.476 91.543 232.732 91.3485 232.617 90.799C232.601 89.988 232.829 89.1907 233.27 88.5098L235.948 82.535C239.668 74.0191 242.404 67.0027 242.06 66.8653C241.717 66.728 238.42 73.4926 234.701 82.0085C233.792 84.0993 232.934 86.1023 232.125 88.0177C231.568 88.9576 231.365 90.0659 231.553 91.1424C231.653 91.4318 231.819 91.694 232.037 91.9085C232.256 92.123 232.521 92.2839 232.812 92.3786C233.248 92.5251 233.703 92.6099 234.163 92.6304C237.322 92.8708 239.29 92.9852 239.313 92.8135Z" fill="#3B4D60"/>
<path d="M253.712 57.7783C253.952 58.5681 256.722 58.3392 259.95 58.9229C263.178 59.5067 265.753 60.5368 266.211 59.8615C266.428 59.5296 266.005 58.7169 264.986 57.9729C263.64 56.9682 262.068 56.308 260.408 56.05C258.76 55.7544 257.064 55.8764 255.475 56.4048C254.25 56.8283 253.62 57.4006 253.712 57.7783Z" fill="#3B4D60"/>
<path d="M221.905 57.7781C222.191 58.4305 224.915 58.0757 228.12 58.3733C231.325 58.6709 233.946 59.4149 234.358 58.8082C234.541 58.5221 234.083 57.9154 233.03 57.2859C231.619 56.5111 230.058 56.0467 228.452 55.9238C226.812 55.7704 225.158 55.9655 223.599 56.4961C222.374 56.8967 221.79 57.4576 221.905 57.7781Z" fill="#3B4D60"/>
<path d="M284.504 82.5257C284.859 82.3884 298.732 79.0919 297.587 93.0103C296.442 106.929 282.707 102.9 282.707 102.499C282.707 102.098 284.504 82.5257 284.504 82.5257Z" fill="#E9C46A"/>
<path d="M287.389 97.5754C287.458 97.5754 287.618 97.77 288.019 97.9875C288.575 98.2829 289.224 98.3487 289.827 98.1706C291.338 97.7586 292.769 95.5266 293.044 93.0199C293.179 91.8305 293.046 90.6258 292.655 89.4945C292.56 89.0485 292.358 88.6322 292.067 88.2813C291.776 87.9304 291.404 87.6554 290.983 87.48C290.71 87.3848 290.412 87.3876 290.141 87.4878C289.869 87.588 289.641 87.7795 289.495 88.0294C289.278 88.3957 289.347 88.6819 289.267 88.7048C289.186 88.7276 288.992 88.4415 289.152 87.8806C289.254 87.5416 289.473 87.2496 289.77 87.0565C290.173 86.7963 290.663 86.7058 291.132 86.8047C291.695 86.9661 292.206 87.2684 292.619 87.6831C293.032 88.0978 293.332 88.611 293.49 89.174C293.991 90.4263 294.172 91.7833 294.017 93.1229C293.696 95.9272 292.048 98.4339 289.988 98.846C289.604 98.9237 289.207 98.9148 288.827 98.8197C288.447 98.7247 288.092 98.5459 287.79 98.2965C287.389 97.9188 287.344 97.5983 287.389 97.5754Z" fill="#E9C46A"/>
<path d="M241.397 102.806C241.294 102.44 244.11 101.959 246.331 99.6473C247.261 98.6298 248.054 97.4946 248.688 96.2707C249.215 95.3092 249.604 94.714 249.753 94.7827C249.902 94.8514 249.753 95.5267 249.41 96.5912C248.937 98.0185 248.156 99.3239 247.12 100.414C246.067 101.52 244.728 102.312 243.252 102.703C242.141 102.99 241.42 102.932 241.397 102.806Z" fill="#3B4D60"/>
<path d="M220.896 65.9397C221.251 66.3975 223.815 64.7951 227.203 65.1384C230.591 65.4818 232.926 67.4277 233.326 67.0385C233.532 66.8668 233.201 66.077 232.182 65.1613C230.823 63.9806 229.123 63.263 227.329 63.1125C225.559 62.937 223.781 63.3385 222.258 64.2571C221.159 65.0011 220.736 65.7336 220.896 65.9397Z" fill="#3B4D60"/>
<path d="M220.669 73.7113C220.627 74.4295 220.867 75.1358 221.337 75.6805C221.807 76.2253 222.47 76.5658 223.187 76.63C223.532 76.675 223.882 76.6514 224.218 76.5605C224.554 76.4697 224.869 76.3135 225.144 76.1008C225.42 75.8882 225.65 75.6232 225.823 75.3212C225.996 75.0192 226.108 74.686 226.151 74.3408C226.199 73.6242 225.963 72.9176 225.494 72.3737C225.025 71.8297 224.36 71.492 223.645 71.4335C223.299 71.3853 222.948 71.4061 222.611 71.4948C222.274 71.5836 221.957 71.7384 221.68 71.9503C221.404 72.1622 221.172 72.427 220.998 72.7293C220.824 73.0316 220.712 73.3654 220.669 73.7113Z" fill="#3B4D60"/>
<path d="M295.503 70.0715C294.484 73.9517 292.069 82.7995 288.635 82.0098C281.767 80.4531 282.168 91.4642 278.849 90.1708C275.529 88.8774 274.751 80.1212 275.129 76.6301C276.273 65.722 280.463 57.8929 275.85 45.4396C274.419 42.9685 272.374 40.9085 269.914 39.4588C267.453 38.0091 264.661 37.2187 261.806 37.1641C258.929 37.166 256.1 37.9031 253.588 39.3054C251.076 40.7076 248.964 42.7285 247.452 45.1763C246.743 41.3648 244.751 35.6418 241.306 33.8791C239.581 32.9796 237.63 32.6084 235.696 32.812C233.762 33.0156 231.931 33.7849 230.432 35.0237C229.001 36.3373 228.097 38.1258 227.886 40.0565C227.676 41.9872 228.174 43.9286 229.287 45.5197C228.504 45.772 227.66 45.767 226.88 45.5055C226.099 45.2439 225.423 44.7395 224.949 44.0661C224.902 44.9619 225.039 45.8578 225.353 46.6985C225.666 47.5391 226.148 48.3066 226.769 48.9535C225.357 48.6388 224.106 47.8262 223.244 46.6643L224.388 51.3801C218.665 51.6663 212.839 46.2179 211.122 41.2847C208.524 33.799 210.218 26.153 214.27 19.354C218.322 12.5551 225.716 7.65616 233.728 7.5417C241.741 7.42724 248.368 11.0328 251.584 18.2667C256.643 14.5124 267.025 13.0129 272.805 15.4853C275.696 16.7582 278.212 18.7496 280.116 21.27C282.019 23.7904 283.246 26.7559 283.679 29.8844C287.227 28.2934 291.554 29.3693 294.633 31.7501L295.377 32.3682C297.437 34.2419 298.988 36.6077 299.885 39.2441C300.782 41.8805 300.995 44.7014 300.505 47.4427C300.138 49.6403 299.429 51.9295 299.028 53.7037C297.678 58.9574 295.503 70.0715 295.503 70.0715Z" fill="#3B4D60"/>
<path d="M223.962 43.7688C223.962 43.7688 223.779 43.6658 223.493 43.414C223.07 43.0505 222.687 42.6439 222.348 42.2007C221.04 40.5496 220.212 38.5692 219.956 36.4777C219.725 34.9345 219.828 33.3597 220.256 31.8592C220.684 30.3587 221.429 28.9674 222.44 27.7787C223.679 26.3144 225.257 25.1741 227.036 24.4561C228.814 23.7382 230.741 23.4643 232.65 23.6581C234.614 23.9041 236.497 24.5929 238.155 25.6726C239.703 26.6465 241.089 27.8552 242.265 29.2552C244.261 31.5858 245.732 34.3183 246.58 37.2675C247.151 39.2576 247.424 41.321 247.392 43.3911C247.392 44.1237 247.324 44.6845 247.267 45.0622C247.255 45.2565 247.221 45.4486 247.164 45.6346C247.288 42.8484 246.956 40.0606 246.179 37.3819C245.297 34.4976 243.819 31.8304 241.841 29.5528C239.512 26.6951 236.219 24.7862 232.581 24.1846C230.768 24.008 228.939 24.2693 227.248 24.9465C225.557 25.6237 224.053 26.6971 222.864 28.0763C221.889 29.2049 221.165 30.5264 220.737 31.9545C220.309 33.3826 220.187 34.8849 220.38 36.3632C220.584 38.4014 221.318 40.3507 222.509 42.0176C223.367 43.2194 223.997 43.7231 223.962 43.7688Z" fill="#455A64"/>
<path d="M221.458 49.8579C221.292 49.6615 221.15 49.4464 221.034 49.2169C220.771 48.782 220.393 48.0723 219.89 47.294C218.536 44.9288 217.416 42.437 216.547 39.854C215.963 38.0491 215.62 36.1747 215.529 34.2798C215.416 32.088 215.763 29.8969 216.547 27.8471C217.462 25.5753 219.026 23.6242 221.046 22.2386C223.203 20.76 225.708 19.8684 228.314 19.6517C230.908 19.452 233.514 19.807 235.96 20.6933C238.231 21.5123 240.365 22.67 242.289 24.1272C245.647 26.4998 248.126 29.9165 249.34 33.8449C250.096 36.509 250.02 39.3403 249.123 41.9601C248.871 42.6585 248.548 43.3296 248.161 43.9632C248.027 44.1856 247.874 44.3962 247.703 44.5927C248.159 43.7215 248.542 42.8142 248.848 41.88C249.632 39.298 249.632 36.5414 248.848 33.9593C247.609 30.1517 245.162 26.8523 241.877 24.5621C238.037 21.5896 233.269 20.0694 228.417 20.2698C225.911 20.4853 223.503 21.3406 221.423 22.7536C219.495 24.0721 217.995 25.9263 217.108 28.0875C216.337 30.0614 215.982 32.1736 216.067 34.2913C216.138 36.1474 216.45 37.9864 216.994 39.7625C217.823 42.3335 218.876 44.8269 220.141 47.2139L221.137 49.194C221.264 49.4052 221.371 49.6274 221.458 49.8579Z" fill="#455A64"/>
<path d="M290.549 61.4745C290.481 61.3829 291.774 60.4329 293.365 58.4413C295.457 55.8693 296.868 52.8123 297.468 49.5519C298.068 46.2914 297.838 42.9324 296.799 39.7842C296.009 37.3576 295.139 36.007 295.242 35.9612C295.345 35.9154 295.517 36.2474 295.895 36.8769C296.415 37.7578 296.852 38.6851 297.2 39.6468C298.378 42.8476 298.674 46.3061 298.058 49.6608C297.442 53.0154 295.936 56.1428 293.697 58.716C293.029 59.4896 292.294 60.2021 291.499 60.8449C291.215 61.0995 290.895 61.3115 290.549 61.4745Z" fill="#455A64"/>
<path d="M278.266 61.3614C278.266 61.3042 278.929 61.0409 279.983 60.2855C281.449 59.2288 282.594 57.7867 283.29 56.1191L283.817 54.8143L283.725 56.2221C283.6 58.1222 283.451 60.3084 283.302 62.6892L282.856 62.4373C284.752 61.0727 286.36 59.347 287.588 57.3592C288.815 55.3714 289.638 53.1606 290.009 50.8539C290.319 48.7458 290.257 46.5996 289.826 44.5128C289.367 42.5961 288.683 40.7404 287.789 38.9844C287.889 39.0843 287.978 39.1957 288.052 39.3163C288.276 39.6406 288.482 39.9769 288.67 40.3236C289.368 41.6144 289.892 42.9924 290.227 44.4213C291.032 47.8526 290.79 51.4464 289.534 54.7392C288.277 58.032 286.062 60.8727 283.176 62.8952L282.684 63.2386V62.6434L283.222 56.1878L283.668 56.2908C282.912 58.015 281.666 59.4795 280.086 60.503C279.658 60.7775 279.206 61.0113 278.735 61.2012C278.585 61.2731 278.428 61.3269 278.266 61.3614Z" fill="#455A64"/>
<path d="M273.87 33.054C273.054 31.5873 271.962 30.2929 270.654 29.2424C269.211 28.1619 267.531 27.44 265.755 27.1364C263.569 26.7813 261.327 27.0348 259.276 27.8689C257.218 28.6929 255.385 29.9956 253.931 31.669C252.748 33.031 251.797 34.5777 251.115 36.2474C250.537 37.8316 250.081 39.4579 249.753 41.112C249.708 40.6533 249.731 40.1904 249.822 39.7385C249.982 38.4956 250.282 37.2747 250.714 36.0986C251.367 34.3405 252.315 32.7068 253.519 31.2684C255.013 29.5064 256.915 28.1353 259.059 27.2737C261.213 26.4026 263.568 26.1527 265.858 26.5526C267.713 26.9091 269.451 27.7191 270.917 28.9105C271.9 29.7064 272.723 30.6812 273.343 31.7835C273.507 32.0833 273.652 32.3929 273.778 32.7106C273.829 32.8186 273.86 32.9349 273.87 33.054Z" fill="#455A64"/>
<path d="M270.483 22.845C269.265 22.267 267.992 21.8144 266.682 21.4943C263.546 20.904 260.302 21.4433 257.526 23.0167C254.772 24.6828 252.552 27.1014 251.127 29.9873C249.983 32.1849 249.674 33.7073 249.571 33.6729C249.566 33.3071 249.624 32.9432 249.742 32.597C249.995 31.6345 250.332 30.6961 250.75 29.7927C252.115 26.7804 254.367 24.2566 257.205 22.5588C260.116 20.8898 263.551 20.3828 266.82 21.1395C267.798 21.3829 268.735 21.7685 269.601 22.2841C269.92 22.4283 270.217 22.6171 270.483 22.845Z" fill="#455A64"/>
<path d="M188.003 339.879L315.902 341.619C315.902 341.619 351.67 326.648 361.503 326.247C371.335 325.847 390.839 327.094 399.858 341.619C409.187 356.636 410.492 383.123 381.751 402.363C353.754 421.112 225.752 438.43 208.206 436.839L175.882 393.413C175.882 393.413 175.55 357.827 175.882 356.133C176.214 354.439 181.605 339.193 181.605 339.193L188.003 339.879Z" fill="#3B4D60"/>
<path d="M264.573 399.947L330.857 424.568L300.651 507.174C292.936 503.809 292.719 455.278 292.719 455.278L249.602 441.245L264.573 399.947Z" fill="#E76F51"/>
<g opacity="0.6">
<path d="M298.479 428.425C299.011 427.718 299.786 427.233 300.654 427.062C301.522 426.891 302.422 427.046 303.183 427.498C303.911 428 304.416 428.763 304.596 429.628C304.775 430.494 304.613 431.395 304.144 432.145C303.149 433.61 300.516 434.228 299.154 433.106C297.792 431.984 297.38 429.329 298.696 428.15" fill="white"/>
</g>
<path d="M330.861 424.568L324.165 422.027L297.656 502.379C297.656 502.379 297.908 506.648 300.655 507.175L330.861 424.568Z" fill="#3B4D60"/>
<path d="M291.865 456.455C292.277 456.592 293.193 454.646 295.219 453.136C297.244 451.625 299.328 451.19 299.305 450.755C299.282 450.32 296.729 450.079 294.314 451.899C291.899 453.719 291.407 456.363 291.865 456.455Z" fill="#3B4D60"/>
<path d="M292.228 466.437C292.582 466.666 293.899 465.178 296.108 464.434C298.317 463.69 300.263 463.941 300.4 463.541C300.537 463.14 298.34 462.041 295.616 463.014C292.892 463.987 291.861 466.288 292.228 466.437Z" fill="#3B4D60"/>
<path d="M300.792 475.148C301.021 474.816 299.201 473.511 296.614 473.74C294.028 473.969 292.459 475.537 292.734 475.834C293.009 476.132 294.611 475.388 296.74 475.228C298.869 475.067 300.609 475.537 300.792 475.148Z" fill="#3B4D60"/>
<path d="M282.341 452.175C282.765 452.175 282.891 450.081 283.875 447.86C284.859 445.64 286.233 444.117 285.97 443.785C285.706 443.453 283.68 444.632 282.536 447.219C281.391 449.806 281.952 452.255 282.341 452.175Z" fill="#3B4D60"/>
<path d="M273.251 446.623C273.423 446.68 274.247 445.18 274.75 442.479C275.024 440.888 275.109 439.271 275.002 437.66C274.931 436.707 274.801 435.759 274.613 434.822C274.518 434.265 274.34 433.725 274.086 433.219C273.9 432.849 273.594 432.551 273.219 432.375C272.843 432.199 272.419 432.153 272.015 432.246C271.659 432.345 271.332 432.526 271.06 432.774C270.787 433.023 270.577 433.332 270.447 433.677C270.254 434.2 270.135 434.747 270.092 435.303C269.982 436.264 269.963 437.233 270.035 438.198C270.16 439.829 270.546 441.429 271.179 442.937C272.255 445.501 273.468 446.703 273.652 446.6C273.835 446.497 272.919 445.066 272.175 442.582C271.738 441.136 271.492 439.639 271.442 438.13C271.415 437.246 271.461 436.362 271.58 435.486C271.671 434.524 271.935 433.78 272.404 433.7C272.587 433.7 272.644 433.7 272.839 433.963C273.011 434.328 273.138 434.712 273.217 435.108C273.416 435.976 273.565 436.855 273.663 437.741C273.827 439.261 273.85 440.794 273.732 442.319C273.549 444.917 273.033 446.543 273.251 446.623Z" fill="#3B4D60"/>
<path d="M274.031 446.302C274.145 446.188 272.989 444.86 270.425 443.75C268.927 443.1 267.327 442.713 265.698 442.605C264.727 442.556 263.753 442.602 262.79 442.742C262.164 442.766 261.554 442.951 261.021 443.28C260.487 443.609 260.048 444.07 259.746 444.62C259.618 444.988 259.598 445.386 259.689 445.765C259.781 446.145 259.979 446.49 260.261 446.76C260.665 447.152 261.124 447.483 261.623 447.744C262.496 448.225 263.438 448.569 264.416 448.763C266.044 449.108 267.733 449.037 269.326 448.557C272.062 447.733 273.161 446.268 273.035 446.142C272.909 446.016 271.592 447.046 269.086 447.538C267.637 447.814 266.146 447.775 264.713 447.424C263.889 447.213 263.096 446.894 262.356 446.474C261.52 446.016 260.936 445.432 261.142 445.135C261.348 444.837 262.207 444.265 263.031 444.185C263.893 444.039 264.766 443.97 265.641 443.979C267.143 444.011 268.633 444.25 270.07 444.688C272.531 445.524 273.882 446.508 274.031 446.302Z" fill="#3B4D60"/>
<path d="M209.91 389.738L145.812 419.498L182.44 499.483C189.857 495.523 186.263 447.117 186.263 447.117L228.144 429.742L209.91 389.738Z" fill="#E76F51"/>
<g opacity="0.6">
<path d="M178.351 420.789C177.766 420.126 176.956 419.702 176.077 419.599C175.199 419.495 174.313 419.72 173.59 420.228C172.903 420.788 172.459 421.59 172.35 422.469C172.241 423.348 172.476 424.235 173.006 424.944C174.15 426.318 176.772 426.73 178.042 425.505C179.313 424.28 179.519 421.602 178.111 420.538" fill="white"/>
</g>
<path d="M145.777 419.485L152.244 416.486L184.992 494.457C184.992 494.457 185.072 498.726 182.382 499.47L145.777 419.485Z" fill="#3B4D60"/>
<path d="M187.215 448.215C186.814 448.387 185.739 446.51 183.61 445.159C181.481 443.808 179.363 443.545 179.352 443.11C179.34 442.675 181.87 442.229 184.422 443.911C186.975 445.594 187.604 448.135 187.215 448.215Z" fill="#3B4D60"/>
<path d="M187.579 458.196C187.235 458.459 185.804 457.051 183.538 456.502C181.272 455.952 179.36 456.341 179.2 455.952C179.04 455.563 181.134 454.292 183.927 455.048C186.72 455.803 187.945 458.012 187.579 458.196Z" fill="#3B4D60"/>
<path d="M179.695 467.558C179.454 467.238 181.148 465.796 183.746 465.819C186.345 465.842 188.039 467.284 187.787 467.604C187.535 467.925 185.875 467.307 183.746 467.318C181.617 467.33 179.935 467.925 179.695 467.558Z" fill="#3B4D60"/>
<path d="M196.313 443.2C195.878 443.2 195.604 441.151 194.436 439.022C193.269 436.893 191.792 435.474 192.044 435.119C192.296 434.764 194.425 435.783 195.764 438.324C197.103 440.865 196.703 443.246 196.313 443.2Z" fill="#3B4D60"/>
<path d="M204.93 436.906C204.77 436.986 203.785 435.544 203.122 432.889C202.712 431.326 202.496 429.719 202.481 428.104C202.477 427.151 202.535 426.2 202.652 425.254C202.693 424.687 202.824 424.131 203.041 423.606C203.196 423.219 203.477 422.896 203.839 422.688C204.2 422.48 204.621 422.4 205.033 422.461C205.397 422.525 205.74 422.676 206.033 422.901C206.326 423.126 206.56 423.419 206.716 423.755C206.948 424.298 207.099 424.873 207.162 425.46C207.345 426.411 207.441 427.376 207.448 428.344C207.454 429.971 207.207 431.589 206.716 433.14C205.846 435.784 204.678 437.089 204.541 436.986C204.404 436.883 205.136 435.407 205.685 432.866C206.006 431.393 206.133 429.885 206.063 428.379C206.024 427.493 205.909 426.612 205.72 425.746C205.56 424.808 205.239 424.075 204.758 424.029C204.575 424.029 204.518 424.029 204.346 424.327C204.207 424.695 204.115 425.08 204.072 425.472C203.938 426.355 203.858 427.245 203.831 428.138C203.78 429.67 203.876 431.203 204.117 432.717C204.564 435.304 205.148 436.906 204.93 436.906Z" fill="#3B4D60"/>
<path d="M204.143 436.701C204.017 436.586 205.059 435.167 207.52 433.873C209.844 432.674 212.454 432.139 215.062 432.328C215.69 432.301 216.314 432.436 216.873 432.721C217.433 433.006 217.909 433.43 218.256 433.954C218.41 434.314 218.458 434.711 218.395 435.098C218.332 435.485 218.161 435.846 217.901 436.14C217.527 436.56 217.095 436.927 216.619 437.227C215.786 437.773 214.876 438.19 213.918 438.463C212.321 438.929 210.634 438.992 209.008 438.646C206.215 438.028 205.001 436.621 205.116 436.517C205.23 436.414 206.627 437.319 209.168 437.662C210.634 437.825 212.118 437.669 213.517 437.204C214.331 436.934 215.102 436.548 215.806 436.06C216.596 435.545 217.146 434.915 216.951 434.64C216.705 434.372 216.403 434.162 216.067 434.023C215.731 433.885 215.368 433.822 215.005 433.839C214.13 433.753 213.248 433.753 212.373 433.839C210.88 433.981 209.415 434.336 208.023 434.892C205.562 435.762 204.292 436.907 204.143 436.701Z" fill="#3B4D60"/>
<path d="M181.638 339.203C181.638 339.203 126.399 318.6 106.094 321.232C94.7278 322.732 76.9521 331.408 75.59 345.979C74.228 360.55 77.7991 380.042 97.452 389.531C117.105 399.02 195.556 434.228 214.202 439.642C232.847 445.056 279.273 457.761 279.273 457.761L296.922 407.398C296.922 407.398 200.604 374.045 195.522 370.313C190.44 366.582 177.563 361.511 177.563 361.511L181.638 339.203Z" fill="#3B4D60"/>
<path d="M373.669 346.036L373.28 345.944L372.135 345.601C371.162 345.314 369.72 344.891 367.843 344.456C362.548 343.112 357.059 342.705 351.624 343.254C347.876 343.575 344.171 344.281 340.567 345.36C338.567 345.966 336.619 346.732 334.741 347.649L328.732 350.591C320.468 354.54 311.231 358.603 301.41 362.461C281.723 370.347 262.825 374.09 249.353 377.157C242.6 378.645 237.129 379.882 233.329 380.774L228.991 381.804L227.846 382.056L227.457 382.125C227.571 382.063 227.695 382.02 227.823 381.999L228.968 381.69C229.952 381.427 231.394 381.015 233.283 380.545C237.026 379.584 242.44 378.256 249.227 376.745C262.688 373.575 281.528 369.775 301.147 361.865C310.967 357.985 320.193 353.968 328.457 350.042L334.478 347.134C336.385 346.213 338.364 345.447 340.395 344.845C344.032 343.767 347.773 343.08 351.555 342.796C357.055 342.27 362.604 342.743 367.935 344.193C369.812 344.673 371.242 345.131 372.215 345.463L373.303 345.864L373.669 346.036Z" fill="#455A64"/>
<path d="M370.762 338.757C370.762 338.86 369.08 338.55 366.378 338.264C359.327 337.487 352.195 337.854 345.26 339.352C342.594 339.913 340.968 340.382 340.945 340.29C341.307 340.094 341.691 339.944 342.09 339.844C342.811 339.592 343.876 339.272 345.203 338.94C348.673 338.07 352.219 337.541 355.791 337.36C359.358 337.181 362.934 337.342 366.47 337.841C367.832 338.047 368.919 338.253 369.663 338.425C370.04 338.496 370.409 338.607 370.762 338.757Z" fill="#455A64"/>
<path d="M158.402 353.806C158.344 353.887 156.811 352.662 154.167 351.071C147.26 346.775 139.497 344.041 131.423 343.059C128.333 342.669 126.398 342.635 126.398 342.532C126.848 342.451 127.305 342.424 127.761 342.452C128.642 342.452 129.912 342.452 131.469 342.635C139.648 343.413 147.51 346.192 154.361 350.727C155.399 351.402 156.4 352.132 157.36 352.914C157.745 353.164 158.095 353.464 158.402 353.806Z" fill="#455A64"/>
<path d="M186.122 428.894L186.557 429.055L187.805 429.581C188.949 430.039 190.529 430.794 192.692 431.63C196.996 433.335 203.349 435.67 211.51 438.36C227.82 443.683 251.273 450.482 279.339 457.544L279.03 457.715L296.107 410.317L296.268 410.695L275.115 402.008L158.102 353.808C153.341 348.772 148.945 344.331 144.848 340.737C141.365 337.665 137.649 334.867 133.734 332.37C131.27 330.819 128.726 329.402 126.111 328.123L124.062 327.162L123.375 326.818L124.085 327.116L126.156 328.02C128.8 329.257 131.368 330.648 133.848 332.187C137.799 334.658 141.546 337.441 145.054 340.508C149.197 344.079 153.604 348.52 158.388 353.533H158.32L275.344 401.424L296.497 410.111L296.748 410.214L296.657 410.489L279.488 457.864L279.408 458.093L279.167 458.036C251.102 450.916 227.66 444.049 211.361 438.578C203.211 435.853 196.87 433.461 192.578 431.71C190.426 430.863 188.824 430.073 187.725 429.592L186.489 429.032L186.122 428.894Z" fill="#455A64"/>
<path d="M322.655 163.15C322.655 163.15 338.565 172.307 341.793 183.078C343.75 189.614 358.585 273.239 360.931 289.721C363.277 306.203 358.321 318.428 351.293 323.899C344.266 329.37 322.942 336.65 322.942 336.65L293.01 346.367L284.414 324.483L312.915 283.529L310.179 255.863L322.655 163.15Z" fill="#E76F51"/>
<path d="M291.392 148.706L279.442 141.838C279.442 141.838 268.557 154.566 253.712 153.01C238.866 151.453 230.053 140.133 230.053 140.133L185.779 149.141C182.815 149.736 177.401 151.613 172.216 159.019C166.435 167.271 139.022 203.887 139.022 203.887H119.884C117.292 203.887 114.75 204.595 112.531 205.934C110.312 207.274 108.501 209.194 107.294 211.488C104.02 217.726 100.094 226.058 100.426 229.515C101.078 235.364 99.9452 251.4 107.786 256.402C110.27 257.993 119.152 262.754 126.099 262.434C136.275 261.953 148.099 256.654 154.909 251.892C160.632 247.852 174.081 233.91 179.244 228.473V228.588L182.563 344.708L298.626 341.412L322.663 163.174C322.663 163.174 292.559 148.706 291.392 148.706Z" fill="#E76F51"/>
<path d="M178.819 179.828C178.98 179.828 179.289 194.216 179.495 211.969C179.701 229.721 179.747 244.121 179.575 244.121C179.403 244.121 179.106 229.733 178.9 211.98C178.693 194.227 178.659 179.828 178.819 179.828Z" fill="#3B4D60"/>
<path d="M336.71 273.696C336.71 273.696 335.726 273.856 333.975 274.188C331.501 274.681 329.09 275.449 326.787 276.478C323.378 278.016 320.165 279.956 317.218 282.258C313.605 285.085 310.233 288.205 307.134 291.586C303.814 295.169 300.793 298.706 297.977 301.888C295.477 304.69 292.837 307.364 290.068 309.9C288.194 311.616 286.21 313.207 284.127 314.662C283.395 315.177 282.788 315.52 282.387 315.806C282.192 315.946 281.981 316.061 281.758 316.15C281.929 315.983 282.117 315.833 282.319 315.703C282.696 315.417 283.28 315.039 283.99 314.49C286.015 312.98 287.948 311.352 289.781 309.614C292.128 307.439 294.749 304.669 297.565 301.499C300.381 298.328 303.402 294.78 306.722 291.197C309.847 287.798 313.255 284.669 316.909 281.846C319.902 279.542 323.17 277.62 326.638 276.123C328.98 275.119 331.436 274.404 333.952 273.994C334.845 273.822 335.543 273.822 336.012 273.765C336.241 273.713 336.476 273.69 336.71 273.696Z" fill="#3B4D60"/>
<path d="M339.344 265.834C339.344 265.937 337.581 266.189 334.765 266.978C327.529 268.981 320.963 272.891 315.753 278.299C313.762 280.37 312.697 281.812 312.617 281.732C312.794 281.352 313.017 280.994 313.281 280.668C313.943 279.732 314.666 278.842 315.444 278.001C320.557 272.349 327.247 268.362 334.651 266.555C335.764 266.281 336.891 266.071 338.027 265.925C338.46 265.834 338.903 265.803 339.344 265.834Z" fill="#3B4D60"/>
<g opacity="0.3">
<path d="M123.32 245.449C129.467 247.12 136.838 238.284 142.424 232.755C145.32 229.871 148.341 226.803 149.417 222.854C150.173 219.536 149.832 216.062 148.444 212.954C147.415 210.151 146.043 207.487 144.358 205.021C144.873 209.794 146.052 217.097 144.45 223.095C143.111 228.097 139.94 232.069 136.575 235.846C133.027 239.84 128.814 244.03 123.32 245.449Z" fill="black"/>
</g>
<path d="M149.588 240.388C149.474 240.388 150.184 238.362 150.733 235.032C151.066 233.083 151.254 231.113 151.294 229.137C151.335 226.72 151.174 224.304 150.813 221.914C150.418 219.528 149.829 217.177 149.05 214.886C148.398 213.019 147.61 211.202 146.692 209.45C145.124 206.451 143.831 204.78 143.923 204.711C144.283 205.054 144.602 205.438 144.873 205.856C145.234 206.308 145.566 206.782 145.868 207.275C146.235 207.847 146.67 208.488 147.07 209.244C148.046 210.99 148.881 212.812 149.565 214.692C150.388 217.005 151.001 219.388 151.397 221.811C151.769 224.238 151.919 226.694 151.843 229.148C151.782 231.152 151.548 233.148 151.145 235.112C151.008 235.959 150.79 236.691 150.619 237.401C150.48 237.962 150.311 238.516 150.115 239.061C149.982 239.519 149.806 239.963 149.588 240.388Z" fill="#3B4D60"/>
<path d="M234.907 144.621C234.987 144.77 233.625 145.56 232.206 146.842C230.786 148.124 229.825 149.371 229.688 149.268C230.186 148.173 230.908 147.194 231.807 146.394C232.705 145.593 233.761 144.99 234.907 144.621Z" fill="#3B4D60"/>
<path d="M246.981 151.637C247.107 151.763 245.94 153.01 245.001 154.864C244.062 156.719 243.708 158.39 243.536 158.298C243.454 156.976 243.781 155.661 244.474 154.533C245 153.337 245.874 152.328 246.981 151.637Z" fill="#3B4D60"/>
<path d="M267.668 158.917C267.114 157.818 266.67 156.668 266.34 155.483C265.835 154.355 265.451 153.177 265.195 151.969C266.005 152.939 266.598 154.071 266.935 155.288C267.441 156.43 267.691 157.668 267.668 158.917Z" fill="#3B4D60"/>
<path d="M280.977 152.62C280.794 152.62 280.348 150.64 279.032 148.499C277.715 146.359 276.159 145.008 276.285 144.871C277.676 145.63 278.812 146.786 279.547 148.19C280.451 149.493 280.949 151.034 280.977 152.62Z" fill="#3B4D60"/>
<path d="M319.185 190.232C319.356 190.232 317.388 206.12 314.801 225.658C312.214 245.196 309.982 261.026 309.822 261.003C309.661 260.981 311.619 245.128 314.206 225.578C316.792 206.028 319.024 190.21 319.185 190.232Z" fill="#3B4D60"/>
<path d="M145.263 215.918C145.308 216.463 145.308 217.01 145.263 217.555C145.232 218.197 145.152 218.836 145.023 219.466C144.954 219.844 144.897 220.233 144.817 220.611C144.737 220.989 144.611 221.458 144.485 221.916C143.92 224.063 143.154 226.151 142.196 228.154C140.993 230.591 139.563 232.909 137.926 235.079C136.242 237.231 134.322 239.189 132.203 240.916C130.459 242.313 128.534 243.468 126.48 244.35C126.034 244.522 125.622 244.716 125.221 244.865L124.076 245.186L123.069 245.46C122.76 245.529 122.463 245.54 122.199 245.586C121.658 245.672 121.111 245.714 120.562 245.712C122.525 245.324 124.442 244.737 126.286 243.961C128.261 243.052 130.115 241.898 131.803 240.527C133.844 238.818 135.7 236.899 137.342 234.804C138.956 232.67 140.374 230.394 141.577 228.005C142.545 226.04 143.342 223.995 143.958 221.893C144.496 219.925 144.932 217.931 145.263 215.918Z" fill="#3B4D60"/>
<g opacity="0.3">
<path d="M315.456 348.657C320.377 346.276 321.499 339.9 322.003 334.452C323.468 318.512 324.937 302.56 326.409 286.596C327.108 279.099 327.44 270.572 322.152 265.169C317.321 260.27 309.641 259.984 302.762 260.007C260.297 260.121 222.788 261.369 180.289 261.483L182.452 335.78L315.456 348.657Z" fill="black"/>
</g>
<path d="M162.008 272.999L166.529 359.165C166.623 360.775 167.33 362.287 168.506 363.39C169.681 364.493 171.235 365.103 172.847 365.094L310.108 365.335C311.723 365.34 313.279 364.726 314.454 363.619C315.63 362.511 316.336 360.995 316.426 359.383L321.657 274.682C321.84 271.157 319.368 266.475 315.774 266.407H168.452C167.587 266.383 166.726 266.539 165.924 266.864C165.121 267.189 164.395 267.677 163.79 268.296C163.185 268.915 162.714 269.652 162.408 270.461C162.101 271.271 161.965 272.135 162.008 272.999Z" fill="#E0E0E0"/>
<path d="M162.007 272.998C162.007 272.998 162.007 272.884 162.007 272.678C161.977 272.358 161.977 272.036 162.007 271.717C162.194 270.459 162.761 269.289 163.632 268.363C164.271 267.679 165.053 267.143 165.922 266.795C166.984 266.413 168.115 266.257 169.241 266.337H177.585L230.763 266.245L309.638 266.165H315.247C316.241 266.112 317.227 266.364 318.074 266.886C318.909 267.418 319.623 268.12 320.169 268.947C321.291 270.585 321.894 272.523 321.897 274.509C321.782 276.421 321.668 278.355 321.554 280.301C321.073 288.054 320.584 295.963 320.088 304.029C319.104 320.156 318.074 336.845 317.009 353.945L316.815 357.15C316.723 358.214 316.746 359.245 316.552 360.366C316.331 361.462 315.835 362.484 315.11 363.335C314.385 364.186 313.455 364.839 312.408 365.231C311.378 365.596 310.282 365.741 309.192 365.654H299.749H275.105L228.52 365.551L186.364 365.448H176.635H174.311C173.522 365.448 172.743 365.448 171.919 365.368C170.313 365.142 168.848 364.326 167.81 363.079C166.797 361.863 166.253 360.324 166.276 358.741C166.196 357.241 166.128 355.765 166.047 354.3C165.899 351.358 165.75 348.497 165.601 345.692C164.456 323.27 163.552 305.128 162.911 292.583C162.614 286.322 162.373 281.457 162.213 278.138C162.144 276.49 162.087 275.242 162.041 274.383C161.996 273.525 162.041 273.102 162.041 273.102C162.041 273.102 162.041 273.536 162.144 274.383C162.247 275.23 162.27 276.49 162.362 278.126C162.556 281.446 162.831 286.31 163.186 292.571C163.861 305.162 164.846 323.258 166.059 345.67C166.208 348.474 166.368 351.335 166.528 354.277C166.597 355.742 166.677 357.219 166.757 358.718C166.734 360.202 167.246 361.644 168.199 362.781C169.167 363.935 170.53 364.686 172.022 364.887C172.783 364.956 173.548 364.978 174.311 364.956H186.41H228.566L275.151 365.025H299.795H309.238C310.257 365.106 311.283 364.974 312.248 364.636C313.199 364.28 314.045 363.688 314.703 362.915C315.362 362.142 315.813 361.213 316.014 360.217C316.185 359.245 316.185 358.123 316.265 357.081L316.46 353.876C317.525 336.776 318.555 320.088 319.562 303.971C320.058 295.898 320.546 287.985 321.027 280.232C321.153 278.298 321.267 276.375 321.382 274.452C321.374 272.589 320.808 270.771 319.757 269.233C319.304 268.449 318.651 267.801 317.864 267.354C317.077 266.907 316.186 266.679 315.281 266.692H309.684H230.809L177.631 266.612H169.287C168.182 266.526 167.071 266.67 166.025 267.035C165.012 267.426 164.118 268.073 163.432 268.914C162.745 269.755 162.29 270.76 162.11 271.831C162.056 272.218 162.022 272.608 162.007 272.998Z" fill="#3B4D60"/>
<path d="M242.85 323.109C247.313 323.109 250.931 319.491 250.931 315.028C250.931 310.565 247.313 306.947 242.85 306.947C238.387 306.947 234.77 310.565 234.77 315.028C234.77 319.491 238.387 323.109 242.85 323.109Z" fill="white"/>
<path d="M250.932 315.028C250.875 315.028 250.932 314.307 250.566 313.083C250.092 311.354 249.052 309.835 247.613 308.767C246.637 308.03 245.499 307.536 244.294 307.325C242.919 307.085 241.506 307.212 240.196 307.691C238.744 308.216 237.484 309.165 236.579 310.416C235.656 311.678 235.133 313.188 235.077 314.751C235.021 316.314 235.436 317.857 236.266 319.182C237.097 320.507 238.306 321.553 239.737 322.183C241.168 322.814 242.755 323.001 244.294 322.72C245.499 322.51 246.637 322.015 247.613 321.278C249.05 320.213 250.09 318.698 250.566 316.974C250.898 315.749 250.875 315.017 250.932 315.028C250.962 315.199 250.962 315.373 250.932 315.543C250.939 316.045 250.881 316.545 250.761 317.031C250.344 318.848 249.313 320.465 247.842 321.61C246.742 322.467 245.443 323.032 244.066 323.252C242.689 323.472 241.279 323.34 239.967 322.869C238.742 322.431 237.636 321.713 236.738 320.771C235.84 319.829 235.176 318.689 234.797 317.444C234.419 316.199 234.338 314.883 234.56 313.601C234.781 312.319 235.301 311.106 236.075 310.061C237.051 308.725 238.407 307.715 239.967 307.165C241.372 306.662 242.886 306.548 244.351 306.833C245.605 307.085 246.781 307.63 247.785 308.424C249.261 309.564 250.293 311.183 250.703 313.002C250.825 313.485 250.882 313.981 250.875 314.479C250.926 314.657 250.946 314.843 250.932 315.028Z" fill="#3B4D60"/>
<path d="M166.63 282.533C166.791 282.533 167.477 297.012 168.141 314.88C168.805 332.747 169.217 347.238 169.057 347.238C168.897 347.238 168.244 332.747 167.546 314.891C166.848 297.035 166.47 282.545 166.63 282.533Z" fill="#3B4D60"/>
<path d="M125.379 170.11C124.566 169.423 128.092 155.894 128.092 155.894C128.092 155.894 118.774 140.705 118.534 135.806C118.294 130.908 122.208 120.858 122.208 120.858L148.912 113.99C148.912 113.99 157.496 129.923 159.213 135.555C160.93 141.186 156.272 160.301 156.272 160.301L151.693 170.11C151.693 170.11 138.095 180.892 125.379 170.11Z" fill="#E9C46A"/>
<path d="M118.581 138.735C117.536 136.808 116.596 134.824 115.765 132.795C114.083 128.789 112 124.851 115.765 122.608C116.353 122.221 117.017 121.965 117.712 121.856C118.407 121.748 119.117 121.789 119.794 121.978C119.794 121.978 119.222 118.544 121.237 117.331C121.823 116.965 122.487 116.743 123.176 116.683C123.864 116.624 124.557 116.728 125.197 116.988C125.197 116.988 124.556 112.226 127.486 110.212C128.577 109.492 129.846 109.09 131.152 109.051C132.458 109.013 133.749 109.339 134.88 109.994C134.88 109.994 132.591 89.151 132.385 88.0522C131.653 84.0002 133.152 80.4062 137.181 81.4134C138.658 81.7797 139.47 83.3364 141.21 90.1239C142.95 96.9114 145.731 108.495 145.731 108.495C145.731 108.495 150.424 116.644 152.599 121.085C154.774 125.527 159.203 135.576 159.569 138.255C160.508 145.122 156.468 154.279 156.468 154.279L128.081 155.927L118.581 138.735Z" fill="#E9C46A"/>
<path d="M120.358 122.871C121.167 123.836 121.902 124.862 122.556 125.939L124.845 129.372C125.309 130.049 125.718 130.761 126.07 131.501C126.469 132.347 126.585 133.298 126.402 134.214C126.315 134.693 126.103 135.14 125.788 135.51C125.472 135.88 125.064 136.16 124.604 136.32C123.747 136.535 122.841 136.42 122.063 136C121.395 135.679 120.759 135.296 120.163 134.855C119.614 134.455 119.099 134.065 118.641 133.711C117.714 132.989 117.004 132.371 116.524 131.925C116.043 131.479 115.791 131.227 115.814 131.192C115.837 131.158 116.959 132.028 118.893 133.367C119.974 134.181 121.123 134.901 122.327 135.519C122.984 135.865 123.745 135.959 124.467 135.782C124.828 135.652 125.146 135.426 125.39 135.13C125.633 134.834 125.793 134.478 125.852 134.1C125.998 133.325 125.898 132.525 125.566 131.81C125.237 131.096 124.854 130.407 124.421 129.75L122.281 126.316C121.545 125.224 120.901 124.071 120.358 122.871Z" fill="#E9C46A"/>
<path d="M143.638 125.356C143.393 123.865 143.495 122.338 143.935 120.892C144.192 119.401 144.8 117.993 145.709 116.783C145.869 116.863 145.08 118.683 144.565 121.03C144.05 123.376 143.821 125.356 143.638 125.356Z" fill="#E9C46A"/>
<path d="M154.899 131.444C152.279 128.908 148.978 127.186 145.399 126.488C141.835 125.802 138.188 125.663 134.582 126.076C131.698 126.339 128.39 127.083 127.085 129.67C125.78 132.257 127.36 135.759 129.912 137.282C132.465 138.804 135.635 138.873 138.623 138.609C141.61 138.346 144.586 137.785 147.539 138.243" fill="#E9C46A"/>
<path d="M147.538 138.243C147.538 138.243 146.737 138.163 145.249 138.243C143.215 138.332 141.186 138.523 139.171 138.816C137.756 138.996 136.327 139.058 134.902 138.999C133.24 138.942 131.609 138.532 130.117 137.797C128.453 136.92 127.184 135.443 126.569 133.665C126.242 132.716 126.171 131.697 126.363 130.712C126.607 129.696 127.154 128.778 127.931 128.079C129.508 126.86 131.404 126.125 133.391 125.962C135.18 125.751 136.98 125.644 138.782 125.641C141.847 125.585 144.9 126.046 147.813 127.003C149.772 127.662 151.604 128.653 153.227 129.934C153.67 130.284 154.087 130.667 154.474 131.078C154.62 131.21 154.747 131.36 154.852 131.525C154.852 131.525 154.257 130.987 153.089 130.14C151.44 128.954 149.613 128.038 147.675 127.427C144.801 126.542 141.8 126.132 138.793 126.214C137.014 126.233 135.237 126.352 133.471 126.568C131.602 126.718 129.817 127.406 128.332 128.549C127.648 129.153 127.165 129.952 126.947 130.838C126.768 131.719 126.827 132.631 127.118 133.482C127.681 135.127 128.847 136.497 130.38 137.316C131.807 138.02 133.369 138.41 134.959 138.461C136.356 138.538 137.757 138.503 139.148 138.358C141.182 138.092 143.232 137.959 145.283 137.957C145.839 137.982 146.393 138.036 146.943 138.117C147.146 138.13 147.347 138.172 147.538 138.243Z" fill="#E9C46A"/>
<path d="M120.562 123.205C123.55 127.783 126.183 132.728 128.701 137.535C129.302 139.007 130.291 140.289 131.562 141.244C132.638 141.908 135.305 140.706 136.507 140.294L128.3 121.637" fill="#E9C46A"/>
<path d="M128.3 121.637C128.587 122.074 128.832 122.538 129.033 123.022L130.841 126.936C132.363 130.256 134.447 134.948 136.77 140.179L136.907 140.465L136.598 140.58C135.717 140.889 134.767 141.29 133.737 141.553C133.324 141.655 132.903 141.717 132.478 141.736C132.254 141.747 132.031 141.724 131.814 141.667C131.588 141.612 131.376 141.506 131.196 141.358C130.535 140.882 129.972 140.284 129.536 139.596C128.701 138.268 128.105 136.94 127.43 135.715C126.148 133.232 124.969 131.011 123.939 129.157C122.909 127.303 122.062 125.826 121.455 124.807C121.121 124.294 120.823 123.759 120.562 123.205C120.974 123.663 121.338 124.162 121.65 124.693C122.314 125.666 123.241 127.119 124.305 128.951C125.37 130.782 126.595 132.98 127.922 135.452C128.598 136.677 129.227 138.027 130.028 139.275C130.426 139.896 130.935 140.439 131.528 140.878C131.844 141.042 132.192 141.135 132.548 141.151C132.904 141.167 133.259 141.105 133.588 140.969C134.561 140.729 135.488 140.34 136.404 140.019L136.198 140.454C133.909 135.177 131.871 130.496 130.475 127.131L128.827 123.148C128.607 122.66 128.431 122.155 128.3 121.637Z" fill="#E9C46A"/>
<path d="M126.09 116.084C128.722 122.7 131.359 129.312 133.999 135.92C134.48 137.358 135.199 138.704 136.128 139.903C136.597 140.498 137.207 140.968 137.902 141.269C138.597 141.571 139.356 141.695 140.111 141.631C142.172 141.334 143.545 139.148 143.625 137.053C143.562 134.963 143.055 132.911 142.137 131.032C139.772 124.999 137.877 118.792 136.471 112.467" fill="#E9C46A"/>
<path d="M136.473 112.48C136.552 112.678 136.617 112.88 136.667 113.087C136.793 113.545 136.942 114.129 137.136 114.838C137.548 116.361 138.144 118.558 138.979 121.248C139.815 123.938 140.891 127.109 142.253 130.565C143.097 132.376 143.656 134.307 143.912 136.288C143.988 137.376 143.779 138.465 143.306 139.447C142.822 140.474 141.979 141.288 140.936 141.737C140.395 141.935 139.816 142.013 139.241 141.965C138.666 141.918 138.108 141.746 137.606 141.462C136.666 140.939 135.878 140.182 135.316 139.264C134.37 137.537 133.57 135.734 132.924 133.873C131.574 130.439 130.36 127.303 129.319 124.659C128.277 122.015 127.533 119.966 126.938 118.421L126.308 116.716C126.227 116.517 126.169 116.31 126.137 116.097C126.252 116.277 126.348 116.469 126.423 116.67L127.155 118.329C127.785 119.863 128.655 121.958 129.708 124.499C130.761 127.04 131.997 130.222 133.439 133.656C134.084 135.473 134.876 137.234 135.809 138.921C136.328 139.759 137.058 140.446 137.926 140.912C138.355 141.153 138.83 141.299 139.319 141.341C139.809 141.382 140.302 141.318 140.765 141.153C141.678 140.755 142.412 140.033 142.825 139.127C143.256 138.238 143.445 137.251 143.374 136.265C143.121 134.361 142.584 132.506 141.783 130.76C140.444 127.326 139.403 124.064 138.624 121.363C137.846 118.661 137.297 116.418 136.953 114.884C136.793 114.106 136.667 113.511 136.598 113.099C136.524 112.9 136.482 112.692 136.473 112.48Z" fill="#E9C46A"/>
<path d="M126.719 162.591C126.719 162.591 108.612 215.998 107.891 218.608C107.17 221.217 111.473 240.298 119.337 244.819C127.2 249.34 142.458 230.523 144.358 223.61C146.258 216.696 144.358 205.021 144.358 205.021L156.571 159.02" fill="#E9C46A"/>
<path d="M144.359 154.292C143.781 154.366 143.194 154.291 142.653 154.075C141.317 153.659 140.089 152.951 139.059 152.003C138.016 151.053 137.202 149.879 136.678 148.569C136.411 148.05 136.285 147.47 136.312 146.887C137.067 148.619 138.134 150.199 139.46 151.545C140.907 152.759 142.569 153.69 144.359 154.292Z" fill="#E9C46A"/>
<path d="M469.642 413.122C469.642 413.294 368.791 413.431 244.407 413.431C120.023 413.431 19.1484 413.294 19.1484 413.122C19.1484 412.95 119.988 412.824 244.407 412.824C368.826 412.824 469.642 412.962 469.642 413.122Z" fill="#3B4D60"/>
<path d="M174.514 30H46.055C42.7109 30 40 32.7109 40 36.055V71.6751C40 75.0192 42.7109 77.7301 46.055 77.7301H174.514C177.858 77.7301 180.569 75.0192 180.569 71.6751V36.055C180.569 32.7109 177.858 30 174.514 30Z" fill="#E76F51"/>
<path d="M60.9019 60.0762C60.1659 60.0817 59.5036 59.9586 58.9151 59.7069C58.3371 59.4445 57.8811 59.0852 57.5471 58.629C57.2129 58.1621 57.0383 57.6247 57.0231 57.0168L58.5751 57.0054C58.6323 57.5276 58.8489 57.9687 59.2249 58.3286C59.6115 58.6777 60.1674 58.8496 60.8928 58.8443C61.5861 58.8391 62.1288 58.6644 62.5209 58.3202C62.9236 57.9652 63.123 57.5157 63.119 56.9717C63.1158 56.5451 62.9959 56.1993 62.7593 55.9344C62.5226 55.6695 62.2278 55.469 61.8748 55.3329C61.5218 55.1968 61.046 55.051 60.4475 54.8954C59.7101 54.7089 59.1167 54.5213 58.6673 54.3326C58.2286 54.1438 57.8477 53.848 57.5247 53.445C57.2123 53.0313 57.0535 52.4778 57.0484 51.7845C57.0439 51.1765 57.1946 50.6367 57.5005 50.1651C57.8063 49.6935 58.2356 49.3277 58.7884 49.0676C59.3518 48.8074 59.9962 48.6746 60.7215 48.6693C61.7668 48.6615 62.622 48.9165 63.2872 49.4343C63.9631 49.952 64.3468 50.6425 64.4386 51.5058L62.8386 51.5177C62.7821 51.0914 62.5554 50.7197 62.1583 50.4027C61.7612 50.0749 61.2374 49.9135 60.5867 49.9183C59.9787 49.9228 59.4839 50.0864 59.1023 50.4093C58.7206 50.7214 58.5318 51.1602 58.536 51.7255C58.539 52.1308 58.6535 52.4607 58.8794 52.715C59.1159 52.9692 59.4 53.1645 59.7317 53.3007C60.074 53.4262 60.5497 53.572 61.159 53.7382C61.8965 53.9354 62.4899 54.1337 62.9394 54.333C63.3888 54.5217 63.7751 54.8228 64.0982 55.2364C64.4211 55.6394 64.5852 56.1929 64.5904 56.8969C64.5945 57.4408 64.4543 57.9539 64.1698 58.436C63.8854 58.9181 63.4616 59.3106 62.8985 59.6134C62.3354 59.9163 61.6698 60.0705 60.9019 60.0762ZM74.7204 55.1419C74.7224 55.4192 74.7086 55.7126 74.6789 56.0222L67.6711 56.074C67.7308 56.9376 68.0291 57.6128 68.5661 58.0995C69.1136 58.5754 69.7714 58.8106 70.5394 58.8049C71.1687 58.8002 71.6903 58.6524 72.1041 58.3613C72.5286 58.0595 72.8243 57.6626 72.9913 57.1707L74.5593 57.1591C74.3309 58.0035 73.8666 58.6949 73.1666 59.2335C72.4665 59.7613 71.5938 60.0291 70.5485 60.0369C69.7165 60.043 68.9685 59.8619 68.3044 59.4934C67.651 59.1249 67.1351 58.6007 66.7567 57.9209C66.3783 57.2303 66.1857 56.4317 66.179 55.5251C66.1723 54.6184 66.3477 53.8224 66.7053 53.1371C67.0629 52.4518 67.5657 51.9254 68.2137 51.5579C68.8722 51.1797 69.6282 50.9874 70.4815 50.9811C71.3134 50.9749 72.0508 51.1508 72.6934 51.5088C73.3361 51.8667 73.8305 52.3644 74.1765 53.0018C74.5332 53.6285 74.7144 54.3419 74.7204 55.1419ZM73.2142 54.849C73.2101 54.2943 73.0839 53.8206 72.8356 53.4278C72.5873 53.0242 72.2491 52.7227 71.8209 52.5232C71.4033 52.313 70.9386 52.2098 70.4266 52.2135C69.6906 52.219 69.063 52.4583 68.5438 52.9315C68.0353 53.4046 67.7468 54.0574 67.6783 54.89L73.2142 54.849ZM78.0455 47.9971L78.1331 59.8367L76.6771 59.8475L76.5895 48.0078L78.0455 47.9971ZM88.5794 55.0393C88.5814 55.3166 88.5676 55.6101 88.5379 55.9197L81.5301 55.9715C81.5898 56.8351 81.8881 57.5102 82.4251 57.9969C82.9726 58.4729 83.6304 58.708 84.3983 58.7024C85.0277 58.6977 85.5493 58.5498 85.9631 58.2588C86.3876 57.957 86.6833 57.5601 86.8503 57.0682L88.4183 57.0566C88.1899 57.9009 87.7256 58.5924 87.0256 59.1309C86.3255 59.6588 85.4528 59.9266 84.4075 59.9343C83.5755 59.9405 82.8275 59.7593 82.1634 59.3909C81.51 59.0224 80.9941 58.4982 80.6157 57.8183C80.2373 57.1278 80.0447 56.3292 80.038 55.4225C80.0313 54.5159 80.2067 53.7199 80.5643 53.0346C80.9219 52.3492 81.4247 51.8228 82.0727 51.4554C82.7312 51.0771 83.4872 50.8849 84.3405 50.8786C85.1724 50.8724 85.9098 51.0483 86.5524 51.4062C87.1951 51.7641 87.6895 52.2618 88.0355 52.8993C88.3922 53.526 88.5734 54.2393 88.5794 55.0393ZM87.0732 54.7465C87.0691 54.1918 86.9429 53.7181 86.6946 53.3252C86.4463 52.9217 86.1081 52.6202 85.6799 52.4207C85.2623 52.2105 84.7976 52.1072 84.2856 52.111C83.5496 52.1165 82.922 52.3558 82.4028 52.829C81.8943 53.3021 81.6058 53.9549 81.5373 54.7874L87.0732 54.7465ZM89.9596 55.3491C89.9529 54.4425 90.1283 53.6518 90.486 52.9772C90.8436 52.2918 91.3411 51.7601 91.9783 51.3821C92.6262 51.0039 93.3661 50.8118 94.1981 50.8056C95.2754 50.7977 96.1626 51.0524 96.8598 51.57C97.5676 52.0874 98.037 52.8093 98.2679 53.7356L96.6999 53.7472C96.5466 53.215 96.2502 52.7958 95.8106 52.4898C95.3816 52.1836 94.8472 52.0329 94.2072 52.0376C93.3752 52.0438 92.7054 52.3367 92.1976 52.9165C91.6898 53.4856 91.4398 54.2928 91.4475 55.3381C91.4553 56.3941 91.7174 57.2082 92.2336 57.7804C92.7499 58.3526 93.424 58.6356 94.256 58.6294C94.8959 58.6247 95.4282 58.4714 95.8526 58.1696C96.277 57.8678 96.5672 57.439 96.7231 56.8831L98.2911 56.8715C98.063 57.7692 97.599 58.4927 96.8991 59.0419C96.199 59.5804 95.321 59.8536 94.2651 59.8614C93.4331 59.8675 92.6904 59.6864 92.037 59.3179C91.3942 58.9493 90.889 58.425 90.5213 57.745C90.1536 57.0651 89.9664 56.2664 89.9596 55.3491ZM101.975 52.0921L102.013 57.26C102.016 57.6867 102.109 57.99 102.292 58.17C102.474 58.3393 102.789 58.4223 103.237 58.419L104.309 58.411L104.318 59.643L103.007 59.6527C102.196 59.6587 101.587 59.4765 101.178 59.1062C100.77 58.7359 100.563 58.1241 100.557 57.2708L100.519 52.1029L99.3826 52.1113L99.3737 50.9113L100.51 50.9029L100.493 48.695L101.949 48.6842L101.966 50.8922L104.254 50.8752L104.262 52.0752L101.975 52.0921ZM117.129 48.3959L117.138 49.5799L114.098 49.6024L114.172 59.5701L112.716 59.5809L112.642 49.6131L109.586 49.6358L109.578 48.4518L117.129 48.3959ZM126.969 54.7553C126.971 55.0326 126.957 55.3261 126.927 55.6356L119.92 55.6875C119.979 56.5511 120.278 57.2262 120.815 57.7129C121.362 58.1889 122.02 58.424 122.788 58.4183C123.417 58.4137 123.939 58.2658 124.353 57.9747C124.777 57.6729 125.073 57.2761 125.24 56.7841L126.808 56.7725C126.579 57.6169 126.115 58.3084 125.415 58.8469C124.715 59.3748 123.842 59.6426 122.797 59.6503C121.965 59.6564 121.217 59.4753 120.553 59.1069C119.9 58.7384 119.384 58.2142 119.005 57.5343C118.627 56.8437 118.434 56.0451 118.428 55.1385C118.421 54.2319 118.596 53.4359 118.954 52.7505C119.311 52.0652 119.814 51.5388 120.462 51.1713C121.121 50.7931 121.877 50.6009 122.73 50.5945C123.562 50.5884 124.299 50.7643 124.942 51.1222C125.585 51.4801 126.079 51.9778 126.425 52.6153C126.782 53.242 126.963 53.9553 126.969 54.7553ZM125.463 54.4624C125.459 53.9078 125.332 53.434 125.084 53.0412C124.836 52.6377 124.498 52.3362 124.069 52.1367C123.652 51.9264 123.187 51.8232 122.675 51.827C121.939 51.8324 121.312 52.0717 120.792 52.5449C120.284 53.018 119.995 53.6709 119.927 54.5034L125.463 54.4624ZM128.349 55.0491C128.342 54.1531 128.518 53.3678 128.876 52.6931C129.233 52.0078 129.725 51.4761 130.352 51.0982C130.989 50.7201 131.697 50.5282 132.476 50.5224C133.244 50.5168 133.911 50.6771 134.479 51.0036C135.047 51.3301 135.471 51.743 135.752 52.2422L135.741 50.6423L137.213 50.6314L137.277 59.3992L135.805 59.41L135.793 57.7781C135.509 58.2922 135.08 58.7221 134.507 59.0676C133.944 59.4025 133.284 59.5727 132.527 59.5783C131.748 59.5841 131.043 59.3973 130.41 59.0179C129.778 58.6386 129.278 58.1036 128.911 57.413C128.543 56.7224 128.356 55.9344 128.349 55.0491ZM135.773 55.0102C135.768 54.3488 135.63 53.7739 135.36 53.2852C135.09 52.7965 134.724 52.4258 134.264 52.1732C133.814 51.9099 133.317 51.7802 132.773 51.7843C132.229 51.7883 131.734 51.92 131.288 52.1793C130.842 52.4386 130.487 52.8145 130.224 53.3072C129.961 53.7998 129.832 54.3768 129.837 55.0381C129.842 55.7101 129.98 56.2957 130.25 56.7951C130.52 57.2838 130.88 57.6598 131.33 57.9231C131.78 58.1758 132.277 58.3001 132.821 58.2961C133.365 58.2921 133.86 58.1604 134.306 57.9011C134.763 57.631 135.123 57.2497 135.386 56.7571C135.649 56.2538 135.778 55.6715 135.773 55.0102ZM150.216 50.3752C150.898 50.3701 151.507 50.5096 152.043 50.7937C152.578 51.0671 153.002 51.4853 153.316 52.0483C153.63 52.6113 153.789 53.2982 153.795 54.1088L153.833 59.2767L152.394 59.2873L152.357 54.3275C152.35 53.4528 152.127 52.7878 151.686 52.3324C151.256 51.8662 150.673 51.6358 149.937 51.6413C149.18 51.6469 148.579 51.8967 148.134 52.3906C147.69 52.8739 147.471 53.5742 147.478 54.4916L147.514 59.3234L146.074 59.3341L146.037 54.3742C146.031 53.4996 145.807 52.8345 145.366 52.3791C144.936 51.913 144.353 51.6826 143.617 51.688C142.86 51.6936 142.259 51.9434 141.815 52.4374C141.37 52.9207 141.151 53.621 141.158 54.5383L141.194 59.3702L139.738 59.3809L139.673 50.6132L141.129 50.6024L141.138 51.8664C141.423 51.4056 141.804 51.0508 142.282 50.8019C142.771 50.5529 143.309 50.4263 143.896 50.4219C144.632 50.4165 145.284 50.577 145.851 50.9035C146.419 51.23 146.844 51.7122 147.126 52.3501C147.367 51.7296 147.769 51.2466 148.331 50.9011C148.894 50.5556 149.522 50.3803 150.216 50.3752ZM159.327 59.38C158.655 59.385 158.051 59.2775 157.516 59.0574C156.981 58.8267 156.558 58.5098 156.245 58.1068C155.933 57.6931 155.759 57.2197 155.723 56.6866L157.227 56.6755C157.273 57.1125 157.478 57.4683 157.843 57.743C158.218 58.0175 158.704 58.1526 159.302 58.1482C159.856 58.1441 160.293 58.0182 160.611 57.7705C160.929 57.5228 161.087 57.2123 161.084 56.839C161.081 56.455 160.908 56.1736 160.566 55.9948C160.223 55.8053 159.694 55.6225 158.978 55.4465C158.326 55.2806 157.791 55.1139 157.374 54.9463C156.967 54.768 156.613 54.5093 156.312 54.1702C156.022 53.8203 155.874 53.3627 155.87 52.7974C155.867 52.3494 155.997 51.9378 156.261 51.5625C156.525 51.1872 156.901 50.8911 157.39 50.6741C157.879 50.4465 158.438 50.3303 159.068 50.3257C160.038 50.3185 160.824 50.558 161.425 51.0443C162.026 51.5305 162.351 52.2001 162.4 53.0531L160.944 53.0639C160.909 52.6055 160.719 52.2389 160.376 51.9641C160.043 51.6892 159.594 51.5538 159.029 51.558C158.506 51.5619 158.091 51.677 157.783 51.9032C157.476 52.1295 157.323 52.424 157.326 52.7866C157.328 53.0746 157.421 53.314 157.603 53.5046C157.797 53.6845 158.032 53.8321 158.311 53.9474C158.599 54.0519 158.995 54.1717 159.497 54.3066C160.128 54.4726 160.641 54.6395 161.037 54.8072C161.433 54.9643 161.771 55.2072 162.05 55.5358C162.341 55.8643 162.493 56.2952 162.508 56.8284C162.512 57.3084 162.381 57.7414 162.118 58.1273C161.854 58.5133 161.477 58.8201 160.988 59.0477C160.51 59.2646 159.956 59.3754 159.327 59.38Z" fill="white"/>
<path d="M181.428 77.9919H57.8905C56.1893 77.9738 54.5637 77.2861 53.366 76.0777C52.1683 74.8693 51.4951 73.2376 51.4922 71.5363V36.5571C51.4952 34.846 52.1763 33.2057 53.3863 31.9957C54.5963 30.7857 56.2366 30.1046 57.9478 30.1016H181.428C183.139 30.1046 184.779 30.7857 185.989 31.9957C187.199 33.2057 187.88 34.846 187.883 36.5571V71.5363C187.88 73.2475 187.199 74.8877 185.989 76.0977C184.779 77.3077 183.139 77.9888 181.428 77.9919ZM57.8905 31.2462C56.4929 31.2642 55.1584 31.8313 54.1753 32.8251C53.1923 33.8188 52.6397 35.1594 52.6368 36.5571V71.5363C52.6368 72.9449 53.1963 74.2957 54.1923 75.2917C55.1883 76.2877 56.5392 76.8473 57.9478 76.8473H181.428C182.836 76.8473 184.187 76.2877 185.183 75.2917C186.179 74.2957 186.739 72.9449 186.739 71.5363V36.5571C186.736 35.1495 186.175 33.8004 185.18 32.8051C184.185 31.8097 182.835 31.2492 181.428 31.2462H57.8905Z" fill="#E76F51"/>
<path d="M182.678 76.939C181.727 76.0696 180.916 75.0579 180.274 73.9402C179.466 72.9357 178.817 71.8121 178.352 70.6094C179.305 71.4801 180.119 72.4914 180.767 73.6082C181.575 74.6113 182.22 75.7353 182.678 76.939Z" fill="#E76F51"/>
<path d="M187.315 40.0484C185.897 38.6077 184.628 37.0278 183.527 35.3326C182.267 33.7539 181.16 32.06 180.219 30.2734C181.637 31.7141 182.906 33.294 184.007 34.9892C185.271 36.5644 186.379 38.2588 187.315 40.0484Z" fill="#E76F51"/>
<path d="M186.821 70.632C186.649 70.7579 184.932 68.3428 183.055 65.115C182.105 63.5355 181.27 62.0933 180.686 61.0402C180.322 60.4925 180.023 59.9049 179.793 59.289C179.965 59.1745 181.682 61.6469 183.559 64.806C184.509 66.3855 185.344 67.8277 185.94 68.8808C186.303 69.4268 186.599 70.0148 186.821 70.632Z" fill="#E76F51"/>
<path d="M187.347 60.6289C187.176 60.7548 185.344 58.0879 183.318 54.6884C182.3 52.9829 181.395 51.4377 180.754 50.3045C180.37 49.7137 180.048 49.0846 179.793 48.4274C179.965 48.3129 181.796 50.9799 183.833 54.3793C184.852 56.0734 185.745 57.63 186.386 58.7517C186.773 59.3408 187.096 59.9702 187.347 60.6289Z" fill="#E76F51"/>
<path d="M187.335 50.7503C187.163 50.8762 185.32 48.1864 183.283 44.7754C182.253 43.07 181.348 41.5019 180.707 40.3687C180.315 39.7764 179.989 39.1431 179.734 38.4801C179.906 38.3656 181.749 41.044 183.786 44.4664C184.816 46.1718 185.721 47.7285 186.362 48.8731C186.757 49.4592 187.084 50.0891 187.335 50.7503Z" fill="#E76F51"/>
<path d="M36.4893 37.6681C34.0274 37.3355 31.5967 36.8034 29.221 36.0771C26.794 35.5418 24.4134 34.8146 22.1016 33.9023C24.5634 34.235 26.9941 34.767 29.3698 35.4933C31.7974 36.0264 34.1782 36.7537 36.4893 37.6681Z" fill="#3B4D60"/>
<path d="M37.8712 29.0721C35.1839 26.2714 32.6432 23.3334 30.2595 20.2701C27.72 17.3451 25.3359 14.2886 23.1172 11.1133C25.8014 13.9209 28.3418 16.8625 30.7288 19.9267C33.2617 22.8533 35.6455 25.9056 37.8712 29.0721Z" fill="#3B4D60"/>
<path d="M48.4852 24.9286C47.6597 23.0091 47.1309 20.9752 46.9171 18.8966C46.5033 16.8475 46.4183 14.7457 46.6653 12.6699C46.837 12.6699 46.9973 15.4399 47.5009 18.8165C48.0045 22.193 48.6569 24.8485 48.4852 24.9286Z" fill="#3B4D60"/>
</svg>
