<svg width="22" height="22" viewBox="0 0 22 22" fill="none" xmlns="http://www.w3.org/2000/svg">
<path d="M11 22C17.0751 22 22 17.0751 22 11C22 4.92487 17.0751 0 11 0C4.92487 0 0 4.92487 0 11C0 17.0751 4.92487 22 11 22Z" fill="#2A9D8F"/>
<path d="M10.9992 0C10.6711 0 10.3462 0.0143945 10.0254 0.0425391C15.6444 0.535434 20.0515 5.25306 20.0515 11C20.0515 16.7469 15.6444 21.4646 10.0254 21.9575C10.3462 21.9856 10.6711 22 10.9992 22C17.0744 22 21.9992 17.0751 21.9992 11C21.9992 4.92486 17.0744 0 10.9992 0Z" fill="#2A9D8F"/>
<path d="M10.9992 20.1183C9.15959 20.1183 7.29079 19.5032 6.39558 18.8955C6.24386 18.7926 6.20437 18.5861 6.30732 18.4344C6.41032 18.2827 6.61678 18.2432 6.76846 18.3461C7.39968 18.7746 9.10644 19.4543 10.9992 19.4543C15.6611 19.4543 19.454 15.6615 19.454 10.9995C19.454 6.33753 15.6611 2.54481 10.9992 2.54481C10.8159 2.54481 10.6672 2.39618 10.6672 2.21284C10.6672 2.02949 10.8159 1.88086 10.9992 1.88086C16.0273 1.88086 20.1179 5.97148 20.1179 10.9996C20.1179 16.0276 16.0273 20.1183 10.9992 20.1183Z" fill="white"/>
<path d="M9.47074 14.5983C9.27059 14.5983 9.07048 14.5219 8.91777 14.3692L6.3445 11.796C5.63397 11.0854 6.73719 9.97674 7.45043 10.69L9.47069 12.7103L14.549 7.63198C15.2535 6.92751 16.3756 8.01728 15.6549 8.73791L10.0237 14.3692C9.87099 14.5219 9.67088 14.5983 9.47074 14.5983Z" fill="white"/>
<path d="M8.73475 2.82025C9.16199 2.82025 9.16272 2.15625 8.73475 2.15625C8.30751 2.15625 8.30682 2.82025 8.73475 2.82025Z" fill="white"/>
<path d="M6.60975 3.69525C7.03699 3.69525 7.03772 3.03125 6.60975 3.03125C6.18251 3.03129 6.18182 3.69525 6.60975 3.69525Z" fill="white"/>
<path d="M4.78164 5.09368C5.20888 5.09368 5.20961 4.42969 4.78164 4.42969C4.3544 4.42973 4.35367 5.09368 4.78164 5.09368Z" fill="white"/>
<path d="M3.37928 6.914C3.80652 6.914 3.80725 6.25 3.37928 6.25C2.95204 6.25 2.95135 6.914 3.37928 6.914Z" fill="white"/>
<path d="M2.49647 9.03704C2.92371 9.03704 2.92444 8.37305 2.49647 8.37305C2.06923 8.37305 2.06854 9.03704 2.49647 9.03704Z" fill="white"/>
<path d="M2.1918 11.3163C2.61903 11.3163 2.61977 10.6523 2.1918 10.6523C1.76456 10.6523 1.76383 11.3163 2.1918 11.3163Z" fill="white"/>
<path d="M2.4867 13.5976C2.91394 13.5976 2.91467 12.9336 2.4867 12.9336C2.05946 12.9336 2.05878 13.5976 2.4867 13.5976Z" fill="white"/>
<path d="M3.36367 15.7245C3.79091 15.7245 3.79164 15.0605 3.36367 15.0605C2.93643 15.0605 2.9357 15.7245 3.36367 15.7245Z" fill="white"/>
<path d="M4.76211 17.5507C5.18935 17.5507 5.19008 16.8867 4.76211 16.8867C4.33487 16.8867 4.33414 17.5507 4.76211 17.5507Z" fill="white"/>
</svg>
