<svg width="20" height="19" viewBox="0 0 20 19" fill="none" xmlns="http://www.w3.org/2000/svg">
<path d="M5.02616 8.90268C5.02616 8.16613 5.71615 7.56836 6.56632 7.56836H13.343C14.1932 7.56836 14.8832 8.16613 14.8832 8.90268V13.9731C14.8832 15.1055 14.3639 16.1916 13.4396 16.9923C12.5154 17.793 11.2618 18.2429 9.95467 18.2429C8.64754 18.2429 7.39396 17.793 6.46969 16.9923C5.54541 16.1916 5.02616 15.1055 5.02616 13.9731V8.90268ZM3.79403 8.90268C3.79403 8.40845 3.96653 7.95051 4.26101 7.56836H1.63781C0.787647 7.56836 0.0976563 8.16613 0.0976563 8.90268V12.9056C0.0975988 13.3626 0.210443 13.8143 0.428607 14.2304C0.646771 14.6465 0.965201 15.0173 1.3625 15.3179C1.7598 15.6186 2.22677 15.842 2.73202 15.9733C3.23728 16.1046 3.76912 16.1407 4.29181 16.0792C3.96216 15.4138 3.79277 14.6971 3.79403 13.9731V8.90268ZM16.1153 13.9731C16.1153 14.7203 15.9379 15.4334 15.6175 16.0792C16.1402 16.1407 16.6721 16.1046 17.1773 15.9733C17.6826 15.842 18.1495 15.6186 18.5468 15.3179C18.9441 15.0173 19.2626 14.6465 19.4807 14.2304C19.6989 13.8143 19.8117 13.3626 19.8117 12.9056V8.90268C19.8117 8.16613 19.1217 7.56836 18.2715 7.56836H15.6483C15.944 7.95051 16.1153 8.40845 16.1153 8.90268V13.9731Z" fill="white"/>
<ellipse cx="9.95419" cy="3.29807" rx="3.69638" ry="3.20236" fill="white"/>
<ellipse cx="1.84819" cy="1.60118" rx="1.84819" ry="1.60118" transform="matrix(1 0 0 -1 1.33008 6.5)" fill="white"/>
<ellipse cx="1.84819" cy="1.60118" rx="1.84819" ry="1.60118" transform="matrix(1 0 0 -1 14.8828 6.5)" fill="white"/>
</svg>
