<svg width="36" height="37" viewBox="0 0 36 37" fill="none" xmlns="http://www.w3.org/2000/svg">
<path opacity="0.3" d="M18.4185 5.29943L9.66531 15.8032C8.93399 16.6808 7.62971 16.7994 6.75212 16.068C5.87453 15.3367 5.75596 14.0324 6.48728 13.1549L16.8295 0.744255C17.6564 -0.248085 19.1805 -0.248085 20.0075 0.744255L30.3496 13.1549C31.081 14.0324 30.9624 15.3367 30.0848 16.068C29.2072 16.7994 27.9029 16.6808 27.1716 15.8032L18.4185 5.29943Z" fill="#264653"/>
<path d="M1.42958 15.8688C1.1483 15.2091 1.63232 14.4766 2.34945 14.4766H34.4875C35.2046 14.4766 35.6886 15.2091 35.4074 15.8687L27.4705 34.4865C26.9991 35.5924 25.913 36.31 24.7108 36.31H12.1278C10.9257 36.31 9.83972 35.5925 9.36823 34.4867L1.42958 15.8688Z" fill="#FF6A6C"/>
<path fill-rule="evenodd" clip-rule="evenodd" d="M18.4181 31.0257C20.7028 31.0257 22.555 29.1735 22.555 26.8888C22.555 24.6041 20.7028 22.752 18.4181 22.752C16.1334 22.752 14.2812 24.6041 14.2812 26.8888C14.2812 29.1735 16.1334 31.0257 18.4181 31.0257Z" fill="white"/>
</svg>
