<svg width="17" height="17" viewBox="0 0 17 17" fill="none" xmlns="http://www.w3.org/2000/svg">
<path d="M11.5357 8.50002C11.5357 9.30516 11.2159 10.0772 10.6465 10.6466C10.0772 11.2159 9.30512 11.5357 8.49998 11.5357C7.69484 11.5357 6.92277 11.2159 6.35344 10.6466C5.78412 10.0772 5.46427 9.30516 5.46427 8.50002C5.46427 7.69488 5.78411 6.9228 6.35344 6.35348C6.92277 5.78415 7.69484 5.46431 8.49998 5.46431C9.30512 5.46431 10.0772 5.78414 10.6465 6.35348C11.2158 6.92281 11.5357 7.69488 11.5357 8.50002ZM17 7.28573V9.7143C17 9.8753 16.936 10.0298 16.8222 10.1436C16.7083 10.2575 16.5538 10.3214 16.3928 10.3214H14.9296C14.782 10.8204 14.5783 11.3011 14.3224 11.7543L15.3668 12.7926C15.4817 12.9066 15.5464 13.0617 15.5464 13.2235C15.5464 13.3855 15.4817 13.5407 15.3668 13.6547L13.6485 15.3729C13.5345 15.4879 13.3794 15.5525 13.2175 15.5525C13.0556 15.5525 12.9004 15.4879 12.7864 15.3729L11.7543 14.3286C11.3011 14.5844 10.8204 14.7881 10.3214 14.9357V16.3929C10.3214 16.5539 10.2574 16.7084 10.1436 16.8222C10.0298 16.936 9.87527 17 9.71427 17H7.2857C7.1247 17 6.9702 16.936 6.85636 16.8222C6.74253 16.7084 6.67856 16.5539 6.67856 16.3929V14.9296C6.17956 14.782 5.69887 14.5783 5.24567 14.3225L4.20742 15.3729C4.09345 15.4878 3.93827 15.5525 3.77646 15.5525C3.6145 15.5525 3.45933 15.4878 3.34535 15.3729L1.62707 13.6546C1.51215 13.5406 1.4475 13.3855 1.4475 13.2235C1.4475 13.0617 1.51215 12.9065 1.62707 12.7925L2.67142 11.7543C2.41556 11.3011 2.21187 10.8204 2.06428 10.3214H0.607142C0.446142 10.3214 0.291643 10.2574 0.177806 10.1436C0.0639684 10.0298 0 9.87527 0 9.71427V7.2857C0 7.1247 0.0639684 6.9702 0.177806 6.85636C0.291643 6.74253 0.446142 6.67856 0.607142 6.67856H2.07039C2.21797 6.17956 2.42166 5.69887 2.67753 5.24567L1.6271 4.20742C1.51218 4.09345 1.44754 3.93827 1.44754 3.77646C1.44754 3.61451 1.51218 3.45933 1.6271 3.34535L3.34538 1.62707C3.46166 1.51621 3.61562 1.45333 3.77649 1.45103C3.93776 1.45008 4.09294 1.5135 4.20746 1.62707L5.2457 2.67142C5.69887 2.41556 6.17959 2.21187 6.67859 2.06428V0.607142C6.67859 0.446142 6.74256 0.291643 6.8564 0.177806C6.97024 0.0639684 7.12473 0 7.28573 0H9.7143C9.8753 0 10.0298 0.0639684 10.1436 0.177806C10.2575 0.291643 10.3214 0.446142 10.3214 0.607142V2.07039C10.8204 2.21797 11.3011 2.42166 11.7543 2.67753L12.7926 1.63318C12.9089 1.52232 13.0628 1.45944 13.2235 1.45713C13.385 1.45618 13.5401 1.51961 13.6546 1.63318L15.3729 3.35146C15.4879 3.46543 15.5525 3.6206 15.5525 3.78242C15.5525 3.94437 15.4879 4.09955 15.3729 4.21353L14.3286 5.24567C14.5844 5.69884 14.7881 6.17956 14.9357 6.67856H16.3929C16.5539 6.67856 16.7084 6.74253 16.8222 6.85636C16.936 6.9702 17 7.1247 17 7.2857L17 7.28573ZM12.75 8.50002C12.75 7.37289 12.3022 6.29183 11.5052 5.49481C10.7082 4.69778 9.62712 4.25003 8.49998 4.25003C7.37285 4.25003 6.29179 4.69778 5.49477 5.49481C4.69775 6.29183 4.24999 7.37289 4.24999 8.50002C4.24999 9.62715 4.69775 10.7082 5.49477 11.5052C6.29179 12.3023 7.37285 12.75 8.49998 12.75C9.62712 12.75 10.7082 12.3023 11.5052 11.5052C12.3022 10.7082 12.75 9.62715 12.75 8.50002Z" fill="white"/>
</svg>
