<svg width="20" height="20" viewBox="0 0 20 20" fill="none" xmlns="http://www.w3.org/2000/svg">
<path d="M9.62324 0.246094C4.44352 0.246094 0.222656 4.46696 0.222656 9.64668C0.222655 14.8264 4.44352 19.0473 9.62324 19.0473C14.803 19.0473 19.0238 14.8264 19.0238 9.64668C19.0238 4.46696 14.803 0.246095 9.62324 0.246094Z" fill="#FF4D4F"/>
<path d="M14.0987 14.5086C13.9483 14.659 13.7415 14.7342 13.544 14.7342C13.3466 14.7342 13.1398 14.659 12.9894 14.5086L9.06936 10.5886C8.91895 10.4382 8.84375 10.2407 8.84375 10.0339L8.84375 4.94822C8.84375 4.51579 9.19157 4.16797 9.624 4.16797C10.0564 4.16797 10.4042 4.51579 10.4042 4.94822L10.4042 9.71432L14.0893 13.3993C14.3995 13.7096 14.3995 14.2078 14.0987 14.5086Z" fill="#F5E6FE"/>
</svg>
