<svg width="497" height="508" viewBox="0 0 497 508" fill="none" xmlns="http://www.w3.org/2000/svg">
<path d="M471.393 129.627C456.605 137.284 445.273 150.459 437.124 164.961C428.974 179.463 423.72 195.396 418.524 211.192L413.945 292.699C431.114 263.454 444.941 229.07 448.673 195.407L437.227 194.389C444.907 193.244 451.351 187.658 455.449 181.066C459.546 174.473 461.652 166.884 463.713 159.398L449.817 161.436C460.823 153.992 468.547 142.605 471.393 129.627Z" fill="#E0E0E0"/>
<path d="M411.427 311.792C411.427 311.792 374.09 267.152 374.525 224.504H389.6C389.6 224.504 373.22 213.745 374.525 207.713C375.83 201.681 376.242 178.857 376.242 178.857L389.977 182.291C389.977 182.291 379.676 177.129 378.348 168.945C377.02 160.761 381.358 122.863 381.358 122.863C381.358 122.863 398.161 140.525 403.335 158.609C408.509 176.694 422.072 197.801 418.089 252.913C414.106 308.026 411.427 311.792 411.427 311.792Z" fill="#EBEBEB"/>
<path d="M430.359 316.014C430.359 316.014 470.797 289.081 479.783 254.709L467.661 251.412C467.661 251.412 483.182 246.342 483.468 241.214C483.754 236.086 488.39 217.635 488.39 217.635L476.555 217.395C476.555 217.395 485.998 215.495 488.825 209.199C491.652 202.904 496.494 171.496 496.494 171.496C496.494 171.496 479.107 182.015 470.992 195.395C462.877 208.776 447.344 222.866 438.485 268.021C429.626 313.175 430.359 316.014 430.359 316.014Z" fill="#EBEBEB"/>
<path d="M391.615 161.812C391.673 161.964 391.715 162.122 391.741 162.282L392.062 163.655C392.336 164.891 392.737 166.677 393.206 168.955C393.676 171.233 394.351 174.083 394.969 177.368C395.587 180.653 396.4 184.384 397.155 188.528C398.746 196.815 400.429 206.715 402.169 217.726C403.908 228.738 405.522 240.893 407.022 253.667C408.521 266.441 409.62 278.665 410.455 289.779C411.291 300.894 411.898 310.92 412.241 319.345C412.459 323.557 412.55 327.357 412.665 330.722C412.779 334.087 412.836 336.949 412.859 339.307C412.882 341.664 412.916 343.461 412.928 344.732V346.151C412.928 346.46 412.928 346.632 412.928 346.632C412.909 346.472 412.909 346.311 412.928 346.151C412.928 345.796 412.928 345.339 412.871 344.732C412.871 343.461 412.768 341.642 412.687 339.307C412.607 336.972 412.527 334.076 412.378 330.733C412.23 327.391 412.115 323.568 411.875 319.367C411.486 310.943 410.822 300.928 409.963 289.825C409.105 278.723 407.903 266.51 406.438 253.736C404.973 240.962 403.29 228.829 401.631 217.807C399.971 206.784 398.288 196.895 396.755 188.608C396.022 184.453 395.278 180.721 394.648 177.425C394.019 174.128 393.504 171.313 392.989 169.001C392.474 166.689 392.176 164.926 391.924 163.678C391.81 163.094 391.73 162.637 391.661 162.293C391.631 162.135 391.615 161.974 391.615 161.812Z" fill="#E0E0E0"/>
<path d="M406.243 339.135C406.243 339.135 372.088 300.401 361.478 276.983L369.49 273.549C363.676 274.51 357.735 272.015 353.237 268.227C348.738 264.438 345.431 259.493 342.226 254.56L352.767 252.786C343.079 250.019 334.828 243.629 329.727 234.941C342.168 236.99 353.431 243.824 362.714 252.362C370.223 259.23 376.587 267.311 382.699 275.506C385.687 279.505 388.289 283.778 390.471 288.269C396.171 300.127 406.324 324.907 406.243 339.135Z" fill="#EBEBEB"/>
<path d="M480.311 194.045C480.272 194.184 480.218 194.318 480.15 194.446C480.013 194.72 479.841 195.098 479.624 195.59C479.132 196.597 478.422 198.04 477.529 199.882C476.636 201.725 475.503 204.014 474.233 206.681C472.962 209.348 471.497 212.347 469.952 215.712C466.793 222.42 463.176 230.466 459.273 239.463C455.37 248.459 451.26 258.429 447.209 268.971C443.157 279.513 439.471 289.654 436.278 298.925C433.084 308.196 430.371 316.586 428.197 323.672C427.052 327.197 426.136 330.425 425.278 333.24C424.419 336.056 423.71 338.494 423.137 340.486C422.565 342.477 422.107 343.988 421.798 345.064L421.432 346.209C421.393 346.346 421.343 346.48 421.283 346.609C421.299 346.465 421.33 346.324 421.375 346.186C421.443 345.888 421.546 345.488 421.684 344.984C421.97 343.897 422.382 342.351 422.92 340.406C423.458 338.46 424.133 335.965 424.957 333.137C425.781 330.31 426.686 327.071 427.785 323.534C429.914 316.438 432.615 308.025 435.797 298.731C438.979 289.436 442.664 279.272 446.693 268.742C450.722 258.211 454.923 248.231 458.815 239.234C462.706 230.237 466.415 222.214 469.62 215.529C471.188 212.164 472.687 209.165 473.981 206.521C475.274 203.877 476.419 201.611 477.415 199.768L479.601 195.521C479.853 195.064 480.047 194.682 480.185 194.377C480.22 194.264 480.263 194.153 480.311 194.045Z" fill="#E0E0E0"/>
<path d="M409.138 355.743C409.071 355.506 409.022 355.265 408.99 355.021C408.91 354.495 408.795 353.808 408.669 352.973C408.543 352.137 408.372 350.981 408.143 349.722C407.914 348.463 407.696 347.009 407.353 345.43C406.746 342.259 405.865 338.505 404.755 334.384C403.644 330.264 402.179 325.8 400.451 321.187C398.723 316.574 396.8 312.282 394.945 308.436C393.091 304.59 391.237 301.213 389.6 298.432C388.81 297.024 388.02 295.8 387.311 294.701C386.601 293.602 386.052 292.663 385.548 291.908L384.404 290.157C384.259 289.959 384.14 289.743 384.049 289.516C384.219 289.691 384.373 289.883 384.507 290.088L385.708 291.782C386.235 292.514 386.853 293.43 387.551 294.518C388.249 295.605 389.062 296.807 389.84 298.215C391.534 300.985 393.4 304.361 395.323 308.196C397.246 312.03 399.135 316.357 400.897 320.981C402.66 325.605 404.034 330.138 405.167 334.247C406.3 338.356 407.09 342.156 407.65 345.349C407.971 346.94 408.154 348.394 408.349 349.665C408.543 350.935 408.692 352.034 408.784 352.938C408.875 353.842 408.944 354.472 408.99 355.01C409.07 355.247 409.12 355.493 409.138 355.743Z" fill="#E0E0E0"/>
<path d="M454.213 346.633H379.447V361.879H454.213V346.633Z" fill="#E0E0E0"/>
<path d="M386.578 361.867L394.659 413.146H439.837L447.38 361.867H386.578Z" fill="#E0E0E0"/>
<path d="M449.635 361.868C449.635 362.04 435.488 362.166 418.044 362.166C400.6 362.166 386.453 362.04 386.453 361.868C386.453 361.696 400.6 361.57 418.044 361.57C435.488 361.57 449.635 361.708 449.635 361.868Z" fill="#EBEBEB"/>
<path d="M332.336 68.5269C331.329 72.3544 329.638 75.9683 327.346 79.1947L332.256 83.7731L353.202 102.682L352.71 102.911C352.71 102.911 370.841 90.2515 375.854 86.1195C379.986 82.6857 391.043 75.6807 391.947 68.8589C392.099 67.6465 391.866 66.4173 391.283 65.3437C390.7 64.27 389.796 63.4059 388.697 62.8726C387.944 62.4889 387.099 62.3211 386.257 62.3878C385.414 62.4545 384.607 62.753 383.924 63.2503C383.924 63.2503 388.8 57.5273 384.942 53.773C381.085 50.0187 378.075 52.9603 378.075 52.9603C378.075 52.9603 382.848 45.6921 378.418 41.663C377.501 40.9594 376.392 40.5499 375.238 40.4886C374.083 40.4273 372.938 40.7171 371.951 41.3197L373.748 39.3967L383.008 29.4272C384.112 28.2709 384.728 26.7337 384.728 25.1349C384.728 23.5362 384.112 21.9989 383.008 20.8427C382.44 20.268 381.763 19.8131 381.016 19.5047C380.27 19.1963 379.469 19.0407 378.661 19.0471C377.853 19.0535 377.055 19.2217 376.313 19.542C375.572 19.8622 374.902 20.3278 374.343 20.9113L348.292 48.1758L349.62 33.296C349.952 29.4386 344.744 26.6458 342.432 28.0651C342.432 28.0651 338.872 29.4501 337.853 35.4822C337.178 40.0377 332.336 68.5269 332.336 68.5269Z" fill="#F5F5F5"/>
<path d="M332.336 68.5276C332.336 68.5276 332.336 68.2758 332.428 67.7836C332.519 67.2914 332.611 66.5589 332.76 65.6203C333.069 63.6973 333.515 60.9045 334.099 57.299L336.273 44.1131C336.701 41.5416 337.155 38.7907 337.636 35.8605C337.837 34.3243 338.289 32.8317 338.975 31.4423C339.688 29.9261 340.872 28.6813 342.351 27.8941C343.277 27.4363 344.345 27.3583 345.327 27.6766C346.296 27.9815 347.19 28.4886 347.948 29.1646C348.767 29.8515 349.374 30.7564 349.7 31.7743C349.78 32.0375 349.803 32.3122 349.86 32.5755C349.917 32.8388 349.86 33.1364 349.86 33.3996L349.723 34.9677C349.356 39.1799 348.975 43.5904 348.578 48.1994L348.097 47.9819L371.825 23.1897C372.363 22.6403 372.889 22.0451 373.427 21.5186C373.951 20.9199 374.534 20.3754 375.167 19.8933C376.548 18.957 378.238 18.5919 379.883 18.8746C380.715 19.018 381.51 19.3278 382.22 19.7853C382.93 20.2429 383.54 20.8388 384.015 21.5376C384.489 22.2363 384.818 23.0235 384.981 23.8521C385.144 24.6808 385.139 25.5338 384.965 26.3603C384.798 27.1985 384.476 27.9982 384.015 28.7182C383.529 29.3834 382.985 30.004 382.39 30.5724L379.024 34.178L372.157 41.492L371.756 40.9769C373.107 40.1902 374.702 39.9332 376.232 40.2558C376.873 40.3968 377.488 40.6403 378.052 40.9769C378.347 41.1377 378.611 41.3511 378.83 41.6064C379.065 41.8393 379.279 42.092 379.471 42.3619C380.228 43.4319 380.629 44.7137 380.615 46.0246C380.488 48.5392 379.698 50.9754 378.326 53.0868L377.823 52.6748C378.448 52.1217 379.209 51.7453 380.028 51.5844C380.846 51.4234 381.693 51.4837 382.481 51.7591C383.251 52.0472 383.96 52.4739 384.576 53.0182C384.886 53.2629 385.17 53.5391 385.423 53.8423L385.823 54.3001L386.132 54.8266C386.481 55.5337 386.682 56.3041 386.723 57.0912C386.764 57.8782 386.645 58.6655 386.373 59.4051C385.878 60.8567 385.13 62.2091 384.164 63.3997L383.74 62.9304C384.412 62.4488 385.193 62.144 386.013 62.0439C386.834 61.9439 387.666 62.052 388.433 62.3581C389.555 62.8037 390.52 63.5702 391.208 64.5617C391.896 65.5533 392.277 66.7257 392.302 67.9324C392.284 68.7085 392.161 69.4787 391.936 70.2216C391.424 71.6469 390.698 72.9861 389.784 74.1934C386.11 78.8977 381.337 82.2056 377.044 85.4677C372.752 88.7299 368.506 91.9348 364.454 94.8535L352.836 103.037L352.596 102.625L353.088 102.396L353.03 102.797L332.153 83.8996H332.37L332.256 84.0141L332.141 83.9111L327.254 79.3326L327.174 79.2525L327.243 79.161C328.944 76.7826 330.329 74.1932 331.363 71.4578C331.718 70.5306 331.947 69.7981 332.096 69.3059C332.244 68.8137 332.336 68.5734 332.336 68.5734C332.126 69.5695 331.843 70.5489 331.489 71.5035C330.503 74.2807 329.144 76.9107 327.449 79.3212V79.1495C328.868 80.4658 330.447 81.9195 332.37 83.7279H332.153L332.256 83.6135L332.382 83.7165L353.374 102.557L353.649 102.797L353.317 102.946L352.824 103.175L352.527 102.683L364.11 94.4529C368.139 91.5227 372.409 88.4895 376.644 85.0557C380.879 81.6219 385.686 78.4627 389.234 73.8614C390.107 72.7107 390.798 71.433 391.283 70.0728C391.487 69.3884 391.603 68.6805 391.627 67.9667C391.604 67.2536 391.449 66.551 391.169 65.895C390.587 64.558 389.501 63.5049 388.147 62.9648C387.474 62.6992 386.745 62.6072 386.027 62.6972C385.309 62.7872 384.625 63.0563 384.038 63.4799L382.287 64.7733L383.683 63.0335C384.595 61.9092 385.297 60.6296 385.755 59.2563C386.011 58.5918 386.126 57.8812 386.093 57.1698C386.059 56.4583 385.878 55.7617 385.56 55.1242C384.803 53.8824 383.65 52.9311 382.287 52.423C381.613 52.1858 380.889 52.1308 380.188 52.2634C379.486 52.3961 378.832 52.7117 378.292 53.1784L376.712 54.6092L377.8 52.7892C379.104 50.7847 379.855 48.4705 379.975 46.0819C380.042 44.9076 379.692 43.7474 378.986 42.8067C378.28 41.866 377.264 41.2056 376.117 40.9426C374.746 40.6579 373.317 40.8946 372.111 41.6064L370.291 42.6137L371.71 41.1028L378.578 33.7888C379.715 32.5831 380.837 31.3813 381.943 30.1833C382.495 29.6244 382.993 29.0151 383.431 28.3634C383.846 27.7127 384.137 26.9909 384.29 26.2344C384.445 25.487 384.449 24.7161 384.301 23.9672C384.154 23.2182 383.858 22.5064 383.431 21.8734C383.001 21.2546 382.453 20.7267 381.819 20.3201C381.185 19.9135 380.476 19.6362 379.734 19.5041C378.255 19.2423 376.732 19.5666 375.488 20.4083C374.889 20.8683 374.337 21.3858 373.839 21.9536L372.237 23.6247L348.486 48.3596L347.948 48.8861L348.029 48.1078C348.441 43.5294 348.841 39.0883 349.23 34.8876C349.42 33.8892 349.42 32.8642 349.23 31.8658C348.933 30.9389 348.382 30.114 347.639 29.4851C346.926 28.852 346.082 28.3831 345.167 28.1115C344.31 27.8237 343.376 27.877 342.557 28.2603C341.182 29.0044 340.08 30.167 339.41 31.5797C338.736 32.9237 338.291 34.3704 338.093 35.8605C337.59 38.7793 337.109 41.5836 336.674 44.1131C335.781 49.241 335.014 53.6591 334.385 57.2761C333.755 60.8931 333.24 63.663 332.92 65.5745C332.748 66.5131 332.622 67.2227 332.519 67.7263C332.416 68.23 332.336 68.5276 332.336 68.5276Z" fill="#E0E0E0"/>
<path d="M320.527 79.3883L320.762 79.1374C321.643 78.1949 322.862 77.6411 324.151 77.5976C325.441 77.5542 326.695 78.0247 327.637 78.9057L353.441 103.027C354.381 103.906 354.934 105.123 354.977 106.409C355.021 107.695 354.551 108.946 353.672 109.887L353.438 110.138C352.557 111.08 351.337 111.634 350.048 111.677C348.758 111.721 347.505 111.25 346.562 110.369L320.767 86.2556C319.826 85.3766 319.274 84.1601 319.23 82.8737C319.187 81.5873 319.656 80.3364 320.535 79.3961L320.527 79.3883Z" fill="#F5F5F5"/>
<path d="M346.551 110.339C346.551 110.339 346.826 110.568 347.41 110.9C348.137 111.313 348.959 111.531 349.796 111.531C350.633 111.531 351.455 111.313 352.183 110.9C352.884 110.458 353.488 109.878 353.957 109.194C354.514 108.366 354.79 107.38 354.745 106.383C354.7 105.386 354.335 104.429 353.705 103.655L327.379 79.1257C326.776 78.5627 326.033 78.173 325.227 77.9977C324.421 77.8224 323.583 77.8681 322.801 78.1299C322.058 78.4033 321.388 78.8423 320.841 79.4134C320.293 79.9846 319.883 80.673 319.642 81.4263C319.431 82.1607 319.408 82.9361 319.574 83.6818C319.74 84.4275 320.09 85.1198 320.592 85.6957C321.679 86.7831 322.881 87.859 323.968 88.8891L335.746 100.003L343.644 107.523L345.773 109.595C346.031 109.826 346.268 110.079 346.483 110.351C346.199 110.15 345.931 109.928 345.681 109.687L343.472 107.706L335.46 100.335L323.59 89.3355C322.446 88.2825 321.301 87.2753 320.157 86.1078C319.573 85.4602 319.163 84.6761 318.963 83.8278C318.763 82.9796 318.78 82.0946 319.012 81.2546C319.285 80.3991 319.749 79.6172 320.37 78.9685C320.991 78.3198 321.752 77.8216 322.595 77.5118C323.479 77.2268 324.424 77.1826 325.331 77.3838C326.238 77.585 327.076 78.0242 327.757 78.6564C338.058 88.2825 347.33 96.9701 353.98 103.38C354.656 104.231 355.04 105.277 355.075 106.364C355.11 107.45 354.794 108.519 354.174 109.412C353.669 110.132 353.013 110.734 352.251 111.175C351.604 111.532 350.884 111.74 350.145 111.781C349.13 111.842 348.121 111.582 347.261 111.037C346.99 110.842 346.75 110.607 346.551 110.339Z" fill="#E0E0E0"/>
<path d="M362.277 51.1758C363.697 49.1911 365.286 47.3336 367.027 45.6245C368.612 43.771 370.359 42.0626 372.247 40.5195C370.831 42.5039 369.246 44.3614 367.508 46.0709C365.921 47.9262 364.171 49.6348 362.277 51.1758Z" fill="#E0E0E0"/>
<path d="M372.145 59.0607C372.877 57.7868 373.795 56.6294 374.869 55.6269C375.788 54.496 376.863 53.5016 378.062 52.6738C377.335 53.9507 376.416 55.1088 375.338 56.1076C374.426 57.2448 373.35 58.2401 372.145 59.0607Z" fill="#E0E0E0"/>
<path d="M378.016 69.559C378.748 68.2854 379.666 67.128 380.74 66.1252C381.652 64.9873 382.733 63.9953 383.945 63.1836C383.211 64.4564 382.293 65.6136 381.221 66.6174C380.305 67.7528 379.225 68.7444 378.016 69.559Z" fill="#E0E0E0"/>
<path d="M376.963 14.411C375.798 12.1648 374.833 9.82083 374.078 7.40605C373.11 5.06863 372.344 2.65225 371.789 0.183594C372.95 2.4313 373.915 4.77498 374.673 7.18858C375.642 9.526 376.408 11.9424 376.963 14.411Z" fill="#E0E0E0"/>
<path d="M383.773 16.0703C385.318 13.2191 387.05 10.4736 388.959 7.852C390.689 5.1099 392.601 2.48671 394.682 0C393.132 2.85101 391.397 5.59643 389.485 8.21827C387.761 10.9616 385.852 13.5849 383.773 16.0703Z" fill="#E0E0E0"/>
<path d="M388.73 21.8949C391.223 21.0438 393.78 20.3931 396.376 19.9491C398.927 19.2997 401.526 18.8595 404.148 18.6328C401.664 19.5004 399.109 20.1551 396.514 20.5901C393.96 21.2399 391.357 21.6763 388.73 21.8949Z" fill="#E0E0E0"/>
<path d="M60.5717 264.531L23.8184 413.135H33.4903L71.1478 264.531H60.5717Z" fill="#F5F5F5"/>
<path d="M129.797 264.531L164.181 413.135H154.509L119.209 264.531H129.797Z" fill="#F5F5F5"/>
<path d="M101.069 410.948H89.8056L88.123 240.391H99.386L101.069 410.948Z" fill="#F5F5F5"/>
<path d="M173.212 140.227H14.3065V242.028H173.212V140.227Z" fill="#EBEBEB"/>
<path d="M133.678 262.973H53.9219V272.805H133.678V262.973Z" fill="#F5F5F5"/>
<path d="M24.8597 228.749C24.9578 229.366 24.9962 229.991 24.9742 230.615H24.7567C24.5965 225.636 24.4706 209.142 24.4706 189.592C24.4706 177.803 24.5622 167.124 24.585 159.272C24.585 155.472 24.6766 152.404 24.7109 150.115C24.7109 149.096 24.7109 148.272 24.7796 147.608C24.7794 147.316 24.8062 147.025 24.8597 146.738C24.928 147.023 24.955 147.316 24.9399 147.608C24.9399 148.272 24.9399 149.096 25.02 150.115C25.02 152.404 25.0887 155.506 25.1459 159.272C25.1459 167.124 25.2146 177.803 25.2604 189.592C25.2604 209.142 25.1345 225.636 24.9742 230.615H24.7567C24.7438 229.991 24.7783 229.368 24.8597 228.749Z" fill="#F5F5F5"/>
<path d="M36.6944 228.749C36.7759 229.368 36.8103 229.991 36.7974 230.615H36.6143C36.454 225.636 36.3281 209.142 36.3281 189.592C36.3281 177.803 36.4197 167.124 36.4426 159.272C36.4998 155.472 36.5456 152.404 36.5685 150.115C36.5685 149.096 36.5685 148.272 36.6486 147.608C36.6335 147.316 36.6605 147.023 36.7287 146.738C36.7811 147.025 36.8041 147.317 36.7974 147.608C36.7974 148.272 36.7974 149.096 36.8775 150.115C36.8775 152.404 36.9462 155.506 37.0034 159.272C37.0034 167.124 37.0721 177.803 37.1179 189.592C37.1179 209.142 36.992 225.636 36.8318 230.615H36.6143C36.581 229.992 36.6078 229.367 36.6944 228.749Z" fill="#F5F5F5"/>
<path d="M48.5181 228.749C48.5996 229.368 48.634 229.991 48.6211 230.615H48.4036C48.2434 225.636 48.1289 209.142 48.1289 189.592C48.1289 177.803 48.209 167.124 48.2434 159.272C48.2434 155.472 48.3349 152.404 48.3693 150.115C48.3693 149.096 48.3693 148.272 48.438 147.608C48.4302 147.316 48.4571 147.024 48.5181 146.738C48.5791 147.024 48.606 147.316 48.5982 147.608C48.5982 148.272 48.5982 149.096 48.6669 150.115C48.6669 152.404 48.747 155.506 48.7928 159.272C48.7928 167.124 48.8615 177.803 48.9072 189.592C48.9072 209.142 48.7928 225.636 48.6211 230.615H48.4036C48.3893 229.991 48.4276 229.367 48.5181 228.749Z" fill="#F5F5F5"/>
<path d="M60.3423 228.749C60.4328 229.367 60.4711 229.991 60.4568 230.615H60.2393C60.0676 225.636 59.9531 209.142 59.9531 189.592C59.9531 177.803 60.0332 167.124 60.0676 159.272C60.0676 155.472 60.1592 152.404 60.1935 150.115C60.1935 149.096 60.2507 148.272 60.2622 147.608C60.2544 147.316 60.2813 147.024 60.3423 146.738C60.4033 147.024 60.4302 147.316 60.4224 147.608C60.4224 148.272 60.4224 149.096 60.4911 150.115C60.4911 152.404 60.5712 155.506 60.617 159.272C60.617 167.124 60.6857 177.803 60.7315 189.592C60.7315 209.142 60.617 225.636 60.4568 230.615H60.2393C60.2264 229.991 60.2608 229.368 60.3423 228.749Z" fill="#F5F5F5"/>
<path d="M72.1673 228.749C72.2654 229.366 72.3037 229.991 72.2818 230.615H72.0987C71.9384 225.636 71.8125 209.142 71.8125 189.592C71.8125 177.803 71.9041 167.124 71.927 159.272C71.9842 155.472 72.0185 152.404 72.0529 150.115C72.0529 149.096 72.0529 148.272 72.1215 147.608C72.1213 147.316 72.1481 147.025 72.2017 146.738C72.2699 147.023 72.2969 147.316 72.2818 147.608C72.2818 148.272 72.2818 149.096 72.3619 150.115C72.3619 152.404 72.4306 155.506 72.4878 159.272C72.4878 167.124 72.5565 177.803 72.6023 189.592C72.6023 209.142 72.4764 225.636 72.3161 230.615H72.0987C72.0743 229.992 72.0973 229.369 72.1673 228.749Z" fill="#F5F5F5"/>
<path d="M84.0022 228.749C84.0837 229.368 84.1181 229.991 84.1052 230.615H83.8877C83.7275 225.636 83.6016 209.142 83.6016 189.592C83.6016 177.803 83.6931 167.124 83.716 159.272C83.716 155.472 83.819 152.404 83.8419 150.115C83.8419 149.096 83.8419 148.272 83.9221 147.608C83.907 147.316 83.9339 147.023 84.0022 146.738C84.0546 147.025 84.0776 147.317 84.0708 147.608C84.0708 148.272 84.0708 149.096 84.151 150.115C84.151 152.404 84.2196 155.506 84.2769 159.272C84.2769 167.124 84.3456 177.803 84.3913 189.592C84.3913 209.142 84.2654 225.636 84.1052 230.615H83.8877C83.8658 229.991 83.9041 229.366 84.0022 228.749Z" fill="#F5F5F5"/>
<path d="M95.8247 228.749C95.9062 229.368 95.9406 229.991 95.9277 230.615H95.7102C95.55 225.636 95.4355 209.142 95.4355 189.592C95.4355 177.803 95.5157 167.124 95.55 159.272C95.55 155.472 95.6416 152.404 95.6759 150.115C95.6759 149.096 95.6759 148.272 95.7446 147.608C95.7368 147.316 95.7637 147.024 95.8247 146.738C95.8857 147.024 95.9126 147.316 95.9048 147.608C95.9048 148.272 95.9048 149.096 95.9735 150.115C95.9735 152.404 96.0536 155.506 96.0994 159.272C96.0994 167.124 96.1681 177.803 96.2139 189.592C96.2139 209.142 96.0994 225.636 95.9277 230.615H95.7102C95.6959 229.991 95.7342 229.367 95.8247 228.749Z" fill="#F5F5F5"/>
<path d="M107.65 228.749C107.74 229.367 107.779 229.991 107.764 230.615H107.581C107.409 225.636 107.295 209.142 107.295 189.592C107.295 177.803 107.375 167.124 107.409 159.272C107.409 155.472 107.501 152.404 107.535 150.115C107.535 149.096 107.535 148.272 107.604 147.608C107.596 147.316 107.623 147.024 107.684 146.738C107.745 147.024 107.772 147.316 107.764 147.608C107.764 148.272 107.764 149.096 107.833 150.115C107.833 152.404 107.913 155.506 107.959 159.272C107.959 167.124 108.027 177.803 108.073 189.592C108.073 209.142 107.959 225.636 107.799 230.615H107.581C107.557 229.992 107.58 229.369 107.65 228.749Z" fill="#F5F5F5"/>
<path d="M119.473 228.749C119.571 229.366 119.609 229.991 119.587 230.615H119.37C119.21 225.636 119.084 209.142 119.084 189.592C119.084 177.803 119.175 167.124 119.198 159.272C119.198 155.472 119.29 152.404 119.324 150.115C119.324 149.096 119.381 148.272 119.393 147.608C119.393 147.316 119.419 147.025 119.473 146.738C119.541 147.023 119.568 147.316 119.553 147.608C119.553 148.272 119.553 149.096 119.633 150.115C119.633 152.404 119.702 155.506 119.759 159.272C119.759 167.124 119.828 177.803 119.874 189.592C119.874 209.142 119.748 225.636 119.587 230.615H119.37C119.357 229.991 119.392 229.368 119.473 228.749Z" fill="#F5F5F5"/>
<path d="M131.309 228.749C131.39 229.368 131.425 229.991 131.412 230.615H131.194C131.034 225.636 130.908 209.142 130.908 189.592C130.908 177.803 131 167.124 131.023 159.272C131.08 155.472 131.126 152.404 131.149 150.115C131.149 149.096 131.149 148.272 131.229 147.608C131.214 147.316 131.241 147.023 131.309 146.738C131.362 147.025 131.389 147.316 131.389 147.608C131.389 148.272 131.389 149.096 131.458 150.115C131.458 152.404 131.526 155.506 131.584 159.272C131.584 167.124 131.652 177.803 131.698 189.592C131.698 209.142 131.572 225.636 131.412 230.615H131.194C131.172 229.991 131.211 229.366 131.309 228.749Z" fill="#F5F5F5"/>
<path d="M143.132 228.749C143.214 229.368 143.248 229.991 143.235 230.615H143.064C142.904 225.636 142.789 209.142 142.789 189.592C142.789 177.803 142.869 167.124 142.904 159.272C142.904 155.472 142.995 152.404 143.029 150.115C143.029 149.096 143.029 148.272 143.098 147.608C143.09 147.316 143.117 147.024 143.178 146.738C143.239 147.024 143.266 147.316 143.258 147.608C143.258 148.272 143.258 149.096 143.327 150.115C143.327 152.404 143.407 155.506 143.453 159.272C143.453 167.124 143.522 177.803 143.567 189.592C143.567 209.142 143.453 225.636 143.281 230.615H143.064C143.034 229.992 143.057 229.368 143.132 228.749Z" fill="#F5F5F5"/>
<path d="M154.956 228.749C155.046 229.367 155.084 229.991 155.07 230.615H154.853C154.681 225.636 154.566 209.142 154.566 189.592C154.566 177.803 154.647 167.124 154.681 159.272C154.681 155.472 154.772 152.404 154.807 150.115C154.807 149.096 154.864 148.272 154.875 147.608C154.868 147.316 154.895 147.024 154.956 146.738C155.017 147.024 155.043 147.316 155.036 147.608C155.036 148.272 155.036 149.096 155.104 150.115C155.104 152.404 155.184 155.506 155.23 159.272C155.23 167.124 155.299 177.803 155.345 189.592C155.345 209.142 155.23 225.636 155.07 230.615H154.853C154.84 229.991 154.874 229.368 154.956 228.749Z" fill="#F5F5F5"/>
<path d="M166.78 228.749C166.878 229.366 166.916 229.991 166.894 230.615H166.677C166.516 225.636 166.391 209.142 166.391 189.592C166.391 177.803 166.482 167.124 166.505 159.272C166.562 155.472 166.597 152.404 166.631 150.115C166.631 149.096 166.631 148.272 166.7 147.608C166.699 147.316 166.726 147.025 166.78 146.738C166.848 147.023 166.875 147.316 166.86 147.608C166.86 148.272 166.86 149.096 166.94 150.115C166.94 152.404 167.009 155.506 167.066 159.272C167.066 167.124 167.134 177.803 167.18 189.592C167.18 209.142 167.054 225.636 166.894 230.615H166.677C166.664 229.991 166.698 229.368 166.78 228.749Z" fill="#F5F5F5"/>
<path d="M286.93 67.5073L278.014 147.847C276.492 161.514 271.467 181.27 249.983 177.893C231.554 173.544 228.785 155.253 230.215 142.502C230.891 136.458 231.44 131.411 231.474 130.793C231.474 130.793 211.238 126.592 212.016 106.184C212.394 96.3285 214.809 76.0689 217.213 57.7781C218.46 48.3028 223.231 39.6448 230.574 33.5277C237.917 27.4107 247.294 24.2831 256.839 24.7677L258.808 24.8593C279.96 27.137 289.815 46.4236 286.93 67.5073Z" fill="#E9C46A"/>
<path d="M231.474 130.794C240.894 131.24 250.245 128.976 258.418 124.27C258.418 124.27 251.195 138.84 230.947 135.979L231.474 130.794Z" fill="#E9C46A"/>
<path d="M250.658 70.3244C251.013 70.7823 253.577 69.1798 256.965 69.5232C260.353 69.8666 262.688 71.8124 263.089 71.4347C263.295 71.2516 262.963 70.4618 261.944 69.5461C260.582 68.3701 258.884 67.6532 257.091 67.4973C255.321 67.3218 253.543 67.7233 252.02 68.6419C250.956 69.3859 250.532 70.1184 250.658 70.3244Z" fill="#3B4D60"/>
<path d="M249.936 77.3291C249.895 78.0474 250.134 78.7536 250.604 79.2984C251.074 79.8431 251.738 80.1837 252.454 80.2479C252.804 80.2925 253.159 80.2668 253.498 80.1725C253.837 80.0781 254.154 79.9169 254.43 79.6983C254.706 79.4798 254.936 79.2082 255.106 78.8996C255.276 78.5911 255.382 78.2517 255.419 77.9014C255.46 77.1844 255.22 76.4794 254.75 75.9365C254.28 75.3936 253.616 75.0555 252.901 74.9941C252.552 74.9494 252.198 74.9747 251.86 75.0683C251.521 75.162 251.205 75.3222 250.929 75.5396C250.653 75.757 250.423 76.0272 250.252 76.3345C250.082 76.6417 249.974 76.9799 249.936 77.3291Z" fill="#3B4D60"/>
<path d="M239.315 92.8135C239.315 92.6304 237.415 92.1955 234.279 91.6689C233.478 91.543 232.734 91.3485 232.619 90.799C232.603 89.988 232.831 89.1907 233.272 88.5098L235.95 82.535C239.67 74.0191 242.406 67.0027 242.062 66.8653C241.719 66.728 238.422 73.4926 234.702 82.0085C233.794 84.0993 232.936 86.1023 232.127 88.0177C231.57 88.9576 231.367 90.0659 231.555 91.1424C231.655 91.4318 231.821 91.694 232.039 91.9085C232.258 92.123 232.523 92.2839 232.814 92.3786C233.25 92.5251 233.705 92.6099 234.164 92.6304C237.324 92.8708 239.292 92.9852 239.315 92.8135Z" fill="#3B4D60"/>
<path d="M253.714 57.7783C253.954 58.5681 256.724 58.3392 259.952 58.9229C263.18 59.5067 265.755 60.5368 266.213 59.8615C266.43 59.5296 266.007 58.7169 264.988 57.9729C263.642 56.9682 262.07 56.308 260.41 56.05C258.761 55.7544 257.065 55.8764 255.476 56.4048C254.252 56.8283 253.622 57.4006 253.714 57.7783Z" fill="#3B4D60"/>
<path d="M221.905 57.7781C222.191 58.4305 224.915 58.0757 228.12 58.3733C231.325 58.6709 233.946 59.4149 234.358 58.8082C234.541 58.5221 234.083 57.9154 233.03 57.2859C231.619 56.5111 230.058 56.0467 228.452 55.9238C226.812 55.7704 225.158 55.9655 223.599 56.4961C222.374 56.8967 221.79 57.4576 221.905 57.7781Z" fill="#3B4D60"/>
<path d="M284.504 82.5257C284.859 82.3884 298.732 79.0919 297.587 93.0103C296.442 106.929 282.707 102.9 282.707 102.499C282.707 102.098 284.504 82.5257 284.504 82.5257Z" fill="#E9C46A"/>
<path d="M287.387 97.5754C287.456 97.5754 287.616 97.77 288.017 97.9875C288.573 98.2829 289.222 98.3487 289.825 98.1706C291.336 97.7586 292.767 95.5266 293.042 93.0199C293.177 91.8305 293.044 90.6258 292.653 89.4945C292.558 89.0485 292.356 88.6322 292.065 88.2813C291.774 87.9304 291.402 87.6554 290.982 87.48C290.708 87.3848 290.41 87.3876 290.139 87.4878C289.868 87.588 289.639 87.7795 289.494 88.0294C289.276 88.3957 289.345 88.6819 289.265 88.7048C289.184 88.7276 288.99 88.4415 289.15 87.8806C289.252 87.5416 289.471 87.2496 289.768 87.0565C290.171 86.7963 290.661 86.7058 291.13 86.8047C291.693 86.9661 292.204 87.2684 292.617 87.6831C293.03 88.0978 293.33 88.611 293.488 89.174C293.989 90.4263 294.17 91.7833 294.015 93.1229C293.694 95.9272 292.046 98.4339 289.986 98.846C289.602 98.9237 289.205 98.9148 288.825 98.8197C288.445 98.7247 288.09 98.5459 287.788 98.2965C287.387 97.9188 287.342 97.5983 287.387 97.5754Z" fill="#E9C46A"/>
<path d="M241.397 102.806C241.294 102.44 244.11 101.959 246.331 99.6473C247.261 98.6298 248.054 97.4946 248.688 96.2707C249.215 95.3092 249.604 94.714 249.753 94.7827C249.902 94.8514 249.753 95.5267 249.41 96.5912C248.937 98.0185 248.156 99.3239 247.12 100.414C246.067 101.52 244.728 102.312 243.252 102.703C242.141 102.99 241.42 102.932 241.397 102.806Z" fill="#3B4D60"/>
<path d="M220.898 65.9397C221.253 66.3975 223.817 64.7951 227.205 65.1384C230.593 65.4818 232.928 67.4277 233.328 67.0385C233.534 66.8668 233.203 66.077 232.184 65.1613C230.825 63.9806 229.125 63.263 227.331 63.1125C225.561 62.937 223.783 63.3385 222.26 64.2571C221.161 65.0011 220.738 65.7336 220.898 65.9397Z" fill="#3B4D60"/>
<path d="M220.669 73.7113C220.627 74.4295 220.867 75.1358 221.337 75.6805C221.807 76.2253 222.47 76.5658 223.187 76.63C223.532 76.675 223.882 76.6514 224.218 76.5605C224.554 76.4697 224.869 76.3135 225.144 76.1008C225.42 75.8882 225.65 75.6232 225.823 75.3212C225.996 75.0192 226.108 74.686 226.151 74.3408C226.199 73.6242 225.963 72.9176 225.494 72.3737C225.025 71.8297 224.36 71.492 223.645 71.4335C223.299 71.3853 222.948 71.4061 222.611 71.4948C222.274 71.5836 221.957 71.7384 221.68 71.9503C221.404 72.1622 221.172 72.427 220.998 72.7293C220.824 73.0316 220.712 73.3654 220.669 73.7113Z" fill="#3B4D60"/>
<path d="M295.503 70.0715C294.484 73.9517 292.069 82.7995 288.635 82.0098C281.767 80.4531 282.168 91.4642 278.849 90.1708C275.529 88.8774 274.751 80.1212 275.129 76.6301C276.273 65.722 280.463 57.8929 275.85 45.4396C274.419 42.9685 272.374 40.9085 269.914 39.4588C267.453 38.0091 264.661 37.2187 261.806 37.1641C258.929 37.166 256.1 37.9031 253.588 39.3054C251.076 40.7076 248.964 42.7285 247.452 45.1763C246.743 41.3648 244.751 35.6418 241.306 33.8791C239.581 32.9796 237.63 32.6084 235.696 32.812C233.762 33.0156 231.931 33.7849 230.432 35.0237C229.001 36.3373 228.097 38.1258 227.886 40.0565C227.676 41.9872 228.174 43.9286 229.287 45.5197C228.504 45.772 227.66 45.767 226.88 45.5055C226.099 45.2439 225.423 44.7395 224.949 44.0661C224.902 44.9619 225.039 45.8578 225.353 46.6985C225.666 47.5391 226.148 48.3066 226.769 48.9535C225.357 48.6388 224.106 47.8262 223.244 46.6643L224.388 51.3801C218.665 51.6663 212.839 46.2179 211.122 41.2847C208.524 33.799 210.218 26.153 214.27 19.354C218.322 12.5551 225.716 7.65616 233.728 7.5417C241.741 7.42724 248.368 11.0328 251.584 18.2667C256.643 14.5124 267.025 13.0129 272.805 15.4853C275.696 16.7582 278.212 18.7496 280.116 21.27C282.019 23.7904 283.246 26.7559 283.679 29.8844C287.227 28.2934 291.554 29.3693 294.633 31.7501L295.377 32.3682C297.437 34.2419 298.988 36.6077 299.885 39.2441C300.782 41.8805 300.995 44.7014 300.505 47.4427C300.138 49.6403 299.429 51.9295 299.028 53.7037C297.678 58.9574 295.503 70.0715 295.503 70.0715Z" fill="#3B4D60"/>
<path d="M223.964 43.7688C223.964 43.7688 223.781 43.6658 223.495 43.414C223.072 43.0505 222.689 42.6439 222.35 42.2007C221.041 40.5496 220.214 38.5692 219.958 36.4777C219.727 34.9345 219.83 33.3597 220.258 31.8592C220.686 30.3587 221.431 28.9674 222.442 27.7787C223.681 26.3144 225.259 25.1741 227.038 24.4561C228.816 23.7382 230.743 23.4643 232.652 23.6581C234.616 23.9041 236.498 24.5929 238.157 25.6726C239.705 26.6465 241.091 27.8552 242.267 29.2552C244.263 31.5858 245.734 34.3183 246.582 37.2675C247.152 39.2576 247.426 41.321 247.394 43.3911C247.394 44.1237 247.326 44.6845 247.268 45.0622C247.257 45.2565 247.223 45.4486 247.165 45.6346C247.29 42.8484 246.958 40.0606 246.181 37.3819C245.299 34.4976 243.821 31.8304 241.843 29.5528C239.514 26.6951 236.221 24.7862 232.583 24.1846C230.77 24.008 228.941 24.2693 227.25 24.9465C225.559 25.6237 224.055 26.6971 222.866 28.0763C221.891 29.2049 221.167 30.5264 220.739 31.9545C220.311 33.3826 220.189 34.8849 220.382 36.3632C220.586 38.4014 221.32 40.3507 222.511 42.0176C223.369 43.2194 223.999 43.7231 223.964 43.7688Z" fill="#455A64"/>
<path d="M221.46 49.8579C221.294 49.6615 221.152 49.4464 221.036 49.2169C220.773 48.782 220.395 48.0723 219.891 47.294C218.538 44.9288 217.418 42.437 216.549 39.854C215.965 38.0491 215.622 36.1747 215.531 34.2798C215.418 32.088 215.765 29.8969 216.549 27.8471C217.463 25.5753 219.028 23.6242 221.048 22.2386C223.205 20.76 225.71 19.8684 228.316 19.6517C230.909 19.452 233.516 19.807 235.962 20.6933C238.233 21.5123 240.367 22.67 242.291 24.1272C245.649 26.4998 248.128 29.9165 249.342 33.8449C250.098 36.509 250.022 39.3403 249.125 41.9601C248.873 42.6585 248.55 43.3296 248.163 43.9632C248.029 44.1856 247.876 44.3962 247.705 44.5927C248.161 43.7215 248.544 42.8142 248.85 41.88C249.634 39.298 249.634 36.5414 248.85 33.9593C247.611 30.1517 245.164 26.8523 241.879 24.5621C238.039 21.5896 233.271 20.0694 228.419 20.2698C225.913 20.4853 223.505 21.3406 221.425 22.7536C219.497 24.0721 217.997 25.9263 217.11 28.0875C216.339 30.0614 215.984 32.1736 216.068 34.2913C216.14 36.1474 216.451 37.9864 216.996 39.7625C217.825 42.3335 218.878 44.8269 220.143 47.2139L221.139 49.194C221.266 49.4052 221.373 49.6274 221.46 49.8579Z" fill="#455A64"/>
<path d="M290.548 61.4745C290.479 61.3829 291.772 60.4329 293.363 58.4413C295.455 55.8693 296.866 52.8123 297.466 49.5519C298.066 46.2914 297.836 42.9324 296.797 39.7842C296.007 37.3576 295.137 36.007 295.24 35.9612C295.343 35.9154 295.515 36.2474 295.893 36.8769C296.413 37.7578 296.85 38.6851 297.198 39.6468C298.376 42.8476 298.672 46.3061 298.056 49.6608C297.44 53.0154 295.934 56.1428 293.695 58.716C293.027 59.4896 292.292 60.2021 291.498 60.8449C291.213 61.0995 290.893 61.3115 290.548 61.4745Z" fill="#455A64"/>
<path d="M278.266 61.3614C278.266 61.3042 278.929 61.0409 279.983 60.2855C281.449 59.2288 282.594 57.7867 283.29 56.1191L283.817 54.8143L283.725 56.2221C283.6 58.1222 283.451 60.3084 283.302 62.6892L282.856 62.4373C284.752 61.0727 286.36 59.347 287.588 57.3592C288.815 55.3714 289.638 53.1606 290.009 50.8539C290.319 48.7458 290.257 46.5996 289.826 44.5128C289.367 42.5961 288.683 40.7404 287.789 38.9844C287.889 39.0843 287.978 39.1957 288.052 39.3163C288.276 39.6406 288.482 39.9769 288.67 40.3236C289.368 41.6144 289.892 42.9924 290.227 44.4213C291.032 47.8526 290.79 51.4464 289.534 54.7392C288.277 58.032 286.062 60.8727 283.176 62.8952L282.684 63.2386V62.6434L283.222 56.1878L283.668 56.2908C282.912 58.015 281.666 59.4795 280.086 60.503C279.658 60.7775 279.206 61.0113 278.735 61.2012C278.585 61.2731 278.428 61.3269 278.266 61.3614Z" fill="#455A64"/>
<path d="M273.87 33.054C273.054 31.5873 271.962 30.2929 270.654 29.2424C269.211 28.1619 267.531 27.44 265.755 27.1364C263.569 26.7813 261.327 27.0348 259.276 27.8689C257.218 28.6929 255.385 29.9956 253.931 31.669C252.748 33.031 251.797 34.5777 251.115 36.2474C250.537 37.8316 250.081 39.4579 249.753 41.112C249.708 40.6533 249.731 40.1904 249.822 39.7385C249.982 38.4956 250.282 37.2747 250.714 36.0986C251.367 34.3405 252.315 32.7068 253.519 31.2684C255.013 29.5064 256.915 28.1353 259.059 27.2737C261.213 26.4026 263.568 26.1527 265.858 26.5526C267.713 26.9091 269.451 27.7191 270.917 28.9105C271.9 29.7064 272.723 30.6812 273.343 31.7835C273.507 32.0833 273.652 32.3929 273.778 32.7106C273.829 32.8186 273.86 32.9349 273.87 33.054Z" fill="#455A64"/>
<path d="M270.483 22.845C269.265 22.267 267.992 21.8144 266.682 21.4943C263.546 20.904 260.302 21.4433 257.526 23.0167C254.772 24.6828 252.552 27.1014 251.127 29.9873C249.983 32.1849 249.674 33.7073 249.571 33.6729C249.566 33.3071 249.624 32.9432 249.742 32.597C249.995 31.6345 250.332 30.6961 250.75 29.7927C252.115 26.7804 254.367 24.2566 257.205 22.5588C260.116 20.8898 263.551 20.3828 266.82 21.1395C267.798 21.3829 268.735 21.7685 269.601 22.2841C269.92 22.4283 270.217 22.6171 270.483 22.845Z" fill="#455A64"/>
<path d="M188.001 339.879L315.9 341.619C315.9 341.619 351.669 326.648 361.501 326.247C371.333 325.847 390.837 327.094 399.856 341.619C409.185 356.636 410.49 383.123 381.749 402.363C353.752 421.112 225.75 438.43 208.204 436.839L175.88 393.413C175.88 393.413 175.548 357.827 175.88 356.133C176.212 354.439 181.603 339.193 181.603 339.193L188.001 339.879Z" fill="#3B4D60"/>
<path d="M264.575 399.947L330.859 424.568L300.653 507.174C292.938 503.809 292.721 455.278 292.721 455.278L249.604 441.245L264.575 399.947Z" fill="#E76F51"/>
<g opacity="0.6">
<path d="M298.479 428.425C299.011 427.718 299.786 427.233 300.654 427.062C301.522 426.891 302.422 427.046 303.183 427.498C303.911 428 304.416 428.763 304.596 429.628C304.775 430.494 304.613 431.395 304.144 432.145C303.149 433.61 300.516 434.228 299.154 433.106C297.792 431.984 297.38 429.329 298.696 428.15" fill="white"/>
</g>
<path d="M330.859 424.568L324.163 422.027L297.654 502.379C297.654 502.379 297.906 506.648 300.653 507.175L330.859 424.568Z" fill="#3B4D60"/>
<path d="M291.863 456.455C292.275 456.592 293.191 454.646 295.217 453.136C297.243 451.625 299.326 451.19 299.303 450.755C299.28 450.32 296.727 450.079 294.312 451.899C291.897 453.719 291.405 456.363 291.863 456.455Z" fill="#3B4D60"/>
<path d="M292.23 466.437C292.584 466.666 293.901 465.178 296.11 464.434C298.319 463.69 300.265 463.941 300.402 463.541C300.539 463.14 298.342 462.041 295.618 463.014C292.893 463.987 291.863 466.288 292.23 466.437Z" fill="#3B4D60"/>
<path d="M300.792 475.148C301.021 474.816 299.201 473.511 296.614 473.74C294.028 473.969 292.459 475.537 292.734 475.834C293.009 476.132 294.611 475.388 296.74 475.228C298.869 475.067 300.609 475.537 300.792 475.148Z" fill="#3B4D60"/>
<path d="M282.341 452.175C282.765 452.175 282.891 450.081 283.875 447.86C284.859 445.64 286.233 444.117 285.97 443.785C285.706 443.453 283.68 444.632 282.536 447.219C281.391 449.806 281.952 452.255 282.341 452.175Z" fill="#3B4D60"/>
<path d="M273.253 446.623C273.425 446.68 274.249 445.18 274.752 442.479C275.026 440.888 275.111 439.271 275.004 437.66C274.932 436.707 274.803 435.759 274.615 434.822C274.52 434.265 274.342 433.725 274.088 433.219C273.902 432.849 273.596 432.551 273.221 432.375C272.845 432.199 272.421 432.153 272.017 432.246C271.661 432.345 271.334 432.526 271.062 432.774C270.789 433.023 270.579 433.332 270.449 433.677C270.256 434.2 270.137 434.747 270.094 435.303C269.984 436.264 269.965 437.233 270.037 438.198C270.162 439.829 270.548 441.429 271.181 442.937C272.257 445.501 273.47 446.703 273.653 446.6C273.837 446.497 272.921 445.066 272.177 442.582C271.74 441.136 271.494 439.639 271.444 438.13C271.417 437.246 271.463 436.362 271.582 435.486C271.673 434.524 271.937 433.78 272.406 433.7C272.589 433.7 272.646 433.7 272.841 433.963C273.013 434.328 273.14 434.712 273.219 435.108C273.418 435.976 273.567 436.855 273.665 437.741C273.829 439.261 273.852 440.794 273.734 442.319C273.55 444.917 273.035 446.543 273.253 446.623Z" fill="#3B4D60"/>
<path d="M274.031 446.302C274.145 446.188 272.989 444.86 270.425 443.75C268.927 443.1 267.327 442.713 265.698 442.605C264.727 442.556 263.753 442.602 262.79 442.742C262.164 442.766 261.554 442.951 261.021 443.28C260.487 443.609 260.048 444.07 259.746 444.62C259.618 444.988 259.598 445.386 259.689 445.765C259.781 446.145 259.979 446.49 260.261 446.76C260.665 447.152 261.124 447.483 261.623 447.744C262.496 448.225 263.438 448.569 264.416 448.763C266.044 449.108 267.733 449.037 269.326 448.557C272.062 447.733 273.161 446.268 273.035 446.142C272.909 446.016 271.592 447.046 269.086 447.538C267.637 447.814 266.146 447.775 264.713 447.424C263.889 447.213 263.096 446.894 262.356 446.474C261.52 446.016 260.936 445.432 261.142 445.135C261.348 444.837 262.207 444.265 263.031 444.185C263.893 444.039 264.766 443.97 265.641 443.979C267.143 444.011 268.633 444.25 270.07 444.688C272.531 445.524 273.882 446.508 274.031 446.302Z" fill="#3B4D60"/>
<path d="M209.91 389.738L145.812 419.498L182.44 499.483C189.857 495.523 186.263 447.117 186.263 447.117L228.144 429.742L209.91 389.738Z" fill="#E76F51"/>
<g opacity="0.6">
<path d="M178.353 420.789C177.767 420.126 176.958 419.702 176.079 419.599C175.201 419.495 174.315 419.72 173.591 420.228C172.905 420.788 172.461 421.59 172.352 422.469C172.243 423.348 172.478 424.235 173.007 424.944C174.152 426.318 176.773 426.73 178.044 425.505C179.314 424.28 179.52 421.602 178.112 420.538" fill="white"/>
</g>
<path d="M145.777 419.485L152.244 416.486L184.992 494.457C184.992 494.457 185.072 498.726 182.382 499.47L145.777 419.485Z" fill="#3B4D60"/>
<path d="M187.213 448.215C186.812 448.387 185.737 446.51 183.608 445.159C181.479 443.808 179.361 443.545 179.35 443.11C179.338 442.675 181.868 442.229 184.42 443.911C186.973 445.594 187.602 448.135 187.213 448.215Z" fill="#3B4D60"/>
<path d="M187.579 458.196C187.235 458.459 185.804 457.051 183.538 456.502C181.272 455.952 179.36 456.341 179.2 455.952C179.04 455.563 181.134 454.292 183.927 455.048C186.72 455.803 187.945 458.012 187.579 458.196Z" fill="#3B4D60"/>
<path d="M179.693 467.558C179.452 467.238 181.146 465.796 183.744 465.819C186.343 465.842 188.037 467.284 187.785 467.604C187.533 467.925 185.873 467.307 183.744 467.318C181.616 467.33 179.933 467.925 179.693 467.558Z" fill="#3B4D60"/>
<path d="M196.311 443.2C195.876 443.2 195.602 441.151 194.434 439.022C193.267 436.893 191.79 435.474 192.042 435.119C192.294 434.764 194.423 435.783 195.762 438.324C197.101 440.865 196.701 443.246 196.311 443.2Z" fill="#3B4D60"/>
<path d="M204.93 436.906C204.77 436.986 203.785 435.544 203.122 432.889C202.712 431.326 202.496 429.719 202.481 428.104C202.477 427.151 202.535 426.2 202.652 425.254C202.693 424.687 202.824 424.131 203.041 423.606C203.196 423.219 203.477 422.896 203.839 422.688C204.2 422.48 204.621 422.4 205.033 422.461C205.397 422.525 205.74 422.676 206.033 422.901C206.326 423.126 206.56 423.419 206.716 423.755C206.948 424.298 207.099 424.873 207.162 425.46C207.345 426.411 207.441 427.376 207.448 428.344C207.454 429.971 207.207 431.589 206.716 433.14C205.846 435.784 204.678 437.089 204.541 436.986C204.404 436.883 205.136 435.407 205.685 432.866C206.006 431.393 206.133 429.885 206.063 428.379C206.024 427.493 205.909 426.612 205.72 425.746C205.56 424.808 205.239 424.075 204.758 424.029C204.575 424.029 204.518 424.029 204.346 424.327C204.207 424.695 204.115 425.08 204.072 425.472C203.938 426.355 203.858 427.245 203.831 428.138C203.78 429.67 203.876 431.203 204.117 432.717C204.564 435.304 205.148 436.906 204.93 436.906Z" fill="#3B4D60"/>
<path d="M204.141 436.701C204.015 436.586 205.057 435.167 207.518 433.873C209.842 432.674 212.452 432.139 215.061 432.328C215.688 432.301 216.312 432.436 216.871 432.721C217.431 433.006 217.907 433.43 218.254 433.954C218.408 434.314 218.456 434.711 218.393 435.098C218.33 435.485 218.159 435.846 217.899 436.14C217.525 436.56 217.093 436.927 216.617 437.227C215.784 437.773 214.874 438.19 213.916 438.463C212.319 438.929 210.632 438.992 209.006 438.646C206.213 438.028 204.999 436.621 205.114 436.517C205.228 436.414 206.625 437.319 209.166 437.662C210.632 437.825 212.116 437.669 213.515 437.204C214.329 436.934 215.1 436.548 215.805 436.06C216.594 435.545 217.144 434.915 216.949 434.64C216.703 434.372 216.402 434.162 216.065 434.023C215.729 433.885 215.367 433.822 215.003 433.839C214.128 433.753 213.246 433.753 212.371 433.839C210.878 433.981 209.413 434.336 208.021 434.892C205.56 435.762 204.29 436.907 204.141 436.701Z" fill="#3B4D60"/>
<path d="M181.638 339.203C181.638 339.203 126.399 318.6 106.094 321.232C94.728 322.732 76.9522 331.408 75.5902 345.979C74.2281 360.55 77.7992 380.042 97.4521 389.531C117.105 399.02 195.556 434.228 214.202 439.642C232.848 445.056 279.273 457.761 279.273 457.761L296.923 407.398C296.923 407.398 200.604 374.045 195.522 370.313C190.44 366.582 177.563 361.511 177.563 361.511L181.638 339.203Z" fill="#3B4D60"/>
<path d="M373.669 346.036L373.28 345.944L372.135 345.601C371.162 345.314 369.72 344.891 367.843 344.456C362.548 343.112 357.059 342.705 351.624 343.254C347.876 343.575 344.171 344.281 340.567 345.36C338.567 345.966 336.619 346.732 334.741 347.649L328.732 350.591C320.468 354.54 311.231 358.603 301.41 362.461C281.723 370.347 262.825 374.09 249.353 377.157C242.6 378.645 237.129 379.882 233.329 380.774L228.991 381.804L227.846 382.056L227.457 382.125C227.571 382.063 227.695 382.02 227.823 381.999L228.968 381.69C229.952 381.427 231.394 381.015 233.283 380.545C237.026 379.584 242.44 378.256 249.227 376.745C262.688 373.575 281.528 369.775 301.147 361.865C310.967 357.985 320.193 353.968 328.457 350.042L334.478 347.134C336.385 346.213 338.364 345.447 340.395 344.845C344.032 343.767 347.773 343.08 351.555 342.796C357.055 342.27 362.604 342.743 367.935 344.193C369.812 344.673 371.242 345.131 372.215 345.463L373.303 345.864L373.669 346.036Z" fill="#455A64"/>
<path d="M370.76 338.757C370.76 338.86 369.078 338.55 366.377 338.264C359.325 337.487 352.193 337.854 345.259 339.352C342.592 339.913 340.966 340.382 340.943 340.29C341.305 340.094 341.689 339.944 342.088 339.844C342.809 339.592 343.874 339.272 345.201 338.94C348.671 338.07 352.217 337.541 355.789 337.36C359.356 337.181 362.932 337.342 366.468 337.841C367.83 338.047 368.918 338.253 369.662 338.425C370.039 338.496 370.407 338.607 370.76 338.757Z" fill="#455A64"/>
<path d="M158.402 353.806C158.344 353.887 156.811 352.662 154.167 351.071C147.26 346.775 139.497 344.041 131.423 343.059C128.333 342.669 126.398 342.635 126.398 342.532C126.848 342.451 127.305 342.424 127.761 342.452C128.642 342.452 129.912 342.452 131.469 342.635C139.648 343.413 147.51 346.192 154.361 350.727C155.399 351.402 156.4 352.132 157.36 352.914C157.745 353.164 158.095 353.464 158.402 353.806Z" fill="#455A64"/>
<path d="M186.124 428.894L186.559 429.055L187.807 429.581C188.951 430.039 190.531 430.794 192.694 431.63C196.998 433.335 203.351 435.67 211.512 438.36C227.822 443.683 251.275 450.482 279.341 457.544L279.032 457.715L296.109 410.317L296.27 410.695L275.117 402.008L158.104 353.808C153.343 348.772 148.947 344.331 144.85 340.737C141.367 337.665 137.651 334.867 133.736 332.37C131.272 330.819 128.727 329.402 126.113 328.123L124.064 327.162L123.377 326.818L124.087 327.116L126.158 328.02C128.802 329.257 131.37 330.648 133.85 332.187C137.8 334.658 141.548 337.441 145.056 340.508C149.199 344.079 153.606 348.52 158.39 353.533H158.322L275.346 401.424L296.499 410.111L296.75 410.214L296.659 410.489L279.49 457.864L279.41 458.093L279.169 458.036C251.104 450.916 227.662 444.049 211.363 438.578C203.213 435.853 196.872 433.461 192.58 431.71C190.428 430.863 188.826 430.073 187.727 429.592L186.491 429.032L186.124 428.894Z" fill="#455A64"/>
<path d="M322.653 163.15C322.653 163.15 338.563 172.307 341.791 183.078C343.748 189.614 358.583 273.239 360.929 289.721C363.275 306.203 358.319 318.428 351.291 323.899C344.264 329.37 322.94 336.65 322.94 336.65L293.008 346.367L284.412 324.483L312.913 283.529L310.177 255.863L322.653 163.15Z" fill="#E76F51"/>
<path d="M291.394 148.706L279.444 141.838C279.444 141.838 268.559 154.566 253.714 153.01C238.868 151.453 230.055 140.133 230.055 140.133L185.781 149.141C182.817 149.736 177.403 151.613 172.218 159.019C166.437 167.271 139.024 203.887 139.024 203.887H119.886C117.294 203.887 114.752 204.595 112.533 205.934C110.314 207.274 108.503 209.194 107.296 211.488C104.022 217.726 100.096 226.058 100.428 229.515C101.08 235.364 99.9472 251.4 107.788 256.402C110.272 257.993 119.154 262.754 126.101 262.434C136.277 261.953 148.101 256.654 154.911 251.892C160.634 247.852 174.083 233.91 179.245 228.473V228.588L182.565 344.708L298.628 341.412L322.665 163.174C322.665 163.174 292.561 148.706 291.394 148.706Z" fill="#E76F51"/>
<path d="M178.821 179.828C178.982 179.828 179.291 194.216 179.497 211.969C179.703 229.721 179.748 244.121 179.577 244.121C179.405 244.121 179.107 229.733 178.901 211.98C178.695 194.227 178.661 179.828 178.821 179.828Z" fill="#3B4D60"/>
<path d="M336.708 273.696C336.708 273.696 335.724 273.856 333.973 274.188C331.499 274.681 329.088 275.449 326.785 276.478C323.376 278.016 320.163 279.956 317.216 282.258C313.603 285.085 310.231 288.205 307.132 291.586C303.812 295.169 300.791 298.706 297.975 301.888C295.475 304.69 292.835 307.364 290.066 309.9C288.192 311.616 286.208 313.207 284.125 314.662C283.393 315.177 282.786 315.52 282.385 315.806C282.19 315.946 281.979 316.061 281.756 316.15C281.927 315.983 282.115 315.833 282.317 315.703C282.694 315.417 283.278 315.039 283.988 314.49C286.013 312.98 287.947 311.352 289.78 309.614C292.126 307.439 294.747 304.669 297.563 301.499C300.379 298.328 303.4 294.78 306.72 291.197C309.845 287.798 313.253 284.669 316.907 281.846C319.9 279.542 323.168 277.62 326.636 276.123C328.978 275.119 331.434 274.404 333.95 273.994C334.843 273.822 335.541 273.822 336.01 273.765C336.239 273.713 336.474 273.69 336.708 273.696Z" fill="#3B4D60"/>
<path d="M339.342 265.834C339.342 265.937 337.579 266.189 334.763 266.978C327.527 268.981 320.961 272.891 315.751 278.299C313.76 280.37 312.695 281.812 312.615 281.732C312.792 281.352 313.015 280.994 313.279 280.668C313.941 279.732 314.664 278.842 315.442 278.001C320.555 272.349 327.245 268.362 334.649 266.555C335.762 266.281 336.889 266.071 338.025 265.925C338.458 265.834 338.901 265.803 339.342 265.834Z" fill="#3B4D60"/>
<g opacity="0.3">
<path d="M123.32 245.449C129.467 247.12 136.838 238.284 142.424 232.755C145.32 229.871 148.341 226.803 149.417 222.854C150.173 219.536 149.832 216.062 148.444 212.954C147.415 210.151 146.043 207.487 144.358 205.021C144.873 209.794 146.052 217.097 144.45 223.095C143.111 228.097 139.94 232.069 136.575 235.846C133.027 239.84 128.814 244.03 123.32 245.449Z" fill="black"/>
</g>
<path d="M149.588 240.388C149.474 240.388 150.184 238.362 150.733 235.032C151.066 233.083 151.254 231.113 151.294 229.137C151.335 226.72 151.174 224.304 150.813 221.914C150.418 219.528 149.829 217.177 149.05 214.886C148.398 213.019 147.61 211.202 146.692 209.45C145.124 206.451 143.831 204.78 143.923 204.711C144.283 205.054 144.602 205.438 144.873 205.856C145.234 206.308 145.566 206.782 145.868 207.275C146.235 207.847 146.67 208.488 147.07 209.244C148.046 210.99 148.881 212.812 149.565 214.692C150.388 217.005 151.001 219.388 151.397 221.811C151.769 224.238 151.919 226.694 151.843 229.148C151.782 231.152 151.548 233.148 151.145 235.112C151.008 235.959 150.79 236.691 150.619 237.401C150.48 237.962 150.311 238.516 150.115 239.061C149.982 239.519 149.806 239.963 149.588 240.388Z" fill="#3B4D60"/>
<path d="M234.907 144.621C234.987 144.77 233.625 145.56 232.206 146.842C230.786 148.124 229.825 149.371 229.688 149.268C230.186 148.173 230.908 147.194 231.807 146.394C232.705 145.593 233.761 144.99 234.907 144.621Z" fill="#3B4D60"/>
<path d="M246.983 151.637C247.109 151.763 245.941 153.01 245.003 154.864C244.064 156.719 243.71 158.39 243.538 158.298C243.456 156.976 243.783 155.661 244.476 154.533C245.002 153.337 245.876 152.328 246.983 151.637Z" fill="#3B4D60"/>
<path d="M267.666 158.917C267.112 157.818 266.668 156.668 266.338 155.483C265.833 154.355 265.449 153.177 265.193 151.969C266.003 152.939 266.596 154.071 266.933 155.288C267.439 156.43 267.689 157.668 267.666 158.917Z" fill="#3B4D60"/>
<path d="M280.977 152.62C280.794 152.62 280.348 150.64 279.032 148.499C277.715 146.359 276.159 145.008 276.285 144.871C277.676 145.63 278.812 146.786 279.547 148.19C280.451 149.493 280.949 151.034 280.977 152.62Z" fill="#3B4D60"/>
<path d="M319.185 190.232C319.356 190.232 317.388 206.12 314.801 225.658C312.214 245.196 309.982 261.026 309.822 261.003C309.661 260.981 311.619 245.128 314.206 225.578C316.792 206.028 319.024 190.21 319.185 190.232Z" fill="#3B4D60"/>
<path d="M145.263 215.918C145.308 216.463 145.308 217.01 145.263 217.555C145.232 218.197 145.152 218.836 145.023 219.466C144.954 219.844 144.897 220.233 144.817 220.611C144.737 220.989 144.611 221.458 144.485 221.916C143.92 224.063 143.154 226.151 142.196 228.154C140.993 230.591 139.563 232.909 137.926 235.079C136.242 237.231 134.322 239.189 132.203 240.916C130.459 242.313 128.534 243.468 126.48 244.35C126.034 244.522 125.622 244.716 125.221 244.865L124.076 245.186L123.069 245.46C122.76 245.529 122.463 245.54 122.199 245.586C121.658 245.672 121.111 245.714 120.562 245.712C122.525 245.324 124.442 244.737 126.286 243.961C128.261 243.052 130.115 241.898 131.803 240.527C133.844 238.818 135.7 236.899 137.342 234.804C138.956 232.67 140.374 230.394 141.577 228.005C142.545 226.04 143.342 223.995 143.958 221.893C144.496 219.925 144.932 217.931 145.263 215.918Z" fill="#3B4D60"/>
<g opacity="0.3">
<path d="M315.454 348.657C320.375 346.276 321.497 339.9 322.001 334.452C323.466 318.512 324.935 302.56 326.407 286.596C327.106 279.099 327.438 270.572 322.15 265.169C317.319 260.27 309.639 259.984 302.76 260.007C260.295 260.121 222.786 261.369 180.287 261.483L182.45 335.78L315.454 348.657Z" fill="black"/>
</g>
<path d="M162.008 272.999L166.529 359.165C166.623 360.775 167.33 362.287 168.506 363.39C169.681 364.493 171.235 365.103 172.847 365.094L310.108 365.335C311.723 365.34 313.279 364.726 314.454 363.619C315.63 362.511 316.336 360.995 316.427 359.383L321.657 274.682C321.841 271.157 319.368 266.475 315.774 266.407H168.452C167.587 266.383 166.726 266.539 165.924 266.864C165.122 267.189 164.395 267.677 163.79 268.296C163.185 268.915 162.715 269.652 162.408 270.461C162.101 271.271 161.965 272.135 162.008 272.999Z" fill="#E0E0E0"/>
<path d="M162.009 272.998C162.009 272.998 162.009 272.884 162.009 272.678C161.979 272.358 161.979 272.036 162.009 271.717C162.196 270.459 162.763 269.289 163.634 268.363C164.273 267.679 165.055 267.143 165.923 266.795C166.986 266.413 168.117 266.257 169.243 266.337H177.587L230.765 266.245L309.64 266.165H315.249C316.243 266.112 317.229 266.364 318.076 266.886C318.911 267.418 319.625 268.12 320.171 268.947C321.293 270.585 321.896 272.523 321.899 274.509C321.784 276.421 321.67 278.355 321.556 280.301C321.075 288.054 320.586 295.963 320.09 304.029C319.106 320.156 318.076 336.845 317.011 353.945L316.817 357.15C316.725 358.214 316.748 359.245 316.554 360.366C316.333 361.462 315.837 362.484 315.112 363.335C314.387 364.186 313.457 364.839 312.41 365.231C311.38 365.596 310.284 365.741 309.194 365.654H299.751H275.107L228.522 365.551L186.366 365.448H176.637H174.313C173.524 365.448 172.745 365.448 171.921 365.368C170.315 365.142 168.85 364.326 167.812 363.079C166.799 361.863 166.255 360.324 166.278 358.741C166.198 357.241 166.129 355.765 166.049 354.3C165.901 351.358 165.752 348.497 165.603 345.692C164.458 323.27 163.554 305.128 162.913 292.583C162.616 286.322 162.375 281.457 162.215 278.138C162.146 276.49 162.089 275.242 162.043 274.383C161.997 273.525 162.043 273.102 162.043 273.102C162.043 273.102 162.043 273.536 162.146 274.383C162.249 275.23 162.272 276.49 162.364 278.126C162.558 281.446 162.833 286.31 163.188 292.571C163.863 305.162 164.848 323.258 166.061 345.67C166.21 348.474 166.37 351.335 166.53 354.277C166.599 355.742 166.679 357.219 166.759 358.718C166.736 360.202 167.248 361.644 168.201 362.781C169.169 363.935 170.532 364.686 172.024 364.887C172.785 364.956 173.55 364.978 174.313 364.956H186.412H228.568L275.153 365.025H299.797H309.24C310.259 365.106 311.285 364.974 312.25 364.636C313.201 364.28 314.046 363.688 314.705 362.915C315.364 362.142 315.815 361.213 316.016 360.217C316.187 359.245 316.187 358.123 316.267 357.081L316.462 353.876C317.526 336.776 318.557 320.088 319.564 303.971C320.06 295.898 320.548 287.985 321.029 280.232C321.155 278.298 321.269 276.375 321.384 274.452C321.376 272.589 320.81 270.771 319.758 269.233C319.306 268.449 318.653 267.801 317.866 267.354C317.079 266.907 316.188 266.679 315.283 266.692H309.686H230.811L177.633 266.612H169.289C168.184 266.526 167.073 266.67 166.026 267.035C165.014 267.426 164.12 268.073 163.434 268.914C162.747 269.755 162.292 270.76 162.112 271.831C162.058 272.218 162.024 272.608 162.009 272.998Z" fill="#3B4D60"/>
<path d="M242.85 323.109C247.313 323.109 250.931 319.491 250.931 315.028C250.931 310.565 247.313 306.947 242.85 306.947C238.387 306.947 234.77 310.565 234.77 315.028C234.77 319.491 238.387 323.109 242.85 323.109Z" fill="white"/>
<path d="M250.932 315.028C250.875 315.028 250.932 314.307 250.566 313.083C250.092 311.354 249.052 309.835 247.613 308.767C246.637 308.03 245.499 307.536 244.293 307.325C242.919 307.085 241.506 307.212 240.196 307.691C238.744 308.216 237.484 309.165 236.579 310.416C235.656 311.678 235.133 313.188 235.077 314.751C235.021 316.314 235.436 317.857 236.266 319.182C237.097 320.507 238.306 321.553 239.737 322.183C241.168 322.814 242.755 323.001 244.293 322.72C245.499 322.51 246.637 322.015 247.613 321.278C249.05 320.213 250.089 318.698 250.566 316.974C250.898 315.749 250.875 315.017 250.932 315.028C250.962 315.199 250.962 315.373 250.932 315.543C250.939 316.045 250.881 316.545 250.76 317.031C250.344 318.848 249.313 320.465 247.842 321.61C246.742 322.467 245.443 323.032 244.066 323.252C242.689 323.472 241.279 323.34 239.967 322.869C238.741 322.431 237.636 321.713 236.738 320.771C235.84 319.829 235.176 318.689 234.797 317.444C234.419 316.199 234.338 314.883 234.559 313.601C234.781 312.319 235.3 311.106 236.075 310.061C237.05 308.725 238.407 307.715 239.967 307.165C241.372 306.662 242.886 306.548 244.351 306.833C245.605 307.085 246.781 307.63 247.785 308.424C249.261 309.564 250.293 311.183 250.703 313.002C250.824 313.485 250.882 313.981 250.875 314.479C250.926 314.657 250.946 314.843 250.932 315.028Z" fill="#3B4D60"/>
<path d="M166.632 282.533C166.792 282.533 167.479 297.012 168.143 314.88C168.807 332.747 169.219 347.238 169.059 347.238C168.898 347.238 168.246 332.747 167.548 314.891C166.85 297.035 166.472 282.545 166.632 282.533Z" fill="#3B4D60"/>
<path d="M125.381 170.11C124.568 169.423 128.093 155.894 128.093 155.894C128.093 155.894 118.776 140.705 118.536 135.806C118.296 130.908 122.21 120.858 122.21 120.858L148.914 113.99C148.914 113.99 157.498 129.923 159.215 135.555C160.932 141.186 156.274 160.301 156.274 160.301L151.695 170.11C151.695 170.11 138.097 180.892 125.381 170.11Z" fill="#E9C46A"/>
<path d="M118.581 138.735C117.536 136.808 116.596 134.824 115.765 132.795C114.083 128.789 112 124.851 115.765 122.608C116.353 122.221 117.017 121.965 117.712 121.856C118.407 121.748 119.117 121.789 119.794 121.978C119.794 121.978 119.222 118.544 121.237 117.331C121.823 116.965 122.487 116.743 123.176 116.683C123.864 116.624 124.557 116.728 125.197 116.988C125.197 116.988 124.556 112.226 127.486 110.212C128.577 109.492 129.846 109.09 131.152 109.051C132.458 109.013 133.749 109.339 134.88 109.994C134.88 109.994 132.591 89.151 132.385 88.0522C131.653 84.0002 133.152 80.4062 137.181 81.4134C138.658 81.7797 139.47 83.3364 141.21 90.1239C142.95 96.9114 145.731 108.495 145.731 108.495C145.731 108.495 150.424 116.644 152.599 121.085C154.774 125.527 159.203 135.576 159.569 138.255C160.508 145.122 156.468 154.279 156.468 154.279L128.081 155.927L118.581 138.735Z" fill="#E9C46A"/>
<path d="M120.356 122.871C121.165 123.836 121.9 124.862 122.554 125.939L124.843 129.372C125.307 130.049 125.716 130.761 126.068 131.501C126.467 132.347 126.583 133.298 126.4 134.214C126.313 134.693 126.102 135.14 125.786 135.51C125.47 135.88 125.062 136.16 124.603 136.32C123.745 136.535 122.839 136.42 122.062 136C121.393 135.679 120.757 135.296 120.161 134.855C119.612 134.455 119.097 134.065 118.639 133.711C117.712 132.989 117.002 132.371 116.522 131.925C116.041 131.479 115.789 131.227 115.812 131.192C115.835 131.158 116.957 132.028 118.891 133.367C119.972 134.181 121.121 134.901 122.325 135.519C122.982 135.865 123.744 135.959 124.465 135.782C124.826 135.652 125.144 135.426 125.388 135.13C125.631 134.834 125.791 134.478 125.85 134.1C125.996 133.325 125.896 132.525 125.564 131.81C125.235 131.096 124.852 130.407 124.419 129.75L122.279 126.316C121.543 125.224 120.899 124.071 120.356 122.871Z" fill="#E9C46A"/>
<path d="M143.638 125.356C143.393 123.865 143.495 122.338 143.935 120.892C144.192 119.401 144.8 117.993 145.709 116.783C145.869 116.863 145.08 118.683 144.565 121.03C144.05 123.376 143.821 125.356 143.638 125.356Z" fill="#E9C46A"/>
<path d="M154.899 131.444C152.279 128.908 148.978 127.186 145.399 126.488C141.835 125.802 138.188 125.663 134.582 126.076C131.698 126.339 128.39 127.083 127.085 129.67C125.78 132.257 127.36 135.759 129.912 137.282C132.465 138.804 135.635 138.873 138.623 138.609C141.61 138.346 144.586 137.785 147.539 138.243" fill="#E9C46A"/>
<path d="M147.54 138.243C147.54 138.243 146.739 138.163 145.251 138.243C143.216 138.332 141.188 138.523 139.173 138.816C137.757 138.996 136.329 139.058 134.903 138.999C133.241 138.942 131.61 138.532 130.119 137.797C128.454 136.92 127.186 135.443 126.571 133.665C126.244 132.716 126.173 131.697 126.365 130.712C126.609 129.696 127.156 128.778 127.933 128.079C129.509 126.86 131.406 126.125 133.393 125.962C135.182 125.751 136.982 125.644 138.784 125.641C141.849 125.585 144.902 126.046 147.815 127.003C149.774 127.662 151.606 128.653 153.229 129.934C153.672 130.284 154.089 130.667 154.476 131.078C154.621 131.21 154.748 131.36 154.854 131.525C154.854 131.525 154.259 130.987 153.091 130.14C151.442 128.954 149.614 128.038 147.677 127.427C144.802 126.542 141.802 126.132 138.795 126.214C137.016 126.233 135.239 126.352 133.473 126.568C131.604 126.718 129.819 127.406 128.333 128.549C127.65 129.153 127.166 129.952 126.948 130.838C126.77 131.719 126.829 132.631 127.12 133.482C127.683 135.127 128.849 136.497 130.382 137.316C131.809 138.02 133.37 138.41 134.961 138.461C136.358 138.538 137.758 138.503 139.15 138.358C141.184 138.092 143.233 137.959 145.285 137.957C145.841 137.982 146.395 138.036 146.945 138.117C147.148 138.13 147.349 138.172 147.54 138.243Z" fill="#E9C46A"/>
<path d="M120.562 123.205C123.55 127.783 126.183 132.728 128.701 137.535C129.302 139.007 130.291 140.289 131.562 141.244C132.638 141.908 135.305 140.706 136.507 140.294L128.3 121.637" fill="#E9C46A"/>
<path d="M128.3 121.637C128.587 122.074 128.832 122.538 129.033 123.022L130.841 126.936C132.363 130.256 134.447 134.948 136.77 140.179L136.907 140.465L136.598 140.58C135.717 140.889 134.767 141.29 133.737 141.553C133.324 141.655 132.903 141.717 132.478 141.736C132.254 141.747 132.031 141.724 131.814 141.667C131.588 141.612 131.376 141.506 131.196 141.358C130.535 140.882 129.972 140.284 129.536 139.596C128.701 138.268 128.105 136.94 127.43 135.715C126.148 133.232 124.969 131.011 123.939 129.157C122.909 127.303 122.062 125.826 121.455 124.807C121.121 124.294 120.823 123.759 120.562 123.205C120.974 123.663 121.338 124.162 121.65 124.693C122.314 125.666 123.241 127.119 124.305 128.951C125.37 130.782 126.595 132.98 127.922 135.452C128.598 136.677 129.227 138.027 130.028 139.275C130.426 139.896 130.935 140.439 131.528 140.878C131.844 141.042 132.192 141.135 132.548 141.151C132.904 141.167 133.259 141.105 133.588 140.969C134.561 140.729 135.488 140.34 136.404 140.019L136.198 140.454C133.909 135.177 131.871 130.496 130.475 127.131L128.827 123.148C128.607 122.66 128.431 122.155 128.3 121.637Z" fill="#E9C46A"/>
<path d="M126.09 116.084C128.723 122.7 131.359 129.312 133.999 135.92C134.48 137.358 135.2 138.704 136.128 139.903C136.597 140.498 137.207 140.968 137.902 141.269C138.597 141.571 139.356 141.695 140.111 141.631C142.172 141.334 143.545 139.148 143.625 137.053C143.562 134.963 143.055 132.911 142.137 131.032C139.772 124.999 137.878 118.792 136.472 112.467" fill="#E9C46A"/>
<path d="M136.473 112.48C136.552 112.678 136.617 112.88 136.667 113.087C136.793 113.545 136.942 114.129 137.136 114.838C137.548 116.361 138.144 118.558 138.979 121.248C139.815 123.938 140.891 127.109 142.253 130.565C143.097 132.376 143.656 134.307 143.912 136.288C143.988 137.376 143.779 138.465 143.306 139.447C142.822 140.474 141.979 141.288 140.936 141.737C140.395 141.935 139.816 142.013 139.241 141.965C138.666 141.918 138.108 141.746 137.606 141.462C136.666 140.939 135.878 140.182 135.316 139.264C134.37 137.537 133.57 135.734 132.924 133.873C131.574 130.439 130.36 127.303 129.319 124.659C128.277 122.015 127.533 119.966 126.938 118.421L126.308 116.716C126.227 116.517 126.169 116.31 126.137 116.097C126.252 116.277 126.348 116.469 126.423 116.67L127.155 118.329C127.785 119.863 128.655 121.958 129.708 124.499C130.761 127.04 131.997 130.222 133.439 133.656C134.084 135.473 134.876 137.234 135.809 138.921C136.328 139.759 137.058 140.446 137.926 140.912C138.355 141.153 138.83 141.299 139.319 141.341C139.809 141.382 140.302 141.318 140.765 141.153C141.678 140.755 142.412 140.033 142.825 139.127C143.256 138.238 143.445 137.251 143.374 136.265C143.121 134.361 142.584 132.506 141.783 130.76C140.444 127.326 139.403 124.064 138.624 121.363C137.846 118.661 137.297 116.418 136.953 114.884C136.793 114.106 136.667 113.511 136.598 113.099C136.524 112.9 136.482 112.692 136.473 112.48Z" fill="#E9C46A"/>
<path d="M126.719 162.591C126.719 162.591 108.612 215.998 107.891 218.608C107.17 221.217 111.473 240.298 119.337 244.819C127.2 249.34 142.458 230.523 144.358 223.61C146.258 216.696 144.358 205.021 144.358 205.021L156.571 159.02" fill="#E9C46A"/>
<path d="M144.359 154.292C143.781 154.366 143.194 154.291 142.653 154.075C141.317 153.659 140.089 152.951 139.059 152.003C138.016 151.053 137.202 149.879 136.678 148.569C136.411 148.05 136.285 147.47 136.312 146.887C137.067 148.619 138.134 150.199 139.46 151.545C140.907 152.759 142.569 153.69 144.359 154.292Z" fill="#E9C46A"/>
<path d="M469.642 413.122C469.642 413.294 368.791 413.431 244.407 413.431C120.023 413.431 19.1484 413.294 19.1484 413.122C19.1484 412.95 119.988 412.824 244.407 412.824C368.826 412.824 469.642 412.962 469.642 413.122Z" fill="#3B4D60"/>
<path d="M174.514 30H46.055C42.7109 30 40 32.7109 40 36.055V71.6751C40 75.0192 42.7109 77.7301 46.055 77.7301H174.514C177.858 77.7301 180.569 75.0192 180.569 71.6751V36.055C180.569 32.7109 177.858 30 174.514 30Z" fill="#E76F51"/>
<path d="M60.9019 60.0762C60.1659 60.0817 59.5036 59.9586 58.9151 59.7069C58.3371 59.4445 57.8811 59.0852 57.5471 58.629C57.2129 58.1621 57.0383 57.6247 57.0231 57.0168L58.5751 57.0054C58.6323 57.5276 58.8489 57.9687 59.2249 58.3286C59.6115 58.6777 60.1674 58.8496 60.8928 58.8443C61.5861 58.8391 62.1288 58.6644 62.5209 58.3202C62.9236 57.9652 63.123 57.5157 63.119 56.9717C63.1158 56.5451 62.9959 56.1993 62.7593 55.9344C62.5226 55.6695 62.2278 55.469 61.8748 55.3329C61.5218 55.1968 61.046 55.051 60.4475 54.8954C59.7101 54.7089 59.1167 54.5213 58.6673 54.3326C58.2286 54.1438 57.8477 53.848 57.5247 53.445C57.2123 53.0313 57.0535 52.4778 57.0484 51.7845C57.0439 51.1765 57.1946 50.6367 57.5005 50.1651C57.8063 49.6935 58.2356 49.3277 58.7884 49.0676C59.3518 48.8074 59.9962 48.6746 60.7215 48.6693C61.7668 48.6615 62.622 48.9165 63.2872 49.4343C63.9631 49.952 64.3468 50.6425 64.4386 51.5058L62.8386 51.5177C62.7821 51.0914 62.5554 50.7197 62.1583 50.4027C61.7612 50.0749 61.2374 49.9135 60.5867 49.9183C59.9787 49.9228 59.4839 50.0864 59.1023 50.4093C58.7206 50.7214 58.5318 51.1602 58.536 51.7255C58.539 52.1308 58.6535 52.4607 58.8794 52.715C59.1159 52.9692 59.4 53.1645 59.7317 53.3007C60.074 53.4262 60.5497 53.572 61.159 53.7382C61.8965 53.9354 62.4899 54.1337 62.9394 54.333C63.3888 54.5217 63.7751 54.8228 64.0982 55.2364C64.4211 55.6394 64.5852 56.1929 64.5904 56.8969C64.5945 57.4408 64.4543 57.9539 64.1698 58.436C63.8854 58.9181 63.4616 59.3106 62.8985 59.6134C62.3354 59.9163 61.6698 60.0705 60.9019 60.0762ZM74.7204 55.1419C74.7224 55.4192 74.7086 55.7126 74.6789 56.0222L67.6711 56.074C67.7308 56.9376 68.0291 57.6128 68.5661 58.0995C69.1136 58.5754 69.7714 58.8106 70.5394 58.8049C71.1687 58.8002 71.6903 58.6524 72.1041 58.3613C72.5286 58.0595 72.8243 57.6626 72.9913 57.1707L74.5593 57.1591C74.3309 58.0035 73.8666 58.6949 73.1666 59.2335C72.4665 59.7613 71.5938 60.0291 70.5485 60.0369C69.7165 60.043 68.9685 59.8619 68.3044 59.4934C67.651 59.1249 67.1351 58.6007 66.7567 57.9209C66.3783 57.2303 66.1857 56.4317 66.179 55.5251C66.1723 54.6184 66.3477 53.8224 66.7053 53.1371C67.0629 52.4518 67.5657 51.9254 68.2137 51.5579C68.8722 51.1797 69.6282 50.9874 70.4815 50.9811C71.3134 50.9749 72.0508 51.1508 72.6934 51.5088C73.3361 51.8667 73.8305 52.3644 74.1765 53.0018C74.5332 53.6285 74.7144 54.3419 74.7204 55.1419ZM73.2142 54.849C73.2101 54.2943 73.0839 53.8206 72.8356 53.4278C72.5873 53.0242 72.2491 52.7227 71.8209 52.5232C71.4033 52.313 70.9386 52.2098 70.4266 52.2135C69.6906 52.219 69.063 52.4583 68.5438 52.9315C68.0353 53.4046 67.7468 54.0574 67.6783 54.89L73.2142 54.849ZM78.0455 47.9971L78.1331 59.8367L76.6771 59.8475L76.5895 48.0078L78.0455 47.9971ZM88.5794 55.0393C88.5814 55.3166 88.5676 55.6101 88.5379 55.9197L81.5301 55.9715C81.5898 56.8351 81.8881 57.5102 82.4251 57.9969C82.9726 58.4729 83.6304 58.708 84.3983 58.7024C85.0277 58.6977 85.5493 58.5498 85.9631 58.2588C86.3876 57.957 86.6833 57.5601 86.8503 57.0682L88.4183 57.0566C88.1899 57.9009 87.7256 58.5924 87.0256 59.1309C86.3255 59.6588 85.4528 59.9266 84.4075 59.9343C83.5755 59.9405 82.8275 59.7593 82.1634 59.3909C81.51 59.0224 80.9941 58.4982 80.6157 57.8183C80.2373 57.1278 80.0447 56.3292 80.038 55.4225C80.0313 54.5159 80.2067 53.7199 80.5643 53.0346C80.9219 52.3492 81.4247 51.8228 82.0727 51.4554C82.7312 51.0771 83.4872 50.8849 84.3405 50.8786C85.1724 50.8724 85.9098 51.0483 86.5524 51.4062C87.1951 51.7641 87.6895 52.2618 88.0355 52.8993C88.3922 53.526 88.5734 54.2393 88.5794 55.0393ZM87.0732 54.7465C87.0691 54.1918 86.9429 53.7181 86.6946 53.3252C86.4463 52.9217 86.1081 52.6202 85.6799 52.4207C85.2623 52.2105 84.7976 52.1072 84.2856 52.111C83.5496 52.1165 82.922 52.3558 82.4028 52.829C81.8943 53.3021 81.6058 53.9549 81.5373 54.7874L87.0732 54.7465ZM89.9596 55.3491C89.9529 54.4425 90.1283 53.6518 90.486 52.9772C90.8436 52.2918 91.3411 51.7601 91.9783 51.3821C92.6262 51.0039 93.3661 50.8118 94.1981 50.8056C95.2754 50.7977 96.1626 51.0524 96.8598 51.57C97.5676 52.0874 98.037 52.8093 98.2679 53.7356L96.6999 53.7472C96.5466 53.215 96.2502 52.7958 95.8106 52.4898C95.3816 52.1836 94.8472 52.0329 94.2072 52.0376C93.3752 52.0438 92.7054 52.3367 92.1976 52.9165C91.6898 53.4856 91.4398 54.2928 91.4475 55.3381C91.4553 56.3941 91.7174 57.2082 92.2336 57.7804C92.7499 58.3526 93.424 58.6356 94.256 58.6294C94.8959 58.6247 95.4282 58.4714 95.8526 58.1696C96.277 57.8678 96.5672 57.439 96.7231 56.8831L98.2911 56.8715C98.063 57.7692 97.599 58.4927 96.8991 59.0419C96.199 59.5804 95.321 59.8536 94.2651 59.8614C93.4331 59.8675 92.6904 59.6864 92.037 59.3179C91.3942 58.9493 90.889 58.425 90.5213 57.745C90.1536 57.0651 89.9664 56.2664 89.9596 55.3491ZM101.975 52.0921L102.013 57.26C102.016 57.6867 102.109 57.99 102.292 58.17C102.474 58.3393 102.789 58.4223 103.237 58.419L104.309 58.411L104.318 59.643L103.007 59.6527C102.196 59.6587 101.587 59.4765 101.178 59.1062C100.77 58.7359 100.563 58.1241 100.557 57.2708L100.519 52.1029L99.3826 52.1113L99.3737 50.9113L100.51 50.9029L100.493 48.695L101.949 48.6842L101.966 50.8922L104.254 50.8752L104.262 52.0752L101.975 52.0921ZM111.69 48.4362L111.742 55.492C111.749 56.4839 111.994 57.2181 112.478 57.6946C112.972 58.1709 113.651 58.4059 114.515 58.3995C115.369 58.3932 116.033 58.1483 116.51 57.6648C116.997 57.1811 117.237 56.4433 117.23 55.4514L117.177 48.3956L118.633 48.3848L118.685 55.4246C118.692 56.3526 118.511 57.1379 118.143 57.7807C117.774 58.4128 117.271 58.8858 116.633 59.1999C116.006 59.5139 115.298 59.6738 114.509 59.6796C113.719 59.6855 113.004 59.5361 112.361 59.2315C111.73 58.9268 111.225 58.4612 110.847 57.8347C110.48 57.1974 110.293 56.4147 110.286 55.4867L110.234 48.4469L111.69 48.4362ZM124.25 59.6395C123.578 59.6445 122.974 59.537 122.439 59.3169C121.904 59.0862 121.48 58.7693 121.168 58.3663C120.856 57.9526 120.682 57.4792 120.646 56.9461L122.15 56.935C122.195 57.372 122.401 57.7278 122.765 58.0025C123.141 58.277 123.627 58.4121 124.225 58.4077C124.779 58.4036 125.216 58.2777 125.534 58.03C125.852 57.7823 126.01 57.4718 126.007 57.0985C126.004 56.7145 125.831 56.4331 125.489 56.2543C125.146 56.0648 124.617 55.8821 123.901 55.706C123.249 55.5402 122.714 55.3735 122.297 55.2059C121.89 55.0275 121.536 54.7688 121.235 54.4297C120.944 54.0798 120.797 53.6223 120.793 53.0569C120.79 52.609 120.92 52.1973 121.184 51.822C121.448 51.4467 121.824 51.1506 122.313 50.9336C122.802 50.706 123.361 50.5899 123.991 50.5852C124.961 50.578 125.747 50.8176 126.348 51.3038C126.949 51.79 127.274 52.4596 127.323 53.3126L125.867 53.3234C125.832 52.865 125.642 52.4984 125.299 52.2236C124.966 51.9487 124.517 51.8134 123.952 51.8175C123.429 51.8214 123.014 51.9365 122.706 52.1628C122.399 52.389 122.246 52.6835 122.249 53.0462C122.251 53.3342 122.343 53.5735 122.526 53.7641C122.719 53.944 122.955 54.0916 123.233 54.2069C123.522 54.3114 123.918 54.4312 124.42 54.5661C125.051 54.7321 125.564 54.899 125.96 55.0668C126.356 55.2238 126.693 55.4667 126.973 55.7953C127.264 56.1238 127.416 56.5547 127.431 57.0879C127.434 57.5679 127.304 58.0009 127.04 58.3869C126.777 58.7728 126.4 59.0796 125.911 59.3072C125.433 59.5241 124.879 59.6349 124.25 59.6395ZM137.469 54.6776C137.471 54.9549 137.457 55.2484 137.427 55.5579L130.419 55.6098C130.479 56.4734 130.777 57.1485 131.314 57.6352C131.862 58.1112 132.52 58.3463 133.288 58.3406C133.917 58.336 134.439 58.1881 134.852 57.8971C135.277 57.5952 135.573 57.1984 135.74 56.7065L137.308 56.6949C137.079 57.5392 136.615 58.2307 135.915 58.7692C135.215 59.2971 134.342 59.5649 133.297 59.5726C132.465 59.5788 131.717 59.3976 131.053 59.0292C130.399 58.6607 129.883 58.1365 129.505 57.4566C129.127 56.7661 128.934 55.9675 128.927 55.0608C128.921 54.1542 129.096 53.3582 129.454 52.6729C129.811 51.9875 130.314 51.4611 130.962 51.0936C131.621 50.7154 132.376 50.5232 133.23 50.5169C134.062 50.5107 134.799 50.6866 135.442 51.0445C136.084 51.4024 136.579 51.9001 136.925 52.5376C137.281 53.1643 137.463 53.8776 137.469 54.6776ZM135.962 54.3847C135.958 53.8301 135.832 53.3563 135.584 52.9635C135.336 52.56 134.997 52.2585 134.569 52.059C134.152 51.8487 133.687 51.7455 133.175 51.7493C132.439 51.7547 131.811 51.9941 131.292 52.4672C130.784 52.9404 130.495 53.5932 130.427 54.4257L135.962 54.3847ZM140.827 52.0287C141.079 51.5255 141.439 51.1335 141.906 50.8527C142.384 50.5718 142.965 50.4288 143.647 50.4238L143.658 51.9277L143.274 51.9306C141.642 51.9427 140.833 52.834 140.846 54.6046L140.881 59.3725L139.425 59.3833L139.361 50.6155L140.816 50.6047L140.827 52.0287ZM148.499 59.4601C147.827 59.4651 147.223 59.3576 146.689 59.1375C146.153 58.9068 145.73 58.5899 145.417 58.1869C145.105 57.7732 144.931 57.2998 144.895 56.7667L146.399 56.7556C146.445 57.1926 146.65 57.5484 147.015 57.8231C147.39 58.0976 147.877 58.2327 148.474 58.2283C149.028 58.2242 149.465 58.0983 149.783 57.8506C150.101 57.6029 150.259 57.2924 150.256 56.9191C150.253 56.5351 150.081 56.2537 149.738 56.0749C149.395 55.8854 148.866 55.7026 148.15 55.5266C147.498 55.3608 146.963 55.194 146.546 55.0265C146.139 54.8481 145.786 54.5894 145.484 54.2503C145.194 53.9004 145.046 53.4428 145.042 52.8775C145.039 52.4295 145.169 52.0179 145.433 51.6426C145.697 51.2673 146.073 50.9712 146.562 50.7542C147.051 50.5266 147.611 50.4105 148.24 50.4058C149.211 50.3986 149.996 50.6381 150.597 51.1244C151.198 51.6106 151.523 52.2802 151.572 53.1332L150.116 53.144C150.081 52.6856 149.891 52.319 149.548 52.0442C149.215 51.7693 148.766 51.6339 148.201 51.6381C147.678 51.642 147.263 51.7571 146.956 51.9833C146.648 52.2096 146.495 52.5041 146.498 52.8668C146.5 53.1547 146.593 53.3941 146.775 53.5847C146.969 53.7646 147.205 53.9122 147.483 54.0275C147.772 54.132 148.167 54.2518 148.669 54.3867C149.3 54.5527 149.813 54.7196 150.209 54.8874C150.605 55.0444 150.943 55.2873 151.223 55.6159C151.513 55.9444 151.666 56.3753 151.68 56.9085C151.684 57.3885 151.554 57.8215 151.29 58.2075C151.026 58.5934 150.65 58.9002 150.161 59.1278C149.682 59.3447 149.128 59.4555 148.499 59.4601Z" fill="white"/>
<path d="M181.43 77.9919H57.8925C56.1912 77.9738 54.5656 77.2861 53.368 76.0777C52.1703 74.8693 51.4971 73.2376 51.4941 71.5363V36.5571C51.4972 34.846 52.1783 33.2057 53.3883 31.9957C54.5983 30.7857 56.2385 30.1046 57.9497 30.1016H181.43C183.141 30.1046 184.781 30.7857 185.991 31.9957C187.201 33.2057 187.882 34.846 187.885 36.5571V71.5363C187.882 73.2475 187.201 74.8877 185.991 76.0977C184.781 77.3077 183.141 77.9888 181.43 77.9919ZM57.8925 31.2462C56.4948 31.2642 55.1603 31.8313 54.1773 32.8251C53.1943 33.8188 52.6416 35.1594 52.6387 36.5571V71.5363C52.6387 72.9449 53.1983 74.2957 54.1943 75.2917C55.1903 76.2877 56.5412 76.8473 57.9497 76.8473H181.43C182.838 76.8473 184.189 76.2877 185.185 75.2917C186.181 74.2957 186.741 72.9449 186.741 71.5363V36.5571C186.738 35.1495 186.177 33.8004 185.182 32.8051C184.187 31.8097 182.837 31.2492 181.43 31.2462H57.8925Z" fill="#E76F51"/>
<path d="M182.678 76.939C181.727 76.0696 180.916 75.0579 180.274 73.9402C179.466 72.9357 178.817 71.8121 178.352 70.6094C179.305 71.4801 180.119 72.4914 180.767 73.6082C181.575 74.6113 182.22 75.7353 182.678 76.939Z" fill="#E76F51"/>
<path d="M187.313 40.0484C185.895 38.6077 184.626 37.0278 183.525 35.3326C182.266 33.7539 181.158 32.06 180.217 30.2734C181.635 31.7141 182.904 33.294 184.005 34.9892C185.269 36.5644 186.377 38.2588 187.313 40.0484Z" fill="#E76F51"/>
<path d="M186.821 70.632C186.649 70.7579 184.932 68.3428 183.055 65.115C182.105 63.5355 181.27 62.0933 180.686 61.0402C180.322 60.4925 180.023 59.9049 179.793 59.289C179.965 59.1745 181.682 61.6469 183.559 64.806C184.509 66.3855 185.344 67.8277 185.94 68.8808C186.303 69.4268 186.599 70.0148 186.821 70.632Z" fill="#E76F51"/>
<path d="M187.347 60.6289C187.176 60.7548 185.344 58.0879 183.318 54.6884C182.3 52.9829 181.395 51.4377 180.754 50.3045C180.37 49.7137 180.048 49.0846 179.793 48.4274C179.965 48.3129 181.796 50.9799 183.833 54.3793C184.852 56.0734 185.745 57.63 186.386 58.7517C186.773 59.3408 187.096 59.9702 187.347 60.6289Z" fill="#E76F51"/>
<path d="M187.337 50.7503C187.165 50.8762 185.322 48.1864 183.285 44.7754C182.254 43.07 181.35 41.5019 180.709 40.3687C180.317 39.7764 179.991 39.1431 179.736 38.4801C179.908 38.3656 181.751 41.044 183.788 44.4664C184.818 46.1718 185.723 47.7285 186.364 48.8731C186.759 49.4592 187.086 50.0891 187.337 50.7503Z" fill="#E76F51"/>
<path d="M36.4891 37.6681C34.0273 37.3355 31.5966 36.8034 29.2209 36.0771C26.7939 35.5418 24.4133 34.8146 22.1014 33.9023C24.5633 34.235 26.994 34.767 29.3697 35.4933C31.7972 36.0264 34.1781 36.7537 36.4891 37.6681Z" fill="#3B4D60"/>
<path d="M37.8731 29.0721C35.1858 26.2714 32.6452 23.3334 30.2615 20.2701C27.7219 17.3451 25.3379 14.2886 23.1191 11.1133C25.8033 13.9209 28.3438 16.8625 30.7308 19.9267C33.2637 22.8533 35.6475 25.9056 37.8731 29.0721Z" fill="#3B4D60"/>
<path d="M48.4852 24.9286C47.6597 23.0091 47.1309 20.9752 46.9171 18.8966C46.5033 16.8475 46.4183 14.7457 46.6653 12.6699C46.837 12.6699 46.9973 15.4399 47.5009 18.8165C48.0045 22.193 48.6569 24.8485 48.4852 24.9286Z" fill="#3B4D60"/>
</svg>
