<svg width="20" height="20" viewBox="0 0 20 20" fill="none" xmlns="http://www.w3.org/2000/svg">
<path d="M17 2.00001H12.815C12.405 0.839999 11.305 0 9.99999 0C8.69499 0 7.59498 0.839999 7.18501 2.00001H3.00001C1.89503 2.00001 1 2.895 1 4.00003V18C1 19.105 1.89498 20 3.00001 20H17C18.105 20 19 19.105 19 18V3.99998C19 2.895 18.105 2.00001 17 2.00001ZM9.99999 2.00001C10.55 2.00001 11 2.445 11 3C11 3.555 10.55 3.99998 9.99999 3.99998C9.45001 3.99998 9.00001 3.555 9.00001 3C9.00001 2.445 9.45001 2.00001 9.99999 2.00001ZM8.00003 16L4 12L5.41501 10.585L8.00003 13.17L14.585 6.58499L16 8.00001L8.00003 16Z" fill="white"/>
</svg>
