<svg width="24" height="24" viewBox="0 0 24 24" fill="none" xmlns="http://www.w3.org/2000/svg">
<g clip-path="url(#clip0_79_149284)">
<path d="M22.1555 2.99135L22.1555 22.0087C22.1555 23.1085 21.264 24.0001 20.1642 24.0001L3.8351 24.0001C2.73534 24.0001 1.84375 23.1085 1.84375 22.0087L1.84375 2.99135C1.84375 1.89159 2.73528 1 3.8351 1L7.08764 1L11.9994 1L15.3515 1L16.8785 1L20.1642 1C21.264 1 22.1555 1.89153 22.1555 2.99135Z" fill="#1890FF"/>
<path d="M6.38928 14.0726C6.21255 14.0783 6.04242 14.0054 5.92465 13.8735L4.56391 12.4795C4.30682 12.2102 4.30682 11.7864 4.56391 11.517C4.83098 11.273 5.24421 11.2878 5.49324 11.5502L6.38934 12.4795L8.51347 10.455C8.78053 10.211 9.19377 10.2257 9.4428 10.4882C9.69944 10.7236 9.71659 11.1225 9.4811 11.3791C9.4689 11.3925 9.45607 11.4052 9.4428 11.4174L6.85403 13.8734C6.73137 13.9986 6.56436 14.0702 6.38928 14.0726Z" fill="white"/>
<path d="M18.9692 13.2436L11.3357 13.2436C10.9691 13.2436 10.6719 12.9464 10.6719 12.5798C10.6719 12.2132 10.9691 11.916 11.3357 11.916L18.9692 11.916C19.3358 11.916 19.6329 12.2132 19.6329 12.5798C19.6329 12.9464 19.3358 13.2436 18.9692 13.2436Z" fill="white"/>
<path d="M18.9692 7.93304L11.3357 7.93304C10.9691 7.93304 10.6719 7.63586 10.6719 7.26925C10.6719 6.90264 10.9691 6.60547 11.3357 6.60547L18.9692 6.60547C19.3358 6.60547 19.6329 6.90264 19.6329 7.26925C19.6329 7.63586 19.3358 7.93304 18.9692 7.93304Z" fill="white"/>
<path d="M6.38928 19.3832C6.21255 19.3888 6.04242 19.3159 5.92465 19.184L4.56391 17.7901C4.30682 17.5207 4.30682 17.0969 4.56391 16.8276C4.83098 16.5836 5.24421 16.5983 5.49324 16.8607L6.38934 17.7901L8.51347 15.7656C8.78053 15.5215 9.19377 15.5363 9.4428 15.7987C9.69944 16.0341 9.71659 16.4331 9.4811 16.6897C9.4689 16.703 9.45607 16.7158 9.4428 16.728L6.85403 19.184C6.73137 19.3091 6.56436 19.3807 6.38928 19.3832Z" fill="white"/>
<path d="M18.9692 18.5541L11.3357 18.5541C10.9691 18.5541 10.6719 18.257 10.6719 17.8903C10.6719 17.5237 10.9691 17.2266 11.3357 17.2266L18.9692 17.2266C19.3358 17.2266 19.6329 17.5237 19.6329 17.8903C19.6329 18.257 19.3358 18.5541 18.9692 18.5541Z" fill="white"/>
<path d="M8.84792 5.41016L4.89844 5.41016L4.89844 9.01781L8.84792 9.01781L8.84792 5.41016Z" fill="white"/>
</g>
<defs>
<clipPath id="clip0_79_149284">
<rect width="24" height="24" fill="white"/>
</clipPath>
</defs>
</svg>
