<svg width="22" height="22" viewBox="0 0 22 22" fill="none" xmlns="http://www.w3.org/2000/svg">
<path d="M16.232 6.6025C17.499 6.6025 18.527 5.5756 18.527 4.30799V3.88045C18.527 2.61331 17.4996 1.58594 16.232 1.58594C14.9649 1.58594 13.9375 2.61331 13.9375 3.88045V4.30799C13.9375 5.57513 14.9649 6.6025 16.232 6.6025Z" fill="white"/>
<path d="M15.5847 11.2213L13.7366 8.37891C12.5219 9.12484 11.6668 10.398 11.4902 11.88H15.5847V11.2213Z" fill="white"/>
<path d="M14.9336 7.85598L16.2291 9.84843L17.5285 7.8504C16.6893 7.61751 15.7852 7.61579 14.9336 7.85598Z" fill="white"/>
<path d="M16.8711 11.8821H20.9621C20.789 10.4001 19.9365 9.12351 18.7235 8.375L16.8711 11.2234V11.8821Z" fill="white"/>
<path d="M19.1478 21.425C19.1839 21.7512 19.4598 21.9982 19.7885 21.9982H21.3547C21.7105 21.9982 21.9992 21.7095 21.9992 21.3537V19.1602H18.8965L19.1478 21.425Z" fill="white"/>
<path d="M0 21.3537C0 21.7095 0.288748 21.9982 0.644526 21.9982H2.21073C2.53943 21.9982 2.81529 21.7512 2.85138 21.425L3.10275 19.1602H0V21.3537Z" fill="white"/>
<path d="M5.56054 2.57819C5.91649 2.57819 6.20507 2.28962 6.20507 1.93366V0.644526C6.20507 0.288576 5.91649 0 5.56054 0C5.20459 0 4.91602 0.288576 4.91602 0.644526V1.93366C4.91602 2.28966 5.20459 2.57819 5.56054 2.57819Z" fill="white"/>
<path d="M0.644526 6.02343H1.93366C2.28962 6.02343 2.57819 5.73485 2.57819 5.3789C2.57819 5.02295 2.28962 4.73438 1.93366 4.73438H0.644526C0.288576 4.73438 0 5.02295 0 5.3789C0 5.73485 0.288576 6.02343 0.644526 6.02343Z" fill="white"/>
<path d="M8.54688 5.3789C8.54688 5.73485 8.83545 6.02343 9.1914 6.02343H10.4805C10.8365 6.02343 11.1251 5.73485 11.1251 5.3789C11.1251 5.02295 10.8365 4.73438 10.4805 4.73438H9.1914C8.83545 4.73438 8.54688 5.02295 8.54688 5.3789Z" fill="white"/>
<path d="M1.90138 2.97889C2.15305 3.23059 2.56116 3.23064 2.81287 2.97889C3.06458 2.72718 3.06458 2.3191 2.81287 2.0674L1.89519 1.14972C1.64353 0.89801 1.23541 0.89801 0.983704 1.14972C0.731995 1.40143 0.731995 1.8095 0.983704 2.06121L1.90138 2.97889Z" fill="white"/>
<path d="M9.22137 2.97889L10.139 2.06121C10.3908 1.8095 10.3908 1.40143 10.139 1.14972C9.88738 0.89801 9.47926 0.89801 9.22755 1.14972L8.30988 2.0674C8.05817 2.3191 8.05817 2.72718 8.30988 2.97889C8.56154 3.23059 8.96966 3.23064 9.22137 2.97889Z" fill="white"/>
<path d="M5.56054 11.4961C5.9165 11.4961 6.20507 11.2075 6.20507 10.8516C6.20507 10.4956 5.9165 10.207 5.56054 10.207C5.20458 10.207 4.91602 10.4956 4.91602 10.8516C4.91602 11.2075 5.20458 11.4961 5.56054 11.4961Z" fill="white"/>
<path d="M3.98441 6.26128C4.34036 6.26128 4.62894 5.9727 4.62894 5.61675C4.62894 5.08716 5.06417 4.67389 5.58176 4.68369C6.06821 4.69349 6.46898 5.08115 6.49416 5.56626C6.52208 6.1038 6.09605 6.55007 5.56217 6.55007C5.20622 6.55007 4.91764 6.83864 4.91764 7.19459V8.71056C4.91764 9.06651 5.20622 9.35509 5.56217 9.35509C5.91812 9.35509 6.2067 9.06651 6.2067 8.71056V7.74278C7.15879 7.45283 7.83623 6.55471 7.78149 5.49949C7.72146 4.34274 6.76662 3.41827 5.60772 3.39494C4.48083 3.37358 3.51657 4.19458 3.36124 5.30772C3.34706 5.40951 3.33984 5.5135 3.33984 5.61679C3.33989 5.9727 3.62846 6.26128 3.98441 6.26128Z" fill="white"/>
<path d="M21.3553 13.1719H0.644526C0.288748 13.1719 0 13.4602 0 13.8164V17.8756H21.9998V13.8164C21.9998 13.4602 21.7111 13.1719 21.3553 13.1719ZM18.7772 16.1681H3.22263C2.86685 16.1681 2.57811 15.8797 2.57811 15.5235C2.57811 15.1678 2.86685 14.879 3.22263 14.879H18.7772C19.133 14.879 19.4217 15.1678 19.4217 15.5235C19.4217 15.8797 19.133 16.1681 18.7772 16.1681Z" fill="white"/>
</svg>
