<svg width="31" height="37" viewBox="0 0 31 37" fill="none" xmlns="http://www.w3.org/2000/svg">
<path d="M13.727 0.00110261C13.4569 0.0172705 13.2114 0.207191 13.075 0.505271C12.9694 0.740047 12.9411 1.01855 12.9965 1.27973C13.0518 1.54093 13.186 1.76341 13.3697 1.89796L25.3954 10.7648L24.1723 11.1831C23.967 11.2528 23.792 11.4238 23.6857 11.6586C23.5794 11.8934 23.5507 12.1726 23.606 12.4345C23.6606 12.6961 23.7943 12.9195 23.9778 13.0552C24.1612 13.1907 24.3795 13.2278 24.5842 13.1579L27.6686 12.1038C27.6843 12.0976 27.7 12.091 27.7155 12.084C27.7301 12.0778 27.7447 12.0712 27.7592 12.0639C27.7711 12.0578 27.7832 12.0512 27.795 12.0441C27.8152 12.0325 27.8349 12.02 27.8542 12.0063C27.874 11.992 27.8933 11.9767 27.912 11.9603C27.9307 11.9448 27.9491 11.9282 27.9667 11.9107C28.0437 11.8321 28.1088 11.7362 28.1586 11.6276C28.2636 11.3924 28.291 11.1137 28.2351 10.8525L28.2258 10.8046C28.2252 10.8033 28.2245 10.8019 28.224 10.8005L27.4097 6.91313C27.3646 6.69565 27.2644 6.503 27.1246 6.36569C26.985 6.22837 26.8136 6.15391 26.6373 6.15414C26.5672 6.15505 26.4975 6.1678 26.4299 6.19194C26.2252 6.26185 26.0508 6.43287 25.9449 6.66719C25.839 6.90151 25.8103 7.18001 25.865 7.44119L26.1912 9.00131L14.1654 0.136217C14.0522 0.0528712 13.9247 0.00664265 13.794 0.000952951C13.7717 -0.000413335 13.7493 -0.000263672 13.727 0.00110261Z" fill="#FDCA64"/>
<path fill-rule="evenodd" clip-rule="evenodd" d="M4.26732 4.40873H1.03435C0.641169 4.40873 0.320312 4.81843 0.320312 5.32047V35.3159C0.320312 35.8179 0.641175 36.2276 1.03435 36.2276H4.26732C4.6605 36.2276 4.98136 35.8179 4.98136 35.3159L4.98109 5.3196C4.98109 4.81721 4.66049 4.4082 4.26733 4.4082L4.26732 4.40873ZM12.9209 17.6743H9.68793C9.29475 17.6743 8.97389 18.084 8.97389 18.586V35.3159C8.97389 35.8179 9.29476 36.2276 9.68793 36.2276H12.9209C13.3141 36.2276 13.6349 35.8179 13.6349 35.3159V18.586C13.6347 18.084 13.3141 17.6743 12.9209 17.6743ZM21.5752 13.161H18.3427C17.9495 13.161 17.6286 13.5707 17.6286 14.0727V35.3158C17.6286 35.8179 17.9495 36.2276 18.3427 36.2276H21.5752C21.9683 36.2276 22.2892 35.8179 22.2892 35.3158L22.2889 14.0727C22.2889 13.57 21.9683 13.1603 21.5752 13.1603L21.5752 13.161ZM30.2287 22.8037H26.9963C26.6031 22.8037 26.2822 23.2134 26.2822 23.7155V35.3167C26.2822 35.8187 26.6031 36.2284 26.9963 36.2284H30.2287C30.6219 36.2284 30.9428 35.8187 30.9428 35.3167L30.9425 23.7155C30.9431 23.2134 30.6222 22.8041 30.2288 22.8041L30.2287 22.8037Z" fill="#FDCA64"/>
</svg>
