<svg width="20" height="20" viewBox="0 0 20 20" fill="none" xmlns="http://www.w3.org/2000/svg">
<path d="M8.29243 14.293L5.99943 16.5859V1C5.99943 0.734784 5.89407 0.48043 5.70654 0.292893C5.519 0.105357 5.26465 0 4.99943 0C4.73421 0 4.47986 0.105357 4.29232 0.292893C4.10479 0.48043 3.99943 0.734784 3.99943 1V16.5859L1.70643 14.293C1.51783 14.1108 1.26523 14.01 1.00303 14.0123C0.740832 14.0146 0.49002 14.1198 0.304612 14.3052C0.119204 14.4906 0.014035 14.7414 0.0117566 15.0036C0.00947813 15.2658 0.110272 15.5184 0.292431 15.707L4.29243 19.707C4.48013 19.8942 4.7344 19.9993 4.99948 19.9993C5.26456 19.9993 5.51883 19.8942 5.70653 19.707L9.70653 15.707C9.88935 15.5185 9.9907 15.2657 9.9887 15.0031C9.98669 14.7405 9.88149 14.4893 9.69581 14.3036C9.51013 14.118 9.25887 14.0128 8.9963 14.0108C8.73372 14.0088 8.4809 14.1102 8.29243 14.293Z" fill="#264653"/>
<path d="M9 4H19C19.2652 4 19.5196 3.89464 19.7071 3.70711C19.8946 3.51957 20 3.26522 20 3C20 2.73478 19.8946 2.48043 19.7071 2.29289C19.5196 2.10536 19.2652 2 19 2H9C8.73478 2 8.48043 2.10536 8.29289 2.29289C8.10536 2.48043 8 2.73478 8 3C8 3.26522 8.10536 3.51957 8.29289 3.70711C8.48043 3.89464 8.73478 4 9 4Z" fill="#264653"/>
<path d="M19 6H9C8.73478 6 8.48043 6.10536 8.29289 6.29289C8.10536 6.48043 8 6.73478 8 7C8 7.26522 8.10536 7.51957 8.29289 7.70711C8.48043 7.89464 8.73478 8 9 8H19C19.2652 8 19.5196 7.89464 19.7071 7.70711C19.8946 7.51957 20 7.26522 20 7C20 6.73478 19.8946 6.48043 19.7071 6.29289C19.5196 6.10536 19.2652 6 19 6Z" fill="#264653"/>
<path d="M16 10H9C8.73478 10 8.48043 10.1054 8.29289 10.2929C8.10536 10.4804 8 10.7348 8 11C8 11.2652 8.10536 11.5196 8.29289 11.7071C8.48043 11.8946 8.73478 12 9 12H16C16.2652 12 16.5196 11.8946 16.7071 11.7071C16.8946 11.5196 17 11.2652 17 11C17 10.7348 16.8946 10.4804 16.7071 10.2929C16.5196 10.1054 16.2652 10 16 10Z" fill="#264653"/>
</svg>
