<svg width="24" height="24" viewBox="0 0 24 24" fill="none" xmlns="http://www.w3.org/2000/svg">
<path d="M6.43275 0H0.867528C0.483318 0 0.171875 0.311443 0.171875 0.695653V6.26088C0.171875 6.64509 0.483318 6.95653 0.867528 6.95653H6.43275C6.81696 6.95653 7.12841 6.64509 7.12841 6.26088V0.695653C7.12841 0.311443 6.81696 0 6.43275 0Z" fill="#E76F51"/>
<path d="M14.7843 0H9.21909C8.83488 0 8.52344 0.311443 8.52344 0.695653V6.26088C8.52344 6.64509 8.83488 6.95653 9.21909 6.95653H14.7843C15.1685 6.95653 15.48 6.64509 15.48 6.26088V0.695653C15.48 0.311443 15.1685 0 14.7843 0Z" fill="#E76F51"/>
<path d="M6.43275 8.3479H0.867528C0.483318 8.3479 0.171875 8.65934 0.171875 9.04355V14.6088C0.171875 14.993 0.483318 15.3044 0.867528 15.3044H6.43275C6.81696 15.3044 7.12841 14.993 7.12841 14.6088V9.04355C7.12841 8.65934 6.81696 8.3479 6.43275 8.3479Z" fill="#E76F51"/>
<path d="M14.7843 8.3479H9.21909C8.83488 8.3479 8.52344 8.65934 8.52344 9.04355V14.6088C8.52344 14.993 8.83488 15.3044 9.21909 15.3044H14.7843C15.1685 15.3044 15.48 14.993 15.48 14.6088V9.04355C15.48 8.65934 15.1685 8.3479 14.7843 8.3479Z" fill="#E76F51"/>
<path d="M23.1281 0H17.5628C17.1786 0 16.8672 0.311443 16.8672 0.695653V6.26088C16.8672 6.64509 17.1786 6.95653 17.5628 6.95653H23.1281C23.5123 6.95653 23.8237 6.64509 23.8237 6.26088V0.695653C23.8237 0.311443 23.5122 0 23.1281 0Z" fill="#E76F51"/>
<path d="M23.1281 8.3479H17.5628C17.1786 8.3479 16.8672 8.65934 16.8672 9.04355V14.6088C16.8672 14.993 17.1786 15.3044 17.5628 15.3044H23.1281C23.5123 15.3044 23.8237 14.993 23.8237 14.6088V9.04355C23.8237 8.65934 23.5122 8.3479 23.1281 8.3479Z" fill="#E76F51"/>
<path d="M6.43275 17.0435H0.867528C0.483318 17.0435 0.171875 17.3549 0.171875 17.7391V23.3043C0.171875 23.6885 0.483318 24 0.867528 24H6.43275C6.81696 24 7.12841 23.6885 7.12841 23.3043V17.7391C7.12841 17.3549 6.81696 17.0435 6.43275 17.0435Z" fill="#E76F51"/>
<path d="M14.7843 17.0435H9.21909C8.83488 17.0435 8.52344 17.3549 8.52344 17.7391V23.3043C8.52344 23.6885 8.83488 24 9.21909 24H14.7843C15.1685 24 15.48 23.6885 15.48 23.3043V17.7391C15.48 17.3549 15.1685 17.0435 14.7843 17.0435Z" fill="#E76F51"/>
<path d="M23.1281 17.0435H17.5628C17.1786 17.0435 16.8672 17.3549 16.8672 17.7391V23.3043C16.8672 23.6885 17.1786 24 17.5628 24H23.1281C23.5123 24 23.8237 23.6885 23.8237 23.3043V17.7391C23.8237 17.3549 23.5122 17.0435 23.1281 17.0435Z" fill="#E76F51"/>
</svg>
