<svg width="24" height="23" viewBox="0 0 24 23" fill="none" xmlns="http://www.w3.org/2000/svg">
<path fill-rule="evenodd" clip-rule="evenodd" d="M2.59511 22.0781H21.4049C23.3289 22.0781 24.5304 19.9994 23.5664 18.3384L14.1615 2.13376C13.1995 0.476246 10.8005 0.476246 9.83855 2.13376L0.433598 18.3384C-0.530392 19.9994 0.671109 22.0781 2.59511 22.0781ZM13.561 18.0295C13.561 18.8896 12.8622 19.5867 12 19.5867C11.1378 19.5867 10.439 18.8896 10.439 18.0295C10.439 17.1695 11.1378 16.4724 12 16.4724C12.8622 16.4724 13.561 17.1695 13.561 18.0295ZM13.2488 8.37523C13.2488 7.68724 12.6897 7.12951 12 7.12951C11.3103 7.12951 10.7512 7.68724 10.7512 8.37523V13.3581C10.7512 14.0461 11.3103 14.6038 12 14.6038C12.6897 14.6038 13.2488 14.0461 13.2488 13.3581V8.37523Z" fill="#E76F51"/>
</svg>
