<svg width="72" height="72" viewBox="0 0 72 72" fill="none" xmlns="http://www.w3.org/2000/svg">
<path d="M41.383 16.4016C39.6385 15.9235 37.8274 15.681 36 15.681C24.796 15.681 15.681 24.7961 15.681 36.0001C15.681 47.2041 24.796 56.3191 36 56.3191C47.204 56.3191 56.319 47.2041 56.319 36.0001C56.319 34.1727 56.0766 32.3615 55.5985 30.6171C55.27 29.4187 55.9752 28.1809 57.1736 27.8524C58.3713 27.524 59.6098 28.2291 59.9383 29.4275C60.5226 31.5596 60.819 33.7709 60.819 36.0001C60.819 49.6853 49.6852 60.8191 36 60.8191C22.3148 60.8191 11.181 49.6853 11.181 36.0001C11.181 22.3149 22.3148 11.181 36 11.181C38.2293 11.181 40.4405 11.4773 42.5725 12.0618C43.572 12.3357 44.2284 13.2422 44.2282 14.2308C44.2282 14.4275 44.2021 14.6275 44.1477 14.8265C43.8193 16.0249 42.5817 16.7305 41.383 16.4016ZM67.7275 24.2495C66.536 24.6023 65.8559 25.854 66.2088 27.0456C67.0656 29.9397 67.5 32.9523 67.5 36.0001C67.5 53.3692 53.3692 67.5001 36 67.5001C18.6308 67.5001 4.5 53.3692 4.5 36.0001C4.5 18.6309 18.6308 4.50008 36 4.50008C39.0479 4.50008 42.0605 4.93447 44.954 5.79116C46.1457 6.14413 47.3974 5.46378 47.7502 4.27241C47.8132 4.05936 47.8433 3.84463 47.8433 3.63327C47.8436 2.66225 47.2101 1.76605 46.2315 1.47622C42.9228 0.496626 39.4806 7.88152e-05 36 7.88152e-05C26.3841 7.88152e-05 17.3436 3.74478 10.5441 10.5441C3.7447 17.3438 0 26.3841 0 36.0001C0 45.616 3.7447 54.6565 10.5441 61.456C17.3434 68.2555 26.3841 72.0001 36 72.0001C45.6159 72.0001 54.6563 68.2554 61.4559 61.456C68.2553 54.6565 72 45.616 72 36.0001C72 32.5197 71.5033 29.0773 70.5237 25.7682C70.171 24.5767 68.9189 23.8972 67.7275 24.2495ZM36 27.0001C36.3309 27.0001 36.665 27.0184 36.9932 27.0544C38.229 27.1903 39.3398 26.2984 39.4751 25.0633C39.6107 23.828 38.7193 22.7168 37.484 22.5814C36.9932 22.5274 36.4942 22.5001 36 22.5001C28.556 22.5001 22.5 28.5561 22.5 36.0001C22.5 43.4441 28.556 49.5001 36 49.5001C43.444 49.5001 49.5 43.4441 49.5 36.0001C49.5 34.7574 48.4927 33.7501 47.25 33.7501C46.0073 33.7501 45 34.7574 45 36.0001C45 40.9627 40.9627 45.0001 36 45.0001C31.0373 45.0001 27 40.9627 27 36.0001C27 31.0374 31.0373 27.0001 36 27.0001ZM47.4882 21.3302L48.609 10.0877C48.6605 9.57045 48.8894 9.08727 49.2569 8.71981L57.3179 0.659048C57.9389 0.0381882 58.8639 -0.164734 59.6879 0.139157C60.5115 0.443048 61.0833 1.19849 61.152 2.07388L61.7912 10.209L69.9262 10.848C70.8016 10.9168 71.557 11.4886 71.8609 12.3122C72.1648 13.136 71.9619 14.0613 71.341 14.6822L63.2801 22.7429C62.9128 23.1104 62.4295 23.3393 61.9124 23.3908L50.6701 24.5121L37.591 37.5911C37.1516 38.0304 36.5759 38.2501 36 38.2501C35.424 38.2501 34.8484 38.0304 34.4091 37.591C33.5303 36.7123 33.5303 35.2877 34.4091 34.409L47.4882 21.3302ZM52.1589 19.8414L60.6662 18.9929L64.707 14.952L59.5225 14.5448C58.4189 14.458 57.5423 13.5814 57.4556 12.4779L57.0483 7.29289L53.0072 11.3339L52.1589 19.8414Z" fill="#F4A261"/>
</svg>
