<svg width="19" height="22" viewBox="0 0 19 22" fill="none" xmlns="http://www.w3.org/2000/svg">
<path d="M15.05 7.9C15.2667 7.9 15.4458 7.82917 15.5875 7.6875C15.7292 7.54583 15.8 7.36667 15.8 7.15V4.7H18.25C18.4667 4.7 18.6458 4.62917 18.7875 4.4875C18.9292 4.34583 19 4.16667 19 3.95C19 3.73333 18.9292 3.55417 18.7875 3.4125C18.6458 3.27083 18.4667 3.2 18.25 3.2H15.8V0.75C15.8 0.533333 15.7292 0.354167 15.5875 0.2125C15.4458 0.0708333 15.2667 0 15.05 0C14.8333 0 14.6542 0.0708333 14.5125 0.2125C14.3708 0.354167 14.3 0.533333 14.3 0.75V3.2H11.85C11.6333 3.2 11.4542 3.27083 11.3125 3.4125C11.1708 3.55417 11.1 3.73333 11.1 3.95C11.1 4.16667 11.1708 4.34583 11.3125 4.4875C11.4542 4.62917 11.6333 4.7 11.85 4.7H14.3V7.15C14.3 7.36667 14.3708 7.54583 14.5125 7.6875C14.6542 7.82917 14.8333 7.9 15.05 7.9ZM8 11.75C8.48333 11.75 8.89583 11.5792 9.2375 11.2375C9.57917 10.8958 9.75 10.4833 9.75 10C9.75 9.51667 9.57917 9.10417 9.2375 8.7625C8.89583 8.42083 8.48333 8.25 8 8.25C7.51667 8.25 7.10417 8.42083 6.7625 8.7625C6.42083 9.10417 6.25 9.51667 6.25 10C6.25 10.4833 6.42083 10.8958 6.7625 11.2375C7.10417 11.5792 7.51667 11.75 8 11.75ZM8.025 21.7C7.90833 21.7 7.8 21.6833 7.7 21.65C7.6 21.6167 7.50833 21.5667 7.425 21.5C4.94167 19.3167 3.08333 17.2917 1.85 15.425C0.616667 13.5583 0 11.8167 0 10.2C0 7.7 0.804167 5.70833 2.4125 4.225C4.02083 2.74167 5.88333 2 8 2C8.28333 2 8.55417 2.0125 8.8125 2.0375C9.07083 2.0625 9.33333 2.1 9.6 2.15V3.7C9.35 3.63333 9.09167 3.58333 8.825 3.55C8.55833 3.51667 8.28333 3.5 8 3.5C6.18333 3.5 4.64583 4.125 3.3875 5.375C2.12917 6.625 1.5 8.23333 1.5 10.2C1.5 11.45 2.04167 12.8958 3.125 14.5375C4.20833 16.1792 5.83333 18.0083 8 20.025C10.2167 18.0083 11.8542 16.1792 12.9125 14.5375C13.9708 12.8958 14.5 11.45 14.5 10.2C14.5 10.0667 14.4958 9.93333 14.4875 9.8C14.4792 9.66667 14.4667 9.53333 14.45 9.4H15.975C15.9917 9.53333 16 9.66667 16 9.8V10.2C16 11.8167 15.3833 13.5583 14.15 15.425C12.9167 17.2917 11.0583 19.3167 8.575 21.5C8.49167 21.5667 8.40417 21.6167 8.3125 21.65C8.22083 21.6833 8.125 21.7 8.025 21.7Z" fill="#264653"/>
</svg>