<svg width="64" height="72" viewBox="0 0 64 72" fill="none" xmlns="http://www.w3.org/2000/svg">
<path d="M53.797 36.965V30.2344C53.797 20.4157 47.2705 12.0936 38.3283 9.37547V6.32812C38.3283 2.8388 35.4895 0 32.0002 0C28.5108 0 25.672 2.8388 25.672 6.32812V9.37547C16.7297 12.0936 10.2033 20.4155 10.2033 30.2344V36.965C10.2033 45.5898 6.91576 53.768 0.946367 59.9932C0.361367 60.6032 0.196977 61.5033 0.52857 62.2807C0.860164 63.0581 1.62376 63.5625 2.46891 63.5625H21.6655C22.6454 68.3708 26.9069 72 32.0002 72C37.0936 72 41.3548 68.3708 42.3348 63.5625H61.5314C62.3766 63.5625 63.14 63.0581 63.4716 62.2807C63.8032 61.5033 63.6388 60.6032 63.054 59.9932C57.0846 53.768 53.797 45.5896 53.797 36.965ZM29.8908 6.32812C29.8908 5.16502 30.8371 4.21875 32.0002 4.21875C33.1633 4.21875 34.1095 5.16502 34.1095 6.32812V8.53988C33.4153 8.47294 32.7117 8.4375 32.0002 8.4375C31.2886 8.4375 30.5851 8.47294 29.8908 8.53988V6.32812ZM32.0002 67.7812C29.2502 67.7812 26.9056 66.0177 26.0349 63.5625H37.9655C37.0947 66.0177 34.7501 67.7812 32.0002 67.7812ZM7.01532 59.3438C11.8192 52.9043 14.422 45.1114 14.422 36.965V30.2344C14.422 20.5418 22.3076 12.6562 32.0002 12.6562C41.6927 12.6562 49.5783 20.5418 49.5783 30.2344V36.965C49.5783 45.1114 52.1811 52.9043 56.9851 59.3438H7.01532Z" fill="#264653"/>
<path d="M59.4229 30.2334C59.4229 31.3983 60.3674 32.3428 61.5323 32.3428C62.6972 32.3428 63.6417 31.3983 63.6417 30.2334C63.6417 21.7818 60.3505 13.8361 54.3744 7.85997C53.5507 7.03633 52.2151 7.03619 51.3913 7.85997C50.5675 8.68375 50.5675 10.0193 51.3913 10.843C56.5706 16.0224 59.4229 22.9087 59.4229 30.2334Z" fill="#264653"/>
<path d="M2.46875 32.3427C3.63369 32.3427 4.57812 31.3983 4.57812 30.2333C4.57812 22.9087 7.43056 16.0225 12.6098 10.8431C13.4336 10.0193 13.4336 8.6838 12.6098 7.86002C11.7861 7.03624 10.4505 7.03624 9.6267 7.86002C3.65056 13.8362 0.359375 21.7818 0.359375 30.2333C0.359375 31.3983 1.30381 32.3427 2.46875 32.3427Z" fill="#264653"/>
</svg>
