<svg width="659" height="492" viewBox="0 0 659 492" fill="none" xmlns="http://www.w3.org/2000/svg">
<path d="M659 431.514H0V431.843H659V431.514Z" fill="#A0ACBB"/>
<path d="M592.965 452.721H549.312V453.05H592.965V452.721Z" fill="#A0ACBB"/>
<path d="M360.106 448.594H343.117V448.923H360.106V448.594Z" fill="#A0ACBB"/>
<path d="M460.864 449.992H425.094V450.322H460.864V449.992Z" fill="#A0ACBB"/>
<path d="M548 440.488H474.047V440.818H548V440.488Z" fill="#A0ACBB"/>
<path d="M104.107 455.738H69.1406V456.068H104.107V455.738Z" fill="#A0ACBB"/>
<path d="M146.15 455.738H115.836V456.068H146.15V455.738Z" fill="#A0ACBB"/>
<path d="M252.804 448.436H172.656V448.765H252.804V448.436Z" fill="#A0ACBB"/>
<path d="M312.365 372.73H57.872C55.8783 372.727 53.9675 371.932 52.559 370.522C51.1505 369.111 50.3594 367.198 50.3594 365.205V7.45988C50.3767 5.47764 51.1755 3.5823 52.5821 2.18553C53.9887 0.788768 55.8897 0.00339568 57.872 0H312.365C314.361 0 316.275 0.792893 317.686 2.20425C319.098 3.61561 319.89 5.52982 319.89 7.52578V365.205C319.89 367.201 319.098 369.115 317.686 370.526C316.275 371.938 314.361 372.73 312.365 372.73ZM57.872 0.263601C55.9657 0.267092 54.1387 1.02681 52.792 2.37599C51.4452 3.72518 50.6889 5.55359 50.6889 7.45988V365.205C50.6889 367.111 51.4452 368.939 52.792 370.289C54.1387 371.638 55.9657 372.397 57.872 372.401H312.365C314.272 372.397 316.1 371.638 317.449 370.289C318.798 368.941 319.557 367.112 319.561 365.205V7.45988C319.557 5.55238 318.798 3.724 317.449 2.37519C316.1 1.02638 314.272 0.267085 312.365 0.263601H57.872Z" fill="#A0ACBB"/>
<path d="M597.461 372.73H342.955C340.961 372.727 339.048 371.933 337.638 370.522C336.227 369.112 335.433 367.2 335.43 365.205V7.45988C335.45 5.47644 336.252 3.58111 337.661 2.18471C339.07 0.788307 340.972 0.00335865 342.955 0H597.461C599.441 0.00685953 601.339 0.793764 602.743 2.19016C604.146 3.58655 604.943 5.47992 604.961 7.45988V365.205C604.961 367.196 604.171 369.106 602.766 370.517C601.36 371.927 599.453 372.723 597.461 372.73ZM342.955 0.263601C341.048 0.267085 339.22 1.02638 337.871 2.37519C336.522 3.724 335.763 5.55238 335.759 7.45988V365.205C335.763 367.112 336.522 368.941 337.871 370.289C339.22 371.638 341.048 372.397 342.955 372.401H597.461C599.369 372.397 601.197 371.638 602.546 370.289C603.895 368.941 604.654 367.112 604.658 365.205V7.45988C604.654 5.55238 603.895 3.724 602.546 2.37519C601.197 1.02638 599.369 0.267085 597.461 0.263601H342.955Z" fill="#A0ACBB"/>
<path d="M349.135 318.152C346.499 310.574 325.687 320.881 317.239 333.441C311.611 341.797 308.171 350.733 306.576 362.727C306.761 349.046 306.985 334.337 307.196 320.459C308.909 317.006 312.811 309.032 315.605 302.705C324.976 281.617 347.237 273.709 354.921 260.45C365.003 243 364.938 216.838 356.371 207.388C348.911 199.19 324.225 254.677 321.444 260.872C313.856 277.463 309.077 295.198 307.301 313.355C307.512 300.32 307.71 288.313 307.868 279.087C308.395 248.97 309.041 239.283 309.344 236.304C310.372 234.855 311.585 233.154 312.297 232.245C318.267 224.561 331.526 215.401 338.143 204.224C347.817 187.894 346.261 168.362 339.461 161.086C332.37 153.481 319.822 171.459 313.166 189.265C306.511 207.071 309.357 224.126 307.486 238.927C307.104 241.827 306.695 252.845 306.326 268.134C304.296 251.686 300.276 240.667 292.817 230.4C283.591 217.773 275.683 202.392 268.183 204.383C260.684 206.373 264.69 226.709 270.674 240.997C275.946 253.728 302.306 266.408 306.128 276.648C305.667 297.367 305.258 323.622 304.969 348.058C302.899 335.431 304.323 334.377 295.835 315.042C290.8 303.549 270.121 289.38 267.656 297.275C265.191 305.17 268.974 320.09 276.737 330.542C283.037 338.977 297.008 338.964 300.237 344.196C301.001 345.422 303.492 350.101 304.916 352.789C304.573 382.629 304.428 408.976 304.599 417.951L305.917 418.044C305.917 415.724 306.023 400.54 306.287 380.454C309.687 369.765 332.528 363.531 339.579 352.407C347 340.822 352.311 327.247 349.135 318.152Z" fill="#E6E6E6"/>
<path d="M327.671 431.513H283.834C282.671 431.515 281.544 431.115 280.643 430.379C279.742 429.644 279.123 428.62 278.892 427.48L275.781 412.139H335.724L332.6 427.48C332.372 428.619 331.756 429.643 330.857 430.378C329.958 431.114 328.832 431.515 327.671 431.513Z" fill="#F0F0F0"/>
<path d="M336.973 418.083H274.527C273.799 418.083 273.097 417.814 272.557 417.327C272.016 416.84 271.676 416.17 271.601 415.447L270.283 404.099C270.238 403.688 270.281 403.272 270.408 402.878C270.534 402.484 270.742 402.121 271.018 401.813C271.294 401.505 271.632 401.258 272.009 401.089C272.386 400.92 272.795 400.831 273.209 400.83H338.212C338.625 400.831 339.034 400.919 339.41 401.089C339.787 401.258 340.124 401.505 340.399 401.814C340.674 402.122 340.88 402.485 341.006 402.879C341.131 403.273 341.171 403.688 341.125 404.099L339.807 415.447C339.737 416.156 339.41 416.815 338.888 417.3C338.367 417.785 337.686 418.064 336.973 418.083Z" fill="#F0F0F0"/>
<path d="M528.217 426.018H570.195V246.888H528.217V426.018Z" fill="#F0F0F0"/>
<path d="M349.863 431.514H567.359V426.018H349.863V431.514Z" fill="#F0F0F0"/>
<path d="M528.198 246.889H347.039V426.018H528.198V246.889Z" fill="#F5F5F5"/>
<path d="M511.703 317.492H363.547V355.424H511.703V317.492Z" fill="#F0F0F0"/>
<path d="M511.703 366.312H363.547V404.245H511.703V366.312Z" fill="#F0F0F0"/>
<path d="M420.999 324.031H454.253C456.516 324.031 458.352 322.199 458.352 319.939C458.352 317.679 456.516 315.846 454.253 315.846H420.999C418.736 315.846 416.9 317.679 416.9 319.939C416.9 322.199 418.736 324.031 420.999 324.031Z" fill="#F5F5F5"/>
<path d="M511.703 268.674H363.547V306.606H511.703V268.674Z" fill="#F0F0F0"/>
<path d="M420.997 275.212H454.251C455.334 275.209 456.373 274.778 457.141 274.012C457.908 273.247 458.343 272.21 458.35 271.126C458.346 270.04 457.913 269 457.145 268.232C456.377 267.464 455.337 267.031 454.251 267.027H420.997C419.911 267.031 418.871 267.464 418.103 268.232C417.335 269 416.902 270.04 416.898 271.126C416.905 272.21 417.34 273.247 418.107 274.012C418.875 274.778 419.914 275.209 420.997 275.212Z" fill="#F5F5F5"/>
<path d="M420.997 372.849H454.251C455.335 372.849 456.376 372.419 457.144 371.653C457.913 370.887 458.346 369.848 458.35 368.763C458.346 367.677 457.913 366.636 457.145 365.868C456.377 365.101 455.337 364.668 454.251 364.664H420.997C419.911 364.668 418.871 365.101 418.103 365.868C417.335 366.636 416.902 367.677 416.898 368.763C416.902 369.848 417.335 370.887 418.104 371.653C418.872 372.419 419.913 372.849 420.997 372.849Z" fill="#F5F5F5"/>
<path d="M343.314 246.889L528.203 246.889V241.775L343.314 241.775V246.889Z" fill="#F0F0F0"/>
<path d="M574.175 241.787H528.203V246.901H574.175V241.787Z" fill="#E6E6E6"/>
<path d="M194.288 431.514H235.766L235.766 163.261H194.288L194.288 431.514Z" fill="#E0E0E0"/>
<path d="M88.5859 431.513H227.464L242.054 101.328H103.176L88.5859 431.513Z" fill="#E6E6E6"/>
<path d="M68.3281 431.513H221.954L236.531 101.328H82.9184L68.3281 431.513Z" fill="#F0F0F0"/>
<path d="M206.912 415.327L219.196 117.525H97.9532L85.6562 415.327H206.912Z" fill="white"/>
<path d="M154.812 415.327L196.026 117.525H183.097L141.883 415.327H154.812Z" fill="#FAFAFA"/>
<path d="M136.402 415.327L177.616 117.525H155.565L114.352 415.327H136.402Z" fill="#FAFAFA"/>
<path d="M386.79 191.268L554.875 191.268V34.0302L386.79 34.0302V191.268Z" fill="#E6E6E6"/>
<path d="M381.564 191.268L552.43 191.268V34.0302L381.564 34.0302V191.268Z" fill="#F5F5F5"/>
<path d="M386.79 197.699L554.875 197.699V191.267L386.79 191.267V197.699Z" fill="#E6E6E6"/>
<path d="M376.892 197.699L536.344 197.699V191.267L376.892 191.267V197.699Z" fill="#F5F5F5"/>
<path d="M545.125 181.516V43.7715L388.863 43.7715V181.516H545.125Z" fill="#FAFAFA"/>
<path d="M389.914 181.527V43.7832H388.873V181.527H389.914Z" fill="#E6E6E6"/>
<path d="M519.215 181.516L492.196 43.7715H456.781L483.8 181.516H519.215Z" fill="white"/>
<path d="M478.069 181.516L451.05 43.7715H435.062L462.081 181.516H478.069Z" fill="white"/>
<path d="M539.906 174.054V28.6262C539.906 28.1822 539.546 27.8223 539.102 27.8223H539.036C538.592 27.8223 538.232 28.1822 538.232 28.6262V174.054C538.232 174.498 538.592 174.858 539.036 174.858H539.102C539.546 174.858 539.906 174.498 539.906 174.054Z" fill="#A0ACBB"/>
<path opacity="0.5" d="M377.738 51.877L557.711 51.877V27.8103L377.738 27.8103V51.877Z" fill="#E6E6E6"/>
<path d="M377.738 30.8008L557.711 30.8008V27.8089L377.738 27.8089V30.8008Z" fill="#E0E0E0"/>
<path d="M378.044 29.127L557.424 29.127C558.057 29.127 558.57 28.6136 558.57 27.9803V27.6508C558.57 27.0175 558.057 26.5041 557.424 26.5041L378.044 26.5041C377.411 26.5041 376.897 27.0175 376.897 27.6508V27.9803C376.897 28.6136 377.411 29.127 378.044 29.127Z" fill="#A0ACBB"/>
<path d="M377.515 52.5099H557.936C558.019 52.5099 558.101 52.4935 558.177 52.4615C558.253 52.4296 558.321 52.3828 558.379 52.3238C558.437 52.2649 558.482 52.1951 558.513 52.1184C558.543 52.0417 558.558 51.9597 558.556 51.8773C558.556 51.713 558.491 51.5554 558.374 51.4392C558.258 51.3231 558.101 51.2578 557.936 51.2578H377.515C377.35 51.2578 377.191 51.3226 377.073 51.4384C376.954 51.5542 376.886 51.7118 376.883 51.8773C376.883 52.0451 376.949 52.206 377.068 52.3246C377.187 52.4433 377.348 52.5099 377.515 52.5099Z" fill="white"/>
<path d="M329.5 491.035C470.635 491.035 585.047 484.355 585.047 476.115C585.047 467.875 470.635 461.195 329.5 461.195C188.365 461.195 73.9531 467.875 73.9531 476.115C73.9531 484.355 188.365 491.035 329.5 491.035Z" fill="#F5F5F5"/>
<path d="M85.4603 286.113L84.125 286.27L86.4978 306.56L87.8331 306.404L85.4603 286.113Z" fill="#E76F51"/>
<path d="M88.7181 313.951L87.3828 314.107L88.5799 324.344L89.9152 324.188L88.7181 313.951Z" fill="#E76F51"/>
<path d="M177.391 244.74L175.81 240.298C174.722 237.245 172.63 234.652 169.877 232.942C167.123 231.233 163.871 230.508 160.653 230.887L97.6656 238.255C93.8923 238.698 90.4493 240.621 88.0938 243.602C85.7384 246.582 84.6633 250.377 85.1051 254.15L103.03 407.433C103.179 408.715 103.579 409.956 104.207 411.083C104.836 412.21 105.68 413.202 106.693 414.003C107.705 414.804 108.865 415.397 110.107 415.749C111.349 416.1 112.648 416.204 113.93 416.053L339.308 389.693C340.592 389.548 341.835 389.15 342.965 388.523C344.096 387.895 345.091 387.051 345.894 386.039C346.698 385.026 347.293 383.865 347.646 382.621C348 381.378 348.104 380.077 347.954 378.793L332.401 246.282C332.101 243.695 330.785 241.334 328.743 239.717C326.702 238.101 324.101 237.361 321.515 237.662L190.637 252.977C187.823 253.303 184.982 252.666 182.577 251.17C180.171 249.674 178.344 247.407 177.391 244.74Z" fill="#E76F51"/>
<path d="M183.685 178.083L112.477 192.273L132.027 290.381L203.235 276.191L183.685 178.083Z" fill="#E76F51"/>
<path opacity="0.7" d="M183.685 178.083L112.477 192.273L132.027 290.381L203.235 276.191L183.685 178.083Z" fill="white"/>
<g opacity="0.4">
<path d="M174.179 201.655L130.316 210.407C129.294 210.605 128.235 210.393 127.369 209.815C126.503 209.238 125.9 208.342 125.69 207.323C125.491 206.301 125.704 205.242 126.281 204.376C126.859 203.51 127.754 202.906 128.774 202.697L172.663 193.985C173.685 193.786 174.744 193.999 175.61 194.576C176.476 195.154 177.079 196.049 177.289 197.069C177.476 198.088 177.254 199.14 176.672 199.998C176.09 200.856 175.195 201.451 174.179 201.655Z" fill="#E76F51"/>
<path d="M177.405 217.906L133.542 226.697C132.523 226.891 131.467 226.677 130.604 226.1C129.741 225.523 129.139 224.63 128.929 223.613C128.735 222.593 128.949 221.538 129.526 220.674C130.103 219.811 130.997 219.21 132.014 219L175.877 210.261C176.896 210.067 177.952 210.281 178.815 210.858C179.678 211.435 180.28 212.329 180.49 213.346C180.669 214.357 180.447 215.399 179.872 216.251C179.296 217.102 178.411 217.696 177.405 217.906Z" fill="#E76F51"/>
<path d="M180.64 234.13L136.777 242.868C135.757 243.063 134.702 242.848 133.838 242.271C132.975 241.694 132.374 240.801 132.164 239.784C131.969 238.764 132.184 237.709 132.761 236.846C133.338 235.983 134.231 235.381 135.248 235.171L179.111 226.42C180.131 226.225 181.186 226.44 182.049 227.017C182.912 227.594 183.514 228.487 183.724 229.504C183.922 230.526 183.71 231.584 183.132 232.45C182.555 233.317 181.659 233.92 180.64 234.13Z" fill="#E76F51"/>
<path d="M183.882 250.421L140.019 259.16C138.997 259.358 137.938 259.146 137.072 258.568C136.206 257.991 135.603 257.095 135.393 256.076C135.194 255.054 135.407 253.995 135.984 253.129C136.562 252.263 137.457 251.659 138.477 251.449L182.34 242.711C183.362 242.513 184.421 242.725 185.287 243.303C186.153 243.88 186.756 244.776 186.966 245.795C187.164 246.817 186.952 247.876 186.374 248.742C185.797 249.608 184.901 250.212 183.882 250.421Z" fill="#E76F51"/>
<path d="M175.117 268.966L143.248 275.319C142.228 275.513 141.173 275.299 140.31 274.722C139.446 274.145 138.845 273.251 138.635 272.234C138.437 271.213 138.649 270.154 139.227 269.288C139.804 268.422 140.7 267.818 141.719 267.608L173.588 261.256C174.608 261.061 175.664 261.275 176.527 261.853C177.39 262.43 177.991 263.323 178.201 264.34C178.4 265.362 178.187 266.42 177.61 267.286C177.032 268.152 176.137 268.756 175.117 268.966Z" fill="#E76F51"/>
</g>
<path d="M285.142 159.176L213.203 169.018L226.762 268.131L298.701 258.289L285.142 159.176Z" fill="#E76F51"/>
<path opacity="0.7" d="M285.142 159.176L213.203 169.018L226.762 268.131L298.701 258.289L285.142 159.176Z" fill="white"/>
<g opacity="0.4">
<path d="M274.226 182.147L229.915 188.21C228.883 188.345 227.84 188.068 227.011 187.439C226.182 186.81 225.634 185.879 225.487 184.849C225.351 183.817 225.628 182.774 226.257 181.944C226.887 181.115 227.817 180.568 228.848 180.421L273.159 174.358C274.191 174.222 275.234 174.499 276.063 175.129C276.892 175.758 277.44 176.688 277.587 177.719C277.723 178.751 277.446 179.794 276.817 180.623C276.187 181.452 275.257 182 274.226 182.147Z" fill="#E76F51"/>
<path d="M276.467 198.531L232.156 204.594C231.124 204.729 230.08 204.452 229.251 203.823C228.422 203.194 227.875 202.263 227.727 201.233C227.596 200.203 227.874 199.163 228.503 198.336C229.132 197.51 230.06 196.965 231.088 196.817L275.399 190.755C276.429 190.619 277.471 190.894 278.3 191.521C279.129 192.147 279.677 193.074 279.828 194.102C279.963 195.134 279.686 196.178 279.057 197.007C278.428 197.836 277.497 198.383 276.467 198.531Z" fill="#E76F51"/>
<path d="M246.604 219.315L234.4 220.989C233.368 221.125 232.324 220.848 231.495 220.219C230.666 219.589 230.118 218.659 229.971 217.628C229.836 216.596 230.113 215.553 230.742 214.724C231.371 213.895 232.302 213.347 233.332 213.2L245.55 211.526C246.58 211.394 247.62 211.673 248.446 212.302C249.272 212.931 249.818 213.859 249.965 214.887C250.101 215.919 249.824 216.963 249.194 217.792C248.565 218.621 247.635 219.168 246.604 219.315Z" fill="#E76F51"/>
<path d="M270.284 216.072L258.066 217.746C257.036 217.877 255.996 217.599 255.17 216.97C254.344 216.341 253.798 215.412 253.651 214.385C253.515 213.353 253.792 212.309 254.422 211.48C255.051 210.651 255.981 210.104 257.012 209.956L269.216 208.296C270.246 208.16 271.288 208.435 272.117 209.062C272.946 209.688 273.494 210.615 273.645 211.643C273.78 212.675 273.503 213.719 272.874 214.548C272.245 215.377 271.314 215.925 270.284 216.072Z" fill="#E76F51"/>
<path d="M280.951 231.309L236.64 237.372C235.608 237.507 234.565 237.231 233.735 236.601C232.906 235.972 232.359 235.041 232.212 234.011C232.08 232.981 232.359 231.941 232.987 231.115C233.616 230.289 234.545 229.743 235.573 229.596L279.884 223.52C280.916 223.385 281.959 223.662 282.788 224.291C283.617 224.92 284.165 225.851 284.312 226.881C284.448 227.913 284.171 228.956 283.541 229.785C282.912 230.614 281.982 231.162 280.951 231.309Z" fill="#E76F51"/>
<path d="M271.091 249.351L238.879 253.753C237.851 253.885 236.812 253.608 235.987 252.982C235.161 252.356 234.614 251.431 234.464 250.406C234.328 249.376 234.603 248.334 235.23 247.505C235.856 246.677 236.783 246.128 237.811 245.977L270.023 241.575C271.051 241.443 272.09 241.72 272.915 242.346C273.741 242.972 274.288 243.898 274.438 244.923C274.574 245.953 274.299 246.995 273.672 247.823C273.046 248.652 272.119 249.201 271.091 249.351Z" fill="#E76F51"/>
</g>
<path d="M217.264 173.636L144.93 179.939L153.614 279.598L225.948 273.295L217.264 173.636Z" fill="#E76F51"/>
<path opacity="0.8" d="M217.264 173.636L144.93 179.939L153.614 279.598L225.948 273.295L217.264 173.636Z" fill="white"/>
<g opacity="0.4">
<path d="M205.229 196.066L160.668 199.941C159.631 200.025 158.603 199.698 157.806 199.029C157.009 198.36 156.508 197.405 156.41 196.369C156.33 195.335 156.659 194.31 157.327 193.516C157.995 192.722 158.949 192.222 159.982 192.125L204.544 188.171C205.581 188.087 206.609 188.415 207.406 189.083C208.202 189.752 208.704 190.707 208.801 191.743C208.852 192.262 208.8 192.785 208.647 193.284C208.495 193.782 208.246 194.245 207.914 194.647C207.582 195.049 207.174 195.381 206.713 195.625C206.252 195.868 205.748 196.018 205.229 196.066Z" fill="#E76F51"/>
<path d="M206.668 212.541L162.106 216.495C161.069 216.579 160.041 216.252 159.244 215.583C158.447 214.915 157.946 213.959 157.849 212.923C157.765 211.887 158.092 210.858 158.761 210.062C159.429 209.265 160.385 208.763 161.421 208.666L205.982 204.712C207.019 204.628 208.047 204.956 208.844 205.624C209.641 206.293 210.142 207.248 210.239 208.284C210.324 209.321 209.996 210.349 209.328 211.146C208.659 211.943 207.703 212.444 206.668 212.541Z" fill="#E76F51"/>
<path d="M208.105 229.016L163.544 232.97C162.507 233.054 161.479 232.726 160.682 232.058C159.885 231.389 159.384 230.434 159.286 229.398C159.202 228.361 159.53 227.333 160.198 226.536C160.867 225.739 161.823 225.238 162.858 225.141L207.42 221.187C208.457 221.103 209.485 221.43 210.282 222.099C211.079 222.767 211.58 223.723 211.677 224.759C211.761 225.795 211.434 226.824 210.765 227.62C210.096 228.417 209.141 228.919 208.105 229.016Z" fill="#E76F51"/>
<path d="M209.566 245.491L165.005 249.445C163.968 249.53 162.94 249.202 162.143 248.533C161.346 247.865 160.845 246.909 160.747 245.874C160.663 244.837 160.991 243.809 161.659 243.012C162.328 242.215 163.284 241.714 164.319 241.616L208.881 237.742C209.918 237.657 210.946 237.985 211.743 238.653C212.539 239.322 213.041 240.278 213.138 241.313C213.201 242.337 212.863 243.345 212.197 244.124C211.53 244.904 210.587 245.394 209.566 245.491Z" fill="#E76F51"/>
<path d="M198.795 263.033L166.411 265.854C165.368 265.949 164.33 265.627 163.524 264.957C162.718 264.287 162.212 263.325 162.115 262.282C162.03 261.245 162.358 260.217 163.026 259.42C163.695 258.623 164.651 258.122 165.686 258.025L198.07 255.204C199.106 255.12 200.135 255.448 200.931 256.116C201.728 256.785 202.23 257.741 202.327 258.776C202.412 259.807 202.089 260.83 201.429 261.625C200.769 262.421 199.823 262.927 198.795 263.033Z" fill="#E76F51"/>
</g>
<path d="M305.407 168.795L232.883 172.291L237.7 272.211L310.224 268.715L305.407 168.795Z" fill="#E76F51"/>
<path opacity="0.8" d="M305.407 168.795L232.883 172.291L237.7 272.211L310.224 268.715L305.407 168.795Z" fill="white"/>
<g opacity="0.4">
<path d="M292.517 190.715L247.85 192.876C246.812 192.919 245.799 192.552 245.029 191.854C244.26 191.156 243.796 190.184 243.738 189.146C243.695 188.108 244.062 187.095 244.76 186.325C245.458 185.556 246.43 185.092 247.468 185.034L292.148 182.873C293.186 182.829 294.199 183.196 294.969 183.894C295.738 184.592 296.202 185.565 296.26 186.603C296.303 187.643 295.934 188.658 295.234 189.428C294.533 190.198 293.557 190.66 292.517 190.715Z" fill="#E76F51"/>
<path d="M293.319 207.241L248.639 209.39C247.601 209.433 246.588 209.066 245.818 208.368C245.049 207.67 244.585 206.697 244.527 205.66C244.484 204.62 244.853 203.605 245.553 202.835C246.254 202.065 247.23 201.602 248.27 201.548L292.937 199.386C293.977 199.343 294.992 199.712 295.762 200.413C296.532 201.114 296.995 202.09 297.049 203.129C297.092 204.167 296.725 205.181 296.027 205.95C295.329 206.72 294.356 207.184 293.319 207.241Z" fill="#E76F51"/>
<path d="M261.754 225.378L249.444 225.971C248.406 226.014 247.392 225.647 246.623 224.949C245.853 224.251 245.39 223.279 245.332 222.241C245.288 221.203 245.655 220.19 246.353 219.421C247.051 218.651 248.024 218.187 249.061 218.129L261.372 217.523C262.412 217.48 263.427 217.849 264.197 218.55C264.967 219.25 265.429 220.226 265.484 221.266C265.527 222.304 265.16 223.317 264.462 224.087C263.764 224.856 262.791 225.32 261.754 225.378Z" fill="#E76F51"/>
<path d="M285.621 224.166L273.311 224.759C272.273 224.802 271.26 224.435 270.49 223.737C269.721 223.039 269.257 222.066 269.199 221.029C269.156 219.991 269.523 218.978 270.221 218.208C270.919 217.439 271.891 216.975 272.929 216.917L285.239 216.324C286.277 216.281 287.29 216.648 288.06 217.346C288.829 218.044 289.293 219.016 289.351 220.054C289.394 221.092 289.027 222.105 288.329 222.874C287.631 223.644 286.658 224.108 285.621 224.166Z" fill="#E76F51"/>
<path d="M294.913 240.284L250.233 242.433C249.195 242.476 248.181 242.109 247.412 241.411C246.642 240.713 246.179 239.74 246.121 238.703C246.078 237.663 246.446 236.647 247.147 235.878C247.848 235.108 248.824 234.645 249.864 234.591L294.531 232.429C295.571 232.386 296.586 232.755 297.356 233.456C298.126 234.157 298.588 235.133 298.643 236.172C298.686 237.21 298.319 238.224 297.621 238.993C296.923 239.763 295.95 240.226 294.913 240.284Z" fill="#E76F51"/>
<path d="M283.5 257.392L251.037 258.961C249.999 259.004 248.986 258.637 248.217 257.939C247.447 257.241 246.983 256.268 246.925 255.231C246.882 254.193 247.249 253.18 247.947 252.41C248.645 251.641 249.618 251.177 250.655 251.119L283.118 249.55C284.156 249.507 285.169 249.874 285.938 250.572C286.708 251.27 287.172 252.243 287.23 253.28C287.273 254.318 286.906 255.332 286.208 256.101C285.51 256.871 284.537 257.334 283.5 257.392Z" fill="#E76F51"/>
</g>
<path d="M197.506 247.573L196.346 243.237C195.534 240.236 193.647 237.638 191.045 235.937C188.442 234.236 185.305 233.551 182.23 234.011L119.243 241.378C115.422 241.847 111.903 243.693 109.345 246.571C106.788 249.448 105.368 253.16 105.352 257.01L108.923 407.064C108.945 408.3 109.23 409.517 109.761 410.634C110.292 411.75 111.056 412.74 112.001 413.536C112.946 414.333 114.051 414.918 115.241 415.252C116.431 415.586 117.679 415.661 118.901 415.473L344.279 389.113C346.895 388.796 349.307 387.535 351.061 385.567C352.815 383.6 353.792 381.06 353.808 378.424L350.724 248.707C350.7 247.47 350.413 246.253 349.881 245.136C349.348 244.02 348.583 243.031 347.637 242.234C346.691 241.438 345.586 240.853 344.395 240.519C343.204 240.185 341.956 240.11 340.733 240.298L209.869 255.6C207.183 256.01 204.439 255.419 202.16 253.939C199.881 252.459 198.225 250.194 197.506 247.573Z" fill="#E76F51"/>
<path opacity="0.3" d="M197.506 247.573L196.346 243.237C195.534 240.236 193.647 237.638 191.045 235.937C188.442 234.236 185.305 233.551 182.23 234.011L119.243 241.378C115.422 241.847 111.903 243.693 109.345 246.571C106.788 249.448 105.368 253.16 105.352 257.01L108.923 407.064C108.945 408.3 109.23 409.517 109.761 410.634C110.292 411.75 111.056 412.74 112.001 413.536C112.946 414.333 114.051 414.918 115.241 415.252C116.431 415.586 117.679 415.661 118.901 415.473L344.279 389.113C346.895 388.796 349.307 387.535 351.061 385.567C352.815 383.6 353.792 381.06 353.808 378.424L350.724 248.707C350.7 247.47 350.413 246.253 349.881 245.136C349.348 244.02 348.583 243.031 347.637 242.234C346.691 241.438 345.586 240.853 344.395 240.519C343.204 240.185 341.956 240.11 340.733 240.298L209.869 255.6C207.183 256.01 204.439 255.419 202.16 253.939C199.881 252.459 198.225 250.194 197.506 247.573Z" fill="black"/>
<path d="M417.809 175.44C416.834 180.33 415.793 185.154 414.62 189.938C413.447 194.723 412.3 199.56 411.022 204.344L409.071 211.501L408.821 212.423C408.702 212.819 408.57 213.214 408.412 213.623C408.075 214.52 407.632 215.374 407.094 216.167C406.44 217.151 405.604 218.002 404.629 218.671C403.556 219.398 402.32 219.851 401.031 219.989C399.079 220.131 397.128 219.715 395.403 218.789C394.094 218.076 392.865 217.224 391.739 216.246C389.702 214.465 387.899 212.432 386.375 210.196L390.131 206.927C391.925 208.322 393.819 209.582 395.799 210.697C396.659 211.184 397.569 211.578 398.514 211.87C399.318 212.134 400.03 212.094 400.03 211.962C400.03 211.83 399.898 211.962 399.832 211.962C399.766 211.962 399.832 211.962 399.832 211.738C399.832 211.514 399.99 211.277 400.082 210.934L400.385 209.471L401.914 202.275L405.012 187.882C406.013 183.085 407.094 178.274 408.135 173.529L417.809 175.44Z" fill="#FFC3BD"/>
<path d="M413.432 160.374C402.19 168.981 402.651 185.205 402.651 185.205L422.751 190.016C422.751 190.016 428.932 173.699 426.428 167.729C423.818 161.508 419.772 155.524 413.432 160.374Z" fill="#264653"/>
<path d="M391.129 207.124L383.735 199.73L379.781 211.303C379.781 211.303 386.029 214.663 391.999 211.487L391.129 207.124Z" fill="#FFC3BD"/>
<path d="M373.498 198.584L372.141 207.731L379.745 211.303L383.739 199.731L373.498 198.584Z" fill="#FFC3BD"/>
<path d="M478.594 466.388L467.285 467.495L455.516 440.568L466.824 439.461L478.594 466.388Z" fill="#FFC3BD"/>
<path d="M551.452 426.584L542.951 434.558L524.617 414.406L533.118 406.432L551.452 426.584Z" fill="#FFC3BD"/>
<path d="M539.065 430.735L545.444 419.243C545.552 419.041 545.729 418.886 545.942 418.806C546.156 418.726 546.391 418.726 546.604 418.808L556.423 422.551C556.666 422.653 556.884 422.805 557.064 422.997C557.244 423.189 557.381 423.417 557.467 423.666C557.553 423.914 557.585 424.178 557.562 424.44C557.539 424.703 557.461 424.957 557.333 425.187C555.039 429.141 553.735 430.96 550.927 436.021C549.201 439.131 545.84 446.262 543.454 450.519C541.069 454.776 536.693 452.693 537.299 450.69C540.027 441.701 539.513 436.706 538.749 432.752C538.618 432.063 538.73 431.351 539.065 430.735Z" fill="#264653"/>
<path d="M465.787 464.002H479.679C479.929 464.003 480.171 464.086 480.369 464.238C480.567 464.391 480.709 464.605 480.773 464.846L483.791 475.825C483.865 476.084 483.878 476.357 483.827 476.622C483.777 476.887 483.665 477.136 483.501 477.35C483.337 477.564 483.126 477.737 482.883 477.854C482.64 477.971 482.374 478.03 482.104 478.026C477.201 478.026 474.881 478.026 468.779 478.026H450.116C445.029 478.026 443.974 472.899 446.07 472.425C455.494 470.342 460.911 467.469 463.823 464.727C464.364 464.247 465.065 463.989 465.787 464.002Z" fill="#264653"/>
<path opacity="0.2" d="M455.531 440.582L461.594 454.46H473.39L466.84 439.475L455.531 440.582Z" fill="black"/>
<path opacity="0.2" d="M533.118 406.445L524.617 414.419L534.08 424.805L542.582 416.818L533.118 406.445Z" fill="black"/>
<path d="M416.835 158.714C416.835 158.714 411.748 160.941 428.803 228.423L476.172 224.324C473.72 205.121 472.666 193.232 478.452 152.862C471.704 152.064 464.907 151.76 458.115 151.953C450.91 152.06 443.722 152.681 436.605 153.811C429.937 155.109 423.338 156.746 416.835 158.714Z" fill="#264653"/>
<path d="M458.11 151.57C458.11 151.57 460.746 151.57 463.962 151.57C465.873 154.509 459.679 167.386 449.464 175.808C447.909 171.126 445.051 166.984 441.227 163.867L458.11 151.57Z" fill="white"/>
<path d="M436.605 153.641C436.605 153.641 435.405 153.812 432.545 154.471C430.634 157.41 427.405 169.971 433.033 176.376C434.45 171.519 437.292 167.198 441.191 163.974L436.605 153.641Z" fill="white"/>
<path d="M453.882 127.912C453.131 134.95 452.867 147.682 458.113 151.952C458.113 151.952 452.511 157.673 441.19 163.973C432.952 158.279 436.603 153.811 436.603 153.811C444.155 151.307 443.457 145.6 441.651 140.328L453.882 127.912Z" fill="#FFC3BD"/>
<path d="M440.992 164.013C440.992 164.013 447.938 156.448 451.536 157.898C455.134 159.347 452.353 161.944 452.037 164.382C451.721 166.82 453.434 173.305 448.623 171.618C443.813 169.931 440.992 164.013 440.992 164.013Z" fill="#E76F51"/>
<path d="M440.717 163.855C440.717 163.855 437.435 158.056 433.89 158.833C430.344 159.611 432.453 161.641 432.769 163.829C433.178 166.623 430.226 172 434.496 170.419C438.766 168.837 440.717 163.855 440.717 163.855Z" fill="#E76F51"/>
<g opacity="0.2">
<path d="M438.897 162.603C438.849 163.772 439.075 164.936 439.556 166.003C439.992 165.322 440.375 164.608 440.703 163.868C440.216 163.042 439.656 162.261 439.029 161.535C438.92 161.88 438.875 162.242 438.897 162.603Z" fill="black"/>
<path d="M443.525 161.561C442.036 162.879 441.008 164.012 441.008 164.012C441.391 164.803 441.831 165.565 442.326 166.292C443.122 165.493 443.592 164.427 443.644 163.3C443.77 162.721 443.729 162.117 443.525 161.561Z" fill="black"/>
</g>
<path d="M440.912 166.385C439.924 166.385 439.318 165.317 439.252 162.773C439.186 160.23 441.136 161.64 441.136 161.64C441.136 161.64 443.772 160.322 443.298 163.366C442.955 165.778 441.927 166.385 440.912 166.385Z" fill="#E76F51"/>
<path opacity="0.2" d="M448.9 132.986L441.664 140.328C442.098 141.55 442.428 142.806 442.653 144.084C445.565 143.412 449.783 140.38 449.822 137.27C449.775 135.798 449.463 134.347 448.9 132.986Z" fill="black"/>
<path d="M442.688 104.122C442.688 104.122 434.78 115.074 433.462 119.938C428.085 123.075 427.004 107.641 429.851 98.125C438.734 103.7 442.688 104.122 442.688 104.122Z" fill="#264653"/>
<path d="M460.075 116.92C457.136 128.162 456.121 132.986 449.241 137.691C438.869 144.782 425.702 138.719 425.214 126.818C424.779 116.116 429.656 99.522 441.689 97.1892C444.341 96.6509 447.086 96.8019 449.663 97.6278C452.24 98.4538 454.562 99.927 456.406 101.907C458.251 103.886 459.557 106.306 460.199 108.934C460.842 111.563 460.799 114.312 460.075 116.92Z" fill="#FFC3BD"/>
<path d="M466.191 112.425C466.191 112.425 460.537 121.585 459.772 125.605C455.673 128.386 453.947 116.182 455.673 108.471C457.558 101.604 466.191 112.425 466.191 112.425Z" fill="#264653"/>
<path d="M463.938 106.06C462.304 107.299 460.577 102.726 462.198 99.2196C459.075 99.4173 455.318 97.559 456.122 94.5408C449.967 96.61 447.687 90.3495 448.399 86.0133C449.256 80.7413 453.842 79.621 456.544 81.0049C456.544 78.6457 462.502 73.7295 464.769 77.5781C468.973 76.0888 475.747 76.55 475.603 81.7166C478.383 81.7957 486.595 84.9457 483.511 92.2606C487.135 92.4715 489.099 97.0713 487.082 100.551C487.877 100.972 488.558 101.577 489.069 102.317C489.58 103.057 489.905 103.908 490.018 104.8C490.13 105.692 490.026 106.598 489.715 107.441C489.404 108.284 488.894 109.04 488.229 109.645C489.903 113.125 484.828 118.304 482.127 117.685C480.071 120.835 476.921 123.207 474.864 120.519C470.91 123.431 466.363 119.728 467.378 116.881C462.897 116.195 458.324 108.722 463.938 106.06Z" fill="#264653"/>
<path d="M470.631 94.9885C473.583 99.9178 473.333 105.532 470.091 107.444C466.848 109.355 461.8 106.982 458.848 102.053C455.896 97.1236 456.133 91.509 459.388 89.5979C462.644 87.6868 467.679 90.0723 470.631 94.9885Z" fill="#E76F51"/>
<path d="M443.218 102.805C443.047 104.215 439.159 103.846 438.038 101.355C436.43 103.042 432.648 103.912 431.356 102.08C429.168 106.192 424.766 105.111 423.633 103.147C422.499 101.184 421.748 97.5328 424.028 96.8079C422.71 95.6744 423.106 90.3365 426.559 91.0087C428.008 88.1618 431.976 84.9327 434.875 87.4501C436.457 86.1321 442.783 83.3906 445.34 88.4122C445.901 88.029 446.541 87.7779 447.213 87.6777C447.885 87.5775 448.571 87.6309 449.219 87.8339C449.867 88.0368 450.461 88.3841 450.956 88.8495C451.45 89.3149 451.833 89.8864 452.075 90.521C456.174 89.4534 457.953 92.5639 457.94 94.251C460.853 95.0418 461.051 100.077 459.258 101.157C459.957 103.701 459.588 106.429 456.912 106.192C456.398 109.619 451.812 110.146 450.731 108.288C447.752 110.199 441.676 106.877 443.218 102.805Z" fill="#264653"/>
<path d="M436.258 93.078C439.592 88.465 451.757 86.488 462.288 93.4602C471.778 99.6943 471.158 114.179 463.606 113.402C456.054 112.624 448.594 103.78 448.594 103.78L436.258 93.078Z" fill="#264653"/>
<path d="M460.995 127.068C459.945 129.05 458.154 130.538 456.013 131.207C453.153 132.064 451.677 129.533 452.415 126.805C453.087 124.353 455.367 120.953 458.254 121.295C458.883 121.379 459.482 121.619 459.995 121.993C460.509 122.367 460.92 122.864 461.193 123.437C461.465 124.011 461.59 124.644 461.555 125.278C461.521 125.912 461.328 126.528 460.995 127.068Z" fill="#FFC3BD"/>
<path d="M428.798 228.423C428.798 228.423 412.771 299.331 423.526 349.323C430.696 382.8 456.476 450.427 456.476 450.427L476.694 449.913C476.694 449.913 457.122 378.939 453.076 351.063C446.156 303.325 463.488 225.471 463.488 225.471L428.798 228.423Z" fill="#E76F51"/>
<path opacity="0.2" d="M447.277 242.75L457.346 258.685C454.302 277.578 452.37 296.634 451.56 315.754C437.392 290.317 444.166 256.207 447.277 242.75Z" fill="black"/>
<path d="M453.63 451.481L478.593 450.835L477.157 443.178L451.68 444.377L453.63 451.481Z" fill="#264653"/>
<path d="M439.156 227.671C439.156 227.671 448.554 302.863 468.943 343.919C485.405 377.08 529.334 424.317 529.334 424.317L540.563 412.745C540.563 412.745 510.895 361.448 498.664 339.425C468.653 285.387 493.181 244.199 476.166 224.363L439.156 227.671Z" fill="#E76F51"/>
<path d="M528.202 425.834L542.7 411.705L537.889 405.154L522.508 420.496L528.202 425.834Z" fill="#264653"/>
<path d="M476.648 221.49L479.152 225.549C479.35 225.853 478.981 226.222 478.44 226.274L428.752 230.571C428.33 230.571 427.961 230.426 427.908 230.162L427.117 225.958C427.051 225.668 427.407 225.391 427.869 225.352L475.844 221.2C475.991 221.172 476.144 221.185 476.285 221.236C476.426 221.287 476.552 221.374 476.648 221.49Z" fill="#E76F51"/>
<path opacity="0.5" d="M476.648 221.49L479.152 225.549C479.35 225.853 478.981 226.222 478.44 226.274L428.752 230.571C428.33 230.571 427.961 230.426 427.908 230.162L427.117 225.958C427.051 225.668 427.407 225.391 427.869 225.352L475.844 221.2C475.991 221.172 476.144 221.185 476.285 221.236C476.426 221.287 476.552 221.374 476.648 221.49Z" fill="white"/>
<path d="M470.66 227.408L471.978 227.302C472.229 227.302 472.413 227.131 472.387 226.973L471.306 221.516C471.306 221.345 471.042 221.239 470.779 221.266L469.461 221.371C469.197 221.371 469.013 221.543 469.052 221.701L470.133 227.157C470.173 227.315 470.41 227.434 470.66 227.408Z" fill="#E76F51"/>
<path d="M432.402 230.716L433.72 230.61C433.971 230.61 434.155 230.439 434.129 230.281L433.048 224.824C433.001 224.73 432.923 224.654 432.828 224.608C432.732 224.563 432.624 224.551 432.521 224.574L431.203 224.679C430.939 224.679 430.755 224.851 430.794 225.009L431.875 230.465C431.915 230.65 432.152 230.742 432.402 230.716Z" fill="#E76F51"/>
<path d="M451.535 229.069L452.853 228.95C453.116 228.95 453.301 228.779 453.261 228.621L452.181 223.164C452.181 223.006 451.917 222.887 451.667 222.914L450.349 223.032C450.098 223.032 449.914 223.204 449.94 223.362L451.021 228.818C451.047 228.977 451.271 229.082 451.535 229.069Z" fill="#E76F51"/>
<path d="M441.042 116.539C440.858 117.461 440.225 118.12 439.619 118.002C439.012 117.883 438.67 117.026 438.841 116.104C439.012 115.181 439.671 114.522 440.278 114.641C440.884 114.759 441.227 115.603 441.042 116.539Z" fill="#264653"/>
<path d="M430.552 114.468C430.735 113.539 430.391 112.69 429.784 112.57C429.177 112.451 428.536 113.107 428.354 114.036C428.171 114.964 428.516 115.814 429.123 115.933C429.73 116.052 430.37 115.396 430.552 114.468Z" fill="#264653"/>
<path d="M430.062 112.69L427.953 111.609C427.953 111.609 428.757 113.573 430.062 112.69Z" fill="#264653"/>
<path d="M434.166 116.789C432.931 118.744 431.432 120.518 429.711 122.061C430.111 122.501 430.602 122.848 431.152 123.076C431.701 123.303 432.293 123.407 432.887 123.379L434.166 116.789Z" fill="#ED847E"/>
<path d="M437.173 127.728C439.12 127.748 441.003 127.033 442.445 125.724C442.473 125.704 442.496 125.677 442.513 125.646C442.529 125.615 442.539 125.581 442.541 125.547C442.542 125.512 442.537 125.477 442.523 125.445C442.51 125.412 442.49 125.383 442.465 125.36C442.439 125.336 442.408 125.318 442.375 125.308C442.342 125.297 442.307 125.294 442.272 125.299C442.238 125.304 442.205 125.316 442.175 125.335C442.146 125.353 442.121 125.379 442.103 125.408C441.216 126.19 440.156 126.752 439.011 127.047C437.866 127.343 436.667 127.364 435.513 127.108C435.483 127.103 435.453 127.103 435.424 127.109C435.394 127.115 435.366 127.128 435.342 127.145C435.317 127.162 435.296 127.184 435.28 127.209C435.265 127.235 435.254 127.263 435.249 127.293C435.241 127.322 435.24 127.353 435.245 127.384C435.251 127.414 435.263 127.442 435.28 127.467C435.298 127.492 435.321 127.513 435.347 127.529C435.374 127.544 435.403 127.554 435.434 127.556C436.006 127.676 436.589 127.734 437.173 127.728Z" fill="#264653"/>
<path d="M447.328 112.94C447.411 112.939 447.493 112.916 447.565 112.874C447.67 112.811 447.745 112.709 447.775 112.591C447.805 112.472 447.786 112.347 447.723 112.242C447.287 111.501 446.68 110.875 445.954 110.417C445.227 109.958 444.401 109.68 443.545 109.606C443.484 109.604 443.424 109.614 443.367 109.636C443.311 109.657 443.259 109.69 443.215 109.731C443.171 109.773 443.135 109.823 443.111 109.878C443.086 109.934 443.072 109.993 443.071 110.054C443.069 110.114 443.079 110.175 443.101 110.231C443.122 110.288 443.155 110.34 443.196 110.384C443.238 110.428 443.288 110.463 443.343 110.488C443.398 110.513 443.458 110.527 443.519 110.528C444.226 110.606 444.904 110.851 445.498 111.243C446.091 111.635 446.583 112.162 446.932 112.782C446.981 112.838 447.042 112.882 447.111 112.909C447.179 112.937 447.254 112.948 447.328 112.94Z" fill="#264653"/>
<path d="M427.668 109.224C427.742 109.241 427.819 109.241 427.892 109.224C428.505 108.862 429.194 108.649 429.904 108.603C430.614 108.557 431.324 108.68 431.978 108.961C432.085 109.005 432.205 109.008 432.314 108.968C432.423 108.929 432.513 108.849 432.566 108.746C432.619 108.643 432.631 108.524 432.601 108.412C432.57 108.301 432.498 108.205 432.4 108.143C431.611 107.786 430.747 107.624 429.882 107.672C429.016 107.721 428.176 107.977 427.431 108.42C427.328 108.481 427.252 108.579 427.22 108.695C427.188 108.811 427.202 108.934 427.26 109.04C427.305 109.105 427.366 109.156 427.438 109.189C427.51 109.221 427.59 109.233 427.668 109.224Z" fill="#264653"/>
<path d="M480.47 163.643C481.366 164.512 481.985 165.198 482.684 165.975C483.382 166.753 484.002 167.517 484.634 168.295C485.887 169.864 487.086 171.472 488.206 173.119C490.434 176.441 492.408 179.926 494.111 183.544C495.81 187.18 497.182 190.96 498.21 194.84C498.724 196.777 499.185 198.794 499.528 200.731C500.182 203.53 499.861 206.469 498.618 209.061C497.895 210.422 496.894 211.617 495.679 212.567C494.626 213.377 493.469 214.042 492.239 214.544C490.124 215.36 487.906 215.883 485.649 216.099C481.644 216.484 477.609 216.431 473.616 215.941C465.971 215.052 458.425 213.45 451.078 211.156L452.291 206.372C455.876 206.965 459.566 207.519 463.204 207.901C466.841 208.283 470.505 208.626 474.104 208.705C477.589 208.831 481.079 208.636 484.529 208.125C486.015 207.883 487.46 207.44 488.826 206.807C489.662 206.49 490.353 205.875 490.763 205.081C490.874 204.777 490.927 204.455 490.921 204.132C490.94 203.895 490.94 203.657 490.921 203.42C490.921 203.156 490.829 202.919 490.71 202.431C490.341 200.731 489.854 199.057 489.327 197.397C488.254 194.085 486.932 190.86 485.373 187.749C483.806 184.619 482.008 181.61 479.995 178.747C479.007 177.297 477.965 175.887 476.885 174.529C476.344 173.844 475.777 173.211 475.224 172.539C474.67 171.867 474.038 171.221 473.603 170.747L480.47 163.643Z" fill="#FFC3BD"/>
<path d="M455.304 207.099L446.078 202.209L445.656 214.427C445.656 214.427 452.246 214.849 456.016 211.791L455.304 207.099Z" fill="#FFC3BD"/>
<path d="M439.121 272.827L446.739 190.044L430.462 177.575L380.774 173.002L372.141 266.659L439.121 272.827Z" fill="#E76F51"/>
<path opacity="0.8" d="M439.121 272.827L446.739 190.044L430.462 177.575L380.774 173.002L372.141 266.659L439.121 272.827Z" fill="white"/>
<path d="M446.738 190.043L430.461 177.574L434.731 192.494L446.738 190.043Z" fill="#E76F51"/>
<path d="M377.961 281.13C389.171 281.13 398.258 272.042 398.258 260.832C398.258 249.623 389.171 240.535 377.961 240.535C366.751 240.535 357.664 249.623 357.664 260.832C357.664 272.042 366.751 281.13 377.961 281.13Z" fill="#E76F51"/>
<path d="M387.993 273.519C395.007 267.977 396.201 257.799 390.66 250.786C385.118 243.772 374.94 242.578 367.926 248.119C360.912 253.66 359.719 263.838 365.26 270.852C370.801 277.866 380.979 279.06 387.993 273.519Z" fill="white"/>
<path d="M387.968 259.41L380.825 258.58L381.655 251.436L376.541 250.83L375.711 257.974L368.567 257.13L367.961 262.257L375.105 263.101L374.261 270.231L379.388 270.837L380.218 263.694L387.362 264.537L387.968 259.41Z" fill="#E76F51"/>
<path opacity="0.4" d="M434.588 207.204C434.522 207.928 434.314 208.633 433.975 209.276C433.636 209.92 433.174 210.491 432.615 210.956C432.055 211.422 431.41 211.772 430.715 211.987C430.02 212.203 429.289 212.279 428.565 212.212L392.32 208.878C390.858 208.74 389.51 208.03 388.571 206.901C387.633 205.772 387.18 204.317 387.312 202.854C387.378 202.13 387.586 201.425 387.925 200.781C388.263 200.138 388.726 199.567 389.285 199.101C389.844 198.636 390.49 198.286 391.185 198.071C391.88 197.855 392.61 197.779 393.335 197.846L429.58 201.18C430.304 201.247 431.009 201.455 431.653 201.794C432.297 202.132 432.867 202.594 433.333 203.154C433.798 203.713 434.148 204.359 434.364 205.054C434.579 205.749 434.655 206.479 434.588 207.204Z" fill="#E76F51"/>
<path opacity="0.4" d="M422.239 222.163C422.173 222.887 421.964 223.592 421.626 224.236C421.287 224.88 420.825 225.451 420.265 225.916C419.706 226.381 419.06 226.731 418.365 226.947C417.671 227.162 416.94 227.238 416.216 227.171L390.884 224.838C390.159 224.772 389.455 224.564 388.811 224.225C388.167 223.887 387.596 223.424 387.131 222.865C386.666 222.306 386.315 221.66 386.1 220.965C385.884 220.27 385.808 219.54 385.875 218.815C385.941 218.091 386.15 217.386 386.488 216.742C386.827 216.098 387.289 215.528 387.849 215.062C388.408 214.597 389.054 214.247 389.749 214.032C390.443 213.816 391.174 213.74 391.898 213.807L417.23 216.153C418.69 216.29 420.036 216.999 420.974 218.125C421.912 219.251 422.367 220.703 422.239 222.163Z" fill="#E76F51"/>
<path d="M440.438 202.934L441.821 212.068L445.644 214.427L446.065 202.209L440.438 202.934Z" fill="#FFC3BD"/>
<path d="M478.436 152.89C484.249 153.918 492.394 170.577 492.394 170.577L477.751 183.757C477.751 183.757 466.1 171.052 466.719 163.486C467.26 157.094 471.055 151.572 478.436 152.89Z" fill="#264653"/>
<path d="M536.798 436.917C536.95 436.914 537.1 436.892 537.246 436.851C538.643 436.377 539.553 433.806 539.974 432.317C539.983 432.274 539.981 432.23 539.967 432.188C539.953 432.146 539.928 432.109 539.895 432.08C539.86 432.051 539.816 432.035 539.77 432.035C539.725 432.035 539.68 432.051 539.645 432.08C539.223 432.291 535.506 434.281 535.388 435.744C535.371 435.903 535.398 436.065 535.468 436.209C535.538 436.354 535.647 436.476 535.783 436.561C536.071 436.793 536.429 436.918 536.798 436.917ZM539.434 432.726C538.788 434.782 537.958 436.139 537.167 436.403C536.988 436.458 536.797 436.465 536.615 436.424C536.432 436.382 536.263 436.293 536.126 436.166C536.055 436.125 535.997 436.065 535.96 435.993C535.922 435.92 535.907 435.838 535.915 435.757C535.915 434.861 538.09 433.451 539.368 432.726H539.434Z" fill="#E76F51"/>
<path d="M536.215 433.307C537.481 433.301 538.729 433.008 539.866 432.45C539.898 432.428 539.925 432.399 539.943 432.365C539.962 432.33 539.971 432.292 539.971 432.252C539.973 432.212 539.962 432.171 539.941 432.136C539.92 432.101 539.889 432.073 539.853 432.055C539.734 431.989 536.795 430.368 535.213 430.934C535.014 430.993 534.832 431.097 534.681 431.239C534.529 431.381 534.414 431.557 534.343 431.752C534.245 431.936 534.212 432.149 534.25 432.355C534.288 432.561 534.396 432.748 534.554 432.885C535.045 433.207 535.63 433.355 536.215 433.307ZM539.233 432.252C537.981 432.793 535.543 433.122 534.857 432.542C534.739 432.437 534.62 432.279 534.778 431.923C534.825 431.792 534.902 431.674 535.003 431.578C535.104 431.482 535.225 431.41 535.358 431.369C536.426 430.987 538.403 431.844 539.233 432.305V432.252Z" fill="#E76F51"/>
<path d="M459.628 466.244C460.902 466.213 462.17 466.05 463.411 465.756C463.454 465.741 463.492 465.712 463.518 465.674C463.545 465.636 463.559 465.591 463.559 465.545C463.559 465.499 463.545 465.454 463.518 465.416C463.492 465.379 463.454 465.35 463.411 465.334C462.844 465.058 457.796 462.698 456.531 463.595C456.414 463.67 456.322 463.777 456.264 463.903C456.205 464.029 456.184 464.169 456.201 464.306C456.204 464.564 456.268 464.818 456.387 465.047C456.506 465.276 456.677 465.474 456.887 465.624C457.711 466.118 458.672 466.335 459.628 466.244ZM462.62 465.453C461.131 465.73 458.363 466.099 457.216 465.242C457.069 465.126 456.948 464.981 456.862 464.815C456.776 464.649 456.726 464.467 456.715 464.28C456.704 464.222 456.71 464.162 456.734 464.108C456.757 464.054 456.797 464.008 456.847 463.977C457.546 463.489 460.524 464.53 462.62 465.453Z" fill="#E76F51"/>
<path d="M463.357 465.769C463.409 465.785 463.464 465.785 463.515 465.769C463.548 465.741 463.572 465.703 463.584 465.661C463.595 465.619 463.594 465.574 463.581 465.532C463.581 465.321 462.395 460.352 459.627 460.669C458.942 460.761 458.744 461.091 458.718 461.367C458.546 462.685 461.723 465.176 463.238 465.809L463.357 465.769ZM459.904 461.064C461.657 461.064 462.672 463.964 463.014 465.124C461.367 464.254 459.06 462.184 459.205 461.381C459.205 461.315 459.205 461.13 459.719 461.077L459.904 461.064Z" fill="#E76F51"/>
<path d="M440.533 114.745L438.438 113.664C438.438 113.664 439.241 115.628 440.533 114.745Z" fill="#264653"/>
</svg>
