<svg width="60" height="60" viewBox="0 0 60 60" fill="none" xmlns="http://www.w3.org/2000/svg">
<path d="M30 60C25.85 60 21.95 59.2125 18.3 57.6375C14.65 56.0625 11.475 53.925 8.775 51.225C6.075 48.525 3.9375 45.35 2.3625 41.7C0.7875 38.05 0 34.15 0 30C0 25.85 0.7875 21.95 2.3625 18.3C3.9375 14.65 6.075 11.475 8.775 8.775C11.475 6.075 14.65 3.9375 18.3 2.3625C21.95 0.7875 25.85 0 30 0C34.15 0 38.05 0.7875 41.7 2.3625C45.35 3.9375 48.525 6.075 51.225 8.775C53.925 11.475 56.0625 14.65 57.6375 18.3C59.2125 21.95 60 25.85 60 30C60 34.15 59.2125 38.05 57.6375 41.7C56.0625 45.35 53.925 48.525 51.225 51.225C48.525 53.925 45.35 56.0625 41.7 57.6375C38.05 59.2125 34.15 60 30 60ZM30 55.5C37.1 55.5 43.125 53.025 48.075 48.075C53.025 43.125 55.5 37.1 55.5 30C55.5 26.95 54.975 24.025 53.925 21.225C52.875 18.425 51.4 15.875 49.5 13.575L13.575 49.5C15.825 51.45 18.3625 52.9375 21.1875 53.9625C24.0125 54.9875 26.95 55.5 30 55.5ZM10.575 46.425L46.425 10.575C44.125 8.625 41.575 7.125 38.775 6.075C35.975 5.025 33.05 4.5 30 4.5C22.9 4.5 16.875 6.975 11.925 11.925C6.975 16.875 4.5 22.9 4.5 30C4.5 33.05 5.05 35.9875 6.15 38.8125C7.25 41.6375 8.725 44.175 10.575 46.425Z" fill="#0354A6"/>
</svg>
