<svg width="60" height="60" viewBox="0 0 60 60" fill="none" xmlns="http://www.w3.org/2000/svg">
<path d="M39.45 42.825C39.9 43.275 40.425 43.5 41.025 43.5C41.625 43.5 42.175 43.25 42.675 42.75C43.175 42.25 43.4375 41.675 43.4625 41.025C43.4875 40.375 43.25 39.825 42.75 39.375L32.475 29.1V16.2C32.475 15.6 32.2625 15.0875 31.8375 14.6625C31.4125 14.2375 30.875 14.025 30.225 14.025C29.575 14.025 29.0375 14.2375 28.6125 14.6625C28.1875 15.0875 27.975 15.625 27.975 16.275V30C27.975 30.3 28.025 30.575 28.125 30.825C28.225 31.075 28.375 31.325 28.575 31.575L39.45 42.825ZM30 60C25.9 60 22.025 59.2125 18.375 57.6375C14.725 56.0625 11.5375 53.9125 8.8125 51.1875C6.0875 48.4625 3.9375 45.275 2.3625 41.625C0.7875 37.975 0 34.1 0 30C0 25.9 0.7875 22.025 2.3625 18.375C3.9375 14.725 6.0875 11.5375 8.8125 8.8125C11.5375 6.0875 14.725 3.9375 18.375 2.3625C22.025 0.7875 25.9 0 30 0C34.1 0 37.975 0.7875 41.625 2.3625C45.275 3.9375 48.4625 6.0875 51.1875 8.8125C53.9125 11.5375 56.0625 14.725 57.6375 18.375C59.2125 22.025 60 25.9 60 30C60 34.1 59.2125 37.975 57.6375 41.625C56.0625 45.275 53.9125 48.4625 51.1875 51.1875C48.4625 53.9125 45.275 56.0625 41.625 57.6375C37.975 59.2125 34.1 60 30 60ZM30 55.5C37 55.5 43 53 48 48C53 43 55.5 37 55.5 30C55.5 23 53 17 48 12C43 7 37 4.5 30 4.5C23 4.5 17 7 12 12C7 17 4.5 23 4.5 30C4.5 37 7 43 12 48C17 53 23 55.5 30 55.5Z" fill="#1890FF"/>
</svg>
