<svg width="60" height="48" viewBox="0 0 60 48" fill="none" xmlns="http://www.w3.org/2000/svg">
<path d="M4.5 48C3.3 48 2.25 47.55 1.35 46.65C0.45 45.75 0 44.7 0 43.5V4.5C0 3.3 0.45 2.25 1.35 1.35C2.25 0.449999 3.3 0 4.5 0H55.5C56.7 0 57.75 0.449999 58.65 1.35C59.55 2.25 60 3.3 60 4.5V43.5C60 44.7 59.55 45.75 58.65 46.65C57.75 47.55 56.7 48 55.5 48H4.5ZM55.5 8.625L31.2 24.525C31 24.625 30.8125 24.7125 30.6375 24.7875C30.4625 24.8625 30.25 24.9 30 24.9C29.75 24.9 29.5375 24.8625 29.3625 24.7875C29.1875 24.7125 29 24.625 28.8 24.525L4.5 8.625V43.5H55.5V8.625ZM30 20.85L55.2 4.5H4.875L30 20.85ZM4.5 8.625V9.15V6.1875V6.225V4.5V6.225V6.15V9.15V8.625V43.5V8.625Z" fill="#E9C46A"/>
</svg>
