<svg width="61" height="48" viewBox="0 0 61 48" fill="none" xmlns="http://www.w3.org/2000/svg">
<path d="M4.57031 48C3.37031 48 2.32031 47.5375 1.42031 46.6125C0.520312 45.6875 0.0703125 44.65 0.0703125 43.5V4.5C0.0703125 3.35 0.520312 2.3125 1.42031 1.3875C2.32031 0.4625 3.37031 0 4.57031 0H23.6953C24.2953 0 24.8828 0.125 25.4578 0.375C26.0328 0.625 26.5203 0.949999 26.9203 1.35L30.0703 4.5H55.5703C56.7203 4.5 57.7578 4.9625 58.6828 5.8875C59.6078 6.8125 60.0703 7.85 60.0703 9V43.5C60.0703 44.65 59.6078 45.6875 58.6828 46.6125C57.7578 47.5375 56.7203 48 55.5703 48H4.57031ZM4.57031 4.5V43.5H55.5703V9H28.1953L23.6953 4.5H4.57031ZM4.57031 4.5V43.5V4.5Z" fill="#52C41A"/>
</svg>