<svg width="72" height="36" viewBox="0 0 72 36" fill="none" xmlns="http://www.w3.org/2000/svg">
<path d="M2.25 36C1.6 36 1.0625 35.7875 0.6375 35.3625C0.2125 34.9375 0 34.4 0 33.75V32.025C0 30.075 1.0375 28.5 3.1125 27.3C5.1875 26.1 7.9 25.5 11.25 25.5C11.85 25.5 12.4375 25.5125 13.0125 25.5375C13.5875 25.5625 14.15 25.625 14.7 25.725C14.3 26.575 14 27.45 13.8 28.35C13.6 29.25 13.5 30.2 13.5 31.2V36H2.25ZM20.25 36C19.6 36 19.0625 35.7875 18.6375 35.3625C18.2125 34.9375 18 34.4 18 33.75V31.2C18 27.95 19.6625 25.3125 22.9875 23.2875C26.3125 21.2625 30.65 20.25 36 20.25C41.4 20.25 45.75 21.2625 49.05 23.2875C52.35 25.3125 54 27.95 54 31.2V33.75C54 34.4 53.7875 34.9375 53.3625 35.3625C52.9375 35.7875 52.4 36 51.75 36H20.25ZM58.5 36V31.2C58.5 30.2 58.4 29.25 58.2 28.35C58 27.45 57.7 26.575 57.3 25.725C57.85 25.625 58.4125 25.5625 58.9875 25.5375C59.5625 25.5125 60.15 25.5 60.75 25.5C64.1 25.5 66.8125 26.1 68.8875 27.3C70.9625 28.5 72 30.075 72 32.025V33.75C72 34.4 71.7875 34.9375 71.3625 35.3625C70.9375 35.7875 70.4 36 69.75 36H58.5ZM36 24.75C31.95 24.75 28.6875 25.3625 26.2125 26.5875C23.7375 27.8125 22.5 29.35 22.5 31.2V31.5H49.5V31.125C49.5 29.325 48.2625 27.8125 45.7875 26.5875C43.3125 25.3625 40.05 24.75 36 24.75ZM11.25 23.25C9.8 23.25 8.5625 22.7375 7.5375 21.7125C6.5125 20.6875 6 19.45 6 18C6 16.55 6.5125 15.3125 7.5375 14.2875C8.5625 13.2625 9.8 12.75 11.25 12.75C12.7 12.75 13.9375 13.2625 14.9625 14.2875C15.9875 15.3125 16.5 16.55 16.5 18C16.5 19.45 15.9875 20.6875 14.9625 21.7125C13.9375 22.7375 12.7 23.25 11.25 23.25ZM60.75 23.25C59.3 23.25 58.0625 22.7375 57.0375 21.7125C56.0125 20.6875 55.5 19.45 55.5 18C55.5 16.55 56.0125 15.3125 57.0375 14.2875C58.0625 13.2625 59.3 12.75 60.75 12.75C62.2 12.75 63.4375 13.2625 64.4625 14.2875C65.4875 15.3125 66 16.55 66 18C66 19.45 65.4875 20.6875 64.4625 21.7125C63.4375 22.7375 62.2 23.25 60.75 23.25ZM36 18C33.5 18 31.375 17.125 29.625 15.375C27.875 13.625 27 11.5 27 9C27 6.5 27.875 4.375 29.625 2.625C31.375 0.875 33.5 0 36 0C38.5 0 40.625 0.875 42.375 2.625C44.125 4.375 45 6.5 45 9C45 11.5 44.125 13.625 42.375 15.375C40.625 17.125 38.5 18 36 18ZM36 4.5C34.75 4.5 33.6875 4.925 32.8125 5.775C31.9375 6.625 31.5 7.7 31.5 9C31.5 10.25 31.9375 11.3125 32.8125 12.1875C33.6875 13.0625 34.75 13.5 36 13.5C37.3 13.5 38.375 13.0625 39.225 12.1875C40.075 11.3125 40.5 10.25 40.5 9C40.5 7.7 40.075 6.625 39.225 5.775C38.375 4.925 37.3 4.5 36 4.5Z" fill="#FAAD14"/>
</svg>
