<svg width="60" height="60" viewBox="0 0 60 60" fill="none" xmlns="http://www.w3.org/2000/svg">
<path d="M34.9469 60H25.0469C24.4969 60 24.0094 59.825 23.5844 59.475C23.1594 59.125 22.8969 58.675 22.7969 58.125L21.5969 50.55C20.6469 50.2 19.6469 49.725 18.5969 49.125C17.5469 48.525 16.6219 47.9 15.8219 47.25L8.84687 50.475C8.29687 50.725 7.74688 50.7625 7.19688 50.5875C6.64688 50.4125 6.22187 50.05 5.92187 49.5L0.971875 40.725C0.671875 40.225 0.596875 39.7 0.746875 39.15C0.896875 38.6 1.19687 38.15 1.64687 37.8L8.09687 33.075C7.99687 32.625 7.93437 32.1125 7.90937 31.5375C7.88437 30.9625 7.87188 30.45 7.87188 30C7.87188 29.55 7.88437 29.0375 7.90937 28.4625C7.93437 27.8875 7.99687 27.375 8.09687 26.925L1.64687 22.2C1.19687 21.85 0.896875 21.4 0.746875 20.85C0.596875 20.3 0.671875 19.775 0.971875 19.275L5.92187 10.5C6.22187 9.95 6.64688 9.5875 7.19688 9.4125C7.74688 9.2375 8.29687 9.275 8.84687 9.525L15.8219 12.75C16.6219 12.1 17.5469 11.475 18.5969 10.875C19.6469 10.275 20.6469 9.825 21.5969 9.525L22.7969 1.875C22.8969 1.325 23.1594 0.875 23.5844 0.525C24.0094 0.175 24.4969 0 25.0469 0H34.9469C35.4969 0 35.9844 0.175 36.4094 0.525C36.8344 0.875 37.0969 1.325 37.1969 1.875L38.3969 9.45C39.3469 9.8 40.3594 10.2625 41.4344 10.8375C42.5094 11.4125 43.4219 12.05 44.1719 12.75L51.1469 9.525C51.6969 9.275 52.2469 9.2375 52.7969 9.4125C53.3469 9.5875 53.7719 9.95 54.0719 10.5L59.0219 19.2C59.3219 19.7 59.4094 20.2375 59.2844 20.8125C59.1594 21.3875 58.8469 21.85 58.3469 22.2L51.8969 26.775C51.9969 27.275 52.0594 27.8125 52.0844 28.3875C52.1094 28.9625 52.1219 29.5 52.1219 30C52.1219 30.5 52.1094 31.025 52.0844 31.575C52.0594 32.125 51.9969 32.65 51.8969 33.15L58.3469 37.8C58.7969 38.15 59.0969 38.6 59.2469 39.15C59.3969 39.7 59.3219 40.225 59.0219 40.725L54.0719 49.5C53.7719 50.05 53.3469 50.4125 52.7969 50.5875C52.2469 50.7625 51.6969 50.725 51.1469 50.475L44.1719 47.25C43.3719 47.9 42.4594 48.5375 41.4344 49.1625C40.4094 49.7875 39.3969 50.25 38.3969 50.55L37.1969 58.125C37.0969 58.675 36.8344 59.125 36.4094 59.475C35.9844 59.825 35.4969 60 34.9469 60ZM29.9969 39.75C32.6969 39.75 34.9969 38.8 36.8969 36.9C38.7969 35 39.7469 32.7 39.7469 30C39.7469 27.3 38.7969 25 36.8969 23.1C34.9969 21.2 32.6969 20.25 29.9969 20.25C27.2969 20.25 24.9969 21.2 23.0969 23.1C21.1969 25 20.2469 27.3 20.2469 30C20.2469 32.7 21.1969 35 23.0969 36.9C24.9969 38.8 27.2969 39.75 29.9969 39.75ZM29.9969 35.25C28.5469 35.25 27.3094 34.7375 26.2844 33.7125C25.2594 32.6875 24.7469 31.45 24.7469 30C24.7469 28.55 25.2594 27.3125 26.2844 26.2875C27.3094 25.2625 28.5469 24.75 29.9969 24.75C31.4469 24.75 32.6844 25.2625 33.7094 26.2875C34.7344 27.3125 35.2469 28.55 35.2469 30C35.2469 31.45 34.7344 32.6875 33.7094 33.7125C32.6844 34.7375 31.4469 35.25 29.9969 35.25ZM26.6969 55.5H33.2969L34.3469 47.1C35.9969 46.7 37.5594 46.075 39.0344 45.225C40.5094 44.375 41.8469 43.35 43.0469 42.15L50.9969 45.6L53.9969 40.2L46.9469 35.025C47.1469 34.175 47.3094 33.3375 47.4344 32.5125C47.5594 31.6875 47.6219 30.85 47.6219 30C47.6219 29.15 47.5719 28.3125 47.4719 27.4875C47.3719 26.6625 47.1969 25.825 46.9469 24.975L53.9969 19.8L50.9969 14.4L43.0469 17.85C41.8969 16.55 40.5969 15.4625 39.1469 14.5875C37.6969 13.7125 36.0969 13.15 34.3469 12.9L33.2969 4.5H26.6969L25.6469 12.9C23.9469 13.25 22.3594 13.85 20.8844 14.7C19.4094 15.55 18.0969 16.6 16.9469 17.85L8.99688 14.4L5.99687 19.8L13.0469 24.975C12.8469 25.825 12.6844 26.6625 12.5594 27.4875C12.4344 28.3125 12.3719 29.15 12.3719 30C12.3719 30.85 12.4344 31.6875 12.5594 32.5125C12.6844 33.3375 12.8469 34.175 13.0469 35.025L5.99687 40.2L8.99688 45.6L16.9469 42.15C18.1469 43.35 19.4844 44.375 20.9594 45.225C22.4344 46.075 23.9969 46.7 25.6469 47.1L26.6969 55.5Z" fill="#E76F51"/>
</svg>
