<svg width="72" height="72" viewBox="0 0 72 72" fill="none" xmlns="http://www.w3.org/2000/svg">
<path d="M32.6331 41.6602C32.6331 40.1068 31.3739 38.8477 29.8206 38.8477H14.8828C13.3295 38.8477 12.0703 40.1068 12.0703 41.6602C12.0703 43.2135 13.3295 44.4727 14.8828 44.4727H29.8206C31.3739 44.4727 32.6331 43.2135 32.6331 41.6602Z" fill="#2A9D8F"/>
<path d="M14.8828 51.0156C13.3295 51.0156 12.0703 52.2748 12.0703 53.8281C12.0703 55.3815 13.3295 56.6406 14.8828 56.6406H26.8718C28.4251 56.6406 29.6843 55.3815 29.6843 53.8281C29.6843 52.2748 28.4251 51.0156 26.8718 51.0156H14.8828Z" fill="#2A9D8F"/>
<path d="M43.9936 29.4922C43.9936 27.9388 42.7344 26.6797 41.1811 26.6797H14.8828C13.3295 26.6797 12.0703 27.9388 12.0703 29.4922C12.0703 31.0455 13.3295 32.3047 14.8828 32.3047H41.1811C42.7344 32.3047 43.9936 31.0455 43.9936 29.4922Z" fill="#2A9D8F"/>
<path d="M31.7003 66.375H11.5938C8.49212 66.375 5.96875 63.8516 5.96875 60.75V18.0669C5.96875 14.9653 8.49212 12.4419 11.5938 12.4419H17.9472V14.1529C17.9472 15.7063 19.2063 16.9654 20.7597 16.9654H35.2986C36.852 16.9654 38.1111 15.7063 38.1111 14.1529V12.4419H44.4646C47.5662 12.4419 50.0896 14.9653 50.0896 18.0669V27.2282C50.0896 28.7816 51.3487 30.0407 52.9021 30.0407C54.4554 30.0407 55.7146 28.7816 55.7146 27.2282V18.0669C55.7146 11.8637 50.6678 6.81694 44.4646 6.81694H38.1111V2.8125C38.1111 1.25916 36.852 0 35.2986 0H20.7597C19.2063 0 17.9472 1.25916 17.9472 2.8125V6.81694H11.5938C5.3905 6.81694 0.34375 11.8637 0.34375 18.0669V60.75C0.34375 66.9532 5.3905 72 11.5938 72H31.7003C33.2535 72 34.5128 70.7408 34.5128 69.1875C34.5128 67.6342 33.2535 66.375 31.7003 66.375ZM23.5722 5.625H32.4861V11.3404H23.5722V5.625Z" fill="#2A9D8F"/>
<path d="M53.4782 35.6523C43.4573 35.6523 35.3047 43.8049 35.3047 53.8259C35.3047 63.8468 43.4573 71.9994 53.4782 71.9994C63.4992 71.9994 71.6517 63.8468 71.6517 53.8259C71.6517 43.8049 63.4992 35.6523 53.4782 35.6523ZM53.4782 66.3744C46.5589 66.3744 40.9297 60.7452 40.9297 53.8259C40.9297 46.9066 46.5589 41.2773 53.4782 41.2773C60.3975 41.2773 66.0267 46.9066 66.0267 53.8259C66.0267 60.7452 60.3975 66.3744 53.4782 66.3744Z" fill="#2A9D8F"/>
<path d="M57.119 52.123H55.7422V49.0703C55.7422 47.517 54.483 46.2578 52.9297 46.2578C51.3763 46.2578 50.1172 47.517 50.1172 49.0703V54.9355C50.1172 56.4888 51.3763 57.748 52.9297 57.748H57.119C58.6724 57.748 59.9315 56.4888 59.9315 54.9355C59.9315 53.3822 58.6724 52.123 57.119 52.123Z" fill="#2A9D8F"/>
</svg>
