<svg width="16" height="16" viewBox="0 0 16 16" fill="none" xmlns="http://www.w3.org/2000/svg">
<path d="M4.89597 0.000614081C4.71561 0.00906823 4.55167 0.108378 4.46061 0.264243C4.39013 0.387007 4.3712 0.532637 4.40822 0.66921C4.44513 0.805789 4.53477 0.922124 4.6574 0.992481L12.6868 5.62894L11.8701 5.84768C11.7331 5.88412 11.6162 5.97354 11.5452 6.09631C11.4743 6.21907 11.4551 6.36506 11.492 6.50201C11.5284 6.63882 11.6177 6.75563 11.7402 6.82659C11.8627 6.89744 12.0084 6.91685 12.1451 6.88029L14.2045 6.3291C14.215 6.32588 14.2255 6.32243 14.2358 6.31874C14.2456 6.31552 14.2554 6.31207 14.265 6.30826C14.273 6.30505 14.2811 6.30159 14.2889 6.2979C14.3024 6.29183 14.3156 6.28528 14.3285 6.27813C14.3417 6.27063 14.3545 6.26265 14.367 6.25408C14.3795 6.24598 14.3918 6.23729 14.4036 6.22812C14.455 6.18704 14.4985 6.13691 14.5317 6.08011C14.6018 5.95711 14.6201 5.81136 14.5828 5.67478L14.5766 5.64978C14.5762 5.64906 14.5757 5.64835 14.5754 5.64763L14.0317 3.6149C14.0016 3.50119 13.9346 3.40045 13.8413 3.32865C13.7481 3.25685 13.6337 3.21791 13.5159 3.21803C13.4692 3.21851 13.4226 3.22518 13.3775 3.2378C13.2408 3.27435 13.1244 3.36378 13.0537 3.4863C12.983 3.60883 12.9638 3.75446 13.0003 3.89103L13.2181 4.70681L5.18869 0.0712653C5.11309 0.0276838 5.02797 0.00351096 4.94071 0.000535822C4.92583 -0.000178607 4.91085 -0.000100349 4.89597 0.000614081ZM0.500008 3.50555C0.364054 3.51412 0.236552 3.57437 0.143583 3.67392C0.0506044 3.77346 -0.000825049 3.90492 1.00122e-05 4.04115V15.4686C0.000605253 15.6101 0.0572726 15.7456 0.157751 15.8451C0.258111 15.9448 0.393946 16.0005 0.53551 15.9999H3.80627C3.94711 15.9997 4.08223 15.9436 4.18186 15.8441C4.28163 15.7445 4.33794 15.6095 4.33853 15.4686V4.04117C4.33901 3.89947 4.28329 3.76349 4.18341 3.663C4.08353 3.5625 3.94781 3.50594 3.80626 3.50558H0.535504C0.523599 3.50522 0.511795 3.50519 0.500008 3.50555ZM1.06669 4.57245H3.27089V14.9373H1.06669V4.57245ZM6.36568 5.43835C6.22425 5.43883 6.08889 5.49563 5.98923 5.59601C5.88958 5.69651 5.83387 5.83237 5.83446 5.97384V15.4687C5.83494 15.6094 5.89113 15.7442 5.99066 15.8438C6.09018 15.9433 6.22495 15.9995 6.36567 16H9.63765C9.77837 15.9995 9.91313 15.9433 10.0127 15.8438C10.1122 15.7442 10.1684 15.6094 10.169 15.4687V5.97384C10.1695 5.83238 10.1137 5.69652 10.0142 5.59601C9.91457 5.49563 9.77909 5.43883 9.63768 5.43835H6.36568ZM6.90103 6.50632H9.10215V14.9373H6.90103V6.50632ZM12.1698 7.4669C12.0338 7.47405 11.9054 7.53323 11.8115 7.63194C11.7176 7.73077 11.6651 7.86187 11.6647 7.99822V15.4687C11.6652 15.6096 11.7215 15.7446 11.8213 15.8441C11.921 15.9437 12.056 15.9997 12.197 16H15.4677C15.6086 15.9997 15.7437 15.9437 15.8435 15.8441C15.9431 15.7446 15.9994 15.6095 16 15.4687V7.99822C15.9994 7.85736 15.9431 7.72233 15.8435 7.6228C15.7437 7.52325 15.6086 7.46716 15.4677 7.46693H12.197C12.1879 7.46669 12.1789 7.46666 12.1698 7.4669ZM12.7323 8.53381H14.9365V14.9374H12.7323V8.53381Z" fill="#FDCA64"/>
</svg>
