<svg width="31" height="29" viewBox="0 0 31 29" fill="none" xmlns="http://www.w3.org/2000/svg">
<path d="M13.359 0.000860334C13.0898 0.0134756 12.8452 0.161665 12.7093 0.394246C12.6042 0.577435 12.5759 0.794742 12.6312 0.998536C12.6862 1.20234 12.82 1.37593 13.003 1.48092L24.9844 8.39943L23.7658 8.72583C23.5613 8.7802 23.3868 8.91364 23.281 9.09683C23.1751 9.28002 23.1465 9.49786 23.2016 9.70221C23.2559 9.90637 23.3892 10.0807 23.572 10.1866C23.7548 10.2923 23.9722 10.3212 24.1761 10.2667L27.2492 9.4442C27.2648 9.4394 27.2805 9.43425 27.2959 9.42874C27.3105 9.42394 27.325 9.41879 27.3394 9.4131C27.3513 9.40831 27.3634 9.40315 27.3751 9.39764C27.3952 9.38858 27.4149 9.37881 27.4341 9.36815C27.4538 9.35696 27.473 9.34505 27.4917 9.33226C27.5103 9.32018 27.5286 9.3072 27.5462 9.29352C27.623 9.23222 27.6878 9.15742 27.7374 9.07266C27.842 8.88912 27.8693 8.67163 27.8136 8.46783L27.8043 8.43051C27.8038 8.42945 27.8031 8.42838 27.8026 8.42732L26.9912 5.39409C26.9463 5.2244 26.8465 5.07408 26.7072 4.96694C26.5681 4.8598 26.3974 4.8017 26.2217 4.80188C26.1519 4.80259 26.0824 4.81254 26.0151 4.83137C25.8111 4.88592 25.6374 5.01936 25.5319 5.20219C25.4264 5.38503 25.3978 5.60233 25.4523 5.80612L25.7772 7.02343L13.7958 0.106286C13.683 0.0412537 13.556 0.00518305 13.4257 0.000743557C13.4035 -0.000322512 13.3812 -0.000205735 13.359 0.000860334Z" fill="#FDCA64"/>
<path fill-rule="evenodd" clip-rule="evenodd" d="M3.93246 3.43937H0.711403C0.319674 3.43937 0 3.75906 0 4.15078V27.5552C0 27.947 0.31968 28.2667 0.711403 28.2667H3.93246C4.32419 28.2667 4.64387 27.947 4.64387 27.5552L4.6436 4.15009C4.6436 3.7581 4.32419 3.43896 3.93247 3.43896L3.93246 3.43937ZM12.5542 13.79H9.33309C8.94136 13.79 8.62169 14.1097 8.62169 14.5015V27.5552C8.62169 27.947 8.94137 28.2667 9.33309 28.2667H12.5542C12.9459 28.2667 13.2656 27.947 13.2656 27.5552V14.5015C13.2653 14.1097 12.9459 13.79 12.5542 13.79ZM21.1765 10.2685H17.9559C17.5642 10.2685 17.2445 10.5882 17.2445 10.9799V27.5552C17.2445 27.9469 17.5642 28.2666 17.9559 28.2666H21.1765C21.5683 28.2666 21.8879 27.9469 21.8879 27.5552L21.8877 10.9799C21.8877 10.5876 21.5682 10.2679 21.1765 10.2679L21.1765 10.2685ZM29.7982 17.7924H26.5776C26.1859 17.7924 25.8662 18.1121 25.8662 18.5038V27.5559C25.8662 27.9476 26.1859 28.2673 26.5776 28.2673H29.7982C30.1899 28.2673 30.5096 27.9476 30.5096 27.5559L30.5094 18.5038C30.5099 18.1121 30.1902 17.7927 29.7982 17.7927L29.7982 17.7924Z" fill="#FDCA64"/>
</svg>
