<svg width="18" height="19" viewBox="0 0 18 19" fill="none" xmlns="http://www.w3.org/2000/svg">
<path d="M8.28828 0C5.43064 0 3.09951 2.33911 3.09951 5.19674C3.09951 6.94359 3.97361 8.49131 5.30386 9.43276C2.20111 10.676 0 13.7097 0 17.2495C0.00474769 17.4634 0.0930608 17.6669 0.246031 17.8165C0.399 17.9662 0.604467 18.05 0.818438 18.05C1.03241 18.05 1.23788 17.9662 1.39085 17.8165C1.54382 17.6669 1.63213 17.4634 1.63688 17.2495C1.63688 13.4928 4.66587 10.4654 8.42256 10.4654C9.73391 10.4654 10.9512 10.8392 11.9872 11.4805C12.079 11.5375 12.1811 11.5757 12.2876 11.5932C12.3942 11.6107 12.5032 11.607 12.6083 11.5823C12.7134 11.5576 12.8126 11.5124 12.9003 11.4492C12.9879 11.3861 13.0622 11.3064 13.119 11.2146C13.1758 11.1227 13.2139 11.0205 13.2311 10.9139C13.2483 10.8073 13.2443 10.6983 13.2194 10.5932C13.1944 10.4882 13.149 10.389 13.0857 10.3015C13.0224 10.214 12.9424 10.1399 12.8504 10.0834C12.3836 9.79445 11.8768 9.56827 11.3542 9.37367C12.6416 8.42739 13.485 6.90873 13.485 5.19674C13.485 2.33911 11.1459 0 8.28828 0ZM8.28828 1.63841C10.2613 1.63841 11.8482 3.22373 11.8482 5.19674C11.8482 7.16974 10.2613 8.74864 8.28828 8.74864C6.31528 8.74864 4.73639 7.16974 4.73639 5.19674C4.73639 3.22373 6.31528 1.63841 8.28828 1.63841ZM16.5718 11.4613C16.4387 11.4652 16.3087 11.5013 16.1928 11.5668C16.0769 11.6322 15.9787 11.725 15.9068 11.8369L13.0854 16.065L11.3159 14.8805C11.2261 14.8202 11.1254 14.7782 11.0194 14.7568C10.9134 14.7355 10.8042 14.7353 10.6981 14.7563C10.5921 14.7772 10.4912 14.819 10.4012 14.879C10.3113 14.939 10.2341 15.0162 10.174 15.1061C10.114 15.196 10.0723 15.2969 10.0513 15.4029C10.0303 15.509 10.0304 15.6182 10.0517 15.7243C10.073 15.8303 10.115 15.931 10.1753 16.0208C10.2356 16.1105 10.313 16.1875 10.4031 16.2472L12.8632 17.8841C12.9528 17.9436 13.0533 17.9848 13.1589 18.0054C13.2644 18.0261 13.373 18.0256 13.4784 18.0042C13.5838 17.9828 13.6839 17.9409 13.7731 17.8808C13.8623 17.8207 13.9388 17.7437 13.9982 17.654L17.2735 12.7418C17.3589 12.617 17.4081 12.4709 17.4156 12.3199C17.4231 12.1689 17.3885 12.0187 17.3159 11.886C17.2432 11.7534 17.1352 11.6435 17.0038 11.5686C16.8725 11.4936 16.7229 11.4565 16.5718 11.4613Z" fill="#A0ACBB"/>
</svg>
