<svg width="24" height="25" viewBox="0 0 24 25" fill="none" xmlns="http://www.w3.org/2000/svg">
<path d="M12 19.5C11.7833 19.5 11.6042 19.4292 11.4625 19.2875C11.3208 19.1458 11.25 18.9667 11.25 18.75V13.25H5.75C5.53333 13.25 5.35417 13.1792 5.2125 13.0375C5.07083 12.8958 5 12.7167 5 12.5C5 12.2833 5.07083 12.1042 5.2125 11.9625C5.35417 11.8208 5.53333 11.75 5.75 11.75H11.25V6.25C11.25 6.03333 11.3208 5.85417 11.4625 5.7125C11.6042 5.57083 11.7833 5.5 12 5.5C12.2167 5.5 12.3958 5.57083 12.5375 5.7125C12.6792 5.85417 12.75 6.03333 12.75 6.25V11.75H18.25C18.4667 11.75 18.6458 11.8208 18.7875 11.9625C18.9292 12.1042 19 12.2833 19 12.5C19 12.7167 18.9292 12.8958 18.7875 13.0375C18.6458 13.1792 18.4667 13.25 18.25 13.25H12.75V18.75C12.75 18.9667 12.6792 19.1458 12.5375 19.2875C12.3958 19.4292 12.2167 19.5 12 19.5Z" fill="#F4A261"/>
<rect x="0.5" y="1" width="23" height="23" rx="1.5" stroke="#F4A261" stroke-dasharray="2 2"/>
</svg>
