<svg width="18" height="19" viewBox="0 0 18 19" fill="none" xmlns="http://www.w3.org/2000/svg">
<path d="M8.29479 0C5.435 0 3.09572 2.34096 3.09572 5.20074C3.09572 6.94937 3.97293 8.49786 5.30652 9.43995C2.20217 10.6845 0.000270324 13.7207 0.000270324 17.2626C-0.0245133 18.3792 1.66316 18.3792 1.63838 17.2626C1.63838 13.5031 4.66965 10.4734 8.42916 10.4734C9.7415 10.4734 10.9597 10.8474 11.9965 11.4891C12.9286 12.0608 13.7861 10.6627 12.854 10.091C12.3871 9.80223 11.8813 9.57698 11.3598 9.38232C12.6472 8.4354 13.4891 6.91461 13.4891 5.20074C13.4891 2.34096 11.1546 0 8.29479 0ZM8.29479 1.63974C10.2693 1.63974 11.851 3.22625 11.851 5.20074C11.851 7.17523 10.2693 8.75522 8.29479 8.75522C6.3203 8.75522 4.73382 7.17523 4.73382 5.20074C4.73382 3.22625 6.3203 1.63974 8.29479 1.63974ZM13.3195 15.5764V17.2146C13.3432 18.2826 14.9339 18.2826 14.9576 17.2146V15.5764H16.5973C17.6904 15.5764 17.6904 13.9368 16.5973 13.9368H14.9576V12.2987C14.9629 11.8394 14.5898 11.4655 14.1305 11.47C13.6776 11.473 13.3142 11.8457 13.3195 12.2987V13.9368H11.6422C10.5099 13.9891 10.5882 15.6287 11.6814 15.5764H13.3195Z" fill="#3B4D60"/>
</svg>
