<svg width="24" height="24" viewBox="0 0 24 24" fill="none" xmlns="http://www.w3.org/2000/svg">
<path d="M13.4238 14.7998C12.9836 14.4927 12.5132 14.2424 12.0212 14.0513C12.6757 13.4564 13.1098 12.6231 13.1854 11.6903C14.1778 10.7232 15.4788 10.1931 16.8734 10.1931C17.9621 10.1931 19.0075 10.5209 19.8967 11.141C20.2153 11.3633 20.6534 11.2853 20.8757 10.9666C21.0977 10.6481 21.0197 10.2098 20.7012 9.98775C20.261 9.68064 19.7905 9.43053 19.2985 9.23921C20.0207 8.58283 20.4747 7.63638 20.4747 6.58596C20.4747 4.60859 18.8661 3 16.8888 3C14.9115 3 13.303 4.60859 13.303 6.58596C13.303 7.63213 13.7533 8.57514 14.4705 9.23124C14.3723 9.26901 14.2747 9.30898 14.178 9.35156C13.7379 9.54522 13.3242 9.78337 12.9395 10.063C12.409 8.7449 11.1172 7.81205 9.61151 7.81205C7.63428 7.81205 6.02554 9.42064 6.02554 11.3979C6.02554 12.4412 6.47343 13.3816 7.1868 14.0374C5.27948 14.752 3.73297 16.2868 3.10337 18.2443C2.89461 18.8934 3.00517 19.5818 3.40677 20.1329C3.80837 20.684 4.42972 21 5.11151 21H11.2288C11.617 21 11.9318 20.6852 11.9318 20.2968C11.9318 19.9085 11.617 19.5937 11.2288 19.5937H5.11151C4.8842 19.5937 4.67708 19.4884 4.54317 19.3046C4.40926 19.1208 4.37245 18.8913 4.44195 18.6749C5.13692 16.5141 7.25644 15.0051 9.59612 15.0051C10.6847 15.0051 11.7302 15.333 12.6194 15.9531C12.9379 16.1753 13.3762 16.0972 13.5984 15.7787C13.8205 15.4602 13.7425 15.0219 13.4238 14.7998ZM16.8888 4.40628C18.0907 4.40628 19.0685 5.38405 19.0685 6.58596C19.0685 7.78774 18.0907 8.76564 16.8888 8.76564C15.687 8.76564 14.7091 7.78774 14.7091 6.58596C14.7091 5.38405 15.687 4.40628 16.8888 4.40628ZM9.61151 9.2182C10.8134 9.2182 11.7912 10.1961 11.7912 11.3979C11.7912 12.5998 10.8134 13.5776 9.61151 13.5776C8.40959 13.5776 7.43183 12.5998 7.43183 11.3979C7.43183 10.1961 8.40959 9.2182 9.61151 9.2182ZM21.0021 17.6602C21.0021 18.0484 20.6874 18.3632 20.2989 18.3632H18.3654V20.2968C18.3654 20.6852 18.0506 21 17.6623 21C17.2739 21 16.9591 20.6852 16.9591 20.2968V18.3632H15.0255C14.6373 18.3632 14.3225 18.0484 14.3225 17.6602C14.3225 17.2717 14.6373 16.9569 15.0255 16.9569H16.9591V15.0234C16.9591 14.6351 17.2739 14.3203 17.6623 14.3203C18.0506 14.3203 18.3654 14.6351 18.3654 15.0234V16.9569H20.2989C20.6874 16.9569 21.0021 17.2717 21.0021 17.6602Z" fill="#3B4D60"/>
</svg>
