<svg width="20" height="20" viewBox="0 0 20 20" fill="none" xmlns="http://www.w3.org/2000/svg">
<g clip-path="url(#clip0_1702_82788)">
<path d="M16.1107 17.7782H3.88845V12.2227H2.77734V17.7782C2.77734 18.0729 2.89441 18.3555 3.10278 18.5639C3.31115 18.7723 3.59377 18.8893 3.88845 18.8893H16.1107C16.4054 18.8893 16.688 18.7723 16.8964 18.5639C17.1047 18.3555 17.2218 18.0729 17.2218 17.7782V12.2227H16.1107V17.7782Z" fill="#A0ACBB"/>
<path d="M7.77734 13.3329C7.77734 13.4802 7.83588 13.6215 7.94006 13.7257C8.04425 13.8299 8.18556 13.8885 8.3329 13.8885H11.6662C11.8136 13.8885 11.9549 13.8299 12.0591 13.7257C12.1633 13.6215 12.2218 13.4802 12.2218 13.3329C12.2218 13.1856 12.1633 13.0442 12.0591 12.9401C11.9549 12.8359 11.8136 12.7773 11.6662 12.7773H8.3329C8.18556 12.7773 8.04425 12.8359 7.94006 12.9401C7.83588 13.0442 7.77734 13.1856 7.77734 13.3329Z" fill="#A0ACBB"/>
<path d="M7.77821 10.0003H3.33377V7.7781H5.55599C5.31554 7.48487 5.18228 7.1184 5.17821 6.73921C5.17821 6.73921 5.17821 6.68921 5.17821 6.66699H3.05599C2.83498 6.66699 2.62301 6.75479 2.46673 6.91107C2.31045 7.06735 2.22266 7.27931 2.22266 7.50033V11.1114H8.88932L7.77821 10.0003Z" fill="#A0ACBB"/>
<path d="M16.9447 6.66699H14.8113V6.73921C14.8104 7.11706 14.6811 7.48338 14.4447 7.7781H16.6669V10.0003H12.2224L11.1113 11.1114H17.778V7.50033C17.778 7.27931 17.6902 7.06735 17.5339 6.91107C17.3776 6.75479 17.1657 6.66699 16.9447 6.66699Z" fill="#A0ACBB"/>
<path d="M9.99973 10.6558L13.5442 7.12799C13.6085 7.08113 13.6619 7.02099 13.701 6.95167C13.74 6.88234 13.7637 6.80544 13.7705 6.72616C13.7772 6.64689 13.7668 6.56709 13.7401 6.49217C13.7133 6.41724 13.6708 6.34894 13.6153 6.29188C13.5599 6.23483 13.4928 6.19034 13.4187 6.16145C13.3445 6.13255 13.2651 6.11992 13.1856 6.12439C13.1062 6.12887 13.0287 6.15036 12.9582 6.1874C12.8878 6.22444 12.8262 6.27618 12.7775 6.33911L10.5553 8.53355V1.66688C10.5553 1.51954 10.4968 1.37823 10.3926 1.27405C10.2884 1.16986 10.1471 1.11133 9.99973 1.11133C9.85238 1.11133 9.71108 1.16986 9.60689 1.27405C9.5027 1.37823 9.44417 1.51954 9.44417 1.66688V8.55577L7.22195 6.36133C7.11734 6.25745 6.97574 6.19939 6.82832 6.19991C6.68089 6.20043 6.53971 6.25949 6.43584 6.36411C6.33196 6.46872 6.2739 6.61031 6.27442 6.75774C6.27494 6.90516 6.334 7.04634 6.43862 7.15022L9.99973 10.6558Z" fill="#A0ACBB"/>
</g>
<defs>
<clipPath id="clip0_1702_82788">
<rect width="20" height="20" fill="white"/>
</clipPath>
</defs>
</svg>
