<svg width="36" height="36" viewBox="0 0 36 36" fill="none" xmlns="http://www.w3.org/2000/svg">
<g clip-path="url(#clip0_8_221290)">
<path d="M29 32H7V22H5V32C5 32.5304 5.21071 33.0391 5.58579 33.4142C5.96086 33.7893 6.46957 34 7 34H29C29.5304 34 30.0391 33.7893 30.4142 33.4142C30.7893 33.0391 31 32.5304 31 32V22H29V32Z" fill="#E9C46A"/>
<path d="M14 24C14 24.2652 14.1054 24.5196 14.2929 24.7071C14.4804 24.8946 14.7348 25 15 25H21C21.2652 25 21.5196 24.8946 21.7071 24.7071C21.8946 24.5196 22 24.2652 22 24C22 23.7348 21.8946 23.4804 21.7071 23.2929C21.5196 23.1054 21.2652 23 21 23H15C14.7348 23 14.4804 23.1054 14.2929 23.2929C14.1054 23.4804 14 23.7348 14 24Z" fill="#E9C46A"/>
<path d="M14 18H6V14H10C9.5672 13.4722 9.32733 12.8125 9.32 12.13C9.32 12.13 9.32 12.04 9.32 12H5.5C5.10218 12 4.72064 12.158 4.43934 12.4393C4.15804 12.7206 4 13.1022 4 13.5V20H16L14 18Z" fill="#E9C46A"/>
<path d="M30.5 12H26.66V12.13C26.6583 12.8101 26.4256 13.4695 26 14H30V18H22L20 20H32V13.5C32 13.1022 31.842 12.7206 31.5607 12.4393C31.2794 12.158 30.8978 12 30.5 12Z" fill="#E9C46A"/>
<path d="M18.0024 19.18L24.3824 12.83C24.4982 12.7456 24.5944 12.6374 24.6647 12.5126C24.735 12.3878 24.7776 12.2494 24.7897 12.1067C24.8019 11.964 24.7832 11.8204 24.7351 11.6855C24.6869 11.5506 24.6103 11.4277 24.5105 11.325C24.4107 11.2223 24.29 11.1422 24.1565 11.0902C24.0231 11.0382 23.8801 11.0155 23.7371 11.0235C23.5941 11.0316 23.4545 11.0703 23.3278 11.1369C23.201 11.2036 23.0901 11.2967 23.0024 11.41L19.0024 15.36V3C19.0024 2.73478 18.8971 2.48043 18.7095 2.29289C18.522 2.10536 18.2677 2 18.0024 2C17.7372 2 17.4829 2.10536 17.2953 2.29289C17.1078 2.48043 17.0024 2.73478 17.0024 3V15.4L13.0024 11.45C12.8141 11.263 12.5593 11.1585 12.2939 11.1594C12.0285 11.1604 11.7744 11.2667 11.5874 11.455C11.4005 11.6433 11.2959 11.8982 11.2969 12.1635C11.2978 12.4289 11.4041 12.683 11.5924 12.87L18.0024 19.18Z" fill="#E9C46A"/>
</g>
<defs>
<clipPath id="clip0_8_221290">
<rect width="36" height="36" fill="white"/>
</clipPath>
</defs>
</svg>
