<svg width="22" height="22" viewBox="0 0 22 22" fill="none" xmlns="http://www.w3.org/2000/svg">
<g clip-path="url(#clip0_5537_53212)">
<path d="M17.5731 19.3892H4.24307V13.3301H3.03125V19.3892C3.03125 19.7106 3.15892 20.0188 3.38618 20.2461C3.61344 20.4733 3.92167 20.601 4.24307 20.601H17.5731C17.8945 20.601 18.2027 20.4733 18.43 20.2461C18.6572 20.0188 18.7849 19.7106 18.7849 19.3892V13.3301H17.5731V19.3892Z" fill="white"/>
<path d="M8.48438 14.5415C8.48438 14.7022 8.54821 14.8563 8.66184 14.9699C8.77547 15.0835 8.92959 15.1474 9.09028 15.1474H12.7257C12.8864 15.1474 13.0406 15.0835 13.1542 14.9699C13.2678 14.8563 13.3316 14.7022 13.3316 14.5415C13.3316 14.3808 13.2678 14.2266 13.1542 14.113C13.0406 13.9994 12.8864 13.9355 12.7257 13.9355H9.09028C8.92959 13.9355 8.77547 13.9994 8.66184 14.113C8.54821 14.2266 8.48438 14.3808 8.48438 14.5415Z" fill="white"/>
<path d="M8.48097 10.9069H3.63369V8.4833H6.05733C5.79509 8.16349 5.64975 7.76381 5.64531 7.35025C5.64531 7.35025 5.64531 7.29572 5.64531 7.27148H3.33074C3.08969 7.27148 2.85852 7.36724 2.68807 7.53768C2.51763 7.70813 2.42188 7.9393 2.42188 8.18035V12.1188H9.69278L8.48097 10.9069Z" fill="white"/>
<path d="M18.4792 7.27148H16.1525V7.35025C16.1515 7.76235 16.0105 8.16187 15.7526 8.4833H18.1763V10.9069H13.329L12.1172 12.1188H19.3881V8.18035C19.3881 7.9393 19.2923 7.70813 19.1219 7.53768C18.9515 7.36724 18.7203 7.27148 18.4792 7.27148Z" fill="white"/>
<path d="M10.9067 11.6205L14.7724 7.77293C14.8425 7.72182 14.9009 7.65623 14.9434 7.58063C14.986 7.50502 15.0118 7.42114 15.0192 7.33468C15.0266 7.24822 15.0153 7.16119 14.9861 7.07947C14.9569 6.99776 14.9105 6.92327 14.85 6.86104C14.7895 6.79881 14.7164 6.7503 14.6355 6.71878C14.5547 6.68727 14.468 6.67349 14.3814 6.67837C14.2947 6.68325 14.2102 6.70669 14.1334 6.74709C14.0566 6.78749 13.9894 6.84391 13.9363 6.91254L11.5126 9.30588V1.81685C11.5126 1.65615 11.4488 1.50203 11.3352 1.3884C11.2215 1.27477 11.0674 1.21094 10.9067 1.21094C10.746 1.21094 10.5919 1.27477 10.4783 1.3884C10.3646 1.50203 10.3008 1.65615 10.3008 1.81685V9.33012L7.87717 6.93678C7.76307 6.82349 7.60864 6.76016 7.44786 6.76073C7.28707 6.7613 7.1331 6.82571 7.0198 6.93981C6.90651 7.0539 6.84319 7.20833 6.84375 7.36912C6.84432 7.5299 6.90874 7.68388 7.02283 7.79717L10.9067 11.6205Z" fill="white"/>
</g>
<defs>
<clipPath id="clip0_5537_53212">
<rect width="21.8127" height="21.8127" fill="white"/>
</clipPath>
</defs>
</svg>
