<svg width="24" height="24" viewBox="0 0 24 24" fill="none" xmlns="http://www.w3.org/2000/svg">
<path d="M11.7437 4C9.07391 4 6.89004 6.18543 6.89004 8.85521C6.89004 10.4877 7.70898 11.9333 8.95397 12.8128C6.05587 13.9746 4.00025 16.8091 4.00025 20.1157C3.97712 21.1581 5.55266 21.1581 5.52953 20.1157C5.52953 16.6059 8.35941 13.7775 11.8691 13.7775C13.0943 13.7775 14.2315 14.1267 15.1995 14.7258C16.0697 15.2595 16.8702 13.9543 16 13.4206C15.5642 13.151 15.0919 12.9407 14.6051 12.759C15.8069 11.875 16.5929 10.4552 16.5929 8.85521C16.5929 6.18543 14.4135 4 11.7437 4ZM11.7437 5.5308C13.587 5.5308 15.0636 7.01191 15.0636 8.85521C15.0636 10.6985 13.587 12.1735 11.7437 12.1735C9.90039 12.1735 8.41932 10.6985 8.41932 8.85521C8.41932 7.01191 9.90039 5.5308 11.7437 5.5308ZM16.4346 18.5416V20.0709C16.4567 21.068 17.9417 21.068 17.9638 20.0709V18.5416H19.4946C20.5151 18.5416 20.5151 17.0109 19.4946 17.0109H17.9638V15.4816C17.9688 15.0529 17.6205 14.7037 17.1917 14.7079C16.7689 14.7108 16.4296 15.0587 16.4346 15.4816V17.0109H14.8687C13.8116 17.0597 13.8848 18.5903 14.9053 18.5416H16.4346Z" fill="#2A9D8F"/>
<rect x="0.5" y="0.5" width="23" height="23" rx="1.5" stroke="#2A9D8F" stroke-linejoin="round" stroke-dasharray="2 2"/>
</svg>
