<svg width="16" height="20" viewBox="0 0 16 20" fill="none" xmlns="http://www.w3.org/2000/svg">
<path d="M2.525 19.375C2.125 19.375 1.775 19.225 1.475 18.925C1.175 18.625 1.025 18.275 1.025 17.875V3.625H0.75C0.533333 3.625 0.354167 3.55417 0.2125 3.4125C0.0708334 3.27083 0 3.09167 0 2.875C0 2.65833 0.0708334 2.47917 0.2125 2.3375C0.354167 2.19583 0.533333 2.125 0.75 2.125H4.7C4.7 1.90833 4.77083 1.72917 4.9125 1.5875C5.05417 1.44583 5.23333 1.375 5.45 1.375H10.55C10.7667 1.375 10.9458 1.44583 11.0875 1.5875C11.2292 1.72917 11.3 1.90833 11.3 2.125H15.25C15.4667 2.125 15.6458 2.19583 15.7875 2.3375C15.9292 2.47917 16 2.65833 16 2.875C16 3.09167 15.9292 3.27083 15.7875 3.4125C15.6458 3.55417 15.4667 3.625 15.25 3.625H14.975V17.875C14.975 18.275 14.825 18.625 14.525 18.925C14.225 19.225 13.875 19.375 13.475 19.375H2.525ZM2.525 3.625V17.875H13.475V3.625H2.525ZM5.175 14.975C5.175 15.1917 5.24583 15.3708 5.3875 15.5125C5.52917 15.6542 5.70833 15.725 5.925 15.725C6.14167 15.725 6.32083 15.6542 6.4625 15.5125C6.60417 15.3708 6.675 15.1917 6.675 14.975V6.5C6.675 6.28333 6.60417 6.10417 6.4625 5.9625C6.32083 5.82083 6.14167 5.75 5.925 5.75C5.70833 5.75 5.52917 5.82083 5.3875 5.9625C5.24583 6.10417 5.175 6.28333 5.175 6.5V14.975ZM9.325 14.975C9.325 15.1917 9.39583 15.3708 9.5375 15.5125C9.67917 15.6542 9.85833 15.725 10.075 15.725C10.2917 15.725 10.4708 15.6542 10.6125 15.5125C10.7542 15.3708 10.825 15.1917 10.825 14.975V6.5C10.825 6.28333 10.7542 6.10417 10.6125 5.9625C10.4708 5.82083 10.2917 5.75 10.075 5.75C9.85833 5.75 9.67917 5.82083 9.5375 5.9625C9.39583 6.10417 9.325 6.28333 9.325 6.5V14.975ZM2.525 3.625V17.875V3.625Z" fill="#FF4D4F"/>
<path d="M4.25 2.125C4.25 1.29657 4.92157 0.625 5.75 0.625H10.25C11.0784 0.625 11.75 1.29657 11.75 2.125H4.25Z" fill="#FF4D4F"/>
</svg>
