<svg width="24" height="24" viewBox="0 0 24 24" fill="none" xmlns="http://www.w3.org/2000/svg">
<path d="M4.5 19.4999H5.6L16.675 8.42487L15.575 7.32487L4.5 18.3999V19.4999ZM19.85 7.34987L16.65 4.14987L17.7 3.09987C17.9833 2.81654 18.3375 2.67904 18.7625 2.68737C19.1875 2.6957 19.5417 2.84154 19.825 3.12487L20.9 4.19987C21.1833 4.4832 21.325 4.8332 21.325 5.24987C21.325 5.66654 21.1833 6.01654 20.9 6.29987L19.85 7.34987ZM3.75 20.9999C3.53333 20.9999 3.35417 20.929 3.2125 20.7874C3.07083 20.6457 3 20.4665 3 20.2499V18.0999C3 17.9999 3.01667 17.9082 3.05 17.8249C3.08333 17.7415 3.14167 17.6582 3.225 17.5749L15.6 5.19987L18.8 8.39987L6.425 20.7749C6.34167 20.8582 6.25833 20.9165 6.175 20.9499C6.09167 20.9832 6 20.9999 5.9 20.9999H3.75ZM16.125 7.87487L15.575 7.32487L16.675 8.42487L16.125 7.87487Z" fill="#A0ACBB"/>
</svg>
