<svg width="24" height="25" viewBox="0 0 24 25" fill="none" xmlns="http://www.w3.org/2000/svg">
<path d="M7 16.9996H7.73333L15.1167 9.61625L14.3833 8.88292L7 16.2663V16.9996ZM17.2333 8.89959L15.1 6.76625L15.8 6.06625C15.9889 5.87736 16.225 5.7857 16.5083 5.79125C16.7917 5.79681 17.0278 5.89403 17.2167 6.08292L17.9333 6.79959C18.1222 6.98848 18.2167 7.22181 18.2167 7.49959C18.2167 7.77736 18.1222 8.0107 17.9333 8.19959L17.2333 8.89959ZM6.5 17.9996C6.35556 17.9996 6.23611 17.9524 6.14167 17.8579C6.04722 17.7635 6 17.644 6 17.4996V16.0663C6 15.9996 6.01111 15.9385 6.03333 15.8829C6.05556 15.8274 6.09444 15.7718 6.15 15.7163L14.4 7.46625L16.5333 9.59959L8.28333 17.8496C8.22778 17.9051 8.17222 17.944 8.11667 17.9663C8.06111 17.9885 8 17.9996 7.93333 17.9996H6.5ZM14.75 9.24959L14.3833 8.88292L15.1167 9.61625L14.75 9.24959Z" fill="#F4A261"/>
<rect x="0.5" y="1" width="23" height="23" rx="1.5" stroke="#F4A261" stroke-dasharray="2 2"/>
</svg>
