<svg width="24" height="24" viewBox="0 0 24 24" fill="none" xmlns="http://www.w3.org/2000/svg">
<path d="M6.25 20.6667C5.91667 20.6667 5.625 20.5417 5.375 20.2917C5.125 20.0417 5 19.75 5 19.4167V6.5C5 6.16667 5.125 5.875 5.375 5.625C5.625 5.375 5.91667 5.25 6.25 5.25H7.60417V4.64583C7.60417 4.46528 7.66667 4.3125 7.79167 4.1875C7.91667 4.0625 8.07639 4 8.27083 4C8.46528 4 8.62847 4.0625 8.76042 4.1875C8.89236 4.3125 8.95833 4.47222 8.95833 4.66667V5.25H16.0417V4.64583C16.0417 4.46528 16.1042 4.3125 16.2292 4.1875C16.3542 4.0625 16.5139 4 16.7083 4C16.9028 4 17.066 4.0625 17.1979 4.1875C17.3299 4.3125 17.3958 4.47222 17.3958 4.66667V5.25H18.75C19.0833 5.25 19.375 5.375 19.625 5.625C19.875 5.875 20 6.16667 20 6.5V19.4167C20 19.75 19.875 20.0417 19.625 20.2917C19.375 20.5417 19.0833 20.6667 18.75 20.6667H6.25ZM6.25 19.4167H18.75V10.4583H6.25V19.4167ZM6.25 9.20833H18.75V6.5H6.25V9.20833ZM6.25 9.20833V6.5V9.20833Z" fill="#FF4D4F"/>
<rect x="0.5" y="0.5" width="23" height="23" rx="1.5" stroke="#FF4D4F" stroke-linejoin="round" stroke-dasharray="2 2"/>
</svg>
