<svg width="8" height="14" viewBox="0 0 8 14" fill="none" xmlns="http://www.w3.org/2000/svg">
<path fill-rule="evenodd" clip-rule="evenodd" d="M6.66667 0.333984C7.02029 0.333984 7.35943 0.47446 7.60948 0.724509C7.85952 0.974557 8 1.3137 8 1.66732C8 2.02094 7.85952 2.36008 7.60948 2.61013C7.35943 2.86018 7.02029 3.00065 6.66667 3.00065C6.31304 3.00065 5.97391 2.86018 5.72386 2.61013C5.47381 2.36008 5.33333 2.02094 5.33333 1.66732C5.33333 1.3137 5.47381 0.974557 5.72386 0.724509C5.97391 0.47446 6.31304 0.333984 6.66667 0.333984ZM6.66667 5.66732C7.02029 5.66732 7.35943 5.80779 7.60948 6.05784C7.85952 6.30789 8 6.64703 8 7.00065C8 7.35427 7.85952 7.69341 7.60948 7.94346C7.35943 8.19351 7.02029 8.33398 6.66667 8.33398C6.31304 8.33398 5.97391 8.19351 5.72386 7.94346C5.47381 7.69341 5.33333 7.35427 5.33333 7.00065C5.33333 6.64703 5.47381 6.30789 5.72386 6.05784C5.97391 5.80779 6.31304 5.66732 6.66667 5.66732ZM1.33333 11.0007C1.68696 11.0007 2.02609 11.1411 2.27614 11.3912C2.52619 11.6412 2.66667 11.9804 2.66667 12.334C2.66667 12.6876 2.52619 13.0267 2.27614 13.2768C2.02609 13.5268 1.68696 13.6673 1.33333 13.6673C0.979711 13.6673 0.640573 13.5268 0.390524 13.2768C0.140476 13.0267 0 12.6876 0 12.334C0 11.9804 0.140476 11.6412 0.390524 11.3912C0.640573 11.1411 0.979711 11.0007 1.33333 11.0007ZM6.66667 11.0007C7.02029 11.0007 7.35943 11.1411 7.60948 11.3912C7.85952 11.6412 8 11.9804 8 12.334C8 12.6876 7.85952 13.0267 7.60948 13.2768C7.35943 13.5268 7.02029 13.6673 6.66667 13.6673C6.31304 13.6673 5.97391 13.5268 5.72386 13.2768C5.47381 13.0267 5.33333 12.6876 5.33333 12.334C5.33333 11.9804 5.47381 11.6412 5.72386 11.3912C5.97391 11.1411 6.31304 11.0007 6.66667 11.0007ZM1.33333 0.333984C1.68696 0.333984 2.02609 0.47446 2.27614 0.724509C2.52619 0.974557 2.66667 1.3137 2.66667 1.66732C2.66667 2.02094 2.52619 2.36008 2.27614 2.61013C2.02609 2.86018 1.68696 3.00065 1.33333 3.00065C0.979711 3.00065 0.640573 2.86018 0.390524 2.61013C0.140476 2.36008 0 2.02094 0 1.66732C0 1.3137 0.140476 0.974557 0.390524 0.724509C0.640573 0.47446 0.979711 0.333984 1.33333 0.333984ZM1.33333 5.66732C1.68696 5.66732 2.02609 5.80779 2.27614 6.05784C2.52619 6.30789 2.66667 6.64703 2.66667 7.00065C2.66667 7.35427 2.52619 7.69341 2.27614 7.94346C2.02609 8.19351 1.68696 8.33398 1.33333 8.33398C0.979711 8.33398 0.640573 8.19351 0.390524 7.94346C0.140476 7.69341 0 7.35427 0 7.00065C0 6.64703 0.140476 6.30789 0.390524 6.05784C0.640573 5.80779 0.979711 5.66732 1.33333 5.66732Z" fill="#3B4D60"/>
</svg>
