<svg width="19" height="16" viewBox="0 0 19 16" fill="none" xmlns="http://www.w3.org/2000/svg">
<path d="M2.59992 1.29996C2.59992 2.01797 2.01797 2.60015 1.29996 2.60015C0.581952 2.60015 0 2.01797 0 1.29996C0 0.581952 0.581952 0 1.29996 0C2.01797 0 2.59992 0.581952 2.59992 1.29996Z" fill="#264653"/>
<path d="M6.50309 0H16.9036C17.6216 0 18.2035 0.71801 18.2035 1.29996C18.2035 2.01797 17.6216 2.59992 16.9036 2.59992H6.50309C5.78508 2.59992 5.20312 1.88191 5.20312 1.29996C5.20312 0.581952 5.78508 0 6.50309 0Z" fill="#264653"/>
<path d="M2.59992 7.80191C2.59992 8.51992 2.01797 9.10188 1.29996 9.10188C0.581952 9.10188 0 8.51992 0 7.80191C0 7.0839 0.581952 6.50195 1.29996 6.50195C2.01797 6.50195 2.59992 7.0839 2.59992 7.80191Z" fill="#264653"/>
<path d="M6.50309 6.50195H16.9036C17.6216 6.50195 18.2035 7.21996 18.2035 7.80191C18.2035 8.51992 17.6216 9.10188 16.9036 9.10188H6.50309C5.78508 9.10188 5.20312 8.38387 5.20312 7.80191C5.20312 7.0839 5.78508 6.50195 6.50309 6.50195Z" fill="#264653"/>
<path d="M2.59992 14.2982C2.59992 15.0162 2.01797 15.5982 1.29996 15.5982C0.581952 15.5982 0 15.0162 0 14.2982C0 13.5802 0.581952 12.998 1.29996 12.998C2.01797 12.998 2.59992 13.5802 2.59992 14.2982Z" fill="#264653"/>
<path d="M6.50309 12.998H16.9036C17.6216 12.998 18.2035 13.7161 18.2035 14.298C18.2035 15.016 17.6216 15.598 16.9036 15.598H6.50309C5.78508 15.598 5.20312 14.88 5.20312 14.298C5.20312 13.58 5.78508 12.998 6.50309 12.998Z" fill="#264653"/>
</svg>
