<svg width="21" height="16" viewBox="0 0 21 16" fill="none" xmlns="http://www.w3.org/2000/svg">
<path d="M1.81641 14.5H6.49141V1.5H1.81641V14.5ZM7.99141 14.5H12.6414V1.5H7.99141V14.5ZM14.1414 14.5H18.8164V1.5H14.1414V14.5ZM1.81641 16C1.41641 16 1.06641 15.85 0.766406 15.55C0.466406 15.25 0.316406 14.9 0.316406 14.5V1.5C0.316406 1.1 0.466406 0.75 0.766406 0.45C1.06641 0.15 1.41641 0 1.81641 0H18.8164C19.2164 0 19.5664 0.15 19.8664 0.45C20.1664 0.75 20.3164 1.1 20.3164 1.5V14.5C20.3164 14.9 20.1664 15.25 19.8664 15.55C19.5664 15.85 19.2164 16 18.8164 16H1.81641Z" fill="#264653"/>
</svg>
