<svg width="19" height="13" viewBox="0 0 19 13" fill="none" xmlns="http://www.w3.org/2000/svg">
<path d="M9.235 9.86466C10.2285 9.86466 11.0715 9.51835 11.7641 8.82572C12.4568 8.1331 12.8031 7.29005 12.8031 6.29659C12.8031 5.30313 12.4568 4.46009 11.7641 3.76746C11.0715 3.07484 10.2285 2.72852 9.235 2.72852C8.24154 2.72852 7.39849 3.07484 6.70587 3.76746C6.01324 4.46009 5.66693 5.30313 5.66693 6.29659C5.66693 7.29005 6.01324 8.1331 6.70587 8.82572C7.39849 9.51835 8.24154 9.86466 9.235 9.86466ZM9.235 8.64732C8.57736 8.64732 8.02116 8.41994 7.5664 7.96519C7.11165 7.51043 6.88427 6.95424 6.88427 6.29659C6.88427 5.63895 7.11165 5.08275 7.5664 4.62799C8.02116 4.17324 8.57736 3.94586 9.235 3.94586C9.89264 3.94586 10.4488 4.17324 10.9036 4.62799C11.3583 5.08275 11.5857 5.63895 11.5857 6.29659C11.5857 6.95424 11.3583 7.51043 10.9036 7.96519C10.4488 8.41994 9.89264 8.64732 9.235 8.64732ZM9.235 12.5932C7.19211 12.5932 5.34511 12.0125 3.694 10.8511C2.04289 9.68975 0.811561 8.17158 0 6.29659C0.811561 4.42161 2.04289 2.90343 3.694 1.74206C5.34511 0.580685 7.19211 0 9.235 0C11.2779 0 13.1249 0.580685 14.776 1.74206C16.4271 2.90343 17.6584 4.42161 18.47 6.29659C17.6584 8.17158 16.4271 9.68975 14.776 10.8511C13.1249 12.0125 11.2779 12.5932 9.235 12.5932ZM9.235 11.3339C10.9281 11.3339 12.4847 10.8756 13.905 9.95911C15.3252 9.0426 16.4061 7.82177 17.1477 6.29659C16.4061 4.77142 15.3252 3.55058 13.905 2.63407C12.4847 1.71757 10.9281 1.25932 9.235 1.25932C7.54192 1.25932 5.98526 1.71757 4.56503 2.63407C3.1448 3.55058 2.05689 4.77142 1.3013 6.29659C2.05689 7.82177 3.1448 9.0426 4.56503 9.95911C5.98526 10.8756 7.54192 11.3339 9.235 11.3339Z" fill="#3B4D60"/>
</svg>
