<svg width="36" height="36" viewBox="0 0 36 36" fill="none" xmlns="http://www.w3.org/2000/svg">
<circle cx="18" cy="18" r="18" fill="white"/>
<path d="M29.8414 15.2676H22.8414C22.7211 15.2676 22.6227 15.366 22.6227 15.4863V16.7988C22.6227 16.9191 22.7211 17.0176 22.8414 17.0176H29.8414C29.9617 17.0176 30.0602 16.9191 30.0602 16.7988V15.4863C30.0602 15.366 29.9617 15.2676 29.8414 15.2676ZM26.1773 18.9863H22.8414C22.7211 18.9863 22.6227 19.0848 22.6227 19.2051V20.5176C22.6227 20.6379 22.7211 20.7363 22.8414 20.7363H26.1773C26.2977 20.7363 26.3961 20.6379 26.3961 20.5176V19.2051C26.3961 19.0848 26.2977 18.9863 26.1773 18.9863ZM17.0527 12.8203H15.8688C15.6992 12.8203 15.5625 12.957 15.5625 13.1266V19.9078C15.5625 20.0062 15.609 20.0965 15.6883 20.1539L19.7598 23.1234C19.8965 23.2219 20.0879 23.1945 20.1863 23.0578L20.8891 22.098V22.0953C20.9875 21.9586 20.9574 21.7672 20.8207 21.6687L17.3563 19.1641V13.1266C17.359 12.957 17.2195 12.8203 17.0527 12.8203Z" fill="#49416D"/>
<path d="M26.0063 22.4251H24.4258C24.2727 22.4251 24.1278 22.5043 24.0457 22.6356C23.6985 23.1852 23.2938 23.6938 22.8289 24.1586C22.0278 24.9598 21.0953 25.5887 20.059 26.0262C18.9844 26.4801 17.8442 26.7098 16.6684 26.7098C15.4899 26.7098 14.3496 26.4801 13.2778 26.0262C12.2414 25.5887 11.309 24.9598 10.5078 24.1586C9.70666 23.3575 9.07775 22.425 8.64025 21.3887C8.18635 20.3168 7.95666 19.1766 7.95666 17.9981C7.95666 16.8196 8.18635 15.6821 8.64025 14.6075C9.07775 13.5711 9.70666 12.6387 10.5078 11.8376C11.309 11.0364 12.2414 10.4075 13.2778 9.96997C14.3496 9.51607 15.4926 9.28638 16.6684 9.28638C17.8469 9.28638 18.9871 9.51607 20.059 9.96997C21.0953 10.4075 22.0278 11.0364 22.8289 11.8376C23.2938 12.3024 23.6985 12.811 24.0457 13.3606C24.1278 13.4918 24.2727 13.5711 24.4258 13.5711H26.0063C26.1949 13.5711 26.3153 13.3743 26.2305 13.2075C24.4477 9.66099 20.8328 7.35591 16.7969 7.30943C10.8879 7.2356 5.97971 12.0727 5.96877 17.9762C5.95783 23.8907 10.7512 28.6895 16.6656 28.6895C20.7535 28.6895 24.4285 26.3762 26.2305 22.7887C26.3153 22.6219 26.1922 22.4251 26.0063 22.4251Z" fill="#49416D"/>
</svg>
