<svg width="20" height="20" viewBox="0 0 20 20" fill="none" xmlns="http://www.w3.org/2000/svg">
<circle cx="10" cy="10" r="10" fill="#2A9D8F"/>
<path d="M10 5C7.23884 5 5 7.23884 5 10C5 12.7612 7.23884 15 10 15C12.7612 15 15 12.7612 15 10C15 7.23884 12.7612 5 10 5ZM11.9699 11.5368L11.6507 11.9721C11.6437 11.9816 11.635 11.9896 11.6249 11.9957C11.6149 12.0018 11.6037 12.0058 11.5921 12.0076C11.5805 12.0093 11.5686 12.0088 11.5572 12.0059C11.5458 12.0031 11.5351 11.9981 11.5257 11.9911L9.67969 10.6451C9.66819 10.6368 9.65884 10.6259 9.65243 10.6133C9.64602 10.6007 9.64274 10.5867 9.64286 10.5725V7.5C9.64286 7.45089 9.68304 7.41071 9.73214 7.41071H10.269C10.3181 7.41071 10.3583 7.45089 10.3583 7.5V10.2623L11.9498 11.4129C11.99 11.4408 11.9989 11.4967 11.9699 11.5368Z" fill="white"/>
</svg>
