<svg width="36" height="36" viewBox="0 0 36 36" fill="none" xmlns="http://www.w3.org/2000/svg">
<rect width="36" height="36" rx="18" fill="#FDCA64"/>
<rect width="36" height="36" rx="18" fill="white"/>
<path d="M18 8C12.4777 8 8 12.4777 8 18C8 23.5223 12.4777 28 18 28C23.5223 28 28 23.5223 28 18C28 12.4777 23.5223 8 18 8ZM21.9397 21.0737L21.3013 21.9442C21.2875 21.9632 21.27 21.9792 21.2499 21.9914C21.2298 22.0035 21.2075 22.0116 21.1842 22.0151C21.161 22.0187 21.1373 22.0176 21.1145 22.0119C21.0917 22.0062 21.0702 21.9961 21.0513 21.9821L17.3594 19.2902C17.3364 19.2737 17.3177 19.2519 17.3049 19.2266C17.292 19.2014 17.2855 19.1734 17.2857 19.1451V13C17.2857 12.9018 17.3661 12.8214 17.4643 12.8214H18.5379C18.6362 12.8214 18.7165 12.9018 18.7165 13V18.5246L21.8996 20.8259C21.9799 20.8817 21.9978 20.9933 21.9397 21.0737Z" fill="#FDCA64"/>
</svg>
