<svg width="24" height="24" viewBox="0 0 24 24" fill="none" xmlns="http://www.w3.org/2000/svg">
<g clip-path="url(#clip0_1214_3590)">
<g clip-path="url(#clip1_1214_3590)">
<path d="M5.30152 15.8672C5.83465 16.7925 7.01695 17.1104 7.94224 16.5772C7.94287 16.5769 7.94348 16.5765 7.94411 16.5762L8.23092 16.4105C8.77233 16.8737 9.39464 17.2329 10.0665 17.4701V17.8008C10.0665 18.8687 10.9322 19.7344 12.0001 19.7344C13.068 19.7344 13.9337 18.8687 13.9337 17.8008V17.4701C14.6057 17.2326 15.2281 16.8729 15.7693 16.4092L16.0574 16.5755C16.9829 17.1095 18.1661 16.792 18.7 15.8665C19.234 14.941 18.9166 13.7579 17.991 13.2239L17.7049 13.0589C17.8337 12.358 17.8337 11.6394 17.7049 10.9384L17.991 10.7734C18.9165 10.2395 19.234 9.05638 18.7 8.13085C18.1661 7.20535 16.983 6.88791 16.0574 7.42185L15.7706 7.58751C15.2287 7.12487 14.6059 6.76631 13.9337 6.52986V6.19922C13.9337 5.13133 13.068 4.26562 12.0001 4.26562C10.9322 4.26562 10.0665 5.13133 10.0665 6.19922V6.52986C9.39455 6.76742 8.7722 7.12707 8.23092 7.59077L7.94281 7.42385C7.01729 6.88987 5.83417 7.20732 5.30023 8.13281C4.76628 9.05831 5.08369 10.2415 6.00922 10.7754L6.29539 10.9404C6.16657 11.6413 6.16657 12.3599 6.29539 13.0609L6.00922 13.2259C5.08626 13.7613 4.76988 14.9421 5.30152 15.8672ZM12.0001 9.42189C13.424 9.42189 14.5782 10.5761 14.5782 12C14.5782 13.4239 13.424 14.5781 12.0001 14.5781C10.5763 14.5781 9.42201 13.4239 9.42201 12C9.42201 10.5761 10.5763 9.42189 12.0001 9.42189Z" fill="white"/>
<path d="M15.2227 12C15.2227 13.7798 13.7798 15.2227 12 15.2227C10.2202 15.2227 8.77734 13.7798 8.77734 12C8.77734 10.2202 10.2202 8.77734 12 8.77734C13.7798 8.77734 15.2227 10.2202 15.2227 12ZM9.70725 12C9.70725 13.2662 10.7338 14.2927 12 14.2927C13.2662 14.2927 14.2927 13.2662 14.2927 12C14.2927 10.7338 13.2662 9.70725 12 9.70725C10.7338 9.70725 9.70725 10.7338 9.70725 12Z" fill="white"/>
</g>
<path d="M21.6164 4.81711L20.622 1.83398C20.4992 1.46559 20.101 1.26642 19.7326 1.38928C19.3642 1.51209 19.1651 1.91025 19.2879 2.27869L19.3724 2.53223C18.7415 2.052 18.0615 1.62877 17.3458 1.27369C15.6659 0.440438 13.8173 0 12 0C8.81203 0 5.80341 1.25297 3.52823 3.52823C1.25297 5.80341 0 8.81208 0 12C0 13.4723 0.309328 14.9807 0.919266 16.4833C1.03017 16.7565 1.29328 16.9221 1.57097 16.9221C1.65905 16.9221 1.74863 16.9054 1.83525 16.8703C2.19506 16.7242 2.36831 16.3141 2.22225 15.9543C1.68075 14.6205 1.40625 13.2901 1.40625 12C1.40625 6.15858 6.15858 1.40625 12 1.40625C14.1441 1.40625 16.3085 2.1195 18.1067 3.35653C17.763 3.28598 17.4129 3.48145 17.2992 3.82266C17.1764 4.191 17.3755 4.58925 17.7439 4.71206L20.727 5.70647C20.9786 5.79028 21.2574 5.72573 21.4465 5.53659C21.6348 5.3483 21.7006 5.06972 21.6164 4.81711Z" fill="white"/>
<path d="M23.0809 7.51692C22.9348 7.15706 22.5246 6.98395 22.1649 7.12992C21.8051 7.27598 21.6319 7.68609 21.7779 8.0459C22.3194 9.37963 22.5939 10.71 22.5939 12.0002C22.5939 17.8416 17.8416 22.5939 12.0002 22.5939C9.85611 22.5939 7.6917 21.8807 5.89344 20.6437C6.23712 20.7142 6.58723 20.5188 6.701 20.1775C6.82377 19.8092 6.62469 19.4109 6.2563 19.2881L3.27317 18.2937C3.02061 18.2095 2.74194 18.2752 2.55364 18.4636C2.3653 18.6519 2.29953 18.9305 2.38377 19.1831L3.37812 22.1662C3.47637 22.4609 3.75064 22.6473 4.04511 22.6472C4.1188 22.6472 4.1938 22.6356 4.26753 22.611C4.63592 22.4882 4.835 22.09 4.71223 21.7216L4.62772 21.468C5.25866 21.9483 5.93858 22.3715 6.65436 22.7266C8.33431 23.5597 10.1828 24.0002 12.0002 24.0002C15.1881 24.0002 18.1968 22.7472 20.4719 20.4719C22.7472 18.1968 24.0002 15.1881 24.0002 12.0002C24.0002 10.5278 23.6908 9.01945 23.0809 7.51692Z" fill="white"/>
</g>
<defs>
<clipPath id="clip0_1214_3590">
<rect width="24" height="24" fill="white"/>
</clipPath>
<clipPath id="clip1_1214_3590">
<rect width="15.4688" height="15.4688" fill="white" transform="translate(4.26562 4.26562)"/>
</clipPath>
</defs>
</svg>
