<svg width="24" height="24" viewBox="0 0 24 24" fill="none" xmlns="http://www.w3.org/2000/svg">
<path d="M20.4375 2.85938H6.375C5.9812 2.85938 5.67188 3.1687 5.67188 3.5625V23.2969C5.67188 23.6906 5.9812 24 6.375 24H20.4375C20.8313 24 21.1406 23.6906 21.1406 23.2969V3.5625C21.1406 3.1687 20.8313 2.85938 20.4375 2.85938Z" fill="#E9E9E9"/>
<path d="M17.625 0H3.5625C3.1687 0 2.85938 0.309328 2.85938 0.703125V20.4844C2.85938 20.8781 3.1687 21.1875 3.5625 21.1875H17.625C18.0188 21.1875 18.3281 20.8781 18.3281 20.4844V0.703125C18.3281 0.309328 18.0188 0 17.625 0Z" fill="white"/>
<path d="M11.2969 4.96875C11.2969 5.36245 10.9875 5.67188 10.5938 5.67188H6.375C5.9812 5.67188 5.67188 5.36245 5.67188 4.96875C5.67188 4.57495 5.9812 4.26562 6.375 4.26562H10.5938C10.9875 4.26562 11.2969 4.57495 11.2969 4.96875Z" fill="#2C3E50"/>
<path d="M15.5156 7.78125C15.5156 8.17495 15.2063 8.48438 14.8125 8.48438H6.375C5.9812 8.48438 5.67188 8.17495 5.67188 7.78125C5.67188 7.38745 5.9812 7.07812 6.375 7.07812H14.8125C15.2063 7.07812 15.5156 7.38745 15.5156 7.78125Z" fill="#2C3E50"/>
<path d="M15.5156 10.5938C15.5156 10.9875 15.2063 11.2969 14.8125 11.2969H6.375C5.9812 11.2969 5.67188 10.9875 5.67188 10.5938C5.67188 10.2 5.9812 9.89062 6.375 9.89062H14.8125C15.2063 9.89062 15.5156 10.2 15.5156 10.5938Z" fill="#2C3E50"/>
<path d="M15.5156 13.4062C15.5156 13.8 15.2063 14.1094 14.8125 14.1094H6.375C5.9812 14.1094 5.67188 13.8 5.67188 13.4062C5.67188 13.0125 5.9812 12.7031 6.375 12.7031H14.8125C15.2063 12.7031 15.5156 13.0125 15.5156 13.4062Z" fill="#2C3E50"/>
<path d="M14.8125 16.9219H12C11.6114 16.9219 11.2969 16.6074 11.2969 16.2188C11.2969 15.8301 11.6114 15.5156 12 15.5156H14.8125C15.2011 15.5156 15.5156 15.8301 15.5156 16.2188C15.5156 16.6074 15.2011 16.9219 14.8125 16.9219Z" fill="#2C3E50"/>
</svg>
