<svg width="24" height="24" viewBox="0 0 24 24" fill="none" xmlns="http://www.w3.org/2000/svg">
<g clip-path="url(#clip0_464_1611)">
<path d="M4.99961 19H10.9996V21H6.99961C6.73439 21 6.48004 21.1054 6.2925 21.2929C6.10497 21.4804 5.99961 21.7348 5.99961 22C5.99961 22.2652 6.10497 22.5196 6.2925 22.7071C6.48004 22.8946 6.73439 23 6.99961 23H16.9996C17.2648 23 17.5192 22.8946 17.7067 22.7071C17.8943 22.5196 17.9996 22.2652 17.9996 22C17.9996 21.7348 17.8943 21.4804 17.7067 21.2929C17.5192 21.1054 17.2648 21 16.9996 21H12.9996V19H18.9996C20.1518 18.9985 21.2683 18.5999 22.1609 17.8713C23.0534 17.1427 23.6675 16.1286 23.8996 15H0.0996094C0.331706 16.1286 0.94579 17.1427 1.83836 17.8713C2.73093 18.5999 3.8474 18.9985 4.99961 19Z" fill="white"/>
<path d="M19 1H5C3.67441 1.00159 2.40356 1.52888 1.46622 2.46622C0.528882 3.40356 0.00158786 4.67441 0 6L0 13H24V6C23.9984 4.67441 23.4711 3.40356 22.5338 2.46622C21.5964 1.52888 20.3256 1.00159 19 1Z" fill="white"/>
<rect x="5" y="5" width="14" height="2" rx="1" fill="#264653"/>
<rect x="8" y="9" width="8" height="2" rx="1" fill="#264653"/>
</g>
<defs>
<clipPath id="clip0_464_1611">
<rect width="24" height="24" fill="white"/>
</clipPath>
</defs>
</svg>
