<svg width="24" height="24" viewBox="0 0 24 24" fill="none" xmlns="http://www.w3.org/2000/svg">
<path d="M1.60731 18C2.43447 19.4356 4.26882 19.9288 5.70442 19.1017C5.7054 19.1011 5.70634 19.1005 5.70732 19.1L6.15231 18.843C6.99231 19.5616 7.95784 20.119 9.00029 20.487V21C9.00029 22.6568 10.3434 24 12.0003 24C13.6571 24 15.0003 22.6568 15.0003 21V20.487C16.0429 20.1184 17.0085 19.5604 17.8483 18.841L18.2953 19.099C19.7312 19.9274 21.5669 19.4349 22.3953 17.999C23.2237 16.563 22.7312 14.7274 21.2953 13.899L20.8513 13.643C21.0512 12.5554 21.0512 11.4405 20.8513 10.353L21.2953 10.097C22.7312 9.26855 23.2237 7.43292 22.3953 5.99695C21.5669 4.56103 19.7312 4.06852 18.2953 4.89694L17.8503 5.15395C17.0094 4.43616 16.0433 3.87984 15.0003 3.513V3C15.0003 1.34316 13.6571 0 12.0003 0C10.3434 0 9.00029 1.34316 9.00029 3V3.513C7.9577 3.88158 6.99212 4.43958 6.15231 5.15902L5.70531 4.90003C4.26934 4.07156 2.43372 4.56408 1.60529 6C0.776871 7.43592 1.26934 9.27159 2.70531 10.1L3.14931 10.356C2.94943 11.4435 2.94943 12.5584 3.14931 13.646L2.70531 13.902C1.27332 14.7326 0.782449 16.5647 1.60731 18ZM12.0003 8.00002C14.2094 8.00002 16.0003 9.79088 16.0003 12C16.0003 14.2091 14.2094 16 12.0003 16C9.79117 16 8.00031 14.2091 8.00031 12C8.00031 9.79088 9.79117 8.00002 12.0003 8.00002Z" fill="white"/>
</svg>
