<svg width="24" height="24" viewBox="0 0 24 24" fill="none" xmlns="http://www.w3.org/2000/svg">
<path d="M13.2519 16.731C12.4272 17.0827 11.5018 17.0762 10.684 16.7176C10.5738 16.6692 10.6254 16.5031 10.7432 16.5276C11.5538 16.6966 12.3906 16.6994 13.1947 16.5405C13.3129 16.5172 13.3627 16.6838 13.2519 16.731ZM19.3778 3.98413C18.6209 2.78179 17.4601 1.9424 16.1228 1.60944C16.3475 1.42106 16.3008 1.06721 16.0403 0.941527C13.3401 -0.357802 9.67106 -0.497134 7.38341 1.70843C5.53015 3.49469 5.37917 6.03686 5.40117 7.05172C5.40117 9.29163 5.40047 9.145 5.40277 9.19674C5.41552 9.48601 5.85111 9.47151 5.85111 9.18194V7.2637C5.85111 5.27946 7.46565 3.66417 9.45064 3.66417H14.55C16.5388 3.66417 18.1495 5.28351 18.1495 7.2637V9.18194C18.1495 9.47146 18.5851 9.48596 18.5978 9.19674C18.6001 9.14415 18.5994 9.33243 18.5994 6.39681C18.5994 5.7019 18.8679 5.04649 19.3553 4.55205C19.4173 4.48906 19.4568 4.40707 19.4678 4.31908C19.4859 4.1704 19.4537 4.10431 19.3778 3.98413ZM20.0992 21.2374V23.6001C20.0992 23.8209 19.9202 24 19.6993 24H4.30131C4.08044 24 3.90137 23.8209 3.90137 23.6001V21.2374C3.90137 18.9563 5.74817 17.1094 8.02933 17.1094C8.36023 17.1094 8.67529 17.0143 8.94371 16.8385C9.08859 16.7436 9.27826 16.7583 9.41254 16.8676C10.9191 18.0946 13.0411 18.1071 14.5678 16.8557C14.7032 16.7448 14.8956 16.7303 15.041 16.8279C15.3137 17.0111 15.6346 17.1094 15.9712 17.1094C18.2524 17.1094 20.0992 18.9562 20.0992 21.2374ZM16.4497 22.3502C16.4497 22.1293 16.2706 21.9503 16.0498 21.9503H14.8499C14.6291 21.9503 14.45 22.1293 14.45 22.3502C14.45 22.5711 14.6291 22.7502 14.8499 22.7502H16.0498C16.2706 22.7502 16.4497 22.5711 16.4497 22.3502ZM14.55 4.46407H9.45064C7.90684 4.46407 6.65101 5.7204 6.65101 7.2637V10.5693C6.65101 13.3623 8.9796 15.8571 12.0003 15.8571C14.9359 15.8571 17.3266 13.4804 17.3496 10.5498V7.2637C17.3496 5.7199 16.0938 4.46407 14.55 4.46407Z" fill="white"/>
</svg>
