<svg width="24" height="24" viewBox="0 0 24 24" fill="none" xmlns="http://www.w3.org/2000/svg">
<path d="M18.8849 12.668V5.11399C18.8827 4.36339 18.5835 3.64417 18.0528 3.11342C17.522 2.58266 16.8028 2.28349 16.0522 2.28125H15.108V4.16974C15.1117 4.65246 14.9251 5.11722 14.5886 5.46336C14.3537 5.77148 14.0509 6.02124 13.7037 6.1932C13.3565 6.36516 12.9743 6.45469 12.5868 6.45482H11.6898C11.2293 6.4595 10.7763 6.33787 10.3801 6.10314C9.98388 5.86841 9.65959 5.52956 9.44247 5.12343C9.22381 5.52827 8.89917 5.86603 8.50331 6.10055C8.10745 6.33507 7.65527 6.45753 7.19516 6.45482H6.29813C5.91067 6.45469 5.52848 6.36516 5.18128 6.1932C4.83408 6.02124 4.53124 5.77148 4.29632 5.46336C3.95985 5.11722 3.77327 4.65246 3.77699 4.16974V2.28125H2.83274C2.08214 2.28349 1.36292 2.58266 0.832167 3.11342C0.30141 3.64417 0.00224173 4.36339 0 5.11399V21.1662C0.00224173 21.9168 0.30141 22.636 0.832167 23.1668C1.36292 23.6975 2.08214 23.9967 2.83274 23.9989H16.0522C16.4505 24.002 16.8444 23.9149 17.2042 23.744C15.9098 23.342 14.8025 22.4893 14.0831 21.3406C13.3637 20.192 13.0799 18.8235 13.2832 17.4835C13.4866 16.1435 14.1636 14.9207 15.1913 14.0372C16.2191 13.1537 17.5296 12.6679 18.8849 12.668V12.668ZM3.77699 8.89098H7.55398C7.80441 8.89098 8.04458 8.99046 8.22166 9.16754C8.39874 9.34462 8.49822 9.5848 8.49822 9.83523C8.49822 10.0857 8.39874 10.3258 8.22166 10.5029C8.04458 10.68 7.80441 10.7795 7.55398 10.7795H3.77699C3.52656 10.7795 3.28639 10.68 3.1093 10.5029C2.93222 10.3258 2.83274 10.0857 2.83274 9.83523C2.83274 9.5848 2.93222 9.34462 3.1093 9.16754C3.28639 8.99046 3.52656 8.89098 3.77699 8.89098ZM10.3867 18.3334H3.77699C3.52656 18.3334 3.28639 18.234 3.1093 18.0569C2.93222 17.8798 2.83274 17.6396 2.83274 17.3892C2.83274 17.1388 2.93222 16.8986 3.1093 16.7215C3.28639 16.5444 3.52656 16.445 3.77699 16.445H10.3867C10.6371 16.445 10.8773 16.5444 11.0544 16.7215C11.2315 16.8986 11.331 17.1388 11.331 17.3892C11.331 17.6396 11.2315 17.8798 11.0544 18.0569C10.8773 18.234 10.6371 18.3334 10.3867 18.3334ZM10.3867 14.5565H3.77699C3.52656 14.5565 3.28639 14.457 3.1093 14.2799C2.93222 14.1028 2.83274 13.8626 2.83274 13.6122C2.83274 13.3618 2.93222 13.1216 3.1093 12.9445C3.28639 12.7674 3.52656 12.668 3.77699 12.668H10.3867C10.6371 12.668 10.8773 12.7674 11.0544 12.9445C11.2315 13.1216 11.331 13.3618 11.331 13.6122C11.331 13.8626 11.2315 14.1028 11.0544 14.2799C10.8773 14.457 10.6371 14.5565 10.3867 14.5565Z" fill="white"/>
<path d="M12.5911 0H6.29672C5.8794 0.000499777 5.47932 0.166498 5.18424 0.461583C4.88915 0.756669 4.72316 1.15675 4.72266 1.57406V3.93468C4.72316 4.35199 4.88915 4.75207 5.18424 5.04715C5.47932 5.34224 5.8794 5.50824 6.29672 5.50874H7.2013C7.52811 5.51462 7.84847 5.41746 8.11694 5.23102C8.38541 5.04458 8.58836 4.77834 8.69699 4.47007C8.74887 4.31294 8.84898 4.17618 8.98307 4.07924C9.11717 3.9823 9.27842 3.93011 9.44389 3.93011C9.60936 3.93011 9.77061 3.9823 9.90471 4.07924C10.0388 4.17618 10.1389 4.31294 10.1908 4.47007C10.2994 4.77834 10.5024 5.04458 10.7708 5.23102C11.0393 5.41746 11.3597 5.51462 11.6865 5.50874H12.5911C13.0084 5.50824 13.4085 5.34224 13.7035 5.04715C13.9986 4.75207 14.1646 4.35199 14.1651 3.93468V1.57406C14.1646 1.15675 13.9986 0.756669 13.7035 0.461583C13.4085 0.166498 13.0084 0.000499777 12.5911 0V0Z" fill="white"/>
<path d="M18.8853 13.6133C17.9515 13.6133 17.0387 13.8902 16.2623 14.409C15.4859 14.9277 14.8808 15.6651 14.5234 16.5278C14.1661 17.3905 14.0726 18.3398 14.2548 19.2556C14.437 20.1714 14.8866 21.0127 15.5469 21.6729C16.2072 22.3332 17.0484 22.7829 17.9642 22.965C18.8801 23.1472 19.8293 23.0537 20.692 22.6964C21.5547 22.339 22.2921 21.7339 22.8109 20.9575C23.3296 20.1811 23.6065 19.2683 23.6065 18.3345C23.605 17.0828 23.1071 15.8828 22.2221 14.9978C21.337 14.1127 20.137 13.6148 18.8853 13.6133V13.6133ZM20.4971 19.9463C20.3201 20.1234 20.0799 20.2228 19.8295 20.2228C19.5792 20.2228 19.339 20.1234 19.162 19.9463L18.2177 19.0021C18.0406 18.8251 17.9411 18.5849 17.9411 18.3345V16.446C17.9411 16.1956 18.0405 15.9554 18.2176 15.7783C18.3947 15.6013 18.6349 15.5018 18.8853 15.5018C19.1357 15.5018 19.3759 15.6013 19.553 15.7783C19.7301 15.9554 19.8295 16.1956 19.8295 16.446V17.9436L20.4971 18.6112C20.6741 18.7883 20.7736 19.0284 20.7736 19.2788C20.7736 19.5291 20.6741 19.7693 20.4971 19.9463Z" fill="white"/>
</svg>
