<svg width="24" height="24" viewBox="0 0 24 24" fill="none" xmlns="http://www.w3.org/2000/svg">
<g clip-path="url(#clip0_1684_46748)">
<path d="M24 7V8H0V7C0 5.67392 0.526784 4.40215 1.46447 3.46447C2.40215 2.52678 3.67392 2 5 2H6V1C6 0.734784 6.10536 0.48043 6.29289 0.292893C6.48043 0.105357 6.73478 0 7 0C7.26522 0 7.51957 0.105357 7.70711 0.292893C7.89464 0.48043 8 0.734784 8 1V2H16V1C16 0.734784 16.1054 0.48043 16.2929 0.292893C16.4804 0.105357 16.7348 0 17 0C17.2652 0 17.5196 0.105357 17.7071 0.292893C17.8946 0.48043 18 0.734784 18 1V2H19C20.3261 2 21.5979 2.52678 22.5355 3.46447C23.4732 4.40215 24 5.67392 24 7Z" fill="white"/>
<path d="M17 10C15.6155 10 14.2622 10.4105 13.111 11.1797C11.9599 11.9489 11.0627 13.0421 10.5328 14.3212C10.003 15.6003 9.86441 17.0078 10.1345 18.3656C10.4046 19.7235 11.0713 20.9708 12.0503 21.9497C13.0292 22.9287 14.2765 23.5954 15.6344 23.8655C16.9922 24.1356 18.3997 23.997 19.6788 23.4672C20.9579 22.9373 22.0511 22.0401 22.8203 20.889C23.5895 19.7378 24 18.3845 24 17C24 15.1435 23.2625 13.363 21.9497 12.0503C20.637 10.7375 18.8565 10 17 10V10ZM19 19C18.8126 19.1863 18.5592 19.2908 18.295 19.2908C18.0308 19.2908 17.7774 19.1863 17.59 19L16.3 17.7C16.1116 17.5154 16.0038 17.2638 16 17V15C16 14.7348 16.1054 14.4804 16.2929 14.2929C16.4804 14.1054 16.7348 14 17 14C17.2652 14 17.5196 14.1054 17.7071 14.2929C17.8946 14.4804 18 14.7348 18 15V16.58L19 17.58C19.0937 17.673 19.1681 17.7836 19.2189 17.9054C19.2697 18.0273 19.2958 18.158 19.2958 18.29C19.2958 18.422 19.2697 18.5527 19.2189 18.6746C19.1681 18.7964 19.0937 18.907 19 19Z" fill="white"/>
<path d="M8 17C8.00083 15.6572 8.30211 14.3316 8.88177 13.1204C9.46143 11.9092 10.3048 10.843 11.35 10H0V19C0 20.3261 0.526784 21.5979 1.46447 22.5355C2.40215 23.4732 3.67392 24 5 24H11.35C10.3048 23.157 9.46143 22.0908 8.88177 20.8796C8.30211 19.6684 8.00083 18.3428 8 17V17Z" fill="white"/>
</g>
<defs>
<clipPath id="clip0_1684_46748">
<rect width="24" height="24" fill="white"/>
</clipPath>
</defs>
</svg>
