<svg width="24" height="25" viewBox="0 0 24 25" fill="none" xmlns="http://www.w3.org/2000/svg">
<g clip-path="url(#clip0_29_187024)">
<path d="M1.37612 3.74612H4.69411C4.69411 3.21305 4.6981 2.66266 4.70607 2.09495V0H19.2793V2.09695C19.2793 2.68065 19.2793 3.22838 19.2793 3.74812H22.7149C22.8723 3.74844 23.0235 3.80941 23.1374 3.91841C23.2513 4.02741 23.319 4.17613 23.3267 4.33382C23.383 5.26055 23.3563 6.19048 23.247 7.11243C23.1528 7.98181 22.8923 8.82481 22.4797 9.59518C22.0722 10.3255 21.4633 10.9223 20.7261 11.3143C19.866 11.7483 18.9188 11.9807 17.9561 11.994C17.3045 13.0794 16.4356 13.5932 15.4193 14.5267C14.1897 15.4682 13.2651 16.1779 13.9845 18.3508H15.0586C15.4716 18.3518 15.8673 18.5169 16.1594 18.8098C16.4514 19.1027 16.6159 19.4997 16.617 19.914V20.5437H16.7704C16.9718 20.5428 17.1713 20.5817 17.3577 20.6582C17.544 20.7346 17.7135 20.8472 17.8565 20.9895C17.9995 21.1322 18.113 21.302 18.1903 21.489C18.2676 21.676 18.3072 21.8765 18.3068 22.0789V23.1244C18.3068 23.2182 18.2697 23.3082 18.2035 23.3746C18.1374 23.4409 18.0477 23.4782 17.9541 23.4782H6.03326C5.93972 23.4782 5.85 23.4409 5.78385 23.3746C5.7177 23.3082 5.68054 23.2182 5.68054 23.1244V22.0789C5.68009 21.8765 5.71966 21.6759 5.79697 21.4889C5.87427 21.3019 5.98777 21.1322 6.13091 20.9895C6.27295 20.8461 6.44186 20.7324 6.62793 20.6549C6.81399 20.5773 7.01351 20.5375 7.21499 20.5377H7.36843V19.914C7.36843 19.7091 7.40894 19.5063 7.48762 19.3172C7.56629 19.1281 7.68157 18.9566 7.82677 18.8125C8.11796 18.5202 8.51282 18.3556 8.9248 18.3548H10.1324C10.7741 16.3038 9.93315 15.6401 8.77136 14.7226C7.7248 14.0088 6.84281 13.0784 6.18472 11.994C5.19135 11.9908 4.21258 11.7539 3.32706 11.3023C2.59298 10.911 1.98845 10.3136 1.58735 9.58318C1.18279 8.81507 0.928452 7.97641 0.838066 7.11243C0.733103 6.20486 0.707764 5.28981 0.76234 4.3778V4.36181C0.762339 4.28079 0.778281 4.20056 0.809251 4.12573C0.840221 4.0509 0.88561 3.98294 0.942815 3.92574C1.00002 3.86854 1.06792 3.82323 1.14262 3.79241C1.21731 3.76159 1.29734 3.74585 1.37811 3.74612H1.37612ZM19.2116 5.99699C19.168 7.20465 19.0348 8.40738 18.813 9.59518C19.165 9.52877 19.5023 9.40017 19.8094 9.21537C20.1175 9.02444 20.3709 8.75648 20.5447 8.43776C20.7423 8.06376 20.8725 7.65774 20.9294 7.23836C20.9913 6.82471 21.0245 6.40725 21.029 5.98899H19.2116V5.99699ZM4.74592 5.99699H3.12778C3.13132 6.41625 3.16127 6.83488 3.21745 7.25036C3.26784 7.66777 3.38916 8.07344 3.57616 8.44975C3.74089 8.76675 3.98635 9.03435 4.28758 9.22536C4.57716 9.40282 4.89551 9.52799 5.22818 9.59518C4.94951 8.41467 4.78797 7.2094 4.74592 5.99699Z" fill="#F39D00"/>
<path d="M4.73633 4.35938H1.3745C1.28283 6.21444 1.40041 7.99355 2.12977 9.2789C2.81329 10.5003 4.06277 11.3079 6.2389 11.3699C5.96563 11.0311 5.73288 10.6615 5.54541 10.2684C4.23814 10.0925 3.48088 9.55077 3.04645 8.73518C2.61202 7.91959 2.51637 6.85812 2.51637 5.62274C2.51637 5.55753 2.54219 5.49499 2.58816 5.44888C2.63413 5.40277 2.69647 5.37686 2.76148 5.37686H4.73633V4.35938ZM19.2379 5.37886H21.3941C21.4587 5.37886 21.5208 5.40449 21.5667 5.45017C21.6126 5.49585 21.6386 5.55788 21.6392 5.62274C21.6392 6.86212 21.5276 7.92958 21.0732 8.74117C20.6189 9.55277 19.8457 10.0905 18.5424 10.2684C18.3465 10.6669 18.0993 11.0379 17.807 11.3719C19.9991 11.3139 21.2526 10.5063 21.9461 9.2829C22.6774 7.98955 22.801 6.21644 22.7113 4.36137H19.2379V5.37886Z" fill="#F9C809"/>
<path d="M16.6161 20.5431H16.7696C16.9711 20.5424 17.1707 20.5816 17.3571 20.6585C17.5434 20.7353 17.7129 20.8482 17.8556 20.9908C17.9987 21.1336 18.1121 21.3034 18.1894 21.4904C18.2667 21.6774 18.3064 21.8779 18.306 22.0803V24.2052C18.306 24.2991 18.2689 24.3891 18.2027 24.4554C18.1366 24.5218 18.0468 24.559 17.9533 24.559H6.03244C5.93889 24.559 5.84918 24.5218 5.78303 24.4554C5.71688 24.3891 5.67972 24.2991 5.67972 24.2052V22.0863C5.67847 21.8828 5.71766 21.6812 5.79498 21.4931C5.87231 21.305 5.98623 21.1343 6.13009 20.9908C6.27212 20.8475 6.44104 20.7338 6.6271 20.6562C6.81316 20.5787 7.01268 20.5389 7.21416 20.5391H16.6161V20.5431Z" fill="#222222"/>
<path d="M14.8175 21.5879H7.85865C7.74749 21.5879 7.63741 21.6099 7.53479 21.6528C7.43218 21.6957 7.33906 21.7586 7.26082 21.8378C7.10204 21.9968 7.01249 22.2124 7.01172 22.4375V23.493H16.9916V22.4375C16.9903 22.2122 16.9 21.9965 16.7405 21.8378C16.5817 21.6787 16.3671 21.5883 16.1427 21.5859L14.8175 21.5879Z" fill="#EAD79E"/>
<path d="M10.8422 18.5903H12.0379V15.0341C7.6199 13.4588 7.20341 8.03757 6.14922 0.527344H5.22656V5.87865C5.32022 7.91563 5.65501 9.42287 6.11734 10.5763C6.49683 11.5336 7.06556 12.404 7.78929 13.135C8.20975 13.5486 8.6564 13.9346 9.12645 14.2904C10.5234 15.3919 11.5357 16.1915 10.8422 18.5903Z" fill="#F8B705"/>
<path d="M12.0371 18.5903H13.2906C12.5174 16.0495 13.6254 15.192 15.0841 14.0825C16.6883 12.8551 18.7708 11.26 18.7708 6.01659V0.527344H6.14844C6.82997 5.38091 7.24447 9.35691 8.64141 11.9936C9.11738 12.8451 9.74799 13.5997 10.5007 14.2185C10.8402 14.4685 11.2057 14.681 11.5907 14.8521C11.7344 14.9104 11.8815 14.9598 12.0311 15.0001V15.0301H12.0451V18.5903H12.0371Z" fill="#FAC809"/>
<path d="M12.349 4.02437L12.907 5.39768L14.3797 5.50962C14.4563 5.51554 14.5293 5.54471 14.589 5.59327C14.6487 5.64182 14.6923 5.70745 14.7139 5.78143C14.7355 5.85542 14.7342 5.93425 14.7101 6.00746C14.686 6.08067 14.6402 6.14478 14.5789 6.19128L13.465 7.1388L13.8157 8.57408C13.8273 8.62265 13.8292 8.67303 13.8213 8.72233C13.8134 8.77163 13.7959 8.81889 13.7698 8.86141C13.7437 8.90393 13.7095 8.94087 13.6692 8.97012C13.6288 8.99936 13.5831 9.02034 13.5347 9.03185C13.4843 9.04429 13.4319 9.04609 13.3808 9.03714C13.3297 9.02819 13.281 9.00869 13.2378 8.97988L11.9983 8.19627L10.7448 8.97388C10.7024 9.00023 10.6553 9.01793 10.6061 9.02596C10.5569 9.034 10.5066 9.0322 10.4581 9.02069C10.4096 9.00917 10.3638 8.98816 10.3234 8.95886C10.283 8.92956 10.2488 8.89255 10.2227 8.84994C10.196 8.80758 10.1782 8.76022 10.1703 8.71074C10.1624 8.66125 10.1647 8.61068 10.1769 8.56209L10.5256 7.12681L9.39769 6.16729C9.34089 6.11816 9.29982 6.05329 9.27965 5.98083C9.25948 5.90837 9.2611 5.83155 9.2843 5.76001C9.30751 5.68846 9.35127 5.62539 9.41008 5.57871C9.4689 5.53203 9.54015 5.50383 9.6149 5.49763L11.0876 5.39768L11.6475 4.03037C11.6766 3.96116 11.7254 3.90209 11.7878 3.86056C11.8502 3.81903 11.9234 3.79688 11.9983 3.79688C12.0731 3.79688 12.1464 3.81903 12.2087 3.86056C12.2711 3.90209 12.3199 3.96116 12.349 4.03037V4.02437Z" fill="#F39D00"/>
<path d="M11.998 4.17188L12.6457 5.75508L14.3515 5.88501L13.0462 6.99446L13.4508 8.65762L11.998 7.75607L10.5453 8.65762L10.9498 6.99446L9.64453 5.88501L11.3484 5.75508L11.998 4.17188Z" fill="white"/>
<path fill-rule="evenodd" clip-rule="evenodd" d="M16.0049 9.52033L15.991 9.54032C15.8309 9.42969 15.6345 9.38521 15.4427 9.41611C15.2508 9.44701 15.0781 9.55092 14.9607 9.70623L14.9408 9.69024C14.998 9.6121 15.0385 9.52293 15.0598 9.42833C15.081 9.33373 15.0826 9.23574 15.0643 9.14052C15.0517 9.04458 15.0197 8.95222 14.9704 8.86906C14.9211 8.78589 14.8554 8.71367 14.7773 8.65676C14.9626 8.70212 15.1502 8.73749 15.3393 8.76271C15.4351 8.74968 15.5272 8.71727 15.6101 8.66744C15.693 8.61762 15.7649 8.55141 15.8216 8.47285L15.8415 8.48685C15.732 8.64745 15.6879 8.84401 15.7183 9.03619C15.7486 9.22838 15.8512 9.40161 16.0049 9.52033ZM17.5294 6.95761L17.5154 6.9776C17.3558 6.86628 17.1595 6.82117 16.9674 6.85172C16.7754 6.88227 16.6026 6.98611 16.4852 7.14152L16.4652 7.12753C16.5755 6.96701 16.6199 6.77002 16.5891 6.57753C16.5583 6.38504 16.4547 6.21188 16.2998 6.09405L16.3138 6.07406C16.4741 6.1848 16.6708 6.22935 16.863 6.19845C17.0553 6.16756 17.2282 6.06359 17.346 5.90814L17.364 5.92413C17.2537 6.08466 17.2094 6.28165 17.2402 6.47413C17.271 6.66662 17.3746 6.83978 17.5294 6.95761ZM17.5413 4.24698L17.5154 4.28296C17.2227 4.0806 16.8636 3.99907 16.5126 4.05527C16.1616 4.11148 15.8456 4.30111 15.6303 4.58481L15.5944 4.55882C15.6978 4.41638 15.7713 4.25432 15.8104 4.0825C15.8494 3.91067 15.8532 3.73267 15.8216 3.55932C15.7986 3.38333 15.7399 3.21393 15.6491 3.06161C15.5582 2.90929 15.4372 2.77729 15.2935 2.67377L15.3194 2.63779C15.6121 2.84014 15.9712 2.92168 16.3222 2.86547C16.6732 2.80927 16.9892 2.61964 17.2046 2.33594L17.2404 2.36192C17.137 2.50436 17.0635 2.66642 17.0244 2.83825C16.9854 3.01008 16.9816 3.18808 17.0133 3.36142C17.0364 3.53735 17.0952 3.70666 17.1861 3.85895C17.2769 4.01124 17.3978 4.14329 17.5413 4.24698Z" fill="white"/>
</g>
<defs>
<clipPath id="clip0_29_187024">
<rect width="22.6142" height="24.5637" fill="white" transform="translate(0.738281)"/>
</clipPath>
</defs>
</svg>
