<svg width="18" height="18" viewBox="0 0 18 18" fill="none" xmlns="http://www.w3.org/2000/svg">
<path d="M2.07692 8.30769H6.23077C7.37585 8.30769 8.30769 7.37585 8.30769 6.23077V2.07692C8.30769 0.931846 7.37585 0 6.23077 0H2.07692C0.931846 0 0 0.931846 0 2.07692V6.23077C0 7.37585 0.931846 8.30769 2.07692 8.30769ZM1.38462 2.07692C1.38462 1.69546 1.69477 1.38462 2.07692 1.38462H6.23077C6.61292 1.38462 6.92308 1.69546 6.92308 2.07692V6.23077C6.92308 6.61223 6.61292 6.92308 6.23077 6.92308H2.07692C1.69477 6.92308 1.38462 6.61223 1.38462 6.23077V2.07692Z" fill="#3B4D60"/>
<path d="M11.7683 17.9991H15.9222C17.0673 17.9991 17.9991 17.0673 17.9991 15.9222V11.7683C17.9991 10.6233 17.0673 9.69141 15.9222 9.69141H11.7683C10.6233 9.69141 9.69141 10.6233 9.69141 11.7683V15.9222C9.69141 17.0673 10.6233 17.9991 11.7683 17.9991ZM11.076 11.7683C11.076 11.3869 11.3862 11.076 11.7683 11.076H15.9222C16.3043 11.076 16.6145 11.3869 16.6145 11.7683V15.9222C16.6145 16.3036 16.3043 16.6145 15.9222 16.6145H11.7683C11.3862 16.6145 11.076 16.3036 11.076 15.9222V11.7683Z" fill="#3B4D60"/>
<path d="M2.07692 17.9991H6.23077C7.37585 17.9991 8.30769 17.0673 8.30769 15.9222V11.7683C8.30769 10.6233 7.37585 9.69141 6.23077 9.69141H2.07692C0.931846 9.69141 0 10.6233 0 11.7683V15.9222C0 17.0673 0.931846 17.9991 2.07692 17.9991ZM1.38462 11.7683C1.38462 11.3869 1.69477 11.076 2.07692 11.076H6.23077C6.61292 11.076 6.92308 11.3869 6.92308 11.7683V15.9222C6.92308 16.3036 6.61292 16.6145 6.23077 16.6145H2.07692C1.69477 16.6145 1.38462 16.3036 1.38462 15.9222V11.7683Z" fill="#3B4D60"/>
<path d="M9.69141 4.15385C9.69141 3.77169 10.0009 3.46154 10.3837 3.46154H13.1529V0.692308C13.1529 0.310154 13.4624 0 13.8453 0C14.2281 0 14.5376 0.310154 14.5376 0.692308V3.46154H17.3068C17.6896 3.46154 17.9991 3.77169 17.9991 4.15385C17.9991 4.536 17.6896 4.84615 17.3068 4.84615H14.5376V7.61539C14.5376 7.99754 14.2281 8.30769 13.8453 8.30769C13.4624 8.30769 13.1529 7.99754 13.1529 7.61539V4.84615H10.3837C10.0009 4.84615 9.69141 4.536 9.69141 4.15385Z" fill="#3B4D60"/>
</svg>
