<svg width="106" height="102" viewBox="0 0 106 102" fill="none" xmlns="http://www.w3.org/2000/svg">
<path d="M119.088 13.1788L116.847 17.1576C114.135 21.0164 110.304 23.9497 105.871 25.5611C101.437 27.1725 96.6161 27.3843 92.0583 26.1678C86.1784 24.5787 81.1684 20.7233 78.1271 15.4471C75.0857 10.1709 74.2611 3.90445 75.8342 -1.97808L81.739 -0.390667C80.5847 3.92631 81.1898 8.52496 83.4218 12.397C85.6537 16.269 89.3303 19.0983 93.6453 20.2646C96.5282 21.0343 99.5633 21.0285 102.443 20.2479C105.323 19.4672 107.945 17.9395 110.044 15.8193L104.586 13.3631C103.218 14.322 101.655 14.9686 100.009 15.2575C98.3625 15.5464 96.6728 15.4704 95.0591 15.0349C92.1228 14.2455 89.6202 12.3223 88.1019 9.68842C86.5837 7.05449 86.1741 3.9256 86.9632 0.990063C87.7524 -1.94548 89.6757 -4.4472 92.3101 -5.96476C94.9444 -7.48231 98.074 -7.89139 101.01 -7.10201C103.558 -6.4123 105.789 -4.86516 107.328 -2.72169C108.867 -0.578228 109.619 2.03031 109.458 4.66368L103.352 4.29604C103.421 3.07211 103.068 1.86134 102.352 0.866423C101.635 -0.128493 100.599 -0.847171 99.4154 -1.16931C98.0451 -1.53769 96.5846 -1.34679 95.3553 -0.638592C94.1259 0.0696025 93.2284 1.23707 92.8601 2.60699C92.4918 3.97691 92.683 5.43706 93.3915 6.66622C94.1 7.89539 95.2679 8.79288 96.6382 9.16126C97.5643 9.40431 98.5387 9.39443 99.4597 9.13265C100.381 8.87086 101.214 8.36675 101.874 7.67294L103.368 6.12019L119.088 13.1788Z" fill="#2A9D8F"/>
<path d="M99.2174 -13.145L96.6645 -13.0401C93.7876 -12.9105 91.0012 -11.9956 88.6078 -10.3948C86.2143 -8.79392 84.3052 -6.56821 83.0876 -3.9592L77.6124 -6.67336C79.1302 -9.87731 81.403 -12.6652 84.2356 -14.7977C87.0683 -16.9302 90.3762 -18.3437 93.8756 -18.917L94.5973 -23.8976C88.3614 -23.1054 75.5091 -19.487 71.139 -3.2311C69.5806 2.49958 69.9139 8.58031 72.0892 14.107L66.3769 16.3375C63.7233 9.59487 63.3167 2.17645 65.2175 -4.81509C72.2319 -30.9072 98.0067 -30.2208 98.2661 -30.2143L101.66 -30.093L99.2174 -13.145Z" fill="#2A9D8F"/>
<path d="M125.771 39.7609L123.324 41.4135C117.846 45.1135 111.628 47.5781 105.102 48.6365L104.146 42.5956C108.818 41.8485 113.316 40.2649 117.425 37.9208L114.695 33.563C106.95 37.9316 97.798 39.0829 89.2112 36.7686C84.6385 35.5349 80.3738 33.36 76.6902 30.3832C73.0066 27.4064 69.9854 23.6934 67.8201 19.4819L73.2549 16.694C75.0291 20.1537 77.5065 23.205 80.5283 25.6523C83.5501 28.0997 87.0497 29.8892 90.803 30.9063C94.7168 31.9605 98.8136 32.1466 102.807 31.4514C106.8 30.7563 110.592 29.1968 113.919 26.8821L116.554 25.0586L125.771 39.7609Z" fill="#2A9D8F"/>
<path d="M100.483 49.1258C95.7026 49.38 90.9125 48.8747 86.2907 47.6289C83.3375 46.8373 80.472 45.7489 77.7381 44.3801L80.4743 38.9125C82.8449 40.0869 85.328 41.0195 87.8857 41.6962C91.8828 42.7755 96.0258 43.2137 100.16 42.9942L100.483 49.1258Z" fill="#E9C46A"/>
<path d="M76.9818 36.9397L73.6968 42.0936C65.5738 36.9396 59.3153 29.3202 55.8384 20.3519C52.3615 11.3837 51.849 1.53829 54.376 -7.74149C56.2444 -14.6944 59.744 -21.1015 64.5844 -26.4314L69.1043 -22.3125C64.9031 -17.7165 61.8759 -12.1728 60.2808 -6.15408C58.0949 1.86974 58.537 10.3829 61.5425 18.138C64.5479 25.893 69.9587 32.4821 76.9818 36.9397Z" fill="#E9C46A"/>
<path d="M164.207 21.7847L158.302 20.1973C162.575 4.21647 160.334 -12.8073 152.07 -27.14C143.806 -41.4727 130.194 -51.9441 114.219 -56.2575C109.238 -57.6001 104.088 -58.2089 98.9314 -58.0648L95.8987 -58.0889L95.736 -75.8245L98.8203 -75.7865C105.559 -75.8439 112.275 -74.9836 118.782 -73.2291C126.662 -71.1186 134.174 -67.8132 141.053 -63.428L137.761 -58.2761C131.407 -62.3243 124.472 -65.3763 117.195 -67.326C112.203 -68.6794 107.071 -69.4483 101.903 -69.6172L101.953 -64.1521C106.635 -64.0657 111.289 -63.3968 115.806 -62.1607C133.346 -57.4245 148.291 -45.927 157.365 -30.1901C166.438 -14.4532 168.899 4.23833 164.207 21.7847Z" fill="#E76F51"/>
<path d="M111.119 82.9167C99.8419 84.7984 88.2909 84.222 77.2565 81.227C66.154 78.2407 55.8258 72.8962 46.976 65.5578C38.1262 58.2194 30.9629 49.0597 25.9745 38.7032L31.4695 36.074C36.0826 45.6344 42.702 54.089 50.877 60.862C59.052 67.6351 68.5907 72.5677 78.8435 75.3238C89.0239 78.0829 99.6797 78.613 110.083 76.8781L111.119 82.9167Z" fill="#E76F51"/>
<path d="M29.0923 30.6016L23.3879 32.8026C21.9798 29.1556 20.8386 25.4111 19.9734 21.5987L25.941 20.2439C26.7356 23.7691 27.7888 27.231 29.0923 30.6016Z" fill="#E76F51"/>
<path d="M73.8547 -65.8256C62.4548 -61.881 52.1947 -55.2057 43.9705 -46.3828C35.7463 -37.5599 29.8082 -26.8577 26.6748 -15.211C24.1586 -5.92771 23.4931 3.75994 24.7162 13.3005L18.6592 14.0458C17.3377 3.71484 18.0576 -6.77474 20.778 -16.8279C24.1703 -29.4293 30.5946 -41.0093 39.4908 -50.5582C48.3871 -60.107 59.485 -67.3348 71.817 -71.6113L73.8547 -65.8256Z" fill="#E76F51"/>
<path d="M162.122 28.1694C156.429 43.2787 145.582 55.8922 131.495 63.7855C117.371 71.6973 100.899 74.3501 85.0028 71.2733L86.169 65.257C100.634 68.1103 115.643 65.7303 128.514 58.542C141.384 51.3536 151.28 39.825 156.433 26.0149L162.122 28.1694Z" fill="#264653"/>
<path d="M81.8187 64.2596L80.2317 70.1628C74.2327 68.5523 68.4789 66.1378 63.1272 62.9851L66.2362 57.7205C71.1111 60.594 76.353 62.7937 81.8187 64.2596Z" fill="#E76F51"/>
<path d="M60.8956 54.1728L57.2551 59.0888C47.3248 51.7579 39.5625 41.8783 34.7905 30.4967C30.0186 19.1152 28.4146 6.65546 30.1486 -5.56236L30.6059 -8.79423L47.7549 -5.19676L47.3491 -2.3625C46.0619 6.61465 47.2655 15.7732 50.8288 24.1138L45.2016 26.5571C41.568 18.0793 40.0996 8.83156 40.9287 -0.353924L35.788 -1.42735C34.8548 9.21413 36.6739 19.9171 41.0708 29.6538C45.4676 39.3905 52.2944 47.8338 60.8956 54.1728Z" fill="#264653"/>
<path d="M123.812 54.8996C111.26 61.26 96.7974 62.7521 83.2092 59.0886C75.7728 57.1465 68.8053 53.7225 62.7249 49.0218C56.6445 44.3212 51.5766 38.4409 47.8252 31.734L53.1669 28.7629C56.525 34.7577 61.0605 40.0121 66.501 44.2104C71.9415 48.4087 78.1745 51.4642 84.8257 53.1934C96.9573 56.4664 109.871 55.1322 121.075 49.4481L123.812 54.8996Z" fill="#E9C46A"/>
<path d="M141.671 15.7327C139.74 22.9291 136.061 29.5367 130.96 34.9679L128.411 37.6771L118.428 23.7341L119.748 21.9448C122.038 18.6755 123.781 15.0555 124.909 11.2264C128.664 -2.74199 121.809 -16.548 109.121 -21.6364L108.187 -16.8634C118.219 -12.7025 123.352 -1.70913 120.214 9.96442L114.309 8.377C116.845 -1.05333 112.456 -9.57574 103.879 -11.8815L101.126 -12.6216L104.412 -29.4379L107.579 -28.5866C125.551 -23.755 135.755 -5.56721 130.813 12.8138C129.713 16.6607 128.066 20.3294 125.922 23.7075L128.951 27.9242C132.111 23.8262 134.43 19.1442 135.773 14.1472L141.671 15.7327Z" fill="#2A9D8F"/>
</svg>
