<svg width="18" height="14" viewBox="0 0 18 14" fill="none" xmlns="http://www.w3.org/2000/svg">
<path d="M11.2347 6.90163L12.257 5.87929C12.3314 6.15758 12.375 6.44854 12.375 6.75004C12.375 8.61107 10.861 10.125 9 10.125C8.6985 10.125 8.40755 10.0814 8.12925 10.0071L9.15159 8.98471C10.2694 8.90849 11.1585 8.01946 11.2347 6.90163ZM17.9291 6.4768C17.8599 6.35235 16.8787 4.63293 14.9605 3.17577L14.142 3.99435C15.5406 5.02274 16.4268 6.22213 16.7757 6.75088C16.109 7.76605 13.4937 11.25 9 11.25C8.32613 11.25 7.6995 11.1638 7.10986 11.0263L6.18553 11.9506C7.03533 12.2112 7.96936 12.375 9 12.375C14.8884 12.375 17.8078 7.24166 17.9291 7.02327C18.0236 6.85325 18.0236 6.64682 17.9291 6.4768ZM15.5852 0.960222L3.21019 13.3352C3.10036 13.4451 2.95636 13.5 2.8125 13.5C2.66864 13.5 2.52464 13.4451 2.41481 13.3352C2.19502 13.1154 2.19502 12.7595 2.41481 12.5398L3.98925 10.9654C1.44394 9.4288 0.150609 7.16685 0.070875 7.02327C-0.023625 6.85325 -0.023625 6.64668 0.070875 6.47666C0.192234 6.25841 3.11161 1.12504 9 1.12504C10.5225 1.12504 11.8413 1.47238 12.9687 1.98594L14.7898 0.164848C15.0096 -0.0549492 15.3655 -0.0549492 15.5852 0.164848C15.8048 0.384645 15.805 0.740566 15.5852 0.960222ZM4.82808 10.1266L6.25219 8.70247C5.85886 8.15066 5.625 7.47777 5.625 6.75004C5.625 4.889 7.13897 3.37504 9 3.37504C9.72773 3.37504 10.4006 3.60889 10.9524 4.00208L12.104 2.8505C11.1942 2.48614 10.1603 2.25004 9 2.25004C4.50633 2.25004 1.89098 5.73402 1.22442 6.74919C1.6477 7.39072 2.86439 9.01466 4.82808 10.1266ZM7.0688 7.88572L10.1357 4.81883C9.80114 4.62125 9.41597 4.50004 9 4.50004C7.75941 4.50004 6.75 5.50944 6.75 6.75004C6.75 7.166 6.87122 7.55118 7.0688 7.88572Z" fill="#E76F51"/>
</svg>
