<svg width="17" height="17" viewBox="0 0 17 17" fill="none" xmlns="http://www.w3.org/2000/svg">
<path d="M8.39583 12.5C8.57639 12.5 8.72569 12.441 8.84375 12.3229C8.96181 12.2049 9.02083 12.0556 9.02083 11.875V8.10417C9.02083 7.9375 8.95833 7.79514 8.83333 7.67708C8.70833 7.55903 8.5625 7.5 8.39583 7.5C8.21528 7.5 8.06597 7.55903 7.94792 7.67708C7.82986 7.79514 7.77083 7.94444 7.77083 8.125V11.8958C7.77083 12.0625 7.83333 12.2049 7.95833 12.3229C8.08333 12.441 8.22917 12.5 8.39583 12.5ZM8.33333 5.95833C8.52778 5.95833 8.69097 5.89583 8.82292 5.77083C8.95486 5.64583 9.02083 5.48611 9.02083 5.29167C9.02083 5.09722 8.95486 4.93056 8.82292 4.79167C8.69097 4.65278 8.52778 4.58333 8.33333 4.58333C8.13889 4.58333 7.97569 4.65278 7.84375 4.79167C7.71181 4.93056 7.64583 5.09722 7.64583 5.29167C7.64583 5.48611 7.71181 5.64583 7.84375 5.77083C7.97569 5.89583 8.13889 5.95833 8.33333 5.95833ZM8.33333 16.6667C7.15278 16.6667 6.05556 16.4549 5.04167 16.0312C4.02778 15.6076 3.14583 15.0208 2.39583 14.2708C1.64583 13.5208 1.05903 12.6389 0.635417 11.625C0.211806 10.6111 0 9.51389 0 8.33333C0 7.16667 0.211806 6.07639 0.635417 5.0625C1.05903 4.04861 1.64583 3.16667 2.39583 2.41667C3.14583 1.66667 4.02778 1.07639 5.04167 0.645833C6.05556 0.215278 7.15278 0 8.33333 0C9.5 0 10.5903 0.215278 11.6042 0.645833C12.6181 1.07639 13.5 1.66667 14.25 2.41667C15 3.16667 15.5903 4.04861 16.0208 5.0625C16.4514 6.07639 16.6667 7.16667 16.6667 8.33333C16.6667 9.51389 16.4514 10.6111 16.0208 11.625C15.5903 12.6389 15 13.5208 14.25 14.2708C13.5 15.0208 12.6181 15.6076 11.6042 16.0312C10.5903 16.4549 9.5 16.6667 8.33333 16.6667ZM8.33333 15.4167C10.2778 15.4167 11.9444 14.7222 13.3333 13.3333C14.7222 11.9444 15.4167 10.2778 15.4167 8.33333C15.4167 6.38889 14.7222 4.72222 13.3333 3.33333C11.9444 1.94444 10.2778 1.25 8.33333 1.25C6.38889 1.25 4.72222 1.94444 3.33333 3.33333C1.94444 4.72222 1.25 6.38889 1.25 8.33333C1.25 10.2778 1.94444 11.9444 3.33333 13.3333C4.72222 14.7222 6.38889 15.4167 8.33333 15.4167Z" fill="#264653"/>
</svg>
