<svg width="16" height="16" viewBox="0 0 16 16" fill="none" xmlns="http://www.w3.org/2000/svg">
<path d="M7.63635 0C3.41815 0 0 3.41819 0 7.63635C0 11.8545 3.41815 15.2727 7.63635 15.2727C7.81819 15.2727 7.99635 15.2654 8.17454 15.2509C7.58516 14.4036 7.27035 13.3957 7.27274 12.3636C7.27298 11.0135 7.80942 9.71877 8.7641 8.7641C9.71877 7.80942 11.0135 7.27298 12.3636 7.27274C13.3957 7.27037 14.4036 7.58518 15.2509 8.17454C15.2654 7.99635 15.2727 7.81819 15.2727 7.63635C15.2727 3.41819 11.8546 0 7.63635 0ZM8.36365 7.63635C8.36364 7.82924 8.28701 8.01422 8.15062 8.15062C8.01422 8.28701 7.82924 8.36364 7.63635 8.36365H4.36363C4.17161 8.36233 3.9879 8.28513 3.85258 8.14888C3.71726 8.01263 3.64131 7.8284 3.64131 7.63637C3.64131 7.44434 3.71726 7.26011 3.85258 7.12386C3.9879 6.98761 4.17161 6.91041 4.36363 6.90909H6.90909V2.90911C6.90843 2.81318 6.92676 2.71807 6.96302 2.62926C6.99927 2.54045 7.05274 2.45968 7.12034 2.39162C7.18794 2.32355 7.26833 2.26954 7.3569 2.23268C7.44546 2.19581 7.54044 2.17684 7.63637 2.17684C7.7323 2.17684 7.82728 2.19581 7.91584 2.23268C8.00441 2.26954 8.0848 2.32355 8.1524 2.39162C8.22 2.45968 8.27347 2.54045 8.30972 2.62926C8.34598 2.71807 8.3643 2.81318 8.36365 2.90911V7.63635Z" fill="white"/>
<path d="M12.3629 8.72656C11.6437 8.72656 10.9407 8.93983 10.3427 9.3394C9.74468 9.73897 9.27859 10.3069 9.00337 10.9714C8.72814 11.6358 8.65613 12.367 8.79644 13.0724C8.93675 13.7777 9.28308 14.4257 9.79163 14.9342C10.3002 15.4428 10.9481 15.7891 11.6535 15.9294C12.3589 16.0697 13.0901 15.9977 13.7545 15.7225C14.419 15.4473 14.9869 14.9812 15.3865 14.3832C15.786 13.7852 15.9993 13.0821 15.9993 12.3629C15.9993 11.8854 15.9053 11.4125 15.7225 10.9713C15.5398 10.5302 15.2719 10.1293 14.9342 9.79162C14.5966 9.45395 14.1957 9.1861 13.7545 9.00336C13.3133 8.82061 12.8405 8.72656 12.3629 8.72656ZM12.3629 14.9084C12.2191 14.9084 12.0785 14.8658 11.9589 14.7858C11.8393 14.7059 11.746 14.5923 11.691 14.4594C11.6359 14.3266 11.6215 14.1803 11.6496 14.0392C11.6776 13.8981 11.7469 13.7686 11.8486 13.6668C11.9503 13.5651 12.0799 13.4958 12.221 13.4678C12.3621 13.4397 12.5083 13.4541 12.6412 13.5092C12.7741 13.5642 12.8877 13.6574 12.9676 13.777C13.0475 13.8966 13.0902 14.0373 13.0902 14.1811C13.0902 14.374 13.0136 14.559 12.8772 14.6954C12.7408 14.8318 12.5558 14.9084 12.3629 14.9084ZM13.0902 12.3629C13.0902 12.5558 13.0136 12.7408 12.8772 12.8772C12.7408 13.0136 12.5558 13.0902 12.3629 13.0902C12.1701 13.0902 11.9851 13.0136 11.8487 12.8772C11.7123 12.7408 11.6357 12.5558 11.6357 12.3629V10.5448C11.6357 10.3519 11.7123 10.1669 11.8487 10.0305C11.9851 9.89413 12.1701 9.8175 12.3629 9.8175C12.5558 9.8175 12.7408 9.89413 12.8772 10.0305C13.0136 10.1669 13.0902 10.3519 13.0902 10.5448V12.3629Z" fill="white"/>
</svg>
