<svg width="23" height="19" viewBox="0 0 23 19" fill="none" xmlns="http://www.w3.org/2000/svg">
<path d="M21.8139 11.0986C21.6673 11.0482 21.5082 11.047 21.3609 11.0951C21.2135 11.1433 21.0858 11.2381 20.9972 11.3654L20.0623 12.6906L14.4176 4.7436C14.3073 4.58818 14.1397 4.48294 13.9518 4.45102C13.7639 4.41911 13.5711 4.46312 13.4156 4.57338L8.43472 8.11133L3.44032 1.0793C3.32964 0.924235 3.16205 0.819309 2.97422 0.787476C2.78638 0.755644 2.59358 0.799497 2.438 0.909442L0.973295 1.95002C0.818565 2.06095 0.713894 2.22849 0.682051 2.41619C0.650209 2.6039 0.69377 2.79658 0.803261 2.95233L7.25429 12.035C7.3647 12.1903 7.53228 12.2955 7.7202 12.3274C7.90812 12.3592 8.10099 12.3151 8.25643 12.2048L13.2373 8.66724L17.4252 14.5636L15.866 15.0096C15.7171 15.0522 15.586 15.1417 15.4921 15.2648C15.3982 15.3879 15.3465 15.538 15.3448 15.6928C15.343 15.8476 15.3913 15.9988 15.4824 16.124C15.5736 16.2492 15.7026 16.3416 15.8505 16.3875L21.1787 18.0426C21.2842 18.0755 21.396 18.0836 21.5052 18.0662C21.6144 18.0489 21.7182 18.0065 21.8083 17.9425C21.8985 17.8785 21.9727 17.7945 22.0251 17.6971C22.0775 17.5997 22.1067 17.4916 22.1104 17.381L22.3028 11.8044C22.3089 11.6496 22.2645 11.4971 22.1764 11.3698C22.0882 11.2424 21.9609 11.1473 21.8139 11.0986Z" fill="#E53935"/>
</svg>
