<svg width="34" height="35" viewBox="0 0 34 35" fill="none" xmlns="http://www.w3.org/2000/svg">
<path opacity="0.3" d="M16.5837 4.99803L8.32839 14.9044C7.63866 15.7321 6.40856 15.8439 5.58088 15.1542C4.7532 14.4645 4.64138 13.2344 5.33111 12.4067L15.0851 0.701925C15.865 -0.233975 17.3024 -0.233975 18.0823 0.701925L27.8363 12.4067C28.526 13.2344 28.4142 14.4645 27.5865 15.1542C26.7589 15.8439 25.5288 15.7321 24.839 14.9044L16.5837 4.99803Z" fill="#264653"/>
<path d="M0.593644 15.0485C0.312366 14.3888 0.796386 13.6562 1.51351 13.6562H31.6516C32.3687 13.6562 32.8527 14.3888 32.5715 15.0484L25.164 32.4244C24.6925 33.5303 23.6064 34.2479 22.4043 34.2479H10.7624C9.56031 34.2479 8.47429 33.5304 8.0028 32.4246L0.593644 15.0485Z" fill="#FF6A6C"/>
<path fill-rule="evenodd" clip-rule="evenodd" d="M16.5813 29.2602C18.7361 29.2602 20.4829 27.5134 20.4829 25.3586C20.4829 23.2038 18.7361 21.457 16.5813 21.457C14.4265 21.457 12.6797 23.2038 12.6797 25.3586C12.6797 27.5134 14.4265 29.2602 16.5813 29.2602Z" fill="white"/>
</svg>
