<svg width="34" height="35" viewBox="0 0 34 35" fill="none" xmlns="http://www.w3.org/2000/svg">
<path opacity="0.3" d="M16.5827 4.99803L8.32741 14.9044C7.63768 15.7321 6.40758 15.8439 5.5799 15.1542C4.75223 14.4645 4.6404 13.2344 5.33013 12.4067L15.0841 0.701925C15.864 -0.233975 17.3015 -0.233975 18.0814 0.701925L27.8353 12.4067C28.5251 13.2344 28.4132 14.4645 27.5856 15.1542C26.7579 15.8439 25.5278 15.7321 24.838 14.9044L16.5827 4.99803Z" fill="white"/>
<path d="M0.593644 15.047C0.312366 14.3874 0.796386 13.6548 1.51351 13.6548H31.6516C32.3687 13.6548 32.8527 14.3873 32.5715 15.0469L25.164 32.4229C24.6925 33.5288 23.6064 34.2465 22.4043 34.2465H10.7624C9.56031 34.2465 8.47429 33.5289 8.0028 32.4232L0.593644 15.047Z" fill="white"/>
<path fill-rule="evenodd" clip-rule="evenodd" d="M16.5832 29.2617C18.738 29.2617 20.4848 27.5149 20.4848 25.3601C20.4848 23.2053 18.738 21.4585 16.5832 21.4585C14.4284 21.4585 12.6816 23.2053 12.6816 25.3601C12.6816 27.5149 14.4284 29.2617 16.5832 29.2617Z" fill="#FF6A6C"/>
</svg>
