<svg width="18" height="18" viewBox="0 0 18 18" fill="none" xmlns="http://www.w3.org/2000/svg">
<path d="M17.8455 0.154465C17.7084 0.0172852 17.5069 -0.0334804 17.3211 0.0222422L1.18856 4.86203C0.477633 5.07529 0 5.71724 0 6.45971C0 7.19187 0.49166 7.8437 1.1957 8.04487L8.0086 9.9914L9.95513 16.8043C10.1563 17.5083 10.8081 18 11.5406 18C12.2828 18 12.9247 17.5224 13.138 16.8114L17.9778 0.678856C18.0335 0.493055 17.9827 0.291645 17.8455 0.154465ZM1.05469 6.45946C1.05469 6.18661 1.23026 5.95064 1.49161 5.87225L15.6208 1.63349L8.28169 8.97257L1.48542 7.03079C1.23184 6.95829 1.05469 6.72348 1.05469 6.45946ZM12.1278 16.5084C12.0494 16.7697 11.8134 16.9453 11.5403 16.9453C11.2765 16.9453 11.0417 16.7682 10.9692 16.5146L9.02746 9.71831L16.3665 2.37922L12.1278 16.5084Z" fill="#3B4D60"/>
</svg>
