<svg width="31" height="29" viewBox="0 0 31 29" fill="none" xmlns="http://www.w3.org/2000/svg">
<path d="M13.357 0.000860334C13.0879 0.0134756 12.8433 0.161665 12.7074 0.394246C12.6022 0.577435 12.574 0.794742 12.6292 0.998536C12.6843 1.20234 12.8181 1.37593 13.001 1.48092L24.9825 8.39943L23.7638 8.72583C23.5593 8.7802 23.3849 8.91364 23.279 9.09683C23.1731 9.28002 23.1445 9.49786 23.1996 9.70221C23.254 9.90637 23.3872 10.0807 23.57 10.1866C23.7528 10.2923 23.9702 10.3212 24.1742 10.2667L27.2472 9.4442C27.2629 9.4394 27.2785 9.43425 27.294 9.42874C27.3085 9.42394 27.3231 9.41879 27.3375 9.4131C27.3494 9.40831 27.3615 9.40315 27.3732 9.39764C27.3933 9.38858 27.413 9.37881 27.4322 9.36815C27.4519 9.35696 27.4711 9.34505 27.4897 9.33226C27.5084 9.32018 27.5267 9.3072 27.5443 9.29352C27.621 9.23222 27.6858 9.15742 27.7354 9.07266C27.84 8.88912 27.8674 8.67163 27.8116 8.46783L27.8024 8.43051C27.8018 8.42945 27.8011 8.42838 27.8006 8.42732L26.9893 5.39409C26.9443 5.2244 26.8445 5.07408 26.7052 4.96694C26.5661 4.8598 26.3954 4.8017 26.2197 4.80188C26.1499 4.80259 26.0804 4.81254 26.0131 4.83137C25.8092 4.88592 25.6354 5.01936 25.5299 5.20219C25.4244 5.38503 25.3958 5.60233 25.4503 5.80612L25.7753 7.02343L13.7938 0.106286C13.681 0.0412537 13.554 0.00518305 13.4238 0.000743557C13.4016 -0.000322512 13.3792 -0.000205735 13.357 0.000860334Z" fill="#FDCA64"/>
<path fill-rule="evenodd" clip-rule="evenodd" d="M3.93246 3.43791H0.711403C0.319674 3.43791 0 3.75759 0 4.14931V27.5538C0 27.9455 0.31968 28.2652 0.711403 28.2652H3.93246C4.32419 28.2652 4.64387 27.9455 4.64387 27.5538L4.6436 4.14863C4.6436 3.75663 4.32419 3.4375 3.93247 3.4375L3.93246 3.43791ZM12.5542 13.7886H9.33309C8.94136 13.7886 8.62169 14.1083 8.62169 14.5V27.5538C8.62169 27.9455 8.94137 28.2652 9.33309 28.2652H12.5542C12.9459 28.2652 13.2656 27.9455 13.2656 27.5538V14.5C13.2653 14.1083 12.9459 13.7886 12.5542 13.7886ZM21.1765 10.267H17.9559C17.5642 10.267 17.2445 10.5867 17.2445 10.9784V27.5537C17.2445 27.9454 17.5642 28.2651 17.9559 28.2651H21.1765C21.5683 28.2651 21.8879 27.9454 21.8879 27.5537L21.8877 10.9784C21.8877 10.5862 21.5682 10.2665 21.1765 10.2665L21.1765 10.267ZM29.7982 17.7909H26.5776C26.1859 17.7909 25.8662 18.1106 25.8662 18.5023V27.5544C25.8662 27.9461 26.1859 28.2658 26.5776 28.2658H29.7982C30.1899 28.2658 30.5096 27.9461 30.5096 27.5544L30.5094 18.5023C30.5099 18.1106 30.1902 17.7912 29.7982 17.7912L29.7982 17.7909Z" fill="#FDCA64"/>
</svg>
