<svg width="24" height="24" viewBox="0 0 24 24" fill="none" xmlns="http://www.w3.org/2000/svg">
<path d="M20.4853 3.51469C18.2188 1.24823 15.2053 0 12 0C8.79469 0 5.78123 1.24823 3.51469 3.51469C1.24823 5.78123 0 8.79469 0 12C0 15.2053 1.24823 18.2188 3.51469 20.4853C5.78123 22.7518 8.79469 24 12 24C15.2053 24 18.2188 22.7518 20.4853 20.4853C22.7518 18.2188 24 15.2053 24 12C24 8.79469 22.7518 5.78123 20.4853 3.51469ZM12.7031 7.74764C13.9946 7.70902 15.2486 7.56417 16.4237 7.32356C16.7162 8.55647 16.8901 9.90005 16.9339 11.2969H12.7031V7.74764ZM12.7031 6.34064V1.52456C13.6747 1.8488 14.617 2.83012 15.3652 4.32638C15.6189 4.83384 15.8442 5.38397 16.0395 5.96892C14.9877 6.17742 13.864 6.30412 12.7031 6.34064ZM11.2969 1.52456V6.34064C10.136 6.30412 9.01228 6.17737 7.96045 5.96887C8.15583 5.38392 8.38111 4.8338 8.63484 4.32633C9.38297 2.83013 10.3253 1.8488 11.2969 1.52456ZM11.2969 7.74764V11.2969H7.06608C7.10991 9.90005 7.28377 8.55647 7.57631 7.32356C8.75142 7.56417 10.0054 7.70902 11.2969 7.74764ZM5.65927 11.2969H1.42978C1.55841 9.32123 2.22778 7.45059 3.3668 5.85703C4.20591 6.31139 5.16567 6.69202 6.21122 6.99047C5.89209 8.3325 5.70403 9.789 5.65927 11.2969ZM5.65927 12.7031C5.70403 14.211 5.89209 15.6675 6.21117 17.0095C5.16563 17.308 4.20586 17.6886 3.36675 18.143C2.22778 16.5494 1.55841 14.6788 1.42978 12.7031H5.65927ZM7.06608 12.7031H11.2969V16.2524C10.0054 16.291 8.75142 16.4358 7.57631 16.6764C7.28377 15.4435 7.10986 14.1 7.06608 12.7031ZM11.2969 17.6594V22.4754C10.3253 22.1512 9.38297 21.1699 8.63484 19.6736C8.38111 19.1662 8.15583 18.616 7.96045 18.0311C9.01228 17.8226 10.136 17.6959 11.2969 17.6594ZM12.7031 22.4754V17.6594C13.864 17.6959 14.9877 17.8226 16.0395 18.0311C15.8442 18.6161 15.6189 19.1662 15.3652 19.6737C14.617 21.1699 13.6747 22.1512 12.7031 22.4754ZM12.7031 16.2524V12.7031H16.9339C16.8901 14.1 16.7162 15.4435 16.4237 16.6764C15.2486 16.4358 13.9946 16.291 12.7031 16.2524ZM18.3407 12.7031H22.5702C22.4416 14.6788 21.7722 16.5494 20.6332 18.143C19.7941 17.6886 18.8343 17.308 17.7888 17.0095C18.1079 15.6675 18.296 14.211 18.3407 12.7031ZM18.3407 11.2969C18.296 9.789 18.1079 8.3325 17.7888 6.99047C18.8344 6.69202 19.7941 6.31139 20.6332 5.85703C21.7723 7.45059 22.4416 9.32123 22.5703 11.2969H18.3407ZM19.7218 4.74802C19.0309 5.0993 18.2531 5.39817 17.4101 5.63925C17.1852 4.94728 16.9223 4.29623 16.6229 3.69745C16.3048 3.06112 15.9543 2.50195 15.5779 2.02284C17.0326 2.54339 18.366 3.38419 19.4909 4.50914C19.5694 4.58761 19.6461 4.66748 19.7218 4.74802ZM8.42208 2.02284C8.04562 2.50195 7.69519 3.06117 7.37705 3.69745C7.07766 4.29623 6.81478 4.94728 6.58983 5.63925C5.74687 5.39817 4.96908 5.0993 4.27819 4.74802C4.35394 4.66748 4.43053 4.58761 4.50905 4.50914C5.634 3.38414 6.96741 2.54339 8.42208 2.02284ZM4.27823 19.252C4.96908 18.9007 5.74692 18.6018 6.58988 18.3608C6.81483 19.0527 7.0777 19.7038 7.37709 20.3025C7.69523 20.9389 8.04567 21.498 8.42212 21.9772C6.96741 21.4566 5.63405 20.6158 4.50914 19.4909C4.43058 19.4124 4.35394 19.3325 4.27823 19.252ZM15.5779 21.9772C15.9544 21.498 16.3048 20.9388 16.623 20.3025C16.9223 19.7038 17.1852 19.0527 17.4102 18.3608C18.2531 18.6018 19.0309 18.9007 19.7218 19.252C19.6461 19.3325 19.5695 19.4124 19.491 19.4909C18.366 20.6159 17.0326 21.4566 15.5779 21.9772Z" fill="#3B4D60"/>
</svg>
