<svg width="24" height="24" viewBox="0 0 24 24" fill="none" xmlns="http://www.w3.org/2000/svg">
<path d="M11.3405 18.0184C11.3528 18.1682 11.2372 18.3 11.0868 18.3H4.35C3.975 18.3 3.65625 18.1687 3.39375 17.9062C3.13125 17.6437 3 17.325 3 16.95V6.15C3 5.775 3.13125 5.45625 3.39375 5.19375C3.65625 4.93125 3.975 4.8 4.35 4.8H5.45C5.58807 4.8 5.7 4.68807 5.7 4.55V3.25C5.7 3.11193 5.81193 3 5.95 3H6.8C6.93807 3 7.05 3.11193 7.05 3.25V4.55C7.05 4.68807 7.16193 4.8 7.3 4.8H13.1C13.2381 4.8 13.35 4.68807 13.35 4.55V3.25C13.35 3.11193 13.4619 3 13.6 3H14.45C14.5881 3 14.7 3.11193 14.7 3.25V4.55C14.7 4.68807 14.8119 4.8 14.95 4.8H16.05C16.425 4.8 16.7437 4.93125 17.0062 5.19375C17.2687 5.45625 17.4 5.775 17.4 6.15V11.9868C17.4 12.1372 17.2682 12.2528 17.1184 12.2405C17.0995 12.239 17.0809 12.2376 17.0625 12.2362C16.9575 12.2287 16.845 12.225 16.725 12.225C16.605 12.225 16.4925 12.2287 16.3875 12.2362C16.3691 12.2376 16.3505 12.239 16.3316 12.2405C16.1818 12.2528 16.05 12.1372 16.05 11.9868V9.1C16.05 8.96193 15.9381 8.85 15.8 8.85H4.6C4.46193 8.85 4.35 8.96193 4.35 9.1V16.7C4.35 16.8381 4.46193 16.95 4.6 16.95H11.0868C11.2372 16.95 11.3528 17.0818 11.3405 17.2316C11.339 17.2505 11.3376 17.2691 11.3362 17.2875C11.3287 17.3925 11.325 17.505 11.325 17.625C11.325 17.745 11.3287 17.8575 11.3362 17.9625C11.3376 17.9809 11.339 17.9995 11.3405 18.0184ZM16.3 21C16.1619 21 16.05 20.8881 16.05 20.75V18.55C16.05 18.4119 15.9381 18.3 15.8 18.3H13.6C13.4619 18.3 13.35 18.1881 13.35 18.05V17.2C13.35 17.0619 13.4619 16.95 13.6 16.95H15.8C15.9381 16.95 16.05 16.8381 16.05 16.7V14.5C16.05 14.3619 16.1619 14.25 16.3 14.25H17.15C17.2881 14.25 17.4 14.3619 17.4 14.5V16.7C17.4 16.8381 17.5119 16.95 17.65 16.95H19.85C19.9881 16.95 20.1 17.0619 20.1 17.2V18.05C20.1 18.1881 19.9881 18.3 19.85 18.3H17.65C17.5119 18.3 17.4 18.4119 17.4 18.55V20.75C17.4 20.8881 17.2881 21 17.15 21H16.3Z" fill="#3B4D60"/>
</svg>
